**ABCDEFGHIJKLMNOPQRSTUVWXYZabcdefghijklmnopqrstuvwxyz**************************
**PARASOLID !"#$%&'()*+,-./:;<=>?@[\]^_`{|}~0123456789**************************
**PART1;
MC=AMD64;
MC_MODEL=Intel64 Family 6 Model 85 Stepping 7, GenuineIntel;
MC_ID=unknown;
OS=Windows_NT;
OS_RELEASE=unknown;
FRU=Parasolid Version 33.1, build 255,  1- 8-2022;
APPL=SOLIDWORKS 2022-2022167;
SITE=;
USER=unknown;
FORMAT=text;
GUISE=transmit;
KEY=FILEFurrClip_1.x_t;
DATE=Thu Dec  7 13:35:22 2023;
**PART2;
SCH=SCH_3301255_33103;
USFLD_SIZE=0;
**PART3;
**END_OF_HEADER*****************************************************************
T51 : TRANSMIT FILE created by modeller version 330125523 SCH_3301255_33103_1300
6230 0 12 35 CCCI7 lattice222 0 CCCI4 mesh1006 0 I8 polyline1008 0 CCCCCCCDI5 ow
ner1040 0 CCCCCCI13 boundary_mesh1006 0 I17 boundary_polyline1008 0 CCCA16 index
_map_offset0 0 1 dA9 index_map82 0 A17 node_id_index_map82 0 A20 schema_embeddin
g_map82 0 A5 child12 0 A14 lowest_node_id0 0 1 dA16 mesh_offset_data206 0 Z1 308
3 2 3 0 0 0 0 0 0 0 1e3 1e-8 0 4 0 1 0 1 1 5 6 7 8 0 0 9 10 11 0 0 0 0 0 0 0 81
 255 2 2 3039 12 1 13 0 0 0 0 14 70 11 CI9 list_type0 0 1 uI10 notransmit0 0 1 l
CCCDCCDI12 finger_index0 0 1 dI12 finger_block1012 0 CZ3 0 4 T1 0 0 12 20 1 15 1
5 13 255 5 176 0 1 0 16 0 0 17 0 51 255 6 1927 0 18 19 0 0 +-.01326544699894002
 .00175 -.00894583232116016 0 -1 0 .0015 0 0 -1 31 255 7 1930 0 20 21 0 0 +-.013
26544699894002 .0035 -.00894583232116016 0 1 0 0 0 1 .0015 29 255 8 2156 0 11 22
 0 -.00252466635040463 0 -.01424982794046996 19 8 CCCCCCCA5 owner12 0 Z9 56 0 1
 17 0 23 V0 16 255 10 1771 0 ?24 0 25 26 0 0 1 18 255 11 2154 0 27 0 28 8 ?1 17
 255 27 0 29 30 31 11 32 33 0 34 -18 28 1714 0 35 11 36 22 ?1 17 35 0 37 38 39 2
8 40 41 0 42 +18 36 1711 0 43 28 44 45 ?1 29 22 1716 0 28 45 8 .0036380791860179
4 0 -.0164866801390767 29 45 1713 0 36 46 22 .01399380836051364 0 .0094587669353
6815 29 46 1710 0 44 47 45 -.01450908265509064 0 -.00978450410126892 18 44 1708
 0 48 36 49 46 ?1 29 47 1707 0 49 50 46 .002501049733376235 0 -.0173203565272536
5 18 49 1705 0 51 44 52 47 ?1 29 50 1704 0 52 53 47 .013740546006031 0 .01083731
495602788 18 52 1702 0 54 49 55 50 ?1 29 53 1701 0 55 56 50 -.003790909409408775
 0 .01708446680027375 18 55 1699 0 57 52 58 53 ?1 29 56 1686 0 58 59 53 -.004898
99534645444 0 .0160633115590209 18 58 1684 0 60 55 61 56 ?1 29 59 1683 0 61 62 5
6 -.01461466387939782 0 -.00829038300238129 18 61 1681 0 63 58 64 59 ?1 29 62 16
68 0 64 65 59 .002501049733376235 .0035 -.01732035652725365 18 64 1666 0 66 61 6
7 62 ?1 29 65 1665 0 67 68 62 -.01450908265509064 .0035 -.00978450410126892 18 6
7 1663 0 69 64 70 65 ?1 29 68 1650 0 70 71 65 .01399380836051224 .0035 .00945876
693536372 18 70 1648 0 72 67 73 68 ?1 29 71 1647 0 73 74 68 .00363807918602307 .
0035 -.01648668013906605 18 73 1645 0 75 70 76 71 ?1 29 74 1632 0 76 77 71 -.003
790909409408775 .0035 .01708446680027375 18 76 1630 0 78 73 79 74 ?1 29 77 1629
 0 79 80 74 .013740546006031 .0035 .01083731495602788 18 79 1627 0 24 76 81 77 ?
1 29 80 1614 0 81 82 77 -.01461466387939544 .0035 -.00829038300237636 18 81 1612
 0 83 79 84 80 ?1 29 82 1611 0 84 85 80 -.00489899534645445 .0035 .0160633115590
209 18 84 1609 0 86 81 87 82 ?1 29 85 1584 0 87 88 82 .003187610804659945 .004 -
.01626970493911895 18 87 1582 0 89 84 90 85 ?1 29 88 1581 0 90 91 85 .0135168005
4694236 .004 .0096086453720825 18 90 1579 0 92 87 93 88 ?1 29 91 1578 0 93 94 88
 .01334795897728726 .004 .01052767738585564 18 93 1576 0 95 90 96 91 ?1 29 94 15
75 0 96 97 91 -.003682597711997095 .004 .0165963391774088 18 96 1573 0 98 93 99
 94 ?1 29 97 1572 0 99 100 94 -.00442132167002754 .004 .01591556901657355 18 99
 1570 0 101 96 102 97 ?1 29 100 1569 0 102 103 97 -.01416492491924522 .004 -.008
50886610864091 18 102 1567 0 104 99 105 100 ?1 29 103 1566 0 105 106 100 -.01409
453743637376 .004 -.00950494684123266 18 105 1564 0 107 102 108 103 ?1 29 106 15
63 0 108 109 103 .002429591169565485 .004 -.01682548919790355 18 108 1561 0 110
 105 111 106 ?1 29 109 895 0 111 112 106 -.004425435873402785 0 .012533479123607
 18 111 892 0 113 108 114 109 ?1 29 112 891 0 114 115 109 .01138567657819252 0 .
00622268607153378 18 114 888 0 116 111 117 112 ?1 29 115 875 0 117 118 112 .0116
7338153372234 0 .00559638316426028 18 117 871 0 119 114 120 115 200080993047789e
-20 1 29 118 870 0 120 121 115 .00459669657469715 0 -.01208967924412186 18 120 8
66 0 122 117 123 118 2001877189541465e-21 1 29 121 841 0 123 124 118 -.004425435
873402785 5e-4 .012533479123607 18 123 838 0 125 120 126 121 ?1 29 124 837 0 126
 127 121 .01138567657819252 5e-4 .00622268607153378 18 126 834 0 128 123 129 124
 ?1 29 127 833 0 129 130 124 .01167338153372176 5e-4 .00559638316425858 18 129 8
29 0 131 126 132 127 2000809930478075e-21 1 29 130 828 0 132 133 127 .0045966965
7468537 5e-4 -.01208967924414764 18 132 824 0 134 129 135 130 2001877189541555e-
21 1 29 133 811 0 135 136 130 -.01211893544358974 5e-4 -.00536271962136613 18 13
5 807 0 137 132 138 133 200075223966241e-20 1 29 136 806 0 138 139 133 -.0050848
218796525 5e-4 .01222812890407208 18 138 802 0 140 135 141 136 2000163661782235e
-21 1 29 139 801 0 141 142 136 -.012118935443591 0 -.00536271962136883 18 141 79
7 0 143 138 144 139 2000752239659865e-21 1 29 142 796 0 144 145 139 -.0050848218
7965123 0 .01222812890407584 18 144 792 0 146 141 147 142 2000163661781865e-21 1
 29 145 781 0 147 148 142 -.01185054293501024 5e-4 -.00603714091247372 18 147 77
8 0 149 144 150 145 ?1 29 148 777 0 150 151 145 .00395653931892192 5e-4 -.012346
32536531084 18 150 774 0 152 147 153 148 ?1 29 151 773 0 153 154 148 -.011850542
93501024 0 -.00603714091247372 18 153 770 0 155 150 156 151 ?1 29 154 769 0 156
 157 151 .00395653931892192 0 -.01234632536531084 18 156 766 0 158 153 159 154 ?
1 29 157 2318 0 160 161 154 .001163645337907056 0 -.01587645131709335 18 160 224
2 0 162 163 164 157 ?1 29 161 2319 0 164 165 157 .00135926222102394 0 -.01543164
612228815 18 164 2241 0 166 160 167 161 ?1 29 165 2320 0 167 168 161 .0009802037
79465498 0 -.01424414612228814 18 167 2240 0 169 164 170 165 ?1 29 168 2321 0 17
0 171 165 .000498060922322641 0 -.01436021755085958 18 170 2239 0 172 167 173 16
8 ?1 29 171 2322 0 173 174 168 .000798385597647316 0 -.0151564837846258 18 173 2
237 0 175 170 176 171 ?1 29 174 2323 0 176 177 171 -.0023184975192358 0 -.013782
2954729375 18 176 2250 0 178 173 0 174 ?1 29 177 2324 0 159 179 174 -.0025246663
5040463 5e-4 -.01424982794046996 18 159 2249 0 180 156 181 177 ?1 29 179 2325 0
 181 182 177 .001163645337907056 5e-4 -.01587645131709335 18 181 2248 0 183 159
 184 179 ?1 29 182 2326 0 184 185 179 .00135926222102394 5e-4 -.0154316461222881
5 18 184 2247 0 186 181 187 182 ?1 29 185 2327 0 187 188 182 .000980203779465498
 5e-4 -.01424414612228814 18 187 2246 0 189 184 190 185 ?1 29 188 2328 0 190 191
 185 .000498060922322641 5e-4 -.01436021755085958 18 190 2245 0 192 187 193 188
 ?1 29 191 2329 0 193 194 188 .000798385597647316 5e-4 -.0151564837846258 18 193
 2244 0 195 190 163 191 ?1 29 194 2330 0 163 0 191 -.0023184975192358 5e-4 -.013
7822954729375 18 163 2238 0 196 193 160 194 ?1 17 196 0 197 198 199 163 195 200
 0 201 -15 255 197 2281 0 198 202 0 17 198 0 197 203 196 159 201 204 0 0 -17 199
 0 197 196 205 193 192 206 0 0 -17 195 0 207 175 208 193 196 200 0 209 +16 200 2
219 0 ?195 206 204 210 0 0 1 17 201 0 29 31 30 163 198 204 0 208 +15 29 2254 0 2
7 211 0 17 31 0 29 27 201 176 208 212 0 32 +17 30 0 29 201 27 159 34 213 0 198 -
16 204 2216 0 ?201 200 214 215 0 0 1 17 208 0 207 195 178 163 31 212 0 0 -15 207
 2258 0 178 216 0 17 178 0 207 208 175 176 217 218 0 31 -16 212 2195 0 ?31 20 21
9 220 0 0 1 16 20 1919 0 ?221 222 212 7 0 0 1 16 219 2199 0 ?175 212 223 224 0 0
 1 30 255 220 2296 0 212 224 225 0 +-.0023184975192358 5e-4 -.0137822954729375 0
 -1 0 30 224 2297 0 219 226 220 0 +.000798385597647316 5e-4 -.0151564837846258 0
 -1 0 31 225 729 0 227 220 228 0 -0 5e-4 0 0 -1 0 0 0 -1 .006 16 227 622 0 ?229
 230 231 225 0 0 1 134 255 228 728 0 1 225 232 233 +234 235 134 232 727 0 1 228
 236 237 +238 239 141 255 233 240 233 233 228 136 255 234 3 6 3 3 6 FFF1 241 242
 243 135 255 235 2 0 45 255 18 241 .00262256085821615 5e-4 -.0162902478355903 .0
0467796263663795 5e-4 -.01203614787513846 .0065951347614689 5e-4 -.0077162675182
5793 .01011195452067656 5e-4 .001053168123130906 .01170862966312104 5e-4 .005498
48689387116 .01311806766236936 5e-4 .01000831158615174 127 255 3 242 4 2 4 128 2
55 3 243 0 .5 1 67 255 240 689 0 244 245 246 247 +228 0 -1 0 .1804484427086 14 2
55 244 671 248 ?249 250 251 5 240 -0 0 249 250 23 50 255 245 690 0 250 252 240 0
 +.00370699261878523 5e-4 .00928752958134034 .370699261878523 0 .928752958134034
 .928752958134034 0 -.370699261878523 50 246 688 0 253 240 254 0 +-.003706992618
785225 5e-4 -.00928752958134034 .3706992618785225 0 .928752958134034 .9287529581
34034 0 -.3706992618785225 141 247 255 256 256 240 137 255 255 704 0 1 257 258 2
59 -240 260 0 ?141 256 261 247 247 240 137 261 694 0 1 258 262 263 -240 264 0 ?1
37 258 702 0 1 255 261 265 -266 267 0 ?134 262 31 0 1 261 268 269 +270 271 141 2
63 272 263 263 261 134 264 0 0 0 0 0 0 +273 274 136 273 1 2 2 2 5 FFF1 275 276 2
77 135 274 2 0 45 4 275 .852975323736429 5e-4 .1469392033687332 5e-4 127 2 276 2
 2 128 2 277 0 1 133 255 272 868 0 278 279 280 0 +261 .00459669486719543 0 -.012
08967846419978 .01167338076743914 0 .00559638342655294 .976201801037923 .0237759
1840767305 17 278 0 251 131 281 117 282 283 272 284 +31 279 863 0 1 285 272 286
 +-.01166519330407098 5e-4 -.00557276443340669 0 -1 0 0 0 -1 5e-4 133 280 869 0
 282 272 287 0 +288 .01167338230000554 0 .00559638290196762 .00459669828219887 0
 -.01208968002404394 .02450934047645785 .976931091083821 17 282 0 289 158 119 12
0 278 283 280 0 -133 287 878 0 290 280 291 0 +291 .011673380767435 0 .0055963834
265408 .011673380767435 5e-4 .0055963834265408 0 -5e-4 137 288 578 0 1 292 293 2
94 +295 296 0 ?38 12 CCCCCCCCCCCA17 intersection_data204 0 Z292 477 0 1 297 288
 298 -299 300 301 302 303 304 137 293 593 0 1 288 305 306 +295 307 0 ?141 294 28
0 294 294 288 50 295 131 0 16 254 308 309 +0 0 0 0 1 0 0 0 1 134 296 0 0 0 0 0 0
 +310 311 136 310 2 3 2 2 5 FFF1 312 313 314 135 311 1 0 45 6 312 .0060466117280
0073 .01182681467644602 -.00313572260138411 .008711412056812 -.0125226641358134
 .004398339914655715 127 2 313 3 3 128 2 314 0 1 14 16 2184 315 ?316 0 289 5 295
 -0 0 316 0 23 50 254 3 0 316 246 295 317 +0 .004 0 0 1 0 0 0 1 67 308 166 0 318
 295 319 320 +268 0 -1 0 .0611122536613276 141 309 288 321 321 295 141 321 293 3
09 309 295 14 318 147 322 ?323 324 325 5 308 -0 0 323 324 23 51 319 167 0 326 30
8 327 0 -0 .004 0 0 -1 0 .0175 0 0 -1 141 320 328 329 330 308 134 268 39 0 1 262
 331 332 +333 334 31 331 137 0 335 268 336 0 +.00438278085871313 0 .012238922826
15152 0 1 0 0 0 1 .0016 141 332 308 332 332 268 136 333 3 16 3 14 1 FFF1 337 338
 339 135 334 2 0 45 48 337 -.02926131386346545 .004 -.0339563740585032 -.0235343
829852517 .004 -.0252221144181078 -.01655406760261305 .004 -.01294475756799182 -
.00976302179521364 .004 .00226065144973517 -.00502608130502795 .004 .01485195642
865744 -.000931000108331657 .004 .0299717337971507 .000988149987247659 .004 .044
00413356928 .001379591156358766 .004 .0544342419955823 .001142823975711276 .004
 .0618196431460772 .000418778154140105 .004 .068728977842579 -.00055241198113593
2 .004 .0740555508543876 -.001526151779105375 .004 .0780391422915562 -.002346445
0668923 .004 .0808785338193956 -.003004983781120145 .004 .082833628416975 -.0033
72738640781745 .004 .0838405371471312 -.003426426741352795 .004 .083985797001523
 127 14 338 4 1 1 1 1 1 1 1 1 1 1 1 1 4 128 14 339 .540519580514608 .625 .65625
 .6875 .75 .8125 .84375 .875 .90625 .9375 .953125 .96875 .984375 .98702600639517
6 16 335 122 0 ?340 341 342 331 0 0 1 31 336 136 0 341 331 343 0 +-.005249194005
91985 0 -.01189310566203042 0 1 0 0 0 1 .0016 16 341 117 0 ?344 345 335 336 0 0
 1 31 343 134 0 346 336 347 0 +0 0 0 0 1 0 0 0 1 .0175 16 346 1706 0 ?348 349 35
0 343 345 345 1 134 347 133 0 350 343 351 0 +352 353 16 350 1712 0 ?42 346 345 3
47 0 0 1 134 351 132 0 349 347 354 0 +355 356 136 352 3 22 3 20 1 FFF1 357 358 3
59 135 353 2 0 45 66 357 .01509813695855105 0 .0915471457888074 .015249402563054
8 0 .0911483135389916 .01582009189386735 0 .0896061479650342 .01714862959346325
 0 .0856570769806464 .01879892605902175 0 .0794589085080386 .02024097249970575 0
 .0715308537324149 .0214072164033896 0 .0603586217827219 .0213790353210488 0 .04
53406305688863 .0187031659449605 0 .02590014025655215 .01313604940502684 0 .0053
3759005033027 .004304844436213235 0 -.01610175537577865 -.00745478650618767 0 -.
03761930381528605 -.02156510852361325 0 -.0585159236412839 -.03753180443964195 0
 -.0779644804127068 -.0549132399443698 0 -.0953981170862784 -.0735965668004188 0
 -.1109974918057804 -.0934239920600753 0 -.124832693840726 -.1142530378527746 0
 -.1370118084893484 -.135948033755092 0 -.1476400374679566 -.158360678090468 0 -
.1568209420829015 -.17373094687256 0 -.1620598017867035 -.181468084394321 0 -.16
4466039249704 127 20 358 4 1 1 1 1 1 1 1 1 1 1 1 1 1 1 1 1 1 1 4 128 20 359 .010
13211041037766 .015625 .03125 .0625 .09375 .125 .1875 .25 .3125 .375 .4375 .5 .5
625 .625 .6875 .75 .8125 .875 .9375 1 16 349 1682 0 ?360 361 346 351 0 0 1 31 35
4 231 0 361 351 362 0 +0 .001 0 0 1 0 0 0 1 .006 136 355 3 16 3 14 1 FFF1 363 36
4 365 135 356 2 0 45 48 363 -.02926131386346545 0 -.0339563740585032 -.023534382
9852517 0 -.0252221144181078 -.01655406760261305 0 -.01294475756799182 -.0097630
2179521364 0 .00226065144973517 -.00502608130502795 0 .01485195642865744 -.00093
1000108331657 0 .0299717337971507 .000988149987247659 0 .04400413356928 .0013795
91156358766 0 .0544342419955823 .001142823975711276 0 .0618196431460772 .0004187
78154140105 0 .068728977842579 -.000552411981135932 0 .0740555508543876 -.001526
151779105375 0 .0780391422915562 -.0023464450668923 0 .0808785338193956 -.003004
983781120145 0 .082833628416975 -.003372738640781745 0 .0838405371471312 -.00342
6426741352795 0 .083985797001523 127 14 364 4 1 1 1 1 1 1 1 1 1 1 1 1 4 128 14 3
65 .540519580514608 .625 .65625 .6875 .75 .8125 .84375 .875 .90625 .9375 .953125
 .96875 .984375 .987026006395176 16 361 228 0 ?366 367 349 354 0 0 1 31 362 266
 0 367 354 368 0 +.00438278085871313 .0026 .01223892282615152 0 1 0 0 0 1 .0016
 16 367 263 0 ?369 370 361 362 0 0 1 31 368 284 0 370 362 371 0 +-.0052491940059
1985 .0026 -.01189310566203042 0 1 0 0 0 1 .0016 16 370 281 0 ?372 373 367 368 0
 0 1 31 371 337 0 373 368 374 0 -.00438278085871313 .004 .01223892282615152 0 1
 0 0 0 1 .003207106781186565 16 373 334 0 ?375 376 370 371 0 0 1 31 374 343 0 37
6 371 377 0 --.00524919400591985 .004 -.01189310566203042 0 1 0 0 0 1 .003207106
781186565 16 376 340 0 ?378 379 373 374 0 0 1 31 377 349 0 379 374 380 0 -0 .004
 0 0 1 0 0 0 1 .00920710678118656 16 379 346 0 ?381 382 376 377 0 0 1 31 380 358
 0 382 377 383 0 +0 .004 0 0 1 0 0 0 1 .017 16 382 1574 0 ?384 385 379 380 0 0 1
 38 383 362 0 385 380 386 0 +387 254 388 389 390 391 16 385 1580 0 ?392 393 382
 383 0 0 1 31 386 367 0 393 383 394 0 +0 .004 0 0 1 0 0 0 1 .017 59 255 387 363
 0 1 395 396 397 +1 398 40 255 3 388 0 1 3 .000563912624861016 .0781981098914812
 ??.01367157747491984 .004 .01010385913140442 .00894636431780807 .004 -.00319578
9146878345 .002960258596375865 .004 -.01674027685083445 41 3 CI8 term_use0 0 1 c
CZ1 389 L?.01367157747491984 .004 .01010385913140442 41 1 390 L?.002960258596375
865 .004 -.01674027685083445 204 2 17 INTERSECTION_DATA17 Intersection data7 uv_
type0 0 1 u6 values0 1 1 fT6 391 3 .01010385913140442 .01367157747491984 -.00319
5789146878345 .00894636431780807 -.01674027685083445 .002960258596375865 52 255
 395 315 399 400 401 387 0 --.00524919400591985 .0026 -.01189310566203042 0 1 0
 .0016 .707106781186549 .707106781186546 0 0 1 59 396 371 0 1 387 402 403 +1 328
 141 397 383 397 397 387 56 255 398 470 0 404 405 299 406 +R254 327 292 -5e-4 5e
-4 1 1 0 0 0 0 14 404 438 407 ?408 400 409 5 398 +0 0 408 400 23 54 255 405 471
 0 408 410 398 0 +0 .0035 0 0 1 0 .017 5e-4 0 0 1 50 299 469 0 1 398 300 411 +0
 .0035 0 0 1 0 0 0 1 141 406 412 413 413 398 67 327 168 0 414 319 415 416 +262 0
 -1 0 .0802820693229973 14 414 151 417 ?326 418 419 5 327 -0 0 326 418 23 51 415
 169 0 420 327 421 0 -0 .004 0 0 -1 0 .006 0 0 -1 141 416 398 422 423 327 141 42
2 424 423 416 327 141 423 300 416 422 327 60 255 300 468 0 1 299 425 426 +UF327
 5e-4 ?54 425 504 0 427 300 428 0 +0 .0035 0 0 1 0 .00920710678118656 5e-4 0 0 1
 141 426 292 426 426 300 14 427 497 429 ?430 431 432 5 425 +0 0 430 431 23 54 42
8 517 0 430 425 433 0 +-.00524919400591985 .0035 -.01189310566203042 0 1 0 .0032
07106781186565 5e-4 0 0 1 14 430 510 434 ?435 427 436 5 428 +0 0 435 427 23 54 4
33 530 0 435 428 437 0 +.00438278085871313 .0035 .01223892282615152 0 1 0 .00320
7106781186565 5e-4 0 0 1 14 435 523 438 ?253 430 439 5 433 +0 0 253 430 23 51 43
7 957 0 440 433 441 0 +-.01166519330407098 25e-5 -.00557276443340669 0 -1 0 5e-4
 0 0 -1 14 440 945 442 ?443 249 444 5 437 -0 0 443 249 23 51 441 978 0 443 437 4
45 0 +.004141888949861185 25e-5 -.01188194888624382 0 -1 0 5e-4 0 0 -1 14 443 96
6 446 ?447 440 448 5 441 -0 0 447 440 23 51 445 999 0 447 441 449 0 +.0112003269
4725326 25e-5 .00575830959246677 0 -1 0 5e-4 0 0 -1 14 447 987 450 ?451 443 452
 5 445 -0 0 451 443 23 51 449 1020 0 451 445 453 0 +-.00461078550434205 25e-5 .0
1206910264453996 0 -1 0 5e-4 0 0 -1 14 451 1008 454 ?455 447 456 5 449 -0 0 455
 447 23 54 453 1826 0 457 449 458 0 +-.00346597431717374 .0035 .0156200839316789
 0 1 0 .001 5e-4 0 0 1 14 457 1808 459 ?460 455 461 5 453 +0 0 460 455 23 51 458
 1825 0 455 453 462 0 +-.00346597431717374 .00175 .0156200839316789 0 -1 0 .0015
 0 0 -1 14 455 1806 463 ?457 451 464 5 458 +0 0 457 451 23 54 462 1860 0 465 458
 466 0 +.01256278491979978 .0035 .0099084022455112 0 1 0 .001 5e-4 0 0 1 14 465
 1842 467 ?468 460 469 5 462 +0 0 468 460 23 51 466 1859 0 460 462 470 0 +.01256
278491979978 .00175 .0099084022455112 0 -1 0 .0015 0 0 -1 14 460 1840 471 ?465 4
57 472 5 466 +0 0 465 457 23 54 470 1894 0 473 466 474 0 +.002286674041943985 .0
035 -.01583575453920335 0 1 0 .001 5e-4 0 0 1 14 473 1876 475 ?18 468 476 5 470
 +0 0 18 468 23 51 474 1893 0 468 470 19 0 +.002286674041943985 .00175 -.0158357
5453920335 0 -1 0 .0015 0 0 -1 14 468 1874 477 ?473 465 478 5 474 +0 0 473 465 2
3 54 19 1928 0 479 474 6 0 +-.01326544699894002 .0035 -.00894583232116016 0 1 0
 .001 5e-4 0 0 1 14 479 1910 480 ?211 18 481 5 19 +0 0 211 18 23 81 1 480 3058 4
82 479 483 0 477 484 485 14 211 2251 484 ?216 479 29 5 486 +0 0 216 479 23 14 18
 1908 487 ?479 473 488 5 6 +0 0 479 473 23 15 481 1911 0 489 479 0 13 23 57 0 0
 0 0 0 0 9 16 17 489 0 481 221 107 67 490 491 0 0 -17 221 0 481 492 489 81 493 2
0 0 0 +17 107 0 481 489 492 105 104 494 0 490 +17 490 0 495 496 497 105 489 491
 0 498 +16 491 1675 0 ?490 499 500 501 0 0 1 16 499 1687 0 ?86 502 491 503 0 0 1
 16 500 1669 0 ?66 491 504 505 0 0 1 31 501 1677 0 491 505 503 0 +-.014094537436
37376 .0035 -.00950494684123267 .559114520072509 0 -.82909043743375 -.8290904374
33751 0 -.559114520072509 5e-4 31 505 1671 0 500 506 501 0 +.002429591169565485
 .0035 -.01682548919790355 -.989734658700209 0 -.1429171276214984 -.142917127621
4984 0 .98973465870021 5e-4 30 503 1689 0 499 501 507 0 --.00489899534645444 0 .
0160633115590209 0 -1 0 30 507 1695 0 502 503 508 0 +-.01461466387939782 .0035 -
.00829038300238129 0 -1 0 16 502 1693 0 ?63 509 499 507 0 0 1 31 508 1719 0 509
 507 510 0 --.00346597431717374 0 .0156200839316789 0 1 0 0 0 1 .0015 16 509 171
7 0 ?60 511 502 508 0 0 1 31 510 1725 0 511 508 512 0 -.01256278491979978 0 .009
9084022455112 0 1 0 0 0 1 .0015 16 511 1723 0 ?54 41 509 510 0 0 1 31 512 1731 0
 41 510 513 0 -.002286674041943985 0 -.01583575453920335 0 1 0 0 0 1 .0015 16 41
 1729 0 ?35 514 511 512 0 0 1 31 513 1737 0 514 512 515 0 --.01326544699894002 0
 -.00894583232116016 0 1 0 0 0 1 .0015 16 514 1735 0 ?48 516 41 513 0 0 1 30 515
 1743 0 516 513 517 0 +.002501049733376235 .004 -.01732035652725365 0 -1 0 16 51
6 1741 0 ?51 518 514 515 0 0 1 30 517 1749 0 518 515 519 0 --.01450908265509064
 .004 -.00978450410126892 0 -1 0 16 518 1747 0 ?69 520 516 517 0 0 1 30 519 1755
 0 520 517 521 0 +.01399380836051364 .0035 .00945876693536815 0 -1 0 16 520 1753
 0 ?43 522 518 519 0 0 1 30 521 1761 0 522 519 523 0 -.00363807918601794 0 -.016
4866801390767 0 -1 0 16 522 1759 0 ?75 25 520 521 0 0 1 30 523 1767 0 25 521 26
 0 +-.003790909409408775 .004 .01708446680027375 0 -1 0 16 25 1765 0 ?57 10 522
 523 0 0 1 30 26 1773 0 10 523 524 0 -.013740546006031 .004 .01083731495602788 0
 -1 0 31 524 1828 0 525 26 526 0 +-.00346597431717374 .0035 .0156200839316789 0
 1 0 0 0 1 .0015 16 525 1817 0 ?527 528 529 524 0 0 1 31 526 1862 0 529 524 21 0
 +.01256278491979978 .0035 .0099084022455112 0 1 0 0 0 1 .0015 16 529 1851 0 ?53
0 525 222 526 0 0 1 31 21 1896 0 222 526 7 0 +.002286674041943985 .0035 -.015835
75453920335 0 1 0 0 0 1 .0015 16 222 1885 0 ?531 529 20 21 0 0 1 17 531 0 476 53
2 533 64 534 222 0 0 +15 476 1877 0 533 473 0 17 532 0 476 89 531 108 66 500 0 0
 -17 533 0 476 531 89 73 535 504 0 0 -17 534 0 478 536 537 73 531 222 0 533 -15
 478 1875 0 40 468 0 17 536 0 478 40 534 28 75 522 0 0 -17 537 0 478 534 40 64 5
1 516 0 531 -17 40 0 478 537 536 49 35 41 0 0 -17 51 0 538 348 539 49 537 516 0
 39 +15 538 148 0 348 326 0 17 348 0 538 69 51 44 39 346 0 540 +17 539 0 538 51
 69 64 497 541 0 537 +17 39 0 37 35 48 49 348 346 0 40 -15 37 91 0 542 16 543 17
 48 0 37 39 542 44 544 514 0 348 +17 542 0 37 48 60 61 360 349 0 544 -17 544 0 4
88 545 540 61 48 514 0 0 -15 488 1909 0 544 18 0 17 545 0 488 493 544 81 63 502
 0 221 -17 540 0 488 544 493 44 69 518 0 0 -17 493 0 488 540 545 67 221 20 0 489
 -17 69 0 538 539 348 67 540 518 0 497 +17 497 0 495 490 66 67 539 541 0 493 -15
 495 441 0 497 408 0 17 66 0 495 497 496 64 532 500 0 539 +16 541 1664 0 ?539 54
6 547 548 0 0 1 16 546 1646 0 ?549 550 541 424 0 0 1 16 547 1610 0 ?551 541 552
 553 0 0 1 31 548 391 0 541 553 424 0 -0 .0035 0 0 1 0 0 0 1 .0175 38 553 382 0
 547 394 548 0 +402 308 554 555 556 557 38 424 399 0 546 548 558 0 +412 327 559
 560 561 562 31 558 405 0 550 424 563 0 -0 .0035 0 0 1 0 0 0 1 .0175 59 412 400
 0 1 402 328 564 +0 398 40 4 559 0 1 4 .0005604506125657 .0728013508267024 ??.00
329966091728391 .0035 -.0171861059530933 .00941076853543244 .0035 -.003381069266
299435 .01104688168799476 .0035 .00086570096154846 .0142234207547087 .0035 .0101
953078440291 41 1 560 L?.00329966091728391 .0035 -.0171861059530933 41 1 561 L?.
0142234207547087 .0035 .0101953078440291 204 8 562 3 .3781171770015345 5e-4 .337
8244668663145 5e-4 .3253222017858285 5e-4 .2975317567310715 5e-4 59 402 383 0 1
 396 412 565 +0 328 56 328 475 0 431 412 566 567 +R254 308 297 -5e-4 5e-4 1 1 0
 0 0 0 141 564 424 564 564 412 14 431 444 568 ?427 569 570 5 328 +0 0 427 569 23
 50 566 474 0 1 328 571 572 +0 .0035 0 0 1 0 0 0 1 141 567 402 573 573 328 38 29
7 480 0 1 574 292 575 -566 571 576 577 578 579 31 574 423 0 580 581 297 0 -.0043
8278085871313 .003853553390593275 .01223892282615152 0 -1 0 0 0 -1 .002853553390
59329 141 575 328 575 575 297 60 571 473 0 1 566 410 582 +UF308 5e-4 ?40 3 576 0
 1 3 .00915657709242041 .349950216978827 ??.001697846858172065 .0035 .0501921618
717053 -.00943051797106518 .0035 .00202770636488124 -.03322833060924065 .0035 -.
0409184177831614 41 1 577 L?.001697846858172065 .0035 .0501921618717053 41 1 578
 L?-.03322833060924065 .0035 -.0409184177831614 204 12 579 4 .0501921618717053 .
001697846858172065 .826954870276168 5e-4 .00202770636488124 -.00943051797106518
 .65625 5e-4 -.0409184177831614 -.03322833060924065 .518957175141877 5e-4 54 410
 472 0 569 571 405 0 +0 .0035 0 0 1 0 .017 5e-4 0 0 1 141 582 297 582 582 571 14
 569 442 583 ?431 408 584 5 410 +0 0 431 408 23 81 1 583 3062 482 569 585 0 568
 586 587 14 408 440 586 ?569 404 495 5 405 +0 0 569 404 23 15 584 443 0 588 569
 0 17 588 0 584 95 78 79 589 550 0 590 -17 95 0 584 591 588 93 592 593 0 384 +17
 78 0 584 588 591 76 98 594 0 589 +17 589 0 595 57 24 76 588 550 0 596 +16 550 1
628 0 ?589 597 546 558 0 0 1 17 590 0 472 598 599 79 530 529 0 592 -15 472 1841
 0 600 460 0 17 598 0 472 600 590 52 24 10 0 0 -17 599 0 472 590 600 70 43 520 0
 530 -17 530 0 469 92 592 70 590 529 0 0 +17 592 0 469 530 601 79 95 593 0 0 -15
 469 1843 0 92 465 0 17 601 0 469 592 92 93 602 603 0 0 +16 593 1639 0 ?95 604 5
94 605 0 0 1 16 604 1651 0 ?72 504 593 606 0 0 1 16 594 1633 0 ?78 593 607 608 0
 0 1 31 605 1641 0 593 608 606 0 +.01334795897728726 .0035 .01052767738585564 -.
61927514034445 0 .785174057487486 .785174057487486 0 .61927514034445 5e-4 31 608
 1635 0 594 609 605 0 +-.003682597711997095 .0035 .0165963391774088 .97625524572
9929 0 .2166233948233575 .2166233948233575 0 -.976255245729929 5e-4 31 606 1653
 0 604 605 506 0 +.01351680054694236 .0035 .0096086453720825 -.299756873428699 0
 -.95401562714258 -.95401562714258 0 .2997568734286995 5e-4 31 506 1659 0 504 60
6 505 0 +.00318761080465996 .0035 -.0162697049391189 .4339503999155615 155141450
0580365e-29 .900936762715966 .900936762715966 0 -.4339503999155615 5e-4 16 504 1
657 0 ?535 500 604 506 0 0 1 17 535 0 409 610 611 87 533 504 0 392 +15 409 439 0
 611 404 0 17 610 0 409 72 535 90 392 385 0 0 -17 611 0 409 535 72 73 549 546 0
 534 -17 392 0 612 110 602 87 610 385 0 0 +15 612 1604 0 613 316 0 17 110 0 612
 498 392 108 89 614 0 496 -17 602 0 612 392 384 90 601 603 0 610 -17 384 0 612 6
02 613 93 591 382 0 601 +16 603 1597 0 ?601 615 614 616 0 0 1 16 615 1603 0 ?617
 618 603 619 0 0 1 16 614 1591 0 ?89 603 494 620 0 0 1 31 616 1599 0 603 620 619
 0 -.01256278491979978 .004 .0099084022455112 0 1 0 0 0 1 .001 31 620 1593 0 614
 621 616 0 -.002286674041943985 .004 -.01583575453920335 0 1 0 0 0 1 .001 31 619
 1605 0 615 616 622 0 --.00346597431717374 .004 .0156200839316789 0 1 0 0 0 1 .0
01 31 622 1617 0 618 619 609 0 +-.01416492491924522 .0035 -.00850886610864091 .4
36966212519243 0 .899477920305211 .899477920305211 0 -.436966212519243 5e-4 16 6
18 1615 0 ?83 607 615 622 0 0 1 31 609 1623 0 607 622 608 0 +-.00442132167002754
 .0035 .01591556901657355 -.2954850848947005 0 -.955347352853804 -.9553473528538
05 0 .2954850848947005 5e-4 16 607 1621 0 ?101 594 618 609 0 0 1 17 101 0 570 62
3 624 99 625 607 0 626 +15 570 445 0 624 431 0 17 623 0 570 83 101 102 626 552 0
 492 -17 624 0 570 101 83 84 551 547 0 627 -17 625 0 461 527 617 84 101 607 0 0
 -17 626 0 612 613 104 99 623 552 0 617 +17 613 0 612 384 626 96 617 615 0 591 -
17 104 0 612 626 498 102 107 494 0 623 -16 552 1568 0 ?626 547 393 394 0 0 1 17
 617 0 461 625 98 99 613 615 0 0 +15 461 1809 0 98 457 0 17 98 0 461 617 527 96
 78 594 0 613 -17 527 0 461 98 625 76 627 525 0 0 +17 627 0 464 628 596 84 527 5
25 0 625 -15 464 1807 0 629 455 0 17 628 0 464 629 627 58 86 499 0 0 -17 596 0 4
64 627 629 76 57 25 0 527 -17 629 0 464 596 628 55 60 509 0 0 -17 57 0 595 630 5
89 55 596 25 0 631 +15 595 152 0 630 418 0 17 630 0 595 24 57 52 631 345 0 598 +
17 631 0 37 60 54 55 630 345 0 629 -17 60 0 37 542 631 58 629 509 0 360 +17 54 0
 37 631 38 52 600 511 0 630 +16 345 1700 0 ?630 350 341 343 346 346 1 17 38 0 37
 54 35 36 42 350 0 600 -17 600 0 472 599 598 36 54 511 0 0 -17 42 0 419 75 43 28
 38 350 0 536 +15 419 150 0 42 414 0 17 75 0 419 549 42 73 536 522 0 611 +17 43
 0 419 42 549 36 599 520 0 38 +17 549 0 419 43 75 70 611 546 0 599 +17 360 0 325
 86 63 58 542 349 0 628 +15 325 146 0 551 318 0 17 86 0 325 551 360 84 628 499 0
 624 +17 63 0 325 360 551 61 545 502 0 542 +17 551 0 325 63 86 81 624 547 0 545
 +17 24 0 595 589 630 79 598 10 0 588 +14 418 153 632 ?414 420 595 5 319 -326 32
6 414 420 23 81 1 632 3064 482 418 633 0 586 634 635 14 420 607 634 ?418 316 636
 5 415 +0 0 418 316 23 14 326 149 637 ?638 414 538 5 319 -418 418 638 414 23 81
 1 637 3066 482 326 639 0 634 640 641 14 638 159 640 ?324 326 642 5 421 +0 0 324
 326 23 81 1 640 3067 482 638 643 0 637 644 645 14 324 163 644 ?318 638 646 5 64
7 +0 0 318 638 23 15 642 282 0 372 638 648 51 421 170 0 638 415 647 0 --.0052491
9400591985 .004 -.01189310566203042 0 -1 0 .0016 0 0 -1 51 647 171 0 324 421 649
 0 -.00438278085871313 .004 .01223892282615152 0 -1 0 .0016 0 0 -1 52 649 253 65
0 323 647 401 0 -0 .001 0 0 1 0 .006 .707106781186548 .707106781186547 0 0 1 81
 2 650 254 651 649 0 0 0 652 653 654 14 323 246 655 ?656 318 657 5 649 +0 0 656
 318 23 52 401 301 652 656 649 395 0 -.00438278085871313 .0026 .0122389228261515
2 0 1 0 .0016 .707106781186549 .707106781186546 0 0 1 81 2 652 302 651 401 0 0 6
50 399 658 659 14 656 294 660 ?400 323 661 5 401 +0 0 400 323 23 81 1 660 3070 4
82 656 662 0 655 663 664 14 400 308 663 ?404 656 665 5 395 +0 0 404 656 23 15 66
1 421 0 666 656 667 17 666 0 661 666 666 0 668 580 0 0 +15 667 296 0 669 656 0 1
7 669 0 667 669 669 0 369 367 0 0 -17 369 0 646 369 369 0 669 367 0 0 +15 646 26
4 0 369 324 670 15 670 164 0 671 324 0 17 671 0 670 671 671 0 340 335 0 0 -17 34
0 0 672 340 340 0 671 335 0 0 +15 672 88 0 340 16 673 15 673 89 0 344 16 37 17 3
44 0 673 344 344 0 674 341 0 0 +17 674 0 648 674 674 0 344 341 0 0 -15 648 160 0
 674 638 0 17 668 0 439 668 668 0 666 580 0 0 -16 580 420 0 ?666 675 676 574 0 0
 1 16 675 782 0 ?152 677 580 678 0 0 1 16 676 414 0 ?679 580 597 581 0 0 1 17 67
9 0 665 679 679 0 680 676 0 0 +16 597 408 0 ?681 676 550 563 0 0 1 31 581 417 0
 676 563 574 0 --.00524919400591985 .003853553390593275 -.01189310566203042 0 -1
 0 0 0 -1 .00285355339059329 31 563 411 0 597 558 581 0 -0 .003853553390593275 0
 0 -1 0 0 0 -1 .00885355339059329 17 681 0 657 681 681 0 682 597 0 0 +15 657 409
 0 681 323 683 17 682 0 432 682 682 0 681 597 0 0 -15 432 498 0 682 427 684 15 6
84 499 0 685 427 0 17 685 0 684 685 685 0 381 379 0 0 -17 381 0 686 381 381 0 68
5 379 0 0 +15 686 347 0 381 316 687 14 316 1606 688 ?420 16 686 5 254 +0 0 420 1
6 23 15 687 341 0 378 316 689 17 378 0 687 378 378 0 690 376 0 0 +15 689 335 0 3
75 316 612 17 375 0 689 375 375 0 691 373 0 0 +17 691 0 692 691 691 0 375 373 0
 0 -15 692 525 0 691 435 0 17 690 0 693 690 690 0 378 376 0 0 -15 693 512 0 690
 430 0 81 1 688 3072 482 316 694 0 663 695 696 80 255 1 482 697 698 9000 1 1 1 1
 1 1 1 1 0 FFFFTFTFFFFFFF1 81 1 694 2907 699 316 0 688 700 701 702 81 1 663 3071
 482 400 703 0 660 688 704 81 1 695 3073 482 253 705 0 688 706 707 82 255 1 696
 1177157791 14 253 654 695 ?708 435 709 5 246 +0 0 708 435 23 81 1 705 2925 699
 253 0 695 710 711 712 81 1 706 3074 482 708 711 0 695 713 714 82 1 707 -1826094
948 14 708 658 706 ?250 253 715 5 252 -0 0 250 253 23 81 1 711 2926 699 708 0 70
6 705 716 717 81 1 713 3075 482 250 716 0 706 718 719 82 1 714 -1826488164 14 25
0 662 713 ?244 708 720 5 245 -0 0 244 708 23 81 1 716 2927 699 250 0 713 711 721
 722 81 1 718 3076 482 249 723 0 713 724 725 82 1 719 -1826357092 14 249 675 718
 ?440 244 726 5 266 +0 0 440 244 23 81 1 723 2929 699 249 0 718 721 727 728 81 1
 724 3077 482 216 729 0 718 730 731 82 1 725 -1835597668 14 216 2255 724 ?732 21
1 207 5 733 +0 0 732 211 23 81 1 729 2943 699 216 0 724 734 735 736 81 1 730 307
8 482 732 735 0 724 737 738 82 1 731 -1075511124 14 732 2259 730 ?739 216 740 5
 741 +0 0 739 216 23 81 1 735 2944 699 732 0 730 729 742 743 81 1 737 3079 482 7
39 742 0 730 744 745 82 1 738 -1075773268 14 739 2263 737 ?746 732 747 5 748 +0
 0 746 732 23 81 1 742 2945 699 739 0 737 735 749 750 81 1 744 3080 482 746 749
 0 737 751 752 82 1 745 -1076035412 14 746 2267 744 ?753 739 754 5 755 +0 0 753
 739 23 81 1 749 2946 699 746 0 744 742 756 757 81 1 751 3081 482 753 756 0 744
 758 759 82 1 752 -1076297556 14 753 2271 751 ?760 746 761 5 762 +0 0 760 746 23
 81 1 756 2947 699 753 0 751 749 763 764 81 1 758 3082 482 760 763 0 751 765 766
 82 1 759 -1076559700 14 760 2275 758 ?202 753 767 5 768 +0 0 202 753 23 81 1 76
3 2948 699 760 0 758 756 769 770 81 1 765 3083 482 202 769 0 758 0 771 82 1 766
 -1076821844 14 202 2279 765 ?0 760 197 5 772 +0 0 0 760 23 81 1 769 2949 699 20
2 0 765 763 0 773 82 1 771 -1087504212 80 1 699 0 774 8001 0 0 0 0 3 5 0 0 0 FFF
FTFTFFFFFFF2 83 255 3 773 .1019607843137254 .1019607843137254 .1019607843137254
 79 255 15 774 SDL/TYSA_COLOUR50 772 2295 0 202 0 768 0 +0 5e-4 0 0 -1 0 0 0 -1
 50 768 2293 0 760 772 762 0 +.001163645337907056 5e-4 -.01587645131709335 .4035
21225579017 0 .914970283947631 .914970283947631 0 -.403521225579017 50 762 2292
 0 753 768 755 0 +.00135926222102394 5e-4 -.01543164612228815 -.915388909489386
 0 .4025706700491635 .4025706700491635 0 .915388909489386 50 755 2291 0 746 762
 748 0 +.000980203779465498 5e-4 -.01424414612228814 -.952643158354824 0 -.30409
04681829825 -.3040904681829825 0 .952643158354824 50 748 2290 0 739 755 741 0 +.
000498060922322641 5e-4 -.01436021755085958 .234053838575021 0 -.972223637157778
 -.972223637157778 0 -.234053838575021 50 741 2289 0 732 748 733 0 +.00079838559
7647316 5e-4 -.0151564837846258 .935661149941566 0 .3528997201614465 .3528997201
614465 0 -.935661149941565 50 733 2288 0 216 741 486 0 +-.0023184975192358 5e-4
 -.0137822954729375 -.403417265701706 0 -.915016125395481 -.915016125395481 0 .4
03417265701706 50 486 2287 0 211 733 266 0 +-.00252466635040463 5e-4 -.014249827
94046996 .914986804220195 0 -.4034837643609885 -.4034837643609885 0 -.9149868042
20196 50 266 693 0 249 486 252 775 +0 5e-4 0 0 -1 0 0 0 -1 67 252 691 0 708 266
 245 776 +232 0 -1 0 .162106980152546 141 775 777 778 778 266 137 777 722 0 1 23
6 779 780 -266 781 0 ?141 778 258 775 775 266 137 236 724 0 1 232 777 782 -252 7
83 0 ?30 779 718 0 1 777 784 785 +.00370699261878523 5e-4 .00928752958134034 -.9
28752958134034 0 .370699261878523 141 780 786 780 780 777 134 781 0 0 0 0 0 0 +7
87 788 136 787 2 5 2 3 5 FFF1 789 790 791 135 788 1 0 45 10 789 .005841278932904
55 -.01234125713818916 .001204043236190142 -.01017931425591472 -.003335539936725
565 -.0083593053265595 -.00803732579856002 -.00647426612218721 -.012729854437547
68 -.00491743618869956 127 3 790 3 2 3 128 3 791 0 .5 1 133 786 804 0 792 793 79
4 0 +777 -.00508482172448917 5e-4 .01222812885201902 -.0121189361262344 5e-4 -.0
0536271930535853 .973271386815546 .0258138654203164 17 792 0 795 149 140 135 796
 342 786 797 +133 793 795 0 798 799 786 0 +293 -.01211893612623734 0 -.005362719
30536492 -.00508482172448785 0 .01222812885202296 .0258138654199717 .97327138681
5757 133 794 805 0 796 786 800 0 +236 -.01211893476094512 5e-4 -.005362719937373
73 -.00508482203481582 5e-4 .01222812895612514 .973629686001822 .026427432650729
2 17 796 0 715 801 137 138 792 342 794 802 -133 800 814 0 803 794 804 0 +804 -.0
0508482203481601 5e-4 .01222812895612458 -.00508482203481601 0 .0122281289561245
8 0 5e-4 16 803 812 0 ?801 805 677 800 0 0 1 30 804 815 0 1 800 806 807 +-.00508
482203481601 5e-4 .01222812895612458 0 -1 0 133 806 820 0 805 804 808 0 +808 -.0
1211893476094 0 -.00536271993736267 -.01211893476094 5e-4 -.00536271993736267 0
 -5e-4 141 807 800 807 807 804 16 805 818 0 ?137 809 803 806 0 0 1 30 808 821 0
 1 806 810 811 --.01211893476094 0 -.00536271993736267 0 -1 0 133 810 826 0 812
 808 813 0 +258 .00459669828219919 5e-4 -.01208968002404322 .01167338230000316 5
e-4 .0055963829019607 .976931091083783 .02450934047683445 141 811 806 811 811 80
8 17 812 0 795 128 134 129 814 815 810 816 +133 813 827 0 814 810 817 0 +255 .01
167338076744034 5e-4 .00559638342655645 .00459669486717155 5e-4 -.01208967846425
206 .976224081577579 .0237981989634913 17 814 0 251 281 131 132 812 815 813 818
 -133 817 836 0 819 813 820 0 +779 .01138567657819252 5e-4 .00622268607153378 -.
004425435873402785 5e-4 .012533479123607 -.00826773566873436 .00875628811834629
 16 819 835 0 ?821 342 815 817 0 0 1 133 820 844 0 809 817 822 0 +822 -.00442543
5873402785 5e-4 .012533479123607 -.00508482203481601 5e-4 .01222812895612458 2.7
6183084185092 4.38871423938318 16 809 842 0 ?140 823 805 820 0 0 1 31 822 845 0
 1 820 824 825 +-.00461078550434205 5e-4 .01206910264453996 0 -1 0 0 0 -1 5e-4 1
33 824 850 0 823 822 826 0 +826 .011673380767435 5e-4 .0055963834265408 .0113856
7657819252 5e-4 .00622268607153378 1.240997892784826 2.76183084185092 141 825 82
0 825 825 822 16 823 848 0 ?128 827 809 824 0 0 1 31 826 851 0 1 824 828 829 +.0
1120032694725326 5e-4 .00575830959246677 0 -1 0 0 0 -1 5e-4 133 828 856 0 827 82
6 830 0 +830 .00395653931892192 5e-4 -.01234632536531084 .00459669486720785 5e-4
 -.01208967846417256 5.90342349544071 7.42553410696254 141 829 824 829 829 826 1
6 827 854 0 ?134 831 823 828 0 0 1 31 830 857 0 1 828 285 832 +.0041418889498611
85 5e-4 -.01188194888624382 0 -1 0 0 0 -1 5e-4 133 285 862 0 831 830 279 0 +279
 -.01211893476094 5e-4 -.00536271993736267 -.01185054293501024 5e-4 -.0060371409
1247372 4.27884559778712 5.90342349544071 141 832 828 832 832 830 16 831 860 0 ?
149 290 827 285 0 0 1 17 149 0 795 833 792 147 797 831 0 834 +16 290 876 0 ?131
 835 831 287 0 0 1 17 131 0 251 814 278 129 284 290 0 812 +16 835 882 0 ?281 836
 290 837 0 0 1 17 281 0 251 278 814 120 818 835 0 282 +16 836 896 0 ?125 838 835
 839 0 0 1 133 837 884 0 835 291 840 0 +840 .00459669486720785 5e-4 -.0120896784
6417256 .00459669486720785 0 -.01208967846417256 0 5e-4 30 291 879 0 1 287 837 8
41 -.011673380767435 0 .0055963834265408 0 -1 0 30 840 885 0 1 837 842 843 +.004
59669486720785 5e-4 -.01208967846417256 0 -1 0 133 842 890 0 844 840 839 0 +845
 .01138567657819252 0 .00622268607153378 -.004425435873402785 0 .012533479123607
 -.00826773566873436 .00875628811834629 141 843 837 843 843 840 16 844 889 0 ?84
6 231 283 842 0 0 1 30 839 898 0 836 842 847 0 +-.004425435873402785 5e-4 .01253
3479123607 0 1 0 30 845 708 0 1 848 257 849 +.00370699261878523 0 .0092875295813
4034 -.928752958134034 0 .370699261878523 137 848 710 0 1 784 845 850 -252 851 0
 ?30 257 706 0 1 845 255 852 +-.003706992618785225 0 -.00928752958134034 -.92875
2958134034 0 .3706992618785225 141 849 842 849 849 845 141 852 305 852 852 257 1
33 305 768 0 528 293 853 0 +257 .00395653931892192 0 -.01234632536531084 -.01185
054293501024 0 -.00603714091247372 -.00825142129625517 .00876826312627451 16 528
 767 0 ?854 283 525 305 0 0 1 133 853 776 0 230 305 678 0 +784 .0039565393189219
2 5e-4 -.01234632536531084 -.01185054293501024 5e-4 -.00603714091247372 -.008251
42129625517 .00876826312627451 16 230 775 0 ?834 815 227 853 0 0 1 30 678 784 0
 675 853 855 0 -.00395653931892192 5e-4 -.01234632536531084 0 -1 0 30 784 716 0
 1 779 848 856 +-.003706992618785225 5e-4 -.00928752958134034 -.928752958134034
 0 .3706992618785225 141 856 853 856 856 784 30 855 789 0 677 678 799 0 +-.01185
054293501024 5e-4 -.00603714091247372 0 -1 0 16 677 787 0 ?857 803 675 855 0 0 1
 133 799 794 0 858 855 793 0 +848 -.00508482203481462 0 .01222812895612872 -.012
11893476094466 0 -.00536271993737274 .973572567357447 .02637031398933395 17 858
 0 715 137 801 141 798 231 799 859 +15 715 661 0 858 708 0 17 137 0 715 796 858
 135 859 805 0 792 +17 801 0 715 858 796 144 802 803 0 798 +17 798 0 289 113 143
 144 858 231 793 0 -16 231 793 0 2e-6 858 227 844 0 0 0 1 17 859 0 444 155 797 1
41 137 805 0 0 -15 444 946 0 797 440 0 17 155 0 444 860 859 153 143 861 0 857 -1
7 797 0 444 859 860 135 149 831 0 0 -17 860 0 444 797 155 147 857 677 0 0 -17 85
7 0 709 862 834 153 860 677 0 854 +15 709 657 0 834 253 0 17 862 0 709 152 857 1
56 854 528 0 863 -17 834 0 709 857 152 147 833 230 0 860 +17 854 0 289 143 158 1
53 862 528 0 0 +15 289 598 0 282 16 672 17 143 0 289 798 854 141 155 861 0 858 +
17 158 0 289 854 282 156 122 864 0 862 +17 122 0 448 818 863 120 158 864 0 281 -
16 864 910 0 ?158 865 861 866 0 0 1 16 865 914 0 ?119 867 864 868 0 0 1 16 861 9
06 0 ?143 864 838 869 0 0 1 133 866 924 0 864 870 871 0 +871 .00459669486720785
 0 -.01208967846417256 .00395653931892192 0 -.01234632536531084 1.99924385380684
5 3.52135446532867 31 870 923 0 1 869 866 872 +-.01166519330407098 0 -.005572764
43340669 0 1 0 0 0 1 5e-4 31 871 925 0 1 866 868 873 +.004141888949861185 0 -.01
188194888624382 0 1 0 0 0 1 5e-4 133 868 926 0 865 871 874 0 +874 .0113856765781
9252 0 .00622268607153378 .011673380767435 0 .0055963834265408 .3797618117388745
 1.900594760804965 141 873 866 873 873 871 31 874 927 0 1 868 875 876 +.01120032
694725326 0 .00575830959246677 0 1 0 0 0 1 5e-4 133 875 928 0 867 874 877 0 +877
 -.00508482203481601 0 .01222812895612458 -.004425435873402785 0 .01253347912360
7 5.03606372138619 6.66294711891846 141 876 868 876 876 874 16 867 918 0 ?113 49
4 865 875 0 0 1 31 877 929 0 1 875 621 878 +-.00461078550434205 0 .0120691026445
3996 0 1 0 0 0 1 5e-4 31 621 1587 0 494 877 620 0 --.01326544699894002 .004 -.00
894583232116016 0 1 0 0 0 1 .001 141 878 875 878 878 877 16 494 1585 0 ?107 614
 867 621 0 0 1 17 113 0 289 879 798 111 146 867 0 846 +17 879 0 289 119 113 114
 846 844 0 0 -17 146 0 456 802 880 144 113 867 0 801 -17 846 0 720 125 881 111 8
79 844 0 880 +15 720 665 0 882 250 0 17 125 0 720 882 846 123 880 836 0 821 +17
 881 0 720 846 882 114 883 838 0 879 +17 880 0 456 146 884 111 125 836 0 0 -15 4
56 1009 0 884 451 0 17 884 0 456 880 802 123 140 809 0 0 -17 802 0 456 884 146 1
38 801 803 0 0 -17 140 0 795 792 821 138 884 809 0 796 +15 795 679 0 792 249 0 1
7 821 0 795 140 128 123 882 819 0 884 +17 128 0 795 821 812 126 816 823 0 882 +1
7 882 0 720 881 125 126 821 819 0 883 -17 883 0 452 816 116 126 881 838 0 0 -15
 452 988 0 816 447 0 17 816 0 452 284 883 129 128 823 0 0 -17 116 0 452 883 284
 114 119 865 0 881 -16 838 901 0 ?881 861 836 847 0 0 1 30 847 903 0 838 839 869
 0 -.01138567657819252 0 .00622268607153378 0 1 0 133 869 922 0 861 847 870 0 +8
70 -.01185054293501024 0 -.00603714091247372 -.01211893476094 0 -.00536271993736
267 3.52135446532867 5.14593236298226 17 284 0 452 116 816 117 131 290 0 0 -17 1
19 0 289 282 879 117 116 865 0 278 +141 872 869 872 872 870 15 448 967 0 885 443
 0 17 818 0 448 885 122 132 281 835 0 0 -17 863 0 448 122 885 156 152 675 0 0 -1
7 885 0 448 863 818 150 134 827 0 0 -17 152 0 709 834 862 150 863 675 0 833 +17
 833 0 795 134 149 150 834 230 0 885 -17 134 0 795 812 833 132 885 827 0 814 +16
 815 825 0 2e-6 812 819 230 0 0 0 1 16 283 867 0 2e-6 278 844 528 0 0 0 1 141 85
0 799 850 850 848 134 851 0 0 0 0 0 0 +886 887 136 886 1 2 2 2 5 FFF1 888 889 89
0 135 887 2 0 45 4 888 .870920509256432 5e-4 .1289188989103836 5e-4 127 2 889 2
 2 128 2 890 0 1 141 841 287 841 841 291 15 251 674 0 814 244 0 16 342 803 0 2e-
6 792 335 819 0 0 0 1 141 785 817 785 785 779 141 782 794 782 782 236 134 783 0
 0 0 0 0 0 +891 892 136 891 1 2 2 2 5 FFF1 893 894 895 135 892 1 0 45 4 893 .128
9188989041074 0 .870920509263384 0 127 2 894 2 2 128 2 895 0 1 141 776 236 896 8
96 252 141 896 848 776 776 252 83 3 770 .1019607843137254 .1019607843137254 .101
9607843137254 15 767 2278 0 897 760 0 17 897 0 767 898 34 160 899 214 0 900 -17
 898 0 767 180 897 181 162 901 0 203 -17 34 0 767 897 180 11 30 213 0 899 +17 89
9 0 543 32 900 11 897 214 0 0 +16 214 2212 0 ?899 204 902 903 0 0 1 17 900 0 543
 899 904 160 905 902 0 0 +15 543 2182 0 32 16 0 17 904 0 543 900 906 164 907 908
 0 0 +17 905 0 761 909 162 164 900 902 0 904 -16 902 2208 0 ?900 214 908 910 0 0
 1 16 908 2204 0 ?904 902 911 912 0 0 1 30 910 2304 0 902 912 903 0 +.0013592622
2102394 0 -.01543164612228815 -.4025706700491635 0 -.915388909489386 30 912 2305
 0 908 913 910 0 +.000980203779465498 0 -.01424414612228814 .3040904681829825 0
 -.952643158354824 30 903 2303 0 214 910 914 0 +.001163645337907056 0 -.01587645
131709335 -.914970283947631 0 .403521225579017 30 914 2302 0 213 903 915 0 +-.00
252466635040463 5e-4 -.01424982794046996 0 -1 0 16 213 2191 0 ?34 901 916 914 0
 0 1 30 915 2301 0 901 914 917 0 +.001163645337907056 5e-4 -.01587645131709335 0
 -1 0 16 901 2215 0 ?162 918 213 915 0 0 1 30 917 2300 0 918 915 919 0 +.0013592
6222102394 5e-4 -.01543164612228815 0 -1 0 16 918 2211 0 ?166 920 901 917 0 0 1
 30 919 2299 0 920 917 226 0 +.000980203779465498 5e-4 -.01424414612228814 0 -1
 0 16 920 2207 0 ?169 223 918 919 0 0 1 30 226 2298 0 223 919 224 0 +.0004980609
22322641 5e-4 -.01436021755085958 0 -1 0 16 223 2203 0 ?172 219 920 226 0 0 1 17
 172 0 740 921 192 170 922 223 0 923 +15 740 2262 0 921 732 0 17 921 0 740 209 1
72 173 924 925 0 217 -17 192 0 740 172 209 190 199 206 0 922 +17 922 0 747 189 9
23 190 172 223 0 205 -17 923 0 747 922 169 170 906 911 0 924 -15 747 2266 0 923
 739 0 17 169 0 747 923 189 167 926 920 0 907 +17 906 0 543 904 924 167 923 911
 0 0 +16 911 2200 0 ?906 908 925 913 0 0 1 17 924 0 543 906 217 170 921 925 0 0
 +17 217 0 543 924 32 173 178 218 0 0 +16 925 2196 0 ?924 911 218 927 0 0 1 16 2
18 2192 0 ?217 925 33 928 0 0 1 30 927 2307 0 925 928 913 0 +.000798385597647316
 0 -.0151564837846258 -.3528997201614465 0 .935661149941566 30 928 2308 0 218 92
9 927 0 +-.0023184975192358 0 -.0137822954729375 .915016125395481 0 -.4034172657
01706 30 913 2306 0 911 927 912 0 +.000498060922322641 0 -.01436021755085958 .97
2223637157778 0 .234053838575021 30 929 2309 0 33 930 928 0 +-.00252466635040463
 0 -.01424982794046996 .4034837643609885 0 .914986804220196 16 33 2188 0 ?32 218
 0 929 0 0 1 30 930 2310 0 916 931 929 0 +.001163645337907056 5e-4 -.01587645131
709335 -.914970283947631 0 .403521225579017 16 916 2234 0 ?180 213 932 930 0 0 1
 30 931 2311 0 932 933 930 0 +.00135926222102394 5e-4 -.01543164612228815 -.4025
706700491635 0 -.915388909489386 16 932 2231 0 ?183 916 934 931 0 0 1 30 933 231
2 0 934 935 931 0 +.000980203779465498 5e-4 -.01424414612228814 .304090468182982
5 0 -.952643158354824 16 934 2228 0 ?186 932 936 933 0 0 1 30 935 2313 0 936 937
 933 0 +.000498060922322641 5e-4 -.01436021755085958 .972223637157778 0 .2340538
38575021 16 936 2225 0 ?189 934 206 935 0 0 1 30 937 2314 0 206 210 935 0 +.0007
98385597647316 5e-4 -.0151564837846258 -.3528997201614465 0 .935661149941566 16
 206 2222 0 ?192 936 200 937 0 0 1 30 210 2315 0 200 215 937 0 +-.00231849751923
58 5e-4 -.0137822954729375 .915016125395481 0 -.403417265701706 30 215 2316 0 20
4 0 210 0 +-.00252466635040463 5e-4 -.01424982794046996 .4034837643609885 0 .914
986804220196 17 189 0 747 169 922 187 205 936 0 926 +17 205 0 197 199 938 190 18
9 936 0 0 -17 926 0 754 186 907 187 169 920 0 938 -15 754 2270 0 907 746 0 17 18
6 0 754 166 926 184 938 934 0 909 +17 907 0 754 926 166 167 904 908 0 906 -17 93
8 0 197 205 939 187 186 934 0 0 -17 939 0 197 938 203 184 183 932 0 0 -17 203 0
 197 939 198 181 180 916 0 0 -17 183 0 761 162 909 181 939 932 0 898 +15 761 227
4 0 905 753 0 17 162 0 761 905 183 160 898 901 0 897 +17 909 0 761 183 905 184 1
66 918 0 939 -17 166 0 754 907 186 164 909 918 0 905 +17 180 0 767 34 898 159 20
3 916 0 30 +17 32 0 543 217 899 176 27 33 0 0 +17 209 0 740 192 921 193 175 219
 0 199 -17 175 0 207 178 195 173 209 219 0 921 +83 3 764 .1019607843137254 .1019
607843137254 .1019607843137254 83 3 757 .1019607843137254 .1019607843137254 .101
9607843137254 83 3 750 .1019607843137254 .1019607843137254 .1019607843137254 83
 3 743 .1019607843137254 .1019607843137254 .1019607843137254 81 1 734 2942 699 2
11 0 484 483 729 940 83 3 736 .1019607843137254 .1019607843137254 .1019607843137
254 81 1 484 3059 482 211 734 0 480 487 941 81 1 483 2941 699 479 942 480 943 73
4 944 83 3 940 .1019607843137254 .1019607843137254 .1019607843137254 81 1 942 19
50 945 479 0 483 946 0 947 81 1 943 2940 699 18 0 487 948 483 949 83 3 944 .1019
607843137254 .1019607843137254 .1019607843137254 81 1 487 3060 482 18 943 0 484
 568 950 81 1 948 2939 699 473 946 475 951 943 952 83 3 949 .1019607843137254 .1
019607843137254 .1019607843137254 81 1 946 1949 945 473 0 948 953 942 954 81 1 4
75 3056 482 473 948 0 471 477 955 81 1 951 2938 699 468 0 477 956 948 957 83 3 9
52 .1019607843137254 .1019607843137254 .1019607843137254 81 1 477 3057 482 468 9
51 0 475 480 958 81 1 956 2937 699 465 953 467 959 951 960 83 3 957 .10196078431
37254 .1019607843137254 .1019607843137254 81 1 953 1948 945 465 0 956 961 946 96
2 81 1 467 3054 482 465 956 0 463 471 963 81 1 959 2936 699 460 0 471 964 956 96
5 83 3 960 .1019607843137254 .1019607843137254 .1019607843137254 81 1 471 3055 4
82 460 959 0 467 475 966 81 1 964 2935 699 457 961 459 967 959 968 83 3 965 .101
9607843137254 .1019607843137254 .1019607843137254 81 1 961 1947 945 457 0 964 0
 953 969 81 1 459 3052 482 457 964 0 454 463 970 81 1 967 2934 699 455 0 463 971
 964 972 83 3 968 .1019607843137254 .1019607843137254 .1019607843137254 81 1 463
 3053 482 455 967 0 459 467 973 81 1 971 2933 699 451 0 454 974 967 975 83 3 972
 .1019607843137254 .1019607843137254 .1019607843137254 81 1 454 3051 482 451 971
 0 450 459 976 81 1 974 2932 699 447 0 450 977 971 978 83 3 975 .101960784313725
4 .1019607843137254 .1019607843137254 81 1 450 3050 482 447 974 0 446 454 979 81
 1 977 2931 699 443 0 446 727 974 980 83 3 978 .1019607843137254 .10196078431372
54 .1019607843137254 81 1 446 3049 482 443 977 0 442 450 981 81 1 727 2930 699 4
40 0 442 723 977 982 83 3 980 .1019607843137254 .1019607843137254 .1019607843137
254 81 1 442 3048 482 440 727 0 438 446 983 83 3 982 .1019607843137254 .10196078
43137254 .1019607843137254 81 1 438 3047 482 435 710 0 434 442 984 82 1 983 -893
321060 81 1 710 2924 699 435 0 438 985 705 986 81 1 434 3046 482 430 985 0 429 4
38 987 82 1 984 -614137715 81 1 985 2923 699 430 0 434 988 710 989 81 1 429 3045
 482 427 988 0 417 434 990 82 1 987 -615382899 81 1 988 2922 699 427 0 429 991 9
85 992 81 1 417 3044 482 414 993 0 407 429 994 82 1 990 -616628083 81 1 993 2910
 699 414 0 417 633 639 995 81 1 407 3043 482 404 996 0 322 417 997 82 1 994 -646
512481 81 1 996 2918 699 404 0 407 703 998 999 81 1 322 3042 482 318 1000 0 315
 407 1001 82 1 997 -617676641 81 1 1000 2914 699 318 0 322 1002 1003 1004 81 1 3
15 3041 482 16 700 0 248 322 1005 82 1 1001 -647036769 81 1 700 2906 699 16 0 31
5 0 694 1006 81 1 248 3040 482 244 721 0 0 315 1007 82 1 1005 -1068760916 81 1 7
21 2928 699 244 0 248 716 723 1008 82 1 1007 -1826226020 83 3 1008 .101960784313
7254 .1019607843137254 .1019607843137254 83 3 1006 .1019607843137254 .1019607843
137254 .1019607843137254 81 1 1002 2913 699 324 0 644 643 1000 1009 81 1 1003 29
15 699 323 0 655 1000 662 1010 83 3 1004 .1019607843137254 .1019607843137254 .10
19607843137254 81 1 655 3069 482 323 1003 0 644 660 1011 81 1 662 2916 699 656 0
 660 1003 703 1012 83 3 1010 .1019607843137254 .1019607843137254 .10196078431372
54 81 1 703 2917 699 400 0 663 662 996 1013 83 3 1012 .1019607843137254 .1019607
843137254 .1019607843137254 83 3 1013 .1019607843137254 .1019607843137254 .10196
07843137254 81 1 644 3068 482 324 1002 0 640 655 1014 82 1 1011 -637992819 82 1
 1014 -645463924 81 1 643 2912 699 638 0 640 639 1002 1015 83 3 1009 .1019607843
137254 .1019607843137254 .1019607843137254 81 1 639 2911 699 326 0 637 993 643 1
016 83 3 1015 .1019607843137254 .1019607843137254 .1019607843137254 83 3 1016 .1
019607843137254 .1019607843137254 .1019607843137254 81 1 998 2919 699 408 0 586
 996 585 1017 83 3 999 .1019607843137254 .1019607843137254 .1019607843137254 81
 1 586 3063 482 408 998 0 583 632 1018 81 1 585 2920 699 569 0 583 998 991 1019
 83 3 1017 .1019607843137254 .1019607843137254 .1019607843137254 81 1 991 2921 6
99 431 0 568 585 988 1020 83 3 1019 .1019607843137254 .1019607843137254 .1019607
843137254 81 1 568 3061 482 431 991 0 487 583 1021 83 3 1020 .1019607843137254 .
1019607843137254 .1019607843137254 82 1 1021 -622067553 82 1 1018 -618725217 81
 1 633 2909 699 418 0 632 701 993 1022 83 3 995 .1019607843137254 .1019607843137
254 .1019607843137254 81 1 701 2908 699 420 0 634 694 633 1023 83 3 1022 .101960
7843137254 .1019607843137254 .1019607843137254 81 1 634 3065 482 420 701 0 632 6
37 1024 83 3 1023 .1019607843137254 .1019607843137254 .1019607843137254 82 1 102
4 -1817182056 83 3 992 .1019607843137254 .1019607843137254 .1019607843137254 83
 3 989 .1019607843137254 .1019607843137254 .1019607843137254 83 3 986 .101960784
3137254 .1019607843137254 .1019607843137254 82 1 981 -891354980 82 1 979 -889388
900 82 1 976 -887422820 82 1 973 1159528607 82 1 970 1158348959 80 1 945 1025 10
26 9000 0 0 0 0 3 5 0 0 0 FFFFTFFFFFFFFF1 82 1 969 1 79 18 1026 FILLET_CORNER_FA
CE82 1 966 1163395231 82 1 963 1162215583 82 1 962 1 82 1 958 1167261855 82 1 95
5 1166016671 82 1 954 1 82 1 950 1171128479 82 1 947 1 82 1 941 -1075248980 83 3
 728 .1019607843137254 .1019607843137254 .1019607843137254 15 726 678 0 229 249
 795 17 229 0 726 229 229 0 1027 227 0 0 +17 1027 0 1028 1027 1027 0 229 227 0 0
 -15 1028 604 0 1027 420 0 83 3 722 .1019607843137254 .1019607843137254 .1019607
843137254 83 3 717 .1019607843137254 .1019607843137254 .1019607843137254 83 3 71
2 .1019607843137254 .1019607843137254 .1019607843137254 82 1 704 -629800819 83 3
 702 .1019607843137254 .1019607843137254 .1019607843137254 79 14 698 SWEntUnchan
ged15 683 248 0 1029 323 0 17 1029 0 683 1029 1029 0 366 361 0 0 -17 366 0 636 3
66 366 0 1029 361 0 0 +15 636 229 0 366 420 1028 15 665 415 0 679 400 1030 17 68
0 0 436 680 680 0 679 676 0 0 -15 436 511 0 680 430 693 15 1030 310 0 1031 400 0
 17 1031 0 1030 1031 1031 0 372 370 0 0 -17 372 0 642 372 372 0 1031 370 0 0 +15
 439 524 0 668 435 692 82 1 664 -631177075 80 2 651 1032 1033 8044 0 0 0 0 3 5 0
 0 0 FFFFTFFFTTFFFF3 2 81 2 399 316 651 395 0 0 652 0 1034 1035 84 255 6 658 BAA
AAB83 3 659 650521303491299e-33 .0014 .001400000000000014 84 6 1034 BAAAAB83 3 1
035 650521303491299e-33 .0014 .001400000000000014 79 17 1033 SDL/TYSA_BLEND_ID84
 6 653 BAAAAB83 3 654 0 .003 .003 82 1 645 -645726068 82 1 641 -646774625 82 1 6
35 -646250337 16 393 1562 0 ?498 552 385 386 0 0 1 38 394 370 0 552 386 553 0 +3
96 254 1036 1037 1038 1039 40 3 1036 0 1 3 .000737251596010424 .0944297632874678
 ??-.014412181047614 .004 -.00901604333678562 -.00943051797106518 .004 .00202770
636488124 -.004254316639352525 .004 .0164590640661044 41 1 1037 L?-.014412181047
614 .004 -.00901604333678562 41 1 1038 L?-.004254316639352525 .004 .016459064066
1044 204 6 1039 3 -.00901604333678562 -.014412181047614 .00202770636488124 -.009
43051797106518 .0164590640661044 -.004254316639352525 17 498 0 612 104 110 105 4
96 393 0 0 +17 496 0 495 66 490 108 498 393 0 532 -17 591 0 584 78 95 96 384 382
 0 0 -17 83 0 570 624 623 81 492 618 0 551 +17 492 0 481 107 221 102 83 618 0 0
 -17 89 0 476 533 532 87 110 614 0 535 +17 72 0 409 611 610 70 92 604 0 549 +17
 92 0 469 601 530 90 72 604 0 602 -82 1 587 -620101473 141 573 396 567 567 328 1
41 572 297 572 572 566 141 565 553 565 565 402 40 4 554 0 1 4 .00076288412234088
3 .0962383035109436 ??-.00465178622339976 .0035 .01687041448606965 -.00989283774
802434 .0035 .002218128064885305 -.0112360559419489 .0035 -.000954131088682566 -
.01498231923710042 .0035 -.00904323560887426 41 1 555 L?-.00465178622339976 .003
5 .01687041448606965 41 1 556 L?-.01498231923710042 .0035 -.00904323560887426 20
4 8 557 3 .705097379407871 5e-4 .65625 5e-4 .645935394521003 5e-4 .6199394195514
11 5e-4 82 1 485 1169883295 141 413 387 406 406 398 141 411 292 411 411 299 141
 403 394 403 403 396 141 329 553 330 320 308 141 330 571 320 329 308 141 317 328
 1040 1041 254 141 1040 394 1042 317 254 141 1041 398 317 1042 254 141 1042 383
 1041 1040 254 141 306 793 306 306 293 134 307 0 0 0 0 0 0 +1043 1044 136 1043 2
 5 2 3 5 FFF1 1045 1046 1047 135 1044 1 0 45 10 1045 -.00584127893290455 -.01234
125713818916 -.001204043236190142 -.01017931425591472 .003335539936725565 -.0083
593053265595 .00803732579856002 -.00647426612218721 .01272985443754768 -.0049174
3618869956 127 3 1046 3 2 3 128 3 1047 0 .5 1 141 298 398 298 298 292 40 3 301 0
 1 3 .00783610847813802 .304530924556656 ??-.01416658697904148 .0035 -.046485861
3230306 .00894636431780807 .0035 -.003195789146878345 .02041059384126045 .0035 .
0447416925044045 41 1 302 L?-.01416658697904148 .0035 -.0464858613230306 41 1 30
3 L?.02041059384126045 .0035 .0447416925044045 204 12 304 4 -.0464858613230306 -
.01416658697904148 .464965135602835 5e-4 -.003195789146878345 .00894636431780807
 .3378244668663145 5e-4 .0447416925044045 .02041059384126045 .1888334732955095 5
e-4 141 286 285 286 286 279 141 269 327 269 269 262 136 270 3 22 3 20 1 FFF1 104
8 1049 1050 135 271 2 0 45 66 1048 .01509813695855105 .004 .0915471457888074 .01
52494025630548 .004 .0911483135389916 .01582009189386735 .004 .0896061479650342
 .01714862959346325 .004 .0856570769806464 .01879892605902175 .004 .079458908508
0386 .02024097249970575 .004 .0715308537324149 .0214072164033896 .004 .060358621
7827219 .0213790353210488 .004 .0453406305688863 .0187031659449605 .004 .0259001
4025655215 .01313604940502684 .004 .00533759005033027 .004304844436213235 .004 -
.01610175537577865 -.00745478650618767 .004 -.03761930381528605 -.02156510852361
325 .004 -.0585159236412839 -.03753180443964195 .004 -.0779644804127068 -.054913
2399443698 .004 -.0953981170862784 -.0735965668004188 .004 -.1109974918057804 -.
0934239920600753 .004 -.124832693840726 -.1142530378527746 .004 -.13701180848934
84 -.135948033755092 .004 -.1476400374679566 -.158360678090468 .004 -.1568209420
829015 -.17373094687256 .004 -.1620598017867035 -.181468084394321 .004 -.1644660
39249704 127 20 1049 4 1 1 1 1 1 1 1 1 1 1 1 1 1 1 1 1 1 1 4 128 20 1050 .010132
11041037766 .015625 .03125 .0625 .09375 .125 .1875 .25 .3125 .375 .4375 .5 .5625
 .625 .6875 .75 .8125 .875 .9375 1 141 265 810 265 265 258 134 267 0 0 0 0 0 0 +
1051 1052 136 1051 2 3 2 2 5 FFF1 1053 1054 1055 135 1052 1 0 45 6 1053 -.006046
61172800073 .01182681467644602 .00313572260138411 .008711412056812 .012522664135
8134 .004398339914655715 127 2 1054 3 3 128 2 1055 0 1 141 259 813 259 259 255 1
34 260 0 0 0 0 0 0 +1056 1057 136 1056 1 2 2 2 5 FFF1 1058 1059 1060 135 1057 1
 0 45 4 1058 .1469392033653674 0 .852975323747311 0 127 2 1059 2 2 128 2 1060 0
 1 141 237 252 237 237 232 136 238 3 6 3 3 6 FFF1 1061 1062 1063 135 239 2 0 45
 18 1061 -.00385900739873522 5e-4 .01604238329851605 -.00517963010168185 5e-4 .0
1174439843423858 -.00668716524649022 5e-4 .00750618454917779 -.01003305734986596
 5e-4 -.000839125251652417 -.01186969518433956 5e-4 -.00494240610284055 -.013839
9291461202 5e-4 -.00898367192357184 127 3 1062 4 2 4 128 3 1063 0 .5 1 19 17 177
 0 1 0 9 5 S0 74 4 CI16 index_map_offset0 0 1 dCCZ20 15 12 0 0 1064 1065 1066 76
5 399 1067 1068 942 1069 13 769 2 0 0 0 0 0 0 0 0 81 2 1064 54 1070 1 0 1065 0 0
 0 1071 81 5 1065 55 1072 1 1064 1066 0 0 1073 0 0 0 0 81 2 1066 216 1074 1 1065
 1067 0 0 0 1075 81 2 1067 1074 1076 1 1066 1068 0 0 1077 0 81 2 1068 1192 1078
 1 1067 1069 0 0 0 1079 81 2 1069 2135 1080 1 1068 13 0 0 0 0 81 1 13 2359 1081
 1 1069 2 0 0 1082 80 1 1081 1083 1084 9000 1 1 1 1 1 1 1 1 0 FFTFFFFFFFFFFF1 82
 1 1082 11589822 79 10 1084 BODY_MATCH80 2 1080 1085 1086 9000 0 0 0 0 3 5 0 0 0
 FFTFFFFFFFFFFF9 1 79 16 1086 BODY_RECIPE_200180 2 1078 1087 1088 9000 0 0 0 0 3
 5 0 0 0 FFTFFFFFFFFFFF9 1 82 1 1079 1 79 24 1088 BODY_IN_LIGHTWEIGHT_PERM80 2 1
076 1089 1090 8004 0 0 0 0 3 5 0 0 0 FFTFFFFFFFFFFF2 3 83 1 1077 1 79 16 1090 SD
L/TYSA_DENSITY80 2 1074 1091 1092 9000 0 0 0 0 3 5 0 0 0 FFTFFFFFFFFFFF9 1 82 1
 1075 89 79 30 1092 LAST_BODY_MODIFYING_FEATURE_ID80 5 1072 1093 1094 9000 0 0 0
 0 3 6 0 0 0 FFTTTTTTFTTFTT2 2 2 2 2 83 1 1073 1 79 19 1094 BODY_SCALING_FACTOR8
0 2 1070 1095 1096 9000 0 0 0 0 3 5 0 0 0 FFTFFFFFFFFFFT9 1 82 1 1071 158 79 19
 1096 ENT_TIME_STAMP_200180 2 12 1097 1098 9000 0 0 0 0 3 5 0 0 0 FFTFFFFFFFFFFF
9 1 82 1 14 103 79 12 1098 ATOM_ID_20011 0 
