  0
SECTION
  2
HEADER
  9
$ACADVER
  1
AC1015
  9
$ACADMAINTVER
 70
     6
  9
$DWGCODEPAGE
  3
ANSI_1252
  9
$INSBASE
 10
0.0
 20
0.0
 30
0.0
  9
$EXTMIN
 10
-29.5847092172
 20
14.3021332746
 30
0.0
  9
$EXTMAX
 10
305.163872859
 20
309.75
 30
0.0
  9
$LIMMIN
 10
0.0
 20
0.0
  9
$LIMMAX
 10
420.0
 20
297.0
  9
$ORTHOMODE
 70
     0
  9
$REGENMODE
 70
     1
  9
$FILLMODE
 70
     1
  9
$QTEXTMODE
 70
     0
  9
$MIRRTEXT
 70
     1
  9
$LTSCALE
 40
1.0
  9
$ATTMODE
 70
     1
  9
$TEXTSIZE
 40
3.5
  9
$TRACEWID
 40
1.0
  9
$TEXTSTYLE
  7
Standard
  9
$CLAYER
  8
0
  9
$CELTYPE
  6
ByLayer
  9
$CECOLOR
 62
   256
  9
$CELTSCALE
 40
1.0
  9
$DISPSILH
 70
     0
  9
$DIMSCALE
 40
1.0
  9
$DIMASZ
 40
3.302
  9
$DIMEXO
 40
0.0
  9
$DIMDLI
 40
3.75
  9
$DIMRND
 40
0.0
  9
$DIMDLE
 40
0.0
  9
$DIMEXE
 40
1.0
  9
$DIMTP
 40
0.0
  9
$DIMTM
 40
0.0
  9
$DIMTXT
 40
3.5
  9
$DIMCEN
 40
2.5
  9
$DIMTSZ
 40
0.0
  9
$DIMTOL
 70
     0
  9
$DIMLIM
 70
     0
  9
$DIMTIH
 70
     1
  9
$DIMTOH
 70
     1
  9
$DIMSE1
 70
     0
  9
$DIMSE2
 70
     0
  9
$DIMTAD
 70
     1
  9
$DIMZIN
 70
     1
  9
$DIMBLK
  1

  9
$DIMASO
 70
     1
  9
$DIMSHO
 70
     1
  9
$DIMPOST
  1

  9
$DIMAPOST
  1

  9
$DIMALT
 70
     0
  9
$DIMALTD
 70
     3
  9
$DIMALTF
 40
0.0393700787
  9
$DIMLFAC
 40
1.0
  9
$DIMTOFL
 70
     1
  9
$DIMTVP
 40
0.0
  9
$DIMTIX
 70
     0
  9
$DIMSOXD
 70
     0
  9
$DIMSAH
 70
     0
  9
$DIMBLK1
  1

  9
$DIMBLK2
  1

  9
$DIMSTYLE
  2
ISO-25
  9
$DIMCLRD
 70
     0
  9
$DIMCLRE
 70
     0
  9
$DIMCLRT
 70
     0
  9
$DIMTFAC
 40
1.0
  9
$DIMGAP
 40
1.524
  9
$DIMJUST
 70
     0
  9
$DIMSD1
 70
     0
  9
$DIMSD2
 70
     0
  9
$DIMTOLJ
 70
     0
  9
$DIMTZIN
 70
     1
  9
$DIMALTZ
 70
     0
  9
$DIMALTTZ
 70
     0
  9
$DIMUPT
 70
     0
  9
$DIMDEC
 70
     2
  9
$DIMTDEC
 70
     2
  9
$DIMALTU
 70
     2
  9
$DIMALTTD
 70
     3
  9
$DIMTXSTY
  7
Standard
  9
$DIMAUNIT
 70
     0
  9
$DIMADEC
 70
     2
  9
$DIMALTRND
 40
0.0
  9
$DIMAZIN
 70
     0
  9
$DIMDSEP
 70
    44
  9
$DIMATFIT
 70
     3
  9
$DIMFRAC
 70
     0
  9
$DIMLDRBLK
  1

  9
$DIMLUNIT
 70
     2
  9
$DIMLWD
 70
    -2
  9
$DIMLWE
 70
    -2
  9
$DIMTMOVE
 70
     0
  9
$LUNITS
 70
     2
  9
$LUPREC
 70
     2
  9
$SKETCHINC
 40
1.0
  9
$FILLETRAD
 40
0.0
  9
$AUNITS
 70
     0
  9
$AUPREC
 70
     2
  9
$MENU
  1
.
  9
$ELEVATION
 40
0.0
  9
$PELEVATION
 40
0.0
  9
$THICKNESS
 40
0.0
  9
$LIMCHECK
 70
     0
  9
$CHAMFERA
 40
0.0
  9
$CHAMFERB
 40
0.0
  9
$CHAMFERC
 40
0.0
  9
$CHAMFERD
 40
0.0
  9
$SKPOLY
 70
     0
  9
$TDCREATE
 40
2460253.566964676
  9
$TDUCREATE
 40
2460253.525298009
  9
$TDUPDATE
 40
2460253.567020278
  9
$TDUUPDATE
 40
2460253.525353611
  9
$TDINDWG
 40
0.0000000116
  9
$TDUSRTIMER
 40
0.0000000116
  9
$USRTIMER
 70
     1
  9
$ANGBASE
 50
0.0
  9
$ANGDIR
 70
     0
  9
$PDMODE
 70
     0
  9
$PDSIZE
 40
-1.0
  9
$PLINEWID
 40
0.0
  9
$SPLFRAME
 70
     0
  9
$SPLINETYPE
 70
     6
  9
$SPLINESEGS
 70
     8
  9
$HANDSEED
  5
466
  9
$SURFTAB1
 70
     6
  9
$SURFTAB2
 70
     6
  9
$SURFTYPE
 70
     6
  9
$SURFU
 70
     6
  9
$SURFV
 70
     6
  9
$UCSBASE
  2

  9
$UCSNAME
  2

  9
$UCSORG
 10
0.0
 20
0.0
 30
0.0
  9
$UCSXDIR
 10
1.0
 20
0.0
 30
0.0
  9
$UCSYDIR
 10
0.0
 20
1.0
 30
0.0
  9
$UCSORTHOREF
  2

  9
$UCSORTHOVIEW
 70
     0
  9
$UCSORGTOP
 10
0.0
 20
0.0
 30
0.0
  9
$UCSORGBOTTOM
 10
0.0
 20
0.0
 30
0.0
  9
$UCSORGLEFT
 10
0.0
 20
0.0
 30
0.0
  9
$UCSORGRIGHT
 10
0.0
 20
0.0
 30
0.0
  9
$UCSORGFRONT
 10
0.0
 20
0.0
 30
0.0
  9
$UCSORGBACK
 10
0.0
 20
0.0
 30
0.0
  9
$PUCSBASE
  2

  9
$PUCSNAME
  2

  9
$PUCSORG
 10
0.0
 20
0.0
 30
0.0
  9
$PUCSXDIR
 10
1.0
 20
0.0
 30
0.0
  9
$PUCSYDIR
 10
0.0
 20
1.0
 30
0.0
  9
$PUCSORTHOREF
  2

  9
$PUCSORTHOVIEW
 70
     0
  9
$PUCSORGTOP
 10
0.0
 20
0.0
 30
0.0
  9
$PUCSORGBOTTOM
 10
0.0
 20
0.0
 30
0.0
  9
$PUCSORGLEFT
 10
0.0
 20
0.0
 30
0.0
  9
$PUCSORGRIGHT
 10
0.0
 20
0.0
 30
0.0
  9
$PUCSORGFRONT
 10
0.0
 20
0.0
 30
0.0
  9
$PUCSORGBACK
 10
0.0
 20
0.0
 30
0.0
  9
$USERI1
 70
     0
  9
$USERI2
 70
     0
  9
$USERI3
 70
     0
  9
$USERI4
 70
     0
  9
$USERI5
 70
     0
  9
$USERR1
 40
0.0
  9
$USERR2
 40
0.0
  9
$USERR3
 40
0.0
  9
$USERR4
 40
0.0
  9
$USERR5
 40
0.0
  9
$WORLDVIEW
 70
     1
  9
$SHADEDGE
 70
     3
  9
$SHADEDIF
 70
    70
  9
$TILEMODE
 70
     1
  9
$MAXACTVP
 70
    64
  9
$PINSBASE
 10
0.0
 20
0.0
 30
0.0
  9
$PLIMCHECK
 70
     0
  9
$PEXTMIN
 10
1.0000000000E+20
 20
1.0000000000E+20
 30
1.0000000000E+20
  9
$PEXTMAX
 10
-1.0000000000E+20
 20
-1.0000000000E+20
 30
-1.0000000000E+20
  9
$PLIMMIN
 10
0.0
 20
0.0
  9
$PLIMMAX
 10
420.0
 20
297.0
  9
$UNITMODE
 70
     0
  9
$VISRETAIN
 70
     1
  9
$PLINEGEN
 70
     0
  9
$PSLTSCALE
 70
     1
  9
$TREEDEPTH
 70
  3020
  9
$CMLSTYLE
  2
Standard
  9
$CMLJUST
 70
     0
  9
$CMLSCALE
 40
20.0
  9
$PROXYGRAPHICS
 70
     1
  9
$MEASUREMENT
 70
     1
  9
$CELWEIGHT
370
    -1
  9
$ENDCAPS
280
     0
  9
$JOINSTYLE
280
     0
  9
$LWDISPLAY
290
     1
  9
$INSUNITS
 70
     4
  9
$HYPERLINKBASE
  1

  9
$STYLESHEET
  1

  9
$XEDIT
290
     1
  9
$CEPSNTYPE
380
     0
  9
$PSTYLEMODE
290
     1
  9
$FINGERPRINTGUID
  2
{8ac4cf56-b920-4128-94f5-d7ebbb7b2908}
  9
$VERSIONGUID
  2
{FAEB1C32-E019-11D5-929B-00C0DF256EC4}
  9
$EXTNAMES
290
     1
  9
$PSVPSCALE
 40
0.0
  9
$OLESTARTUP
290
     0
  0
ENDSEC
  0
SECTION
  2
CLASSES
  0
CLASS
  1
ACDBDICTIONARYWDFLT
  2
AcDbDictionaryWithDefault
  3
ObjectDBX Classes
 90
        0
280
     0
281
     0
  0
CLASS
  1
VISUALSTYLE
  2
AcDbVisualStyle
  3
ObjectDBX Classes
 90
     4095
280
     0
281
     0
  0
CLASS
  1
MATERIAL
  2
AcDbMaterial
  3
ObjectDBX Classes
 90
     1153
280
     0
281
     0
  0
CLASS
  1
SCALE
  2
AcDbScale
  3
ObjectDBX Classes
 90
     1153
280
     0
281
     0
  0
CLASS
  1
TABLESTYLE
  2
AcDbTableStyle
  3
ObjectDBX Classes
 90
     4095
280
     0
281
     0
  0
CLASS
  1
MLEADERSTYLE
  2
AcDbMLeaderStyle
  3
ACDB_MLEADERSTYLE_CLASS
 90
     4095
280
     0
281
     0
  0
CLASS
  1
SUN
  2
AcDbSun
  3
SCENEOE
 90
     1153
280
     0
281
     0
  0
CLASS
  1
ACDBPLACEHOLDER
  2
AcDbPlaceHolder
  3
ObjectDBX Classes
 90
        0
280
     0
281
     0
  0
CLASS
  1
LAYOUT
  2
AcDbLayout
  3
ObjectDBX Classes
 90
        0
280
     0
281
     0
  0
ENDSEC
  0
SECTION
  2
TABLES
  0
TABLE
  2
VPORT
  5
8
330
0
100
AcDbSymbolTable
 70
     1
  0
VPORT
  5
29
330
8
100
AcDbSymbolTableRecord
100
AcDbViewportTableRecord
  2
*Active
 70
     0
 10
0.0
 20
0.0
 11
1.0
 21
1.0
 12
137.7895818209
 22
162.0260666373
 13
0.0
 23
0.0
 14
10.0
 24
10.0
 15
10.0
 25
10.0
 16
0.0
 26
0.0
 36
1.0
 17
0.0
 27
0.0
 37
0.0
 40
301.3568240599
 41
1.1330208127
 42
50.0
 43
0.0
 44
0.0
 50
0.0
 51
0.0
 71
     0
 72
   100
 73
     1
 74
     3
 75
     0
 76
     0
 77
     0
 78
     0
281
     0
 65
     1
110
0.0
120
0.0
130
0.0
111
1.0
121
0.0
131
0.0
112
0.0
122
1.0
132
0.0
 79
     0
146
0.0
  0
ENDTAB
  0
TABLE
  2
LTYPE
  5
5
330
0
100
AcDbSymbolTable
 70
     6
  0
LTYPE
  5
14
330
5
100
AcDbSymbolTableRecord
100
AcDbLinetypeTableRecord
  2
ByBlock
 70
     0
  3

 72
    65
 73
     0
 40
0.0
  0
LTYPE
  5
15
330
5
100
AcDbSymbolTableRecord
100
AcDbLinetypeTableRecord
  2
ByLayer
 70
     0
  3

 72
    65
 73
     0
 40
0.0
  0
LTYPE
  5
16
330
5
100
AcDbSymbolTableRecord
100
AcDbLinetypeTableRecord
  2
Continuous
 70
     0
  3
Solid line
 72
    65
 73
     0
 40
0.0
  0
LTYPE
  5
5E
330
5
100
AcDbSymbolTableRecord
100
AcDbLinetypeTableRecord
  2
HIDDEN
 70
     0
  3
Hidden __ __ __ __ __ __ __ __ __ __ __ __ __ __
 72
    65
 73
     2
 40
1.905
 49
1.27
 74
     0
 49
-0.635
 74
     0
  0
LTYPE
  5
5F
330
5
100
AcDbSymbolTableRecord
100
AcDbLinetypeTableRecord
  2
PHANTOM
 70
     0
  3
Phantom ______  __  __  ______  __  __  ______
 72
    65
 73
     6
 40
12.7
 49
6.35
 74
     0
 49
-1.27
 74
     0
 49
1.27
 74
     0
 49
-1.27
 74
     0
 49
1.27
 74
     0
 49
-1.27
 74
     0
  0
LTYPE
  5
60
330
5
100
AcDbSymbolTableRecord
100
AcDbLinetypeTableRecord
  2
CENTER
 70
     0
  3
Center ____ _ ____ _ ____ _ ____ _ ____ _ ____
 72
    65
 73
     4
 40
10.16
 49
6.35
 74
     0
 49
-1.27
 74
     0
 49
1.27
 74
     0
 49
-1.27
 74
     0
  0
LTYPE
  5
61
330
5
100
AcDbSymbolTableRecord
100
AcDbLinetypeTableRecord
  2
CENTERX2
 70
     0
  3
Center (2x) ________  __  ________  __  _____
 72
    65
 73
     4
 40
20.32
 49
12.7
 74
     0
 49
-2.54
 74
     0
 49
2.54
 74
     0
 49
-2.54
 74
     0
  0
LTYPE
  5
62
330
5
100
AcDbSymbolTableRecord
100
AcDbLinetypeTableRecord
  2
DOT2
 70
     0
  3
Dot (.5x) ........................................
 72
    65
 73
     2
 40
0.635
 49
0.0
 74
     0
 49
-0.635
 74
     0
  0
ENDTAB
  0
TABLE
  2
LAYER
  5
2
330
0
100
AcDbSymbolTable
 70
     1
  0
LAYER
  5
10
330
2
100
AcDbSymbolTableRecord
100
AcDbLayerTableRecord
  2
0
 70
     0
 62
     7
  6
Continuous
370
    -3
390
F
  0
ENDTAB
  0
TABLE
  2
STYLE
  5
3
330
0
100
AcDbSymbolTable
 70
     1
  0
STYLE
  5
11
330
3
100
AcDbSymbolTableRecord
100
AcDbTextStyleTableRecord
  2
Standard
 70
     0
 40
0.0
 41
1.0
 50
0.0
 71
     0
 42
3.5
  3
txt
  4

  0
ENDTAB
  0
TABLE
  2
VIEW
  5
6
330
0
100
AcDbSymbolTable
 70
     0
  0
ENDTAB
  0
TABLE
  2
UCS
  5
7
330
0
100
AcDbSymbolTable
 70
     0
  0
ENDTAB
  0
TABLE
  2
APPID
  5
9
330
0
100
AcDbSymbolTable
 70
     1
  0
APPID
  5
12
330
9
100
AcDbSymbolTableRecord
100
AcDbRegAppTableRecord
  2
ACAD
 70
     0
  0
ENDTAB
  0
TABLE
  2
DIMSTYLE
  5
A
330
0
100
AcDbSymbolTable
 70
     1
100
AcDbDimStyleTable
  0
DIMSTYLE
105
27
330
A
100
AcDbSymbolTableRecord
100
AcDbDimStyleTableRecord
  2
ISO-25
 70
     0
 41
2.5
 42
0.625
 43
3.75
 44
1.25
 73
     0
 74
     0
 77
     1
 78
     8
140
2.5
141
2.5
143
0.0393700787
147
0.625
171
     3
172
     1
178
     0
271
     2
272
     2
274
     3
278
    44
283
     0
284
     8
340
11
  0
ENDTAB
  0
TABLE
  2
BLOCK_RECORD
  5
1
330
0
100
AcDbSymbolTable
 70
     1
  0
BLOCK_RECORD
  5
1F
330
1
100
AcDbSymbolTableRecord
100
AcDbBlockTableRecord
  2
*Model_Space
340
22
  0
BLOCK_RECORD
  5
1B
330
1
100
AcDbSymbolTableRecord
100
AcDbBlockTableRecord
  2
*Paper_Space
340
1E
  0
BLOCK_RECORD
  5
23
330
1
100
AcDbSymbolTableRecord
100
AcDbBlockTableRecord
  2
*Paper_Space0
340
26
  0
ENDTAB
  0
ENDSEC
  0
SECTION
  2
BLOCKS
  0
BLOCK
  5
20
330
1F
100
AcDbEntity
  8
0
100
AcDbBlockBegin
  2
*Model_Space
 70
     0
 10
0.0
 20
0.0
 30
0.0
  3
*Model_Space
  1

  0
ENDBLK
  5
21
330
1F
100
AcDbEntity
  8
0
100
AcDbBlockEnd
  0
BLOCK
  5
1C
330
1B
100
AcDbEntity
 67
     1
  8
0
100
AcDbBlockBegin
  2
*Paper_Space
 70
     0
 10
0.0
 20
0.0
 30
0.0
  3
*Paper_Space
  1

  0
ENDBLK
  5
1D
330
1B
100
AcDbEntity
 67
     1
  8
0
100
AcDbBlockEnd
  0
BLOCK
  5
24
330
23
100
AcDbEntity
  8
0
100
AcDbBlockBegin
  2
*Paper_Space0
 70
     0
 10
0.0
 20
0.0
 30
0.0
  3
*Paper_Space0
  1

  0
ENDBLK
  5
25
330
23
100
AcDbEntity
  8
0
100
AcDbBlockEnd
  0
ENDSEC
  0
SECTION
  2
ENTITIES
  0
CIRCLE
  5
63
330
1F
100
AcDbEntity
  8
0
  6
Continuous
 62
     7
370
    25
100
AcDbCircle
 10
0.0
 20
300.0
 30
0.0
 40
1.25
  0
CIRCLE
  5
64
330
1F
100
AcDbEntity
  8
0
  6
Continuous
 62
     7
370
    25
100
AcDbCircle
 10
0.0
 20
305.75
 30
0.0
 40
1.599999999999966
  0
CIRCLE
  5
65
330
1F
100
AcDbEntity
  8
0
  6
Continuous
 62
     7
370
    25
100
AcDbCircle
 10
294.235584121
 20
58.5270966048
 30
0.0
 40
1.250000000000014
  0
CIRCLE
  5
66
330
1F
100
AcDbEntity
  8
0
  6
Continuous
 62
     7
370
    25
100
AcDbCircle
 10
299.8750994833
 20
59.6488659564
 30
0.0
 40
1.60000000000003
  0
CIRCLE
  5
67
330
1F
100
AcDbEntity
  8
0
  6
Continuous
 62
     7
370
    25
100
AcDbCircle
 10
277.1638597534
 20
114.8050297095
 30
0.0
 40
1.249999999999986
  0
CIRCLE
  5
68
330
1F
100
AcDbEntity
  8
0
  6
Continuous
 62
     7
370
    25
100
AcDbCircle
 10
282.4761670653
 20
117.0054594456
 30
0.0
 40
1.59999999999998
  0
CIRCLE
  5
69
330
1F
100
AcDbEntity
  8
0
  6
Continuous
 62
     7
370
    25
100
AcDbCircle
 10
249.4408836908
 20
166.6710699059
 30
0.0
 40
1.25
  0
CIRCLE
  5
6A
330
1F
100
AcDbEntity
  8
0
  6
Continuous
 62
     7
370
    25
100
AcDbCircle
 10
254.2218339615
 20
169.8655987457
 30
0.0
 40
1.599999999999966
  0
CIRCLE
  5
6B
330
1F
100
AcDbEntity
  8
0
  6
Continuous
 62
     7
370
    25
100
AcDbCircle
 10
212.132034356
 20
212.132034356
 30
0.0
 40
1.250000000000028
  0
CIRCLE
  5
6C
330
1F
100
AcDbEntity
  8
0
  6
Continuous
 62
     7
370
    25
100
AcDbCircle
 10
216.1978983478
 20
216.1978983478
 30
0.0
 40
1.600000000000023
  0
CIRCLE
  5
6D
330
1F
100
AcDbEntity
  8
0
  6
Continuous
 62
     7
370
    25
100
AcDbCircle
 10
166.6710699059
 20
249.4408836908
 30
0.0
 40
1.249999999999972
  0
CIRCLE
  5
6E
330
1F
100
AcDbEntity
  8
0
  6
Continuous
 62
     7
370
    25
100
AcDbCircle
 10
169.8655987457
 20
254.2218339615
 30
0.0
 40
1.600000000000023
  0
CIRCLE
  5
6F
330
1F
100
AcDbEntity
  8
0
  6
Continuous
 62
     7
370
    25
100
AcDbCircle
 10
114.8050297095
 20
277.1638597534
 30
0.0
 40
1.25
  0
CIRCLE
  5
70
330
1F
100
AcDbEntity
  8
0
  6
Continuous
 62
     7
370
    25
100
AcDbCircle
 10
117.0054594456
 20
282.4761670653
 30
0.0
 40
1.599999999999909
  0
CIRCLE
  5
71
330
1F
100
AcDbEntity
  8
0
  6
Continuous
 62
     7
370
    25
100
AcDbCircle
 10
58.5270966048
 20
294.235584121
 30
0.0
 40
1.25
  0
CIRCLE
  5
72
330
1F
100
AcDbEntity
  8
0
  6
Continuous
 62
     7
370
    25
100
AcDbCircle
 10
59.6488659564
 20
299.8750994833
 30
0.0
 40
1.599999999999966
  0
CIRCLE
  5
93
330
1F
100
AcDbEntity
  8
0
  6
Continuous
 62
     7
370
    25
100
AcDbCircle
 10
0.0
 20
250.0
 30
0.0
 40
1.249999999999972
  0
CIRCLE
  5
94
330
1F
100
AcDbEntity
  8
0
  6
Continuous
 62
     7
370
    25
100
AcDbCircle
 10
0.0
 20
255.75
 30
0.0
 40
1.599999999999994
  0
CIRCLE
  5
95
330
1F
100
AcDbEntity
  8
0
  6
Continuous
 62
     7
370
    25
100
AcDbCircle
 10
245.1963201008
 20
48.772580504
 30
0.0
 40
1.249999999999979
  0
CIRCLE
  5
96
330
1F
100
AcDbEntity
  8
0
  6
Continuous
 62
     7
370
    25
100
AcDbCircle
 10
250.8358354631
 20
49.8943498556
 30
0.0
 40
1.600000000000016
  0
CIRCLE
  5
97
330
1F
100
AcDbEntity
  8
0
  6
Continuous
 62
     7
370
    25
100
AcDbCircle
 10
230.9698831278
 20
95.6708580913
 30
0.0
 40
1.250000000000028
  0
CIRCLE
  5
98
330
1F
100
AcDbEntity
  8
0
  6
Continuous
 62
     7
370
    25
100
AcDbCircle
 10
236.2821904398
 20
97.8712878274
 30
0.0
 40
1.600000000000009
  0
CIRCLE
  5
99
330
1F
100
AcDbEntity
  8
0
  6
Continuous
 62
     7
370
    25
100
AcDbCircle
 10
207.8674030756
 20
138.8925582549
 30
0.0
 40
1.25
  0
CIRCLE
  5
9A
330
1F
100
AcDbEntity
  8
0
  6
Continuous
 62
     7
370
    25
100
AcDbCircle
 10
212.6483533464
 20
142.0870870948
 30
0.0
 40
1.599999999999994
  0
CIRCLE
  5
9B
330
1F
100
AcDbEntity
  8
0
  6
Continuous
 62
     7
370
    25
100
AcDbCircle
 10
176.7766952966
 20
176.7766952966
 30
0.0
 40
1.25
  0
CIRCLE
  5
9C
330
1F
100
AcDbEntity
  8
0
  6
Continuous
 62
     7
370
    25
100
AcDbCircle
 10
180.8425592885
 20
180.8425592885
 30
0.0
 40
1.60000000000008
  0
CIRCLE
  5
9D
330
1F
100
AcDbEntity
  8
0
  6
Continuous
 62
     7
370
    25
100
AcDbCircle
 10
138.8925582549
 20
207.8674030756
 30
0.0
 40
1.250000000000057
  0
CIRCLE
  5
9E
330
1F
100
AcDbEntity
  8
0
  6
Continuous
 62
     7
370
    25
100
AcDbCircle
 10
142.0870870948
 20
212.6483533464
 30
0.0
 40
1.599999999999966
  0
CIRCLE
  5
9F
330
1F
100
AcDbEntity
  8
0
  6
Continuous
 62
     7
370
    25
100
AcDbCircle
 10
95.6708580913
 20
230.9698831278
 30
0.0
 40
1.25
  0
CIRCLE
  5
A0
330
1F
100
AcDbEntity
  8
0
  6
Continuous
 62
     7
370
    25
100
AcDbCircle
 10
97.8712878274
 20
236.2821904398
 30
0.0
 40
1.600000000000023
  0
CIRCLE
  5
A1
330
1F
100
AcDbEntity
  8
0
  6
Continuous
 62
     7
370
    25
100
AcDbCircle
 10
48.772580504
 20
245.1963201008
 30
0.0
 40
1.25
  0
CIRCLE
  5
A2
330
1F
100
AcDbEntity
  8
0
  6
Continuous
 62
     7
370
    25
100
AcDbCircle
 10
49.8943498556
 20
250.8358354631
 30
0.0
 40
1.600000000000051
  0
CIRCLE
  5
C3
330
1F
100
AcDbEntity
  8
0
  6
Continuous
 62
     7
370
    25
100
AcDbCircle
 10
0.0
 20
200.0
 30
0.0
 40
1.25
  0
CIRCLE
  5
C4
330
1F
100
AcDbEntity
  8
0
  6
Continuous
 62
     7
370
    25
100
AcDbCircle
 10
0.0
 20
205.75
 30
0.0
 40
1.599999999999966
  0
CIRCLE
  5
C5
330
1F
100
AcDbEntity
  8
0
  6
Continuous
 62
     7
370
    25
100
AcDbCircle
 10
196.1570560806
 20
39.0180644032
 30
0.0
 40
1.249999999999986
  0
CIRCLE
  5
C6
330
1F
100
AcDbEntity
  8
0
  6
Continuous
 62
     7
370
    25
100
AcDbCircle
 10
201.796571443
 20
40.1398337548
 30
0.0
 40
1.59999999999998
  0
CIRCLE
  5
C7
330
1F
100
AcDbEntity
  8
0
  6
Continuous
 62
     7
370
    25
100
AcDbCircle
 10
184.7759065023
 20
76.536686473
 30
0.0
 40
1.25
  0
CIRCLE
  5
C8
330
1F
100
AcDbEntity
  8
0
  6
Continuous
 62
     7
370
    25
100
AcDbCircle
 10
190.0882138142
 20
78.7371162091
 30
0.0
 40
1.600000000000009
  0
CIRCLE
  5
C9
330
1F
100
AcDbEntity
  8
0
  6
Continuous
 62
     7
370
    25
100
AcDbCircle
 10
166.2939224605
 20
111.1140466039
 30
0.0
 40
1.250000000000057
  0
CIRCLE
  5
CA
330
1F
100
AcDbEntity
  8
0
  6
Continuous
 62
     7
370
    25
100
AcDbCircle
 10
171.0748727312
 20
114.3085754438
 30
0.0
 40
1.599999999999937
  0
CIRCLE
  5
CB
330
1F
100
AcDbEntity
  8
0
  6
Continuous
 62
     7
370
    25
100
AcDbCircle
 10
141.4213562373
 20
141.4213562373
 30
0.0
 40
1.25
  0
CIRCLE
  5
CC
330
1F
100
AcDbEntity
  8
0
  6
Continuous
 62
     7
370
    25
100
AcDbCircle
 10
145.4872202291
 20
145.4872202291
 30
0.0
 40
1.599999999999937
  0
CIRCLE
  5
CD
330
1F
100
AcDbEntity
  8
0
  6
Continuous
 62
     7
370
    25
100
AcDbCircle
 10
111.1140466039
 20
166.2939224605
 30
0.0
 40
1.25
  0
CIRCLE
  5
CE
330
1F
100
AcDbEntity
  8
0
  6
Continuous
 62
     7
370
    25
100
AcDbCircle
 10
114.3085754438
 20
171.0748727312
 30
0.0
 40
1.599999999999994
  0
CIRCLE
  5
CF
330
1F
100
AcDbEntity
  8
0
  6
Continuous
 62
     7
370
    25
100
AcDbCircle
 10
76.536686473
 20
184.7759065023
 30
0.0
 40
1.249999999999972
  0
CIRCLE
  5
D0
330
1F
100
AcDbEntity
  8
0
  6
Continuous
 62
     7
370
    25
100
AcDbCircle
 10
78.7371162091
 20
190.0882138142
 30
0.0
 40
1.600000000000023
  0
CIRCLE
  5
D1
330
1F
100
AcDbEntity
  8
0
  6
Continuous
 62
     7
370
    25
100
AcDbCircle
 10
39.0180644032
 20
196.1570560806
 30
0.0
 40
1.25
  0
CIRCLE
  5
D2
330
1F
100
AcDbEntity
  8
0
  6
Continuous
 62
     7
370
    25
100
AcDbCircle
 10
40.1398337548
 20
201.796571443
 30
0.0
 40
1.599999999999994
  0
CIRCLE
  5
D3
330
1F
100
AcDbEntity
  8
0
  6
Continuous
 62
     7
370
    25
100
AcDbCircle
 10
59.6029445909
 20
143.8942371886
 30
0.0
 40
1.600000000000023
  0
CIRCLE
  5
D4
330
1F
100
AcDbEntity
  8
0
  6
Continuous
 62
     7
370
    25
100
AcDbCircle
 10
57.4025148548
 20
138.5819298767
 30
0.0
 40
1.25
  0
CIRCLE
  5
D5
330
1F
100
AcDbEntity
  8
0
  6
Continuous
 62
     7
370
    25
100
AcDbCircle
 10
110.1318811698
 20
110.1318811698
 30
0.0
 40
1.599999999999994
  0
CIRCLE
  5
D6
330
1F
100
AcDbEntity
  8
0
  6
Continuous
 62
     7
370
    25
100
AcDbCircle
 10
106.066017178
 20
106.066017178
 30
0.0
 40
1.250000000000028
  0
CIRCLE
  5
D7
330
1F
100
AcDbEntity
  8
0
  6
Continuous
 62
     7
370
    25
100
AcDbCircle
 10
143.8942371886
 20
59.6029445909
 30
0.0
 40
1.599999999999987
  0
CIRCLE
  5
D8
330
1F
100
AcDbEntity
  8
0
  6
Continuous
 62
     7
370
    25
100
AcDbCircle
 10
138.5819298767
 20
57.4025148548
 30
0.0
 40
1.250000000000036
  0
CIRCLE
  5
F3
330
1F
100
AcDbEntity
  8
0
  6
Continuous
 62
     7
370
    25
100
AcDbCircle
 10
0.0
 20
155.75
 30
0.0
 40
1.599999999999966
  0
CIRCLE
  5
F4
330
1F
100
AcDbEntity
  8
0
  6
Continuous
 62
     7
370
    25
100
AcDbCircle
 10
0.0
 20
150.0
 30
0.0
 40
1.249999999999943
  0
CIRCLE
  5
279
330
1F
100
AcDbEntity
  8
0
  6
Continuous
 62
     7
370
    25
100
AcDbCircle
 10
68.0
 20
52.0
 30
0.0
 40
1.600000000000023
  0
CIRCLE
  5
27A
330
1F
100
AcDbEntity
  8
0
  6
Continuous
 62
     7
370
    25
100
AcDbCircle
 10
52.0
 20
68.0
 30
0.0
 40
1.600000000000009
  0
LINE
  5
281
330
1F
100
AcDbEntity
  8
0
  6
Continuous
 62
     7
370
    25
100
AcDbLine
 10
106.771493917
 20
265.6085664785
 30
0.0
 11
97.2044081078
 21
242.5115781657
 31
0.0
  0
LINE
  5
282
330
1F
100
AcDbEntity
  8
0
  6
Continuous
 62
     7
370
    25
100
AcDbLine
 10
105.9596997668
 20
267.5684109258
 30
0.0
 11
103.6500009355
 21
268.5251195067
 31
0.0
  0
LINE
  5
283
330
1F
100
AcDbEntity
  8
0
  6
Continuous
 62
     7
370
    25
100
AcDbLine
 10
103.6500009355
 20
268.5251195067
 30
0.0
 11
106.1218435243
 21
274.4926754086
 31
0.0
  0
LINE
  5
284
330
1F
100
AcDbEntity
  8
0
  6
Continuous
 62
     7
370
    25
100
AcDbLine
 10
64.262871547
 20
287.1904557371
 30
0.0
 11
63.002737123
 21
280.8553321819
 31
0.0
  0
LINE
  5
285
330
1F
100
AcDbEntity
  8
0
  6
Continuous
 62
     7
370
    25
100
AcDbLine
 10
63.002737123
 20
280.8553321819
 30
0.0
 11
49.2717431973
 21
283.5865966901
 31
0.0
  0
LINE
  5
286
330
1F
100
AcDbEntity
  8
0
  6
Continuous
 62
     7
370
    25
100
AcDbLine
 10
49.2717431973
 20
283.5865966901
 30
0.0
 11
50.5318776213
 21
289.9217202454
 31
0.0
  0
LINE
  5
287
330
1F
100
AcDbEntity
  8
0
  6
Continuous
 62
     7
370
    25
100
AcDbLine
 10
7.0
 20
294.209235963
 30
0.0
 11
7.0
 21
287.75
 31
0.0
  0
LINE
  5
288
330
1F
100
AcDbEntity
  8
0
  6
Continuous
 62
     7
370
    25
100
AcDbLine
 10
7.0
 20
287.75
 30
0.0
 11
4.5
 21
287.75
 31
0.0
  0
LINE
  5
289
330
1F
100
AcDbEntity
  8
0
  6
Continuous
 62
     7
370
    25
100
AcDbLine
 10
3.0
 20
286.25
 30
0.0
 11
3.0
 21
261.25
 31
0.0
  0
LINE
  5
28A
330
1F
100
AcDbEntity
  8
0
  6
Continuous
 62
     7
370
    25
100
AcDbLine
 10
7.0
 20
259.75
 30
0.0
 11
4.5
 21
259.75
 31
0.0
  0
LINE
  5
28B
330
1F
100
AcDbEntity
  8
0
  6
Continuous
 62
     7
370
    25
100
AcDbLine
 10
7.0
 20
253.2058426592
 30
0.0
 11
7.0
 21
259.75
 31
0.0
  0
LINE
  5
28C
330
1F
100
AcDbEntity
  8
0
  6
Continuous
 62
     7
370
    25
100
AcDbLine
 10
42.5325124179
 20
249.7061956463
 30
0.0
 11
43.8092141809
 21
256.1246088389
 31
0.0
  0
LINE
  5
28D
330
1F
100
AcDbEntity
  8
0
  6
Continuous
 62
     7
370
    25
100
AcDbLine
 10
57.5402081065
 20
253.3933443306
 30
0.0
 11
43.8092141809
 21
256.1246088389
 31
0.0
  0
LINE
  5
28E
330
1F
100
AcDbEntity
  8
0
  6
Continuous
 62
     7
370
    25
100
AcDbLine
 10
56.2635063436
 20
246.9749311381
 30
0.0
 11
57.5402081065
 21
253.3933443306
 31
0.0
  0
LINE
  5
28F
330
1F
100
AcDbEntity
  8
0
  6
Continuous
 62
     7
370
    25
100
AcDbLine
 10
90.4305242361
 20
236.6104795716
 30
0.0
 11
92.9348648293
 21
242.6564925964
 31
0.0
  0
LINE
  5
290
330
1F
100
AcDbEntity
  8
0
  6
Continuous
 62
     7
370
    25
100
AcDbLine
 10
95.2445636605
 20
241.6997840154
 30
0.0
 11
92.9348648293
 21
242.6564925964
 31
0.0
  0
LINE
  5
291
330
1F
100
AcDbEntity
  8
0
  6
Continuous
 62
     7
370
    25
100
AcDbLine
 10
87.6373222987
 20
219.4145898529
 30
0.0
 11
78.0702364896
 21
196.3176015401
 31
0.0
  0
LINE
  5
292
330
1F
100
AcDbEntity
  8
0
  6
Continuous
 62
     7
370
    25
100
AcDbLine
 10
86.8255281485
 20
221.3744343002
 30
0.0
 11
84.5158293172
 21
222.3311428811
 31
0.0
  0
LINE
  5
293
330
1F
100
AcDbEntity
  8
0
  6
Continuous
 62
     7
370
    25
100
AcDbLine
 10
84.5158293172
 20
222.3311428811
 30
0.0
 11
86.9843617402
 21
228.2907073359
 31
0.0
  0
LINE
  5
294
330
1F
100
AcDbEntity
  8
0
  6
Continuous
 62
     7
370
    25
100
AcDbLine
 10
53.2482210222
 20
231.8160681618
 30
0.0
 11
54.5066679383
 21
238.1427080419
 31
0.0
  0
LINE
  5
295
330
1F
100
AcDbEntity
  8
0
  6
Continuous
 62
     7
370
    25
100
AcDbLine
 10
53.2482210222
 20
231.8160681618
 30
0.0
 11
39.5172270965
 21
234.54733267
 31
0.0
  0
LINE
  5
296
330
1F
100
AcDbEntity
  8
0
  6
Continuous
 62
     7
370
    25
100
AcDbLine
 10
39.5172270965
 20
234.54733267
 30
0.0
 11
40.7756740126
 21
240.8739725501
 31
0.0
  0
LINE
  5
297
330
1F
100
AcDbEntity
  8
0
  6
Continuous
 62
     7
370
    25
100
AcDbLine
 10
7.0
 20
237.75
 30
0.0
 11
7.0
 21
244.200586083
 31
0.0
  0
LINE
  5
298
330
1F
100
AcDbEntity
  8
0
  6
Continuous
 62
     7
370
    25
100
AcDbLine
 10
7.0
 20
237.75
 30
0.0
 11
4.5
 21
237.75
 31
0.0
  0
LINE
  5
299
330
1F
100
AcDbEntity
  8
0
  6
Continuous
 62
     7
370
    25
100
AcDbLine
 10
3.0
 20
236.25
 30
0.0
 11
3.0
 21
211.25
 31
0.0
  0
LINE
  5
29A
330
1F
100
AcDbEntity
  8
0
  6
Continuous
 62
     7
370
    25
100
AcDbLine
 10
7.0
 20
209.75
 30
0.0
 11
4.5
 21
209.75
 31
0.0
  0
LINE
  5
29B
330
1F
100
AcDbEntity
  8
0
  6
Continuous
 62
     7
370
    25
100
AcDbLine
 10
7.0
 20
209.75
 30
0.0
 11
7.0
 21
203.195525517
 31
0.0
  0
LINE
  5
29C
330
1F
100
AcDbEntity
  8
0
  6
Continuous
 62
     7
370
    25
100
AcDbLine
 10
34.0546980801
 20
207.0853448187
 30
0.0
 11
32.7759835425
 21
200.656812725
 31
0.0
  0
LINE
  5
29D
330
1F
100
AcDbEntity
  8
0
  6
Continuous
 62
     7
370
    25
100
AcDbLine
 10
47.7856920057
 20
204.3540803105
 30
0.0
 11
34.0546980801
 21
207.0853448187
 31
0.0
  0
LINE
  5
29E
330
1F
100
AcDbEntity
  8
0
  6
Continuous
 62
     7
370
    25
100
AcDbLine
 10
47.7856920057
 20
204.3540803105
 30
0.0
 11
46.5069774682
 21
197.9255482167
 31
0.0
  0
LINE
  5
29F
330
1F
100
AcDbEntity
  8
0
  6
Continuous
 62
     7
370
    25
100
AcDbLine
 10
73.800693211
 20
196.4625159708
 30
0.0
 11
71.2924044185
 21
190.4069711496
 31
0.0
  0
LINE
  5
2A0
330
1F
100
AcDbEntity
  8
0
  6
Continuous
 62
     7
370
    25
100
AcDbLine
 10
76.1103920423
 20
195.5058073899
 30
0.0
 11
73.800693211
 21
196.4625159708
 31
0.0
  0
LINE
  5
2A1
330
1F
100
AcDbEntity
  8
0
  6
Continuous
 62
     7
370
    25
100
AcDbLine
 10
68.5031506805
 20
173.2206132273
 30
0.0
 11
58.9360648713
 21
150.1236249145
 31
0.0
  0
LINE
  5
2A2
330
1F
100
AcDbEntity
  8
0
  6
Continuous
 62
     7
370
    25
100
AcDbLine
 10
67.6913565302
 20
175.1804576746
 30
0.0
 11
65.381657699
 21
176.1371662555
 31
0.0
  0
LINE
  5
2A3
330
1F
100
AcDbEntity
  8
0
  6
Continuous
 62
     7
370
    25
100
AcDbLine
 10
67.8451017464
 20
182.084446285
 30
0.0
 11
65.381657699
 21
176.1371662555
 31
0.0
  0
LINE
  5
2A4
330
1F
100
AcDbEntity
  8
0
  6
Continuous
 62
     7
370
    25
100
AcDbLine
 10
44.7495578061
 20
189.0904029454
 30
0.0
 11
43.4937049214
 21
182.7768041416
 31
0.0
  0
LINE
  5
2A5
330
1F
100
AcDbEntity
  8
0
  6
Continuous
 62
     7
370
    25
100
AcDbLine
 10
43.4937049214
 20
182.7768041416
 30
0.0
 11
29.7627109957
 21
185.5080686498
 31
0.0
  0
LINE
  5
2A6
330
1F
100
AcDbEntity
  8
0
  6
Continuous
 62
     7
370
    25
100
AcDbLine
 10
31.0185638804
 20
191.8216674536
 30
0.0
 11
29.7627109957
 21
185.5080686498
 31
0.0
  0
LINE
  5
2A7
330
1F
100
AcDbEntity
  8
0
  6
Continuous
 62
     7
370
    25
100
AcDbLine
 10
7.0
 20
194.1872895168
 30
0.0
 11
7.0
 21
187.75
 31
0.0
  0
LINE
  5
2A8
330
1F
100
AcDbEntity
  8
0
  6
Continuous
 62
     7
370
    25
100
AcDbLine
 10
7.0
 20
187.75
 30
0.0
 11
4.5
 21
187.75
 31
0.0
  0
LINE
  5
2A9
330
1F
100
AcDbEntity
  8
0
  6
Continuous
 62
     7
370
    25
100
AcDbLine
 10
3.0
 20
186.25
 30
0.0
 11
3.0
 21
161.25
 31
0.0
  0
LINE
  5
2AA
330
1F
100
AcDbEntity
  8
0
  6
Continuous
 62
     7
370
    25
100
AcDbLine
 10
4.5
 20
159.75
 30
0.0
 11
7.0
 21
159.75
 31
0.0
  0
LINE
  5
2AB
330
1F
100
AcDbEntity
  8
0
  6
Continuous
 62
     7
370
    25
100
AcDbLine
 10
7.0
 20
159.75
 30
0.0
 11
7.0
 21
153.1789608046
 31
0.0
  0
LINE
  5
2AC
330
1F
100
AcDbEntity
  8
0
  6
Continuous
 62
     7
370
    25
100
AcDbLine
 10
54.6665215927
 20
150.2685393452
 30
0.0
 11
52.1518937592
 21
144.1976907252
 31
0.0
  0
LINE
  5
2AD
330
1F
100
AcDbEntity
  8
0
  6
Continuous
 62
     7
370
    25
100
AcDbLine
 10
54.6665215927
 20
150.2685393452
 30
0.0
 11
56.976220424
 21
149.3118307643
 31
0.0
  0
LINE
  5
2AE
330
1F
100
AcDbEntity
  8
0
  6
Continuous
 62
     7
370
    25
100
AcDbLine
 10
103.3648376913
 20
231.2529115185
 30
0.0
 11
105.8691782844
 21
237.2989245433
 31
0.0
  0
LINE
  5
2AF
330
1F
100
AcDbEntity
  8
0
  6
Continuous
 62
     7
370
    25
100
AcDbLine
 10
134.853341722
 20
214.4219554597
 30
0.0
 11
138.4890807407
 21
219.8632234267
 31
0.0
  0
LINE
  5
2B0
330
1F
100
AcDbEntity
  8
0
  6
Continuous
 62
     7
370
    25
100
AcDbLine
 10
150.129655313
 20
212.0852401644
 30
0.0
 11
138.4890807407
 21
219.8632234267
 31
0.0
  0
LINE
  5
2B1
330
1F
100
AcDbEntity
  8
0
  6
Continuous
 62
     7
370
    25
100
AcDbLine
 10
146.4939162942
 20
206.6439721974
 30
0.0
 11
150.129655313
 21
212.0852401644
 31
0.0
  0
LINE
  5
2B2
330
1F
100
AcDbEntity
  8
0
  6
Continuous
 62
     7
370
    25
100
AcDbLine
 10
174.093820912
 20
183.9933158487
 30
0.0
 11
178.7212389449
 21
188.6207338815
 31
0.0
  0
LINE
  5
2B3
330
1F
100
AcDbEntity
  8
0
  6
Continuous
 62
     7
370
    25
100
AcDbLine
 10
180.4890058979
 20
186.8529669285
 30
0.0
 11
178.7212389449
 21
188.6207338815
 31
0.0
  0
LINE
  5
2B4
330
1F
100
AcDbEntity
  8
0
  6
Continuous
 62
     7
370
    25
100
AcDbLine
 10
200.2879957711
 20
204.5306364582
 30
0.0
 11
182.6103262414
 21
186.8529669286
 31
0.0
  0
LINE
  5
2B5
330
1F
100
AcDbEntity
  8
0
  6
Continuous
 62
     7
370
    25
100
AcDbLine
 10
200.2879957711
 20
206.6519568018
 30
0.0
 11
198.5202288181
 21
208.4197237547
 31
0.0
  0
LINE
  5
2B6
330
1F
100
AcDbEntity
  8
0
  6
Continuous
 62
     7
370
    25
100
AcDbLine
 10
198.5202288181
 20
208.4197237547
 30
0.0
 11
203.0875983689
 21
212.9870933055
 31
0.0
  0
LINE
  5
2B7
330
1F
100
AcDbEntity
  8
0
  6
Continuous
 62
     7
370
    25
100
AcDbLine
 10
169.2741810666
 20
240.7370477309
 30
0.0
 11
165.6856218375
 21
235.3663893089
 31
0.0
  0
LINE
  5
2B8
330
1F
100
AcDbEntity
  8
0
  6
Continuous
 62
     7
370
    25
100
AcDbLine
 10
165.6856218375
 20
235.3663893089
 30
0.0
 11
154.0450472653
 21
243.1443725712
 31
0.0
  0
LINE
  5
2B9
330
1F
100
AcDbEntity
  8
0
  6
Continuous
 62
     7
370
    25
100
AcDbLine
 10
154.0450472653
 20
243.1443725712
 30
0.0
 11
157.6336064944
 21
248.5150309932
 31
0.0
  0
LINE
  5
2BA
330
1F
100
AcDbEntity
  8
0
  6
Continuous
 62
     7
370
    25
100
AcDbLine
 10
119.0561569794
 20
269.1351073555
 30
0.0
 11
116.5843143906
 21
263.1675514536
 31
0.0
  0
LINE
  5
2BB
330
1F
100
AcDbEntity
  8
0
  6
Continuous
 62
     7
370
    25
100
AcDbLine
 10
116.5843143906
 20
263.1675514536
 30
0.0
 11
114.2746155594
 21
264.1242600345
 31
0.0
  0
LINE
  5
2BC
330
1F
100
AcDbEntity
  8
0
  6
Continuous
 62
     7
370
    25
100
AcDbLine
 10
112.314771112
 20
263.3124658843
 30
0.0
 11
102.7476853029
 21
240.2154775715
 31
0.0
  0
LINE
  5
2BD
330
1F
100
AcDbEntity
  8
0
  6
Continuous
 62
     7
370
    25
100
AcDbLine
 10
105.8691782844
 20
237.2989245433
 30
0.0
 11
103.5594794531
 21
238.2556331242
 31
0.0
  0
LINE
  5
2BE
330
1F
100
AcDbEntity
  8
0
  6
Continuous
 62
     7
370
    25
100
AcDbLine
 10
86.7350066662
 20
191.1049479177
 30
0.0
 11
84.2267178736
 21
185.0494030965
 31
0.0
  0
LINE
  5
2BF
330
1F
100
AcDbEntity
  8
0
  6
Continuous
 62
     7
370
    25
100
AcDbLine
 10
110.7105690897
 20
178.2897428116
 30
0.0
 11
107.0690981739
 21
172.8398964544
 31
0.0
  0
LINE
  5
2C0
330
1F
100
AcDbEntity
  8
0
  6
Continuous
 62
     7
370
    25
100
AcDbLine
 10
122.351143662
 20
170.5117595493
 30
0.0
 11
110.7105690897
 21
178.2897428116
 31
0.0
  0
LINE
  5
2C1
330
1F
100
AcDbEntity
  8
0
  6
Continuous
 62
     7
370
    25
100
AcDbLine
 10
122.351143662
 20
170.5117595493
 30
0.0
 11
118.7096727461
 21
165.0619131921
 31
0.0
  0
LINE
  5
2C2
330
1F
100
AcDbEntity
  8
0
  6
Continuous
 62
     7
370
    25
100
AcDbLine
 10
143.3658998856
 20
153.2653948222
 30
0.0
 11
138.7311865315
 21
148.6306814681
 31
0.0
  0
LINE
  5
2C3
330
1F
100
AcDbEntity
  8
0
  6
Continuous
 62
     7
370
    25
100
AcDbLine
 10
145.1336668385
 20
151.4976278692
 30
0.0
 11
143.3658998856
 21
153.2653948222
 31
0.0
  0
LINE
  5
2C4
330
1F
100
AcDbEntity
  8
0
  6
Continuous
 62
     7
370
    25
100
AcDbLine
 10
164.9326567118
 20
169.1752973989
 30
0.0
 11
147.2549871821
 21
151.4976278692
 31
0.0
  0
LINE
  5
2C5
330
1F
100
AcDbEntity
  8
0
  6
Continuous
 62
     7
370
    25
100
AcDbLine
 10
164.9326567118
 20
171.2966177424
 30
0.0
 11
163.1648897588
 21
173.0643846954
 31
0.0
  0
LINE
  5
2C6
330
1F
100
AcDbEntity
  8
0
  6
Continuous
 62
     7
370
    25
100
AcDbLine
 10
163.1648897588
 20
173.0643846954
 30
0.0
 11
167.7261429207
 21
177.6256378573
 31
0.0
  0
LINE
  5
2C7
330
1F
100
AcDbEntity
  8
0
  6
Continuous
 62
     7
370
    25
100
AcDbLine
 10
137.9071101865
 20
193.7929086938
 30
0.0
 11
141.4908637998
 21
199.1563750033
 31
0.0
  0
LINE
  5
2C8
330
1F
100
AcDbEntity
  8
0
  6
Continuous
 62
     7
370
    25
100
AcDbLine
 10
137.9071101865
 20
193.7929086938
 30
0.0
 11
126.2665356143
 21
201.5708919561
 31
0.0
  0
LINE
  5
2C9
330
1F
100
AcDbEntity
  8
0
  6
Continuous
 62
     7
370
    25
100
AcDbLine
 10
126.2665356143
 20
201.5708919561
 30
0.0
 11
129.8502892275
 21
206.9343582656
 31
0.0
  0
LINE
  5
2CA
330
1F
100
AcDbEntity
  8
0
  6
Continuous
 62
     7
370
    25
100
AcDbLine
 10
97.4501427724
 20
216.973574828
 30
0.0
 11
99.9186751954
 21
222.9331392828
 31
0.0
  0
LINE
  5
2CB
330
1F
100
AcDbEntity
  8
0
  6
Continuous
 62
     7
370
    25
100
AcDbLine
 10
97.4501427724
 20
216.973574828
 30
0.0
 11
95.1404439411
 21
217.9302834089
 31
0.0
  0
LINE
  5
2CC
330
1F
100
AcDbEntity
  8
0
  6
Continuous
 62
     7
370
    25
100
AcDbLine
 10
93.1805994938
 20
217.1184892587
 30
0.0
 11
83.6135136847
 21
194.0215009459
 31
0.0
  0
LINE
  5
2CD
330
1F
100
AcDbEntity
  8
0
  6
Continuous
 62
     7
370
    25
100
AcDbLine
 10
86.7350066662
 20
191.1049479177
 30
0.0
 11
84.4253078349
 21
192.0616564986
 31
0.0
  0
LINE
  5
2CE
330
1F
100
AcDbEntity
  8
0
  6
Continuous
 62
     7
370
    25
100
AcDbLine
 10
67.6008350479
 20
144.9109712921
 30
0.0
 11
65.0862072144
 21
138.8401226721
 31
0.0
  0
LINE
  5
2CF
330
1F
100
AcDbEntity
  8
0
  6
Continuous
 62
     7
370
    25
100
AcDbLine
 10
108.0105608262
 20
117.9100557629
 30
0.0
 11
103.3641344517
 21
113.2636293883
 31
0.0
  0
LINE
  5
2D0
330
1F
100
AcDbEntity
  8
0
  6
Continuous
 62
     7
370
    25
100
AcDbLine
 10
108.0105608262
 20
117.9100557629
 30
0.0
 11
109.7783277792
 21
116.1422888099
 31
0.0
  0
LINE
  5
2D1
330
1F
100
AcDbEntity
  8
0
  6
Continuous
 62
     7
370
    25
100
AcDbLine
 10
129.5773176524
 20
133.8199583396
 30
0.0
 11
111.8996481228
 21
116.1422888099
 31
0.0
  0
LINE
  5
2D2
330
1F
100
AcDbEntity
  8
0
  6
Continuous
 62
     7
370
    25
100
AcDbLine
 10
129.5773176524
 20
135.9412786831
 30
0.0
 11
127.8095506995
 21
137.7090456361
 31
0.0
  0
LINE
  5
2D3
330
1F
100
AcDbEntity
  8
0
  6
Continuous
 62
     7
370
    25
100
AcDbLine
 10
132.3614017692
 20
142.2608967059
 30
0.0
 11
127.8095506995
 21
137.7090456361
 31
0.0
  0
LINE
  5
2D4
330
1F
100
AcDbEntity
  8
0
  6
Continuous
 62
     7
370
    25
100
AcDbLine
 10
113.7049649724
 20
157.5718386975
 30
0.0
 11
110.1285985355
 21
152.2194280787
 31
0.0
  0
LINE
  5
2D5
330
1F
100
AcDbEntity
  8
0
  6
Continuous
 62
     7
370
    25
100
AcDbLine
 10
110.1285985355
 20
152.2194280787
 30
0.0
 11
98.4880239633
 21
159.9974113409
 31
0.0
  0
LINE
  5
2D6
330
1F
100
AcDbEntity
  8
0
  6
Continuous
 62
     7
370
    25
100
AcDbLine
 10
102.0643904002
 20
165.3498219597
 30
0.0
 11
98.4880239633
 21
159.9974113409
 31
0.0
  0
LINE
  5
2D7
330
1F
100
AcDbEntity
  8
0
  6
Continuous
 62
     7
370
    25
100
AcDbLine
 10
80.7794152015
 20
176.7268782318
 30
0.0
 11
78.3159711541
 21
170.7795982024
 31
0.0
  0
LINE
  5
2D8
330
1F
100
AcDbEntity
  8
0
  6
Continuous
 62
     7
370
    25
100
AcDbLine
 10
78.3159711541
 20
170.7795982024
 30
0.0
 11
76.0062723228
 21
171.7363067834
 31
0.0
  0
LINE
  5
2D9
330
1F
100
AcDbEntity
  8
0
  6
Continuous
 62
     7
370
    25
100
AcDbLine
 10
74.0464278755
 20
170.9245126331
 30
0.0
 11
64.4793420664
 21
147.8275243203
 31
0.0
  0
LINE
  5
2DA
330
1F
100
AcDbEntity
  8
0
  6
Continuous
 62
     7
370
    25
100
AcDbLine
 10
65.2911362166
 20
145.867679873
 30
0.0
 11
67.6008350479
 21
144.9109712921
 31
0.0
  0
LINE
  5
2DB
330
1F
100
AcDbEntity
  8
0
  6
Continuous
 62
     7
370
    25
100
AcDbLine
 10
117.9100557629
 20
108.0105608262
 30
0.0
 11
113.2636293883
 21
103.3641344517
 31
0.0
  0
LINE
  5
2DC
330
1F
100
AcDbEntity
  8
0
  6
Continuous
 62
     7
370
    25
100
AcDbLine
 10
144.9109712921
 20
67.6008350479
 30
0.0
 11
138.8401226721
 21
65.0862072144
 31
0.0
  0
LINE
  5
2DD
330
1F
100
AcDbEntity
  8
0
  6
Continuous
 62
     7
370
    25
100
AcDbLine
 10
144.9109712921
 20
67.6008350479
 30
0.0
 11
145.867679873
 21
65.2911362166
 31
0.0
  0
LINE
  5
2DE
330
1F
100
AcDbEntity
  8
0
  6
Continuous
 62
     7
370
    25
100
AcDbLine
 10
170.9245126331
 20
74.0464278755
 30
0.0
 11
147.8275243204
 21
64.4793420664
 31
0.0
  0
LINE
  5
2DF
330
1F
100
AcDbEntity
  8
0
  6
Continuous
 62
     7
370
    25
100
AcDbLine
 10
171.7363067834
 20
76.0062723229
 30
0.0
 11
170.7795982024
 21
78.3159711541
 31
0.0
  0
LINE
  5
2E0
330
1F
100
AcDbEntity
  8
0
  6
Continuous
 62
     7
370
    25
100
AcDbLine
 10
176.7268782318
 20
80.7794152015
 30
0.0
 11
170.7795982024
 21
78.3159711541
 31
0.0
  0
LINE
  5
2E1
330
1F
100
AcDbEntity
  8
0
  6
Continuous
 62
     7
370
    25
100
AcDbLine
 10
165.3498219597
 20
102.0643904002
 30
0.0
 11
159.9974113409
 21
98.4880239633
 31
0.0
  0
LINE
  5
2E2
330
1F
100
AcDbEntity
  8
0
  6
Continuous
 62
     7
370
    25
100
AcDbLine
 10
159.9974113409
 20
98.4880239633
 30
0.0
 11
152.2194280787
 21
110.1285985355
 31
0.0
  0
LINE
  5
2E3
330
1F
100
AcDbEntity
  8
0
  6
Continuous
 62
     7
370
    25
100
AcDbLine
 10
157.5718386975
 20
113.7049649724
 30
0.0
 11
152.2194280787
 21
110.1285985355
 31
0.0
  0
LINE
  5
2E4
330
1F
100
AcDbEntity
  8
0
  6
Continuous
 62
     7
370
    25
100
AcDbLine
 10
142.2608967059
 20
132.3614017692
 30
0.0
 11
137.7090456361
 21
127.8095506995
 31
0.0
  0
LINE
  5
2E5
330
1F
100
AcDbEntity
  8
0
  6
Continuous
 62
     7
370
    25
100
AcDbLine
 10
137.7090456361
 20
127.8095506995
 30
0.0
 11
135.9412786831
 21
129.5773176524
 31
0.0
  0
LINE
  5
2E6
330
1F
100
AcDbEntity
  8
0
  6
Continuous
 62
     7
370
    25
100
AcDbLine
 10
133.8199583396
 20
129.5773176524
 30
0.0
 11
116.1422888099
 21
111.8996481228
 31
0.0
  0
LINE
  5
2E7
330
1F
100
AcDbEntity
  8
0
  6
Continuous
 62
     7
370
    25
100
AcDbLine
 10
116.1422888099
 20
109.7783277792
 30
0.0
 11
117.9100557629
 21
108.0105608262
 31
0.0
  0
LINE
  5
2E8
330
1F
100
AcDbEntity
  8
0
  6
Continuous
 62
     7
370
    25
100
AcDbLine
 10
153.2653948222
 20
143.3658998856
 30
0.0
 11
148.6306814681
 21
138.7311865315
 31
0.0
  0
LINE
  5
2E9
330
1F
100
AcDbEntity
  8
0
  6
Continuous
 62
     7
370
    25
100
AcDbLine
 10
170.5117595493
 20
122.351143662
 30
0.0
 11
165.0619131921
 21
118.7096727461
 31
0.0
  0
LINE
  5
2EA
330
1F
100
AcDbEntity
  8
0
  6
Continuous
 62
     7
370
    25
100
AcDbLine
 10
178.2897428116
 20
110.7105690897
 30
0.0
 11
170.5117595493
 21
122.351143662
 31
0.0
  0
LINE
  5
2EB
330
1F
100
AcDbEntity
  8
0
  6
Continuous
 62
     7
370
    25
100
AcDbLine
 10
178.2897428116
 20
110.7105690897
 30
0.0
 11
172.8398964544
 21
107.0690981739
 31
0.0
  0
LINE
  5
2EC
330
1F
100
AcDbEntity
  8
0
  6
Continuous
 62
     7
370
    25
100
AcDbLine
 10
191.1049479177
 20
86.7350066662
 30
0.0
 11
185.0494030965
 21
84.2267178736
 31
0.0
  0
LINE
  5
2ED
330
1F
100
AcDbEntity
  8
0
  6
Continuous
 62
     7
370
    25
100
AcDbLine
 10
192.0616564986
 20
84.4253078349
 30
0.0
 11
191.1049479177
 21
86.7350066662
 31
0.0
  0
LINE
  5
2EE
330
1F
100
AcDbEntity
  8
0
  6
Continuous
 62
     7
370
    25
100
AcDbLine
 10
217.1184892587
 20
93.1805994938
 30
0.0
 11
194.0215009459
 21
83.6135136847
 31
0.0
  0
LINE
  5
2EF
330
1F
100
AcDbEntity
  8
0
  6
Continuous
 62
     7
370
    25
100
AcDbLine
 10
217.9302834089
 20
95.1404439411
 30
0.0
 11
216.973574828
 21
97.4501427724
 31
0.0
  0
LINE
  5
2F0
330
1F
100
AcDbEntity
  8
0
  6
Continuous
 62
     7
370
    25
100
AcDbLine
 10
216.973574828
 20
97.4501427724
 30
0.0
 11
222.9331392828
 21
99.9186751954
 31
0.0
  0
LINE
  5
2F1
330
1F
100
AcDbEntity
  8
0
  6
Continuous
 62
     7
370
    25
100
AcDbLine
 10
201.5708919561
 20
126.2665356143
 30
0.0
 11
206.9343582656
 21
129.8502892275
 31
0.0
  0
LINE
  5
2F2
330
1F
100
AcDbEntity
  8
0
  6
Continuous
 62
     7
370
    25
100
AcDbLine
 10
201.5708919561
 20
126.2665356143
 30
0.0
 11
193.7929086938
 21
137.9071101865
 31
0.0
  0
LINE
  5
2F3
330
1F
100
AcDbEntity
  8
0
  6
Continuous
 62
     7
370
    25
100
AcDbLine
 10
193.7929086938
 20
137.9071101865
 30
0.0
 11
199.1563750033
 21
141.4908637998
 31
0.0
  0
LINE
  5
2F4
330
1F
100
AcDbEntity
  8
0
  6
Continuous
 62
     7
370
    25
100
AcDbLine
 10
173.0643846954
 20
163.1648897588
 30
0.0
 11
177.6256378573
 21
167.7261429207
 31
0.0
  0
LINE
  5
2F5
330
1F
100
AcDbEntity
  8
0
  6
Continuous
 62
     7
370
    25
100
AcDbLine
 10
173.0643846954
 20
163.1648897588
 30
0.0
 11
171.2966177424
 21
164.9326567118
 31
0.0
  0
LINE
  5
2F6
330
1F
100
AcDbEntity
  8
0
  6
Continuous
 62
     7
370
    25
100
AcDbLine
 10
169.1752973989
 20
164.9326567118
 30
0.0
 11
151.4976278692
 21
147.2549871821
 31
0.0
  0
LINE
  5
2F7
330
1F
100
AcDbEntity
  8
0
  6
Continuous
 62
     7
370
    25
100
AcDbLine
 10
153.2653948222
 20
143.3658998856
 30
0.0
 11
151.4976278692
 21
145.1336668385
 31
0.0
  0
LINE
  5
2F8
330
1F
100
AcDbEntity
  8
0
  6
Continuous
 62
     7
370
    25
100
AcDbLine
 10
183.9933158487
 20
174.093820912
 30
0.0
 11
188.6207338815
 21
178.7212389449
 31
0.0
  0
LINE
  5
2F9
330
1F
100
AcDbEntity
  8
0
  6
Continuous
 62
     7
370
    25
100
AcDbLine
 10
206.6439721974
 20
146.4939162942
 30
0.0
 11
212.0852401644
 21
150.129655313
 31
0.0
  0
LINE
  5
2FA
330
1F
100
AcDbEntity
  8
0
  6
Continuous
 62
     7
370
    25
100
AcDbLine
 10
219.8632234267
 20
138.4890807407
 30
0.0
 11
212.0852401644
 21
150.129655313
 31
0.0
  0
LINE
  5
2FB
330
1F
100
AcDbEntity
  8
0
  6
Continuous
 62
     7
370
    25
100
AcDbLine
 10
214.4219554597
 20
134.853341722
 30
0.0
 11
219.8632234267
 21
138.4890807407
 31
0.0
  0
LINE
  5
2FC
330
1F
100
AcDbEntity
  8
0
  6
Continuous
 62
     7
370
    25
100
AcDbLine
 10
231.2529115185
 20
103.3648376913
 30
0.0
 11
237.2989245433
 21
105.8691782844
 31
0.0
  0
LINE
  5
2FD
330
1F
100
AcDbEntity
  8
0
  6
Continuous
 62
     7
370
    25
100
AcDbLine
 10
238.2556331242
 20
103.5594794531
 30
0.0
 11
237.2989245433
 21
105.8691782844
 31
0.0
  0
LINE
  5
2FE
330
1F
100
AcDbEntity
  8
0
  6
Continuous
 62
     7
370
    25
100
AcDbLine
 10
263.3124658843
 20
112.314771112
 30
0.0
 11
240.2154775715
 21
102.7476853029
 31
0.0
  0
LINE
  5
2FF
330
1F
100
AcDbEntity
  8
0
  6
Continuous
 62
     7
370
    25
100
AcDbLine
 10
264.1242600345
 20
114.2746155594
 30
0.0
 11
263.1675514536
 21
116.5843143906
 31
0.0
  0
LINE
  5
300
330
1F
100
AcDbEntity
  8
0
  6
Continuous
 62
     7
370
    25
100
AcDbLine
 10
263.1675514536
 20
116.5843143906
 30
0.0
 11
269.1351073555
 21
119.0561569794
 31
0.0
  0
LINE
  5
301
330
1F
100
AcDbEntity
  8
0
  6
Continuous
 62
     7
370
    25
100
AcDbLine
 10
248.5150309932
 20
157.6336064944
 30
0.0
 11
243.1443725712
 21
154.0450472653
 31
0.0
  0
LINE
  5
302
330
1F
100
AcDbEntity
  8
0
  6
Continuous
 62
     7
370
    25
100
AcDbLine
 10
243.1443725712
 20
154.0450472653
 30
0.0
 11
235.3663893089
 21
165.6856218375
 31
0.0
  0
LINE
  5
303
330
1F
100
AcDbEntity
  8
0
  6
Continuous
 62
     7
370
    25
100
AcDbLine
 10
235.3663893089
 20
165.6856218375
 30
0.0
 11
240.7370477309
 21
169.2741810666
 31
0.0
  0
LINE
  5
304
330
1F
100
AcDbEntity
  8
0
  6
Continuous
 62
     7
370
    25
100
AcDbLine
 10
212.9870933055
 20
203.0875983689
 30
0.0
 11
208.4197237547
 21
198.5202288181
 31
0.0
  0
LINE
  5
305
330
1F
100
AcDbEntity
  8
0
  6
Continuous
 62
     7
370
    25
100
AcDbLine
 10
208.4197237547
 20
198.5202288181
 30
0.0
 11
206.6519568018
 21
200.2879957711
 31
0.0
  0
LINE
  5
306
330
1F
100
AcDbEntity
  8
0
  6
Continuous
 62
     7
370
    25
100
AcDbLine
 10
204.5306364582
 20
200.2879957711
 30
0.0
 11
186.8529669285
 21
182.6103262414
 31
0.0
  0
LINE
  5
307
330
1F
100
AcDbEntity
  8
0
  6
Continuous
 62
     7
370
    25
100
AcDbLine
 10
188.6207338815
 20
178.7212389449
 30
0.0
 11
186.8529669285
 21
180.4890058979
 31
0.0
  0
LINE
  5
308
330
1F
100
AcDbEntity
  8
0
  6
Continuous
 62
     7
370
    25
100
AcDbLine
 10
98.4646192802
 20
94.2219785931
 30
0.0
 11
70.2828930954
 21
66.0402524082
 31
0.0
  0
LINE
  5
309
330
1F
100
AcDbEntity
  8
0
  6
Continuous
 62
     7
370
    25
100
AcDbLine
 10
124.7305360076
 20
54.9122562573
 30
0.0
 11
87.9093362881
 21
39.6604159506
 31
0.0
  0
LINE
  5
30A
330
1F
100
AcDbEntity
  8
0
  6
Continuous
 62
     7
370
    25
100
AcDbLine
 10
124.5856215769
 20
59.1817995359
 30
0.0
 11
125.5423301578
 21
56.8721007046
 31
0.0
  0
LINE
  5
30B
330
1F
100
AcDbEntity
  8
0
  6
Continuous
 62
     7
370
    25
100
AcDbLine
 10
130.5116158323
 20
61.636426727
 30
0.0
 11
124.5856215769
 21
59.1817995359
 31
0.0
  0
LINE
  5
30C
330
1F
100
AcDbEntity
  8
0
  6
Continuous
 62
     7
370
    25
100
AcDbLine
 10
106.8892662204
 20
96.9897712838
 30
0.0
 11
102.3537065768
 21
92.4542116401
 31
0.0
  0
LINE
  5
30D
330
1F
100
AcDbEntity
  8
0
  6
Continuous
 62
     7
370
    25
100
AcDbLine
 10
54.9122562573
 20
124.7305360076
 30
0.0
 11
39.6604159506
 21
87.9093362881
 31
0.0
  0
LINE
  5
30E
330
1F
100
AcDbEntity
  8
0
  6
Continuous
 62
     7
370
    25
100
AcDbLine
 10
94.2219785931
 20
98.4646192802
 30
0.0
 11
66.0402524082
 21
70.2828930954
 31
0.0
  0
LINE
  5
30F
330
1F
100
AcDbEntity
  8
0
  6
Continuous
 62
     7
370
    25
100
AcDbLine
 10
92.4542116401
 20
102.3537065768
 30
0.0
 11
94.2219785931
 21
100.5859396238
 31
0.0
  0
LINE
  5
310
330
1F
100
AcDbEntity
  8
0
  6
Continuous
 62
     7
370
    25
100
AcDbLine
 10
96.9897712838
 20
106.8892662204
 30
0.0
 11
92.4542116401
 21
102.3537065768
 31
0.0
  0
LINE
  5
311
330
1F
100
AcDbEntity
  8
0
  6
Continuous
 62
     7
370
    25
100
AcDbLine
 10
61.636426727
 20
130.5116158323
 30
0.0
 11
59.1817995359
 21
124.5856215769
 31
0.0
  0
LINE
  5
312
330
1F
100
AcDbEntity
  8
0
  6
Continuous
 62
     7
370
    25
100
AcDbLine
 10
3.0
 20
136.25
 30
0.0
 11
3.0
 21
96.3950206183
 31
0.0
  0
LINE
  5
313
330
1F
100
AcDbEntity
  8
0
  6
Continuous
 62
     7
370
    25
100
AcDbLine
 10
49.3689790622
 20
127.0266366018
 30
0.0
 11
34.1171387556
 21
90.2054368823
 31
0.0
  0
LINE
  5
314
330
1F
100
AcDbEntity
  8
0
  6
Continuous
 62
     7
370
    25
100
AcDbLine
 10
46.2474860807
 20
129.94318963
 30
0.0
 11
48.557184912
 21
128.9864810491
 31
0.0
  0
LINE
  5
315
330
1F
100
AcDbEntity
  8
0
  6
Continuous
 62
     7
370
    25
100
AcDbLine
 10
48.7021132719
 20
135.8691838854
 30
0.0
 11
46.2474860807
 21
129.94318963
 31
0.0
  0
LINE
  5
316
330
1F
100
AcDbEntity
  8
0
  6
Continuous
 62
     7
370
    25
100
AcDbLine
 10
7.0
 20
144.164249961
 30
0.0
 11
7.0
 21
137.75
 31
0.0
  0
LINE
  5
317
330
1F
100
AcDbEntity
  8
0
  6
Continuous
 62
     7
370
    25
100
AcDbLine
 10
-9.3116283313
 20
94.5425490339
 30
0.0
 11
-5.8810284198
 21
59.7110836003
 31
0.0
  0
LINE
  5
318
330
1F
100
AcDbEntity
  8
0
  6
Continuous
 62
     7
370
    25
100
AcDbLine
 10
-3.0
 20
136.25
 30
0.0
 11
-3.0
 21
96.3950206183
 31
0.0
  0
LINE
  5
319
330
1F
100
AcDbEntity
  8
0
  6
Continuous
 62
     7
370
    25
100
AcDbLine
 10
-7.0
 20
137.75
 30
0.0
 11
-4.5
 21
137.75
 31
0.0
  0
LINE
  5
31A
330
1F
100
AcDbEntity
  8
0
  6
Continuous
 62
     7
370
    25
100
AcDbLine
 10
-7.0
 20
144.164249961
 30
0.0
 11
-7.0
 21
137.75
 31
0.0
  0
LINE
  5
31B
330
1F
100
AcDbEntity
  8
0
  6
Continuous
 62
     7
370
    25
100
AcDbLine
 10
-14.3021332746
 20
145.2119960438
 30
0.0
 11
-14.8902361166
 21
151.1831044038
 31
0.0
  0
LINE
  5
31C
330
1F
100
AcDbEntity
  8
0
  6
Continuous
 62
     7
370
    25
100
AcDbLine
 10
-7.0
 20
159.75
 30
0.0
 11
-7.0
 21
153.1789608046
 31
0.0
  0
LINE
  5
31D
330
1F
100
AcDbEntity
  8
0
  6
Continuous
 62
     7
370
    25
100
AcDbLine
 10
-7.0
 20
159.75
 30
0.0
 11
-4.5
 21
159.75
 31
0.0
  0
LINE
  5
31E
330
1F
100
AcDbEntity
  8
0
  6
Continuous
 62
     7
370
    25
100
AcDbLine
 10
-3.0
 20
186.25
 30
0.0
 11
-3.0
 21
161.25
 31
0.0
  0
LINE
  5
31F
330
1F
100
AcDbEntity
  8
0
  6
Continuous
 62
     7
370
    25
100
AcDbLine
 10
-4.5
 20
187.75
 30
0.0
 11
-7.0
 21
187.75
 31
0.0
  0
LINE
  5
320
330
1F
100
AcDbEntity
  8
0
  6
Continuous
 62
     7
370
    25
100
AcDbLine
 10
-7.0
 20
194.1872895168
 30
0.0
 11
-7.0
 21
187.75
 31
0.0
  0
LINE
  5
321
330
1F
100
AcDbEntity
  8
0
  6
Continuous
 62
     7
370
    25
100
AcDbLine
 10
-19.1989340909
 20
194.9300490852
 30
0.0
 11
-19.7870369329
 21
200.9011574452
 31
0.0
  0
LINE
  5
322
330
1F
100
AcDbEntity
  8
0
  6
Continuous
 62
     7
370
    25
100
AcDbLine
 10
-7.0
 20
209.75
 30
0.0
 11
-7.0
 21
203.195525517
 31
0.0
  0
LINE
  5
323
330
1F
100
AcDbEntity
  8
0
  6
Continuous
 62
     7
370
    25
100
AcDbLine
 10
-4.5
 20
209.75
 30
0.0
 11
-7.0
 21
209.75
 31
0.0
  0
LINE
  5
324
330
1F
100
AcDbEntity
  8
0
  6
Continuous
 62
     7
370
    25
100
AcDbLine
 10
-3.0
 20
236.25
 30
0.0
 11
-3.0
 21
211.25
 31
0.0
  0
LINE
  5
325
330
1F
100
AcDbEntity
  8
0
  6
Continuous
 62
     7
370
    25
100
AcDbLine
 10
-4.5
 20
237.75
 30
0.0
 11
-7.0
 21
237.75
 31
0.0
  0
LINE
  5
326
330
1F
100
AcDbEntity
  8
0
  6
Continuous
 62
     7
370
    25
100
AcDbLine
 10
-7.0
 20
237.75
 30
0.0
 11
-7.0
 21
244.200586083
 31
0.0
  0
LINE
  5
327
330
1F
100
AcDbEntity
  8
0
  6
Continuous
 62
     7
370
    25
100
AcDbLine
 10
-24.097364275
 20
244.6646453764
 30
0.0
 11
-24.685467117
 21
250.6357537365
 31
0.0
  0
LINE
  5
328
330
1F
100
AcDbEntity
  8
0
  6
Continuous
 62
     7
370
    25
100
AcDbLine
 10
-7.0
 20
253.2058426592
 30
0.0
 11
-7.0
 21
259.75
 31
0.0
  0
LINE
  5
329
330
1F
100
AcDbEntity
  8
0
  6
Continuous
 62
     7
370
    25
100
AcDbLine
 10
-4.5
 20
259.75
 30
0.0
 11
-7.0
 21
259.75
 31
0.0
  0
LINE
  5
32A
330
1F
100
AcDbEntity
  8
0
  6
Continuous
 62
     7
370
    25
100
AcDbLine
 10
-3.0
 20
286.25
 30
0.0
 11
-3.0
 21
261.25
 31
0.0
  0
LINE
  5
32B
330
1F
100
AcDbEntity
  8
0
  6
Continuous
 62
     7
370
    25
100
AcDbLine
 10
-4.5
 20
287.75
 30
0.0
 11
-7.0
 21
287.75
 31
0.0
  0
LINE
  5
32C
330
1F
100
AcDbEntity
  8
0
  6
Continuous
 62
     7
370
    25
100
AcDbLine
 10
-7.0
 20
287.75
 30
0.0
 11
-7.0
 21
294.209235963
 31
0.0
  0
LINE
  5
32D
330
1F
100
AcDbEntity
  8
0
  6
Continuous
 62
     7
370
    25
100
AcDbLine
 10
-28.9966063752
 20
294.4074851902
 30
0.0
 11
-29.5847092172
 21
300.3785935502
 31
0.0
  0
LINE
  5
32E
330
1F
100
AcDbEntity
  8
0
  6
Continuous
 62
     7
370
    25
100
AcDbLine
 10
-7.0
 20
303.2128797958
 30
0.0
 11
-7.0
 21
309.75
 31
0.0
  0
LINE
  5
32F
330
1F
100
AcDbEntity
  8
0
  6
Continuous
 62
     7
370
    25
100
AcDbLine
 10
-7.0
 20
309.75
 30
0.0
 11
7.0
 21
309.75
 31
0.0
  0
LINE
  5
330
330
1F
100
AcDbEntity
  8
0
  6
Continuous
 62
     7
370
    25
100
AcDbLine
 10
7.0
 20
309.75
 30
0.0
 11
7.0
 21
303.2128797958
 31
0.0
  0
LINE
  5
331
330
1F
100
AcDbEntity
  8
0
  6
Continuous
 62
     7
370
    25
100
AcDbLine
 10
52.288401396
 20
298.7523615865
 30
0.0
 11
53.5637302817
 21
305.163872859
 31
0.0
  0
LINE
  5
332
330
1F
100
AcDbEntity
  8
0
  6
Continuous
 62
     7
370
    25
100
AcDbLine
 10
53.5637302817
 20
305.163872859
 30
0.0
 11
67.2947242073
 21
302.4326083508
 31
0.0
  0
LINE
  5
333
330
1F
100
AcDbEntity
  8
0
  6
Continuous
 62
     7
370
    25
100
AcDbLine
 10
67.2947242073
 20
302.4326083508
 30
0.0
 11
66.0193953216
 21
296.0210970782
 31
0.0
  0
LINE
  5
334
330
1F
100
AcDbEntity
  8
0
  6
Continuous
 62
     7
370
    25
100
AcDbLine
 10
109.56738885
 20
282.8109576637
 30
0.0
 11
112.0690364475
 21
288.8504692219
 31
0.0
  0
LINE
  5
335
330
1F
100
AcDbEntity
  8
0
  6
Continuous
 62
     7
370
    25
100
AcDbLine
 10
112.0690364475
 20
288.8504692219
 30
0.0
 11
125.0033499027
 21
283.4929011688
 31
0.0
  0
LINE
  5
336
330
1F
100
AcDbEntity
  8
0
  6
Continuous
 62
     7
370
    25
100
AcDbLine
 10
125.0033499027
 20
283.4929011688
 30
0.0
 11
122.5017023051
 21
277.4533896106
 31
0.0
  0
LINE
  5
337
330
1F
100
AcDbEntity
  8
0
  6
Continuous
 62
     7
370
    25
100
AcDbLine
 10
162.6357629966
 20
256.0012872401
 30
0.0
 11
166.2675923917
 21
261.4367040419
 31
0.0
  0
LINE
  5
338
330
1F
100
AcDbEntity
  8
0
  6
Continuous
 62
     7
370
    25
100
AcDbLine
 10
166.2675923917
 20
261.4367040419
 30
0.0
 11
177.9081669639
 21
253.6587207796
 31
0.0
  0
LINE
  5
339
330
1F
100
AcDbEntity
  8
0
  6
Continuous
 62
     7
370
    25
100
AcDbLine
 10
177.9081669639
 20
253.6587207796
 30
0.0
 11
174.2763375688
 21
248.2233039778
 31
0.0
  0
LINE
  5
33A
330
1F
100
AcDbEntity
  8
0
  6
Continuous
 62
     7
370
    25
100
AcDbLine
 10
209.4541359784
 20
219.353630915
 30
0.0
 11
214.0765780042
 21
223.9760729408
 31
0.0
  0
LINE
  5
33B
330
1F
100
AcDbEntity
  8
0
  6
Continuous
 62
     7
370
    25
100
AcDbLine
 10
214.0765780042
 20
223.9760729408
 30
0.0
 11
223.9760729408
 21
214.0765780042
 31
0.0
  0
LINE
  5
33C
330
1F
100
AcDbEntity
  8
0
  6
Continuous
 62
     7
370
    25
100
AcDbLine
 10
223.9760729408
 20
214.0765780042
 30
0.0
 11
219.353630915
 21
209.4541359784
 31
0.0
  0
LINE
  5
33D
330
1F
100
AcDbEntity
  8
0
  6
Continuous
 62
     7
370
    25
100
AcDbLine
 10
248.2233039778
 20
174.2763375688
 30
0.0
 11
253.6587207796
 21
177.9081669639
 31
0.0
  0
LINE
  5
33E
330
1F
100
AcDbEntity
  8
0
  6
Continuous
 62
     7
370
    25
100
AcDbLine
 10
253.6587207796
 20
177.9081669639
 30
0.0
 11
261.4367040419
 21
166.2675923917
 31
0.0
  0
LINE
  5
33F
330
1F
100
AcDbEntity
  8
0
  6
Continuous
 62
     7
370
    25
100
AcDbLine
 10
261.4367040419
 20
166.2675923917
 30
0.0
 11
256.0012872401
 21
162.6357629966
 31
0.0
  0
LINE
  5
340
330
1F
100
AcDbEntity
  8
0
  6
Continuous
 62
     7
370
    25
100
AcDbLine
 10
277.4533896106
 20
122.5017023051
 30
0.0
 11
283.4929011688
 21
125.0033499027
 31
0.0
  0
LINE
  5
341
330
1F
100
AcDbEntity
  8
0
  6
Continuous
 62
     7
370
    25
100
AcDbLine
 10
283.4929011688
 20
125.0033499027
 30
0.0
 11
288.8504692219
 21
112.0690364475
 31
0.0
  0
LINE
  5
342
330
1F
100
AcDbEntity
  8
0
  6
Continuous
 62
     7
370
    25
100
AcDbLine
 10
288.8504692219
 20
112.0690364475
 30
0.0
 11
282.8109576637
 21
109.56738885
 31
0.0
  0
LINE
  5
343
330
1F
100
AcDbEntity
  8
0
  6
Continuous
 62
     7
370
    25
100
AcDbLine
 10
296.0210970782
 20
66.0193953216
 30
0.0
 11
302.4326083508
 21
67.2947242073
 31
0.0
  0
LINE
  5
344
330
1F
100
AcDbEntity
  8
0
  6
Continuous
 62
     7
370
    25
100
AcDbLine
 10
302.4326083508
 20
67.2947242073
 30
0.0
 11
305.163872859
 21
53.5637302817
 31
0.0
  0
LINE
  5
345
330
1F
100
AcDbEntity
  8
0
  6
Continuous
 62
     7
370
    25
100
AcDbLine
 10
305.163872859
 20
53.5637302817
 30
0.0
 11
298.7523615865
 21
52.288401396
 31
0.0
  0
LINE
  5
346
330
1F
100
AcDbEntity
  8
0
  6
Continuous
 62
     7
370
    25
100
AcDbLine
 10
294.4074851902
 20
28.9966063752
 30
0.0
 11
300.3785935502
 21
29.5847092172
 31
0.0
  0
LINE
  5
347
330
1F
100
AcDbEntity
  8
0
  6
Continuous
 62
     7
370
    25
100
AcDbLine
 10
289.9217202454
 20
50.5318776213
 30
0.0
 11
283.5865966901
 21
49.2717431973
 31
0.0
  0
LINE
  5
348
330
1F
100
AcDbEntity
  8
0
  6
Continuous
 62
     7
370
    25
100
AcDbLine
 10
283.5865966901
 20
49.2717431973
 30
0.0
 11
280.8553321819
 21
63.002737123
 31
0.0
  0
LINE
  5
349
330
1F
100
AcDbEntity
  8
0
  6
Continuous
 62
     7
370
    25
100
AcDbLine
 10
280.8553321819
 20
63.002737123
 30
0.0
 11
287.1904557371
 21
64.262871547
 31
0.0
  0
LINE
  5
34A
330
1F
100
AcDbEntity
  8
0
  6
Continuous
 62
     7
370
    25
100
AcDbLine
 10
274.4926754086
 20
106.1218435243
 30
0.0
 11
268.5251195067
 21
103.6500009355
 31
0.0
  0
LINE
  5
34B
330
1F
100
AcDbEntity
  8
0
  6
Continuous
 62
     7
370
    25
100
AcDbLine
 10
268.5251195067
 20
103.6500009355
 30
0.0
 11
267.5684109258
 21
105.9596997668
 31
0.0
  0
LINE
  5
34C
330
1F
100
AcDbEntity
  8
0
  6
Continuous
 62
     7
370
    25
100
AcDbLine
 10
265.6085664785
 20
106.771493917
 30
0.0
 11
242.5115781657
 21
97.2044081079
 31
0.0
  0
LINE
  5
34D
330
1F
100
AcDbEntity
  8
0
  6
Continuous
 62
     7
370
    25
100
AcDbLine
 10
242.6564925964
 20
92.9348648293
 30
0.0
 11
241.6997840154
 21
95.2445636605
 31
0.0
  0
LINE
  5
34E
330
1F
100
AcDbEntity
  8
0
  6
Continuous
 62
     7
370
    25
100
AcDbLine
 10
236.6104795716
 20
90.4305242361
 30
0.0
 11
242.6564925964
 21
92.9348648293
 31
0.0
  0
LINE
  5
34F
330
1F
100
AcDbEntity
  8
0
  6
Continuous
 62
     7
370
    25
100
AcDbLine
 10
246.9749311381
 20
56.2635063436
 30
0.0
 11
253.3933443306
 21
57.5402081065
 31
0.0
  0
LINE
  5
350
330
1F
100
AcDbEntity
  8
0
  6
Continuous
 62
     7
370
    25
100
AcDbLine
 10
256.1246088389
 20
43.8092141809
 30
0.0
 11
253.3933443306
 21
57.5402081065
 31
0.0
  0
LINE
  5
351
330
1F
100
AcDbEntity
  8
0
  6
Continuous
 62
     7
370
    25
100
AcDbLine
 10
249.7061956463
 20
42.5325124179
 30
0.0
 11
256.1246088389
 21
43.8092141809
 31
0.0
  0
LINE
  5
352
330
1F
100
AcDbEntity
  8
0
  6
Continuous
 62
     7
370
    25
100
AcDbLine
 10
244.6646453764
 20
24.097364275
 30
0.0
 11
250.6357537365
 21
24.685467117
 31
0.0
  0
LINE
  5
353
330
1F
100
AcDbEntity
  8
0
  6
Continuous
 62
     7
370
    25
100
AcDbLine
 10
234.54733267
 20
39.5172270965
 30
0.0
 11
240.8739725501
 21
40.7756740126
 31
0.0
  0
LINE
  5
354
330
1F
100
AcDbEntity
  8
0
  6
Continuous
 62
     7
370
    25
100
AcDbLine
 10
234.54733267
 20
39.5172270965
 30
0.0
 11
231.8160681618
 21
53.2482210222
 31
0.0
  0
LINE
  5
355
330
1F
100
AcDbEntity
  8
0
  6
Continuous
 62
     7
370
    25
100
AcDbLine
 10
231.8160681618
 20
53.2482210222
 30
0.0
 11
238.1427080419
 21
54.5066679383
 31
0.0
  0
LINE
  5
356
330
1F
100
AcDbEntity
  8
0
  6
Continuous
 62
     7
370
    25
100
AcDbLine
 10
222.3311428811
 20
84.5158293172
 30
0.0
 11
228.2907073359
 21
86.9843617402
 31
0.0
  0
LINE
  5
357
330
1F
100
AcDbEntity
  8
0
  6
Continuous
 62
     7
370
    25
100
AcDbLine
 10
222.3311428811
 20
84.5158293172
 30
0.0
 11
221.3744343002
 21
86.8255281485
 31
0.0
  0
LINE
  5
358
330
1F
100
AcDbEntity
  8
0
  6
Continuous
 62
     7
370
    25
100
AcDbLine
 10
219.4145898529
 20
87.6373222987
 30
0.0
 11
196.3176015401
 21
78.0702364896
 31
0.0
  0
LINE
  5
359
330
1F
100
AcDbEntity
  8
0
  6
Continuous
 62
     7
370
    25
100
AcDbLine
 10
196.4625159708
 20
73.800693211
 30
0.0
 11
195.5058073899
 21
76.1103920423
 31
0.0
  0
LINE
  5
35A
330
1F
100
AcDbEntity
  8
0
  6
Continuous
 62
     7
370
    25
100
AcDbLine
 10
196.4625159708
 20
73.800693211
 30
0.0
 11
190.4069711496
 21
71.2924044185
 31
0.0
  0
LINE
  5
35B
330
1F
100
AcDbEntity
  8
0
  6
Continuous
 62
     7
370
    25
100
AcDbLine
 10
204.3540803105
 20
47.7856920057
 30
0.0
 11
197.9255482167
 21
46.5069774682
 31
0.0
  0
LINE
  5
35C
330
1F
100
AcDbEntity
  8
0
  6
Continuous
 62
     7
370
    25
100
AcDbLine
 10
207.0853448187
 20
34.0546980801
 30
0.0
 11
204.3540803105
 21
47.7856920057
 31
0.0
  0
LINE
  5
35D
330
1F
100
AcDbEntity
  8
0
  6
Continuous
 62
     7
370
    25
100
AcDbLine
 10
207.0853448187
 20
34.0546980801
 30
0.0
 11
200.656812725
 21
32.7759835425
 31
0.0
  0
LINE
  5
35E
330
1F
100
AcDbEntity
  8
0
  6
Continuous
 62
     7
370
    25
100
AcDbLine
 10
194.9300490852
 20
19.1989340909
 30
0.0
 11
200.9011574452
 21
19.7870369329
 31
0.0
  0
LINE
  5
35F
330
1F
100
AcDbEntity
  8
0
  6
Continuous
 62
     7
370
    25
100
AcDbLine
 10
191.8216674536
 20
31.0185638804
 30
0.0
 11
185.5080686498
 21
29.7627109957
 31
0.0
  0
LINE
  5
360
330
1F
100
AcDbEntity
  8
0
  6
Continuous
 62
     7
370
    25
100
AcDbLine
 10
185.5080686498
 20
29.7627109957
 30
0.0
 11
182.7768041416
 21
43.4937049214
 31
0.0
  0
LINE
  5
361
330
1F
100
AcDbEntity
  8
0
  6
Continuous
 62
     7
370
    25
100
AcDbLine
 10
189.0904029454
 20
44.7495578061
 30
0.0
 11
182.7768041416
 21
43.4937049214
 31
0.0
  0
LINE
  5
362
330
1F
100
AcDbEntity
  8
0
  6
Continuous
 62
     7
370
    25
100
AcDbLine
 10
182.084446285
 20
67.8451017464
 30
0.0
 11
176.1371662555
 21
65.381657699
 31
0.0
  0
LINE
  5
363
330
1F
100
AcDbEntity
  8
0
  6
Continuous
 62
     7
370
    25
100
AcDbLine
 10
176.1371662555
 20
65.381657699
 30
0.0
 11
175.1804576746
 21
67.6913565303
 31
0.0
  0
LINE
  5
364
330
1F
100
AcDbEntity
  8
0
  6
Continuous
 62
     7
370
    25
100
AcDbLine
 10
173.2206132273
 20
68.5031506805
 30
0.0
 11
150.1236249145
 21
58.9360648713
 31
0.0
  0
LINE
  5
365
330
1F
100
AcDbEntity
  8
0
  6
Continuous
 62
     7
370
    25
100
AcDbLine
 10
149.3118307643
 20
56.976220424
 30
0.0
 11
150.2685393452
 21
54.6665215927
 31
0.0
  0
LINE
  5
366
330
1F
100
AcDbEntity
  8
0
  6
Continuous
 62
     7
370
    25
100
AcDbLine
 10
150.2685393452
 20
54.6665215927
 30
0.0
 11
144.1976907252
 21
52.1518937592
 31
0.0
  0
LINE
  5
367
330
1F
100
AcDbEntity
  8
0
  6
Continuous
 62
     7
370
    25
100
AcDbLine
 10
145.2119960438
 20
14.3021332746
 30
0.0
 11
151.1831044038
 21
14.8902361166
 31
0.0
  0
LINE
  5
368
330
1F
100
AcDbEntity
  8
0
  6
Continuous
 62
     7
370
    25
100
AcDbLine
 10
135.8691838854
 20
48.7021132719
 30
0.0
 11
129.94318963
 21
46.2474860807
 31
0.0
  0
LINE
  5
369
330
1F
100
AcDbEntity
  8
0
  6
Continuous
 62
     7
370
    25
100
AcDbLine
 10
127.0266366018
 20
49.3689790622
 30
0.0
 11
90.2054368823
 21
34.1171387556
 31
0.0
  0
LINE
  5
36A
330
1F
100
AcDbEntity
  8
0
  6
Continuous
 62
     7
370
    25
100
AcDbLine
 10
92.6662568772
 20
20.9276094279
 30
0.0
 11
56.2319763447
 21
20.9276094279
 31
0.0
  0
LINE
  5
36B
330
1F
100
AcDbEntity
  8
0
  6
Continuous
 62
     7
370
    25
100
AcDbLine
 10
128.9864810491
 20
48.557184912
 30
0.0
 11
129.94318963
 21
46.2474860807
 31
0.0
  0
LINE
  5
36C
330
1F
100
AcDbEntity
  8
0
  6
Continuous
 62
     7
370
    25
100
AcDbLine
 10
100.5859396238
 20
94.2219785931
 30
0.0
 11
102.3537065768
 21
92.4542116401
 31
0.0
  0
LINE
  5
36D
330
1F
100
AcDbEntity
  8
0
  6
Continuous
 62
     7
370
    25
100
AcDbLine
 10
56.8721007046
 20
125.5423301578
 30
0.0
 11
59.1817995359
 21
124.5856215769
 31
0.0
  0
LINE
  5
36E
330
1F
100
AcDbEntity
  8
0
  6
Continuous
 62
     7
370
    25
100
AcDbLine
 10
4.5
 20
137.75
 30
0.0
 11
7.0
 21
137.75
 31
0.0
  0
ARC
  5
36F
330
1F
100
AcDbEntity
  8
0
  6
Continuous
 62
     7
370
    25
100
AcDbCircle
 10
105.3856746182
 20
266.182591627
 30
0.0
 40
1.499999999999986
100
AcDbArc
 50
337.5
 51
67.5
  0
ARC
  5
370
330
1F
100
AcDbEntity
  8
0
  6
Continuous
 62
     7
370
    25
100
AcDbCircle
 10
104.7360242255
 20
275.0667005571
 30
0.0
 40
1.500000000000175
100
AcDbArc
 50
337.5
 51
69.1548722209
  0
ARC
  5
371
330
1F
100
AcDbEntity
  8
0
  6
Continuous
 62
     7
370
    25
100
AcDbCircle
 10
0.0
 20
0.0
 30
0.0
 40
295.8319971154388
100
AcDbArc
 50
69.1548722209
 51
77.0951277791
  0
ARC
  5
372
330
1F
100
AcDbEntity
  8
0
  6
Continuous
 62
     7
370
    25
100
AcDbCircle
 10
65.7340494676
 20
286.8978202541
 30
0.0
 40
1.500000000000131
100
AcDbArc
 50
77.0951277791
 51
168.75
  0
ARC
  5
373
330
1F
100
AcDbEntity
  8
0
  6
Continuous
 62
     7
370
    25
100
AcDbCircle
 10
49.0606997007
 20
290.2143557284
 30
0.0
 40
1.500000000000112
100
AcDbArc
 50
348.75
 51
80.4048722209
  0
ARC
  5
374
330
1F
100
AcDbEntity
  8
0
  6
Continuous
 62
     7
370
    25
100
AcDbCircle
 10
0.0
 20
0.0
 30
0.0
 40
295.8319971154363
100
AcDbArc
 50
80.4048722209
 51
88.3451277791
  0
ARC
  5
375
330
1F
100
AcDbEntity
  8
0
  6
Continuous
 62
     7
370
    25
100
AcDbCircle
 10
8.5
 20
294.209235963
 30
0.0
 40
1.499999999999966
100
AcDbArc
 50
88.3451277791
 51
180.0
  0
ARC
  5
376
330
1F
100
AcDbEntity
  8
0
  6
Continuous
 62
     7
370
    25
100
AcDbCircle
 10
4.5
 20
286.25
 30
0.0
 40
1.499999999999602
100
AcDbArc
 50
90.0
 51
180.0
  0
ARC
  5
377
330
1F
100
AcDbEntity
  8
0
  6
Continuous
 62
     7
370
    25
100
AcDbCircle
 10
4.5
 20
261.25
 30
0.0
 40
1.5
100
AcDbArc
 50
180.0
 51
270.0
  0
ARC
  5
378
330
1F
100
AcDbEntity
  8
0
  6
Continuous
 62
     7
370
    25
100
AcDbCircle
 10
8.5
 20
253.2058426592
 30
0.0
 40
1.50000000000009
100
AcDbArc
 50
180.0
 51
268.0773298772
  0
ARC
  5
379
330
1F
100
AcDbEntity
  8
0
  6
Continuous
 62
     7
370
    25
100
AcDbCircle
 10
0.0
 20
0.0
 30
0.0
 40
251.8484729710374
100
AcDbArc
 50
80.6726701228
 51
88.0773298772
  0
ARC
  5
37A
330
1F
100
AcDbEntity
  8
0
  6
Continuous
 62
     7
370
    25
100
AcDbCircle
 10
41.0613344973
 20
249.9988311293
 30
0.0
 40
1.499999999999975
100
AcDbArc
 50
260.6726701228
 51
348.75
  0
ARC
  5
37B
330
1F
100
AcDbEntity
  8
0
  6
Continuous
 62
     7
370
    25
100
AcDbCircle
 10
57.7346842642
 20
246.6822956551
 30
0.0
 40
1.49999999999999
100
AcDbArc
 50
168.75
 51
256.8273298772
  0
ARC
  5
37C
330
1F
100
AcDbEntity
  8
0
  6
Continuous
 62
     7
370
    25
100
AcDbCircle
 10
0.0
 20
0.0
 30
0.0
 40
251.8484729710479
100
AcDbArc
 50
69.4226701228
 51
76.8273298772
  0
ARC
  5
37D
330
1F
100
AcDbEntity
  8
0
  6
Continuous
 62
     7
370
    25
100
AcDbCircle
 10
89.0447049374
 20
237.1845047202
 30
0.0
 40
1.499999999999939
100
AcDbArc
 50
249.4226701228
 51
337.5
  0
ARC
  5
37E
330
1F
100
AcDbEntity
  8
0
  6
Continuous
 62
     7
370
    25
100
AcDbCircle
 10
95.8185888091
 20
243.0856033142
 30
0.0
 40
1.500000000000044
100
AcDbArc
 50
247.5
 51
337.5
  0
ARC
  5
37F
330
1F
100
AcDbEntity
  8
0
  6
Continuous
 62
     7
370
    25
100
AcDbCircle
 10
86.251503
 20
219.9886150014
 30
0.0
 40
1.49999999999996
100
AcDbArc
 50
337.5
 51
67.5
  0
ARC
  5
380
330
1F
100
AcDbEntity
  8
0
  6
Continuous
 62
     7
370
    25
100
AcDbCircle
 10
85.5985424414
 20
228.8647324844
 30
0.0
 40
1.500000000000056
100
AcDbArc
 50
337.5
 51
69.4935152264
  0
ARC
  5
381
330
1F
100
AcDbEntity
  8
0
  6
Continuous
 62
     7
370
    25
100
AcDbCircle
 10
0.0
 20
0.0
 30
0.0
 40
245.8484729709971
100
AcDbArc
 50
69.4935152264
 51
76.7564847736
  0
ARC
  5
382
330
1F
100
AcDbEntity
  8
0
  6
Continuous
 62
     7
370
    25
100
AcDbCircle
 10
55.9778458589
 20
237.8500725589
 30
0.0
 40
1.50000000000002
100
AcDbArc
 50
76.7564847736
 51
168.75
  0
ARC
  5
383
330
1F
100
AcDbEntity
  8
0
  6
Continuous
 62
     7
370
    25
100
AcDbCircle
 10
39.304496092
 20
241.1666080331
 30
0.0
 40
1.499999999999968
100
AcDbArc
 50
348.75
 51
80.7435152264
  0
ARC
  5
384
330
1F
100
AcDbEntity
  8
0
  6
Continuous
 62
     7
370
    25
100
AcDbCircle
 10
0.0
 20
0.0
 30
0.0
 40
245.8484729709922
100
AcDbArc
 50
80.7435152264
 51
88.0064847736
  0
ARC
  5
385
330
1F
100
AcDbEntity
  8
0
  6
Continuous
 62
     7
370
    25
100
AcDbCircle
 10
8.5
 20
244.200586083
 30
0.0
 40
1.500000000000024
100
AcDbArc
 50
88.0064847736
 51
180.0
  0
ARC
  5
386
330
1F
100
AcDbEntity
  8
0
  6
Continuous
 62
     7
370
    25
100
AcDbCircle
 10
4.5
 20
236.25
 30
0.0
 40
1.499999999999744
100
AcDbArc
 50
90.0
 51
180.0
  0
ARC
  5
387
330
1F
100
AcDbEntity
  8
0
  6
Continuous
 62
     7
370
    25
100
AcDbCircle
 10
4.5
 20
211.25
 30
0.0
 40
1.500000000000058
100
AcDbArc
 50
180.0
 51
270.0
  0
ARC
  5
388
330
1F
100
AcDbEntity
  8
0
  6
Continuous
 62
     7
370
    25
100
AcDbCircle
 10
8.5
 20
203.195525517
 30
0.0
 40
1.500000000000028
100
AcDbArc
 50
180.0
 51
267.604620724
  0
ARC
  5
389
330
1F
100
AcDbEntity
  8
0
  6
Continuous
 62
     7
370
    25
100
AcDbCircle
 10
0.0
 20
0.0
 30
0.0
 40
201.8732322359776
100
AcDbArc
 50
81.145379276
 51
87.604620724
  0
ARC
  5
38A
330
1F
100
AcDbEntity
  8
0
  6
Continuous
 62
     7
370
    25
100
AcDbCircle
 10
31.3048056219
 20
200.949448208
 30
0.0
 40
1.499999999999999
100
AcDbArc
 50
261.145379276
 51
348.75
  0
ARC
  5
38B
330
1F
100
AcDbEntity
  8
0
  6
Continuous
 62
     7
370
    25
100
AcDbCircle
 10
47.9781553888
 20
197.6329127337
 30
0.0
 40
1.500000000000014
100
AcDbArc
 50
168.75
 51
256.354620724
  0
ARC
  5
38C
330
1F
100
AcDbEntity
  8
0
  6
Continuous
 62
     7
370
    25
100
AcDbCircle
 10
0.0
 20
0.0
 30
0.0
 40
201.8732322359701
100
AcDbArc
 50
69.895379276
 51
76.354620724
  0
ARC
  5
38D
330
1F
100
AcDbEntity
  8
0
  6
Continuous
 62
     7
370
    25
100
AcDbCircle
 10
69.9065851197
 20
190.9809962981
 30
0.0
 40
1.500000000000066
100
AcDbArc
 50
249.895379276
 51
337.5
  0
ARC
  5
38E
330
1F
100
AcDbEntity
  8
0
  6
Continuous
 62
     7
370
    25
100
AcDbCircle
 10
76.6844171908
 20
196.8916266887
 30
0.0
 40
1.500000000000226
100
AcDbArc
 50
247.5
 51
337.5
  0
ARC
  5
38F
330
1F
100
AcDbEntity
  8
0
  6
Continuous
 62
     7
370
    25
100
AcDbCircle
 10
67.1173313817
 20
173.7946383759
 30
0.0
 40
1.500000000000002
100
AcDbArc
 50
337.5
 51
67.5
  0
ARC
  5
390
330
1F
100
AcDbEntity
  8
0
  6
Continuous
 62
     7
370
    25
100
AcDbCircle
 10
66.4592824476
 20
182.6584714335
 30
0.0
 40
1.500000000000046
100
AcDbArc
 50
337.5
 51
70.0063609669
  0
ARC
  5
391
330
1F
100
AcDbEntity
  8
0
  6
Continuous
 62
     7
370
    25
100
AcDbCircle
 10
0.0
 20
0.0
 30
0.0
 40
195.8732322360406
100
AcDbArc
 50
70.0063609669
 51
76.2436390331
  0
ARC
  5
392
330
1F
100
AcDbEntity
  8
0
  6
Continuous
 62
     7
370
    25
100
AcDbCircle
 10
46.2207357267
 20
188.7977674623
 30
0.0
 40
1.499999999999998
100
AcDbArc
 50
76.2436390331
 51
168.75
  0
ARC
  5
393
330
1F
100
AcDbEntity
  8
0
  6
Continuous
 62
     7
370
    25
100
AcDbCircle
 10
29.5473859598
 20
192.1143029366
 30
0.0
 40
1.500000000000036
100
AcDbArc
 50
348.75
 51
81.2563609669
  0
ARC
  5
394
330
1F
100
AcDbEntity
  8
0
  6
Continuous
 62
     7
370
    25
100
AcDbCircle
 10
0.0
 20
0.0
 30
0.0
 40
195.8732322359991
100
AcDbArc
 50
81.2563609669
 51
87.4936390331
  0
ARC
  5
395
330
1F
100
AcDbEntity
  8
0
  6
Continuous
 62
     7
370
    25
100
AcDbCircle
 10
8.5
 20
194.1872895168
 30
0.0
 40
1.49999999999999
100
AcDbArc
 50
87.4936390331
 51
180.0
  0
ARC
  5
396
330
1F
100
AcDbEntity
  8
0
  6
Continuous
 62
     7
370
    25
100
AcDbCircle
 10
4.5
 20
186.25
 30
0.0
 40
1.499999999999748
100
AcDbArc
 50
90.0
 51
180.0
  0
ARC
  5
397
330
1F
100
AcDbEntity
  8
0
  6
Continuous
 62
     7
370
    25
100
AcDbCircle
 10
4.5
 20
161.25
 30
0.0
 40
1.499999999999975
100
AcDbArc
 50
180.0
 51
270.0
  0
ARC
  5
398
330
1F
100
AcDbEntity
  8
0
  6
Continuous
 62
     7
370
    25
100
AcDbCircle
 10
8.5
 20
153.1789608046
 30
0.0
 40
1.499999999999905
100
AcDbArc
 50
180.0
 51
266.8238773032
  0
ARC
  5
399
330
1F
100
AcDbEntity
  8
0
  6
Continuous
 62
     7
370
    25
100
AcDbCircle
 10
0.0
 20
0.0
 30
0.0
 40
151.9146147965327
100
AcDbArc
 50
70.6761226968
 51
86.8238773032
  0
ARC
  5
39A
330
1F
100
AcDbEntity
  8
0
  6
Continuous
 62
     7
370
    25
100
AcDbCircle
 10
50.7660744605
 20
144.7717158738
 30
0.0
 40
1.499999999999939
100
AcDbArc
 50
250.6761226968
 51
337.5
  0
ARC
  5
39B
330
1F
100
AcDbEntity
  8
0
  6
Continuous
 62
     7
370
    25
100
AcDbCircle
 10
57.5502455726
 20
150.6976500631
 30
0.0
 40
1.499999999999989
100
AcDbArc
 50
247.5
 51
337.5
  0
ARC
  5
39C
330
1F
100
AcDbEntity
  8
0
  6
Continuous
 62
     7
370
    25
100
AcDbCircle
 10
104.7506569901
 20
230.67888637
 30
0.0
 40
1.500000000000002
100
AcDbArc
 50
157.5
 51
245.5773298772
  0
ARC
  5
39D
330
1F
100
AcDbEntity
  8
0
  6
Continuous
 62
     7
370
    25
100
AcDbCircle
 10
0.0
 20
0.0
 30
0.0
 40
251.8484729710457
100
AcDbArc
 50
58.1726701228
 51
65.5773298772
  0
ARC
  5
39E
330
1F
100
AcDbEntity
  8
0
  6
Continuous
 62
     7
370
    25
100
AcDbCircle
 10
133.6061373035
 20
215.2553108092
 30
0.0
 40
1.499999999999963
100
AcDbArc
 50
238.1726701228
 51
326.25
  0
ARC
  5
39F
330
1F
100
AcDbEntity
  8
0
  6
Continuous
 62
     7
370
    25
100
AcDbCircle
 10
147.7411207127
 20
205.8106168479
 30
0.0
 40
1.500000000000002
100
AcDbArc
 50
146.25
 51
234.3273298772
  0
ARC
  5
3A0
330
1F
100
AcDbEntity
  8
0
  6
Continuous
 62
     7
370
    25
100
AcDbCircle
 10
0.0
 20
0.0
 30
0.0
 40
251.8484729710433
100
AcDbArc
 50
46.9226701228
 51
54.3273298772
  0
ARC
  5
3A1
330
1F
100
AcDbEntity
  8
0
  6
Continuous
 62
     7
370
    25
100
AcDbCircle
 10
173.0331607403
 20
185.0539760204
 30
0.0
 40
1.499999999999944
100
AcDbArc
 50
226.9226701228
 51
315.0
  0
ARC
  5
3A2
330
1F
100
AcDbEntity
  8
0
  6
Continuous
 62
     7
370
    25
100
AcDbCircle
 10
181.5496660696
 20
187.9136271003
 30
0.0
 40
1.500000000012553
100
AcDbArc
 50
225.0000000008
 51
314.9999999998
  0
ARC
  5
3A3
330
1F
100
AcDbEntity
  8
0
  6
Continuous
 62
     7
370
    25
100
AcDbCircle
 10
199.2273355993
 20
205.59129663
 30
0.0
 40
1.500000000000052
100
AcDbArc
 50
315.0
 51
44.9999999999
  0
ARC
  5
3A4
330
1F
100
AcDbEntity
  8
0
  6
Continuous
 62
     7
370
    25
100
AcDbCircle
 10
202.0269381971
 20
214.0477534773
 30
0.0
 40
1.500000000000138
100
AcDbArc
 50
315.0
 51
46.6548722209
  0
ARC
  5
3A5
330
1F
100
AcDbEntity
  8
0
  6
Continuous
 62
     7
370
    25
100
AcDbCircle
 10
0.0
 20
0.0
 30
0.0
 40
295.8319971154267
100
AcDbArc
 50
46.6548722209
 51
54.5951277791
  0
ARC
  5
3A6
330
1F
100
AcDbEntity
  8
0
  6
Continuous
 62
     7
370
    25
100
AcDbCircle
 10
170.5213854851
 20
239.9036923814
 30
0.0
 40
1.500000000000107
100
AcDbArc
 50
54.5951277791
 51
146.25
  0
ARC
  5
3A7
330
1F
100
AcDbEntity
  8
0
  6
Continuous
 62
     7
370
    25
100
AcDbCircle
 10
156.3864020759
 20
249.3483863427
 30
0.0
 40
1.500000000000042
100
AcDbArc
 50
326.25
 51
57.9048722209
  0
ARC
  5
3A8
330
1F
100
AcDbEntity
  8
0
  6
Continuous
 62
     7
370
    25
100
AcDbCircle
 10
0.0
 20
0.0
 30
0.0
 40
295.8319971154498
100
AcDbArc
 50
57.9048722209
 51
65.8451277791
  0
ARC
  5
3A9
330
1F
100
AcDbEntity
  8
0
  6
Continuous
 62
     7
370
    25
100
AcDbCircle
 10
120.4419762782
 20
268.5610822069
 30
0.0
 40
1.500000000000029
100
AcDbArc
 50
65.8451277791
 51
157.5
  0
ARC
  5
3AA
330
1F
100
AcDbEntity
  8
0
  6
Continuous
 62
     7
370
    25
100
AcDbCircle
 10
113.7005904108
 20
262.7384407357
 30
0.0
 40
1.500000000000065
100
AcDbArc
 50
67.5
 51
157.5
  0
ARC
  5
3AB
330
1F
100
AcDbEntity
  8
0
  6
Continuous
 62
     7
370
    25
100
AcDbCircle
 10
104.1335046017
 20
239.6414524229
 30
0.0
 40
1.500000000000054
100
AcDbArc
 50
157.5
 51
247.5
  0
ARC
  5
3AC
330
1F
100
AcDbEntity
  8
0
  6
Continuous
 62
     7
370
    25
100
AcDbCircle
 10
85.6125371724
 20
184.4753779479
 30
0.0
 40
1.49999999999999
100
AcDbArc
 50
157.5
 51
245.104620724
  0
ARC
  5
3AD
330
1F
100
AcDbEntity
  8
0
  6
Continuous
 62
     7
370
    25
100
AcDbCircle
 10
0.0
 20
0.0
 30
0.0
 40
201.8732322359886
100
AcDbArc
 50
58.645379276
 51
65.104620724
  0
ARC
  5
3AE
330
1F
100
AcDbEntity
  8
0
  6
Continuous
 62
     7
370
    25
100
AcDbCircle
 10
105.8218937554
 20
173.6732518039
 30
0.0
 40
1.499999999999872
100
AcDbArc
 50
238.645379276
 51
326.25
  0
ARC
  5
3AF
330
1F
100
AcDbEntity
  8
0
  6
Continuous
 62
     7
370
    25
100
AcDbCircle
 10
119.9568771646
 20
164.2285578426
 30
0.0
 40
1.499999999999974
100
AcDbArc
 50
146.25
 51
233.854620724
  0
ARC
  5
3B0
330
1F
100
AcDbEntity
  8
0
  6
Continuous
 62
     7
370
    25
100
AcDbCircle
 10
0.0
 20
0.0
 30
0.0
 40
201.8732322359976
100
AcDbArc
 50
47.395379276
 51
53.854620724
  0
ARC
  5
3B1
330
1F
100
AcDbEntity
  8
0
  6
Continuous
 62
     7
370
    25
100
AcDbCircle
 10
137.6705263597
 20
149.6913416399
 30
0.0
 40
1.500000000000012
100
AcDbArc
 50
227.395379276
 51
315.0
  0
ARC
  5
3B2
330
1F
100
AcDbEntity
  8
0
  6
Continuous
 62
     7
370
    25
100
AcDbCircle
 10
146.1943270103
 20
152.558288041
 30
0.0
 40
1.500000000012834
100
AcDbArc
 50
225.0000000008
 51
314.9999999998
  0
ARC
  5
3B3
330
1F
100
AcDbEntity
  8
0
  6
Continuous
 62
     7
370
    25
100
AcDbCircle
 10
163.87199654
 20
170.2359575707
 30
0.0
 40
1.499999999999992
100
AcDbArc
 50
315.0
 51
44.9999999999
  0
ARC
  5
3B4
330
1F
100
AcDbEntity
  8
0
  6
Continuous
 62
     7
370
    25
100
AcDbCircle
 10
166.6654827489
 20
178.6862980291
 30
0.0
 40
1.499999999999886
100
AcDbArc
 50
315.0
 51
46.9935152264
  0
ARC
  5
3B5
330
1F
100
AcDbEntity
  8
0
  6
Continuous
 62
     7
370
    25
100
AcDbCircle
 10
0.0
 20
0.0
 30
0.0
 40
245.8484729709685
100
AcDbArc
 50
46.9935152264
 51
54.2564847736
  0
ARC
  5
3B6
330
1F
100
AcDbEntity
  8
0
  6
Continuous
 62
     7
370
    25
100
AcDbCircle
 10
142.7380682182
 20
198.3230196538
 30
0.0
 40
1.50000000000003
100
AcDbArc
 50
54.2564847736
 51
146.25
  0
ARC
  5
3B7
330
1F
100
AcDbEntity
  8
0
  6
Continuous
 62
     7
370
    25
100
AcDbCircle
 10
128.6030848091
 20
207.7677136151
 30
0.0
 40
1.499999999999956
100
AcDbArc
 50
326.25
 51
58.2435152264
  0
ARC
  5
3B8
330
1F
100
AcDbEntity
  8
0
  6
Continuous
 62
     7
370
    25
100
AcDbCircle
 10
0.0
 20
0.0
 30
0.0
 40
245.8484729710016
100
AcDbArc
 50
58.2435152264
 51
65.5064847736
  0
ARC
  5
3B9
330
1F
100
AcDbEntity
  8
0
  6
Continuous
 62
     7
370
    25
100
AcDbCircle
 10
101.3044944941
 20
222.3591141342
 30
0.0
 40
1.499999999999967
100
AcDbArc
 50
65.5064847736
 51
157.5
  0
ARC
  5
3BA
330
1F
100
AcDbEntity
  8
0
  6
Continuous
 62
     7
370
    25
100
AcDbCircle
 10
94.5664187926
 20
216.5444641101
 30
0.0
 40
1.499999999999954
100
AcDbArc
 50
67.5
 51
157.5
  0
ARC
  5
3BB
330
1F
100
AcDbEntity
  8
0
  6
Continuous
 62
     7
370
    25
100
AcDbCircle
 10
84.9993329834
 20
193.4474757974
 30
0.0
 40
1.499999999999995
100
AcDbArc
 50
157.5
 51
247.5
  0
ARC
  5
3BC
330
1F
100
AcDbEntity
  8
0
  6
Continuous
 62
     7
370
    25
100
AcDbCircle
 10
66.4720265132
 20
138.2660975236
 30
0.0
 40
1.499999999999941
100
AcDbArc
 50
157.5
 51
244.3238773032
  0
ARC
  5
3BD
330
1F
100
AcDbEntity
  8
0
  6
Continuous
 62
     7
370
    25
100
AcDbCircle
 10
0.0
 20
0.0
 30
0.0
 40
151.914614796532
100
AcDbArc
 50
48.1761226968
 51
64.3238773032
  0
ARC
  5
3BE
330
1F
100
AcDbEntity
  8
0
  6
Continuous
 62
     7
370
    25
100
AcDbCircle
 10
102.3034742799
 20
114.3242895601
 30
0.0
 40
1.499999999999982
100
AcDbArc
 50
228.1761226968
 51
315.0
  0
ARC
  5
3BF
330
1F
100
AcDbEntity
  8
0
  6
Continuous
 62
     7
370
    25
100
AcDbCircle
 10
110.838987951
 20
117.2029489817
 30
0.0
 40
1.500000000000062
100
AcDbArc
 50
225.0
 51
315.0
  0
ARC
  5
3C0
330
1F
100
AcDbEntity
  8
0
  6
Continuous
 62
     7
370
    25
100
AcDbCircle
 10
128.5166574807
 20
134.8806185113
 30
0.0
 40
1.499999999999972
100
AcDbArc
 50
315.0
 51
45.0
  0
ARC
  5
3C1
330
1F
100
AcDbEntity
  8
0
  6
Continuous
 62
     7
370
    25
100
AcDbCircle
 10
131.3007415975
 20
143.3215568776
 30
0.0
 40
1.500000000000113
100
AcDbArc
 50
315.0
 51
47.5063609669
  0
ARC
  5
3C2
330
1F
100
AcDbEntity
  8
0
  6
Continuous
 62
     7
370
    25
100
AcDbCircle
 10
0.0
 20
0.0
 30
0.0
 40
195.8732322360023
100
AcDbArc
 50
47.5063609669
 51
53.7436390331
  0
ARC
  5
3C3
330
1F
100
AcDbEntity
  8
0
  6
Continuous
 62
     7
370
    25
100
AcDbCircle
 10
114.9521693909
 20
156.7384833479
 30
0.0
 40
1.499999999999982
100
AcDbArc
 50
53.7436390331
 51
146.25
  0
ARC
  5
3C4
330
1F
100
AcDbEntity
  8
0
  6
Continuous
 62
     7
370
    25
100
AcDbCircle
 10
100.8171859817
 20
166.1831773093
 30
0.0
 40
1.500000000000038
100
AcDbArc
 50
326.25
 51
58.7563609669
  0
ARC
  5
3C5
330
1F
100
AcDbEntity
  8
0
  6
Continuous
 62
     7
370
    25
100
AcDbCircle
 10
0.0
 20
0.0
 30
0.0
 40
195.8732322360302
100
AcDbArc
 50
58.7563609669
 51
64.9936390331
  0
ARC
  5
3C6
330
1F
100
AcDbEntity
  8
0
  6
Continuous
 62
     7
370
    25
100
AcDbCircle
 10
82.1652345003
 20
176.1528530833
 30
0.0
 40
1.500000000000001
100
AcDbArc
 50
64.9936390331
 51
157.5
  0
ARC
  5
3C7
330
1F
100
AcDbEntity
  8
0
  6
Continuous
 62
     7
370
    25
100
AcDbCircle
 10
75.4322471743
 20
170.3504874846
 30
0.0
 40
1.499999999999993
100
AcDbArc
 50
67.5
 51
157.5
  0
ARC
  5
3C8
330
1F
100
AcDbEntity
  8
0
  6
Continuous
 62
     7
370
    25
100
AcDbCircle
 10
65.8651613652
 20
147.2534991718
 30
0.0
 40
1.500000000000017
100
AcDbArc
 50
157.5
 51
247.5
  0
ARC
  5
3C9
330
1F
100
AcDbEntity
  8
0
  6
Continuous
 62
     7
370
    25
100
AcDbCircle
 10
114.3242895601
 20
102.3034742799
 30
0.0
 40
1.500000000000002
100
AcDbArc
 50
135.0
 51
221.8238773032
  0
ARC
  5
3CA
330
1F
100
AcDbEntity
  8
0
  6
Continuous
 62
     7
370
    25
100
AcDbCircle
 10
0.0
 20
0.0
 30
0.0
 40
151.9146147965313
100
AcDbArc
 50
25.6761226968
 51
41.8238773032
  0
ARC
  5
3CB
330
1F
100
AcDbEntity
  8
0
  6
Continuous
 62
     7
370
    25
100
AcDbCircle
 10
138.2660975236
 20
66.4720265132
 30
0.0
 40
1.499999999999971
100
AcDbArc
 50
205.6761226968
 51
292.5
  0
ARC
  5
3CC
330
1F
100
AcDbEntity
  8
0
  6
Continuous
 62
     7
370
    25
100
AcDbCircle
 10
147.2534991718
 20
65.8651613652
 30
0.0
 40
1.500000000000005
100
AcDbArc
 50
202.5
 51
292.5
  0
ARC
  5
3CD
330
1F
100
AcDbEntity
  8
0
  6
Continuous
 62
     7
370
    25
100
AcDbCircle
 10
170.3504874846
 20
75.4322471743
 30
0.0
 40
1.499999999999928
100
AcDbArc
 50
292.5
 51
22.5
  0
ARC
  5
3CE
330
1F
100
AcDbEntity
  8
0
  6
Continuous
 62
     7
370
    25
100
AcDbCircle
 10
176.1528530833
 20
82.1652345003
 30
0.0
 40
1.500000000000008
100
AcDbArc
 50
292.5
 51
25.0063609669
  0
ARC
  5
3CF
330
1F
100
AcDbEntity
  8
0
  6
Continuous
 62
     7
370
    25
100
AcDbCircle
 10
0.0
 20
0.0
 30
0.0
 40
195.8732322360248
100
AcDbArc
 50
25.0063609669
 51
31.2436390331
  0
ARC
  5
3D0
330
1F
100
AcDbEntity
  8
0
  6
Continuous
 62
     7
370
    25
100
AcDbCircle
 10
166.1831773093
 20
100.8171859817
 30
0.0
 40
1.500000000000058
100
AcDbArc
 50
31.2436390331
 51
123.75
  0
ARC
  5
3D1
330
1F
100
AcDbEntity
  8
0
  6
Continuous
 62
     7
370
    25
100
AcDbCircle
 10
156.7384833479
 20
114.9521693909
 30
0.0
 40
1.500000000000077
100
AcDbArc
 50
303.75
 51
36.2563609669
  0
ARC
  5
3D2
330
1F
100
AcDbEntity
  8
0
  6
Continuous
 62
     7
370
    25
100
AcDbCircle
 10
0.0
 20
0.0
 30
0.0
 40
195.8732322360301
100
AcDbArc
 50
36.2563609669
 51
42.4936390331
  0
ARC
  5
3D3
330
1F
100
AcDbEntity
  8
0
  6
Continuous
 62
     7
370
    25
100
AcDbCircle
 10
143.3215568776
 20
131.3007415975
 30
0.0
 40
1.500000000000048
100
AcDbArc
 50
42.4936390331
 51
135.0
  0
ARC
  5
3D4
330
1F
100
AcDbEntity
  8
0
  6
Continuous
 62
     7
370
    25
100
AcDbCircle
 10
134.8806185113
 20
128.5166574807
 30
0.0
 40
1.500000000000073
100
AcDbArc
 50
45.0
 51
135.0
  0
ARC
  5
3D5
330
1F
100
AcDbEntity
  8
0
  6
Continuous
 62
     7
370
    25
100
AcDbCircle
 10
117.2029489817
 20
110.838987951
 30
0.0
 40
1.499999999999972
100
AcDbArc
 50
135.0
 51
225.0
  0
ARC
  5
3D6
330
1F
100
AcDbEntity
  8
0
  6
Continuous
 62
     7
370
    25
100
AcDbCircle
 10
149.6913416399
 20
137.6705263597
 30
0.0
 40
1.499999999999977
100
AcDbArc
 50
135.0
 51
222.604620724
  0
ARC
  5
3D7
330
1F
100
AcDbEntity
  8
0
  6
Continuous
 62
     7
370
    25
100
AcDbCircle
 10
0.0
 20
0.0
 30
0.0
 40
201.873232235981
100
AcDbArc
 50
36.145379276
 51
42.604620724
  0
ARC
  5
3D8
330
1F
100
AcDbEntity
  8
0
  6
Continuous
 62
     7
370
    25
100
AcDbCircle
 10
164.2285578426
 20
119.9568771646
 30
0.0
 40
1.49999999999998
100
AcDbArc
 50
216.145379276
 51
303.75
  0
ARC
  5
3D9
330
1F
100
AcDbEntity
  8
0
  6
Continuous
 62
     7
370
    25
100
AcDbCircle
 10
173.6732518039
 20
105.8218937554
 30
0.0
 40
1.500000000000073
100
AcDbArc
 50
123.75
 51
211.354620724
  0
ARC
  5
3DA
330
1F
100
AcDbEntity
  8
0
  6
Continuous
 62
     7
370
    25
100
AcDbCircle
 10
0.0
 20
0.0
 30
0.0
 40
201.8732322359893
100
AcDbArc
 50
24.895379276
 51
31.354620724
  0
ARC
  5
3DB
330
1F
100
AcDbEntity
  8
0
  6
Continuous
 62
     7
370
    25
100
AcDbCircle
 10
184.4753779479
 20
85.6125371724
 30
0.0
 40
1.499999999999888
100
AcDbArc
 50
204.895379276
 51
292.5
  0
ARC
  5
3DC
330
1F
100
AcDbEntity
  8
0
  6
Continuous
 62
     7
370
    25
100
AcDbCircle
 10
193.4474757974
 20
84.9993329835
 30
0.0
 40
1.500000000016623
100
AcDbArc
 50
202.5000000015
 51
292.4999999997
  0
ARC
  5
3DD
330
1F
100
AcDbEntity
  8
0
  6
Continuous
 62
     7
370
    25
100
AcDbCircle
 10
216.5444641102
 20
94.5664187926
 30
0.0
 40
1.499999999999915
100
AcDbArc
 50
292.5
 51
22.5
  0
ARC
  5
3DE
330
1F
100
AcDbEntity
  8
0
  6
Continuous
 62
     7
370
    25
100
AcDbCircle
 10
222.3591141342
 20
101.3044944941
 30
0.0
 40
1.499999999999945
100
AcDbArc
 50
292.5
 51
24.4935152264
  0
ARC
  5
3DF
330
1F
100
AcDbEntity
  8
0
  6
Continuous
 62
     7
370
    25
100
AcDbCircle
 10
0.0
 20
0.0
 30
0.0
 40
245.848472971
100
AcDbArc
 50
24.4935152264
 51
31.7564847736
  0
ARC
  5
3E0
330
1F
100
AcDbEntity
  8
0
  6
Continuous
 62
     7
370
    25
100
AcDbCircle
 10
207.7677136151
 20
128.6030848091
 30
0.0
 40
1.500000000000103
100
AcDbArc
 50
31.7564847736
 51
123.75
  0
ARC
  5
3E1
330
1F
100
AcDbEntity
  8
0
  6
Continuous
 62
     7
370
    25
100
AcDbCircle
 10
198.3230196538
 20
142.7380682182
 30
0.0
 40
1.500000000000065
100
AcDbArc
 50
303.75
 51
35.7435152264
  0
ARC
  5
3E2
330
1F
100
AcDbEntity
  8
0
  6
Continuous
 62
     7
370
    25
100
AcDbCircle
 10
0.0
 20
0.0
 30
0.0
 40
245.8484729709928
100
AcDbArc
 50
35.7435152264
 51
43.0064847736
  0
ARC
  5
3E3
330
1F
100
AcDbEntity
  8
0
  6
Continuous
 62
     7
370
    25
100
AcDbCircle
 10
178.6862980291
 20
166.6654827489
 30
0.0
 40
1.499999999999846
100
AcDbArc
 50
43.0064847736
 51
135.0
  0
ARC
  5
3E4
330
1F
100
AcDbEntity
  8
0
  6
Continuous
 62
     7
370
    25
100
AcDbCircle
 10
170.2359575707
 20
163.87199654
 30
0.0
 40
1.500000000000072
100
AcDbArc
 50
44.9999999999
 51
135.0
  0
ARC
  5
3E5
330
1F
100
AcDbEntity
  8
0
  6
Continuous
 62
     7
370
    25
100
AcDbCircle
 10
152.558288041
 20
146.1943270103
 30
0.0
 40
1.500000000012874
100
AcDbArc
 50
135.0000000002
 51
224.9999999993
  0
ARC
  5
3E6
330
1F
100
AcDbEntity
  8
0
  6
Continuous
 62
     7
370
    25
100
AcDbCircle
 10
185.0539760204
 20
173.0331607403
 30
0.0
 40
1.499999999999892
100
AcDbArc
 50
135.0
 51
223.0773298772
  0
ARC
  5
3E7
330
1F
100
AcDbEntity
  8
0
  6
Continuous
 62
     7
370
    25
100
AcDbCircle
 10
0.0
 20
0.0
 30
0.0
 40
251.8484729710571
100
AcDbArc
 50
35.6726701228
 51
43.0773298772
  0
ARC
  5
3E8
330
1F
100
AcDbEntity
  8
0
  6
Continuous
 62
     7
370
    25
100
AcDbCircle
 10
205.8106168479
 20
147.7411207126
 30
0.0
 40
1.4999999999999
100
AcDbArc
 50
215.6726701228
 51
303.75
  0
ARC
  5
3E9
330
1F
100
AcDbEntity
  8
0
  6
Continuous
 62
     7
370
    25
100
AcDbCircle
 10
215.2553108092
 20
133.6061373035
 30
0.0
 40
1.499999999999939
100
AcDbArc
 50
123.75
 51
211.8273298772
  0
ARC
  5
3EA
330
1F
100
AcDbEntity
  8
0
  6
Continuous
 62
     7
370
    25
100
AcDbCircle
 10
0.0
 20
0.0
 30
0.0
 40
251.8484729710373
100
AcDbArc
 50
24.4226701228
 51
31.8273298772
  0
ARC
  5
3EB
330
1F
100
AcDbEntity
  8
0
  6
Continuous
 62
     7
370
    25
100
AcDbCircle
 10
230.67888637
 20
104.7506569901
 30
0.0
 40
1.500000000000025
100
AcDbArc
 50
204.4226701228
 51
292.5
  0
ARC
  5
3EC
330
1F
100
AcDbEntity
  8
0
  6
Continuous
 62
     7
370
    25
100
AcDbCircle
 10
239.6414524229
 20
104.1335046017
 30
0.0
 40
1.500000000016604
100
AcDbArc
 50
202.5000000015
 51
292.4999999997
  0
ARC
  5
3ED
330
1F
100
AcDbEntity
  8
0
  6
Continuous
 62
     7
370
    25
100
AcDbCircle
 10
262.7384407357
 20
113.7005904108
 30
0.0
 40
1.500000000000092
100
AcDbArc
 50
292.5
 51
22.4999999999
  0
ARC
  5
3EE
330
1F
100
AcDbEntity
  8
0
  6
Continuous
 62
     7
370
    25
100
AcDbCircle
 10
268.5610822069
 20
120.4419762782
 30
0.0
 40
1.500000000000184
100
AcDbArc
 50
292.5
 51
24.1548722209
  0
ARC
  5
3EF
330
1F
100
AcDbEntity
  8
0
  6
Continuous
 62
     7
370
    25
100
AcDbCircle
 10
0.0
 20
0.0
 30
0.0
 40
295.8319971154646
100
AcDbArc
 50
24.1548722209
 51
32.0951277791
  0
ARC
  5
3F0
330
1F
100
AcDbEntity
  8
0
  6
Continuous
 62
     7
370
    25
100
AcDbCircle
 10
249.3483863427
 20
156.3864020759
 30
0.0
 40
1.500000000000129
100
AcDbArc
 50
32.0951277791
 51
123.75
  0
ARC
  5
3F1
330
1F
100
AcDbEntity
  8
0
  6
Continuous
 62
     7
370
    25
100
AcDbCircle
 10
239.9036923814
 20
170.5213854851
 30
0.0
 40
1.500000000000097
100
AcDbArc
 50
303.75
 51
35.4048722209
  0
ARC
  5
3F2
330
1F
100
AcDbEntity
  8
0
  6
Continuous
 62
     7
370
    25
100
AcDbCircle
 10
0.0
 20
0.0
 30
0.0
 40
295.8319971154368
100
AcDbArc
 50
35.4048722209
 51
43.3451277791
  0
ARC
  5
3F3
330
1F
100
AcDbEntity
  8
0
  6
Continuous
 62
     7
370
    25
100
AcDbCircle
 10
214.0477534773
 20
202.0269381971
 30
0.0
 40
1.500000000000012
100
AcDbArc
 50
43.3451277791
 51
135.0
  0
ARC
  5
3F4
330
1F
100
AcDbEntity
  8
0
  6
Continuous
 62
     7
370
    25
100
AcDbCircle
 10
205.59129663
 20
199.2273355993
 30
0.0
 40
1.500000000000032
100
AcDbArc
 50
44.9999999999
 51
135.0
  0
ARC
  5
3F5
330
1F
100
AcDbEntity
  8
0
  6
Continuous
 62
     7
370
    25
100
AcDbCircle
 10
187.9136271003
 20
181.5496660696
 30
0.0
 40
1.500000000012754
100
AcDbArc
 50
135.0000000002
 51
224.9999999993
  0
ARC
  5
3F6
330
1F
100
AcDbEntity
  8
0
  6
Continuous
 62
     7
370
    25
100
AcDbCircle
 10
71.3435532671
 20
64.9795922365
 30
0.0
 40
1.500000000000022
100
AcDbArc
 50
135.0
 51
222.3272067981
  0
ARC
  5
3F7
330
1F
100
AcDbEntity
  8
0
  6
Continuous
 62
     7
370
    25
100
AcDbCircle
 10
0.0
 20
0.0
 30
0.0
 40
94.99999999999025
100
AcDbArc
 50
25.1727932019
 51
42.3272067981
  0
ARC
  5
3F8
330
1F
100
AcDbEntity
  8
0
  6
Continuous
 62
     7
370
    25
100
AcDbCircle
 10
87.3353111396
 20
41.0462352494
 30
0.0
 40
1.500000000000036
100
AcDbArc
 50
205.1727932019
 51
292.5
  0
ARC
  5
3F9
330
1F
100
AcDbEntity
  8
0
  6
Continuous
 62
     7
370
    25
100
AcDbCircle
 10
124.156510859
 20
56.298075556
 30
0.0
 40
1.499999999999951
100
AcDbArc
 50
292.5
 51
22.5
  0
ARC
  5
3FA
330
1F
100
AcDbEntity
  8
0
  6
Continuous
 62
     7
370
    25
100
AcDbCircle
 10
129.9375906837
 20
63.0222460258
 30
0.0
 40
1.499999999999969
100
AcDbArc
 50
292.5
 51
25.874282857
  0
ARC
  5
3FB
330
1F
100
AcDbEntity
  8
0
  6
Continuous
 62
     7
370
    25
100
AcDbCircle
 10
0.0
 20
0.0
 30
0.0
 40
145.9146147965331
100
AcDbArc
 50
25.874282857
 51
41.625717143
  0
ARC
  5
3FC
330
1F
100
AcDbEntity
  8
0
  6
Continuous
 62
     7
370
    25
100
AcDbCircle
 10
107.9499263922
 20
95.929111112
 30
0.0
 40
1.499999999999996
100
AcDbArc
 50
41.625717143
 51
135.0
  0
ARC
  5
3FD
330
1F
100
AcDbEntity
  8
0
  6
Continuous
 62
     7
370
    25
100
AcDbCircle
 10
99.525279452
 20
93.1613184213
 30
0.0
 40
1.500000000000414
100
AcDbArc
 50
45.0
 51
135.0
  0
ARC
  5
3FE
330
1F
100
AcDbEntity
  8
0
  6
Continuous
 62
     7
370
    25
100
AcDbCircle
 10
41.0462352494
 20
87.3353111396
 30
0.0
 40
1.500000000000007
100
AcDbArc
 50
157.5
 51
244.8272067981
  0
ARC
  5
3FF
330
1F
100
AcDbEntity
  8
0
  6
Continuous
 62
     7
370
    25
100
AcDbCircle
 10
0.0
 20
0.0
 30
0.0
 40
95.0000000000077
100
AcDbArc
 50
47.6727932019
 51
64.8272067981
  0
ARC
  5
400
330
1F
100
AcDbEntity
  8
0
  6
Continuous
 62
     7
370
    25
100
AcDbCircle
 10
64.9795922365
 20
71.3435532671
 30
0.0
 40
1.50000000000003
100
AcDbArc
 50
227.6727932019
 51
315.0
  0
ARC
  5
401
330
1F
100
AcDbEntity
  8
0
  6
Continuous
 62
     7
370
    25
100
AcDbCircle
 10
93.1613184213
 20
99.525279452
 30
0.0
 40
1.500000000000284
100
AcDbArc
 50
315.0
 51
45.0
  0
ARC
  5
402
330
1F
100
AcDbEntity
  8
0
  6
Continuous
 62
     7
370
    25
100
AcDbCircle
 10
95.929111112
 20
107.9499263922
 30
0.0
 40
1.499999999999925
100
AcDbArc
 50
315.0
 51
48.374282857
  0
ARC
  5
403
330
1F
100
AcDbEntity
  8
0
  6
Continuous
 62
     7
370
    25
100
AcDbCircle
 10
0.0
 20
0.0
 30
0.0
 40
145.9146147965345
100
AcDbArc
 50
48.374282857
 51
64.125717143
  0
ARC
  5
404
330
1F
100
AcDbEntity
  8
0
  6
Continuous
 62
     7
370
    25
100
AcDbCircle
 10
63.0222460258
 20
129.9375906837
 30
0.0
 40
1.500000000000155
100
AcDbArc
 50
64.125717143
 51
157.5
  0
ARC
  5
405
330
1F
100
AcDbEntity
  8
0
  6
Continuous
 62
     7
370
    25
100
AcDbCircle
 10
56.298075556
 20
124.156510859
 30
0.0
 40
1.50000000000013
100
AcDbArc
 50
67.5
 51
157.5
  0
ARC
  5
406
330
1F
100
AcDbEntity
  8
0
  6
Continuous
 62
     7
370
    25
100
AcDbCircle
 10
4.5
 20
96.3950206183
 30
0.0
 40
1.500000000000017
100
AcDbArc
 50
180.0
 51
267.3272067981
  0
ARC
  5
407
330
1F
100
AcDbEntity
  8
0
  6
Continuous
 62
     7
370
    25
100
AcDbCircle
 10
0.0
 20
0.0
 30
0.0
 40
94.99999999999714
100
AcDbArc
 50
70.1727932019
 51
87.3272067981
  0
ARC
  5
408
330
1F
100
AcDbEntity
  8
0
  6
Continuous
 62
     7
370
    25
100
AcDbCircle
 10
32.7313194568
 20
90.7794620309
 30
0.0
 40
1.500000000000028
100
AcDbArc
 50
250.1727932019
 51
337.5
  0
ARC
  5
409
330
1F
100
AcDbEntity
  8
0
  6
Continuous
 62
     7
370
    25
100
AcDbCircle
 10
47.9831597634
 20
127.6006617503
 30
0.0
 40
1.499999999999914
100
AcDbArc
 50
337.5
 51
67.5
  0
ARC
  5
40A
330
1F
100
AcDbEntity
  8
0
  6
Continuous
 62
     7
370
    25
100
AcDbCircle
 10
47.3162939731
 20
136.443209034
 30
0.0
 40
1.499999999999989
100
AcDbArc
 50
337.5
 51
70.874282857
  0
ARC
  5
40B
330
1F
100
AcDbEntity
  8
0
  6
Continuous
 62
     7
370
    25
100
AcDbCircle
 10
0.0
 20
0.0
 30
0.0
 40
145.9146147965336
100
AcDbArc
 50
70.874282857
 51
86.625717143
  0
ARC
  5
40C
330
1F
100
AcDbEntity
  8
0
  6
Continuous
 62
     7
370
    25
100
AcDbCircle
 10
8.5
 20
144.164249961
 30
0.0
 40
1.499999999999999
100
AcDbArc
 50
86.625717143
 51
180.0
  0
ARC
  5
40D
330
1F
100
AcDbEntity
  8
0
  6
Continuous
 62
     7
370
    25
100
AcDbCircle
 10
4.5
 20
136.25
 30
0.0
 40
1.499999999999801
100
AcDbArc
 50
90.0
 51
180.0
  0
ARC
  5
40E
330
1F
100
AcDbEntity
  8
0
  6
Continuous
 62
     7
370
    25
100
AcDbCircle
 10
0.0
 20
0.0
 30
0.0
 40
59.99999999999996
100
AcDbArc
 50
20.4135373508
 51
95.625
  0
ARC
  5
40F
330
1F
100
AcDbEntity
  8
0
  6
Continuous
 62
     7
370
    25
100
AcDbCircle
 10
0.0
 20
0.0000000001
 30
0.0
 40
94.99999999985083
100
AcDbArc
 50
92.6727932019
 51
95.625
  0
ARC
  5
410
330
1F
100
AcDbEntity
  8
0
  6
Continuous
 62
     7
370
    25
100
AcDbCircle
 10
-4.5
 20
96.3950206183
 30
0.0
 40
1.50000000000002
100
AcDbArc
 50
272.6727932019
 51
0.0
  0
ARC
  5
411
330
1F
100
AcDbEntity
  8
0
  6
Continuous
 62
     7
370
    25
100
AcDbCircle
 10
-4.5
 20
136.25
 30
0.0
 40
1.500000000000028
100
AcDbArc
 50
0.0
 51
90.0
  0
ARC
  5
412
330
1F
100
AcDbEntity
  8
0
  6
Continuous
 62
     7
370
    25
100
AcDbCircle
 10
-8.5
 20
144.164249961
 30
0.0
 40
1.499999999999986
100
AcDbArc
 50
0.0
 51
93.374282857
  0
ARC
  5
413
330
1F
100
AcDbEntity
  8
0
  6
Continuous
 62
     7
370
    25
100
AcDbCircle
 10
-8.5
 20
153.1789608046
 30
0.0
 40
1.500000000000079
100
AcDbArc
 50
273.1761226968
 51
360.0
  0
ARC
  5
414
330
1F
100
AcDbEntity
  8
0
  6
Continuous
 62
     7
370
    25
100
AcDbCircle
 10
-4.5
 20
161.25
 30
0.0
 40
1.500000000000029
100
AcDbArc
 50
270.0
 51
0.0
  0
ARC
  5
415
330
1F
100
AcDbEntity
  8
0
  6
Continuous
 62
     7
370
    25
100
AcDbCircle
 10
-4.5
 20
186.25
 30
0.0
 40
1.500000000000028
100
AcDbArc
 50
0.0
 51
90.0
  0
ARC
  5
416
330
1F
100
AcDbEntity
  8
0
  6
Continuous
 62
     7
370
    25
100
AcDbCircle
 10
-8.5
 20
194.1872895168
 30
0.0
 40
1.500000000000101
100
AcDbArc
 50
0.0
 51
92.5063609669
  0
ARC
  5
417
330
1F
100
AcDbEntity
  8
0
  6
Continuous
 62
     7
370
    25
100
AcDbCircle
 10
0.0
 20
0.0000000001
 30
0.0
 40
195.8732322359009
100
AcDbArc
 50
92.5063609669
 51
95.625
  0
ARC
  5
418
330
1F
100
AcDbEntity
  8
0
  6
Continuous
 62
     7
370
    25
100
AcDbCircle
 10
0.0
 20
-0.0000000001
 30
0.0
 40
201.8732322360897
100
AcDbArc
 50
92.395379276
 51
95.625
  0
ARC
  5
419
330
1F
100
AcDbEntity
  8
0
  6
Continuous
 62
     7
370
    25
100
AcDbCircle
 10
-8.5
 20
203.195525517
 30
0.0
 40
1.499999999999897
100
AcDbArc
 50
272.395379276
 51
0.0
  0
ARC
  5
41A
330
1F
100
AcDbEntity
  8
0
  6
Continuous
 62
     7
370
    25
100
AcDbCircle
 10
-4.5
 20
211.25
 30
0.0
 40
1.500000000000256
100
AcDbArc
 50
270.0
 51
360.0
  0
ARC
  5
41B
330
1F
100
AcDbEntity
  8
0
  6
Continuous
 62
     7
370
    25
100
AcDbCircle
 10
-4.5
 20
236.25
 30
0.0
 40
1.499999999999972
100
AcDbArc
 50
360.0
 51
90.0
  0
ARC
  5
41C
330
1F
100
AcDbEntity
  8
0
  6
Continuous
 62
     7
370
    25
100
AcDbCircle
 10
-8.5
 20
244.200586083
 30
0.0
 40
1.499999999999967
100
AcDbArc
 50
360.0
 51
91.9935152264
  0
ARC
  5
41D
330
1F
100
AcDbEntity
  8
0
  6
Continuous
 62
     7
370
    25
100
AcDbCircle
 10
0.0
 20
-0.0000000002
 30
0.0
 40
245.8484729712175
100
AcDbArc
 50
91.9935152264
 51
95.625
  0
ARC
  5
41E
330
1F
100
AcDbEntity
  8
0
  6
Continuous
 62
     7
370
    25
100
AcDbCircle
 10
0.0
 20
-0.0000000001
 30
0.0
 40
251.8484729710869
100
AcDbArc
 50
91.9226701228
 51
95.625
  0
ARC
  5
41F
330
1F
100
AcDbEntity
  8
0
  6
Continuous
 62
     7
370
    25
100
AcDbCircle
 10
-8.5
 20
253.2058426592
 30
0.0
 40
1.499999999999946
100
AcDbArc
 50
271.9226701228
 51
0.0
  0
ARC
  5
420
330
1F
100
AcDbEntity
  8
0
  6
Continuous
 62
     7
370
    25
100
AcDbCircle
 10
-4.5
 20
261.25
 30
0.0
 40
1.500000000000057
100
AcDbArc
 50
270.0
 51
0.0
  0
ARC
  5
421
330
1F
100
AcDbEntity
  8
0
  6
Continuous
 62
     7
370
    25
100
AcDbCircle
 10
-4.5
 20
286.25
 30
0.0
 40
1.499999999999964
100
AcDbArc
 50
360.0
 51
90.0
  0
ARC
  5
422
330
1F
100
AcDbEntity
  8
0
  6
Continuous
 62
     7
370
    25
100
AcDbCircle
 10
-8.5
 20
294.209235963
 30
0.0
 40
1.500000000000129
100
AcDbArc
 50
0.0
 51
91.6548722209
  0
ARC
  5
423
330
1F
100
AcDbEntity
  8
0
  6
Continuous
 62
     7
370
    25
100
AcDbCircle
 10
0.0
 20
-0.0000000001
 30
0.0
 40
295.8319971155185
100
AcDbArc
 50
91.6548722209
 51
95.625
  0
ARC
  5
424
330
1F
100
AcDbEntity
  8
0
  6
Continuous
 62
     7
370
    25
100
AcDbCircle
 10
0.0
 20
0.0
 30
0.0
 40
301.8319971153999
100
AcDbArc
 50
91.6057583441
 51
95.625
  0
ARC
  5
425
330
1F
100
AcDbEntity
  8
0
  6
Continuous
 62
     7
370
    25
100
AcDbCircle
 10
-8.5
 20
303.2128797958
 30
0.0
 40
1.500000000000061
100
AcDbArc
 50
271.6057583441
 51
0.0
  0
ARC
  5
426
330
1F
100
AcDbEntity
  8
0
  6
Continuous
 62
     7
370
    25
100
AcDbCircle
 10
8.5
 20
303.2128797958
 30
0.0
 40
1.499999999999999
100
AcDbArc
 50
180.0
 51
268.3942416559
  0
ARC
  5
427
330
1F
100
AcDbEntity
  8
0
  6
Continuous
 62
     7
370
    25
100
AcDbCircle
 10
0.0
 20
0.0
 30
0.0
 40
301.8319971154847
100
AcDbArc
 50
80.3557583441
 51
88.3942416559
  0
ARC
  5
428
330
1F
100
AcDbEntity
  8
0
  6
Continuous
 62
     7
370
    25
100
AcDbCircle
 10
50.8172234754
 20
299.0449970695
 30
0.0
 40
1.50000000000017
100
AcDbArc
 50
260.3557583441
 51
348.75
  0
ARC
  5
429
330
1F
100
AcDbEntity
  8
0
  6
Continuous
 62
     7
370
    25
100
AcDbCircle
 10
67.4905732422
 20
295.7284615952
 30
0.0
 40
1.50000000000014
100
AcDbArc
 50
168.75
 51
257.1442416559
  0
ARC
  5
42A
330
1F
100
AcDbEntity
  8
0
  6
Continuous
 62
     7
370
    25
100
AcDbCircle
 10
0.0
 20
0.0
 30
0.0
 40
301.8319971154646
100
AcDbArc
 50
69.1057583441
 51
77.1442416559
  0
ARC
  5
42B
330
1F
100
AcDbEntity
  8
0
  6
Continuous
 62
     7
370
    25
100
AcDbCircle
 10
108.1815695512
 20
283.3849828122
 30
0.0
 40
1.500000000000039
100
AcDbArc
 50
249.1057583441
 51
337.5
  0
ARC
  5
42C
330
1F
100
AcDbEntity
  8
0
  6
Continuous
 62
     7
370
    25
100
AcDbCircle
 10
123.8875216039
 20
276.879364462
 30
0.0
 40
1.499999999999985
100
AcDbArc
 50
157.5
 51
245.8942416559
  0
ARC
  5
42D
330
1F
100
AcDbEntity
  8
0
  6
Continuous
 62
     7
370
    25
100
AcDbCircle
 10
0.0
 20
-0.0000000001
 30
0.0
 40
301.8319971154967
100
AcDbArc
 50
57.8557583441
 51
65.8942416559
  0
ARC
  5
42E
330
1F
100
AcDbEntity
  8
0
  6
Continuous
 62
     7
370
    25
100
AcDbCircle
 10
161.3885585781
 20
256.8346425896
 30
0.0
 40
1.500000000000042
100
AcDbArc
 50
237.8557583441
 51
326.25
  0
ARC
  5
42F
330
1F
100
AcDbEntity
  8
0
  6
Continuous
 62
     7
370
    25
100
AcDbCircle
 10
175.5235419872
 20
247.3899486283
 30
0.0
 40
1.50000000000001
100
AcDbArc
 50
146.25
 51
234.6442416559
  0
ARC
  5
430
330
1F
100
AcDbEntity
  8
0
  6
Continuous
 62
     7
370
    25
100
AcDbCircle
 10
0.0
 20
0.0
 30
0.0
 40
301.8319971154613
100
AcDbArc
 50
46.6057583441
 51
54.6442416559
  0
ARC
  5
431
330
1F
100
AcDbEntity
  8
0
  6
Continuous
 62
     7
370
    25
100
AcDbCircle
 10
208.3934758066
 20
220.4142910868
 30
0.0
 40
1.499999999999946
100
AcDbArc
 50
226.6057583441
 51
315.0
  0
ARC
  5
432
330
1F
100
AcDbEntity
  8
0
  6
Continuous
 62
     7
370
    25
100
AcDbCircle
 10
220.4142910868
 20
208.3934758066
 30
0.0
 40
1.499999999999838
100
AcDbArc
 50
135.0
 51
223.3942416559
  0
ARC
  5
433
330
1F
100
AcDbEntity
  8
0
  6
Continuous
 62
     7
370
    25
100
AcDbCircle
 10
0.0
 20
0.0
 30
0.0
 40
301.8319971154756
100
AcDbArc
 50
35.3557583441
 51
43.3942416559
  0
ARC
  5
434
330
1F
100
AcDbEntity
  8
0
  6
Continuous
 62
     7
370
    25
100
AcDbCircle
 10
247.3899486283
 20
175.5235419872
 30
0.0
 40
1.500000000000244
100
AcDbArc
 50
215.3557583441
 51
303.75
  0
ARC
  5
435
330
1F
100
AcDbEntity
  8
0
  6
Continuous
 62
     7
370
    25
100
AcDbCircle
 10
256.8346425896
 20
161.3885585781
 30
0.0
 40
1.499999999999869
100
AcDbArc
 50
123.75
 51
212.1442416559
  0
ARC
  5
436
330
1F
100
AcDbEntity
  8
0
  6
Continuous
 62
     7
370
    25
100
AcDbCircle
 10
0.0
 20
0.0
 30
0.0
 40
301.8319971154774
100
AcDbArc
 50
24.1057583441
 51
32.1442416559
  0
ARC
  5
437
330
1F
100
AcDbEntity
  8
0
  6
Continuous
 62
     7
370
    25
100
AcDbCircle
 10
276.879364462
 20
123.8875216039
 30
0.0
 40
1.500000000000026
100
AcDbArc
 50
204.1057583441
 51
292.5
  0
ARC
  5
438
330
1F
100
AcDbEntity
  8
0
  6
Continuous
 62
     7
370
    25
100
AcDbCircle
 10
283.3849828122
 20
108.1815695512
 30
0.0
 40
1.499999999999885
100
AcDbArc
 50
112.5
 51
200.8942416559
  0
ARC
  5
439
330
1F
100
AcDbEntity
  8
0
  6
Continuous
 62
     7
370
    25
100
AcDbCircle
 10
0.0
 20
0.0
 30
0.0
 40
301.8319971154864
100
AcDbArc
 50
12.8557583441
 51
20.8942416559
  0
ARC
  5
43A
330
1F
100
AcDbEntity
  8
0
  6
Continuous
 62
     7
370
    25
100
AcDbCircle
 10
295.7284615952
 20
67.4905732422
 30
0.0
 40
1.500000000000324
100
AcDbArc
 50
192.8557583441
 51
281.25
  0
ARC
  5
43B
330
1F
100
AcDbEntity
  8
0
  6
Continuous
 62
     7
370
    25
100
AcDbCircle
 10
299.0449970695
 20
50.8172234754
 30
0.0
 40
1.49999999999996
100
AcDbArc
 50
101.25
 51
189.6442416559
  0
ARC
  5
43C
330
1F
100
AcDbEntity
  8
0
  6
Continuous
 62
     7
370
    25
100
AcDbCircle
 10
0.0
 20
0.0
 30
0.0
 40
301.8319971154077
100
AcDbArc
 50
5.625
 51
9.6442416559
  0
ARC
  5
43D
330
1F
100
AcDbEntity
  8
0
  6
Continuous
 62
     7
370
    25
100
AcDbCircle
 10
-0.0000000001
 20
0.0
 30
0.0
 40
295.8319971154955
100
AcDbArc
 50
5.625
 51
9.5951277791
  0
ARC
  5
43E
330
1F
100
AcDbEntity
  8
0
  6
Continuous
 62
     7
370
    25
100
AcDbCircle
 10
290.2143557284
 20
49.0606997007
 30
0.0
 40
1.500000000000098
100
AcDbArc
 50
9.5951277791
 51
101.25
  0
ARC
  5
43F
330
1F
100
AcDbEntity
  8
0
  6
Continuous
 62
     7
370
    25
100
AcDbCircle
 10
286.8978202541
 20
65.7340494676
 30
0.0
 40
1.500000000000082
100
AcDbArc
 50
281.25
 51
12.9048722209
  0
ARC
  5
440
330
1F
100
AcDbEntity
  8
0
  6
Continuous
 62
     7
370
    25
100
AcDbCircle
 10
0.0
 20
0.0
 30
0.0
 40
295.8319971154435
100
AcDbArc
 50
12.9048722209
 51
20.8451277791
  0
ARC
  5
441
330
1F
100
AcDbEntity
  8
0
  6
Continuous
 62
     7
370
    25
100
AcDbCircle
 10
275.0667005571
 20
104.7360242255
 30
0.0
 40
1.500000000000034
100
AcDbArc
 50
20.8451277791
 51
112.5
  0
ARC
  5
442
330
1F
100
AcDbEntity
  8
0
  6
Continuous
 62
     7
370
    25
100
AcDbCircle
 10
266.182591627
 20
105.3856746182
 30
0.0
 40
1.500000000000201
100
AcDbArc
 50
22.4999999999
 51
112.5
  0
ARC
  5
443
330
1F
100
AcDbEntity
  8
0
  6
Continuous
 62
     7
370
    25
100
AcDbCircle
 10
243.0856033142
 20
95.8185888091
 30
0.0
 40
1.500000000016897
100
AcDbArc
 50
112.5000000003
 51
202.4999999993
  0
ARC
  5
444
330
1F
100
AcDbEntity
  8
0
  6
Continuous
 62
     7
370
    25
100
AcDbCircle
 10
237.1845047202
 20
89.0447049374
 30
0.0
 40
1.500000000000098
100
AcDbArc
 50
112.5
 51
200.5773298772
  0
ARC
  5
445
330
1F
100
AcDbEntity
  8
0
  6
Continuous
 62
     7
370
    25
100
AcDbCircle
 10
0.0
 20
0.0
 30
0.0
 40
251.8484729710272
100
AcDbArc
 50
13.1726701228
 51
20.5773298772
  0
ARC
  5
446
330
1F
100
AcDbEntity
  8
0
  6
Continuous
 62
     7
370
    25
100
AcDbCircle
 10
246.6822956551
 20
57.7346842642
 30
0.0
 40
1.500000000000031
100
AcDbArc
 50
193.1726701228
 51
281.25
  0
ARC
  5
447
330
1F
100
AcDbEntity
  8
0
  6
Continuous
 62
     7
370
    25
100
AcDbCircle
 10
249.9988311293
 20
41.0613344973
 30
0.0
 40
1.500000000000001
100
AcDbArc
 50
101.25
 51
189.3273298772
  0
ARC
  5
448
330
1F
100
AcDbEntity
  8
0
  6
Continuous
 62
     7
370
    25
100
AcDbCircle
 10
0.0
 20
0.0
 30
0.0
 40
251.8484729710296
100
AcDbArc
 50
5.625
 51
9.3273298772
  0
ARC
  5
449
330
1F
100
AcDbEntity
  8
0
  6
Continuous
 62
     7
370
    25
100
AcDbCircle
 10
-0.0000000002
 20
0.0
 30
0.0
 40
245.8484729711912
100
AcDbArc
 50
5.625
 51
9.2564847736
  0
ARC
  5
44A
330
1F
100
AcDbEntity
  8
0
  6
Continuous
 62
     7
370
    25
100
AcDbCircle
 10
241.1666080331
 20
39.304496092
 30
0.0
 40
1.500000000000034
100
AcDbArc
 50
9.2564847736
 51
101.25
  0
ARC
  5
44B
330
1F
100
AcDbEntity
  8
0
  6
Continuous
 62
     7
370
    25
100
AcDbCircle
 10
237.8500725589
 20
55.9778458589
 30
0.0
 40
1.499999999999994
100
AcDbArc
 50
281.25
 51
13.2435152264
  0
ARC
  5
44C
330
1F
100
AcDbEntity
  8
0
  6
Continuous
 62
     7
370
    25
100
AcDbCircle
 10
0.0
 20
0.0
 30
0.0
 40
245.8484729709909
100
AcDbArc
 50
13.2435152264
 51
20.5064847736
  0
ARC
  5
44D
330
1F
100
AcDbEntity
  8
0
  6
Continuous
 62
     7
370
    25
100
AcDbCircle
 10
228.8647324844
 20
85.5985424414
 30
0.0
 40
1.500000000000051
100
AcDbArc
 50
20.5064847736
 51
112.5
  0
ARC
  5
44E
330
1F
100
AcDbEntity
  8
0
  6
Continuous
 62
     7
370
    25
100
AcDbCircle
 10
219.9886150014
 20
86.251503
 30
0.0
 40
1.499999999999947
100
AcDbArc
 50
22.4999999999
 51
112.5
  0
ARC
  5
44F
330
1F
100
AcDbEntity
  8
0
  6
Continuous
 62
     7
370
    25
100
AcDbCircle
 10
196.8916266887
 20
76.6844171908
 30
0.0
 40
1.500000000016812
100
AcDbArc
 50
112.5000000003
 51
202.4999999993
  0
ARC
  5
450
330
1F
100
AcDbEntity
  8
0
  6
Continuous
 62
     7
370
    25
100
AcDbCircle
 10
190.9809962981
 20
69.9065851197
 30
0.0
 40
1.500000000000093
100
AcDbArc
 50
112.5
 51
200.104620724
  0
ARC
  5
451
330
1F
100
AcDbEntity
  8
0
  6
Continuous
 62
     7
370
    25
100
AcDbCircle
 10
0.0
 20
0.0
 30
0.0
 40
201.8732322360075
100
AcDbArc
 50
13.645379276
 51
20.104620724
  0
ARC
  5
452
330
1F
100
AcDbEntity
  8
0
  6
Continuous
 62
     7
370
    25
100
AcDbCircle
 10
197.6329127337
 20
47.9781553888
 30
0.0
 40
1.499999999999956
100
AcDbArc
 50
193.645379276
 51
281.25
  0
ARC
  5
453
330
1F
100
AcDbEntity
  8
0
  6
Continuous
 62
     7
370
    25
100
AcDbCircle
 10
200.949448208
 20
31.3048056219
 30
0.0
 40
1.500000000000053
100
AcDbArc
 50
101.25
 51
188.854620724
  0
ARC
  5
454
330
1F
100
AcDbEntity
  8
0
  6
Continuous
 62
     7
370
    25
100
AcDbCircle
 10
0.0
 20
0.0
 30
0.0
 40
201.8732322359975
100
AcDbArc
 50
5.625
 51
8.854620724
  0
ARC
  5
455
330
1F
100
AcDbEntity
  8
0
  6
Continuous
 62
     7
370
    25
100
AcDbCircle
 10
0.0000000001
 20
0.0
 30
0.0
 40
195.8732322359273
100
AcDbArc
 50
5.625
 51
8.7436390331
  0
ARC
  5
456
330
1F
100
AcDbEntity
  8
0
  6
Continuous
 62
     7
370
    25
100
AcDbCircle
 10
192.1143029366
 20
29.5473859598
 30
0.0
 40
1.500000000000016
100
AcDbArc
 50
8.7436390331
 51
101.25
  0
ARC
  5
457
330
1F
100
AcDbEntity
  8
0
  6
Continuous
 62
     7
370
    25
100
AcDbCircle
 10
188.7977674623
 20
46.2207357267
 30
0.0
 40
1.500000000000038
100
AcDbArc
 50
281.25
 51
13.7563609669
  0
ARC
  5
458
330
1F
100
AcDbEntity
  8
0
  6
Continuous
 62
     7
370
    25
100
AcDbCircle
 10
0.0
 20
0.0
 30
0.0
 40
195.87323223601
100
AcDbArc
 50
13.7563609669
 51
19.9936390331
  0
ARC
  5
459
330
1F
100
AcDbEntity
  8
0
  6
Continuous
 62
     7
370
    25
100
AcDbCircle
 10
182.6584714335
 20
66.4592824476
 30
0.0
 40
1.499999999999932
100
AcDbArc
 50
19.9936390331
 51
112.5
  0
ARC
  5
45A
330
1F
100
AcDbEntity
  8
0
  6
Continuous
 62
     7
370
    25
100
AcDbCircle
 10
173.7946383759
 20
67.1173313817
 30
0.0
 40
1.499999999999965
100
AcDbArc
 50
22.5
 51
112.5
  0
ARC
  5
45B
330
1F
100
AcDbEntity
  8
0
  6
Continuous
 62
     7
370
    25
100
AcDbCircle
 10
150.6976500631
 20
57.5502455726
 30
0.0
 40
1.500000000000016
100
AcDbArc
 50
112.5
 51
202.5
  0
ARC
  5
45C
330
1F
100
AcDbEntity
  8
0
  6
Continuous
 62
     7
370
    25
100
AcDbCircle
 10
144.7717158738
 20
50.7660744605
 30
0.0
 40
1.499999999999947
100
AcDbArc
 50
112.5
 51
199.3238773032
  0
ARC
  5
45D
330
1F
100
AcDbEntity
  8
0
  6
Continuous
 62
     7
370
    25
100
AcDbCircle
 10
0.0
 20
0.0
 30
0.0
 40
151.9146147965287
100
AcDbArc
 50
5.625
 51
19.3238773032
  0
ARC
  5
45E
330
1F
100
AcDbEntity
  8
0
  6
Continuous
 62
     7
370
    25
100
AcDbCircle
 10
0.0
 20
0.0
 30
0.0
 40
145.9146147965365
100
AcDbArc
 50
5.625
 51
19.125717143
  0
ARC
  5
45F
330
1F
100
AcDbEntity
  8
0
  6
Continuous
 62
     7
370
    25
100
AcDbCircle
 10
136.443209034
 20
47.3162939731
 30
0.0
 40
1.50000000000005
100
AcDbArc
 50
19.125717143
 51
112.5
  0
ARC
  5
460
330
1F
100
AcDbEntity
  8
0
  6
Continuous
 62
     7
370
    25
100
AcDbCircle
 10
127.6006617503
 20
47.9831597634
 30
0.0
 40
1.500000000000311
100
AcDbArc
 50
22.5
 51
112.5
  0
ARC
  5
461
330
1F
100
AcDbEntity
  8
0
  6
Continuous
 62
     7
370
    25
100
AcDbCircle
 10
90.7794620309
 20
32.7313194568
 30
0.0
 40
1.499999999999974
100
AcDbArc
 50
112.5
 51
199.8272067981
  0
ARC
  5
462
330
1F
100
AcDbEntity
  8
0
  6
Continuous
 62
     7
370
    25
100
AcDbCircle
 10
0.0
 20
0.0
 30
0.0
 40
95.0000000000075
100
AcDbArc
 50
12.726103399
 51
19.8272067981
  0
ARC
  5
463
330
1F
100
AcDbEntity
  8
0
  6
Continuous
 62
     7
370
    25
100
AcDbCircle
 10
0.0
 20
-0.0000000002
 30
0.0
 40
151.9146147967099
100
AcDbArc
 50
93.1761226968
 51
95.625
  0
ARC
  5
464
330
1F
100
AcDbEntity
  8
0
  6
Continuous
 62
     7
370
    25
100
AcDbCircle
 10
0.0
 20
-0.0000000003
 30
0.0
 40
145.9146147968731
100
AcDbArc
 50
93.374282857
 51
95.625
  0
ENDSEC
  0
SECTION
  2
OBJECTS
  0
DICTIONARY
  5
C
330
0
100
AcDbDictionary
281
     1
  3
ACAD_GROUP
350
D
  3
ACAD_LAYOUT
350
1A
  3
ACAD_MLINESTYLE
350
17
  3
ACAD_PLOTSETTINGS
350
19
  3
ACAD_PLOTSTYLENAME
350
E
  3
ACAD_SCALELIST
350
47
  3
DWGPROPS
350
465
  0
DICTIONARY
  5
D
102
{ACAD_REACTORS
330
C
102
}
330
C
100
AcDbDictionary
281
     1
  0
DICTIONARY
  5
1A
102
{ACAD_REACTORS
330
C
102
}
330
C
100
AcDbDictionary
281
     1
  3
Layout1
350
1E
  3
Layout2
350
26
  3
Model
350
22
  0
DICTIONARY
  5
17
102
{ACAD_REACTORS
330
C
102
}
330
C
100
AcDbDictionary
281
     1
  3
Standard
350
18
  0
DICTIONARY
  5
19
102
{ACAD_REACTORS
330
C
102
}
330
C
100
AcDbDictionary
281
     1
  0
ACDBDICTIONARYWDFLT
  5
E
102
{ACAD_REACTORS
330
C
102
}
330
C
100
AcDbDictionary
281
     1
  3
Normal
350
F
100
AcDbDictionaryWithDefault
340
F
  0
DICTIONARY
  5
47
102
{ACAD_REACTORS
330
C
102
}
330
C
100
AcDbDictionary
281
     1
  3
A0
350
48
  3
A1
350
49
  3
A2
350
4A
  3
A3
350
4B
  3
A4
350
4C
  3
A5
350
4D
  3
A6
350
4E
  3
A7
350
4F
  3
A8
350
50
  3
A9
350
51
  3
B0
350
52
  3
B1
350
53
  3
B2
350
54
  3
B3
350
55
  3
B4
350
56
  3
B5
350
57
  3
B6
350
58
  0
XRECORD
  5
465
102
{ACAD_REACTORS
330
C
102
}
330
C
100
AcDbXrecord
280
     1
  1
DWGPROPS COOKIE
  2

  3

  4

  6

  7

  8
Admin
  9

300
=
301
=
302
=
303
=
304
=
305
=
306
=
307
=
308
=
309
=
 40
0.0
 41
2460253.525298009
 42
2460253.525353611
  1

 90
        0
  0
LAYOUT
  5
1E
102
{ACAD_REACTORS
330
1A
102
}
330
1A
100
AcDbPlotSettings
  1

  2
none_device
  4

  6

 40
0.0
 41
0.0
 42
0.0
 43
0.0
 44
0.0
 45
0.0
 46
0.0
 47
0.0
 48
0.0
 49
0.0
140
0.0
141
0.0
142
1.0
143
1.0
 70
   688
 72
     1
 73
     0
 74
     5
  7

 75
    16
147
1.0
148
0.0
149
0.0
100
AcDbLayout
  1
Layout1
 70
     1
 71
     1
 10
0.0
 20
0.0
 11
420.0
 21
297.0
 12
0.0
 22
0.0
 32
0.0
 14
1.0000000000E+20
 24
1.0000000000E+20
 34
1.0000000000E+20
 15
-1.0000000000E+20
 25
-1.0000000000E+20
 35
-1.0000000000E+20
146
0.0
 13
0.0
 23
0.0
 33
0.0
 16
1.0
 26
0.0
 36
0.0
 17
0.0
 27
1.0
 37
0.0
 76
     0
330
1B
  0
LAYOUT
  5
26
102
{ACAD_REACTORS
330
1A
102
}
330
1A
100
AcDbPlotSettings
  1

  2
none_device
  4

  6

 40
0.0
 41
0.0
 42
0.0
 43
0.0
 44
0.0
 45
0.0
 46
0.0
 47
0.0
 48
0.0
 49
0.0
140
0.0
141
0.0
142
1.0
143
1.0
 70
   688
 72
     1
 73
     0
 74
     5
  7

 75
    16
147
1.0
148
0.0
149
0.0
100
AcDbLayout
  1
Layout2
 70
     1
 71
     2
 10
0.0
 20
0.0
 11
0.0
 21
0.0
 12
0.0
 22
0.0
 32
0.0
 14
0.0
 24
0.0
 34
0.0
 15
0.0
 25
0.0
 35
0.0
146
0.0
 13
0.0
 23
0.0
 33
0.0
 16
1.0
 26
0.0
 36
0.0
 17
0.0
 27
1.0
 37
0.0
 76
     0
330
23
  0
LAYOUT
  5
22
102
{ACAD_REACTORS
330
1A
102
}
330
1A
100
AcDbPlotSettings
  1

  2
none_device
  4
ANSI_A_(11.00_x_8.50_Inches)
  6

 40
6.35
 41
19.05
 42
6.35000508
 43
19.05000254
 44
279.4
 45
215.9
 46
33.6664785556
 47
-28.3173428368
 48
0.0
 49
0.0
140
0.0
141
0.0
142
0.0284821823
143
1.0
 70
  1696
 72
     0
 73
     0
 74
     0
  7

 75
     0
147
0.0179189148
148
-1300.4909072572
149
0.0
100
AcDbLayout
  1
Model
 70
     1
 71
     0
 10
0.0
 20
0.0
 11
420.0
 21
297.0
 12
0.0
 22
0.0
 32
0.0
 14
-29.5847092172
 24
14.3021332746
 34
0.0
 15
305.163872859
 25
309.75
 35
0.0
146
0.0
 13
0.0
 23
0.0
 33
0.0
 16
1.0
 26
0.0
 36
0.0
 17
0.0
 27
1.0
 37
0.0
 76
     0
330
1F
331
29
  0
MLINESTYLE
  5
18
102
{ACAD_REACTORS
330
17
102
}
330
17
100
AcDbMlineStyle
  2
Standard
 70
     0
  3

 62
   256
 51
90.0
 52
90.0
 71
     2
 49
0.5
 62
   256
  6
BYLAYER
 49
-0.5
 62
   256
  6
BYLAYER
  0
ACDBPLACEHOLDER
  5
F
102
{ACAD_REACTORS
330
E
102
}
330
E
  0
SCALE
  5
48
102
{ACAD_REACTORS
330
47
102
}
330
47
100
AcDbScale
 70
     0
300
1:1
140
1.0
141
1.0
290
     1
  0
SCALE
  5
49
102
{ACAD_REACTORS
330
47
102
}
330
47
100
AcDbScale
 70
     0
300
1:2
140
1.0
141
2.0
290
     0
  0
SCALE
  5
4A
102
{ACAD_REACTORS
330
47
102
}
330
47
100
AcDbScale
 70
     0
300
1:4
140
1.0
141
4.0
290
     0
  0
SCALE
  5
4B
102
{ACAD_REACTORS
330
47
102
}
330
47
100
AcDbScale
 70
     0
300
1:5
140
1.0
141
5.0
290
     0
  0
SCALE
  5
4C
102
{ACAD_REACTORS
330
47
102
}
330
47
100
AcDbScale
 70
     0
300
1:8
140
1.0
141
8.0
290
     0
  0
SCALE
  5
4D
102
{ACAD_REACTORS
330
47
102
}
330
47
100
AcDbScale
 70
     0
300
1:10
140
1.0
141
10.0
290
     0
  0
SCALE
  5
4E
102
{ACAD_REACTORS
330
47
102
}
330
47
100
AcDbScale
 70
     0
300
1:16
140
1.0
141
16.0
290
     0
  0
SCALE
  5
4F
102
{ACAD_REACTORS
330
47
102
}
330
47
100
AcDbScale
 70
     0
300
1:20
140
1.0
141
20.0
290
     0
  0
SCALE
  5
50
102
{ACAD_REACTORS
330
47
102
}
330
47
100
AcDbScale
 70
     0
300
1:30
140
1.0
141
30.0
290
     0
  0
SCALE
  5
51
102
{ACAD_REACTORS
330
47
102
}
330
47
100
AcDbScale
 70
     0
300
1:40
140
1.0
141
40.0
290
     0
  0
SCALE
  5
52
102
{ACAD_REACTORS
330
47
102
}
330
47
100
AcDbScale
 70
     0
300
1:50
140
1.0
141
50.0
290
     0
  0
SCALE
  5
53
102
{ACAD_REACTORS
330
47
102
}
330
47
100
AcDbScale
 70
     0
300
1:100
140
1.0
141
100.0
290
     0
  0
SCALE
  5
54
102
{ACAD_REACTORS
330
47
102
}
330
47
100
AcDbScale
 70
     0
300
2:1
140
2.0
141
1.0
290
     0
  0
SCALE
  5
55
102
{ACAD_REACTORS
330
47
102
}
330
47
100
AcDbScale
 70
     0
300
4:1
140
4.0
141
1.0
290
     0
  0
SCALE
  5
56
102
{ACAD_REACTORS
330
47
102
}
330
47
100
AcDbScale
 70
     0
300
8:1
140
8.0
141
1.0
290
     0
  0
SCALE
  5
57
102
{ACAD_REACTORS
330
47
102
}
330
47
100
AcDbScale
 70
     0
300
10:1
140
10.0
141
1.0
290
     0
  0
SCALE
  5
58
102
{ACAD_REACTORS
330
47
102
}
330
47
100
AcDbScale
 70
     0
300
100:1
140
100.0
141
1.0
290
     0
  0
ENDSEC
  0
EOF
