  0
SECTION
  2
HEADER
  9
$ACADVER
  1
AC1015
  9
$ACADMAINTVER
 70
     6
  9
$DWGCODEPAGE
  3
ANSI_1252
  9
$INSBASE
 10
0.0
 20
0.0
 30
0.0
  9
$EXTMIN
 10
-0.9612491624
 20
-9.2946016447
 30
0.0
  9
$EXTMAX
 10
29.3602075844
 20
30.975
 30
0.0
  9
$LIMMIN
 10
0.0
 20
0.0
  9
$LIMMAX
 10
420.0
 20
297.0
  9
$ORTHOMODE
 70
     0
  9
$REGENMODE
 70
     1
  9
$FILLMODE
 70
     1
  9
$QTEXTMODE
 70
     0
  9
$MIRRTEXT
 70
     1
  9
$LTSCALE
 40
1.0
  9
$ATTMODE
 70
     1
  9
$TEXTSIZE
 40
0.35
  9
$TRACEWID
 40
1.0
  9
$TEXTSTYLE
  7
Standard
  9
$CLAYER
  8
0
  9
$CELTYPE
  6
ByLayer
  9
$CECOLOR
 62
   256
  9
$CELTSCALE
 40
1.0
  9
$DISPSILH
 70
     0
  9
$DIMSCALE
 40
1.0
  9
$DIMASZ
 40
0.3302
  9
$DIMEXO
 40
0.0
  9
$DIMDLI
 40
3.75
  9
$DIMRND
 40
0.0
  9
$DIMDLE
 40
0.0
  9
$DIMEXE
 40
0.1
  9
$DIMTP
 40
0.0
  9
$DIMTM
 40
0.0
  9
$DIMTXT
 40
0.35
  9
$DIMCEN
 40
2.5
  9
$DIMTSZ
 40
0.0
  9
$DIMTOL
 70
     0
  9
$DIMLIM
 70
     0
  9
$DIMTIH
 70
     1
  9
$DIMTOH
 70
     1
  9
$DIMSE1
 70
     0
  9
$DIMSE2
 70
     0
  9
$DIMTAD
 70
     1
  9
$DIMZIN
 70
     1
  9
$DIMBLK
  1

  9
$DIMASO
 70
     1
  9
$DIMSHO
 70
     1
  9
$DIMPOST
  1

  9
$DIMAPOST
  1

  9
$DIMALT
 70
     0
  9
$DIMALTD
 70
     3
  9
$DIMALTF
 40
0.3937007874
  9
$DIMLFAC
 40
1.0
  9
$DIMTOFL
 70
     1
  9
$DIMTVP
 40
0.0
  9
$DIMTIX
 70
     0
  9
$DIMSOXD
 70
     0
  9
$DIMSAH
 70
     0
  9
$DIMBLK1
  1

  9
$DIMBLK2
  1

  9
$DIMSTYLE
  2
ISO-25
  9
$DIMCLRD
 70
     0
  9
$DIMCLRE
 70
     0
  9
$DIMCLRT
 70
     0
  9
$DIMTFAC
 40
1.0
  9
$DIMGAP
 40
0.1524
  9
$DIMJUST
 70
     0
  9
$DIMSD1
 70
     0
  9
$DIMSD2
 70
     0
  9
$DIMTOLJ
 70
     0
  9
$DIMTZIN
 70
     1
  9
$DIMALTZ
 70
     0
  9
$DIMALTTZ
 70
     0
  9
$DIMUPT
 70
     0
  9
$DIMDEC
 70
     2
  9
$DIMTDEC
 70
     2
  9
$DIMALTU
 70
     2
  9
$DIMALTTD
 70
     3
  9
$DIMTXSTY
  7
Standard
  9
$DIMAUNIT
 70
     0
  9
$DIMADEC
 70
     2
  9
$DIMALTRND
 40
0.0
  9
$DIMAZIN
 70
     0
  9
$DIMDSEP
 70
    44
  9
$DIMATFIT
 70
     3
  9
$DIMFRAC
 70
     0
  9
$DIMLDRBLK
  1

  9
$DIMLUNIT
 70
     2
  9
$DIMLWD
 70
    -2
  9
$DIMLWE
 70
    -2
  9
$DIMTMOVE
 70
     0
  9
$LUNITS
 70
     2
  9
$LUPREC
 70
     2
  9
$SKETCHINC
 40
1.0
  9
$FILLETRAD
 40
0.0
  9
$AUNITS
 70
     0
  9
$AUPREC
 70
     2
  9
$MENU
  1
.
  9
$ELEVATION
 40
0.0
  9
$PELEVATION
 40
0.0
  9
$THICKNESS
 40
0.0
  9
$LIMCHECK
 70
     0
  9
$CHAMFERA
 40
0.0
  9
$CHAMFERB
 40
0.0
  9
$CHAMFERC
 40
0.0
  9
$CHAMFERD
 40
0.0
  9
$SKPOLY
 70
     0
  9
$TDCREATE
 40
2460254.005394826
  9
$TDUCREATE
 40
2460253.96372816
  9
$TDUPDATE
 40
2460254.00545059
  9
$TDUUPDATE
 40
2460253.963783924
  9
$TDINDWG
 40
0.0000000116
  9
$TDUSRTIMER
 40
0.0000000116
  9
$USRTIMER
 70
     1
  9
$ANGBASE
 50
0.0
  9
$ANGDIR
 70
     0
  9
$PDMODE
 70
     0
  9
$PDSIZE
 40
-1.0
  9
$PLINEWID
 40
0.0
  9
$SPLFRAME
 70
     0
  9
$SPLINETYPE
 70
     6
  9
$SPLINESEGS
 70
     8
  9
$HANDSEED
  5
1DA
  9
$SURFTAB1
 70
     6
  9
$SURFTAB2
 70
     6
  9
$SURFTYPE
 70
     6
  9
$SURFU
 70
     6
  9
$SURFV
 70
     6
  9
$UCSBASE
  2

  9
$UCSNAME
  2

  9
$UCSORG
 10
0.0
 20
0.0
 30
0.0
  9
$UCSXDIR
 10
1.0
 20
0.0
 30
0.0
  9
$UCSYDIR
 10
0.0
 20
1.0
 30
0.0
  9
$UCSORTHOREF
  2

  9
$UCSORTHOVIEW
 70
     0
  9
$UCSORGTOP
 10
0.0
 20
0.0
 30
0.0
  9
$UCSORGBOTTOM
 10
0.0
 20
0.0
 30
0.0
  9
$UCSORGLEFT
 10
0.0
 20
0.0
 30
0.0
  9
$UCSORGRIGHT
 10
0.0
 20
0.0
 30
0.0
  9
$UCSORGFRONT
 10
0.0
 20
0.0
 30
0.0
  9
$UCSORGBACK
 10
0.0
 20
0.0
 30
0.0
  9
$PUCSBASE
  2

  9
$PUCSNAME
  2

  9
$PUCSORG
 10
0.0
 20
0.0
 30
0.0
  9
$PUCSXDIR
 10
1.0
 20
0.0
 30
0.0
  9
$PUCSYDIR
 10
0.0
 20
1.0
 30
0.0
  9
$PUCSORTHOREF
  2

  9
$PUCSORTHOVIEW
 70
     0
  9
$PUCSORGTOP
 10
0.0
 20
0.0
 30
0.0
  9
$PUCSORGBOTTOM
 10
0.0
 20
0.0
 30
0.0
  9
$PUCSORGLEFT
 10
0.0
 20
0.0
 30
0.0
  9
$PUCSORGRIGHT
 10
0.0
 20
0.0
 30
0.0
  9
$PUCSORGFRONT
 10
0.0
 20
0.0
 30
0.0
  9
$PUCSORGBACK
 10
0.0
 20
0.0
 30
0.0
  9
$USERI1
 70
     0
  9
$USERI2
 70
     0
  9
$USERI3
 70
     0
  9
$USERI4
 70
     0
  9
$USERI5
 70
     0
  9
$USERR1
 40
0.0
  9
$USERR2
 40
0.0
  9
$USERR3
 40
0.0
  9
$USERR4
 40
0.0
  9
$USERR5
 40
0.0
  9
$WORLDVIEW
 70
     1
  9
$SHADEDGE
 70
     3
  9
$SHADEDIF
 70
    70
  9
$TILEMODE
 70
     1
  9
$MAXACTVP
 70
    64
  9
$PINSBASE
 10
0.0
 20
0.0
 30
0.0
  9
$PLIMCHECK
 70
     0
  9
$PEXTMIN
 10
1.0000000000E+20
 20
1.0000000000E+20
 30
1.0000000000E+20
  9
$PEXTMAX
 10
-1.0000000000E+20
 20
-1.0000000000E+20
 30
-1.0000000000E+20
  9
$PLIMMIN
 10
0.0
 20
0.0
  9
$PLIMMAX
 10
420.0
 20
297.0
  9
$UNITMODE
 70
     0
  9
$VISRETAIN
 70
     1
  9
$PLINEGEN
 70
     0
  9
$PSLTSCALE
 70
     1
  9
$TREEDEPTH
 70
  3020
  9
$CMLSTYLE
  2
Standard
  9
$CMLJUST
 70
     0
  9
$CMLSCALE
 40
20.0
  9
$PROXYGRAPHICS
 70
     1
  9
$MEASUREMENT
 70
     1
  9
$CELWEIGHT
370
    -1
  9
$ENDCAPS
280
     0
  9
$JOINSTYLE
280
     0
  9
$LWDISPLAY
290
     1
  9
$INSUNITS
 70
     4
  9
$HYPERLINKBASE
  1

  9
$STYLESHEET
  1

  9
$XEDIT
290
     1
  9
$CEPSNTYPE
380
     0
  9
$PSTYLEMODE
290
     1
  9
$FINGERPRINTGUID
  2
{dccf7d09-8212-42cf-b542-3ec05ab46f40}
  9
$VERSIONGUID
  2
{FAEB1C32-E019-11D5-929B-00C0DF256EC4}
  9
$EXTNAMES
290
     1
  9
$PSVPSCALE
 40
0.0
  9
$OLESTARTUP
290
     0
  0
ENDSEC
  0
SECTION
  2
CLASSES
  0
CLASS
  1
ACDBDICTIONARYWDFLT
  2
AcDbDictionaryWithDefault
  3
ObjectDBX Classes
 90
        0
280
     0
281
     0
  0
CLASS
  1
VISUALSTYLE
  2
AcDbVisualStyle
  3
ObjectDBX Classes
 90
     4095
280
     0
281
     0
  0
CLASS
  1
MATERIAL
  2
AcDbMaterial
  3
ObjectDBX Classes
 90
     1153
280
     0
281
     0
  0
CLASS
  1
SCALE
  2
AcDbScale
  3
ObjectDBX Classes
 90
     1153
280
     0
281
     0
  0
CLASS
  1
TABLESTYLE
  2
AcDbTableStyle
  3
ObjectDBX Classes
 90
     4095
280
     0
281
     0
  0
CLASS
  1
MLEADERSTYLE
  2
AcDbMLeaderStyle
  3
ACDB_MLEADERSTYLE_CLASS
 90
     4095
280
     0
281
     0
  0
CLASS
  1
SUN
  2
AcDbSun
  3
SCENEOE
 90
     1153
280
     0
281
     0
  0
CLASS
  1
ACDBPLACEHOLDER
  2
AcDbPlaceHolder
  3
ObjectDBX Classes
 90
        0
280
     0
281
     0
  0
CLASS
  1
LAYOUT
  2
AcDbLayout
  3
ObjectDBX Classes
 90
        0
280
     0
281
     0
  0
ENDSEC
  0
SECTION
  2
TABLES
  0
TABLE
  2
VPORT
  5
8
330
0
100
AcDbSymbolTable
 70
     1
  0
VPORT
  5
29
330
8
100
AcDbSymbolTableRecord
100
AcDbViewportTableRecord
  2
*Active
 70
     0
 10
0.0
 20
0.0
 11
1.0
 21
1.0
 12
14.199479211
 22
10.8401991776
 13
0.0
 23
0.0
 14
10.0
 24
10.0
 15
10.0
 25
10.0
 16
0.0
 26
0.0
 36
1.0
 17
0.0
 27
0.0
 37
0.0
 40
41.0749936776
 41
0.7529614277
 42
50.0
 43
0.0
 44
0.0
 50
0.0
 51
0.0
 71
     0
 72
   100
 73
     1
 74
     3
 75
     0
 76
     0
 77
     0
 78
     0
281
     0
 65
     1
110
0.0
120
0.0
130
0.0
111
1.0
121
0.0
131
0.0
112
0.0
122
1.0
132
0.0
 79
     0
146
0.0
  0
ENDTAB
  0
TABLE
  2
LTYPE
  5
5
330
0
100
AcDbSymbolTable
 70
     6
  0
LTYPE
  5
14
330
5
100
AcDbSymbolTableRecord
100
AcDbLinetypeTableRecord
  2
ByBlock
 70
     0
  3

 72
    65
 73
     0
 40
0.0
  0
LTYPE
  5
15
330
5
100
AcDbSymbolTableRecord
100
AcDbLinetypeTableRecord
  2
ByLayer
 70
     0
  3

 72
    65
 73
     0
 40
0.0
  0
LTYPE
  5
16
330
5
100
AcDbSymbolTableRecord
100
AcDbLinetypeTableRecord
  2
Continuous
 70
     0
  3
Solid line
 72
    65
 73
     0
 40
0.0
  0
LTYPE
  5
5E
330
5
100
AcDbSymbolTableRecord
100
AcDbLinetypeTableRecord
  2
HIDDEN
 70
     0
  3
Hidden __ __ __ __ __ __ __ __ __ __ __ __ __ __
 72
    65
 73
     2
 40
0.1905
 49
0.127
 74
     0
 49
-0.0635
 74
     0
  0
LTYPE
  5
5F
330
5
100
AcDbSymbolTableRecord
100
AcDbLinetypeTableRecord
  2
PHANTOM
 70
     0
  3
Phantom ______  __  __  ______  __  __  ______
 72
    65
 73
     6
 40
1.27
 49
0.635
 74
     0
 49
-0.127
 74
     0
 49
0.127
 74
     0
 49
-0.127
 74
     0
 49
0.127
 74
     0
 49
-0.127
 74
     0
  0
LTYPE
  5
60
330
5
100
AcDbSymbolTableRecord
100
AcDbLinetypeTableRecord
  2
CENTER
 70
     0
  3
Center ____ _ ____ _ ____ _ ____ _ ____ _ ____
 72
    65
 73
     4
 40
1.016
 49
0.635
 74
     0
 49
-0.127
 74
     0
 49
0.127
 74
     0
 49
-0.127
 74
     0
  0
LTYPE
  5
61
330
5
100
AcDbSymbolTableRecord
100
AcDbLinetypeTableRecord
  2
CENTERX2
 70
     0
  3
Center (2x) ________  __  ________  __  _____
 72
    65
 73
     4
 40
2.032
 49
1.27
 74
     0
 49
-0.254
 74
     0
 49
0.254
 74
     0
 49
-0.254
 74
     0
  0
LTYPE
  5
62
330
5
100
AcDbSymbolTableRecord
100
AcDbLinetypeTableRecord
  2
DOT2
 70
     0
  3
Dot (.5x) ........................................
 72
    65
 73
     2
 40
0.0635
 49
0.0
 74
     0
 49
-0.0635
 74
     0
  0
ENDTAB
  0
TABLE
  2
LAYER
  5
2
330
0
100
AcDbSymbolTable
 70
     1
  0
LAYER
  5
10
330
2
100
AcDbSymbolTableRecord
100
AcDbLayerTableRecord
  2
0
 70
     0
 62
     7
  6
Continuous
370
    -3
390
F
  0
ENDTAB
  0
TABLE
  2
STYLE
  5
3
330
0
100
AcDbSymbolTable
 70
     1
  0
STYLE
  5
11
330
3
100
AcDbSymbolTableRecord
100
AcDbTextStyleTableRecord
  2
Standard
 70
     0
 40
0.0
 41
1.0
 50
0.0
 71
     0
 42
0.35
  3
txt
  4

  0
ENDTAB
  0
TABLE
  2
VIEW
  5
6
330
0
100
AcDbSymbolTable
 70
     0
  0
ENDTAB
  0
TABLE
  2
UCS
  5
7
330
0
100
AcDbSymbolTable
 70
     0
  0
ENDTAB
  0
TABLE
  2
APPID
  5
9
330
0
100
AcDbSymbolTable
 70
     1
  0
APPID
  5
12
330
9
100
AcDbSymbolTableRecord
100
AcDbRegAppTableRecord
  2
ACAD
 70
     0
  0
ENDTAB
  0
TABLE
  2
DIMSTYLE
  5
A
330
0
100
AcDbSymbolTable
 70
     1
100
AcDbDimStyleTable
  0
DIMSTYLE
105
27
330
A
100
AcDbSymbolTableRecord
100
AcDbDimStyleTableRecord
  2
ISO-25
 70
     0
 41
2.5
 42
0.625
 43
3.75
 44
1.25
 73
     0
 74
     0
 77
     1
 78
     8
140
2.5
141
2.5
143
0.0393700787
147
0.625
171
     3
172
     1
178
     0
271
     2
272
     2
274
     3
278
    44
283
     0
284
     8
340
11
  0
ENDTAB
  0
TABLE
  2
BLOCK_RECORD
  5
1
330
0
100
AcDbSymbolTable
 70
     1
  0
BLOCK_RECORD
  5
1F
330
1
100
AcDbSymbolTableRecord
100
AcDbBlockTableRecord
  2
*Model_Space
340
22
  0
BLOCK_RECORD
  5
1B
330
1
100
AcDbSymbolTableRecord
100
AcDbBlockTableRecord
  2
*Paper_Space
340
1E
  0
BLOCK_RECORD
  5
23
330
1
100
AcDbSymbolTableRecord
100
AcDbBlockTableRecord
  2
*Paper_Space0
340
26
  0
ENDTAB
  0
ENDSEC
  0
SECTION
  2
BLOCKS
  0
BLOCK
  5
20
330
1F
100
AcDbEntity
  8
0
100
AcDbBlockBegin
  2
*Model_Space
 70
     0
 10
0.0
 20
0.0
 30
0.0
  3
*Model_Space
  1

  0
ENDBLK
  5
21
330
1F
100
AcDbEntity
  8
0
100
AcDbBlockEnd
  0
BLOCK
  5
1C
330
1B
100
AcDbEntity
 67
     1
  8
0
100
AcDbBlockBegin
  2
*Paper_Space
 70
     0
 10
0.0
 20
0.0
 30
0.0
  3
*Paper_Space
  1

  0
ENDBLK
  5
1D
330
1B
100
AcDbEntity
 67
     1
  8
0
100
AcDbBlockEnd
  0
BLOCK
  5
24
330
23
100
AcDbEntity
  8
0
100
AcDbBlockBegin
  2
*Paper_Space0
 70
     0
 10
0.0
 20
0.0
 30
0.0
  3
*Paper_Space0
  1

  0
ENDBLK
  5
25
330
23
100
AcDbEntity
  8
0
100
AcDbBlockEnd
  0
ENDSEC
  0
SECTION
  2
ENTITIES
  0
SPLINE
  5
6B
330
1F
100
AcDbEntity
  8
0
  6
Continuous
 62
     7
370
    25
100
AcDbSpline
210
0.0
220
0.0
230
1.0
 70
     8
 71
     3
 72
    42
 73
    38
 74
     0
 42
0.00000001
 43
0.00000001
 40
0.0
 40
0.0
 40
0.0
 40
0.0
 40
0.0078190090369122
 40
0.015636340871487
 40
0.023452273530221
 40
0.031267085188946
 40
0.0390810541432159
 40
0.0468944587786305
 40
0.0547075775411097
 40
0.0625206889071383
 40
0.0703340713539916
 40
0.0781480033299623
 40
0.0859627632246018
 40
0.0937786293389942
 40
0.101595879856076
 40
0.1094147928110203
 40
0.1172356460616988
 40
0.1250587172592379
 40
0.1563167310008385
 40
0.187566238897423
 40
0.2188249439884044
 40
0.250110533700423
 40
0.3126034309009978
 40
0.3751494709669898
 40
0.437644157643923
 40
0.5001844571091433
 40
0.5626860608144078
 40
0.6252154755487881
 40
0.7502081053901705
 40
0.8502114802123173
 40
0.8877275154170526
 40
0.925230395974865
 40
0.9627045779828431
 40
0.9719573924136428
 40
0.9816158360837187
 40
0.9910841602779186
 40
1.0
 40
1.0
 40
1.0
 40
1.0
 10
20.80266356813274
 20
20.94802786416697
 30
0.0
 10
20.76229232530389
 20
20.99076556525591
 30
0.0
 10
20.68155849940633
 20
21.07623180006081
 30
0.0
 10
20.55950304625672
 20
21.20350069100005
 30
0.0
 10
20.43676727455517
 20
21.33006858092722
 30
0.0
 10
20.31328154687995
 20
21.45586991393652
 30
0.0
 10
20.18906451839035
 20
21.58092225062405
 30
0.0
 10
20.06411119200953
 20
21.70522088593804
 30
0.0
 10
19.93842290708683
 20
21.82876707979645
 30
0.0
 10
19.81199930539084
 20
21.95156049401254
 30
0.0
 10
19.6848404834628
 20
22.07360121867474
 30
0.0
 10
19.55694641626953
 20
22.19488922882015
 30
0.0
 10
19.4283171103809
 20
22.31542453149891
 30
0.0
 10
19.29895256759505
 20
22.43520712083461
 30
0.0
 10
19.16885277724945
 20
22.55423701072021
 30
0.0
 10
19.03801778337058
 20
22.67251414895709
 30
0.0
 10
18.90644742367874
 20
22.79003872809986
 30
0.0
 10
18.64204601789642
 20
23.02339701720967
 30
0.0
 10
18.24037131298176
 20
23.36742918246038
 30
0.0
 10
17.69409425039902
 20
23.81321563610531
 30
0.0
 10
17.13719047587441
 20
24.24600296685096
 30
0.0
 10
16.38129369619244
 20
24.80513477160986
 30
0.0
 10
15.41166430513327
 20
25.47034135363646
 30
0.0
 10
14.2119323952373
 20
26.21218957216288
 30
0.0
 10
12.97816866407978
 20
26.89671520112413
 30
0.0
 10
11.71369355195872
 20
27.52190951132671
 30
0.0
 10
10.42091243188414
 20
28.08698514557206
 30
0.0
 10
8.664246487671475
 20
28.75802181885363
 30
0.0
 10
6.591974820125153
 20
29.38631076309336
 30
0.0
 10
4.65964009599471
 20
29.79793698689181
 30
0.0
 10
3.360023473151488
 20
30.00568849648024
 30
0.0
 10
2.521258642544766
 20
30.11562386487481
 30
0.0
 10
1.891183855259725
 20
30.18055388647266
 30
0.0
 10
1.468742512696369
 20
30.21641024177343
 30
0.0
 10
1.255992517294041
 20
30.23286523561654
 30
0.0
 10
1.045683780979792
 20
30.2479962233714
 30
0.0
 10
0.9077316862810769
 20
30.25675204481465
 30
0.0
 10
0.8408285205314558
 20
30.2609983897112
 30
0.0
  0
SPLINE
  5
71
330
1F
100
AcDbEntity
  8
0
  6
Continuous
 62
     7
370
    25
100
AcDbSpline
210
0.0
220
0.0
230
1.0
 70
     8
 71
     3
 72
    47
 73
    43
 74
     0
 42
0.00000001
 43
0.00000001
 40
0.0
 40
0.0
 40
0.0
 40
0.0
 40
0.0078159038193794
 40
0.0156302373169073
 40
0.0234432775041775
 40
0.0312553015303645
 40
0.0390665866528049
 40
0.0468774102075211
 40
0.0546880495797025
 40
0.0624987821741617
 40
0.0703098853857787
 40
0.0781216365699521
 40
0.0859343130130699
 40
0.0937481919030178
 40
0.1015635502997398
 40
0.1093806651058664
 40
0.117199813037427
 40
0.1250212705946604
 40
0.1562767025066856
 40
0.1875191457486653
 40
0.2187662263873829
 40
0.2500355626475249
 40
0.3125155122825425
 40
0.3750367490275439
 40
0.4375076536638988
 40
0.5000337173077107
 40
0.5625104879112325
 40
0.625026568914648
 40
0.6875111810023627
 40
0.750015386788235
 40
0.7812635577029108
 40
0.8125004643306103
 40
0.8437431632149381
 40
0.8750087014198095
 40
0.8906299362182335
 40
0.9062476987833166
 40
0.9218641079086444
 40
0.9374812829386686
 40
0.953101342906086
 40
0.9687264056698477
 40
0.9843585870555587
 40
1.0
 40
1.0
 40
1.0
 40
1.0
 10
28.71036808741461
 20
-0.6043848647348332
 30
0.0
 10
28.7134457103957
 20
-0.5473992113155621
 30
0.0
 10
28.71960033802139
 20
-0.4334393536732789
 30
0.0
 10
28.72754128036437
 20
-0.2624488924321183
 30
0.0
 10
28.73453568571862
 20
-0.0914462042785336
 30
0.0
 10
28.74049100420228
 20
0.0795738680306371
 30
0.0
 10
28.74543202867677
 20
0.2506099421193883
 30
0.0
 10
28.74935211703547
 20
0.4216623875084577
 30
0.0
 10
28.75225304876582
 20
0.5927311043836481
 30
0.0
 10
28.75413434706196
 20
0.7638161186450915
 30
0.0
 10
28.75499613970723
 20
0.9349174226160967
 30
0.0
 10
28.75483839237956
 20
1.106035017219833
 30
0.0
 10
28.75366111468815
 20
1.277168902558938
 30
0.0
 10
28.75146430272105
 20
1.448319073421797
 30
0.0
 10
28.74824796280946
 20
1.619485546687593
 30
0.0
 10
28.74401207391906
 20
1.790668256172814
 30
0.0
 10
28.73875671435881
 20
1.961867445972432
 30
0.0
 10
28.72621536519772
 20
2.304054265512546
 30
0.0
 10
28.69980324240055
 20
2.816872556974274
 30
0.0
 10
28.64836690727246
 20
3.499485872793641
 30
0.0
 10
28.58071689227315
 20
4.180792465454061
 30
0.0
 10
28.46899759251668
 20
5.086671360709534
 30
0.0
 10
28.28916467646484
 20
6.213905750015016
 30
0.0
 10
28.00963442396629
 20
7.554413469173244
 30
0.0
 10
27.66711636349657
 20
8.88058830857
 30
0.0
 10
27.26244471375235
 20
10.18879151837187
 30
0.0
 10
26.79665295246378
 20
11.47684832279719
 30
0.0
 10
26.27083657366527
 20
12.74126464153656
 30
0.0
 10
25.68631763310854
 20
13.97983962978142
 30
0.0
 10
25.1513518236147
 20
14.98792081466238
 30
0.0
 10
24.69553962948925
 20
15.77863851287066
 30
0.0
 10
24.33996735079638
 20
16.36345437694574
 30
0.0
 10
23.97075777900473
 20
16.93990135263119
 30
0.0
 10
23.65191222730078
 20
17.41301604489563
 30
0.0
 10
23.39028235730179
 20
17.78697123606328
 30
0.0
 10
23.19090344769512
 20
18.06499822432034
 30
0.0
 10
22.98831813538368
 20
18.34066032782112
 30
0.0
 10
22.78252075489179
 20
18.61395358422011
 30
0.0
 10
22.57353127830442
 20
18.88489449750734
 30
0.0
 10
22.36127552402093
 20
19.15342090086504
 30
0.0
 10
22.14603048381082
 20
19.41976500895467
 30
0.0
 10
21.99990096655711
 20
19.59523490131543
 30
0.0
 10
21.9268146401628
 20
19.68299574571206
 30
0.0
  0
SPLINE
  5
77
330
1F
100
AcDbEntity
  8
0
  6
Continuous
 62
     7
370
    25
100
AcDbSpline
210
0.0
220
0.0
230
1.0
 70
     8
 71
     3
 72
    30
 73
    26
 74
     0
 42
0.00000001
 43
0.00000001
 40
0.0
 40
0.0
 40
0.0
 40
0.0
 40
0.0241190092779886
 40
0.0482382278321431
 40
0.0723585679907702
 40
0.096480941954918
 40
0.120606261694934
 40
0.1447354388471539
 40
0.1688693846107862
 40
0.1930090096450354
 40
0.2171552239665344
 40
0.2413089368471436
 40
0.2654710567121618
 40
0.3572887449360205
 40
0.4490726516228281
 40
0.5408726846820371
 40
0.6327387257402616
 40
0.6786549542549516
 40
0.724556349333673
 40
0.7704491016527819
 40
0.8163394053864002
 40
0.862233455700084
 40
0.908137446242483
 40
0.9540575666400699
 40
1.0
 40
1.0
 40
1.0
 40
1.0
 10
26.84245403434291
 20
-9.294601644701936
 30
0.0
 10
26.8632959710284
 20
-9.240317888667265
 30
0.0
 10
26.90498002524097
 20
-9.13174990558785
 30
0.0
 10
26.96623565740464
 20
-8.968411463960537
 30
0.0
 10
27.02656038041496
 20
-8.804719159307567
 30
0.0
 10
27.08586307307996
 20
-8.640637821104031
 30
0.0
 10
27.14416815305188
 20
-8.47617687530321
 30
0.0
 10
27.20146907669677
 20
-8.311333795649004
 30
0.0
 10
27.25776759650599
 20
-8.146109264306462
 30
0.0
 10
27.31306324624962
 20
-7.980503083677054
 30
0.0
 10
27.36735613694741
 20
-7.814515366224012
 30
0.0
 10
27.42064629002748
 20
-7.648145864035868
 30
0.0
 10
27.52172875913339
 20
-7.325781371202217
 30
0.0
 10
27.66456640615409
 20
-6.845640363014454
 30
0.0
 10
27.8390098807461
 20
-6.204955662590653
 30
0.0
 10
27.99849264885988
 20
-5.560262981766442
 30
0.0
 10
28.11886067281739
 20
-5.019967185849675
 30
0.0
 10
28.20761258151278
 20
-4.586111285136127
 30
0.0
 10
28.27037124397188
 20
-4.260090898430816
 30
0.0
 10
28.32932839166423
 20
-3.933425535262938
 30
0.0
 10
28.3844778281888
 20
-3.606113942635472
 30
0.0
 10
28.43584436972954
 20
-3.27815914694437
 30
0.0
 10
28.48333490664324
 20
-2.94955040014446
 30
0.0
 10
28.52729720245956
 20
-2.620327793797819
 30
0.0
 10
28.55337988839371
 20
-2.400400354106391
 30
0.0
 10
28.56642439903883
 20
-2.290409924614151
 30
0.0
  0
SPLINE
  5
79
330
1F
100
AcDbEntity
  8
0
  6
Continuous
 62
     7
370
    25
100
AcDbSpline
210
0.0
220
0.0
230
1.0
 70
     8
 71
     3
 72
    32
 73
    28
 74
     0
 42
0.00000001
 43
0.00000001
 40
0.0
 40
0.0
 40
0.0
 40
0.0
 40
0.0245728216546977
 40
0.0491384870164362
 40
0.0736979309425624
 40
0.0982520890010353
 40
0.1228018973641302
 40
0.1473482927018003
 40
0.1718922120747526
 40
0.1964345928273016
 40
0.2209763724800587
 40
0.2455184886225218
 40
0.2700618788056264
 40
0.2946074804343175
 40
0.3191562306602036
 40
0.3437090662743602
 40
0.3682669236003351
 40
0.4603716017058827
 40
0.5524143880017153
 40
0.644445049096274
 40
0.7365133712604697
 40
0.780470461205796
 40
0.8244032510389646
 40
0.86831716565181
 40
0.9122176369335442
 40
0.9561101017643955
 40
1.0
 40
1.0
 40
1.0
 40
1.0
 10
27.96366749749675
 20
-2.279366487148754
 30
0.0
 10
27.95684401861729
 20
-2.336653342791767
 30
0.0
 10
27.94319904804624
 20
-2.451210370543131
 30
0.0
 10
27.92139149397399
 20
-2.622858922396112
 30
0.0
 10
27.89860692663831
 20
-2.794335492500452
 30
0.0
 10
27.8747489662526
 20
-2.965628774262891
 30
0.0
 10
27.8498434284113
 20
-3.13674179522345
 30
0.0
 10
27.82388339800575
 20
-3.307673743450679
 30
0.0
 10
27.79687072757814
 20
-3.478424835473537
 30
0.0
 10
27.76880492087329
 20
-3.648995012400494
 30
0.0
 10
27.73968611123453
 20
-3.819384288799998
 30
0.0
 10
27.70951426212266
 20
-3.989592660787858
 30
0.0
 10
27.67828938711457
 20
-4.15962012485564
 30
0.0
 10
27.64601146930298
 20
-4.329466694465295
 30
0.0
 10
27.61268056372218
 20
-4.499132314834628
 30
0.0
 10
27.57829646818039
 20
-4.668617187267748
 30
0.0
 10
27.51037361481068
 20
-4.993128865433539
 30
0.0
 10
27.40294891363233
 20
-5.471253730313011
 30
0.0
 10
27.24612633054307
 20
-6.100467949596861
 30
0.0
 10
27.07473144171035
 20
-6.725782252056126
 30
0.0
 10
26.92120789926645
 20
-7.238780979932303
 30
0.0
 10
26.79314965970173
 20
-7.641416564332765
 30
0.0
 10
26.69608341814856
 20
-7.935252106608987
 30
0.0
 10
26.59581616243673
 20
-8.227870623959655
 30
0.0
 10
26.49226934010876
 20
-8.519242304096085
 30
0.0
 10
26.38573530407032
 20
-8.809480071429732
 30
0.0
 10
26.31199489493484
 20
-9.001932372680487
 30
0.0
 10
26.27512576838424
 20
-9.098155709829761
 30
0.0
  0
SPLINE
  5
80
330
1F
100
AcDbEntity
  8
0
  6
Continuous
 62
     7
370
    25
100
AcDbSpline
210
0.0
220
0.0
230
1.0
 70
     8
 71
     3
 72
    25
 73
    21
 74
     0
 42
0.00000001
 43
0.00000001
 40
0.0
 40
0.0
 40
0.0
 40
0.0
 40
0.0459708042083492
 40
0.0919365773207214
 40
0.1378993733638599
 40
0.1838612467636433
 40
0.2298242520696683
 40
0.2757904436797542
 40
0.3217618755645452
 40
0.3677406009924024
 40
0.413728672254764
 40
0.4597281403921589
 40
0.505741054921059
 40
0.5517694635617445
 40
0.597815411967369
 40
0.6438809434543972
 40
0.732933978961487
 40
0.821961629868764
 40
0.910978700385622
 40
1.0
 40
1.0
 40
1.0
 40
1.0
 10
21.76033994207627
 20
-4.754999387711059
 30
0.0
 10
21.772994721433
 20
-4.707005330404487
 30
0.0
 10
21.79830289519331
 20
-4.611022468314388
 30
0.0
 10
21.83504248841631
 20
-4.466736283371079
 30
0.0
 10
21.87088345610299
 20
-4.322235042865127
 30
0.0
 10
21.90573827554271
 20
-4.177495489526756
 30
0.0
 10
21.93963039635285
 20
-4.032523855751674
 30
0.0
 10
21.97255353499063
 20
-3.887318472696283
 30
0.0
 10
22.00450937519305
 20
-3.741879788654046
 30
0.0
 10
22.03549746489992
 20
-3.596207684641439
 30
0.0
 10
22.06551792760075
 20
-3.450302193534049
 30
0.0
 10
22.09457072078847
 20
-3.304163308136096
 30
0.0
 10
22.12265589044593
 20
-3.157791029660773
 30
0.0
 10
22.14977329469563
 20
-3.011185365778371
 30
0.0
 10
22.17592345507269
 20
-2.864346289903344
 30
0.0
 10
22.2089331762171
 20
-2.67154918225404
 30
0.0
 10
22.24745993224553
 20
-2.432619117098225
 30
0.0
 10
22.28962123017385
 20
-2.147328964470094
 30
0.0
 10
22.32836063976315
 20
-1.861582353259336
 30
0.0
 10
22.35106667119919
 20
-1.670699208852522
 30
0.0
 10
22.36241995659509
 20
-1.575255369543904
 30
0.0
  0
SPLINE
  5
86
330
1F
100
AcDbEntity
  8
0
  6
Continuous
 62
     7
370
    25
100
AcDbSpline
210
0.0
220
0.0
230
1.0
 70
     8
 71
     3
 72
    14
 73
    10
 74
     0
 42
0.00000001
 43
0.00000001
 40
0.0
 40
0.0
 40
0.0
 40
0.0
 40
0.1427389938878144
 40
0.2855086673203017
 40
0.42831424664611
 40
0.5711609542728153
 40
0.714054008098554
 40
0.8569986209461531
 40
1.0
 40
1.0
 40
1.0
 40
1.0
 10
20.93660939296276
 20
-7.249614334758495
 30
0.0
 10
20.95301487309035
 20
-7.208111165559908
 30
0.0
 10
20.98582935945039
 20
-7.125095906696793
 30
0.0
 10
21.03410037511138
 20
-7.000183321389864
 30
0.0
 10
21.08168003775342
 20
-6.874970425174134
 30
0.0
 10
21.12850470726124
 20
-6.749431694455319
 30
0.0
 10
21.17457418256991
 20
-6.623567945987835
 30
0.0
 10
21.2199529662857
 20
-6.497401461269126
 30
0.0
 10
21.24956681792233
 20
-6.413046422063831
 30
0.0
 10
21.26437668322232
 20
-6.370860529349323
 30
0.0
  0
SPLINE
  5
88
330
1F
100
AcDbEntity
  8
0
  6
Continuous
 62
     7
370
    25
100
AcDbSpline
210
0.0
220
0.0
230
1.0
 70
     8
 71
     3
 72
    13
 73
     9
 74
     0
 42
0.00000001
 43
0.00000001
 40
0.0
 40
0.0
 40
0.0
 40
0.0
 40
0.1668226773750135
 40
0.3335730419082578
 40
0.5002585188076939
 40
0.6668865419557889
 40
0.8334645529269714
 40
1.0
 40
1.0
 40
1.0
 40
1.0
 10
20.67306934560976
 20
-6.243846855616503
 30
0.0
 10
20.65697948907099
 20
-6.289148495135838
 30
0.0
 10
20.62480675048439
 20
-6.379732137214217
 30
0.0
 10
20.57540893288237
 20
-6.515167898360685
 30
0.0
 10
20.5251971074585
 20
-6.650243426362382
 30
0.0
 10
20.47406704042769
 20
-6.784920926832178
 30
0.0
 10
20.422122288597
 20
-6.919240684014466
 30
0.0
 10
20.38673872232212
 20
-7.008476552308663
 30
0.0
 10
20.36904919976958
 20
-7.053088785355557
 30
0.0
  0
SPLINE
  5
8F
330
1F
100
AcDbEntity
  8
0
  6
Continuous
 62
     7
370
    25
100
AcDbSpline
210
0.0
220
0.0
230
1.0
 70
     8
 71
     3
 72
    12
 73
     8
 74
     0
 42
0.00000001
 43
0.00000001
 40
0.0
 40
0.0
 40
0.0
 40
0.0
 40
0.1336130593696929
 40
0.2672650621722328
 40
0.4009627034966217
 40
0.700474548167072
 40
1.0
 40
1.0
 40
1.0
 40
1.0
 10
15.03091278353009
 20
-5.204678487276709
 30
0.0
 10
15.04526759931491
 20
-5.170119467102993
 30
0.0
 10
15.07398141480046
 20
-5.100991354035966
 30
0.0
 10
15.11613202209524
 20
-4.996900745523644
 30
0.0
 10
15.17472402608219
 20
-4.849344735794614
 30
0.0
 10
15.24847090857221
 20
-4.657817365476133
 30
0.0
 10
15.30559949243956
 20
-4.50006475689311
 30
0.0
 10
15.33416443321257
 20
-4.421186660922357
 30
0.0
  0
SPLINE
  5
91
330
1F
100
AcDbEntity
  8
0
  6
Continuous
 62
     7
370
    25
100
AcDbSpline
210
0.0
220
0.0
230
1.0
 70
     8
 71
     3
 72
    30
 73
    26
 74
     0
 42
0.00000001
 43
0.00000001
 40
0.0
 40
0.0
 40
0.0
 40
0.0
 40
0.0125499597465474
 40
0.0250965712359041
 40
0.0376406062862432
 40
0.050182837191381
 40
0.0627240365784344
 40
0.0752649772651708
 40
0.0878064321171819
 40
0.1003491739050128
 40
0.1128939751613797
 40
0.1254416080386068
 40
0.137992844166414
 40
0.2070158795726025
 40
0.2759588521708933
 40
0.3449618643201139
 40
0.4139125378570672
 40
0.4829033558245486
 40
0.5518520460162165
 40
0.6898516173683126
 40
0.8276180314354948
 40
0.8966106212523612
 40
0.9655109683624484
 40
0.9827600169194806
 40
1.0
 40
1.0
 40
1.0
 40
1.0
 10
15.22265588303764
 20
4.71317009486065
 30
0.0
 10
15.23234071858439
 20
4.672835412336784
 30
0.0
 10
15.25170780581938
 20
4.592176808350726
 30
0.0
 10
15.27955142822174
 20
4.470918519395601
 30
0.0
 10
15.30650548149581
 20
4.349486534933197
 30
0.0
 10
15.33248374144687
 20
4.227859946193821
 30
0.0
 10
15.35750930493241
 20
4.106044356446395
 30
0.0
 10
15.38157598377329
 20
3.984038264077011
 30
0.0
 10
15.404685436087
 20
3.861842081564322
 30
0.0
 10
15.42683721539372
 20
3.739455668808779
 30
0.0
 10
15.44803144815956
 20
3.616879182149166
 30
0.0
 10
15.46826807394144
 20
3.494112144625428
 30
0.0
 10
15.51645858868134
 20
3.186769250261512
 30
0.0
 10
15.58099993271599
 20
2.693294713441874
 30
0.0
 10
15.64025232118323
 20
2.011572512002255
 30
0.0
 10
15.66983115570079
 20
1.328144468819203
 30
0.0
 10
15.66948292942937
 20
0.6439244403465744
 30
0.0
 10
15.63927659136493
 20
-0.0394632748553725
 30
0.0
 10
15.55910170582063
 20
-0.9482237566374091
 30
0.0
 10
15.38449100600342
 20
-2.075737145809939
 30
0.0
 10
15.1103222618359
 20
-3.183423910169875
 30
0.0
 10
14.83331407323904
 20
-4.051675494643803
 30
0.0
 10
14.65560379061973
 20
-4.532891184029339
 30
0.0
 10
14.52857822479917
 20
-4.850140610915476
 30
0.0
 10
14.48471649287339
 20
-4.955361384909295
 30
0.0
 10
14.46279139146059
 20
-5.007957943213287
 30
0.0
  0
SPLINE
  5
98
330
1F
100
AcDbEntity
  8
0
  6
Continuous
 62
     7
370
    25
100
AcDbSpline
210
0.0
220
0.0
230
1.0
 70
     8
 71
     3
 72
    15
 73
    11
 74
     0
 42
0.00000001
 43
0.00000001
 40
0.0
 40
0.0
 40
0.0
 40
0.0
 40
0.1250753404110031
 40
0.2501052057063254
 40
0.3751015619346121
 40
0.5000763847697556
 40
0.6250416560764126
 40
0.7500093604666324
 40
0.8749914818525364
 40
1.0
 40
1.0
 40
1.0
 40
1.0
 10
9.941060434198073
 20
2.38507817543778
 30
0.0
 10
9.936366025506837
 20
2.418079406354972
 30
0.0
 10
9.926978914925865
 20
2.484069869542874
 30
0.0
 10
9.911674113712094
 20
2.582860164546021
 30
0.0
 10
9.895477323332475
 20
2.681479812407145
 30
0.0
 10
9.87829884427001
 20
2.779916173969927
 30
0.0
 10
9.86016849343581
 20
2.878173906477481
 30
0.0
 10
9.841056675140708
 20
2.976246999593821
 30
0.0
 10
9.821051974026679
 20
3.074154824249362
 30
0.0
 10
9.806905647159478
 20
3.139259903098303
 30
0.0
 10
9.79983173686348
 20
3.171815879777956
 30
0.0
  0
SPLINE
  5
9E
330
1F
100
AcDbEntity
  8
0
  6
Continuous
 62
     7
370
    25
100
AcDbSpline
210
0.0
220
0.0
230
1.0
 70
     8
 71
     3
 72
    31
 73
    27
 74
     0
 42
0.00000001
 43
0.00000001
 40
0.0
 40
0.0
 40
0.0
 40
0.0
 40
0.0262298060850721
 40
0.0524308495889451
 40
0.0786058305023161
 40
0.1047574568882781
 40
0.1308884440709059
 40
0.1570015138126752
 40
0.1830993934819214
 40
0.2091848152115874
 40
0.2352605150505318
 40
0.261329232108704
 40
0.28739370769751
 40
0.3134566844667131
 40
0.3395209055392232
 40
0.3655891136451414
 40
0.3916640502564231
 40
0.4898467964186368
 40
0.5877147486380396
 40
0.6854163101577638
 40
0.7831006425722976
 40
0.8266050783997763
 40
0.870033976549382
 40
0.9134005651802207
 40
0.9567181295349945
 40
1.0
 40
1.0
 40
1.0
 40
1.0
 10
9.428021815136287
 20
0.5546892987376262
 30
0.0
 10
9.426454689150308
 20
0.5228360286891692
 30
0.0
 10
9.423322155627515
 20
0.459164417644467
 30
0.0
 10
9.417399423509321
 20
0.3637726772903346
 30
0.0
 10
9.410583651089237
 20
0.2685370968374082
 30
0.0
 10
9.402787049393156
 20
0.173461740565202
 30
0.0
 10
9.394033106810813
 20
0.0785455249134523
 30
0.0
 10
9.384315537228764
 20
-0.0162112562375694
 30
0.0
 10
9.37363602272117
 20
-0.1108086775521655
 30
0.0
 10
9.361994112853415
 20
-0.205246715205866
 30
0.0
 10
9.349389928030071
 20
-0.2995253710733836
 30
0.0
 10
9.335823436685029
 20
-0.3936446425795437
 30
0.0
 10
9.32129464549552
 20
-0.4876045192583972
 30
0.0
 10
9.305803560818752
 20
-0.5814050266734178
 30
0.0
 10
9.28935015284141
 20
-0.675046054228011
 30
0.0
 10
9.271934537540389
 20
-0.7685280001158118
 30
0.0
 10
9.236617986160658
 20
-0.9478589030773144
 30
0.0
 10
9.177979981901196
 20
-1.211565987724157
 30
0.0
 10
9.08694780858105
 20
-1.557019880089852
 30
0.0
 10
8.982674040238638
 20
-1.898077874091281
 30
0.0
 10
8.886924199410863
 20
-2.172383130329195
 30
0.0
 10
8.806994247765282
 20
-2.38214643076099
 30
0.0
 10
8.748023066900986
 20
-2.529197015536688
 30
0.0
 10
8.686530146208703
 20
-2.674961096241446
 30
0.0
 10
8.622744450693332
 20
-2.819548024099641
 30
0.0
 10
8.578109705877582
 20
-2.914914201936047
 30
0.0
 10
8.55580153207282
 20
-2.962577637204975
 30
0.0
  0
SPLINE
  5
A4
330
1F
100
AcDbEntity
  8
0
  6
Continuous
 62
     7
370
    25
100
AcDbSpline
210
0.0
220
0.0
230
1.0
 70
     8
 71
     3
 72
    38
 73
    34
 74
     0
 42
0.00000001
 43
0.00000001
 40
0.0
 40
0.0
 40
0.0
 40
0.0
 40
0.015701164906217
 40
0.031386836055965
 40
0.0470585066141581
 40
0.0627176737507492
 40
0.0783658382245628
 40
0.0940045039620235
 40
0.1096351776313569
 40
0.1252593682128571
 40
0.1408785865658205
 40
0.1564943449927663
 40
0.1721081568015651
 40
0.1877215358661079
 40
0.2033359961861538
 40
0.218953051446995
 40
0.2345742145795751
 40
0.2502009973217101
 40
0.3753748141414057
 40
0.5002158104530436
 40
0.5628827997672688
 40
0.6253608450949962
 40
0.687752456911651
 40
0.7501605716166238
 40
0.7780423921003133
 40
0.8058721100658832
 40
0.8336589457742913
 40
0.861412162225964
 40
0.8891410561134798
 40
0.9168549486066193
 40
0.9445631760147716
 40
0.9722750803731316
 40
1.0
 40
1.0
 40
1.0
 40
1.0
 10
6.558844132431045
 20
7.888008211581226
 30
0.0
 10
6.582209836029862
 20
7.864277284739574
 30
0.0
 10
6.62891818617896
 20
7.816838848503536
 30
0.0
 10
6.698065555283167
 20
7.744853281528018
 30
0.0
 10
6.766495357351519
 20
7.672309268342449
 30
0.0
 10
6.834144874797962
 20
7.599144711570364
 30
0.0
 10
6.901030888111567
 20
7.525376230592753
 30
0.0
 10
6.96714890329052
 20
7.450999379447558
 30
0.0
 10
7.032500120519111
 20
7.376015350383453
 30
0.0
 10
7.097084215761496
 20
7.300423826580261
 30
0.0
 10
7.160901273290489
 20
7.224224894979381
 30
0.0
 10
7.223951267589874
 20
7.147418535869796
 30
0.0
 10
7.286234204700397
 20
7.070004753140259
 30
0.0
 10
7.347750074637441
 20
6.991983563341066
 30
0.0
 10
7.40849890046483
 20
6.913354909227786
 30
0.0
 10
7.468480589569697
 20
6.834119016537615
 30
0.0
 10
7.527695479661496
 20
6.754275052946822
 30
0.0
 10
7.722703856162378
 20
6.485856487443166
 30
0.0
 10
8.033722354603949
 20
6.015224950700593
 30
0.0
 10
8.35423332930514
 20
5.433748973573992
 30
0.0
 10
8.58195418496468
 20
4.954770700399769
 30
0.0
 10
8.738138719912088
 20
4.588815617506353
 30
0.0
 10
8.879136010598124
 20
4.217341779225886
 30
0.0
 10
8.981683133497413
 20
3.910056501811554
 30
0.0
 10
9.053998260883569
 20
3.670170225580596
 30
0.0
 10
9.102029668054822
 20
3.499692031644433
 30
0.0
 10
9.14687466177049
 20
3.328630815075062
 30
0.0
 10
9.188535364215761
 20
3.1569860182039
 30
0.0
 10
9.227005967330697
 20
2.984757139886934
 30
0.0
 10
9.262307421907785
 20
2.811947066698475
 30
0.0
 10
9.294361645546472
 20
2.638545097379404
 30
0.0
 10
9.323459943484592
 20
2.464591500790673
 30
0.0
 10
9.340157205662429
 20
2.348194997748321
 30
0.0
 10
9.348507796814491
 20
2.289983082640096
 30
0.0
  0
SPLINE
  5
AA
330
1F
100
AcDbEntity
  8
0
  6
Continuous
 62
     7
370
    25
100
AcDbSpline
210
0.0
220
0.0
230
1.0
 70
     8
 71
     3
 72
    30
 73
    26
 74
     0
 42
0.00000001
 43
0.00000001
 40
0.0
 40
0.0
 40
0.0
 40
0.0
 40
0.0170211596362308
 40
0.0340391754900485
 40
0.0510555862067659
 40
0.0680719308671137
 40
0.0850897485697447
 40
0.1021105780137145
 40
0.1191359570815045
 40
0.13616742242315
 40
0.2803663940467364
 40
0.4241832292043928
 40
0.4963719491195314
 40
0.5683466389308435
 40
0.6402299143246131
 40
0.7121448585760833
 40
0.7442592285275438
 40
0.7763151412247122
 40
0.8083236148157157
 40
0.8402957164937692
 40
0.8722425512525657
 40
0.9041752504464682
 40
0.9361049602136888
 40
0.9680428298223199
 40
1.0
 40
1.0
 40
1.0
 40
1.0
 10
-0.4384677674462961
 20
10.97979091104992
 30
0.0
 10
-0.4039570076461579
 20
10.97795579295625
 30
0.0
 10
-0.3349418621309636
 20
10.97428589571244
 30
0.0
 10
-0.2314978636991871
 20
10.96753399565323
 30
0.0
 10
-0.1281284085155932
 20
10.95986996362667
 30
0.0
 10
-0.0248380309906399
 20
10.95120426328974
 30
0.0
 10
0.0783745394685564
 20
10.94156086836733
 30
0.0
 10
0.181508739211389
 20
10.93093341283934
 30
0.0
 10
0.2845655374024508
 20
10.91932338840859
 30
0.0
 10
0.6438129864216491
 20
10.87539364525252
 30
0.0
 10
1.255356912156005
 20
10.77255289824795
 30
0.0
 10
1.965082945849002
 20
10.59253737749874
 30
0.0
 10
2.522134045743926
 20
10.41438770476269
 30
0.0
 10
2.934209612463973
 20
10.26363465465048
 30
0.0
 10
3.339171595422331
 20
10.09617684260393
 30
0.0
 10
3.663400426526953
 20
9.94609451098806
 30
0.0
 10
3.910579620013813
 20
9.822592779440686
 30
0.0
 10
4.083632194846329
 20
9.732087872249087
 30
0.0
 10
4.254719713899846
 20
9.638523374074685
 30
0.0
 10
4.423844177855638
 20
9.541900356469132
 30
0.0
 10
4.591001532972195
 20
9.44221377059601
 30
0.0
 10
4.756205589160828
 20
9.3394828764411
 30
0.0
 10
4.919404787888126
 20
9.233635881792395
 30
0.0
 10
5.080791227284648
 20
9.124940967704816
 30
0.0
 10
5.186650950860095
 20
9.049942824158478
 30
0.0
 10
5.239596801000834
 20
9.012432425161371
 30
0.0
  0
SPLINE
  5
AC
330
1F
100
AcDbEntity
  8
0
  6
Continuous
 62
     7
370
    25
100
AcDbSpline
210
0.0
220
0.0
230
1.0
 70
     8
 71
     3
 72
    17
 73
    13
 74
     0
 42
0.00000001
 43
0.00000001
 40
0.0
 40
0.0
 40
0.0
 40
0.0
 40
0.0077067157905828
 40
0.1436565657328996
 40
0.2796285948174757
 40
0.4160511509994052
 40
0.6198304347228494
 40
0.8241716005066221
 40
0.8681516404753883
 40
0.9121072594304381
 40
0.956052146289792
 40
1.0
 40
1.0
 40
1.0
 40
1.0
 10
3.988431154349341
 20
10.45359581645909
 30
0.0
 10
3.977748721527711
 20
10.45878348353322
 30
0.0
 10
3.778623483939102
 20
10.55548387528057
 30
0.0
 10
3.385217501401175
 20
10.73191320233125
 30
0.0
 10
2.797310210006636
 20
10.95706729606846
 30
0.0
 10
2.098100641809629
 20
11.18071729604047
 30
0.0
 10
1.282187792434999
 20
11.38079550453097
 30
0.0
 10
0.593236409778844
 20
11.48995672709587
 30
0.0
 10
0.1454518744783306
 20
11.53829741520213
 30
0.0
 10
-0.0569616845952053
 20
11.55647742037362
 30
0.0
 10
-0.2596020365870561
 20
11.57133341428528
 30
0.0
 10
-0.3948671997125952
 20
11.57821016021483
 30
0.0
 10
-0.4625020642373134
 20
11.58164864924311
 30
0.0
  0
SPLINE
  5
B3
330
1F
100
AcDbEntity
  8
0
  6
Continuous
 62
     7
370
    25
100
AcDbSpline
210
0.0
220
0.0
230
1.0
 70
     8
 71
     3
 72
    25
 73
    21
 74
     0
 42
0.00000001
 43
0.00000001
 40
0.0
 40
0.0
 40
0.0
 40
0.0
 40
0.0183255336334668
 40
0.0366506191531572
 40
0.0549762005519318
 40
0.0733032217460253
 40
0.0916326264292353
 40
0.1674005274622311
 40
0.2430863781513179
 40
0.3187576309084139
 40
0.4323367761031127
 40
0.5458527637465412
 40
0.6594766411055774
 40
0.7729262152948541
 40
0.8107980534203055
 40
0.8486478739884575
 40
0.886484322868945
 40
0.9243160550990958
 40
0.9621517289530853
 40
1.0
 40
1.0
 40
1.0
 40
1.0
 10
-0.6878853160392412
 20
17.2254539751758
 30
0.0
 10
-0.6467167021046744
 20
17.22463930619799
 30
0.0
 10
-0.5643804809305375
 20
17.22300998816344
 30
0.0
 10
-0.44090179950044
 20
17.21944214597009
 30
0.0
 10
-0.3174471314070476
 20
17.21505168180409
 30
0.0
 10
-0.1940176548903827
 20
17.20975779067872
 30
0.0
 10
0.0582790034391933
 20
17.19713257596445
 30
0.0
 10
0.4389428509023019
 20
17.17103292916771
 30
0.0
 10
0.9468917937508342
 20
17.1209417964962
 30
0.0
 10
1.537385884660372
 20
17.04483285811278
 30
0.0
 10
2.208630685417198
 20
16.93273145211734
 30
0.0
 10
2.957575186992324
 20
16.77278947481926
 30
0.0
 10
3.698301821115532
 20
16.57946761443419
 30
0.0
 10
4.267148302104388
 20
16.40314780065517
 30
0.0
 10
4.669177601783645
 20
16.26510684682467
 30
0.0
 10
4.909236348868351
 20
16.17860125865
 30
0.0
 10
5.147881976851314
 20
16.08852536798359
 30
0.0
 10
5.385078362695905
 20
15.99479341885455
 30
0.0
 10
5.620966048601201
 20
15.89772640752028
 30
0.0
 10
5.776963211886535
 20
15.83000905316809
 30
0.0
 10
5.854974775981189
 20
15.79614474039399
 30
0.0
  0
SPLINE
  5
B5
330
1F
100
AcDbEntity
  8
0
  6
Continuous
 62
     7
370
    25
100
AcDbSpline
210
0.0
220
0.0
230
1.0
 70
     8
 71
     3
 72
    15
 73
    11
 74
     0
 42
0.00000001
 43
0.00000001
 40
0.0
 40
0.0
 40
0.0
 40
0.0
 40
0.0094458970823023
 40
0.2166015764418152
 40
0.4238892444537095
 40
0.6309736101165946
 40
0.8382969726440687
 40
0.8922034730379145
 40
0.9461020441681062
 40
1.0
 40
1.0
 40
1.0
 40
1.0
 10
3.101190217205194
 20
17.34948015842178
 30
0.0
 10
3.08939422585465
 20
17.3522737954008
 30
0.0
 10
2.818903207377582
 20
17.41633400782839
 30
0.0
 10
2.286456524922321
 20
17.52889439014461
 30
0.0
 10
1.499197277333222
 20
17.65870803153856
 30
0.0
 10
0.7066593514586023
 20
17.75286345374175
 30
0.0
 10
0.1070313477450652
 20
17.79684413402177
 30
0.0
 10
-0.2969837499782801
 20
17.81493273489651
 30
0.0
 10
-0.5043923824419511
 20
17.82196660166476
 30
0.0
 10
-0.6427082327398748
 20
17.82461375311847
 30
0.0
 10
-0.7118657631381448
 20
17.82593732129042
 30
0.0
  0
SPLINE
  5
BC
330
1F
100
AcDbEntity
  8
0
  6
Continuous
 62
     7
370
    25
100
AcDbSpline
210
0.0
220
0.0
230
1.0
 70
     8
 71
     3
 72
    22
 73
    18
 74
     0
 42
0.00000001
 43
0.00000001
 40
0.0
 40
0.0
 40
0.0
 40
0.0
 40
0.0314830455847867
 40
0.0629689833691322
 40
0.0944591319877124
 40
0.2076921468855053
 40
0.3208574981085375
 40
0.4340168860818714
 40
0.5472320209801956
 40
0.6038990237542707
 40
0.6605302039922334
 40
0.7171333180944912
 40
0.773716134003413
 40
0.8302864280230988
 40
0.8868519816219591
 40
0.9434205782246544
 40
1.0
 40
1.0
 40
1.0
 40
1.0
 10
-0.9372864292923055
 20
23.47073796691297
 30
0.0
 10
-0.8866545371028295
 20
23.47052132843468
 30
0.0
 10
-0.7853861014097019
 20
23.47008803157652
 30
0.0
 10
-0.6334835589454579
 20
23.46819199135938
 30
0.0
 10
-0.3501454852723435
 20
23.4629484815926
 30
0.0
 10
0.0644104362831771
 20
23.4490520224788
 30
0.0
 10
0.6096666783932281
 20
23.41804544867444
 30
0.0
 10
1.154021710602229
 20
23.3743053316202
 30
0.0
 10
1.606827008292216
 20
23.32726021777795
 30
0.0
 10
1.968456565788564
 20
23.28328242990985
 30
0.0
 10
2.239301686011359
 20
23.24712445950503
 30
0.0
 10
2.509570740264208
 20
23.2078182169385
 30
0.0
 10
2.779263013312014
 20
23.16535798982274
 30
0.0
 10
3.048382702567488
 20
23.11976429549301
 30
0.0
 10
3.316913644029658
 20
23.07096079699493
 30
0.0
 10
3.584916205709371
 20
23.01923234452207
 30
0.0
 10
3.763056821047564
 20
22.98209314198772
 30
0.0
 10
3.85213565031052
 20
22.96352176411727
 30
0.0
  0
SPLINE
  5
BE
330
1F
100
AcDbEntity
  8
0
  6
Continuous
 62
     7
370
    25
100
AcDbSpline
210
0.0
220
0.0
230
1.0
 70
     8
 71
     3
 72
    10
 73
     6
 74
     0
 42
0.00000001
 43
0.00000001
 40
0.0
 40
0.0
 40
0.0
 40
0.0
 40
0.0720956087806705
 40
0.5360845406265224
 40
1.0
 40
1.0
 40
1.0
 40
1.0
 10
-0.4533679698229626
 20
24.06473769174257
 30
0.0
 10
-0.4655714053769688
 20
24.06500542021848
 30
0.0
 10
-0.5563130365758451
 20
24.06699618081331
 30
0.0
 10
-0.7256030360146715
 20
24.06979676208748
 30
0.0
 10
-0.882704599991907
 20
24.07045521470926
 30
0.0
 10
-0.9612491622447289
 20
24.07078441495166
 30
0.0
  0
SPLINE
  5
C1
330
1F
100
AcDbEntity
  8
0
  6
Continuous
 62
     7
370
    25
100
AcDbSpline
210
0.0
220
0.0
230
1.0
 70
     8
 71
     3
 72
    36
 73
    32
 74
     0
 42
0.00000001
 43
0.00000001
 40
0.0
 40
0.0
 40
0.0
 40
0.0
 40
0.0113752450755046
 40
0.0227469850789202
 40
0.0341159294980728
 40
0.0454827883442665
 40
0.0568482720196679
 40
0.068213091184324
 40
0.0795779566229408
 40
0.0909435791115428
 40
0.1023106692841401
 40
0.1136799374995318
 40
0.1250520937083642
 40
0.1876096375051026
 40
0.2500805769287016
 40
0.3125896555145756
 40
0.3750979477349914
 40
0.4376317801593753
 40
0.5001009430215142
 40
0.5626235184318091
 40
0.6250909916482732
 40
0.6875996187343937
 40
0.7500707549007487
 40
0.812608292067544
 40
0.8750361759619423
 40
0.895874501135506
 40
0.9167021387989155
 40
0.9375237961510745
 40
0.9583441844470816
 40
0.9791680158033821
 40
1.0
 40
1.0
 40
1.0
 40
1.0
 10
7.390852912717584
 20
15.02539388479874
 30
0.0
 10
7.429032236879708
 20
15.00359506100707
 30
0.0
 10
7.505379120948978
 20
14.96000413032945
 30
0.0
 10
7.619225181340121
 20
14.89348275757882
 30
0.0
 10
7.73255152340653
 20
14.8261452245109
 30
0.0
 10
7.845311389039085
 20
14.75790920445525
 30
0.0
 10
7.957517300613237
 20
14.6887967506925
 30
0.0
 10
8.069165903550198
 20
14.61880195470716
 30
0.0
 10
8.1802580886602
 20
14.54792640702699
 30
0.0
 10
8.290793638880873
 20
14.47616965803329
 30
0.0
 10
8.400772523938034
 20
14.40353192087661
 30
0.0
 10
8.510195074497663
 20
14.3300127978294
 30
0.0
 10
8.782376583333669
 20
14.14400185031126
 30
0.0
 10
9.209991698671116
 20
13.83536223881979
 30
0.0
 10
9.778774063149214
 20
13.38574188712865
 30
0.0
 10
10.32717239872663
 20
12.91174238408703
 30
0.0
 10
10.85433848393723
 20
12.41388714118005
 30
0.0
 10
11.35903222259741
 20
11.89347707136048
 30
0.0
 10
11.84030125396177
 20
11.35125568482044
 30
0.0
 10
12.29696830371079
 20
10.78848423944148
 30
0.0
 10
12.72820466021731
 20
10.20580578025758
 30
0.0
 10
13.13300271834889
 20
9.60469927390027
 30
0.0
 10
13.51072501422192
 20
8.985899600245535
 30
0.0
 10
13.86032057776932
 20
8.351149926204267
 30
0.0
 10
14.10979191315958
 20
7.84562758588778
 30
0.0
 10
14.27692560351767
 20
7.479666299187214
 30
0.0
 10
14.37394206762261
 20
7.258491702753895
 30
0.0
 10
14.46761088291089
 20
7.035953988638581
 30
0.0
 10
14.55785004239377
 20
6.81202219806394
 30
0.0
 10
14.64496968057276
 20
6.586808460694275
 30
0.0
 10
14.70018202730294
 20
6.435573958267849
 30
0.0
 10
14.72779360372449
 20
6.3599419073114
 30
0.0
  0
SPLINE
  5
C8
330
1F
100
AcDbEntity
  8
0
  6
Continuous
 62
     7
370
    25
100
AcDbSpline
210
0.0
220
0.0
230
1.0
 70
     8
 71
     3
 72
    16
 73
    12
 74
     0
 42
0.00000001
 43
0.00000001
 40
0.0
 40
0.0
 40
0.0
 40
0.0
 40
0.1112021263779455
 40
0.2223571355959231
 40
0.3334754579938112
 40
0.4445675342449769
 40
0.5556438124238463
 40
0.6667147450630644
 40
0.7777907862043592
 40
0.8888823884472875
 40
1.0
 40
1.0
 40
1.0
 40
1.0
 10
5.579168684797936
 20
9.507235369704357
 30
0.0
 10
5.550119333866038
 20
9.52788041343477
 30
0.0
 10
5.492032940426185
 20
9.569161753438516
 30
0.0
 10
5.404164327796485
 20
9.629999610481285
 30
0.0
 10
5.315782093326018
 20
9.69002389075567
 30
0.0
 10
5.226831781550636
 20
9.74915849058504
 30
0.0
 10
5.137327124844726
 20
9.807422342230327
 30
0.0
 10
5.047267639064948
 20
9.86481577684326
 30
0.0
 10
4.956641546331984
 20
9.921318533244742
 30
0.0
 10
4.865496463787935
 20
9.977011328111107
 30
0.0
 10
4.804277013276706
 20
10.01339268373221
 30
0.0
 10
4.773663705191139
 20
10.03158549073878
 30
0.0
  0
SPLINE
  5
CE
330
1F
100
AcDbEntity
  8
0
  6
Continuous
 62
     7
370
    25
100
AcDbSpline
210
0.0
220
0.0
230
1.0
 70
     8
 71
     3
 72
    24
 73
    20
 74
     0
 42
0.00000001
 43
0.00000001
 40
0.0
 40
0.0
 40
0.0
 40
0.0
 40
0.0067822751490507
 40
0.117026694456174
 40
0.2273131282780535
 40
0.3379784783670371
 40
0.4206395651675129
 40
0.5032803370521273
 40
0.5860387497470676
 40
0.6690521724770063
 40
0.7057917429486961
 40
0.7425120728948763
 40
0.7792248868106424
 40
0.8159419163911532
 40
0.8526748892924005
 40
0.889435517911299
 40
0.9262354882386588
 40
0.9630864488377766
 40
1.0
 40
1.0
 40
1.0
 40
1.0
 10
9.570580724110139
 20
4.032891147728495
 30
0.0
 10
9.567050742421458
 20
4.044125251208975
 30
0.0
 10
9.506141669958517
 20
4.237967283065055
 30
0.0
 10
9.37641004742981
 20
4.610962585460747
 30
0.0
 10
9.157860441117453
 20
5.143143915330399
 30
0.0
 10
8.930824561018936
 20
5.619206233982885
 30
0.0
 10
8.704169298140705
 20
6.041493230007375
 30
0.0
 10
8.485070631503874
 20
6.412436235402414
 30
0.0
 10
8.250678113266009
 20
6.774629355706685
 30
0.0
 10
8.047742617889163
 20
7.061893591514229
 30
0.0
 10
7.88460458075144
 20
7.279148522925745
 30
0.0
 10
7.767022933025576
 20
7.430043556505167
 30
0.0
 10
7.646787640782025
 20
7.578781333405906
 30
0.0
 10
7.523899102802356
 20
7.725363694735423
 30
0.0
 10
7.398353432989222
 20
7.869786184506918
 30
0.0
 10
7.270166028868119
 20
8.012064542154292
 30
0.0
 10
7.139279361998274
 20
8.152139944736309
 30
0.0
 10
7.005908810597798
 20
8.290232123084738
 30
0.0
 10
6.914888903369933
 20
8.380337469633698
 30
0.0
 10
6.86934033371211
 20
8.425428370941177
 30
0.0
  0
SPLINE
  5
D5
330
1F
100
AcDbEntity
  8
0
  6
Continuous
 62
     7
370
    25
100
AcDbSpline
210
0.0
220
0.0
230
1.0
 70
     8
 71
     3
 72
    39
 73
    35
 74
     0
 42
0.00000001
 43
0.00000001
 40
0.0
 40
0.0
 40
0.0
 40
0.0
 40
0.009628144918437
 40
0.0192528330299475
 40
0.0288745291386013
 40
0.0384936984821952
 40
0.0481108066652301
 40
0.0577263195916253
 40
0.0673407033972135
 40
0.0769544243820693
 40
0.0865679489427167
 40
0.0961817435042667
 40
0.1057962744525359
 40
0.1154120080661909
 40
0.1250294104489723
 40
0.1875460348274438
 40
0.2500423766754435
 40
0.3125788341487229
 40
0.3750525087038817
 40
0.4375592361140017
 40
0.5000564688052285
 40
0.5625867777365842
 40
0.625048450569232
 40
0.6875565433540576
 40
0.7500324186161506
 40
0.8125366604229421
 40
0.8750136598431723
 40
0.8928933250809588
 40
0.9107595700824367
 40
0.9286155477927028
 40
0.9464644165979066
 40
0.9643093386588291
 40
0.9821534782344593
 40
1.0
 40
1.0
 40
1.0
 40
1.0
 10
19.45448202537007
 20
11.11005275077716
 30
0.0
 10
19.47810119099199
 20
11.06384007494231
 30
0.0
 10
19.52533104221229
 20
10.97143131507707
 30
0.0
 10
19.59494155364473
 20
10.83222126580684
 30
0.0
 10
19.66363045012984
 20
10.69260912953165
 30
0.0
 10
19.73131028799586
 20
10.55254999378416
 30
0.0
 10
19.79800448659952
 20
10.41205588873023
 30
0.0
 10
19.86370677235194
 20
10.27112359307777
 30
0.0
 10
19.92841882512554
 20
10.12975397171571
 30
0.0
 10
19.99214019411435
 20
9.987946791257158
 30
0.0
 10
20.05487100005145
 20
9.845702126416466
 30
0.0
 10
20.11661120793014
 20
9.703019917641937
 30
0.0
 10
20.17736083440692
 20
9.559900334475966
 30
0.0
 10
20.23711984537892
 20
9.416342764305144
 30
0.0
 10
20.4036316915765
 20
9.008359237777475
 30
0.0
 10
20.66029067674644
 20
8.32925575240618
 30
0.0
 10
20.97436851084827
 20
7.367984678465826
 30
0.0
 10
21.24441672099054
 20
6.393647839176024
 30
0.0
 10
21.46971879929578
 20
5.407948103131262
 30
0.0
 10
21.64973245103054
 20
4.413191843781666
 30
0.0
 10
21.78397378253695
 20
3.410924206845935
 30
0.0
 10
21.87218163258895
 20
2.403802248582389
 30
0.0
 10
21.91387334714229
 20
1.393624248239719
 30
0.0
 10
21.90901631966287
 20
0.3828916072220259
 30
0.0
 10
21.85746245927875
 20
-0.6267717116107587
 30
0.0
 10
21.75934193871752
 20
-1.632796050557561
 30
0.0
 10
21.6490057482942
 20
-2.39522877977163
 30
0.0
 10
21.55759165289912
 20
-2.916735871630399
 30
0.0
 10
21.50393348155101
 20
-3.200649206914843
 30
0.0
 10
21.44653357981527
 20
-3.483658718337068
 30
0.0
 10
21.38541641499036
 20
-3.765772580426274
 30
0.0
 10
21.32049139148878
 20
-4.046966210872532
 30
0.0
 10
21.25209640644565
 20
-4.327329593240265
 30
0.0
 10
21.20335183058457
 20
-4.513437894534741
 30
0.0
 10
21.17897791591426
 20
-4.606498256124855
 30
0.0
  0
SPLINE
  5
DC
330
1F
100
AcDbEntity
  8
0
  6
Continuous
 62
     7
370
    25
100
AcDbSpline
210
0.0
220
0.0
230
1.0
 70
     8
 71
     3
 72
    22
 73
    18
 74
     0
 42
0.00000001
 43
0.00000001
 40
0.0
 40
0.0
 40
0.0
 40
0.0
 40
0.0601588196027041
 40
0.1203025000444766
 40
0.180434490138179
 40
0.2405582407084124
 40
0.3006772039986221
 40
0.3607948330769813
 40
0.4209145812415601
 40
0.4810399014252971
 40
0.541174245601293
 40
0.6013210641889184
 40
0.6614838054612711
 40
0.7216659149544646
 40
0.8144311849383312
 40
0.9072049983527818
 40
1.0
 40
1.0
 40
1.0
 40
1.0
 10
15.28956721290145
 20
6.570819465661517
 30
0.0
 10
15.2752009905021
 20
6.610375280404539
 30
0.0
 10
15.24647216100961
 20
6.689476955542265
 30
0.0
 10
15.20224637255089
 20
6.807698929004172
 30
0.0
 10
15.15719951147609
 20
6.925583264237575
 30
0.0
 10
15.11124982202441
 20
7.043100469316975
 30
0.0
 10
15.06441920465293
 20
7.160258442679892
 30
0.0
 10
15.01670179522036
 20
7.277055068022184
 30
0.0
 10
14.96809915621657
 20
7.393490906461995
 30
0.0
 10
14.91861090414519
 20
7.509565822712307
 30
0.0
 10
14.86823701355237
 20
7.625279789959273
 30
0.0
 10
14.81697797318253
 20
7.740633044083273
 30
0.0
 10
14.76483185628511
 20
7.85562466141482
 30
0.0
 10
14.70224318344256
 20
7.990931092057295
 30
0.0
 10
14.62854427415965
 20
8.146226245993223
 30
0.0
 10
14.54316239219855
 20
8.321220988310689
 30
0.0
 10
14.48451800909511
 20
8.437034239955036
 30
0.0
 10
14.45519246953786
 20
8.494947477551213
 30
0.0
  0
SPLINE
  5
E2
330
1F
100
AcDbEntity
  8
0
  6
Continuous
 62
     7
370
    25
100
AcDbSpline
210
0.0
220
0.0
230
1.0
 70
     8
 71
     3
 72
    24
 73
    20
 74
     0
 42
0.00000001
 43
0.00000001
 40
0.0
 40
0.0
 40
0.0
 40
0.0
 40
0.004191064985303
 40
0.0871630309596235
 40
0.1700432253892291
 40
0.2529973124899977
 40
0.3361905150473089
 40
0.4191501780638314
 40
0.5021657930073734
 40
0.5851005853384215
 40
0.6681230032071648
 40
0.7510423198688235
 40
0.8340623000682709
 40
0.8617290996400797
 40
0.8893839300672108
 40
0.917032611524221
 40
0.9446809680688719
 40
0.9723348239642102
 40
1.0
 40
1.0
 40
1.0
 40
1.0
 10
15.61085031897707
 20
-3.571789678117121
 30
0.0
 10
15.61425447754805
 20
-3.560223730646755
 30
0.0
 10
15.68505194309776
 20
-3.319682712797603
 30
0.0
 10
15.8119142000351
 20
-2.847051963084993
 30
0.0
 10
15.96664817193389
 20
-2.14800095887796
 30
0.0
 10
16.090010133493
 20
-1.442072984170355
 30
0.0
 10
16.18185633772853
 20
-0.7311357797604195
 30
0.0
 10
16.24225589450287
 20
-0.0166629216765982
 30
0.0
 10
16.27099747717881
 20
0.6990381408807436
 30
0.0
 10
16.26820780776234
 20
1.415489768862058
 30
0.0
 10
16.23383272617617
 20
2.130846197150288
 30
0.0
 10
16.16816104100096
 20
2.844244271274488
 30
0.0
 10
16.09289419687194
 20
3.396285901343951
 30
0.0
 10
16.02773158208435
 20
3.788894305128916
 30
0.0
 10
15.98523459759794
 20
4.023772280256782
 30
0.0
 10
15.93936101988857
 20
4.257960024947955
 30
0.0
 10
15.89002898185522
 20
4.491438476902817
 30
0.0
 10
15.83754381052728
 20
4.724283339815308
 30
0.0
 10
15.79970202618949
 20
4.878859008531558
 30
0.0
 10
15.78077726216764
 20
4.956162658588359
 30
0.0
  0
SPLINE
  5
E9
330
1F
100
AcDbEntity
  8
0
  6
Continuous
 62
     7
370
    25
100
AcDbSpline
210
0.0
220
0.0
230
1.0
 70
     8
 71
     3
 72
    42
 73
    38
 74
     0
 42
0.00000001
 43
0.00000001
 40
0.0
 40
0.0
 40
0.0
 40
0.0
 40
0.0089400262411972
 40
0.017877109068366
 40
0.0268116244600901
 40
0.0357439487191578
 40
0.0446744584253393
 40
0.0536035303879886
 40
0.0625315415985011
 40
0.0714588691826553
 40
0.0803858903528697
 40
0.0893129823604056
 40
0.0982405224475442
 40
0.1071688877997693
 40
0.1160984554979875
 40
0.1250296024708125
 40
0.1875640071255961
 40
0.2500393712034508
 40
0.3125456370618014
 40
0.3750457137310505
 40
0.4375768745596332
 40
0.500048311434405
 40
0.5625667035342616
 40
0.6250419524887888
 40
0.687540656683928
 40
0.7500257683500253
 40
0.7813070098440288
 40
0.8125540222901221
 40
0.8437837190952278
 40
0.8750130418000783
 40
0.8928821110788375
 40
0.9107412855335475
 40
0.928593741582835
 40
0.9464426592321771
 40
0.9642912203783182
 40
0.9821426071086364
 40
1.0
 40
1.0
 40
1.0
 40
1.0
 10
5.513309814635823
 20
22.54686523778123
 30
0.0
 10
5.561432312442729
 20
22.53279329253674
 30
0.0
 10
5.657661464206504
 20
22.5046540350947
 30
0.0
 10
5.801632699884108
 20
22.46126630273453
 30
0.0
 10
5.945297963486376
 20
22.41702514427343
 30
0.0
 10
6.088632531996393
 20
22.37184542469374
 30
0.0
 10
6.231643026222372
 20
22.32574994668913
 30
0.0
 10
6.374327671702392
 20
22.27873260265729
 30
0.0
 10
6.51668694294473
 20
22.23079502885496
 30
0.0
 10
6.658720711234026
 20
22.18193678742998
 30
0.0
 10
6.800429012385091
 20
22.13215799520909
 30
0.0
 10
6.941811827231984
 20
22.08145862412434
 30
0.0
 10
7.082869192064472
 20
22.02983867120302
 30
0.0
 10
7.223600976352755
 20
21.97729817809817
 30
0.0
 10
7.364007661534205
 20
21.92383698294876
 30
0.0
 10
7.784318468301571
 20
21.76066537735072
 30
0.0
 10
8.477555086518402
 20
21.47061268642268
 30
0.0
 10
9.428461264320182
 20
21.02067957633901
 30
0.0
 10
10.35767892080168
 20
20.52787399688283
 30
0.0
 10
11.26358966331476
 20
19.99282678141616
 30
0.0
 10
12.1439126522938
 20
19.41699835396589
 30
0.0
 10
12.99685963003614
 20
18.80116757881727
 30
0.0
 10
13.82033528457043
 20
18.14695448261426
 30
0.0
 10
14.61284508638938
 20
17.45531472524915
 30
0.0
 10
15.37242110728548
 20
16.72794212439587
 30
0.0
 10
15.97678082064413
 20
16.09282649239802
 30
0.0
 10
16.44218650118449
 20
15.5684097415329
 30
0.0
 10
16.78200440807002
 20
15.16709006831745
 30
0.0
 10
17.11219916456896
 20
14.75819569059441
 30
0.0
 10
17.38701220037431
 20
14.40117306396516
 30
0.0
 10
17.61058340361807
 20
14.09945697587893
 30
0.0
 10
17.78625765637076
 20
13.85565456199319
 30
0.0
 10
17.95859328787556
 20
13.60961975323904
 30
0.0
 10
18.12761308389623
 20
13.36136598407063
 30
0.0
 10
18.29323370771844
 20
13.11084224303281
 30
0.0
 10
18.45576566983164
 20
12.85823931112688
 30
0.0
 10
18.56126435453488
 20
12.68801512015301
 30
0.0
 10
18.61402256924362
 20
12.60288870894435
 30
0.0
  0
SPLINE
  5
F0
330
1F
100
AcDbEntity
  8
0
  6
Continuous
 62
     7
370
    25
100
AcDbSpline
210
0.0
220
0.0
230
1.0
 70
     8
 71
     3
 72
    22
 73
    18
 74
     0
 42
0.00000001
 43
0.00000001
 40
0.0
 40
0.0
 40
0.0
 40
0.0
 40
0.0588174728137911
 40
0.1176218228903601
 40
0.1764164565559699
 40
0.2352047818258564
 40
0.2939902078124203
 40
0.3527761441324669
 40
0.4115660003140091
 40
0.4703631852031452
 40
0.5291711063715331
 40
0.5879931695249647
 40
0.64683277791357
 40
0.7056933317441402
 40
0.803785621081135
 40
0.9018825817803728
 40
1.0
 40
1.0
 40
1.0
 40
1.0
 10
6.08930399751913
 20
16.34854223947431
 30
0.0
 10
6.048659145055513
 20
16.36626940169867
 30
0.0
 10
5.967378508381178
 20
16.40171977104899
 30
0.0
 10
5.844960329538491
 20
16.4537123849678
 30
0.0
 10
5.722198964286812
 20
16.50482980421342
 30
0.0
 10
5.599057426397539
 20
16.55498772938351
 30
0.0
 10
5.475545625423801
 20
16.60420874200517
 30
0.0
 10
5.351660908971898
 20
16.65248679440868
 30
0.0
 10
5.227403985797705
 20
16.69982349562492
 30
0.0
 10
5.102774680687
 20
16.74621845410188
 30
0.0
 10
4.977772993328005
 20
16.79167162434733
 30
0.0
 10
4.852399107959024
 20
16.83618357777609
 30
0.0
 10
4.726652295394369
 20
16.87975207120092
 30
0.0
 10
4.572533388002265
 20
16.93185146152009
 30
0.0
 10
4.389745140006395
 20
16.99153501836111
 30
0.0
 10
4.17802293882103
 20
17.05791988575099
 30
0.0
 10
4.036177899149204
 20
17.09990164305542
 30
0.0
 10
3.965247984855744
 20
17.12089471023904
 30
0.0
  0
SPLINE
  5
F6
330
1F
100
AcDbEntity
  8
0
  6
Continuous
 62
     7
370
    25
100
AcDbSpline
210
0.0
220
0.0
230
1.0
 70
     8
 71
     3
 72
    24
 73
    20
 74
     0
 42
0.00000001
 43
0.00000001
 40
0.0
 40
0.0
 40
0.0
 40
0.0
 40
0.0040090052977514
 40
0.0869980251085262
 40
0.1700436867368675
 40
0.2530061733498121
 40
0.33606002490381
 40
0.4190153545619608
 40
0.5020621106836387
 40
0.5850480222553074
 40
0.6680514218440284
 40
0.7509786016227774
 40
0.8340252504961904
 40
0.8616949672184406
 40
0.8893539135868874
 40
0.9170079886204681
 40
0.9446630944553853
 40
0.9723251325680267
 40
0.9999999999999999
 40
0.9999999999999999
 40
0.9999999999999999
 40
0.9999999999999999
 10
14.02774453325378
 20
9.27962990506105
 30
0.0
 10
14.02162481657194
 20
9.290167994938217
 30
0.0
 10
13.88882298020557
 20
9.51885140631807
 30
0.0
 10
13.61841821811228
 20
9.959603598076198
 30
0.0
 10
13.19408881223222
 20
10.58663507523465
 30
0.0
 10
12.74191985526345
 20
11.19416714270762
 30
0.0
 10
12.2631338515016
 20
11.78058806731527
 30
0.0
 10
11.75853790878023
 20
12.34529504742341
 30
0.0
 10
11.22947796717568
 20
12.88685918569447
 30
0.0
 10
10.67687375636142
 20
13.40458880553275
 30
0.0
 10
10.10211432862771
 20
13.89705284004378
 30
0.0
 10
9.506045173635973
 20
14.36377649312514
 30
0.0
 10
9.026890662850706
 20
14.7060225797304
 30
0.0
 10
8.677622643929874
 20
14.94041646433704
 30
0.0
 10
8.466133294959672
 20
15.0779062243219
 30
0.0
 10
8.252705650449974
 20
15.21228390177607
 30
0.0
 10
8.037294832351403
 20
15.34347225644328
 30
0.0
 10
7.820064724620636
 20
15.47176291149046
 30
0.0
 10
7.673668901245293
 20
15.55460647963202
 30
0.0
 10
7.600454019339026
 20
15.59603786693756
 30
0.0
  0
SPLINE
  5
FD
330
1F
100
AcDbEntity
  8
0
  6
Continuous
 62
     7
370
    25
100
AcDbSpline
210
0.0
220
0.0
230
1.0
 70
     8
 71
     3
 72
    47
 73
    43
 74
     0
 42
0.00000001
 43
0.00000001
 40
0.0
 40
0.0
 40
0.0
 40
0.0
 40
0.0078238200909943
 40
0.0156450791912344
 40
0.0234640398977573
 40
0.0312809650392333
 40
0.0390961176497042
 40
0.0469097609422203
 40
0.054722158282387
 40
0.0625335731618326
 40
0.0703442691716151
 40
0.0781545099755763
 40
0.0859645592836612
 40
0.0937746808252119
 40
0.1015851383222535
 40
0.1093961954627835
 40
0.1172081158740763
 40
0.1250211630960214
 40
0.1562909545298265
 40
0.1875386431206046
 40
0.2187811980693944
 40
0.2500355969389835
 40
0.312543769034919
 40
0.3750372726401529
 40
0.4375529631731034
 40
0.5000345951099264
 40
0.5625564771984232
 40
0.6250275604509582
 40
0.6875407590779143
 40
0.7500161909958756
 40
0.7812786691799168
 40
0.8125199829639738
 40
0.843757663632044
 40
0.8750092485823615
 40
0.8906455590310169
 40
0.906273896244568
 40
0.9218964637896356
 40
0.9375154676748373
 40
0.9531331154189019
 40
0.9687516151155898
 40
0.9843731744973926
 40
1.0
 40
1.0
 40
1.0
 40
1.0
 10
21.50326377530527
 20
19.25421204424924
 30
0.0
 10
21.53896821373674
 20
19.21131451794725
 30
0.0
 10
21.61036540337584
 20
19.12553350709869
 30
0.0
 10
21.71649784021499
 20
18.99609802482541
 30
0.0
 10
21.82190085782824
 20
18.86613208547554
 30
0.0
 10
21.92650678872602
 20
18.73557917697229
 30
0.0
 10
22.0303337561423
 20
18.60445443575473
 30
0.0
 10
22.13337690527685
 20
18.47275380805686
 30
0.0
 10
22.23563753605297
 20
18.34047838025007
 30
0.0
 10
22.33711529975544
 20
18.20762786187574
 30
0.0
 10
22.43781028936701
 20
18.07420233122515
 30
0.0
 10
22.53772247936801
 20
17.9402017681334
 30
0.0
 10
22.63685187669948
 20
17.80562617763655
 30
0.0
 10
22.73519847700546
 20
17.67047556245788
 30
0.0
 10
22.83276228872442
 20
17.53474990942176
 30
0.0
 10
22.92954328047487
 20
17.3984492713129
 30
0.0
 10
23.02554156744597
 20
17.26157345298535
 30
0.0
 10
23.21603665650399
 20
16.98657939220406
 30
0.0
 10
23.4957414562287
 20
16.57000951291833
 30
0.0
 10
23.85558174980405
 20
16.00614000771179
 30
0.0
 10
24.20212236818684
 20
15.43412128485256
 30
0.0
 10
24.6463143450294
 20
14.66081266870366
 30
0.0
 10
25.16759598144864
 20
13.67504261138098
 30
0.0
 10
25.73707403910711
 20
12.46411607319892
 30
0.0
 10
26.24930097013813
 20
11.22806901522073
 30
0.0
 10
26.70296127870903
 20
9.969134844627824
 30
0.0
 10
27.0970303707871
 20
8.690625453849412
 30
0.0
 10
27.43048013787738
 20
7.394745700501132
 30
0.0
 10
27.70253074223507
 20
6.084952390463123
 30
0.0
 10
27.87746179629631
 20
4.983672196384732
 30
0.0
 10
27.98607637543881
 20
4.098691889225971
 30
0.0
 10
28.05180292550202
 20
3.433148403743988
 30
0.0
 10
28.10173095701827
 20
2.766317419312633
 30
0.0
 10
28.13016873064438
 20
2.209669049006985
 30
0.0
 10
28.14501407371079
 20
1.763941342632221
 30
0.0
 10
28.15217798273111
 20
1.429534790183987
 30
0.0
 10
28.15536931854628
 20
1.095190593662236
 30
0.0
 10
28.15458077923839
 20
0.7609085171328343
 30
0.0
 10
28.14983834478074
 20
0.4266873062106269
 30
0.0
 10
28.14104538993782
 20
0.0925323342933104
 30
0.0
 10
28.12856251758392
 20
-0.24157652209046
 30
0.0
 10
28.11688561123284
 20
-0.4641868509288133
 30
0.0
 10
28.11104617413446
 20
-0.5755107730035985
 30
0.0
  0
SPLINE
  5
104
330
1F
100
AcDbEntity
  8
0
  6
Continuous
 62
     7
370
    25
100
AcDbSpline
210
0.0
220
0.0
230
1.0
 70
     8
 71
     3
 72
    26
 73
    22
 74
     0
 42
0.00000001
 43
0.00000001
 40
0.0
 40
0.0
 40
0.0
 40
0.0
 40
0.0455092746194008
 40
0.0910089525463668
 40
0.1365010740202378
 40
0.1819876802971575
 40
0.2274708133758263
 40
0.2729525157227535
 40
0.318434829997198
 40
0.3639197987759764
 40
0.4094094642783283
 40
0.4549058680910203
 40
0.5004110508938768
 40
0.5459270521859243
 40
0.5914559100123183
 40
0.6369996606922594
 40
0.7095996598598141
 40
0.7821914324927729
 40
0.8547832397605873
 40
0.9273833428208821
 40
1.0
 40
1.0
 40
1.0
 40
1.0
 10
19.12222861058747
 20
12.92188401078914
 30
0.0
 10
19.0951139108841
 20
12.96579748946677
 30
0.0
 10
19.04089022924445
 20
13.05361518664039
 30
0.0
 10
18.95844638774188
 20
13.18463575775087
 30
0.0
 10
18.8752038328519
 20
13.31511881827455
 30
0.0
 10
18.79108225382068
 20
13.44501499283426
 30
0.0
 10
18.7061031655508
 20
13.57433750748775
 30
0.0
 10
18.6202608047052
 20
13.7030828178891
 30
0.0
 10
18.53355671599635
 20
13.83125187262425
 30
0.0
 10
18.44599048648577
 20
13.95884441668775
 30
0.0
 10
18.35756222647991
 20
14.08586051694101
 30
0.0
 10
18.26827191104937
 20
14.21230015644085
 30
0.0
 10
18.1781195330519
 20
14.33816333167105
 30
0.0
 10
18.08710514958535
 20
14.4634500693294
 30
0.0
 10
17.99522854300395
 20
14.58816026187771
 30
0.0
 10
17.88413795397059
 20
14.73686006780889
 30
0.0
 10
17.75317681558041
 20
14.90901827876795
 30
0.0
 10
17.60156626342528
 20
15.10399214499398
 30
0.0
 10
17.44784543570373
 20
15.29730500894619
 30
0.0
 10
17.29219787516404
 20
15.48911075261
 30
0.0
 10
17.18670768692356
 20
15.61557398036177
 30
0.0
 10
17.13395658007756
 20
15.67881280238394
 30
0.0
  0
SPLINE
  5
10A
330
1F
100
AcDbEntity
  8
0
  6
Continuous
 62
     7
370
    25
100
AcDbSpline
210
0.0
220
0.0
230
1.0
 70
     8
 71
     3
 72
    25
 73
    21
 74
     0
 42
0.00000001
 43
0.00000001
 40
0.0
 40
0.0
 40
0.0
 40
0.0
 40
0.0029477759600154
 40
0.0860198821809981
 40
0.1691405194032571
 40
0.252182971248007
 40
0.3353258359688195
 40
0.4184074577481808
 40
0.501507927243226
 40
0.5845497061064143
 40
0.6676793387157843
 40
0.7507389047832456
 40
0.8338374454259289
 40
0.8575728298422551
 40
0.8813022532018028
 40
0.9050297170375606
 40
0.928759223873827
 40
0.9524947752013677
 40
0.9762403694551842
 40
1.0
 40
1.0
 40
1.0
 40
1.0
 10
22.44702559300566
 20
-0.684383858948616
 30
0.0
 10
22.44793925116578
 20
-0.6720901488202646
 30
0.0
 10
22.47460096777982
 20
-0.3133439241571764
 30
0.0
 10
22.50976635301228
 20
0.3934311752420067
 30
0.0
 10
22.5134658293698
 20
1.436080691527911
 30
0.0
 10
22.46888652644683
 20
2.478106263133507
 30
0.0
 10
22.37616086726217
 20
3.516781066698627
 30
0.0
 10
22.23576902351143
 20
4.550337425074061
 30
0.0
 10
22.04800488634618
 20
5.575916003194129
 30
0.0
 10
21.81336995315204
 20
6.5919988054794
 30
0.0
 10
21.53246281694399
 20
7.596099275077099
 30
0.0
 10
21.20599958010092
 20
8.586557395201574
 30
0.0
 10
20.92306739994789
 20
9.32891728531275
 30
0.0
 10
20.71377159821472
 20
9.83323779558014
 30
0.0
 10
20.59608910680432
 20
10.10672964323278
 30
0.0
 10
20.47486970126511
 20
10.37864360395338
 30
0.0
 10
20.35013568960606
 20
10.64899302439709
 30
0.0
 10
20.22180367541867
 20
10.9177342099885
 30
0.0
 10
20.09018517078325
 20
11.18502854232562
 30
0.0
 10
19.99950473007866
 20
11.36179646108014
 30
0.0
 10
19.95415111312568
 20
11.45020653512118
 30
0.0
  0
SPLINE
  5
111
330
1F
100
AcDbEntity
  8
0
  6
Continuous
 62
     7
370
    25
100
AcDbSpline
210
0.0
220
0.0
230
1.0
 70
     8
 71
     3
 72
    34
 73
    30
 74
     0
 42
0.00000001
 43
0.00000001
 40
0.0
 40
0.0
 40
0.0
 40
0.0
 40
0.0075066791549617
 40
0.0153577383160915
 40
0.0311430181227333
 40
0.0623689682169738
 40
0.0936307207104351
 40
0.1248978362705437
 40
0.2498971442408778
 40
0.3748925832829672
 40
0.437416856874708
 40
0.4999183320684766
 40
0.5624495878604324
 40
0.6249399882144278
 40
0.6874733203134725
 40
0.7499574886744917
 40
0.7812342536709838
 40
0.8124851302358678
 40
0.8437277183640645
 40
0.8749796320537777
 40
0.8888811354572705
 40
0.902776422225378
 40
0.9166670459858953
 40
0.9305545619316022
 40
0.9444405262994802
 40
0.9583264958481789
 40
0.9722140273346057
 40
0.9861046769905187
 40
0.9999999999999999
 40
0.9999999999999999
 40
0.9999999999999999
 40
0.9999999999999999
 10
0.859495543894398
 20
29.65866900568957
 30
0.0
 10
0.9145596806887091
 20
29.65508127139719
 30
0.0
 10
1.0272141029747
 20
29.64774121019668
 30
0.0
 10
1.25555477001858
 20
29.6313244954143
 30
0.0
 10
1.657597340390801
 20
29.59957438858551
 30
0.0
 10
2.230283732330199
 20
29.54340705587927
 30
0.0
 10
2.914542174459589
 20
29.46062933922263
 30
0.0
 10
4.278859947646599
 20
29.26296402346153
 30
0.0
 10
6.307567644120931
 20
28.84727218489789
 30
0.0
 10
8.508497351841404
 20
28.17662710608244
 30
0.0
 10
10.22511020121448
 20
27.51849833164164
 30
0.0
 10
11.48828334878851
 20
26.96469717069476
 30
0.0
 10
12.72380037081428
 20
26.35228919728331
 30
0.0
 10
13.92922901953999
 20
25.68208968842675
 30
0.0
 10
15.10142550036107
 20
24.95601640543747
 30
0.0
 10
16.04876958950694
 20
24.30517713757819
 30
0.0
 10
16.78730898103052
 20
23.75822828943183
 30
0.0
 10
17.33140913309436
 20
23.33493643309045
 30
0.0
 10
17.86515694170687
 20
22.89896178586991
 30
0.0
 10
18.29157197356835
 20
22.53344029425416
 30
0.0
 10
18.61624285350766
 20
22.24533860957713
 30
0.0
 10
18.84329343266685
 20
22.03953068278203
 30
0.0
 10
19.06807829292756
 20
21.83140250013783
 30
0.0
 10
19.29059884105929
 20
21.62095459865654
 30
0.0
 10
19.5108508590955
 20
21.40818323958169
 30
0.0
 10
19.72884975917781
 20
21.19310288527484
 30
0.0
 10
19.94453805335551
 20
20.97565946604196
 30
0.0
 10
20.15813029149986
 20
20.75605490297827
 30
0.0
 10
20.29856482364332
 20
20.60773898103055
 30
0.0
 10
20.36879389963494
 20
20.53356854734697
 30
0.0
  0
SPLINE
  5
118
330
1F
100
AcDbEntity
  8
0
  6
Continuous
 62
     7
370
    25
100
AcDbSpline
210
0.0
220
0.0
230
1.0
 70
     8
 71
     3
 72
    26
 73
    22
 74
     0
 42
0.00000001
 43
0.00000001
 40
0.0
 40
0.0
 40
0.0
 40
0.0
 40
0.0450379324147277
 40
0.0900695916698404
 40
0.1350970141579231
 40
0.1801222368464194
 40
0.2251472970013346
 40
0.2701742319107365
 40
0.3152050786082387
 40
0.3602418735966597
 40
0.4052866525720401
 40
0.4503414501482068
 40
0.4954082995820704
 40
0.5404892324998395
 40
0.5855862786243358
 40
0.6307014655035916
 40
0.7045951822545375
 40
0.7784629956402264
 40
0.8523138013482765
 40
0.9261565012129531
 40
1.0
 40
1.0
 40
1.0
 40
1.0
 10
3.971113664093895
 20
23.55163254422473
 30
0.0
 10
3.918728091446304
 20
23.56262015390601
 30
0.0
 10
3.813964242735157
 20
23.58459384284686
 30
0.0
 10
3.656550580384725
 20
23.61621206097739
 30
0.0
 10
3.498958304965265
 20
23.64684387108049
 30
0.0
 10
3.34116706708098
 20
23.67639317758875
 30
0.0
 10
3.183182319910155
 20
23.70488572591387
 30
0.0
 10
3.025002603589709
 20
23.73231461773911
 30
0.0
 10
2.866628310508875
 20
23.75868170126653
 30
0.0
 10
2.708059336843141
 20
23.78398648123529
 30
0.0
 10
2.549295711344646
 20
23.80822908966523
 30
0.0
 10
2.390337428729477
 20
23.83140949327948
 30
0.0
 10
2.23118448726714
 20
23.85352769276812
 30
0.0
 10
2.071836905068716
 20
23.87458371846162
 30
0.0
 10
1.912294617280919
 20
23.89457744823484
 30
0.0
 10
1.718617350865689
 20
23.91753194840445
 30
0.0
 10
1.490752051298438
 20
23.94249723166416
 30
0.0
 10
1.22864079204896
 20
23.96832317177169
 30
0.0
 10
0.9663188969045805
 20
23.99120936808741
 30
0.0
 10
0.7038022618185924
 20
24.01141866866551
 30
0.0
 10
0.5286302199512288
 20
24.02245278908508
 30
0.0
 10
0.4410437252127364
 20
24.02796987913991
 30
0.0
  0
SPLINE
  5
11E
330
1F
100
AcDbEntity
  8
0
  6
Continuous
 62
     7
370
    25
100
AcDbSpline
210
0.0
220
0.0
230
1.0
 70
     8
 71
     3
 72
    27
 73
    23
 74
     0
 42
0.00000001
 43
0.00000001
 40
0.0
 40
0.0
 40
0.0
 40
0.0
 40
0.0028401996416392
 40
0.0859306076339208
 40
0.1690475949249375
 40
0.2521179078950426
 40
0.3352506090853877
 40
0.4183046830033306
 40
0.5014473786612721
 40
0.5845327984111107
 40
0.667632387872839
 40
0.7091584944424978
 40
0.7506834604222089
 40
0.7922290847051348
 40
0.8338171336995301
 40
0.8575547794800409
 40
0.8812866123019331
 40
0.9050166730113265
 40
0.9287490033595409
 40
0.9524876439386071
 40
0.9762366321197362
 40
1.0
 40
1.0
 40
1.0
 40
1.0
 10
16.54549711143009
 20
16.35305035097291
 30
0.0
 10
16.53719980111305
 20
16.3621863798561
 30
0.0
 10
16.28616360393277
 20
16.63859811577226
 30
0.0
 10
15.7789204954067
 20
17.17034045094349
 30
0.0
 10
14.99544746283357
 20
17.91884535948925
 30
0.0
 10
14.17791184272211
 20
18.63030801097441
 30
0.0
 10
13.32851502733167
 20
19.30295643124494
 30
0.0
 10
12.4487116541144
 20
19.93585424155891
 30
0.0
 10
11.54075807715325
 20
20.52728503408811
 30
0.0
 10
10.60644654953104
 20
21.0764932574989
 30
0.0
 10
9.807818490789002
 20
21.49773681332683
 30
0.0
 10
9.157982673314889
 20
21.81243302168038
 30
0.0
 10
8.665379655555574
 20
22.03720120318651
 30
0.0
 10
8.167512954032288
 20
22.25072890149032
 30
0.0
 10
7.736607031277335
 20
22.42398153225534
 30
0.0
 10
7.375022468105633
 20
22.56188881863678
 30
0.0
 10
7.084528178403953
 20
22.66836254677213
 30
0.0
 10
6.792689799177909
 20
22.77102306501238
 30
0.0
 10
6.499513962741338
 20
22.86989543153836
 30
0.0
 10
6.204973801044971
 20
22.96488541983106
 30
0.0
 10
5.90917036422227
 20
23.05634502540238
 30
0.0
 10
5.71094542952938
 20
23.11406722917517
 30
0.0
 10
5.611802965618273
 20
23.14293706592543
 30
0.0
  0
CIRCLE
  5
123
330
1F
100
AcDbEntity
  8
0
  6
Continuous
 62
     7
370
    25
100
AcDbCircle
 10
10.2933676698
 20
1.5770815248
 30
0.0
 40
0.1599999999999995
  0
CIRCLE
  5
124
330
1F
100
AcDbEntity
  8
0
  6
Continuous
 62
     7
370
    25
100
AcDbCircle
 10
9.725
 20
1.49
 30
0.0
 40
0.1250000000000013
  0
CIRCLE
  5
125
330
1F
100
AcDbEntity
  8
0
  6
Continuous
 62
     7
370
    25
100
AcDbCircle
 10
6.4094744395
 20
9.2089423085
 30
0.0
 40
0.1600000000000001
  0
CIRCLE
  5
126
330
1F
100
AcDbEntity
  8
0
  6
Continuous
 62
     7
370
    25
100
AcDbCircle
 10
6.081
 20
8.737
 30
0.0
 40
0.1250000000000036
  0
CIRCLE
  5
127
330
1F
100
AcDbEntity
  8
0
  6
Continuous
 62
     7
370
    25
100
AcDbCircle
 10
15.8152029827
 20
5.8577126522
 30
0.0
 40
0.1599999999999948
  0
CIRCLE
  5
128
330
1F
100
AcDbEntity
  8
0
  6
Continuous
 62
     7
370
    25
100
AcDbCircle
 10
15.276
 20
5.658
 30
0.0
 40
0.1249999999999982
  0
CIRCLE
  5
129
330
1F
100
AcDbEntity
  8
0
  6
Continuous
 62
     7
370
    25
100
AcDbCircle
 10
6.9687511776
 20
16.2394022175
 30
0.0
 40
0.159999999999993
  0
CIRCLE
  5
12A
330
1F
100
AcDbEntity
  8
0
  6
Continuous
 62
     7
370
    25
100
AcDbCircle
 10
6.742
 20
15.711
 30
0.0
 40
0.1249999999999982
  0
CIRCLE
  5
12B
330
1F
100
AcDbEntity
  8
0
  6
Continuous
 62
     7
370
    25
100
AcDbCircle
 10
21.7916451221
 20
-5.6421221983
 30
0.0
 40
0.160000000000001
  0
CIRCLE
  5
12C
330
1F
100
AcDbEntity
  8
0
  6
Continuous
 62
     7
370
    25
100
AcDbCircle
 10
21.235
 20
-5.498
 30
0.0
 40
0.1249999999999964
  0
CIRCLE
  5
12D
330
1F
100
AcDbEntity
  8
0
  6
Continuous
 62
     7
370
    25
100
AcDbCircle
 10
19.7879679736
 20
12.3341582758
 30
0.0
 40
0.1600000000000001
  0
CIRCLE
  5
12E
330
1F
100
AcDbEntity
  8
0
  6
Continuous
 62
     7
370
    25
100
AcDbCircle
 10
19.3
 20
12.03
 30
0.0
 40
0.1249999999999929
  0
CIRCLE
  5
12F
330
1F
100
AcDbEntity
  8
0
  6
Continuous
 62
     7
370
    25
100
AcDbCircle
 10
4.8557423498
 20
23.6292305997
 30
0.0
 40
0.1600000000000037
  0
CIRCLE
  5
130
330
1F
100
AcDbEntity
  8
0
  6
Continuous
 62
     7
370
    25
100
AcDbCircle
 10
4.74
 20
23.066
 30
0.0
 40
0.1249999999999964
  0
CIRCLE
  5
131
330
1F
100
AcDbEntity
  8
0
  6
Continuous
 62
     7
370
    25
100
AcDbCircle
 10
28.9252617867
 20
-1.4671273129
 30
0.0
 40
0.1599999999999986
  0
CIRCLE
  5
132
330
1F
100
AcDbEntity
  8
0
  6
Continuous
 62
     7
370
    25
100
AcDbCircle
 10
28.351
 20
-1.438
 30
0.0
 40
0.1249999999999976
  0
CIRCLE
  5
133
330
1F
100
AcDbEntity
  8
0
  6
Continuous
 62
     7
370
    25
100
AcDbCircle
 10
21.5757571244
 20
20.5091546406
 30
0.0
 40
0.1600000000000037
  0
CIRCLE
  5
134
330
1F
100
AcDbEntity
  8
0
  6
Continuous
 62
     7
370
    25
100
AcDbCircle
 10
21.159
 20
20.113
 30
0.0
 40
0.1249999999999929
  0
CIRCLE
  5
135
330
1F
100
AcDbEntity
  8
0
  6
Continuous
 62
     7
370
    25
100
AcDbCircle
 10
0.0
 20
30.575
 30
0.0
 40
0.1600000000000001
  0
CIRCLE
  5
136
330
1F
100
AcDbEntity
  8
0
  6
Continuous
 62
     7
370
    25
100
AcDbCircle
 10
0.0
 20
30.0
 30
0.0
 40
0.125
  0
SPLINE
  5
138
330
1F
100
AcDbEntity
  8
0
  6
Continuous
 62
     7
370
    25
100
AcDbSpline
210
0.0
220
0.0
230
1.0
 70
     8
 71
     3
 72
    28
 73
    24
 74
     0
 42
0.00000001
 43
0.00000001
 40
0.0
 40
0.0
 40
0.0
 40
0.0
 40
0.0242314598540715
 40
0.0484715808314545
 40
0.0727228353778595
 40
0.096987692535662
 40
0.1212686171976319
 40
0.1455680693669636
 40
0.1698885034246999
 40
0.1942323674056176
 40
0.2186021022836137
 40
0.316136299847904
 40
0.4136747993981538
 40
0.5113742195467075
 40
0.6093904075110363
 40
0.658145067906945
 40
0.7068823108153346
 40
0.7556210890170498
 40
0.8043803535026253
 40
0.8531790313950258
 40
0.9020360040111415
 40
0.9509700851884882
 40
1.0
 40
1.0
 40
1.0
 40
1.0
 10
9.125980430183155
 20
-3.160010989315362
 30
0.0
 10
9.139529901855404
 20
-3.130703716849659
 30
0.0
 10
9.166633688228165
 20
-3.072078696532032
 30
0.0
 10
9.206168405120458
 20
-2.983607129133478
 30
0.0
 10
9.24488973498707
 20
-2.894729359656431
 30
0.0
 10
9.282716790196304
 20
-2.805407706250201
 30
0.0
 10
9.319671260732804
 20
-2.715652284597658
 30
0.0
 10
9.355747324927497
 20
-2.625460356888643
 30
0.0
 10
9.390946558581799
 20
-2.534832768344203
 30
0.0
 10
9.425268483163421
 20
-2.443768895755333
 30
0.0
 10
9.492169601558954
 20
-2.260741229033972
 30
0.0
 10
9.585684040852788
 20
-1.983605224585827
 30
0.0
 10
9.695508155484497
 20
-1.609169010361683
 30
0.0
 10
9.790405928800293
 20
-1.23001111442652
 30
0.0
 10
9.856863348226925
 20
-0.9110193016537635
 30
0.0
 10
9.902435493217872
 20
-0.6545148922470934
 30
0.0
 10
9.932729606308714
 20
-0.4620236891171289
 30
0.0
 10
9.95922380811985
 20
-0.2689672702398671
 30
0.0
 10
9.981910898285232
 20
-0.0753443789267338
 30
0.0
 10
10.0008157186555
 20
0.1188438844320808
 30
0.0
 10
10.01584594908397
 20
0.3136001399395461
 30
0.0
 10
10.02734676873569
 20
0.5089144613627555
 30
0.0
 10
10.03179501222958
 20
0.6393763408739275
 30
0.0
 10
10.03402130973168
 20
0.7046710930327715
 30
0.0
  0
LINE
  5
139
330
1F
100
AcDbEntity
  8
0
  6
Continuous
 62
     7
370
    25
100
AcDbLine
 10
-0.3
 20
28.625
 30
0.0
 11
-0.3
 21
24.2146999054
 31
0.0
  0
LINE
  5
13A
330
1F
100
AcDbEntity
  8
0
  6
Continuous
 62
     7
370
    25
100
AcDbLine
 10
-0.7
 20
28.775
 30
0.0
 11
-0.45
 21
28.775
 31
0.0
  0
LINE
  5
13B
330
1F
100
AcDbEntity
  8
0
  6
Continuous
 62
     7
370
    25
100
AcDbLine
 10
-0.7
 20
30.975
 30
0.0
 11
-0.7
 21
28.775
 31
0.0
  0
LINE
  5
13C
330
1F
100
AcDbEntity
  8
0
  6
Continuous
 62
     7
370
    25
100
AcDbLine
 10
0.7
 20
30.975
 30
0.0
 11
-0.7
 21
30.975
 31
0.0
  0
LINE
  5
13D
330
1F
100
AcDbEntity
  8
0
  6
Continuous
 62
     7
370
    25
100
AcDbLine
 10
0.7
 20
30.4107177404
 30
0.0
 11
0.7
 21
30.975
 31
0.0
  0
LINE
  5
13E
330
1F
100
AcDbEntity
  8
0
  6
Continuous
 62
     7
370
    25
100
AcDbLine
 10
21.3833999092
 20
21.2920969768
 30
0.0
 11
21.0152272473
 21
20.9421250146
 31
0.0
  0
LINE
  5
13F
330
1F
100
AcDbEntity
  8
0
  6
Continuous
 62
     7
370
    25
100
AcDbLine
 10
22.3479503386
 20
20.2773839784
 30
0.0
 11
21.3833999092
 21
21.2920969768
 31
0.0
  0
LINE
  5
140
330
1F
100
AcDbEntity
  8
0
  6
Continuous
 62
     7
370
    25
100
AcDbLine
 10
21.9384118568
 20
19.888091125
 30
0.0
 11
22.3479503386
 21
20.2773839784
 31
0.0
  0
LINE
  5
141
330
1F
100
AcDbEntity
  8
0
  6
Continuous
 62
     7
370
    25
100
AcDbLine
 10
29.3602075844
 20
-0.7882884859
 30
0.0
 11
28.8525372648
 21
-0.7625387798
 31
0.0
  0
LINE
  5
142
330
1F
100
AcDbEntity
  8
0
  6
Continuous
 62
     7
370
    25
100
AcDbLine
 10
29.2892889095
 20
-2.186491097
 30
0.0
 11
29.3602075844
 21
-0.7882884859
 31
0.0
  0
LINE
  5
143
330
1F
100
AcDbEntity
  8
0
  6
Continuous
 62
     7
370
    25
100
AcDbLine
 10
28.7230371718
 20
-2.1577700643
 30
0.0
 11
29.2892889095
 21
-2.186491097
 31
0.0
  0
LINE
  5
144
330
1F
100
AcDbEntity
  8
0
  6
Continuous
 62
     7
370
    25
100
AcDbLine
 10
26.2751258315
 20
-9.0981555467
 30
0.0
 11
26.8424541083
 21
-9.294601453
 31
0.0
  0
LINE
  5
145
330
1F
100
AcDbEntity
  8
0
  6
Continuous
 62
     7
370
    25
100
AcDbLine
 10
27.0921133779
 20
-2.075047465
 30
0.0
 11
27.8222874651
 21
-2.1120828548
 31
0.0
  0
LINE
  5
146
330
1F
100
AcDbEntity
  8
0
  6
Continuous
 62
     7
370
    25
100
AcDbLine
 10
27.1047773752
 20
-1.8253694486
 30
0.0
 11
27.0921133779
 21
-2.075047465
 31
0.0
  0
LINE
  5
147
330
1F
100
AcDbEntity
  8
0
  6
Continuous
 62
     7
370
    25
100
AcDbLine
 10
26.9625673608
 20
-1.6679635447
 30
0.0
 11
22.5190284539
 21
-1.4426117782
 31
0.0
  0
LINE
  5
148
330
1F
100
AcDbEntity
  8
0
  6
Continuous
 62
     7
370
    25
100
AcDbLine
 10
22.3543296223
 20
-5.0647261875
 30
0.0
 11
21.8677115523
 21
-4.9387348455
 31
0.0
  0
LINE
  5
149
330
1F
100
AcDbEntity
  8
0
  6
Continuous
 62
     7
370
    25
100
AcDbLine
 10
22.0034234005
 20
-6.4200360501
 30
0.0
 11
22.3543296223
 21
-5.0647261875
 31
0.0
  0
LINE
  5
14A
330
1F
100
AcDbEntity
  8
0
  6
Continuous
 62
     7
370
    25
100
AcDbLine
 10
21.4435918485
 20
-6.2750888463
 30
0.0
 11
22.0034234005
 21
-6.4200360501
 31
0.0
  0
LINE
  5
14B
330
1F
100
AcDbEntity
  8
0
  6
Continuous
 62
     7
370
    25
100
AcDbLine
 10
20.3690494315
 20
-7.0530882042
 30
0.0
 11
20.9366093929
 21
-7.2496143348
 31
0.0
  0
LINE
  5
14C
330
1F
100
AcDbEntity
  8
0
  6
Continuous
 62
     7
370
    25
100
AcDbLine
 10
19.8736507594
 20
-5.8686119871
 30
0.0
 11
20.5692208928
 21
-6.048703562
 31
0.0
  0
LINE
  5
14D
330
1F
100
AcDbEntity
  8
0
  6
Continuous
 62
     7
370
    25
100
AcDbLine
 10
19.9363125847
 20
-5.6265923688
 30
0.0
 11
19.8736507594
 21
-5.8686119871
 31
0.0
  0
LINE
  5
14E
330
1F
100
AcDbEntity
  8
0
  6
Continuous
 62
     7
370
    25
100
AcDbLine
 10
19.8286979089
 20
-5.4437835026
 30
0.0
 11
15.5130212249
 21
-4.3264022735
 31
0.0
  0
LINE
  5
14F
330
1F
100
AcDbEntity
  8
0
  6
Continuous
 62
     7
370
    25
100
AcDbLine
 10
14.4627913831
 20
-5.0079579632
 30
0.0
 11
15.0309127787
 21
-5.2046784988
 31
0.0
  0
LINE
  5
150
330
1F
100
AcDbEntity
  8
0
  6
Continuous
 62
     7
370
    25
100
AcDbLine
 10
14.370391657
 20
4.5761041968
 30
0.0
 11
15.0247821257
 21
4.8184805565
 31
0.0
  0
LINE
  5
151
330
1F
100
AcDbEntity
  8
0
  6
Continuous
 62
     7
370
    25
100
AcDbLine
 10
14.283560069
 20
4.8105402762
 30
0.0
 11
14.370391657
 21
4.5761041968
 31
0.0
  0
LINE
  5
152
330
1F
100
AcDbEntity
  8
0
  6
Continuous
 62
     7
370
    25
100
AcDbLine
 10
14.0907994686
 20
4.8991029711
 30
0.0
 11
9.8941727354
 21
3.3447357251
 31
0.0
  0
LINE
  5
153
330
1F
100
AcDbEntity
  8
0
  6
Continuous
 62
     7
370
    25
100
AcDbLine
 10
10.5827415838
 20
2.3295858356
 30
0.0
 11
10.1123413678
 21
2.2575142344
 31
0.0
  0
LINE
  5
154
330
1F
100
AcDbEntity
  8
0
  6
Continuous
 62
     7
370
    25
100
AcDbLine
 10
10.7947661659
 20
0.9457341179
 30
0.0
 11
10.5827415838
 21
2.3295858356
 31
0.0
  0
LINE
  5
155
330
1F
100
AcDbEntity
  8
0
  6
Continuous
 62
     7
370
    25
100
AcDbLine
 10
10.161243575
 20
0.8486699883
 30
0.0
 11
10.7947661659
 21
0.9457341179
 31
0.0
  0
LINE
  5
156
330
1F
100
AcDbEntity
  8
0
  6
Continuous
 62
     7
370
    25
100
AcDbLine
 10
8.620142038
 20
0.6125526319
 30
0.0
 11
9.2554652266
 21
0.7098926371
 31
0.0
  0
LINE
  5
157
330
1F
100
AcDbEntity
  8
0
  6
Continuous
 62
     7
370
    25
100
AcDbLine
 10
8.408117456
 20
1.9964043496
 30
0.0
 11
8.620142038
 21
0.6125526319
 31
0.0
  0
LINE
  5
158
330
1F
100
AcDbEntity
  8
0
  6
Continuous
 62
     7
370
    25
100
AcDbLine
 10
9.2226340942
 20
2.1211991867
 30
0.0
 11
8.408117456
 21
1.9964043496
 31
0.0
  0
LINE
  5
159
330
1F
100
AcDbEntity
  8
0
  6
Continuous
 62
     7
370
    25
100
AcDbLine
 10
5.9557450914
 20
7.3316757642
 30
0.0
 11
6.3291391952
 21
7.8681573108
 31
0.0
  0
LINE
  5
15A
330
1F
100
AcDbEntity
  8
0
  6
Continuous
 62
     7
370
    25
100
AcDbLine
 10
4.8066681663
 20
8.1314396169
 30
0.0
 11
5.9557450914
 21
7.3316757642
 31
0.0
  0
LINE
  5
15B
330
1F
100
AcDbEntity
  8
0
  6
Continuous
 62
     7
370
    25
100
AcDbLine
 10
5.2753416002
 20
8.8048156723
 30
0.0
 11
4.8066681663
 21
8.1314396169
 31
0.0
  0
LINE
  5
15C
330
1F
100
AcDbEntity
  8
0
  6
Continuous
 62
     7
370
    25
100
AcDbLine
 10
-0.462504669
 20
11.5816487684
 30
0.0
 11
-0.4384699202
 21
10.9797910196
 31
0.0
  0
LINE
  5
15D
330
1F
100
AcDbEntity
  8
0
  6
Continuous
 62
     7
370
    25
100
AcDbLine
 10
5.9240808097
 20
14.5657344421
 30
0.0
 11
4.1919435336
 21
10.5293047858
 31
0.0
  0
LINE
  5
15E
330
1F
100
AcDbEntity
  8
0
  6
Continuous
 62
     7
370
    25
100
AcDbLine
 10
5.6156491395
 20
14.8613184484
 30
0.0
 11
5.8453892341
 21
14.7627309799
 31
0.0
  0
LINE
  5
15F
330
1F
100
AcDbEntity
  8
0
  6
Continuous
 62
     7
370
    25
100
AcDbLine
 10
5.9324902703
 20
15.5996588527
 30
0.0
 11
5.6156491395
 21
14.8613184484
 31
0.0
  0
LINE
  5
160
330
1F
100
AcDbEntity
  8
0
  6
Continuous
 62
     7
370
    25
100
AcDbLine
 10
-0.7118657632
 20
17.8259373213
 30
0.0
 11
-0.6878859006
 21
17.2254539855
 31
0.0
  0
LINE
  5
161
330
1F
100
AcDbEntity
  8
0
  6
Continuous
 62
     7
370
    25
100
AcDbLine
 10
4.1693653722
 20
21.7795315311
 30
0.0
 11
3.2827872625
 21
17.4652254788
 31
0.0
  0
LINE
  5
162
330
1F
100
AcDbEntity
  8
0
  6
Continuous
 62
     7
370
    25
100
AcDbLine
 10
3.8077464376
 20
22.00697767
 30
0.0
 11
4.052629307
 21
21.9566549092
 31
0.0
  0
LINE
  5
163
330
1F
100
AcDbEntity
  8
0
  6
Continuous
 62
     7
370
    25
100
AcDbLine
 10
3.9679546083
 20
22.7865898359
 30
0.0
 11
3.8077464376
 21
22.00697767
 31
0.0
  0
LINE
  5
164
330
1F
100
AcDbEntity
  8
0
  6
Continuous
 62
     7
370
    25
100
AcDbLine
 10
-0.9612491624
 20
24.070784415
 30
0.0
 11
-0.9372867466
 21
23.4707379677
 31
0.0
  0
LINE
  5
165
330
1F
100
AcDbEntity
  8
0
  6
Continuous
 62
     7
370
    25
100
AcDbLine
 10
14.638767228
 20
6.1684507242
 30
0.0
 11
13.8841347646
 21
5.8889462416
 31
0.0
  0
LINE
  5
166
330
1F
100
AcDbEntity
  8
0
  6
Continuous
 62
     7
370
    25
100
AcDbLine
 10
6.9021936691
 20
14.3092286248
 30
0.0
 11
7.1789310192
 21
14.9541144906
 31
0.0
  0
LINE
  5
167
330
1F
100
AcDbEntity
  8
0
  6
Continuous
 62
     7
370
    25
100
AcDbLine
 10
6.6724535745
 20
14.4078160933
 30
0.0
 11
6.9021936691
 21
14.3092286248
 31
0.0
  0
LINE
  5
168
330
1F
100
AcDbEntity
  8
0
  6
Continuous
 62
     7
370
    25
100
AcDbLine
 10
6.4754570367
 20
14.3291245177
 30
0.0
 11
4.7120625969
 21
10.2198557486
 31
0.0
  0
LINE
  5
169
330
1F
100
AcDbEntity
  8
0
  6
Continuous
 62
     7
370
    25
100
AcDbLine
 10
6.0634399349
 20
9.9371319278
 30
0.0
 11
5.78951936
 21
9.54357099
 31
0.0
  0
LINE
  5
16A
330
1F
100
AcDbEntity
  8
0
  6
Continuous
 62
     7
370
    25
100
AcDbLine
 10
7.21251686
 20
9.137368075
 30
0.0
 11
6.0634399349
 21
9.9371319278
 31
0.0
  0
LINE
  5
16B
330
1F
100
AcDbEntity
  8
0
  6
Continuous
 62
     7
370
    25
100
AcDbLine
 10
6.8512101289
 20
8.6182533061
 30
0.0
 11
7.21251686
 21
9.137368075
 31
0.0
  0
LINE
  5
16C
330
1F
100
AcDbEntity
  8
0
  6
Continuous
 62
     7
370
    25
100
AcDbLine
 10
13.8824036576
 20
5.4617495617
 30
0.0
 11
9.7658318123
 21
3.9370334388
 31
0.0
  0
LINE
  5
16D
330
1F
100
AcDbEntity
  8
0
  6
Continuous
 62
     7
370
    25
100
AcDbLine
 10
13.8841347646
 20
5.8889462416
 30
0.0
 11
13.9709663525
 21
5.6545101622
 31
0.0
  0
LINE
  5
16E
330
1F
100
AcDbEntity
  8
0
  6
Continuous
 62
     7
370
    25
100
AcDbLine
 10
20.9964224451
 20
-4.7131474893
 30
0.0
 11
20.2245569812
 21
-4.5133021246
 31
0.0
  0
LINE
  5
16F
330
1F
100
AcDbEntity
  8
0
  6
Continuous
 62
     7
370
    25
100
AcDbLine
 10
18.6306956964
 20
10.7879626619
 30
0.0
 11
19.2417074628
 21
11.1688161102
 31
0.0
  0
LINE
  5
170
330
1F
100
AcDbEntity
  8
0
  6
Continuous
 62
     7
370
    25
100
AcDbLine
 10
18.4984529677
 20
11.0001226505
 30
0.0
 11
18.6306956964
 21
10.7879626619
 31
0.0
  0
LINE
  5
171
330
1F
100
AcDbEntity
  8
0
  6
Continuous
 62
     7
370
    25
100
AcDbLine
 10
18.2918113375
 20
11.0480730064
 30
0.0
 11
14.5094310272
 21
8.6904546055
 31
0.0
  0
LINE
  5
172
330
1F
100
AcDbEntity
  8
0
  6
Continuous
 62
     7
370
    25
100
AcDbLine
 10
15.9471722636
 20
6.6530642153
 30
0.0
 11
15.4827669359
 21
6.4810554863
 31
0.0
  0
LINE
  5
173
330
1F
100
AcDbEntity
  8
0
  6
Continuous
 62
     7
370
    25
100
AcDbLine
 10
16.433429156
 20
5.3402221705
 30
0.0
 11
15.9471722636
 21
6.6530642153
 31
0.0
  0
LINE
  5
174
330
1F
100
AcDbEntity
  8
0
  6
Continuous
 62
     7
370
    25
100
AcDbLine
 10
15.8742254227
 20
5.1331015419
 30
0.0
 11
16.433429156
 21
5.3402221705
 31
0.0
  0
LINE
  5
175
330
1F
100
AcDbEntity
  8
0
  6
Continuous
 62
     7
370
    25
100
AcDbLine
 10
19.9790862897
 20
-4.8629364187
 30
0.0
 11
15.7171183883
 21
-3.7594610472
 31
0.0
  0
LINE
  5
176
330
1F
100
AcDbEntity
  8
0
  6
Continuous
 62
     7
370
    25
100
AcDbLine
 10
20.2245569812
 20
-4.5133021246
 30
0.0
 11
20.1618951559
 21
-4.7553217429
 31
0.0
  0
LINE
  5
177
330
1F
100
AcDbEntity
  8
0
  6
Continuous
 62
     7
370
    25
100
AcDbLine
 10
18.5655661478
 20
12.3970647984
 30
0.0
 11
17.8901364161
 21
11.9760585977
 31
0.0
  0
LINE
  5
178
330
1F
100
AcDbEntity
  8
0
  6
Continuous
 62
     7
370
    25
100
AcDbLine
 10
5.1790905065
 20
21.7251702095
 30
0.0
 11
5.3245495625
 21
22.4330095738
 31
0.0
  0
LINE
  5
179
330
1F
100
AcDbEntity
  8
0
  6
Continuous
 62
     7
370
    25
100
AcDbLine
 10
4.9342076371
 20
21.7754929703
 30
0.0
 11
5.1790905065
 21
21.7251702095
 31
0.0
  0
LINE
  5
17A
330
1F
100
AcDbEntity
  8
0
  6
Continuous
 62
     7
370
    25
100
AcDbLine
 10
4.7570842589
 20
21.6587569051
 30
0.0
 11
3.8603584198
 21
17.2950695181
 31
0.0
  0
LINE
  5
17B
330
1F
100
AcDbEntity
  8
0
  6
Continuous
 62
     7
370
    25
100
AcDbLine
 10
6.4832188624
 20
16.8830312806
 30
0.0
 11
6.2874164753
 21
16.4267495685
 31
0.0
  0
LINE
  5
17C
330
1F
100
AcDbEntity
  8
0
  6
Continuous
 62
     7
370
    25
100
AcDbLine
 10
7.769763392
 20
16.330941457
 30
0.0
 11
6.4832188624
 21
16.8830312806
 31
0.0
  0
LINE
  5
17D
330
1F
100
AcDbEntity
  8
0
  6
Continuous
 62
     7
370
    25
100
AcDbLine
 10
7.5359349388
 20
15.7860469408
 30
0.0
 11
7.769763392
 21
16.330941457
 31
0.0
  0
LINE
  5
17E
330
1F
100
AcDbEntity
  8
0
  6
Continuous
 62
     7
370
    25
100
AcDbLine
 10
17.9744287888
 20
11.5572569789
 30
0.0
 11
14.2368579615
 21
9.2275690484
 31
0.0
  0
LINE
  5
17F
330
1F
100
AcDbEntity
  8
0
  6
Continuous
 62
     7
370
    25
100
AcDbLine
 10
17.8901364161
 20
11.9760585977
 30
0.0
 11
18.0223791447
 21
11.7638986091
 31
0.0
  0
LINE
  5
180
330
1F
100
AcDbEntity
  8
0
  6
Continuous
 62
     7
370
    25
100
AcDbLine
 10
27.9536814812
 20
-0.7169476326
 30
0.0
 11
27.1630320528
 21
-0.676844854
 31
0.0
  0
LINE
  5
181
330
1F
100
AcDbEntity
  8
0
  6
Continuous
 62
     7
370
    25
100
AcDbLine
 10
20.753401341
 20
18.7616618751
 30
0.0
 11
21.284788897
 21
19.2667801657
 31
0.0
  0
LINE
  5
182
330
1F
100
AcDbEntity
  8
0
  6
Continuous
 62
     7
370
    25
100
AcDbLine
 10
20.581160702
 20
18.9428600893
 30
0.0
 11
20.753401341
 21
18.7616618751
 31
0.0
  0
LINE
  5
183
330
1F
100
AcDbEntity
  8
0
  6
Continuous
 62
     7
370
    25
100
AcDbLine
 10
20.3690962278
 20
18.9482341412
 30
0.0
 11
17.145490175
 21
15.8839575637
 31
0.0
  0
LINE
  5
184
330
1F
100
AcDbEntity
  8
0
  6
Continuous
 62
     7
370
    25
100
AcDbLine
 10
19.7571443151
 20
13.1397946094
 30
0.0
 11
19.3293567521
 21
12.8731477502
 31
0.0
  0
LINE
  5
185
330
1F
100
AcDbEntity
  8
0
  6
Continuous
 62
     7
370
    25
100
AcDbLine
 10
20.4977035953
 20
11.9516986737
 30
0.0
 11
19.7571443151
 21
13.1397946094
 31
0.0
  0
LINE
  5
186
330
1F
100
AcDbEntity
  8
0
  6
Continuous
 62
     7
370
    25
100
AcDbLine
 10
20.0080121605
 20
11.6464661369
 30
0.0
 11
20.4977035953
 21
11.9516986737
 31
0.0
  0
LINE
  5
187
330
1F
100
AcDbEntity
  8
0
  6
Continuous
 62
     7
370
    25
100
AcDbLine
 10
26.9929631211
 20
-1.0687339578
 30
0.0
 11
22.5890096446
 21
-0.8453897458
 31
0.0
  0
LINE
  5
188
330
1F
100
AcDbEntity
  8
0
  6
Continuous
 62
     7
370
    25
100
AcDbLine
 10
27.1630320528
 20
-0.676844854
 30
0.0
 11
27.1503679519
 21
-0.9265249129
 31
0.0
  0
LINE
  5
189
330
1F
100
AcDbEntity
  8
0
  6
Continuous
 62
     7
370
    25
100
AcDbLine
 10
20.3629039767
 20
20.3220494941
 30
0.0
 11
19.7888509117
 21
19.7763748735
 31
0.0
  0
LINE
  5
18A
330
1F
100
AcDbEntity
  8
0
  6
Continuous
 62
     7
370
    25
100
AcDbLine
 10
0.7
 20
28.775
 30
0.0
 11
0.7
 21
29.5089698586
 31
0.0
  0
LINE
  5
18B
330
1F
100
AcDbEntity
  8
0
  6
Continuous
 62
     7
370
    25
100
AcDbLine
 10
0.4500000001
 20
28.775
 30
0.0
 11
0.7
 21
28.775
 31
0.0
  0
LINE
  5
18C
330
1F
100
AcDbEntity
  8
0
  6
Continuous
 62
     7
370
    25
100
AcDbLine
 10
0.3000000001
 20
28.625
 30
0.0
 11
0.3000000001
 21
24.1776861405
 31
0.0
  0
LINE
  5
18D
330
1F
100
AcDbEntity
  8
0
  6
Continuous
 62
     7
370
    25
100
AcDbLine
 10
4.2505867327
 20
24.1619469211
 30
0.0
 11
4.1491198873
 21
23.6681844194
 31
0.0
  0
LINE
  5
18E
330
1F
100
AcDbEntity
  8
0
  6
Continuous
 62
     7
370
    25
100
AcDbLine
 10
5.6219308016
 20
23.8801394606
 30
0.0
 11
4.2505867327
 21
24.1619469211
 31
0.0
  0
LINE
  5
18F
330
1F
100
AcDbEntity
  8
0
  6
Continuous
 62
     7
370
    25
100
AcDbLine
 10
5.5062699233
 20
23.3173053214
 30
0.0
 11
5.6219308016
 21
23.8801394606
 31
0.0
  0
LINE
  5
190
330
1F
100
AcDbEntity
  8
0
  6
Continuous
 62
     7
370
    25
100
AcDbLine
 10
19.9580604437
 20
19.3804804792
 30
0.0
 11
16.7598518532
 21
16.3450400481
 31
0.0
  0
LINE
  5
191
330
1F
100
AcDbEntity
  8
0
  6
Continuous
 62
     7
370
    25
100
AcDbLine
 10
19.7888509117
 20
19.7763748735
 30
0.0
 11
19.9635183846
 21
19.5926236151
 31
0.0
  0
LINE
  5
192
330
1F
100
AcDbEntity
  8
0
  6
Continuous
 62
     7
370
    25
100
AcDbLine
 10
8.5558028814
 20
-2.9625747919
 30
0.0
 11
9.1259819097
 21
-3.1600078136
 31
0.0
  0
ARC
  5
193
330
1F
100
AcDbEntity
  8
0
  6
Continuous
 62
     7
370
    25
100
AcDbCircle
 10
-0.45
 20
24.2146999054
 30
0.0
 40
0.1500000000000037
100
AcDbArc
 50
268.7134224221
 51
0.0
  0
ARC
  5
194
330
1F
100
AcDbEntity
  8
0
  6
Continuous
 62
     7
370
    25
100
AcDbCircle
 10
-0.45
 20
28.625
 30
0.0
 40
0.1500000000000039
100
AcDbArc
 50
0.0
 51
90.0
  0
ARC
  5
195
330
1F
100
AcDbEntity
  8
0
  6
Continuous
 62
     7
370
    25
100
AcDbCircle
 10
0.85
 20
30.4107177404
 30
0.0
 40
0.150000000000013
100
AcDbArc
 50
180.0
 51
266.4945664074
  0
ARC
  5
196
330
1F
100
AcDbEntity
  8
0
  6
Continuous
 62
     7
370
    25
100
AcDbCircle
 10
20.9118825584
 20
21.0508442644
 30
0.0
 40
0.1499999999999873
100
AcDbArc
 50
223.2704304527
 51
313.5482031701
  0
ARC
  5
197
330
1F
100
AcDbEntity
  8
0
  6
Continuous
 62
     7
370
    25
100
AcDbCircle
 10
22.0417565457
 20
19.7793718753
 30
0.0
 40
0.1500000000000052
100
AcDbArc
 50
133.5482032067
 51
219.9790548675
  0
ARC
  5
198
330
1F
100
AcDbEntity
  8
0
  6
Continuous
 62
     7
370
    25
100
AcDbCircle
 10
28.8601356943
 20
-0.6127313572
 30
0.0
 40
0.149999999999678
100
AcDbArc
 50
176.8102272715
 51
267.0963710299
  0
ARC
  5
199
330
1F
100
AcDbEntity
  8
0
  6
Continuous
 62
     7
370
    25
100
AcDbCircle
 10
28.7154387433
 20
-2.3075774869
 30
0.0
 40
0.1499999999999989
100
AcDbArc
 50
87.0963714131
 51
173.428073138
  0
ARC
  5
19A
330
1F
100
AcDbEntity
  8
0
  6
Continuous
 62
     7
370
    25
100
AcDbCircle
 10
27.8146890356
 20
-2.2618902775
 30
0.0
 40
0.1500000000000049
100
AcDbArc
 50
353.3093844732
 51
87.09637103
  0
ARC
  5
19B
330
1F
100
AcDbEntity
  8
0
  6
Continuous
 62
     7
370
    25
100
AcDbCircle
 10
26.9549699526
 20
-1.8177710191
 30
0.0
 40
0.1500000000000014
100
AcDbArc
 50
357.09637103
 51
87.0967616144
  0
ARC
  5
19C
330
1F
100
AcDbEntity
  8
0
  6
Continuous
 62
     7
370
    25
100
AcDbCircle
 10
22.5114310457
 20
-1.5924192526
 30
0.0
 40
0.1500000000000353
100
AcDbArc
 50
87.0967616145
 51
173.4293269962
  0
ARC
  5
19D
330
1F
100
AcDbEntity
  8
0
  6
Continuous
 62
     7
370
    25
100
AcDbCircle
 10
21.9053086475
 20
-4.7935230745
 30
0.0
 40
0.1499999999592346
100
AcDbArc
 50
165.1182730453
 51
255.4841805509
  0
ARC
  5
19E
330
1F
100
AcDbEntity
  8
0
  6
Continuous
 62
     7
370
    25
100
AcDbCircle
 10
21.4059947531
 20
-6.4203006172
 30
0.0
 40
0.1500000000000057
100
AcDbArc
 50
75.4841804761
 51
160.7554655131
  0
ARC
  5
19F
330
1F
100
AcDbEntity
  8
0
  6
Continuous
 62
     7
370
    25
100
AcDbCircle
 10
20.5316237976
 20
-6.193915333
 30
0.0
 40
0.1499999999999738
100
AcDbArc
 50
340.55652007
 51
75.4841803923
  0
ARC
  5
1A0
330
1F
100
AcDbEntity
  8
0
  6
Continuous
 62
     7
370
    25
100
AcDbCircle
 10
19.7911008137
 20
-5.5889952736
 30
0.0
 40
0.1499999999999998
100
AcDbArc
 50
345.48418056
 51
75.48418056
  0
ARC
  5
1A1
330
1F
100
AcDbEntity
  8
0
  6
Continuous
 62
     7
370
    25
100
AcDbCircle
 10
15.4754241297
 20
-4.4716140445
 30
0.0
 40
0.1499999999999762
100
AcDbArc
 50
75.48418056
 51
160.3542729619
  0
ARC
  5
1A2
330
1F
100
AcDbEntity
  8
0
  6
Continuous
 62
     7
370
    25
100
AcDbCircle
 10
15.0768810785
 20
4.6778189088
 30
0.0
 40
0.1499999999999999
100
AcDbArc
 50
13.6313898929
 51
110.32386977
  0
ARC
  5
1A3
330
1F
100
AcDbEntity
  8
0
  6
Continuous
 62
     7
370
    25
100
AcDbCircle
 10
14.1428984214
 20
4.7584413235
 30
0.0
 40
0.1500000000000012
100
AcDbArc
 50
20.32386977
 51
110.32386977
  0
ARC
  5
1A4
330
1F
100
AcDbEntity
  8
0
  6
Continuous
 62
     7
370
    25
100
AcDbCircle
 10
9.9462716882
 20
3.2040740774
 30
0.0
 40
0.1500000000000183
100
AcDbArc
 50
110.32386977
 51
192.422870304
  0
ARC
  5
1A5
330
1F
100
AcDbEntity
  8
0
  6
Continuous
 62
     7
370
    25
100
AcDbCircle
 10
10.0896244483
 20
2.4057840613
 30
0.0
 40
0.1499999999996681
100
AcDbArc
 50
187.9344013016
 51
278.71074121
  0
ARC
  5
1A6
330
1F
100
AcDbEntity
  8
0
  6
Continuous
 62
     7
370
    25
100
AcDbCircle
 10
10.1839604945
 20
0.7004001614
 30
0.0
 40
0.1499999999623064
100
AcDbArc
 50
98.710741222
 51
178.3684037716
  0
ARC
  5
1A7
330
1F
100
AcDbEntity
  8
0
  6
Continuous
 62
     7
370
    25
100
AcDbCircle
 10
9.2781821461
 20
0.5616228103
 30
0.0
 40
0.1499999999999997
100
AcDbArc
 50
357.3506496798
 51
98.7107412102
  0
ARC
  5
1A8
330
1F
100
AcDbEntity
  8
0
  6
Continuous
 62
     7
370
    25
100
AcDbCircle
 10
9.1999171747
 20
2.2694690136
 30
0.0
 40
0.1499999999999973
100
AcDbArc
 50
278.71074121
 51
7.8604310994
  0
ARC
  5
1A9
330
1F
100
AcDbEntity
  8
0
  6
Continuous
 62
     7
370
    25
100
AcDbCircle
 10
6.4522545801
 20
7.7824683266
 30
0.0
 40
0.1499999999993475
100
AcDbArc
 50
44.7164890404
 51
145.16187114
  0
ARC
  5
1AA
330
1F
100
AcDbEntity
  8
0
  6
Continuous
 62
     7
370
    25
100
AcDbCircle
 10
5.1522262154
 20
8.8905046565
 30
0.0
 40
0.1499999999993088
100
AcDbArc
 50
325.1618711401
 51
54.3755023129
  0
ARC
  5
1AB
330
1F
100
AcDbEntity
  8
0
  6
Continuous
 62
     7
370
    25
100
AcDbCircle
 10
4.0540994768
 20
10.5884572669
 30
0.0
 40
0.1500000000000017
100
AcDbArc
 50
244.0370785964
 51
336.77456646
  0
ARC
  5
1AC
330
1F
100
AcDbEntity
  8
0
  6
Continuous
 62
     7
370
    25
100
AcDbCircle
 10
5.786236753
 20
14.6248869232
 30
0.0
 40
0.1500000000000052
100
AcDbArc
 50
336.77456646
 51
66.77456646
  0
ARC
  5
1AD
330
1F
100
AcDbEntity
  8
0
  6
Continuous
 62
     7
370
    25
100
AcDbCircle
 10
5.7946462136
 20
15.6588113338
 30
0.0
 40
0.1499999999975601
100
AcDbArc
 50
336.7745664604
 51
66.2848164392
  0
ARC
  5
1AE
330
1F
100
AcDbEntity
  8
0
  6
Continuous
 62
     7
370
    25
100
AcDbCircle
 10
3.1358575409
 20
17.4954191353
 30
0.0
 40
0.1500000000000019
100
AcDbArc
 50
256.6372482555
 51
348.3875341214
  0
ARC
  5
1AF
330
1F
100
AcDbEntity
  8
0
  6
Continuous
 62
     7
370
    25
100
AcDbCircle
 10
4.0224356505
 20
21.8097251875
 30
0.0
 40
0.1500000000000068
100
AcDbArc
 50
348.3875341214
 51
78.38753412
  0
ARC
  5
1B0
330
1F
100
AcDbEntity
  8
0
  6
Continuous
 62
     7
370
    25
100
AcDbCircle
 10
3.8210248867
 20
22.8167834924
 30
0.0
 40
0.150000000000007
100
AcDbArc
 50
348.38753412
 51
78.0296728568
  0
ARC
  5
1B1
330
1F
100
AcDbEntity
  8
0
  6
Continuous
 62
     7
370
    25
100
AcDbCircle
 10
14.5866682753
 20
6.3091123719
 30
0.0
 40
0.1500000000000052
100
AcDbArc
 50
290.32386977
 51
19.8076517023
  0
ARC
  5
1B2
330
1F
100
AcDbEntity
  8
0
  6
Continuous
 62
     7
370
    25
100
AcDbCircle
 10
7.316775076
 20
14.8949620095
 30
0.0
 40
0.149999999998861
100
AcDbArc
 50
60.4059054793
 51
156.7745664599
  0
ARC
  5
1B3
330
1F
100
AcDbEntity
  8
0
  6
Continuous
 62
     7
370
    25
100
AcDbCircle
 10
6.6133010934
 20
14.2699720365
 30
0.0
 40
0.1500000000000045
100
AcDbArc
 50
66.77456646
 51
156.77456646
  0
ARC
  5
1B4
330
1F
100
AcDbEntity
  8
0
  6
Continuous
 62
     7
370
    25
100
AcDbCircle
 10
4.8499066536
 20
10.1607032675
 30
0.0
 40
0.1499999999999901
100
AcDbArc
 50
156.77456646
 51
239.4385106328
  0
ARC
  5
1B5
330
1F
100
AcDbEntity
  8
0
  6
Continuous
 62
     7
370
    25
100
AcDbCircle
 10
5.6664039752
 20
9.6292599742
 30
0.0
 40
0.1500000000000041
100
AcDbArc
 50
234.4390544104
 51
325.16187114
  0
ARC
  5
1B6
330
1F
100
AcDbEntity
  8
0
  6
Continuous
 62
     7
370
    25
100
AcDbCircle
 10
6.9743255137
 20
8.5325643219
 30
0.0
 40
0.1499999999999954
100
AcDbArc
 50
145.16187114
 51
225.5809221987
  0
ARC
  5
1B7
330
1F
100
AcDbEntity
  8
0
  6
Continuous
 62
     7
370
    25
100
AcDbCircle
 10
9.7137328596
 20
4.0776950864
 30
0.0
 40
0.1499999999999997
100
AcDbArc
 50
197.3791432226
 51
290.32386977
  0
ARC
  5
1B8
330
1F
100
AcDbEntity
  8
0
  6
Continuous
 62
     7
370
    25
100
AcDbCircle
 10
13.8303047049
 20
5.6024112094
 30
0.0
 40
0.1500000000000015
100
AcDbArc
 50
290.32386977
 51
20.32386977
  0
ARC
  5
1B9
330
1F
100
AcDbEntity
  8
0
  6
Continuous
 62
     7
370
    25
100
AcDbCircle
 10
21.0340195409
 20
-4.5679357157
 30
0.0
 40
0.1500000013178639
100
AcDbArc
 50
255.48418056
 51
345.1029164516
  0
ARC
  5
1BA
330
1F
100
AcDbEntity
  8
0
  6
Continuous
 62
     7
370
    25
100
AcDbCircle
 10
19.3210531
 20
11.0415201171
 30
0.0
 40
0.1500000000000055
100
AcDbArc
 50
27.1862342307
 51
121.93595
  0
ARC
  5
1BB
330
1F
100
AcDbEntity
  8
0
  6
Continuous
 62
     7
370
    25
100
AcDbCircle
 10
18.3711569746
 20
10.9207770133
 30
0.0
 40
0.1500000000000016
100
AcDbArc
 50
31.93595
 51
121.93595
  0
ARC
  5
1BC
330
1F
100
AcDbEntity
  8
0
  6
Continuous
 62
     7
370
    25
100
AcDbCircle
 10
14.5887766644
 20
8.5631586124
 30
0.0
 40
0.1500000000000326
100
AcDbArc
 50
121.93595
 51
207.0498923997
  0
ARC
  5
1BD
330
1F
100
AcDbEntity
  8
0
  6
Continuous
 62
     7
370
    25
100
AcDbCircle
 10
15.4306679831
 20
6.621717134
 30
0.0
 40
0.1499999999999798
100
AcDbArc
 50
199.8353155443
 51
290.32386977
  0
ARC
  5
1BE
330
1F
100
AcDbEntity
  8
0
  6
Continuous
 62
     7
370
    25
100
AcDbCircle
 10
15.9263243754
 20
4.9924398942
 30
0.0
 40
0.1499999999999489
100
AcDbArc
 50
110.32386977
 51
193.9956505564
  0
ARC
  5
1BF
330
1F
100
AcDbEntity
  8
0
  6
Continuous
 62
     7
370
    25
100
AcDbCircle
 10
15.7547154835
 20
-3.6142492762
 30
0.0
 40
0.1500000000000027
100
AcDbArc
 50
163.5568426623
 51
255.48418056
  0
ARC
  5
1C0
330
1F
100
AcDbEntity
  8
0
  6
Continuous
 62
     7
370
    25
100
AcDbCircle
 10
20.0166833849
 20
-4.7177246477
 30
0.0
 40
0.1500000000000066
100
AcDbArc
 50
255.48418056
 51
345.48418056
  0
ARC
  5
1C1
330
1F
100
AcDbEntity
  8
0
  6
Continuous
 62
     7
370
    25
100
AcDbCircle
 10
18.4862205107
 20
12.5243607915
 30
0.0
 40
0.1500000000000002
100
AcDbArc
 50
301.9359500235
 51
31.5686267204
  0
ARC
  5
1C2
330
1F
100
AcDbEntity
  8
0
  6
Continuous
 62
     7
370
    25
100
AcDbCircle
 10
5.4714792842
 20
22.4028159173
 30
0.0
 40
0.1499999999999738
100
AcDbArc
 50
73.8072135184
 51
168.38753412
  0
ARC
  5
1C3
330
1F
100
AcDbEntity
  8
0
  6
Continuous
 62
     7
370
    25
100
AcDbCircle
 10
4.9040139806
 20
21.6285632486
 30
0.0
 40
0.1499999999999972
100
AcDbArc
 50
78.38753412
 51
168.38753412
  0
ARC
  5
1C4
330
1F
100
AcDbEntity
  8
0
  6
Continuous
 62
     7
370
    25
100
AcDbCircle
 10
4.0072881414
 20
17.2648758616
 30
0.0
 40
0.1499999999999448
100
AcDbArc
 50
168.38753412
 51
253.7230534668
  0
ARC
  5
1C5
330
1F
100
AcDbEntity
  8
0
  6
Continuous
 62
     7
370
    25
100
AcDbCircle
 10
6.1495724185
 20
16.4859020496
 30
0.0
 40
0.1499999999999845
100
AcDbArc
 50
246.3099051347
 51
336.77456646
  0
ARC
  5
1C6
330
1F
100
AcDbEntity
  8
0
  6
Continuous
 62
     7
370
    25
100
AcDbCircle
 10
7.6737789957
 20
15.7268944596
 30
0.0
 40
0.1500000000000002
100
AcDbArc
 50
156.7745664445
 51
240.7360815737
  0
ARC
  5
1C7
330
1F
100
AcDbEntity
  8
0
  6
Continuous
 62
     7
370
    25
100
AcDbCircle
 10
14.1575123243
 20
9.3548650415
 30
0.0
 40
0.1499999999999918
100
AcDbArc
 50
210.1037603793
 51
301.93595
  0
ARC
  5
1C8
330
1F
100
AcDbEntity
  8
0
  6
Continuous
 62
     7
370
    25
100
AcDbCircle
 10
17.8950831516
 20
11.684552972
 30
0.0
 40
0.150000000000002
100
AcDbArc
 50
301.93595
 51
31.93595
  0
ARC
  5
1C9
330
1F
100
AcDbEntity
  8
0
  6
Continuous
 62
     7
370
    25
100
AcDbCircle
 10
27.9612799107
 20
-0.5671402089
 30
0.0
 40
0.1499999999999984
100
AcDbArc
 50
267.0963709622
 51
356.8010182561
  0
ARC
  5
1CA
330
1F
100
AcDbEntity
  8
0
  6
Continuous
 62
     7
370
    25
100
AcDbCircle
 10
21.3881335859
 20
19.1580609159
 30
0.0
 40
0.1499999999792286
100
AcDbArc
 50
39.8669889893
 51
133.5482031678
  0
ARC
  5
1CB
330
1F
100
AcDbEntity
  8
0
  6
Continuous
 62
     7
370
    25
100
AcDbCircle
 10
20.4724414522
 20
18.8395154004
 30
0.0
 40
0.1499999999999966
100
AcDbArc
 50
43.54820317
 51
133.5484854019
  0
ARC
  5
1CC
330
1F
100
AcDbEntity
  8
0
  6
Continuous
 62
     7
370
    25
100
AcDbCircle
 10
17.2488353994
 20
15.7752388229
 30
0.0
 40
0.1499999999999448
100
AcDbArc
 50
133.5484854019
 51
220.0091437263
  0
ARC
  5
1CD
330
1F
100
AcDbEntity
  8
0
  6
Continuous
 62
     7
370
    25
100
AcDbCircle
 10
19.250011115
 20
13.0004437433
 30
0.0
 40
0.1500000000001029
100
AcDbArc
 50
211.5828910247
 51
301.93595
  0
ARC
  5
1CE
330
1F
100
AcDbEntity
  8
0
  6
Continuous
 62
     7
370
    25
100
AcDbCircle
 10
20.0873577973
 20
11.5191701435
 30
0.0
 40
0.1500000000000032
100
AcDbArc
 50
121.9359498401
 51
207.3714533872
  0
ARC
  5
1CF
330
1F
100
AcDbEntity
  8
0
  6
Continuous
 62
     7
370
    25
100
AcDbCircle
 10
22.5966070528
 20
-0.6955822714
 30
0.0
 40
0.1500000000000023
100
AcDbArc
 50
175.7185397502
 51
267.0967616143
  0
ARC
  5
1D0
330
1F
100
AcDbEntity
  8
0
  6
Continuous
 62
     7
370
    25
100
AcDbCircle
 10
27.0005605293
 20
-0.9189264834
 30
0.0
 40
0.1500000000000051
100
AcDbArc
 50
267.0967616143
 51
357.09637103
  0
ARC
  5
1D1
330
1F
100
AcDbEntity
  8
0
  6
Continuous
 62
     7
370
    25
100
AcDbCircle
 10
20.2595592874
 20
20.4307687444
 30
0.0
 40
0.1500000000000219
100
AcDbArc
 50
313.5482031249
 51
43.2617242049
  0
ARC
  5
1D2
330
1F
100
AcDbEntity
  8
0
  6
Continuous
 62
     7
370
    25
100
AcDbCircle
 10
0.85
 20
29.5089698586
 30
0.0
 40
0.1500000000000092
100
AcDbArc
 50
86.3705425626
 51
180.0
  0
ARC
  5
1D3
330
1F
100
AcDbEntity
  8
0
  6
Continuous
 62
     7
370
    25
100
AcDbCircle
 10
0.4500000001
 20
28.625
 30
0.0
 40
0.1500000000000027
100
AcDbArc
 50
90.0
 51
180.0
  0
ARC
  5
1D4
330
1F
100
AcDbEntity
  8
0
  6
Continuous
 62
     7
370
    25
100
AcDbCircle
 10
0.4500000001
 20
24.1776861405
 30
0.0
 40
0.1500000000000792
100
AcDbArc
 50
180.0
 51
266.5765514724
  0
ARC
  5
1D5
330
1F
100
AcDbEntity
  8
0
  6
Continuous
 62
     7
370
    25
100
AcDbCircle
 10
4.0021901656
 20
23.6983780759
 30
0.0
 40
0.1500000000000167
100
AcDbArc
 50
258.0430506114
 51
348.38753412
  0
ARC
  5
1D6
330
1F
100
AcDbEntity
  8
0
  6
Continuous
 62
     7
370
    25
100
AcDbCircle
 10
5.6531996449
 20
23.2871116647
 30
0.0
 40
0.1499999999999939
100
AcDbArc
 50
168.3875340704
 51
253.9797031833
  0
ARC
  5
1D7
330
1F
100
AcDbEntity
  8
0
  6
Continuous
 62
     7
370
    25
100
AcDbCircle
 10
16.6565905443
 20
16.4538384952
 30
0.0
 40
0.1499999999999833
100
AcDbArc
 50
222.2154982392
 51
313.5042773581
  0
ARC
  5
1D8
330
1F
100
AcDbEntity
  8
0
  6
Continuous
 62
     7
370
    25
100
AcDbCircle
 10
19.8547991348
 20
19.4892789262
 30
0.0
 40
0.1500000000000015
100
AcDbArc
 50
313.5042773581
 51
43.54820317
  0
ENDSEC
  0
SECTION
  2
OBJECTS
  0
DICTIONARY
  5
C
330
0
100
AcDbDictionary
281
     1
  3
ACAD_GROUP
350
D
  3
ACAD_LAYOUT
350
1A
  3
ACAD_MLINESTYLE
350
17
  3
ACAD_PLOTSETTINGS
350
19
  3
ACAD_PLOTSTYLENAME
350
E
  3
ACAD_SCALELIST
350
47
  3
DWGPROPS
350
1D9
  0
DICTIONARY
  5
D
102
{ACAD_REACTORS
330
C
102
}
330
C
100
AcDbDictionary
281
     1
  0
DICTIONARY
  5
1A
102
{ACAD_REACTORS
330
C
102
}
330
C
100
AcDbDictionary
281
     1
  3
Layout1
350
1E
  3
Layout2
350
26
  3
Model
350
22
  0
DICTIONARY
  5
17
102
{ACAD_REACTORS
330
C
102
}
330
C
100
AcDbDictionary
281
     1
  3
Standard
350
18
  0
DICTIONARY
  5
19
102
{ACAD_REACTORS
330
C
102
}
330
C
100
AcDbDictionary
281
     1
  0
ACDBDICTIONARYWDFLT
  5
E
102
{ACAD_REACTORS
330
C
102
}
330
C
100
AcDbDictionary
281
     1
  3
Normal
350
F
100
AcDbDictionaryWithDefault
340
F
  0
DICTIONARY
  5
47
102
{ACAD_REACTORS
330
C
102
}
330
C
100
AcDbDictionary
281
     1
  3
A0
350
48
  3
A1
350
49
  3
A2
350
4A
  3
A3
350
4B
  3
A4
350
4C
  3
A5
350
4D
  3
A6
350
4E
  3
A7
350
4F
  3
A8
350
50
  3
A9
350
51
  3
B0
350
52
  3
B1
350
53
  3
B2
350
54
  3
B3
350
55
  3
B4
350
56
  3
B5
350
57
  3
B6
350
58
  0
XRECORD
  5
1D9
102
{ACAD_REACTORS
330
C
102
}
330
C
100
AcDbXrecord
280
     1
  1
DWGPROPS COOKIE
  2

  3

  4

  6

  7

  8
Admin
  9

300
=
301
=
302
=
303
=
304
=
305
=
306
=
307
=
308
=
309
=
 40
0.0
 41
2460253.96372816
 42
2460253.963783924
  1

 90
        0
  0
LAYOUT
  5
1E
102
{ACAD_REACTORS
330
1A
102
}
330
1A
100
AcDbPlotSettings
  1

  2
none_device
  4

  6

 40
0.0
 41
0.0
 42
0.0
 43
0.0
 44
0.0
 45
0.0
 46
0.0
 47
0.0
 48
0.0
 49
0.0
140
0.0
141
0.0
142
1.0
143
1.0
 70
   688
 72
     1
 73
     0
 74
     5
  7

 75
    16
147
1.0
148
0.0
149
0.0
100
AcDbLayout
  1
Layout1
 70
     1
 71
     1
 10
0.0
 20
0.0
 11
420.0
 21
297.0
 12
0.0
 22
0.0
 32
0.0
 14
1.0000000000E+20
 24
1.0000000000E+20
 34
1.0000000000E+20
 15
-1.0000000000E+20
 25
-1.0000000000E+20
 35
-1.0000000000E+20
146
0.0
 13
0.0
 23
0.0
 33
0.0
 16
1.0
 26
0.0
 36
0.0
 17
0.0
 27
1.0
 37
0.0
 76
     0
330
1B
  0
LAYOUT
  5
26
102
{ACAD_REACTORS
330
1A
102
}
330
1A
100
AcDbPlotSettings
  1

  2
none_device
  4

  6

 40
0.0
 41
0.0
 42
0.0
 43
0.0
 44
0.0
 45
0.0
 46
0.0
 47
0.0
 48
0.0
 49
0.0
140
0.0
141
0.0
142
1.0
143
1.0
 70
   688
 72
     1
 73
     0
 74
     5
  7

 75
    16
147
1.0
148
0.0
149
0.0
100
AcDbLayout
  1
Layout2
 70
     1
 71
     2
 10
0.0
 20
0.0
 11
0.0
 21
0.0
 12
0.0
 22
0.0
 32
0.0
 14
0.0
 24
0.0
 34
0.0
 15
0.0
 25
0.0
 35
0.0
146
0.0
 13
0.0
 23
0.0
 33
0.0
 16
1.0
 26
0.0
 36
0.0
 17
0.0
 27
1.0
 37
0.0
 76
     0
330
23
  0
LAYOUT
  5
22
102
{ACAD_REACTORS
330
1A
102
}
330
1A
100
AcDbPlotSettings
  1

  2
none_device
  4
ANSI_A_(11.00_x_8.50_Inches)
  6

 40
6.35
 41
19.05
 42
6.35000508
 43
19.05000254
 44
279.4
 45
215.9
 46
57.9827039659
 47
31.3629256575
 48
0.0
 49
0.0
140
0.0
141
0.0
142
0.2089665568
143
1.0
 70
  1696
 72
     0
 73
     0
 74
     0
  7

 75
     0
147
0.0179189148
148
-1300.4909072572
149
0.0
100
AcDbLayout
  1
Model
 70
     1
 71
     0
 10
0.0
 20
0.0
 11
420.0
 21
297.0
 12
0.0
 22
0.0
 32
0.0
 14
-0.9612491624
 24
-9.2946016447
 34
0.0
 15
29.3602075844
 25
30.975
 35
0.0
146
0.0
 13
0.0
 23
0.0
 33
0.0
 16
1.0
 26
0.0
 36
0.0
 17
0.0
 27
1.0
 37
0.0
 76
     0
330
1F
331
29
  0
MLINESTYLE
  5
18
102
{ACAD_REACTORS
330
17
102
}
330
17
100
AcDbMlineStyle
  2
Standard
 70
     0
  3

 62
   256
 51
90.0
 52
90.0
 71
     2
 49
0.5
 62
   256
  6
BYLAYER
 49
-0.5
 62
   256
  6
BYLAYER
  0
ACDBPLACEHOLDER
  5
F
102
{ACAD_REACTORS
330
E
102
}
330
E
  0
SCALE
  5
48
102
{ACAD_REACTORS
330
47
102
}
330
47
100
AcDbScale
 70
     0
300
1:1
140
1.0
141
1.0
290
     1
  0
SCALE
  5
49
102
{ACAD_REACTORS
330
47
102
}
330
47
100
AcDbScale
 70
     0
300
1:2
140
1.0
141
2.0
290
     0
  0
SCALE
  5
4A
102
{ACAD_REACTORS
330
47
102
}
330
47
100
AcDbScale
 70
     0
300
1:4
140
1.0
141
4.0
290
     0
  0
SCALE
  5
4B
102
{ACAD_REACTORS
330
47
102
}
330
47
100
AcDbScale
 70
     0
300
1:5
140
1.0
141
5.0
290
     0
  0
SCALE
  5
4C
102
{ACAD_REACTORS
330
47
102
}
330
47
100
AcDbScale
 70
     0
300
1:8
140
1.0
141
8.0
290
     0
  0
SCALE
  5
4D
102
{ACAD_REACTORS
330
47
102
}
330
47
100
AcDbScale
 70
     0
300
1:10
140
1.0
141
10.0
290
     0
  0
SCALE
  5
4E
102
{ACAD_REACTORS
330
47
102
}
330
47
100
AcDbScale
 70
     0
300
1:16
140
1.0
141
16.0
290
     0
  0
SCALE
  5
4F
102
{ACAD_REACTORS
330
47
102
}
330
47
100
AcDbScale
 70
     0
300
1:20
140
1.0
141
20.0
290
     0
  0
SCALE
  5
50
102
{ACAD_REACTORS
330
47
102
}
330
47
100
AcDbScale
 70
     0
300
1:30
140
1.0
141
30.0
290
     0
  0
SCALE
  5
51
102
{ACAD_REACTORS
330
47
102
}
330
47
100
AcDbScale
 70
     0
300
1:40
140
1.0
141
40.0
290
     0
  0
SCALE
  5
52
102
{ACAD_REACTORS
330
47
102
}
330
47
100
AcDbScale
 70
     0
300
1:50
140
1.0
141
50.0
290
     0
  0
SCALE
  5
53
102
{ACAD_REACTORS
330
47
102
}
330
47
100
AcDbScale
 70
     0
300
1:100
140
1.0
141
100.0
290
     0
  0
SCALE
  5
54
102
{ACAD_REACTORS
330
47
102
}
330
47
100
AcDbScale
 70
     0
300
2:1
140
2.0
141
1.0
290
     0
  0
SCALE
  5
55
102
{ACAD_REACTORS
330
47
102
}
330
47
100
AcDbScale
 70
     0
300
4:1
140
4.0
141
1.0
290
     0
  0
SCALE
  5
56
102
{ACAD_REACTORS
330
47
102
}
330
47
100
AcDbScale
 70
     0
300
8:1
140
8.0
141
1.0
290
     0
  0
SCALE
  5
57
102
{ACAD_REACTORS
330
47
102
}
330
47
100
AcDbScale
 70
     0
300
10:1
140
10.0
141
1.0
290
     0
  0
SCALE
  5
58
102
{ACAD_REACTORS
330
47
102
}
330
47
100
AcDbScale
 70
     0
300
100:1
140
100.0
141
1.0
290
     0
  0
ENDSEC
  0
EOF
