  0
SECTION
  2
HEADER
  9
$ACADVER
  1
AC1015
  9
$ACADMAINTVER
 70
     6
  9
$DWGCODEPAGE
  3
ANSI_1252
  9
$INSBASE
 10
0.0
 20
0.0
 30
0.0
  9
$EXTMIN
 10
-21.7344808911
 20
-27.677821676
 30
0.0
  9
$EXTMAX
 10
26.8424541083
 20
-2.9625747919
 30
0.0
  9
$LIMMIN
 10
0.0
 20
0.0
  9
$LIMMAX
 10
420.0
 20
297.0
  9
$ORTHOMODE
 70
     0
  9
$REGENMODE
 70
     1
  9
$FILLMODE
 70
     1
  9
$QTEXTMODE
 70
     0
  9
$MIRRTEXT
 70
     1
  9
$LTSCALE
 40
1.0
  9
$ATTMODE
 70
     1
  9
$TEXTSIZE
 40
0.35
  9
$TRACEWID
 40
1.0
  9
$TEXTSTYLE
  7
Standard
  9
$CLAYER
  8
0
  9
$CELTYPE
  6
ByLayer
  9
$CECOLOR
 62
   256
  9
$CELTSCALE
 40
1.0
  9
$DISPSILH
 70
     0
  9
$DIMSCALE
 40
1.0
  9
$DIMASZ
 40
0.3302
  9
$DIMEXO
 40
0.0
  9
$DIMDLI
 40
3.75
  9
$DIMRND
 40
0.0
  9
$DIMDLE
 40
0.0
  9
$DIMEXE
 40
0.1
  9
$DIMTP
 40
0.0
  9
$DIMTM
 40
0.0
  9
$DIMTXT
 40
0.35
  9
$DIMCEN
 40
2.5
  9
$DIMTSZ
 40
0.0
  9
$DIMTOL
 70
     0
  9
$DIMLIM
 70
     0
  9
$DIMTIH
 70
     1
  9
$DIMTOH
 70
     1
  9
$DIMSE1
 70
     0
  9
$DIMSE2
 70
     0
  9
$DIMTAD
 70
     1
  9
$DIMZIN
 70
     1
  9
$DIMBLK
  1

  9
$DIMASO
 70
     1
  9
$DIMSHO
 70
     1
  9
$DIMPOST
  1

  9
$DIMAPOST
  1

  9
$DIMALT
 70
     0
  9
$DIMALTD
 70
     3
  9
$DIMALTF
 40
0.3937007874
  9
$DIMLFAC
 40
1.0
  9
$DIMTOFL
 70
     1
  9
$DIMTVP
 40
0.0
  9
$DIMTIX
 70
     0
  9
$DIMSOXD
 70
     0
  9
$DIMSAH
 70
     0
  9
$DIMBLK1
  1

  9
$DIMBLK2
  1

  9
$DIMSTYLE
  2
ISO-25
  9
$DIMCLRD
 70
     0
  9
$DIMCLRE
 70
     0
  9
$DIMCLRT
 70
     0
  9
$DIMTFAC
 40
1.0
  9
$DIMGAP
 40
0.1524
  9
$DIMJUST
 70
     0
  9
$DIMSD1
 70
     0
  9
$DIMSD2
 70
     0
  9
$DIMTOLJ
 70
     0
  9
$DIMTZIN
 70
     1
  9
$DIMALTZ
 70
     0
  9
$DIMALTTZ
 70
     0
  9
$DIMUPT
 70
     0
  9
$DIMDEC
 70
     2
  9
$DIMTDEC
 70
     2
  9
$DIMALTU
 70
     2
  9
$DIMALTTD
 70
     3
  9
$DIMTXSTY
  7
Standard
  9
$DIMAUNIT
 70
     0
  9
$DIMADEC
 70
     2
  9
$DIMALTRND
 40
0.0
  9
$DIMAZIN
 70
     0
  9
$DIMDSEP
 70
    44
  9
$DIMATFIT
 70
     3
  9
$DIMFRAC
 70
     0
  9
$DIMLDRBLK
  1

  9
$DIMLUNIT
 70
     2
  9
$DIMLWD
 70
    -2
  9
$DIMLWE
 70
    -2
  9
$DIMTMOVE
 70
     0
  9
$LUNITS
 70
     2
  9
$LUPREC
 70
     2
  9
$SKETCHINC
 40
1.0
  9
$FILLETRAD
 40
0.0
  9
$AUNITS
 70
     0
  9
$AUPREC
 70
     2
  9
$MENU
  1
.
  9
$ELEVATION
 40
0.0
  9
$PELEVATION
 40
0.0
  9
$THICKNESS
 40
0.0
  9
$LIMCHECK
 70
     0
  9
$CHAMFERA
 40
0.0
  9
$CHAMFERB
 40
0.0
  9
$CHAMFERC
 40
0.0
  9
$CHAMFERD
 40
0.0
  9
$SKPOLY
 70
     0
  9
$TDCREATE
 40
2460254.005702292
  9
$TDUCREATE
 40
2460253.964035625
  9
$TDUPDATE
 40
2460254.005816273
  9
$TDUUPDATE
 40
2460253.964149606
  9
$TDINDWG
 40
0.0000000116
  9
$TDUSRTIMER
 40
0.0000000116
  9
$USRTIMER
 70
     1
  9
$ANGBASE
 50
0.0
  9
$ANGDIR
 70
     0
  9
$PDMODE
 70
     0
  9
$PDSIZE
 40
-1.0
  9
$PLINEWID
 40
0.0
  9
$SPLFRAME
 70
     0
  9
$SPLINETYPE
 70
     6
  9
$SPLINESEGS
 70
     8
  9
$HANDSEED
  5
1FC
  9
$SURFTAB1
 70
     6
  9
$SURFTAB2
 70
     6
  9
$SURFTYPE
 70
     6
  9
$SURFU
 70
     6
  9
$SURFV
 70
     6
  9
$UCSBASE
  2

  9
$UCSNAME
  2

  9
$UCSORG
 10
0.0
 20
0.0
 30
0.0
  9
$UCSXDIR
 10
1.0
 20
0.0
 30
0.0
  9
$UCSYDIR
 10
0.0
 20
1.0
 30
0.0
  9
$UCSORTHOREF
  2

  9
$UCSORTHOVIEW
 70
     0
  9
$UCSORGTOP
 10
0.0
 20
0.0
 30
0.0
  9
$UCSORGBOTTOM
 10
0.0
 20
0.0
 30
0.0
  9
$UCSORGLEFT
 10
0.0
 20
0.0
 30
0.0
  9
$UCSORGRIGHT
 10
0.0
 20
0.0
 30
0.0
  9
$UCSORGFRONT
 10
0.0
 20
0.0
 30
0.0
  9
$UCSORGBACK
 10
0.0
 20
0.0
 30
0.0
  9
$PUCSBASE
  2

  9
$PUCSNAME
  2

  9
$PUCSORG
 10
0.0
 20
0.0
 30
0.0
  9
$PUCSXDIR
 10
1.0
 20
0.0
 30
0.0
  9
$PUCSYDIR
 10
0.0
 20
1.0
 30
0.0
  9
$PUCSORTHOREF
  2

  9
$PUCSORTHOVIEW
 70
     0
  9
$PUCSORGTOP
 10
0.0
 20
0.0
 30
0.0
  9
$PUCSORGBOTTOM
 10
0.0
 20
0.0
 30
0.0
  9
$PUCSORGLEFT
 10
0.0
 20
0.0
 30
0.0
  9
$PUCSORGRIGHT
 10
0.0
 20
0.0
 30
0.0
  9
$PUCSORGFRONT
 10
0.0
 20
0.0
 30
0.0
  9
$PUCSORGBACK
 10
0.0
 20
0.0
 30
0.0
  9
$USERI1
 70
     0
  9
$USERI2
 70
     0
  9
$USERI3
 70
     0
  9
$USERI4
 70
     0
  9
$USERI5
 70
     0
  9
$USERR1
 40
0.0
  9
$USERR2
 40
0.0
  9
$USERR3
 40
0.0
  9
$USERR4
 40
0.0
  9
$USERR5
 40
0.0
  9
$WORLDVIEW
 70
     1
  9
$SHADEDGE
 70
     3
  9
$SHADEDIF
 70
    70
  9
$TILEMODE
 70
     1
  9
$MAXACTVP
 70
    64
  9
$PINSBASE
 10
0.0
 20
0.0
 30
0.0
  9
$PLIMCHECK
 70
     0
  9
$PEXTMIN
 10
1.0000000000E+20
 20
1.0000000000E+20
 30
1.0000000000E+20
  9
$PEXTMAX
 10
-1.0000000000E+20
 20
-1.0000000000E+20
 30
-1.0000000000E+20
  9
$PLIMMIN
 10
0.0
 20
0.0
  9
$PLIMMAX
 10
420.0
 20
297.0
  9
$UNITMODE
 70
     0
  9
$VISRETAIN
 70
     1
  9
$PLINEGEN
 70
     0
  9
$PSLTSCALE
 70
     1
  9
$TREEDEPTH
 70
  3020
  9
$CMLSTYLE
  2
Standard
  9
$CMLJUST
 70
     0
  9
$CMLSCALE
 40
20.0
  9
$PROXYGRAPHICS
 70
     1
  9
$MEASUREMENT
 70
     1
  9
$CELWEIGHT
370
    -1
  9
$ENDCAPS
280
     0
  9
$JOINSTYLE
280
     0
  9
$LWDISPLAY
290
     1
  9
$INSUNITS
 70
     4
  9
$HYPERLINKBASE
  1

  9
$STYLESHEET
  1

  9
$XEDIT
290
     1
  9
$CEPSNTYPE
380
     0
  9
$PSTYLEMODE
290
     1
  9
$FINGERPRINTGUID
  2
{583ff5ec-fb1b-4710-9b74-e9eafb174a7a}
  9
$VERSIONGUID
  2
{FAEB1C32-E019-11D5-929B-00C0DF256EC4}
  9
$EXTNAMES
290
     1
  9
$PSVPSCALE
 40
0.0
  9
$OLESTARTUP
290
     0
  0
ENDSEC
  0
SECTION
  2
CLASSES
  0
CLASS
  1
ACDBDICTIONARYWDFLT
  2
AcDbDictionaryWithDefault
  3
ObjectDBX Classes
 90
        0
280
     0
281
     0
  0
CLASS
  1
VISUALSTYLE
  2
AcDbVisualStyle
  3
ObjectDBX Classes
 90
     4095
280
     0
281
     0
  0
CLASS
  1
MATERIAL
  2
AcDbMaterial
  3
ObjectDBX Classes
 90
     1153
280
     0
281
     0
  0
CLASS
  1
SCALE
  2
AcDbScale
  3
ObjectDBX Classes
 90
     1153
280
     0
281
     0
  0
CLASS
  1
TABLESTYLE
  2
AcDbTableStyle
  3
ObjectDBX Classes
 90
     4095
280
     0
281
     0
  0
CLASS
  1
MLEADERSTYLE
  2
AcDbMLeaderStyle
  3
ACDB_MLEADERSTYLE_CLASS
 90
     4095
280
     0
281
     0
  0
CLASS
  1
SUN
  2
AcDbSun
  3
SCENEOE
 90
     1153
280
     0
281
     0
  0
CLASS
  1
ACDBPLACEHOLDER
  2
AcDbPlaceHolder
  3
ObjectDBX Classes
 90
        0
280
     0
281
     0
  0
CLASS
  1
LAYOUT
  2
AcDbLayout
  3
ObjectDBX Classes
 90
        0
280
     0
281
     0
  0
ENDSEC
  0
SECTION
  2
TABLES
  0
TABLE
  2
VPORT
  5
8
330
0
100
AcDbSymbolTable
 70
     1
  0
VPORT
  5
29
330
8
100
AcDbSymbolTableRecord
100
AcDbViewportTableRecord
  2
*Active
 70
     0
 10
0.0
 20
0.0
 11
1.0
 21
1.0
 12
2.5539866086
 22
-15.3201982339
 13
0.0
 23
0.0
 14
10.0
 24
10.0
 15
10.0
 25
10.0
 16
0.0
 26
0.0
 36
1.0
 17
0.0
 27
0.0
 37
0.0
 40
25.2095518218
 41
1.9654642831
 42
50.0
 43
0.0
 44
0.0
 50
0.0
 51
0.0
 71
     0
 72
   100
 73
     1
 74
     3
 75
     0
 76
     0
 77
     0
 78
     0
281
     0
 65
     1
110
0.0
120
0.0
130
0.0
111
1.0
121
0.0
131
0.0
112
0.0
122
1.0
132
0.0
 79
     0
146
0.0
  0
ENDTAB
  0
TABLE
  2
LTYPE
  5
5
330
0
100
AcDbSymbolTable
 70
     6
  0
LTYPE
  5
14
330
5
100
AcDbSymbolTableRecord
100
AcDbLinetypeTableRecord
  2
ByBlock
 70
     0
  3

 72
    65
 73
     0
 40
0.0
  0
LTYPE
  5
15
330
5
100
AcDbSymbolTableRecord
100
AcDbLinetypeTableRecord
  2
ByLayer
 70
     0
  3

 72
    65
 73
     0
 40
0.0
  0
LTYPE
  5
16
330
5
100
AcDbSymbolTableRecord
100
AcDbLinetypeTableRecord
  2
Continuous
 70
     0
  3
Solid line
 72
    65
 73
     0
 40
0.0
  0
LTYPE
  5
5E
330
5
100
AcDbSymbolTableRecord
100
AcDbLinetypeTableRecord
  2
HIDDEN
 70
     0
  3
Hidden __ __ __ __ __ __ __ __ __ __ __ __ __ __
 72
    65
 73
     2
 40
0.1905
 49
0.127
 74
     0
 49
-0.0635
 74
     0
  0
LTYPE
  5
5F
330
5
100
AcDbSymbolTableRecord
100
AcDbLinetypeTableRecord
  2
PHANTOM
 70
     0
  3
Phantom ______  __  __  ______  __  __  ______
 72
    65
 73
     6
 40
1.27
 49
0.635
 74
     0
 49
-0.127
 74
     0
 49
0.127
 74
     0
 49
-0.127
 74
     0
 49
0.127
 74
     0
 49
-0.127
 74
     0
  0
LTYPE
  5
60
330
5
100
AcDbSymbolTableRecord
100
AcDbLinetypeTableRecord
  2
CENTER
 70
     0
  3
Center ____ _ ____ _ ____ _ ____ _ ____ _ ____
 72
    65
 73
     4
 40
1.016
 49
0.635
 74
     0
 49
-0.127
 74
     0
 49
0.127
 74
     0
 49
-0.127
 74
     0
  0
LTYPE
  5
61
330
5
100
AcDbSymbolTableRecord
100
AcDbLinetypeTableRecord
  2
CENTERX2
 70
     0
  3
Center (2x) ________  __  ________  __  _____
 72
    65
 73
     4
 40
2.032
 49
1.27
 74
     0
 49
-0.254
 74
     0
 49
0.254
 74
     0
 49
-0.254
 74
     0
  0
LTYPE
  5
62
330
5
100
AcDbSymbolTableRecord
100
AcDbLinetypeTableRecord
  2
DOT2
 70
     0
  3
Dot (.5x) ........................................
 72
    65
 73
     2
 40
0.0635
 49
0.0
 74
     0
 49
-0.0635
 74
     0
  0
ENDTAB
  0
TABLE
  2
LAYER
  5
2
330
0
100
AcDbSymbolTable
 70
     1
  0
LAYER
  5
10
330
2
100
AcDbSymbolTableRecord
100
AcDbLayerTableRecord
  2
0
 70
     0
 62
     7
  6
Continuous
370
    -3
390
F
  0
ENDTAB
  0
TABLE
  2
STYLE
  5
3
330
0
100
AcDbSymbolTable
 70
     1
  0
STYLE
  5
11
330
3
100
AcDbSymbolTableRecord
100
AcDbTextStyleTableRecord
  2
Standard
 70
     0
 40
0.0
 41
1.0
 50
0.0
 71
     0
 42
0.35
  3
txt
  4

  0
ENDTAB
  0
TABLE
  2
VIEW
  5
6
330
0
100
AcDbSymbolTable
 70
     0
  0
ENDTAB
  0
TABLE
  2
UCS
  5
7
330
0
100
AcDbSymbolTable
 70
     0
  0
ENDTAB
  0
TABLE
  2
APPID
  5
9
330
0
100
AcDbSymbolTable
 70
     1
  0
APPID
  5
12
330
9
100
AcDbSymbolTableRecord
100
AcDbRegAppTableRecord
  2
ACAD
 70
     0
  0
ENDTAB
  0
TABLE
  2
DIMSTYLE
  5
A
330
0
100
AcDbSymbolTable
 70
     1
100
AcDbDimStyleTable
  0
DIMSTYLE
105
27
330
A
100
AcDbSymbolTableRecord
100
AcDbDimStyleTableRecord
  2
ISO-25
 70
     0
 41
2.5
 42
0.625
 43
3.75
 44
1.25
 73
     0
 74
     0
 77
     1
 78
     8
140
2.5
141
2.5
143
0.0393700787
147
0.625
171
     3
172
     1
178
     0
271
     2
272
     2
274
     3
278
    44
283
     0
284
     8
340
11
  0
ENDTAB
  0
TABLE
  2
BLOCK_RECORD
  5
1
330
0
100
AcDbSymbolTable
 70
     1
  0
BLOCK_RECORD
  5
1F
330
1
100
AcDbSymbolTableRecord
100
AcDbBlockTableRecord
  2
*Model_Space
340
22
  0
BLOCK_RECORD
  5
1B
330
1
100
AcDbSymbolTableRecord
100
AcDbBlockTableRecord
  2
*Paper_Space
340
1E
  0
BLOCK_RECORD
  5
23
330
1
100
AcDbSymbolTableRecord
100
AcDbBlockTableRecord
  2
*Paper_Space0
340
26
  0
ENDTAB
  0
ENDSEC
  0
SECTION
  2
BLOCKS
  0
BLOCK
  5
20
330
1F
100
AcDbEntity
  8
0
100
AcDbBlockBegin
  2
*Model_Space
 70
     0
 10
0.0
 20
0.0
 30
0.0
  3
*Model_Space
  1

  0
ENDBLK
  5
21
330
1F
100
AcDbEntity
  8
0
100
AcDbBlockEnd
  0
BLOCK
  5
1C
330
1B
100
AcDbEntity
 67
     1
  8
0
100
AcDbBlockBegin
  2
*Paper_Space
 70
     0
 10
0.0
 20
0.0
 30
0.0
  3
*Paper_Space
  1

  0
ENDBLK
  5
1D
330
1B
100
AcDbEntity
 67
     1
  8
0
100
AcDbBlockEnd
  0
BLOCK
  5
24
330
23
100
AcDbEntity
  8
0
100
AcDbBlockBegin
  2
*Paper_Space0
 70
     0
 10
0.0
 20
0.0
 30
0.0
  3
*Paper_Space0
  1

  0
ENDBLK
  5
25
330
23
100
AcDbEntity
  8
0
100
AcDbBlockEnd
  0
ENDSEC
  0
SECTION
  2
ENTITIES
  0
SPLINE
  5
68
330
1F
100
AcDbEntity
  8
0
  6
Continuous
 62
     7
370
    25
100
AcDbSpline
210
0.0
220
0.0
230
1.0
 70
     8
 71
     3
 72
    46
 73
    42
 74
     0
 42
0.00000001
 43
0.00000001
 40
0.0
 40
0.0
 40
0.0
 40
0.0
 40
0.008337226641886
 40
0.0166726584691058
 40
0.0250066292042892
 40
0.0333394727456125
 40
0.0416715231267648
 40
0.0500031144768348
 40
0.0583345809801386
 40
0.066666256836015
 40
0.0749984762186123
 40
0.0833315732366888
 40
0.091665881893454
 40
0.1000017360464727
 40
0.1083394693676566
 40
0.1166794153033668
 40
0.1250219070346527
 40
0.15627490018745
 40
0.1875170508279919
 40
0.2187658428725443
 40
0.2500387490982356
 40
0.3125116085604397
 40
0.3750412450317844
 40
0.4375151430631034
 40
0.5000374750108338
 40
0.5625240942951129
 40
0.6250300114150569
 40
0.687509690097043
 40
0.7500189053286123
 40
0.7812532099377524
 40
0.8124853547061264
 40
0.8437322435396566
 40
0.8750107564397851
 40
0.8906327531319213
 40
0.9062510262822012
 40
0.9218676746534384
 40
0.9374847976635009
 40
0.9531044945388711
 40
0.968728863468589
 40
0.9843600007602856
 40
0.9999999999999999
 40
0.9999999999999999
 40
0.9999999999999999
 40
0.9999999999999999
 10
-1.894731210050504
 20
-27.03929289112999
 30
0.0
 10
-1.837800748594943
 20
-27.04528218883863
 30
0.0
 10
-1.723952081513196
 20
-27.05725949489678
 30
0.0
 10
-1.55305543724539
 20
-27.07385377524906
 30
0.0
 10
-1.382095073260892
 20
-27.08944096340758
 30
0.0
 10
-1.21106047333717
 20
-27.1039228159137
 30
0.0
 10
-1.0399544556421
 20
-27.11732565046583
 30
0.0
 10
-0.8687762662245774
 20
-27.12964241642816
 30
0.0
 10
-0.6975261081487925
 20
-27.14087500267183
 30
0.0
 10
-0.5262039279696172
 20
-27.15102290307292
 30
0.0
 10
-0.3548097413759683
 20
-27.16008625306106
 30
0.0
 10
-0.1833435440224917
 20
-27.16806501685073
 30
0.0
 10
-0.0118053425694712
 20
-27.17495920208553
 30
0.0
 10
0.1598048803173671
 20
-27.18076881404639
 30
0.0
 10
0.3314870569819869
 20
-27.18549382414518
 30
0.0
 10
0.5032414358534878
 20
-27.18913434180783
 30
0.0
 10
0.832336837306049
 20
-27.19402908017021
 30
0.0
 10
1.318768563577304
 20
-27.19398344704634
 30
0.0
 10
1.962301864900483
 20
-27.17869644456354
 30
0.0
 10
2.605436235897269
 20
-27.14817970300756
 30
0.0
 10
3.461564347714229
 20
-27.08725247299936
 30
0.0
 10
4.528934126674112
 20
-26.97324446238747
 30
0.0
 10
5.801474412926591
 20
-26.77623168689884
 30
0.0
 10
7.063710432976436
 20
-26.51963527124075
 30
0.0
 10
8.312185797359065
 20
-26.20401282452272
 30
0.0
 10
9.54474478051556
 20
-25.83029343383846
 30
0.0
 10
10.75815859038858
 20
-25.39930743644029
 30
0.0
 10
11.95028169027993
 20
-24.9121532573926
 30
0.0
 10
12.92358597392288
 20
-24.46030885262272
 30
0.0
 10
13.68888746451516
 20
-24.07203723558879
 30
0.0
 10
14.25583248104379
 20
-23.76760797734314
 30
0.0
 10
14.81580167256701
 20
-23.44992589040983
 30
0.0
 10
15.27626886406343
 20
-23.17436501351215
 30
0.0
 10
15.64073480101481
 20
-22.94756768272147
 30
0.0
 10
15.91190891780432
 20
-22.77442967641157
 30
0.0
 10
16.18102997290569
 20
-22.59817912186504
 30
0.0
 10
16.44809436596138
 20
-22.41881022774993
 30
0.0
 10
16.71311656056644
 20
-22.23634258008664
 30
0.0
 10
16.97604219730463
 20
-22.05070365974796
 30
0.0
 10
17.23707428083802
 20
-21.86216417213923
 30
0.0
 10
17.40927129509343
 20
-21.73390554091456
 30
0.0
 10
17.49539420173389
 20
-21.66975805165316
 30
0.0
  0
SPLINE
  5
6E
330
1F
100
AcDbEntity
  8
0
  6
Continuous
 62
     7
370
    25
100
AcDbSpline
210
0.0
220
0.0
230
1.0
 70
     8
 71
     3
 72
    46
 73
    42
 74
     0
 42
0.00000001
 43
0.00000001
 40
0.0
 40
0.0
 40
0.0
 40
0.0
 40
0.0083374928850533
 40
0.0166731885663629
 40
0.0250074190755586
 40
0.0333405166194084
 40
0.0416728135401943
 40
0.0500046422760039
 40
0.0583363353209682
 40
0.0666682251854617
 40
0.0750006443562973
 40
0.0833339252569316
 40
0.0916684002077099
 40
0.1000044013861728
 40
0.1083422607874477
 40
0.1166823101847495
 40
0.1250248810900127
 40
0.1562656964738858
 40
0.1875034862595112
 40
0.2187556677537383
 40
0.2500396342257316
 40
0.312515588323468
 40
0.3750415566555956
 40
0.437532065745048
 40
0.5000399321610652
 40
0.5625172131949079
 40
0.6250317842196587
 40
0.687494493427866
 40
0.7500185098417474
 40
0.781263195664387
 40
0.8124989317297499
 40
0.8437425362479053
 40
0.8750108147323551
 40
0.8906377073775654
 40
0.9062595034713197
 40
0.921878287118528
 40
0.9374961436300777
 40
0.953115158688204
 40
0.9687374175111194
 40
0.9843650040185723
 40
0.9999999999999999
 40
0.9999999999999999
 40
0.9999999999999999
 40
0.9999999999999999
 10
-20.26596057293742
 20
-16.76266802709832
 30
0.0
 10
-20.23218971935857
 20
-16.80662376632987
 30
0.0
 10
-20.16465529173985
 20
-16.89452576983205
 30
0.0
 10
-20.06231107401718
 20
-17.02555266325739
 30
0.0
 10
-19.95921944428104
 20
-17.15595401414287
 30
0.0
 10
-19.85530462303986
 20
-17.28567181995182
 30
0.0
 10
-19.75058691097145
 20
-17.41472161780009
 30
0.0
 10
-19.64506087012484
 20
-17.54309924449425
 30
0.0
 10
-19.53872795805265
 20
-17.67080581461429
 30
0.0
 10
-19.43158778480403
 20
-17.79784102880334
 30
0.0
 10
-19.32364045577792
 20
-17.92420496632533
 30
0.0
 10
-19.21488594247135
 20
-18.04989760590215
 30
0.0
 10
-19.10532425672699
 20
-18.17491894988283
 30
0.0
 10
-18.99495538299654
 20
-18.29926900674316
 30
0.0
 10
-18.88377937504795
 20
-18.42294773689417
 30
0.0
 10
-18.77179603677231
 20
-18.5459552870333
 30
0.0
 10
-18.55582705543769
 20
-18.780202629648
 30
0.0
 10
-18.23149689018535
 20
-19.12159904685799
 30
0.0
 10
-17.79170619166804
 20
-19.5631601769169
 30
0.0
 10
-17.34139983309579
 20
-19.99441596024034
 30
0.0
 10
-16.72772017021768
 20
-20.555014342319
 30
0.0
 10
-15.93602170323405
 20
-21.22858629849125
 30
0.0
 10
-14.94927142719485
 20
-21.99098042108767
 30
0.0
 10
-13.92773180053647
 20
-22.70647737360898
 30
0.0
 10
-12.87402538865827
 20
-23.37308469214885
 30
0.0
 10
-11.7902090718536
 20
-23.98984714753091
 30
0.0
 10
-10.67903323997116
 20
-24.55517895961678
 30
0.0
 10
-9.542486778937983
 20
-25.06831661098391
 30
0.0
 10
-8.576548989469307
 20
-25.45129861259182
 30
0.0
 10
-7.793749991912429
 20
-25.73060282621511
 30
0.0
 10
-7.202119217399025
 20
-25.92634269109254
 30
0.0
 10
-6.605960755609821
 20
-26.10834553210922
 30
0.0
 10
-6.105672395089693
 20
-26.24848511516856
 30
0.0
 10
-5.70355310966051
 20
-26.35364693987573
 30
0.0
 10
-5.401202233994049
 20
-26.42899897244815
 30
0.0
 10
-5.0980599889275
 20
-26.50083982962122
 30
0.0
 10
-4.794124882494262
 20
-26.56916380885093
 30
0.0
 10
-4.489400999347359
 20
-26.63399388659203
 30
0.0
 10
-4.183873586721817
 20
-26.69524381699579
 30
0.0
 10
-3.8775976930309
 20
-26.75323572780557
 30
0.0
 10
-3.67283540537173
 20
-26.78891294058778
 30
0.0
 10
-3.570429996418784
 20
-26.80675577486664
 30
0.0
  0
SPLINE
  5
74
330
1F
100
AcDbEntity
  8
0
  6
Continuous
 62
     7
370
    25
100
AcDbSpline
210
0.0
220
0.0
230
1.0
 70
     8
 71
     3
 72
    12
 73
     8
 74
     0
 42
0.00000001
 43
0.00000001
 40
0.0
 40
0.0
 40
0.0
 40
0.0
 40
0.1998913011807285
 40
0.3998288491962798
 40
0.5998207500225016
 40
0.7998751030283084
 40
1.0
 40
1.0
 40
1.0
 40
1.0
 10
-21.70257316205245
 20
-14.68582285957507
 30
0.0
 10
-21.67309460565065
 20
-14.73296466162864
 30
0.0
 10
-21.61413067269071
 20
-14.8272591724592
 30
0.0
 10
-21.52453735670642
 20
-14.96800398147223
 30
0.0
 10
-21.43407305583523
 20
-15.10824310464679
 30
0.0
 10
-21.34273584427642
 20
-15.24797895314683
 30
0.0
 10
-21.28108878979222
 20
-15.34065866164856
 30
0.0
 10
-21.25025982895042
 20
-15.3870066847315
 30
0.0
  0
SPLINE
  5
76
330
1F
100
AcDbEntity
  8
0
  6
Continuous
 62
     7
370
    25
100
AcDbSpline
210
0.0
220
0.0
230
1.0
 70
     8
 71
     3
 72
    12
 73
     8
 74
     0
 42
0.00000001
 43
0.00000001
 40
0.0
 40
0.0
 40
0.0
 40
0.0
 40
0.2001201237930757
 40
0.4001728766362386
 40
0.6001655643701823
 40
0.8001054994199842
 40
1.0
 40
1.0
 40
1.0
 40
1.0
 10
-20.78644076015071
 20
-15.00102029707825
 30
0.0
 10
-20.81495982063241
 20
-14.9579225808823
 30
0.0
 10
-20.87198834058139
 20
-14.87174165744644
 30
0.0
 10
-20.95652973005527
 20
-14.74184079050839
 30
0.0
 10
-21.04029997833582
 20
-14.61149779226864
 30
0.0
 10
-21.12330069999281
 20
-14.48071064114168
 30
0.0
 10
-21.17795907930066
 20
-14.39311036025029
 30
0.0
 10
-21.20528516345109
 20
-14.34931519695509
 30
0.0
  0
SPLINE
  5
7D
330
1F
100
AcDbEntity
  8
0
  6
Continuous
 62
     7
370
    25
100
AcDbSpline
210
0.0
220
0.0
230
1.0
 70
     8
 71
     3
 72
    13
 73
     9
 74
     0
 42
0.00000001
 43
0.00000001
 40
0.0
 40
0.0
 40
0.0
 40
0.0
 40
0.1666523189674015
 40
0.3332994837459247
 40
0.4999496649800919
 40
0.66661103287078
 40
0.833291755973853
 40
0.9999999999999999
 40
0.9999999999999999
 40
0.9999999999999999
 40
0.9999999999999999
 10
-16.52643049212236
 20
-11.18320122230033
 30
0.0
 10
-16.50225008727835
 20
-11.22290032966326
 30
0.0
 10
-16.45389002543694
 20
-11.30229731658325
 30
0.0
 10
-16.38029374913079
 20
-11.42074449195431
 30
0.0
 10
-16.30593243345091
 20
-11.53871500957634
 30
0.0
 10
-16.23071030813272
 20
-11.65614963354572
 30
0.0
 10
-16.1547216386344
 20
-11.77310987886817
 30
0.0
 10
-16.10336901096975
 20
-11.85063488098896
 30
0.0
 10
-16.07769057758361
 20
-11.88940058185473
 30
0.0
  0
SPLINE
  5
7F
330
1F
100
AcDbEntity
  8
0
  6
Continuous
 62
     7
370
    25
100
AcDbSpline
210
0.0
220
0.0
230
1.0
 70
     8
 71
     3
 72
    37
 73
    33
 74
     0
 42
0.00000001
 43
0.00000001
 40
0.0
 40
0.0
 40
0.0
 40
0.0
 40
0.0110590468704365
 40
0.0221132746675274
 40
0.0331632016326201
 40
0.0442093466123963
 40
0.0552522289866242
 40
0.0662923685955364
 40
0.0773302856668852
 40
0.0883665007427204
 40
0.0994015346059525
 40
0.1104359082067374
 40
0.1214701425887489
 40
0.1325047588153823
 40
0.143540277895944
 40
0.2153000136898583
 40
0.2870615763717168
 40
0.3588637174934384
 40
0.4305790128506051
 40
0.5023386398059076
 40
0.5740908020077184
 40
0.6458902863579145
 40
0.7175853717392842
 40
0.7893302729200593
 40
0.8610646199283009
 40
0.880943512912575
 40
0.9008067584671786
 40
0.9206575436558274
 40
0.9404990615466159
 40
0.9603345096831266
 40
0.9801670885447653
 40
1.0
 40
1.0
 40
1.0
 40
1.0
 10
-6.799773597013981
 20
-18.78643836113044
 30
0.0
 10
-6.841817449366622
 20
-18.76871142841123
 30
0.0
 10
-6.925886833107127
 20
-18.73326528763389
 30
0.0
 10
-7.051500452285381
 20
-18.67901455051667
 30
0.0
 10
-7.17671707870077
 20
-18.62398784179478
 30
0.0
 10
-7.301503797639953
 20
-18.56810666526367
 30
0.0
 10
-7.425869422489143
 20
-18.51139204247539
 30
0.0
 10
-7.54981159187948
 20
-18.45383834369691
 30
0.0
 10
-7.673330936751952
 20
-18.39544707764522
 30
0.0
 10
-7.796427288616009
 20
-18.33621783876837
 30
0.0
 10
-7.919100685586904
 20
-18.27615074300139
 30
0.0
 10
-8.041351138584057
 20
-18.21524573414181
 30
0.0
 10
-8.16317856082073
 20
-18.15350292331146
 30
0.0
 10
-8.284583283589525
 20
-18.0909219245755
 30
0.0
 10
-8.62745893523407
 20
-17.9111875663943
 30
0.0
 10
-9.184629683184797
 20
-17.60052730185478
 30
0.0
 10
-9.940600777323562
 20
-17.13334894246867
 30
0.0
 10
-10.67476518823573
 20
-16.63289404159097
 30
0.0
 10
-11.38563223445206
 20
-16.09988158755614
 30
0.0
 10
-12.0715893248924
 20
-15.53549133774392
 30
0.0
 10
-12.73155003660081
 20
-14.94039314670014
 30
0.0
 10
-13.36377275441403
 20
-14.31628307820179
 30
0.0
 10
-13.96692743868882
 20
-13.66407106176484
 30
0.0
 10
-14.53958721499896
 20
-12.98529455525704
 30
0.0
 10
-14.95037375029606
 20
-12.45062038756226
 30
0.0
 10
-15.21985836692614
 20
-12.07789462868841
 30
0.0
 10
-15.3613887251303
 20
-11.87683326797709
 30
0.0
 10
-15.5002675487348
 20
-11.67411984709696
 30
0.0
 10
-15.63651311045609
 20
-11.46976384997648
 30
0.0
 10
-15.77006004215529
 20
-11.26372622512889
 30
0.0
 10
-15.90115140961572
 20
-11.05615374529679
 30
0.0
 10
-15.98629869376992
 20
-10.91639226255376
 30
0.0
 10
-16.02887269282535
 20
-10.84651093523494
 30
0.0
  0
SPLINE
  5
86
330
1F
100
AcDbEntity
  8
0
  6
Continuous
 62
     7
370
    25
100
AcDbSpline
210
0.0
220
0.0
230
1.0
 70
     8
 71
     3
 72
    20
 73
    16
 74
     0
 42
0.00000001
 43
0.00000001
 40
0.0
 40
0.0
 40
0.0
 40
0.0
 40
0.0716251894657535
 40
0.1432443551697332
 40
0.2148622188621916
 40
0.2864835025508936
 40
0.3581129275672407
 40
0.4297552136330562
 40
0.501415077928968
 40
0.5730972341652971
 40
0.6448063916563677
 40
0.7165472543991436
 40
0.7883245201570755
 40
0.8941718704340826
 40
1.0
 40
1.0
 40
1.0
 40
1.0
 10
-6.149910977211529
 20
-12.83381004780383
 30
0.0
 10
-6.116419595616415
 20
-12.85273353562875
 30
0.0
 10
-6.049439649090354
 20
-12.89057891979124
 30
0.0
 10
-5.948391576052528
 20
-12.94630925027195
 30
0.0
 10
-5.84692898354684
 20
-13.00127490093538
 30
0.0
 10
-5.745009756158946
 20
-13.05540173849814
 30
0.0
 10
-5.642645176832247
 20
-13.10870961755486
 30
0.0
 10
-5.539832237201528
 20
-13.16119324884286
 30
0.0
 10
-5.436571694974095
 20
-13.21285392927476
 30
0.0
 10
-5.332863536642761
 20
-13.26369175816827
 30
0.0
 10
-5.228707066354554
 20
-13.31370503686633
 30
0.0
 10
-5.124105091293401
 20
-13.36290046190093
 30
0.0
 10
-5.00244507186424
 20
-13.41889392343665
 30
0.0
 10
-4.863574409812613
 20
-13.4812772935723
 30
0.0
 10
-4.759178301529218
 20
-13.52628640729902
 30
0.0
 10
-4.70698498711325
 20
-13.54878892068722
 30
0.0
  0
SPLINE
  5
8C
330
1F
100
AcDbEntity
  8
0
  6
Continuous
 62
     7
370
    25
100
AcDbSpline
210
0.0
220
0.0
230
1.0
 70
     8
 71
     3
 72
    29
 73
    25
 74
     0
 42
0.00000001
 43
0.00000001
 40
0.0
 40
0.0
 40
0.0
 40
0.0
 40
0.0211951926369573
 40
0.0423903716683136
 40
0.0635872021450152
 40
0.0847873487288963
 40
0.1059924753008206
 40
0.1272042445697399
 40
0.14842431768313
 40
0.1696543538392617
 40
0.2733925689933798
 40
0.3772738250403854
 40
0.4810098284624575
 40
0.5848679855497945
 40
0.626377441161175
 40
0.6678557619234647
 40
0.7093149283240417
 40
0.7507669374583065
 40
0.79222379263533
 40
0.8336974929565619
 40
0.8752000229127836
 40
0.916743342044312
 40
0.9583393747088088
 40
0.9999999999999999
 40
0.9999999999999999
 40
0.9999999999999999
 40
0.9999999999999999
 10
-11.35054052677523
 20
-7.680749873629771
 30
0.0
 10
-11.33028253013594
 20
-7.715724304017892
 30
0.0
 10
-11.28976654986135
 20
-7.785673142343374
 30
0.0
 10
-11.22781482844773
 20
-7.889910863623051
 30
0.0
 10
-11.16500337669856
 20
-7.993642459683691
 30
0.0
 10
-11.10124741763105
 20
-8.0968191020194
 30
0.0
 10
-11.03656964852052
 20
-8.199453896451676
 30
0.0
 10
-10.97096407660756
 20
-8.301543243837031
 30
0.0
 10
-10.90443197809111
 20
-8.403088421239488
 30
0.0
 10
-10.74959984515723
 20
-8.634907179928863
 30
0.0
 10
-10.49777698888546
 20
-8.991506842499708
 30
0.0
 10
-10.13458072803152
 20
-9.46141559343815
 30
0.0
 10
-9.751424584417533
 20
-9.91549742190076
 30
0.0
 10
-9.42967913859838
 20
-10.26517836329401
 30
0.0
 10
-9.180715162289514
 20
-10.52008121154496
 30
0.0
 10
-9.012035635309875
 20
-10.68702190941822
 30
0.0
 10
-8.840620594109723
 20
-10.85099261103458
 30
0.0
 10
-8.666469941940498
 20
-11.0119949500241
 30
0.0
 10
-8.489584787816206
 20
-11.17002982971894
 30
0.0
 10
-8.30996105194911
 20
-11.32509175766411
 30
0.0
 10
-8.127614235083561
 20
-11.47720159283952
 30
0.0
 10
-7.942486632264625
 20
-11.62628108672068
 30
0.0
 10
-7.754794226020835
 20
-11.77262267634607
 30
0.0
 10
-7.627528488582856
 20
-11.86754655719169
 30
0.0
 10
-7.563846251870538
 20
-11.91504531979156
 30
0.0
  0
SPLINE
  5
8E
330
1F
100
AcDbEntity
  8
0
  6
Continuous
 62
     7
370
    25
100
AcDbSpline
210
0.0
220
0.0
230
1.0
 70
     8
 71
     3
 72
    34
 73
    30
 74
     0
 42
0.00000001
 43
0.00000001
 40
0.0
 40
0.0
 40
0.0
 40
0.0
 40
0.0219808442661307
 40
0.0439425266231882
 40
0.065886737859721
 40
0.0878151728056039
 40
0.1097295299510689
 40
0.1316315110615326
 40
0.1535228207886397
 40
0.1754051662779629
 40
0.197280256773799
 40
0.2191498032215158
 40
0.2410155178679119
 40
0.2628791138600471
 40
0.2847423048430199
 40
0.3066068045571573
 40
0.3284743264350932
 40
0.3503465831992095
 40
0.3722252864599105
 40
0.3941121463152004
 40
0.4160088709520343
 40
0.520029299763004
 40
0.6239537300807567
 40
0.7279774323364915
 40
0.8318662991312925
 40
0.8739335613842675
 40
0.915969855370947
 40
0.9579877923221617
 40
1.0
 40
1.0
 40
1.0
 40
1.0
 10
-7.302379330206129
 20
-11.36162675238123
 30
0.0
 10
-7.333932848459263
 20
-11.3377732963073
 30
0.0
 10
-7.39701237803084
 20
-11.29008717852706
 30
0.0
 10
-7.490793818322931
 20
-11.21753997507488
 30
0.0
 10
-7.583905578392397
 20
-11.14428949347703
 30
0.0
 10
-7.676290961454356
 20
-11.07026034213763
 30
0.0
 10
-7.767965139342745
 20
-10.99547269998065
 30
0.0
 10
-7.858924048574812
 20
-10.91992116694668
 30
0.0
 10
-7.949168774557671
 20
-10.84360718996803
 30
0.0
 10
-8.038699024343456
 20
-10.76653038306812
 30
0.0
 10
-8.127514874071919
 20
-10.68869085110225
 30
0.0
 10
-8.215616301100887
 20
-10.61008856755566
 30
0.0
 10
-8.303003309306794
 20
-10.53072354125906
 30
0.0
 10
-8.389675895486267
 20
-10.45059577134118
 30
0.0
 10
-8.475634058528106
 20
-10.3697052607741
 30
0.0
 10
-8.560877796326952
 20
-10.28805200720938
 30
0.0
 10
-8.645407108974897
 20
-10.20563602608074
 30
0.0
 10
-8.729221989093531
 20
-10.12245726732365
 30
0.0
 10
-8.812322457340088
 20
-10.0385159254839
 30
0.0
 10
-8.894708430004888
 20
-9.953811282031902
 30
0.0
 10
-9.078466565687295
 20
-9.761517995121887
 30
0.0
 10
-9.356594062550824
 20
-9.455201051126744
 30
0.0
 10
-9.716110286352256
 20
-9.023816137789288
 30
0.0
 10
-10.05688729972311
 20
-8.577773218673617
 30
0.0
 10
-10.31456906384565
 20
-8.208864159893109
 30
0.0
 10
-10.49992338363868
 20
-7.925850002711253
 30
0.0
 10
-10.62090809843836
 20
-7.733816320062151
 30
0.0
 10
-10.73873961759549
 20
-7.539939061644415
 30
0.0
 10
-10.81441678500617
 20
-7.409020314347379
 30
0.0
 10
-10.8522527888327
 20
-7.343565403795391
 30
0.0
  0
SPLINE
  5
95
330
1F
100
AcDbEntity
  8
0
  6
Continuous
 62
     7
370
    25
100
AcDbSpline
210
0.0
220
0.0
230
1.0
 70
     8
 71
     3
 72
    11
 73
     7
 74
     0
 42
0.00000001
 43
0.00000001
 40
0.0
 40
0.0
 40
0.0
 40
0.0
 40
0.2501278323299232
 40
0.5001535596955684
 40
0.7501025013785586
 40
1.0
 40
1.0
 40
1.0
 40
1.0
 10
-4.42364143501201
 20
-6.460997186344862
 30
0.0
 10
-4.403953454064011
 20
-6.478394733996969
 30
0.0
 10
-4.364585529020896
 20
-6.51318272742865
 30
0.0
 10
-4.304873265080008
 20
-6.564588647457898
 30
0.0
 10
-4.244738067445356
 20
-6.615461724278557
 30
0.0
 10
-4.204218139475397
 20
-6.648850120687405
 30
0.0
 10
-4.183960260599942
 20
-6.665542600762826
 30
0.0
  0
SPLINE
  5
9B
330
1F
100
AcDbEntity
  8
0
  6
Continuous
 62
     7
370
    25
100
AcDbSpline
210
0.0
220
0.0
230
1.0
 70
     8
 71
     3
 72
    16
 73
    12
 74
     0
 42
0.00000001
 43
0.00000001
 40
0.0
 40
0.0
 40
0.0
 40
0.0
 40
0.0562005571521557
 40
0.1124562545603825
 40
0.2389237161117679
 40
0.3654098667131891
 40
0.491968526332403
 40
0.6186534225244587
 40
0.7455181224598826
 40
0.8726159659669654
 40
1.0
 40
1.0
 40
1.0
 40
1.0
 10
-6.175896744729322
 20
-4.179141780385137
 30
0.0
 10
-6.165728467581538
 20
-4.199408364899769
 30
0.0
 10
-6.145381936847409
 20
-4.239961418156459
 30
0.0
 10
-6.101162349089837
 20
-4.325616541248895
 30
0.0
 10
-6.04236054298817
 20
-4.435650341376489
 30
0.0
 10
-5.967384827652998
 20
-4.56916523348686
 30
0.0
 10
-5.889632912650407
 20
-4.701183832302613
 30
0.0
 10
-5.809109658648776
 20
-4.831711581390033
 30
0.0
 10
-5.725756821995423
 20
-4.960705860742555
 30
0.0
 10
-5.639803410958674
 20
-5.088331742143415
 30
0.0
 10
-5.580269254134956
 20
-5.171984535527615
 30
0.0
 10
-5.550468699642563
 20
-5.21385797021937
 30
0.0
  0
SPLINE
  5
9D
330
1F
100
AcDbEntity
  8
0
  6
Continuous
 62
     7
370
    25
100
AcDbSpline
210
0.0
220
0.0
230
1.0
 70
     8
 71
     3
 72
    19
 73
    15
 74
     0
 42
0.00000001
 43
0.00000001
 40
0.0
 40
0.0
 40
0.0
 40
0.0
 40
0.0881352346385466
 40
0.1761547939634604
 40
0.2640721347823705
 40
0.3519007608876475
 40
0.4396542170268159
 40
0.5273460827793081
 40
0.6149899663530836
 40
0.7025994983150216
 40
0.7901883252693885
 40
0.8777701034989411
 40
0.9653584925834242
 40
1.0
 40
1.0
 40
1.0
 40
1.0
 10
-5.191140494919449
 20
-4.680082132816375
 30
0.0
 10
-5.20696798639684
 20
-4.656377940282653
 30
0.0
 10
-5.23860219616088
 20
-4.6090006663811
 30
0.0
 10
-5.28490889835618
 20
-4.537242634853432
 30
0.0
 10
-5.330333848475904
 20
-4.465042221392451
 30
0.0
 10
-5.374797759131702
 20
-4.392346083195449
 30
0.0
 10
-5.41832185182275
 20
-4.319168503366375
 30
0.0
 10
-5.460900378328351
 20
-4.245505635194719
 30
0.0
 10
-5.502535114041093
 20
-4.171358629240599
 30
0.0
 10
-5.543224676634074
 20
-4.096726754803975
 30
0.0
 10
-5.582972798354109
 20
-4.021611814487053
 30
0.0
 10
-5.621765914315471
 20
-3.946007360627846
 30
0.0
 10
-5.652017496304381
 20
-3.885270492550367
 30
0.0
 10
-5.669283674465447
 20
-3.849712646530912
 30
0.0
 10
-5.674177128979804
 20
-3.839635100677885
 30
0.0
  0
SPLINE
  5
A3
330
1F
100
AcDbEntity
  8
0
  6
Continuous
 62
     7
370
    25
100
AcDbSpline
210
0.0
220
0.0
230
1.0
 70
     8
 71
     3
 72
    30
 73
    26
 74
     0
 42
0.00000001
 43
0.00000001
 40
0.0
 40
0.0
 40
0.0
 40
0.0
 40
0.0209255315416983
 40
0.0418290633860631
 40
0.0627135526822043
 40
0.0835819646744806
 40
0.1044372714649507
 40
0.125282450761286
 40
0.1461204846127459
 40
0.1669543581368728
 40
0.1877870582396086
 40
0.2086215723315722
 40
0.229460887043252
 40
0.2503079869418739
 40
0.3755520565703094
 40
0.5003796815212843
 40
0.6255628393228705
 40
0.7502596237798369
 40
0.7860491849241577
 40
0.8217734064345769
 40
0.8574489649180568
 40
0.8930926052856063
 40
0.9287211174514887
 40
0.9643513127164312
 40
1.0
 40
1.0
 40
1.0
 40
1.0
 10
-0.0963162846787602
 20
-7.809804221574954
 30
0.0
 10
-0.1266846246535343
 20
-7.805447848010935
 30
0.0
 10
-0.1873893773716703
 20
-7.796739680881245
 30
0.0
 10
-0.2781981858109201
 20
-7.782314429183931
 30
0.0
 10
-0.3687578258666627
 20
-7.766900412590079
 30
0.0
 10
-0.4590545596628856
 20
-7.75039950796588
 30
0.0
 10
-0.5490920566269912
 20
-7.732837972947548
 30
0.0
 10
-0.6388693265149757
 20
-7.71420878065685
 30
0.0
 10
-0.7283866309256891
 20
-7.694513809608162
 30
0.0
 10
-0.8176438792543996
 20
-7.673752570221288
 30
0.0
 10
-0.9066411389878855
 20
-7.651925148501472
 30
0.0
 10
-0.9953781974996647
 20
-7.629031696421866
 30
0.0
 10
-1.083855805125567
 20
-7.605071528127919
 30
0.0
 10
-1.319302247972136
 20
-7.538281799902167
 30
0.0
 10
-1.696909690846918
 20
-7.413796317373943
 30
0.0
 10
-2.205808393177525
 20
-7.203503894752826
 30
0.0
 10
-2.697230467161436
 20
-6.956854077988801
 30
0.0
 10
-3.056882465880272
 20
-6.741381516693361
 30
0.0
 10
-3.296264112552717
 20
-6.581838980632659
 30
0.0
 10
-3.425133798126608
 20
-6.491877622755473
 30
0.0
 10
-3.551848999722814
 20
-6.39927208371415
 30
0.0
 10
-3.676426419950406
 20
-6.304037761155856
 30
0.0
 10
-3.798810256675406
 20
-6.206113230820881
 30
0.0
 10
-3.919206469303138
 20
-6.105729100805379
 30
0.0
 10
-3.997600241589602
 20
-6.036621317427388
 30
0.0
 10
-4.036807296656961
 20
-6.002058461355309
 30
0.0
  0
SPLINE
  5
A9
330
1F
100
AcDbEntity
  8
0
  6
Continuous
 62
     7
370
    25
100
AcDbSpline
210
0.0
220
0.0
230
1.0
 70
     8
 71
     3
 72
    32
 73
    28
 74
     0
 42
0.00000001
 43
0.00000001
 40
0.0
 40
0.0
 40
0.0
 40
0.0
 40
0.017936698200176
 40
0.0358560438730961
 40
0.0537600419937873
 40
0.0716507026971978
 40
0.0895300406167664
 40
0.1074000742154592
 40
0.1252628251103637
 40
0.1431203173919566
 40
0.1609745769391792
 40
0.1788276307314796
 40
0.1966815061589791
 40
0.2145382303319422
 40
0.2323998293907224
 40
0.2502683278173583
 40
0.3754742685516909
 40
0.500325662122814
 40
0.625514985453949
 40
0.7502194745209737
 40
0.7860490754484556
 40
0.82180000868836
 40
0.8574900658910103
 40
0.8931371298575661
 40
0.9287591481390429
 40
0.9643741061505146
 40
1.0
 40
1.0
 40
1.0
 40
1.0
 10
6.246909813207714
 20
-5.951888676598344
 30
0.0
 10
6.223641880941369
 20
-5.971161334367158
 30
0.0
 10
6.177128526539828
 20
-6.00968800492813
 30
0.0
 10
6.106620972955717
 20
-6.066514124813849
 30
0.0
 10
6.035619986773199
 20
-6.122595479015656
 30
0.0
 10
5.96406998713018
 20
-6.17786537483374
 30
0.0
 10
5.89198585138979
 20
-6.232341657221268
 30
0.0
 10
5.819363600498734
 20
-6.286019546497762
 30
0.0
 10
5.746204302507808
 20
-6.338900319177919
 30
0.0
 10
5.672507675923845
 20
-6.39098363038374
 30
0.0
 10
5.598273795038613
 20
-6.442269570141192
 30
0.0
 10
5.523502660257468
 20
-6.492758109858931
 30
0.0
 10
5.448194212485323
 20
-6.542449261420025
 30
0.0
 10
5.372348705051859
 20
-6.591342994106429
 30
0.0
 10
5.295965201208808
 20
-6.639439407925487
 30
0.0
 10
5.065048407671027
 20
-6.781435683922565
 30
0.0
 10
4.670437845845793
 20
-7.001437268310967
 30
0.0
 10
4.096038624269055
 20
-7.266618442478519
 30
0.0
 10
3.503958111684084
 20
-7.487187758116785
 30
0.0
 10
3.040799148256084
 20
-7.619979742072373
 30
0.0
 10
2.718823392015446
 20
-7.695176018061754
 30
0.0
 10
2.541983641579201
 20
-7.732351382673759
 30
0.0
 10
2.364660742499983
 20
-7.765500629678066
 30
0.0
 10
2.186854621745937
 20
-7.794652448127771
 30
0.0
 10
2.008557807237354
 20
-7.81970789968966
 30
0.0
 10
1.829801029572392
 20
-7.841033653416798
 30
0.0
 10
1.710285210871695
 20
-7.851848712361316
 30
0.0
 10
1.650518128374204
 20
-7.857257071917226
 30
0.0
  0
SPLINE
  5
AF
330
1F
100
AcDbEntity
  8
0
  6
Continuous
 62
     7
370
    25
100
AcDbSpline
210
0.0
220
0.0
230
1.0
 70
     8
 71
     3
 72
    22
 73
    18
 74
     0
 42
0.00000001
 43
0.00000001
 40
0.0
 40
0.0
 40
0.0
 40
0.0
 40
0.0440571149829734
 40
0.088105654134601
 40
0.1321501371498
 40
0.1761950849721557
 40
0.2202450184021399
 40
0.2643044567055539
 40
0.3083779162243244
 40
0.3951397757090371
 40
0.4817432826521011
 40
0.5682233115805958
 40
0.6546148865584422
 40
0.7409531392965871
 40
0.8272732666113825
 40
0.9136104874865802
 40
1.0
 40
1.0
 40
1.0
 40
1.0
 10
8.555801532072815
 20
-2.962577637204984
 30
0.0
 10
8.542744534886616
 20
-2.989903560751384
 30
0.0
 10
8.516633082092476
 20
-3.044550088782509
 30
0.0
 10
8.476418472108772
 20
-3.126006491043108
 30
0.0
 10
8.435443871161016
 20
-3.207072589483187
 30
0.0
 10
8.393633652027708
 20
-3.287712524918657
 30
0.0
 10
8.351008108880082
 20
-3.367935883930651
 30
0.0
 10
8.30756169342339
 20
-3.447740160937304
 30
0.0
 10
8.24901157479359
 20
-3.552744051441596
 30
0.0
 10
8.17426146727301
 20
-3.682190001286006
 30
0.0
 10
8.081851670561543
 20
-3.835059191409701
 30
0.0
 10
7.986524690978358
 20
-3.985826087881317
 30
0.0
 10
7.888275762755527
 20
-4.134486218674314
 30
0.0
 10
7.787123200829011
 20
-4.281054274959248
 30
0.0
 10
7.682998777702298
 20
-4.425475511695718
 30
0.0
 10
7.576157397444002
 20
-4.567953789661827
 30
0.0
 10
7.502516289396628
 20
-4.661095397538495
 30
0.0
 10
7.465684588244454
 20
-4.707680300415561
 30
0.0
  0
SPLINE
  5
B6
330
1F
100
AcDbEntity
  8
0
  6
Continuous
 62
     7
370
    25
100
AcDbSpline
210
0.0
220
0.0
230
1.0
 70
     8
 71
     3
 72
    15
 73
    11
 74
     0
 42
0.00000001
 43
0.00000001
 40
0.0
 40
0.0
 40
0.0
 40
0.0
 40
0.1250382360862413
 40
0.2500477978559559
 40
0.3750375567879642
 40
0.5000163885781385
 40
0.6249931712504417
 40
0.7499767832655079
 40
0.874976101628749
 40
1.0
 40
1.0
 40
1.0
 40
1.0
 10
14.46279139146059
 20
-5.007957943213287
 30
0.0
 10
14.44612487409396
 20
-5.047307727912671
 30
0.0
 10
14.41279566139954
 20
-5.125998273446283
 30
0.0
 10
14.36154829344029
 20
-5.243484217393848
 30
0.0
 10
14.30939262811337
 20
-5.360546327840594
 30
0.0
 10
14.25623647040993
 20
-5.477145679984333
 30
0.0
 10
14.20211036708901
 20
-5.59329563734656
 30
0.0
 10
14.14698431181087
 20
-5.708981651899722
 30
0.0
 10
14.09094780370841
 20
-5.824248549336398
 30
0.0
 10
14.05276910831337
 20
-5.900694542306047
 30
0.0
 10
14.03367788392485
 20
-5.93892129652814
 30
0.0
  0
SPLINE
  5
B8
330
1F
100
AcDbEntity
  8
0
  6
Continuous
 62
     7
370
    25
100
AcDbSpline
210
0.0
220
0.0
230
1.0
 70
     8
 71
     3
 72
    16
 73
    12
 74
     0
 42
0.00000001
 43
0.00000001
 40
0.0
 40
0.0
 40
0.0
 40
0.0
 40
0.1111437751107747
 40
0.2222640301291313
 40
0.3333673426194751
 40
0.4444602931555987
 40
0.5555494641527216
 40
0.6666414386979032
 40
0.7777427993798389
 40
0.8888601271191294
 40
1.0
 40
1.0
 40
1.0
 40
1.0
 10
14.57366529768064
 20
-6.200714832495738
 30
0.0
 10
14.59179580737327
 20
-6.164374664074942
 30
0.0
 10
14.62805299000507
 20
-6.091702017489677
 30
0.0
 10
14.68136907215992
 20
-5.982176190536592
 30
0.0
 10
14.73389293272
 20
-5.87228983027198
 30
0.0
 10
14.78554879180937
 20
-5.762004886301872
 30
0.0
 10
14.83635554572732
 20
-5.651330967022475
 30
0.0
 10
14.88631337119085
 20
-5.540267688833683
 30
0.0
 10
14.93540266199526
 20
-5.428806984992998
 30
0.0
 10
14.98370167721028
 20
-5.316981518979882
 30
0.0
 10
15.01517468391257
 20
-5.242115362581459
 30
0.0
 10
15.03091278353009
 20
-5.204678487276709
 30
0.0
  0
SPLINE
  5
BE
330
1F
100
AcDbEntity
  8
0
  6
Continuous
 62
     7
370
    25
100
AcDbSpline
210
0.0
220
0.0
230
1.0
 70
     8
 71
     3
 72
    24
 73
    20
 74
     0
 42
0.00000001
 43
0.00000001
 40
0.0
 40
0.0
 40
0.0
 40
0.0
 40
0.0044627151560539
 40
0.08739290470839
 40
0.170429696725686
 40
0.2533547432955184
 40
0.3363773749598132
 40
0.419307034964945
 40
0.5023081482317686
 40
0.5852312753888504
 40
0.6682199380517081
 40
0.7511190910206796
 40
0.8341124000814325
 40
0.8617421631717436
 40
0.8893715645016421
 40
0.9170063300232761
 40
0.9446521823557333
 40
0.9723148372374605
 40
1.0
 40
1.0
 40
1.0
 40
1.0
 10
7.776020994132196
 20
-13.07139692279136
 30
0.0
 10
7.786805777815083
 20
-13.0658896886222
 30
0.0
 10
7.998003118389375
 20
-12.9580420725137
 30
0.0
 10
8.404842436169222
 20
-12.73777006742662
 30
0.0
 10
8.984180178376361
 20
-12.39024983261367
 30
0.0
 10
9.54779362309672
 20
-12.01728402378748
 30
0.0
 10
10.09414637450769
 20
-11.61996685444232
 30
0.0
 10
10.62269004461
 20
-11.19891774809388
 30
0.0
 10
11.13202534131519
 20
-10.75523734084912
 30
0.0
 10
11.6216201739899
 20
-10.28963610745367
 30
0.0
 10
12.09023607222451
 20
-9.80330764337936
 30
0.0
 10
12.53740982076052
 20
-9.296952963962664
 30
0.0
 10
12.86771515944644
 20
-8.88848584358712
 30
0.0
 10
13.0951166098864
 20
-8.590105717630674
 30
0.0
 10
13.22887091747594
 20
-8.409251648698566
 30
0.0
 10
13.36004693535837
 20
-8.226465289837979
 30
0.0
 10
13.48857922903115
 20
-8.041703028477599
 30
0.0
 10
13.61471424417374
 20
-7.855124008180893
 30
0.0
 10
13.69655290475711
 20
-7.72919104158177
 30
0.0
 10
13.73748887540515
 20
-7.666198952175926
 30
0.0
  0
SPLINE
  5
C5
330
1F
100
AcDbEntity
  8
0
  6
Continuous
 62
     7
370
    25
100
AcDbSpline
210
0.0
220
0.0
230
1.0
 70
     8
 71
     3
 72
    34
 73
    30
 74
     0
 42
0.00000001
 43
0.00000001
 40
0.0
 40
0.0
 40
0.0
 40
0.0
 40
0.0091782451277891
 40
0.018355040916267
 40
0.0275307464253778
 40
0.0367057208430687
 40
0.0458803234431543
 40
0.0550549135431298
 40
0.0642298504619594
 40
0.0734054934778621
 40
0.1396062907200221
 40
0.2057970908913537
 40
0.2720270478045722
 40
0.338185049195437
 40
0.404393788118062
 40
0.4705637841680549
 40
0.5367655356760939
 40
0.6029290006009123
 40
0.669135797564138
 40
0.7352859324168965
 40
0.8014674056929428
 40
0.8676411141465515
 40
0.8865794415627949
 40
0.9055022596791897
 40
0.9244128856723435
 40
0.9433146431378582
 40
0.9622108603509083
 40
0.9811048685144995
 40
1.0
 40
1.0
 40
1.0
 40
1.0
 10
20.36904919976958
 20
-7.053088785355557
 30
0.0
 10
20.3523699075954
 20
-7.094698982725096
 30
0.0
 10
20.31901395707884
 20
-7.177912806786018
 30
0.0
 10
20.26799488244141
 20
-7.302325507298056
 30
0.0
 10
20.2162605655984
 20
-7.426424481203754
 30
0.0
 10
20.16373993830415
 20
-7.550181380285132
 30
0.0
 10
20.11045202582476
 20
-7.673603823706726
 30
0.0
 10
20.05639178589914
 20
-7.796689675270593
 30
0.0
 10
20.00156036558741
 20
-7.919439857936185
 30
0.0
 10
19.83077572754594
 20
-8.295437079234674
 30
0.0
 10
19.52862119750079
 20
-8.917671780718607
 30
0.0
 10
19.06562517723252
 20
-9.770527162795705
 30
0.0
 10
18.56465068905883
 20
-10.60142180642432
 30
0.0
 10
18.02632447866357
 20
-11.40871988704818
 30
0.0
 10
17.45202098309588
 20
-12.19047231215374
 30
0.0
 10
16.84251082161375
 20
-12.94537218982541
 30
0.0
 10
16.19932566134744
 20
-13.67150353841402
 30
0.0
 10
15.52333808521734
 20
-14.3674527314808
 30
0.0
 10
14.81635679448968
 20
-15.03152513557715
 30
0.0
 10
14.07948952790898
 20
-15.66241553529924
 30
0.0
 10
13.31448358461354
 20
-16.25859007022445
 30
0.0
 10
12.71097611147189
 20
-16.68551610990195
 30
0.0
 10
12.28761815949493
 20
-16.96653295571909
 30
0.0
 10
12.05458023084706
 20
-17.11681801574255
 30
0.0
 10
11.81972137624839
 20
-17.26390200262564
 30
0.0
 10
11.58305192622193
 20
-17.40780708361033
 30
0.0
 10
11.34452924525244
 20
-17.54845423720801
 30
0.0
 10
11.104313632717
 20
-17.68613722585489
 30
0.0
 10
10.94265661391512
 20
-17.77521113362792
 30
0.0
 10
10.86182570180175
 20
-17.81974941142221
 30
0.0
  0
SPLINE
  5
C7
330
1F
100
AcDbEntity
  8
0
  6
Continuous
 62
     7
370
    25
100
AcDbSpline
210
0.0
220
0.0
230
1.0
 70
     8
 71
     3
 72
    22
 73
    18
 74
     0
 42
0.00000001
 43
0.00000001
 40
0.0
 40
0.0
 40
0.0
 40
0.0
 40
0.0033202733143754
 40
0.0933752802762613
 40
0.1835139764900066
 40
0.2735740090709061
 40
0.3636981952809475
 40
0.4537596324258473
 40
0.5438788281278211
 40
0.6339095638514438
 40
0.724049545356774
 40
0.8141183930730254
 40
0.9042050567987353
 40
0.9281532201094784
 40
0.9520994449033655
 40
0.9760472116132882
 40
1.0
 40
1.0
 40
1.0
 40
1.0
 10
14.44443956258281
 20
-16.12941784005563
 30
0.0
 10
14.45396891841345
 20
-16.12163253434151
 30
0.0
 10
14.721960793566
 20
-15.90268817818138
 30
0.0
 10
15.23819511345889
 20
-15.45944887916946
 30
0.0
 10
15.96754784666633
 20
-14.77250168078451
 30
0.0
 10
16.66466345315633
 20
-14.05246885788397
 30
0.0
 10
17.32763404658414
 20
-13.30127226006878
 30
0.0
 10
17.95561001612857
 20
-12.52030541234789
 30
0.0
 10
18.54693124562866
 20
-11.71166050919027
 30
0.0
 10
19.10086658228114
 20
-10.87661424722669
 30
0.0
 10
19.61595052635877
 20
-10.01727407272005
 30
0.0
 10
20.09159402419002
 20
-9.135275989814069
 30
0.0
 10
20.4200908778362
 20
-8.45357109560852
 30
0.0
 10
20.62880244724782
 20
-7.986721692429673
 30
0.0
 10
20.73448022833069
 20
-7.742330826178753
 30
0.0
 10
20.8374235380408
 20
-7.496753046276782
 30
0.0
 10
20.90354513069289
 20
-7.331999662596917
 30
0.0
 10
20.93660939296276
 20
-7.249614334758495
 30
0.0
  0
SPLINE
  5
CE
330
1F
100
AcDbEntity
  8
0
  6
Continuous
 62
     7
370
    25
100
AcDbSpline
210
0.0
220
0.0
230
1.0
 70
     8
 71
     3
 72
    31
 73
    27
 74
     0
 42
0.00000001
 43
0.00000001
 40
0.0
 40
0.0
 40
0.0
 40
0.0
 40
0.0107659617912848
 40
0.0215325639815779
 40
0.0323001104520955
 40
0.0430689050041152
 40
0.0538392513332988
 40
0.1169669445589681
 40
0.1800290758444453
 40
0.2430870711423149
 40
0.3377218713783459
 40
0.4323185247810268
 40
0.526941107212653
 40
0.6215429437507416
 40
0.6688854909242584
 40
0.7161870829324897
 40
0.7634741573033895
 40
0.8107731759085814
 40
0.8344565401379792
 40
0.8581246824027821
 40
0.881780921500491
 40
0.905428581240206
 40
0.92907098904946
 40
0.9527114745734327
 40
0.9763533682694886
 40
1.0
 40
1.0
 40
1.0
 40
1.0
 10
26.27512576838426
 20
-9.098155709829738
 30
0.0
 10
26.25731182163487
 20
-9.143995035191141
 30
0.0
 10
26.22168286849704
 20
-9.235676412605628
 30
0.0
 10
26.16731180080381
 20
-9.372841361436313
 30
0.0
 10
26.1122604221734
 20
-9.509748013503232
 30
0.0
 10
26.05646218287707
 20
-9.646370906702021
 30
0.0
 10
25.90834111248918
 20
-10.00364157728085
 30
0.0
 10
25.65821176878393
 20
-10.57722569006988
 30
0.0
 10
25.28804492651559
 20
-11.35860240320421
 30
0.0
 10
24.8280007127483
 20
-12.25612767568935
 30
0.0
 10
24.26250523159951
 20
-13.26082075723297
 30
0.0
 10
23.57386627778603
 20
-14.36004434170219
 30
0.0
 10
22.83448086109328
 20
-15.42560888934975
 30
0.0
 10
22.17695324028949
 20
-16.28373552628862
 30
0.0
 10
21.62723054151811
 20
-16.95099638740555
 30
0.0
 10
21.20322770653267
 20
-17.44155936689309
 30
0.0
 10
20.7678762194445
 20
-17.92180354687411
 30
0.0
 10
20.39561741361826
 20
-18.31341394683712
 30
0.0
 10
20.09221928146679
 20
-18.62146464659738
 30
0.0
 10
19.86188706465698
 20
-18.84985899313882
 30
0.0
 10
19.62898310886175
 20
-19.07539531980387
 30
0.0
 10
19.39350287987858
 20
-19.29806914674945
 30
0.0
 10
19.15546269770856
 20
-19.51789942341825
 30
0.0
 10
18.91480190411281
 20
-19.73481475852029
 30
0.0
 10
18.67174690167345
 20
-19.94908169512043
 30
0.0
 10
18.50757487156523
 20
-20.08947667526253
 30
0.0
 10
18.42548063197115
 20
-20.15968119871268
 30
0.0
  0
SPLINE
  5
D0
330
1F
100
AcDbEntity
  8
0
  6
Continuous
 62
     7
370
    25
100
AcDbSpline
210
0.0
220
0.0
230
1.0
 70
     8
 71
     3
 72
    36
 73
    32
 74
     0
 42
0.00000001
 43
0.00000001
 40
0.0
 40
0.0
 40
0.0
 40
0.0
 40
0.0118421247172748
 40
0.0236826738821564
 40
0.0355220663368931
 40
0.0473607210465044
 40
0.0591990570543364
 40
0.0710374934375797
 40
0.0828764492627637
 40
0.0947163435412633
 40
0.1065575951848291
 40
0.1184006229611739
 40
0.1302458454496333
 40
0.142093680996929
 40
0.1539445476730515
 40
0.1657988632272925
 40
0.1776570450444435
 40
0.1895195101011904
 40
0.2368853172376508
 40
0.2842408406983699
 40
0.331612718141592
 40
0.3790275596625663
 40
0.4737577167016722
 40
0.5685157908844866
 40
0.6632350345091195
 40
0.7579975193337455
 40
0.8526928691655985
 40
0.9474723410741495
 40
0.9649844626167708
 40
0.982493245558062
 40
1.0
 40
1.0
 40
1.0
 40
1.0
 10
18.81750350021175
 20
-20.61392805814176
 30
0.0
 10
18.85961617433885
 20
-20.57802644785489
 30
0.0
 10
18.94383591965218
 20
-20.50622800386217
 30
0.0
 10
19.06934382106605
 20
-20.39758620423811
 30
0.0
 10
19.19423718956535
 20
-20.28826422520086
 30
0.0
 10
19.31845786954345
 20
-20.17819361332861
 30
0.0
 10
19.44202144112865
 20
-20.06739270879804
 30
0.0
 10
19.56492372936156
 20
-19.95585659827194
 30
0.0
 10
19.6871658523136
 20
-19.84358659877462
 30
0.0
 10
19.80874750981486
 20
-19.73058235797389
 30
0.0
 10
19.9296687817702
 20
-19.61684397075837
 30
0.0
 10
20.04992964613954
 20
-19.50237141260961
 30
0.0
 10
20.16953010862159
 20
-19.38716468943885
 30
0.0
 10
20.28847016598515
 20
-19.27122380492152
 30
0.0
 10
20.40674982304619
 20
-19.154548741289
 30
0.0
 10
20.52436906142513
 20
-19.03713956887428
 30
0.0
 10
20.64132794758549
 20
-18.91899602695632
 30
0.0
 10
20.87363311707681
 20
-18.68154001610653
 30
0.0
 10
21.21666736462735
 20
-18.3203538129118
 30
0.0
 10
21.66242714759217
 20
-17.82813029802887
 30
0.0
 10
22.09654167119326
 20
-17.3252946844572
 30
0.0
 10
22.65928643721563
 20
-16.64136293313258
 30
0.0
 10
23.33226403432464
 20
-15.76177304776697
 30
0.0
 10
24.08877305735782
 20
-14.66958981029413
 30
0.0
 10
24.7931357538911
 20
-13.5428812099162
 30
0.0
 10
25.44350981394665
 20
-12.38450242812349
 30
0.0
 10
26.0389169188073
 20
-11.19665121050922
 30
0.0
 10
26.43149089780641
 20
-10.3121902975411
 30
0.0
 10
26.66203549557731
 20
-9.751148144673632
 30
0.0
 10
26.75350128248154
 20
-9.523355869248942
 30
0.0
 10
26.81280426222414
 20
-9.370850107926486
 30
0.0
 10
26.84245403434291
 20
-9.294601644701936
 30
0.0
  0
SPLINE
  5
D3
330
1F
100
AcDbEntity
  8
0
  6
Continuous
 62
     7
370
    25
100
AcDbSpline
210
0.0
220
0.0
230
1.0
 70
     8
 71
     3
 72
    35
 73
    31
 74
     0
 42
0.00000001
 43
0.00000001
 40
0.0
 40
0.0
 40
0.0
 40
0.0
 40
0.0125231261460246
 40
0.0250401401272555
 40
0.0375519352497795
 40
0.050059405937904
 40
0.0625634475439279
 40
0.0750649561569175
 40
0.0875648284106941
 40
0.1000639612912347
 40
0.1125632519436952
 40
0.1250635974792619
 40
0.1876203698063826
 40
0.2501010367982187
 40
0.3126350671988937
 40
0.3751227497449785
 40
0.4376494043466023
 40
0.5001303353768469
 40
0.5626646388428053
 40
0.6251208921446842
 40
0.6876393356309178
 40
0.7500931922558853
 40
0.8125911289585771
 40
0.8750501909367314
 40
0.8959018015582956
 40
0.9167367470662673
 40
0.9375595285197232
 40
0.9583746548688005
 40
0.9791866400391088
 40
1.0
 40
1.0
 40
1.0
 40
1.0
 10
3.448455440632869
 20
-13.89473434924834
 30
0.0
 10
3.408828288435656
 20
-13.90159646223846
 30
0.0
 10
3.329593324873682
 20
-13.91531733902576
 30
0.0
 10
3.210552182157854
 20
-13.93462130146838
 30
0.0
 10
3.091413976041331
 20
-13.95298278189345
 30
0.0
 10
2.972162697130918
 20
-13.970310637712
 30
0.0
 10
2.852802632664797
 20
-13.98662927573479
 30
0.0
 10
2.733332644958903
 20
-14.00193215785573
 30
0.0
 10
2.613753010352544
 20
-14.01622103839143
 30
0.0
 10
2.494063771711946
 20
-14.02949543378224
 30
0.0
 10
2.374264492347341
 20
-14.04175552270356
 30
0.0
 10
2.094314146671015
 20
-14.06801070127685
 30
0.0
 10
1.653497808178688
 20
-14.098074529449
 30
0.0
 10
1.051152719241791
 20
-14.11342713718606
 30
0.0
 10
0.4489122041912302
 20
-14.10309198209086
 30
0.0
 10
-0.1524786335445408
 20
-14.06696548681892
 30
0.0
 10
-0.7516015448916051
 20
-14.00511643313819
 30
0.0
 10
-1.347648904548848
 20
-13.91747021936518
 30
0.0
 10
-1.939145720092479
 20
-13.80426518120718
 30
0.0
 10
-2.525292864068228
 20
-13.66547833637096
 30
0.0
 10
-3.104618522279741
 20
-13.50146076797508
 30
0.0
 10
-3.676370581828407
 20
-13.31229357021654
 30
0.0
 10
-4.239134870448188
 20
-13.09841528110856
 30
0.0
 10
-4.669267409250876
 20
-12.91294065431247
 30
0.0
 10
-4.972387359025318
 20
-12.77158340643499
 30
0.0
 10
-5.15305830373555
 20
-12.68407075160907
 30
0.0
 10
-5.332324635632713
 20
-12.59397643666336
 30
0.0
 10
-5.51015168504264
 20
-12.50123726303267
 30
0.0
 10
-5.686672101442689
 20
-12.40608703544319
 30
0.0
 10
-5.803138294933713
 20
-12.3404717830575
 30
0.0
 10
-5.861373314986115
 20
-12.30766307330329
 30
0.0
  0
SPLINE
  5
DA
330
1F
100
AcDbEntity
  8
0
  6
Continuous
 62
     7
370
    25
100
AcDbSpline
210
0.0
220
0.0
230
1.0
 70
     8
 71
     3
 72
    12
 73
     8
 74
     0
 42
0.00000001
 43
0.00000001
 40
0.0
 40
0.0
 40
0.0
 40
0.0
 40
0.2000877503587427
 40
0.4001071544994719
 40
0.60008267630563
 40
0.8000387957671787
 40
0.9999999999999999
 40
0.9999999999999999
 40
0.9999999999999999
 40
0.9999999999999999
 10
1.716185437137349
 20
-8.453840279867515
 30
0.0
 10
1.747838220717157
 20
-8.451022770204201
 30
0.0
 10
1.81113297588032
 20
-8.445388713285967
 30
0.0
 10
1.905937695682269
 20
-8.435613866788279
 30
0.0
 10
2.000611942118749
 20
-8.424848423036988
 30
0.0
 10
2.095160991627831
 20
-8.413091950177357
 30
0.0
 10
2.158074764520652
 20
-8.404374422332761
 30
0.0
 10
2.189532050927412
 20
-8.400015602990713
 30
0.0
  0
SPLINE
  5
E0
330
1F
100
AcDbEntity
  8
0
  6
Continuous
 62
     7
370
    25
100
AcDbSpline
210
0.0
220
0.0
230
1.0
 70
     8
 71
     3
 72
    20
 73
    16
 74
     0
 42
0.00000001
 43
0.00000001
 40
0.0
 40
0.0
 40
0.0
 40
0.0
 40
0.009037029058054
 40
0.1190007123134689
 40
0.2290888548890423
 40
0.3395948403504349
 40
0.504417837156272
 40
0.6698705704847044
 40
0.7170017185064701
 40
0.7641072051883627
 40
0.8112084789246929
 40
0.858326993862983
 40
0.905484180619122
 40
0.9527014171527781
 40
1.0
 40
1.0
 40
1.0
 40
1.0
 10
-3.464667726232634
 20
-7.189421252615275
 30
0.0
 10
-3.4551776785
 20
-7.195524853140004
 30
0.0
 10
-3.330211560451973
 20
-7.275897817025988
 30
0.0
 10
-3.085092019430311
 20
-7.423612738510466
 30
0.0
 10
-2.720996413714742
 20
-7.618349402059485
 30
0.0
 10
-2.285326762272756
 20
-7.823189098944676
 30
0.0
 10
-1.772909354144812
 20
-8.02546097349535
 30
0.0
 10
-1.322200116405932
 20
-8.164687921435414
 30
0.0
 10
-1.008149350267289
 20
-8.245394074698925
 30
0.0
 10
-0.8363194297007687
 20
-8.285667538357048
 30
0.0
 10
-0.6636858183908121
 20
-8.32225458274314
 30
0.0
 10
-0.4902488792884116
 20
-8.355180543070562
 30
0.0
 10
-0.3159991410398039
 20
-8.384354895757957
 30
0.0
 10
-0.1409748413775287
 20
-8.410114875639616
 30
0.0
 10
-0.0237985302788353
 20
-8.424156928830138
 30
0.0
 10
0.0348400499560697
 20
-8.431183998166546
 30
0.0
  0
SPLINE
  5
E7
330
1F
100
AcDbEntity
  8
0
  6
Continuous
 62
     7
370
    25
100
AcDbSpline
210
0.0
220
0.0
230
1.0
 70
     8
 71
     3
 72
    36
 73
    32
 74
     0
 42
0.00000001
 43
0.00000001
 40
0.0
 40
0.0
 40
0.0
 40
0.0
 40
0.011383792894899
 40
0.0227625170822524
 40
0.0341368586796279
 40
0.0455075045979435
 40
0.0568751424180736
 40
0.0682404602668445
 40
0.0796041466925402
 40
0.0909668905400226
 40
0.1023293808255836
 40
0.1136923066116406
 40
0.1250563568813912
 40
0.1876068963520988
 40
0.2500900050562443
 40
0.3126233045622608
 40
0.3751110217743742
 40
0.4376357872998014
 40
0.5001174981096688
 40
0.5626439408138535
 40
0.6251077446255731
 40
0.6876324490959334
 40
0.7500838845305329
 40
0.8125924336798903
 40
0.8750459711208671
 40
0.8958913516339396
 40
0.9167227390317286
 40
0.9375447116885455
 40
0.9583618541905355
 40
0.9791787543151358
 40
1.0
 40
1.0
 40
1.0
 40
1.0
 10
13.17527589392593
 20
-7.430266585980931
 30
0.0
 10
13.15384062556316
 20
-7.46288991644821
 30
0.0
 10
13.11097963302977
 20
-7.528122051633505
 30
0.0
 10
13.04574105410456
 20
-7.625314239670973
 30
0.0
 10
12.97982910307276
 20
-7.721995425051924
 30
0.0
 10
12.91317466395425
 20
-7.818120415043385
 30
0.0
 10
12.84579624720487
 20
-7.91370131044363
 30
0.0
 10
12.77768889501094
 20
-8.008734870705949
 30
0.0
 10
12.70885394001777
 20
-8.10322195575486
 30
0.0
 10
12.63929101180922
 20
-8.197162358740437
 30
0.0
 10
12.56900026402729
 20
-8.290556040928893
 30
0.0
 10
12.49798145692585
 20
-8.383403357767198
 30
0.0
 10
12.31852074011752
 20
-8.614275219311205
 30
0.0
 10
12.02213102725939
 20
-8.97629568904843
 30
0.0
 10
11.59353852571034
 20
-9.456106499739594
 30
0.0
 10
11.14483592078227
 20
-9.916881469948894
 30
0.0
 10
10.67652507613517
 20
-10.35791841837533
 30
0.0
 10
10.18970292666482
 20
-10.77816660737664
 30
0.0
 10
9.684947496799118
 20
-11.17691162533156
 30
0.0
 10
9.16349342620423
 20
-11.55320220198631
 30
0.0
 10
8.625940548882948
 20
-11.90638291483591
 30
0.0
 10
8.073669405606713
 20
-12.23557376223628
 30
0.0
 10
7.507307388077887
 20
-12.54021368324268
 30
0.0
 10
6.928307826577215
 20
-12.8195128827915
 30
0.0
 10
6.468646025780908
 20
-13.01666449878116
 30
0.0
 10
6.136474664568552
 20
-13.14766965127471
 30
0.0
 10
5.935958248616686
 20
-13.22333257691095
 30
0.0
 10
5.734438261229414
 20
-13.29599538110925
 30
0.0
 10
5.531891063315852
 20
-13.36558419920009
 30
0.0
 10
5.328400810718506
 20
-13.43237567830034
 30
0.0
 10
5.191927616510275
 20
-13.47434230436369
 30
0.0
 10
5.123683897901608
 20
-13.49532780731641
 30
0.0
  0
SPLINE
  5
EE
330
1F
100
AcDbEntity
  8
0
  6
Continuous
 62
     7
370
    25
100
AcDbSpline
210
0.0
220
0.0
230
1.0
 70
     8
 71
     3
 72
    14
 73
    10
 74
     0
 42
0.00000001
 43
0.00000001
 40
0.0
 40
0.0
 40
0.0
 40
0.0
 40
0.1429749014958992
 40
0.2858882813762609
 40
0.4287534896193066
 40
0.5715838897106796
 40
0.7143928549076441
 40
0.8571937644895755
 40
1.0
 40
1.0
 40
1.0
 40
1.0
 10
7.943044333606736
 20
-5.071432990537139
 30
0.0
 10
7.961941645939598
 20
-5.047605612738337
 30
0.0
 10
7.999728139155875
 20
-4.999961109980647
 30
0.0
 10
8.055519247881527
 20
-4.927817875014531
 30
0.0
 10
8.11064030736086
 20
-4.85520138091982
 30
0.0
 10
8.165033444999189
 20
-4.782064970320457
 30
0.0
 10
8.21869773703018
 20
-4.70840977151575
 30
0.0
 10
8.27169470715642
 20
-4.634277912789406
 30
0.0
 10
8.306415954401572
 20
-4.584428300641531
 30
0.0
 10
8.323776901760585
 20
-4.55950302977623
 30
0.0
  0
SPLINE
  5
F4
330
1F
100
AcDbEntity
  8
0
  6
Continuous
 62
     7
370
    25
100
AcDbSpline
210
0.0
220
0.0
230
1.0
 70
     8
 71
     3
 72
    23
 73
    19
 74
     0
 42
0.00000001
 43
0.00000001
 40
0.0
 40
0.0
 40
0.0
 40
0.0
 40
0.0080739795592045
 40
0.1181117932505998
 40
0.2282824285825299
 40
0.3388963284441023
 40
0.4214212065786029
 40
0.5039516367348806
 40
0.5866141859799033
 40
0.6695348163973758
 40
0.7108155349077574
 40
0.7520735977313027
 40
0.7933242578283355
 40
0.8345827763693745
 40
0.8758644058095102
 40
0.9171843730110343
 40
0.9585578625074316
 40
1.0
 40
1.0
 40
1.0
 40
1.0
 10
3.063376108021443
 20
-8.229784801792658
 30
0.0
 10
3.074427639363119
 20
-8.227023648735434
 30
0.0
 10
3.236097132747273
 20
-8.186631579788948
 30
0.0
 10
3.546291614352615
 20
-8.09928473461544
 30
0.0
 10
3.988464728030194
 20
-7.94920778440604
 30
0.0
 10
4.386011937485053
 20
-7.790276020193024
 30
0.0
 10
4.740272361050339
 20
-7.629532938325806
 30
0.0
 10
5.052709481746309
 20
-7.472705915857773
 30
0.0
 10
5.359255227856041
 20
-7.303507384699852
 30
0.0
 10
5.609153852726145
 20
-7.152584940731911
 30
0.0
 10
5.805421714062904
 20
-7.026177687242663
 30
0.0
 10
5.950418080951811
 20
-6.928799163075462
 30
0.0
 10
6.093488980230796
 20
-6.828668726658882
 30
0.0
 10
6.234631412302506
 20
-6.725781733544789
 30
0.0
 10
6.373859306836867
 20
-6.62015465108323
 30
0.0
 10
6.511119551501024
 20
-6.511726455946916
 30
0.0
 10
6.646610689589212
 20
-6.400725452839808
 30
0.0
 10
6.735179253221565
 20
-6.324512828207679
 30
0.0
 10
6.779500243414156
 20
-6.286374928592488
 30
0.0
  0
SPLINE
  5
FB
330
1F
100
AcDbEntity
  8
0
  6
Continuous
 62
     7
370
    25
100
AcDbSpline
210
0.0
220
0.0
230
1.0
 70
     8
 71
     3
 72
    39
 73
    35
 74
     0
 42
0.00000001
 43
0.00000001
 40
0.0
 40
0.0
 40
0.0
 40
0.0
 40
0.0096341481905341
 40
0.0192638869931972
 40
0.0288896729601753
 40
0.0385119632063104
 40
0.0481312153448021
 40
0.0577478874225594
 40
0.067362437855241
 40
0.0769753253620344
 40
0.0865870089002173
 40
0.096197947599549
 40
0.1058086006965387
 40
0.1154194274686358
 40
0.1250308871683936
 40
0.1875471678663624
 40
0.2500476577672034
 40
0.312588605433584
 40
0.3750610931120343
 40
0.4375819719158857
 40
0.500065773526394
 40
0.5625840826905273
 40
0.6250561937156954
 40
0.6875701683013324
 40
0.7500372179068079
 40
0.8125358784601115
 40
0.8750159786601965
 40
0.8928956749151983
 40
0.9107619077445754
 40
0.9286177835555556
 40
0.9464664141630287
 40
0.9643109151722516
 40
0.9821544043516566
 40
1.0
 40
1.0
 40
1.0
 40
1.0
 10
9.324611724555984
 20
-18.57863510200902
 30
0.0
 10
9.280937894188705
 20
-18.59789664905578
 30
0.0
 10
9.193610222233035
 20
-18.63641092746263
 30
0.0
 10
9.062146636812747
 20
-18.69302570525047
 30
0.0
 10
8.930378558864117
 20
-18.7487753722831
 30
0.0
 10
8.798269697014558
 20
-18.80357807976963
 30
0.0
 10
8.665829770843562
 20
-18.85745574537408
 30
0.0
 10
8.533056178269396
 20
-18.91040249879014
 30
0.0
 10
8.399949617889842
 20
-18.96241991142842
 30
0.0
 10
8.266509901474265
 20
-19.01350756273545
 30
0.0
 10
8.13273708885201
 20
-19.06366556148453
 30
0.0
 10
7.998631134217055
 20
-19.11289389056471
 30
0.0
 10
7.864192166367245
 20
-19.16119250737472
 30
0.0
 10
7.729419721373429
 20
-19.20856159727675
 30
0.0
 10
7.346437761358403
 20
-19.34020256624348
 30
0.0
 10
6.709988881791827
 20
-19.54068281211588
 30
0.0
 10
5.811692659973073
 20
-19.77972612377488
 30
0.0
 10
4.903742916798672
 20
-19.97806279225563
 30
0.0
 10
3.987640074231748
 20
-20.13505992874415
 30
0.0
 10
3.065648136016587
 20
-20.25039004893258
 30
0.0
 10
2.139142315839226
 20
-20.3237346618849
 30
0.0
 10
1.210498844067764
 20
-20.35489400535295
 30
0.0
 10
0.2812515831582297
 20
-20.34353160596679
 30
0.0
 10
-0.6462543409255326
 20
-20.28977657914789
 30
0.0
 10
-1.570457796182237
 20
-20.19355536702474
 30
0.0
 10
-2.489097961055789
 20
-20.05507297557277
 30
0.0
 10
-3.183649616196051
 20
-19.91733426250376
 30
0.0
 10
-3.658013889801492
 20
-19.80858737939779
 30
0.0
 10
-3.916074389317092
 20
-19.74583964602002
 30
0.0
 10
-4.173132673737634
 20
-19.67972596858956
 30
0.0
 10
-4.42919730888439
 20
-19.61026819230045
 30
0.0
 10
-4.684241671505737
 20
-19.5373849269244
 30
0.0
 10
-4.938363533478149
 20
-19.46137987368373
 30
0.0
 10
-5.106900250776756
 20
-19.40787925474094
 30
0.0
 10
-5.191173583178702
 20
-19.38112736639196
 30
0.0
  0
SPLINE
  5
102
330
1F
100
AcDbEntity
  8
0
  6
Continuous
 62
     7
370
    25
100
AcDbSpline
210
0.0
220
0.0
230
1.0
 70
     8
 71
     3
 72
    20
 73
    16
 74
     0
 42
0.00000001
 43
0.00000001
 40
0.0
 40
0.0
 40
0.0
 40
0.0
 40
0.0692715724850637
 40
0.1385318006664409
 40
0.2077853098549945
 40
0.2770367267078735
 40
0.3462906783015761
 40
0.4155517912045926
 40
0.484824690550549
 40
0.5541139991128053
 40
0.6234243363813944
 40
0.6927603176432543
 40
0.7621265530666509
 40
0.8810705552762456
 40
1.0
 40
1.0
 40
1.0
 40
1.0
 10
5.306101249535764
 20
-14.06699175021174
 30
0.0
 10
5.345255324745384
 20
-14.05500856052779
 30
0.0
 10
5.423557063072277
 20
-14.03104414359463
 30
0.0
 10
5.540625337452374
 20
-13.99388452884197
 30
0.0
 10
5.657396018927016
 20
-13.95584180252482
 30
0.0
 10
5.773842593000294
 20
-13.91682859898798
 30
0.0
 10
5.889972157078978
 20
-13.87686831609607
 30
0.0
 10
6.005782823715709
 20
-13.83595472141879
 30
0.0
 10
6.121275036171174
 20
-13.79408935067217
 30
0.0
 10
6.236448899944981
 20
-13.75127229780097
 30
0.0
 10
6.351303540342055
 20
-13.70750165425895
 30
0.0
 10
6.465842343507465
 20
-13.66278496845943
 30
0.0
 10
6.607242529438909
 20
-13.60621633511762
 30
0.0
 10
6.775182468531199
 20
-13.53706557339719
 30
0.0
 10
6.904230212810269
 20
-13.48122880582041
 30
0.0
 10
6.968750136188953
 20
-13.45331213059378
 30
0.0
  0
SPLINE
  5
108
330
1F
100
AcDbEntity
  8
0
  6
Continuous
 62
     7
370
    25
100
AcDbSpline
210
0.0
220
0.0
230
1.0
 70
     8
 71
     3
 72
    23
 73
    19
 74
     0
 42
0.00000001
 43
0.00000001
 40
0.0
 40
0.0
 40
0.0
 40
0.0
 40
0.0047054210186939
 40
0.0876272298235591
 40
0.1706427677128545
 40
0.3365212864049383
 40
0.4194315081726714
 40
0.5024188015711746
 40
0.5853234198797277
 40
0.6682942890456388
 40
0.7511689052530218
 40
0.8341506719418619
 40
0.8617746760667224
 40
0.889398208665783
 40
0.9170268919315976
 40
0.9446663449135992
 40
0.9723221800967232
 40
0.9999999999999999
 40
0.9999999999999999
 40
0.9999999999999999
 40
0.9999999999999999
 10
-3.875423302592806
 20
-13.87366578281909
 30
0.0
 10
-3.864110925716766
 20
-13.87767382097559
 30
0.0
 10
-3.65344492060706
 20
-13.95231396035666
 30
0.0
 10
-3.239655795955716
 20
-14.08782702434376
 30
0.0
 10
-2.424451585574863
 20
-14.3158908029314
 30
0.0
 10
-1.594918923956819
 20
-14.48992381050802
 30
0.0
 10
-0.7569588841395046
 20
-14.60923482795337
 30
0.0
 10
-0.1251982687614832
 20
-14.67126620848195
 30
0.0
 10
0.5087898229177018
 20
-14.70589382295227
 30
0.0
 10
1.143401552776147
 20
-14.71305076356025
 30
0.0
 10
1.77791850930556
 20
-14.69286587475805
 30
0.0
 10
2.270189795099596
 20
-14.65595216661135
 30
0.0
 10
2.620877600936211
 20
-14.61957389358116
 30
0.0
 10
2.830804584753836
 20
-14.59476031873659
 30
0.0
 10
3.040397230677058
 20
-14.56696482083558
 30
0.0
 10
3.249643427962998
 20
-14.53611513978201
 30
0.0
 10
3.458592228282596
 20
-14.50248008409686
 30
0.0
 10
3.597505657788977
 20
-14.47754206805784
 30
0.0
 10
3.666989968522122
 20
-14.46506810595295
 30
0.0
  0
SPLINE
  5
10F
330
1F
100
AcDbEntity
  8
0
  6
Continuous
 62
     7
370
    25
100
AcDbSpline
210
0.0
220
0.0
230
1.0
 70
     8
 71
     3
 72
    46
 73
    42
 74
     0
 42
0.00000001
 43
0.00000001
 40
0.0
 40
0.0
 40
0.0
 40
0.0
 40
0.0083420697983887
 40
0.0166817647542854
 40
0.0250193986481444
 40
0.0333552854931681
 40
0.0416897395000273
 40
0.0500230750414693
 40
0.058355606616835
 40
0.0666876488165043
 40
0.0750195162862899
 40
0.0833515236917997
 40
0.091683985682788
 40
0.100017216857516
 40
0.1083515317271408
 40
0.1166872446801541
 40
0.1250246699468909
 40
0.1562966881157897
 40
0.1875457471268329
 40
0.2187885620359017
 40
0.2500418579173914
 40
0.3125707115126377
 40
0.3750435039176305
 40
0.4375591263109458
 40
0.5000407487119274
 40
0.5625438747084915
 40
0.625034586160275
 40
0.6875503071306199
 40
0.7500214664515471
 40
0.781297505287838
 40
0.812542898864828
 40
0.8437749380533116
 40
0.8750109359012924
 40
0.8906463036939527
 40
0.90627396586522
 40
0.9218960968496561
 40
0.9375148733919665
 40
0.9531324736394599
 40
0.9687510762315772
 40
0.9843728593883949
 40
1.0
 40
1.0
 40
1.0
 40
1.0
 10
-3.53000860457485
 20
-26.20489744253353
 30
0.0
 10
-3.583254594604064
 20
-26.19557758947569
 30
0.0
 10
-3.689731416453236
 20
-26.17694053656044
 30
0.0
 10
-3.849204805276178
 20
-26.14774775587421
 30
0.0
 10
-4.008469221650252
 20
-26.11765471037718
 30
0.0
 10
-4.16750923448007
 20
-26.08657231491948
 30
0.0
 10
-4.326328976184543
 20
-26.05452443147021
 30
0.0
 10
-4.484927338946151
 20
-26.02150466822494
 30
0.0
 10
-4.64330461864737
 20
-25.98751473759734
 30
0.0
 10
-4.801460735216506
 20
-25.95255418090757
 30
0.0
 10
-4.959395709015382
 20
-25.91662312147642
 30
0.0
 10
-5.117109534582681
 20
-25.87972152546311
 30
0.0
 10
-5.274602209348017
 20
-25.84184940583697
 30
0.0
 10
-5.431873745024582
 20
-25.80300674557667
 30
0.0
 10
-5.588924093317995
 20
-25.76319360092323
 30
0.0
 10
-5.745753431758082
 20
-25.72240976510223
 30
0.0
 10
-6.045945412110679
 20
-25.64237445857497
 30
0.0
 10
-6.487870864647991
 20
-25.51761405786223
 30
0.0
 10
-7.068668150562049
 20
-25.33905027239987
 30
0.0
 10
-7.645068527797874
 20
-25.14713127241359
 30
0.0
 10
-8.407650665976691
 20
-24.87346407892018
 30
0.0
 10
-9.34859445292076
 20
-24.4984984486808
 30
0.0
 10
-10.45562072099896
 20
-23.99654779067214
 30
0.0
 10
-11.53790635196447
 20
-23.44390723786273
 30
0.0
 10
-12.59344736194885
 20
-22.84136373169403
 30
0.0
 10
-13.61965737054831
 20
-22.19041590369851
 30
0.0
 10
-14.61447611964577
 20
-21.49204512832858
 30
0.0
 10
-15.57544016138064
 20
-20.74813443848502
 30
0.0
 10
-16.34642832670827
 20
-20.09111342203155
 30
0.0
 10
-16.94407757775522
 20
-19.54439215840838
 30
0.0
 10
-17.38260690516415
 20
-19.12388085368091
 30
0.0
 10
-17.81092719236002
 20
-18.69334859222934
 30
0.0
 10
-18.15935664457222
 20
-18.32621946394942
 30
0.0
 10
-18.43292227702919
 20
-18.0275891887864
 30
0.0
 10
-18.63548936189365
 20
-17.80115887932751
 30
0.0
 10
-18.83530025171835
 20
-17.5724359199693
 30
0.0
 10
-19.03235036767025
 20
-17.34141612743556
 30
0.0
 10
-19.22665816298315
 20
-17.10811383036551
 30
0.0
 10
-19.41815432900664
 20
-16.87247597338469
 30
0.0
 10
-19.60709763978822
 20
-16.63470057751166
 30
0.0
 10
-19.73068684346784
 20
-16.47430072150755
 30
0.0
 10
-19.79249203964965
 20
-16.39408704367234
 30
0.0
  0
SPLINE
  5
116
330
1F
100
AcDbEntity
  8
0
  6
Continuous
 62
     7
370
    25
100
AcDbSpline
210
0.0
220
0.0
230
1.0
 70
     8
 71
     3
 72
    24
 73
    20
 74
     0
 42
0.00000001
 43
0.00000001
 40
0.0
 40
0.0
 40
0.0
 40
0.0
 40
0.0507368698725867
 40
0.101468389023235
 40
0.1521971519690548
 40
0.2029257536500564
 40
0.2536567890309954
 40
0.3043928527032029
 40
0.3551365384867017
 40
0.4058904390329104
 40
0.456657145428247
 40
0.507439246798927
 40
0.558239329917262
 40
0.6090599788097463
 40
0.6599037743672433
 40
0.7449544538133324
 40
0.8299793113540571
 40
0.9149904553445947
 40
0.9999999999999999
 40
0.9999999999999999
 40
0.9999999999999999
 40
0.9999999999999999
 10
-5.368793911551978
 20
-19.95426846129389
 30
0.0
 10
-5.32185624064607
 20
-19.96924284642754
 30
0.0
 10
-5.227985848891796
 20
-19.99919003749274
 30
0.0
 10
-5.086782601053944
 20
-20.042831231558
 30
0.0
 10
-4.945301323770954
 20
-20.08553144751257
 30
0.0
 10
-4.803512599879592
 20
-20.12719912581763
 30
0.0
 10
-4.661424312650792
 20
-20.16785879793367
 30
0.0
 10
-4.519034351155845
 20
-20.20750389035636
 30
0.0
 10
-4.3763432824792
 20
-20.24613616360866
 30
0.0
 10
-4.233350956179269
 20
-20.28375514814681
 30
0.0
 10
-4.090057413674927
 20
-20.32036096002777
 30
0.0
 10
-3.94646264662186
 20
-20.3559536035694
 30
0.0
 10
-3.802566653840723
 20
-20.39053294441376
 30
0.0
 10
-3.658369455300046
 20
-20.42409951525365
 30
0.0
 10
-3.481490482507008
 20
-20.46394581377844
 30
0.0
 10
-3.271768404346925
 20
-20.50911148415861
 30
0.0
 10
-3.028996534717475
 20
-20.55831191448609
 30
0.0
 10
-2.785729285095989
 20
-20.60481321630645
 30
0.0
 10
-2.623113650529331
 20
-20.63335330015292
 30
0.0
 10
-2.541806598084974
 20
-20.64762320784202
 30
0.0
  0
SPLINE
  5
11C
330
1F
100
AcDbEntity
  8
0
  6
Continuous
 62
     7
370
    25
100
AcDbSpline
210
0.0
220
0.0
230
1.0
 70
     8
 71
     3
 72
    25
 73
    21
 74
     0
 42
0.00000001
 43
0.00000001
 40
0.0
 40
0.0
 40
0.0
 40
0.0
 40
0.0033156323669662
 40
0.0863742531578964
 40
0.1694509446114278
 40
0.2524518357992713
 40
0.3355806488681746
 40
0.4186356338141091
 40
0.501705814925602
 40
0.5847074385944286
 40
0.6678143779945074
 40
0.7508566706267459
 40
0.8339066925853347
 40
0.8576207859044251
 40
0.8813328892314559
 40
0.9050469030609006
 40
0.9287667269447416
 40
0.9524962575706061
 40
0.9762393868469522
 40
1.0
 40
1.0
 40
1.0
 40
1.0
 10
-15.56573158685426
 20
-12.62276789904146
 30
0.0
 10
-15.55849559318583
 20
-12.63264282234366
 30
0.0
 10
-15.36999352788067
 20
-12.88989062029516
 30
0.0
 10
-14.98784864459462
 20
-13.38562005877784
 30
0.0
 10
-14.393364066176
 20
-14.08799975120196
 30
0.0
 10
-13.76712479181787
 20
-14.76260512098606
 30
0.0
 10
-13.11076842189847
 20
-15.40781766744977
 30
0.0
 10
-12.42560747875976
 20
-16.02273894415483
 30
0.0
 10
-11.71353582941847
 20
-16.605545379499
 30
0.0
 10
-10.97563627163674
 20
-17.15560046776092
 30
0.0
 10
-10.21367612191123
 20
-17.67163034847859
 30
0.0
 10
-9.429131606267834
 20
-18.15294191957462
 30
0.0
 10
-8.815601408678827
 20
-18.49221931947678
 30
0.0
 10
-8.387444391656134
 20
-18.71307802032219
 30
0.0
 10
-8.15247022600202
 20
-18.83049826058894
 30
0.0
 10
-7.91598941548821
 20
-18.94489918752475
 30
0.0
 10
-7.678009306434509
 20
-19.0563021144865
 30
0.0
 10
-7.438498903378508
 20
-19.16463123795682
 30
0.0
 10
-7.197575048050014
 20
-19.27016862217532
 30
0.0
 10
-7.035794073349289
 20
-19.33793474928315
 30
0.0
 10
-6.954873814043394
 20
-19.37183028358728
 30
0.0
  0
SPLINE
  5
123
330
1F
100
AcDbEntity
  8
0
  6
Continuous
 62
     7
370
    25
100
AcDbSpline
210
0.0
220
0.0
230
1.0
 70
     8
 71
     3
 72
    46
 73
    42
 74
     0
 42
0.00000001
 43
0.00000001
 40
0.0
 40
0.0
 40
0.0
 40
0.0
 40
0.0083442764971573
 40
0.0166858339827428
 40
0.0250249881342892
 40
0.0333620549023316
 40
0.0416973504747721
 40
0.050031191241112
 40
0.058363893756568
 40
0.0666957747060939
 40
0.0750271508683297
 40
0.0833583390794961
 40
0.0916896561972573
 40
0.1000214190645705
 40
0.1083539444735435
 40
0.1166875491293236
 40
0.1250225496140331
 40
0.156305400696319
 40
0.1875577180616769
 40
0.2187962967917699
 40
0.2500379541253693
 40
0.312552903663104
 40
0.3750412542667343
 40
0.4375470942075818
 40
0.5000388265858459
 40
0.5625562101562841
 40
0.6250305826911704
 40
0.6875512782144916
 40
0.7500191379387051
 40
0.7812846248755497
 40
0.8125270566150208
 40
0.8437638086873306
 40
0.8750122660971347
 40
0.8906475564298872
 40
0.90627509204855
 40
0.9218970592208593
 40
0.9375156465529413
 40
0.9531330440718644
 40
0.9687514423052073
 40
0.984373031359575
 40
1.0
 40
1.0
 40
1.0
 40
1.0
 10
17.08758933700509
 20
-21.2255319479718
 30
0.0
 10
17.04274665307642
 20
-21.25888845318765
 30
0.0
 10
16.95307589736388
 20
-21.32559059428587
 30
0.0
 10
16.81781328063367
 20
-21.42457787363759
 30
0.0
 10
16.68202716384045
 20
-21.52276207935941
 30
0.0
 10
16.54566147348935
 20
-21.62006810694037
 30
0.0
 10
16.40873122889373
 20
-21.71651607163062
 30
0.0
 10
16.27123240776815
 20
-21.81210058489224
 30
0.0
 10
16.1331660882824
 20
-21.906823089545
 30
0.0
 10
15.99453198228141
 20
-22.00068319857726
 30
0.0
 10
15.85533016790762
 20
-22.09368101488263
 30
0.0
 10
15.71556062420558
 20
-22.18581651124957
 30
0.0
 10
15.57522336043798
 20
-22.27708969114992
 30
0.0
 10
15.43431836414179
 20
-22.36750056550186
 30
0.0
 10
15.29284567960394
 20
-22.45704908484106
 30
0.0
 10
15.15080514586037
 20
-22.54573543391557
 30
0.0
 10
14.87733328972253
 20
-22.7141501732507
 30
0.0
 10
14.46951622512785
 20
-22.95714550347174
 30
0.0
 10
13.92260755930197
 20
-23.26607925590247
 30
0.0
 10
13.36891658098204
 20
-23.56211421643825
 30
0.0
 10
12.62160687528009
 20
-23.93963543674458
 30
0.0
 10
11.67131270450976
 20
-24.37890796284832
 30
0.0
 10
10.50761183961999
 20
-24.85239839898386
 30
0.0
 10
9.323278606311609
 20
-25.27120529999787
 30
0.0
 10
8.120479260049592
 20
-25.63424645860503
 30
0.0
 10
6.902259958947578
 20
-25.94074833409309
 30
0.0
 10
5.67080633180577
 20
-26.18979246270607
 30
0.0
 10
4.429385223883219
 20
-26.38086601166686
 30
0.0
 10
3.38824296351909
 20
-26.49127547677413
 30
0.0
 10
2.55318981938194
 20
-26.55014969699557
 30
0.0
 10
1.925933167250494
 20
-26.57953695557964
 30
0.0
 10
1.298277132518336
 20
-26.59411147303393
 30
0.0
 10
0.7749884773742367
 20
-26.59391648561546
 30
0.0
 10
0.3563605783966476
 20
-26.58635898759298
 30
0.0
 10
0.0424680344451565
 20
-26.57697730798256
 30
0.0
 10
-0.2711794454477265
 20
-26.56388831861514
 30
0.0
 10
-0.5845817300251139
 20
-26.54708514620234
 30
0.0
 10
-0.8977412301738097
 20
-26.52659200446739
 30
0.0
 10
-1.210648322448
 20
-26.50231890980356
 30
0.0
 10
-1.523338987348403
 20
-26.47460166919801
 30
0.0
 10
-1.73151995067505
 20
-26.4529962907748
 30
0.0
 10
-1.835628352003957
 20
-26.44219174182947
 30
0.0
  0
SPLINE
  5
12A
330
1F
100
AcDbEntity
  8
0
  6
Continuous
 62
     7
370
    25
100
AcDbSpline
210
0.0
220
0.0
230
1.0
 70
     8
 71
     3
 72
    25
 73
    21
 74
     0
 42
0.00000001
 43
0.00000001
 40
0.0
 40
0.0
 40
0.0
 40
0.0
 40
0.0465013423981105
 40
0.0929993303487301
 40
0.139496031961127
 40
0.1859935155162108
 40
0.2324938491905535
 40
0.2789991007804757
 40
0.3255113374263877
 40
0.3720326253375755
 40
0.4185650295175937
 40
0.4651106134904731
 40
0.511671439027904
 40
0.558249565877576
 40
0.6048470514928804
 40
0.6514659507640918
 40
0.738633598429742
 40
0.8257695209409169
 40
0.9128871685564183
 40
1.0
 40
1.0
 40
1.0
 40
1.0
 10
11.15480212875834
 20
-18.34339250688254
 30
0.0
 10
11.19660047196876
 20
-18.32044950915288
 30
0.0
 10
11.28019414320037
 20
-18.27456516872282
 30
0.0
 10
11.40499651438351
 20
-18.20468186772096
 30
0.0
 10
11.52935972661265
 20
-18.13402961393421
 30
0.0
 10
11.65324215448184
 20
-18.06253222716804
 30
0.0
 10
11.77665495034868
 20
-17.99021012000019
 30
0.0
 10
11.89959512486177
 20
-17.91705782317798
 30
0.0
 10
12.02206347834277
 20
-17.8430768030792
 30
0.0
 10
12.14405979494061
 20
-17.76826666684634
 30
0.0
 10
12.26558413347128
 20
-17.69262752225332
 30
0.0
 10
12.38663647051396
 20
-17.61615933421385
 30
0.0
 10
12.50721683696499
 20
-17.53886213845133
 30
0.0
 10
12.62732512873752
 20
-17.46073583038757
 30
0.0
 10
12.74696172771328
 20
-17.38178079619431
 30
0.0
 10
12.90065385454242
 20
-17.27887714703419
 30
0.0
 10
13.0876905125472
 20
-17.15107044850046
 30
0.0
 10
13.30707836626227
 20
-16.99704518824718
 30
0.0
 10
13.52463380946038
 20
-16.84052942689033
 30
0.0
 10
13.66799296504922
 20
-16.73392374964116
 30
0.0
 10
13.73967056143848
 20
-16.68062238444209
 30
0.0
  0
SPLINE
  5
130
330
1F
100
AcDbEntity
  8
0
  6
Continuous
 62
     7
370
    25
100
AcDbSpline
210
0.0
220
0.0
230
1.0
 70
     8
 71
     3
 72
    25
 73
    21
 74
     0
 42
0.00000001
 43
0.00000001
 40
0.0
 40
0.0
 40
0.0
 40
0.0
 40
0.0031856996152582
 40
0.0862290661868488
 40
0.1693409658117143
 40
0.2523778005751494
 40
0.3354879622306033
 40
0.4185329314723794
 40
0.5016318613124935
 40
0.5846472081315496
 40
0.6677650784350058
 40
0.7508115439032412
 40
0.8338829202717217
 40
0.857596778521099
 40
0.8813097844131933
 40
0.9050258827096599
 40
0.9287490166295079
 40
0.9524831258850214
 40
0.9762321447264064
 40
1.0
 40
1.0
 40
1.0
 40
1.0
 10
-1.657131630728027
 20
-20.78019826460564
 30
0.0
 10
-1.644947395212783
 20
-20.78174977404827
 30
0.0
 10
-1.31515005787183
 20
-20.82374532497116
 30
0.0
 10
-0.6653828134885618
 20
-20.89041167402025
 30
0.0
 10
0.2941802595716768
 20
-20.94461576257468
 30
0.0
 10
1.255502629980655
 20
-20.95468892258924
 30
0.0
 10
2.21600601214224
 20
-20.92058721598307
 30
0.0
 10
3.174188164404088
 20
-20.84265073042905
 30
0.0
 10
4.127451185652759
 20
-20.72110769239987
 30
0.0
 10
5.074474070265043
 20
-20.55628309864019
 30
0.0
 10
6.012814251068145
 20
-20.34855071349227
 30
0.0
 10
6.940996759726964
 20
-20.09856243669286
 30
0.0
 10
7.638644633560289
 20
-19.87632780431057
 30
0.0
 10
8.113427300623336
 20
-19.70976872336719
 30
0.0
 10
8.371073584774463
 20
-19.61563474297775
 30
0.0
 10
8.627514699420313
 20
-19.51816901958312
 30
0.0
 10
8.882761387298508
 20
-19.41739184553565
 30
0.0
 10
9.136778194520678
 20
-19.31322512589538
 30
0.0
 10
9.389696178658726
 20
-19.20596124810303
 30
0.0
 10
9.557173752492593
 20
-19.13169239365162
 30
0.0
 10
9.640945734774593
 20
-19.09454324575807
 30
0.0
  0
CIRCLE
  5
135
330
1F
100
AcDbEntity
  8
0
  6
Continuous
 62
     7
370
    25
100
AcDbCircle
 10
-5.2075687148
 20
-6.0652605619
 30
0.0
 40
0.1599999999999975
  0
CIRCLE
  5
136
330
1F
100
AcDbEntity
  8
0
  6
Continuous
 62
     7
370
    25
100
AcDbCircle
 10
-4.833
 20
-5.629
 30
0.0
 40
0.1249999999999982
  0
CIRCLE
  5
137
330
1F
100
AcDbEntity
  8
0
  6
Continuous
 62
     7
370
    25
100
AcDbCircle
 10
0.8901557721
 20
-8.7560514891
 30
0.0
 40
0.1600000000000001
  0
CIRCLE
  5
138
330
1F
100
AcDbEntity
  8
0
  6
Continuous
 62
     7
370
    25
100
AcDbCircle
 10
0.832
 20
-8.184
 30
0.0
 40
0.1250000000000036
  0
CIRCLE
  5
139
330
1F
100
AcDbEntity
  8
0
  6
Continuous
 62
     7
370
    25
100
AcDbCircle
 10
7.5966750784
 20
-5.8809880298
 30
0.0
 40
0.1600000000000001
  0
CIRCLE
  5
13A
330
1F
100
AcDbEntity
  8
0
  6
Continuous
 62
     7
370
    25
100
AcDbCircle
 10
7.142
 20
-5.529
 30
0.0
 40
0.1249999999999982
  0
CIRCLE
  5
13B
330
1F
100
AcDbEntity
  8
0
  6
Continuous
 62
     7
370
    25
100
AcDbCircle
 10
-7.0110616479
 20
-12.6307420777
 30
0.0
 40
0.1599999999999984
  0
CIRCLE
  5
13C
330
1F
100
AcDbEntity
  8
0
  6
Continuous
 62
     7
370
    25
100
AcDbCircle
 10
-6.732
 20
-12.128
 30
0.0
 40
0.125
  0
CIRCLE
  5
13D
330
1F
100
AcDbEntity
  8
0
  6
Continuous
 62
     7
370
    25
100
AcDbCircle
 10
4.5661415228
 20
-14.552627648
 30
0.0
 40
0.1599999999999984
  0
CIRCLE
  5
13E
330
1F
100
AcDbEntity
  8
0
  6
Continuous
 62
     7
370
    25
100
AcDbCircle
 10
4.394
 20
-14.004
 30
0.0
 40
0.125
  0
CIRCLE
  5
13F
330
1F
100
AcDbEntity
  8
0
  6
Continuous
 62
     7
370
    25
100
AcDbCircle
 10
14.4172341748
 20
-7.0722336406
 30
0.0
 40
0.160000000000001
  0
CIRCLE
  5
140
330
1F
100
AcDbEntity
  8
0
  6
Continuous
 62
     7
370
    25
100
AcDbCircle
 10
13.901
 20
-6.819
 30
0.0
 40
0.1249999999999982
  0
CIRCLE
  5
141
330
1F
100
AcDbEntity
  8
0
  6
Continuous
 62
     7
370
    25
100
AcDbCircle
 10
-6.2561346843
 20
-19.9396297936
 30
0.0
 40
0.1599999999999895
  0
CIRCLE
  5
142
330
1F
100
AcDbEntity
  8
0
  6
Continuous
 62
     7
370
    25
100
AcDbCircle
 10
-6.084
 20
-19.391
 30
0.0
 40
0.1249999999999929
  0
CIRCLE
  5
143
330
1F
100
AcDbEntity
  8
0
  6
Continuous
 62
     7
370
    25
100
AcDbCircle
 10
10.5330505736
 20
-18.9767482246
 30
0.0
 40
0.1600000000000001
  0
CIRCLE
  5
144
330
1F
100
AcDbEntity
  8
0
  6
Continuous
 62
     7
370
    25
100
AcDbCircle
 10
10.254
 20
-18.474
 30
0.0
 40
0.125
  0
CIRCLE
  5
145
330
1F
100
AcDbEntity
  8
0
  6
Continuous
 62
     7
370
    25
100
AcDbCircle
 10
-20.9896989765
 20
-16.2469571576
 30
0.0
 40
0.1599999999999966
  0
CIRCLE
  5
146
330
1F
100
AcDbEntity
  8
0
  6
Continuous
 62
     7
370
    25
100
AcDbCircle
 10
-20.535
 20
-15.895
 30
0.0
 40
0.1250000000000018
  0
CIRCLE
  5
147
330
1F
100
AcDbEntity
  8
0
  6
Continuous
 62
     7
370
    25
100
AcDbCircle
 10
-2.7671777761
 20
-27.2090492517
 30
0.0
 40
0.1600000000000001
  0
CIRCLE
  5
148
330
1F
100
AcDbEntity
  8
0
  6
Continuous
 62
     7
370
    25
100
AcDbCircle
 10
-2.709
 20
-26.637
 30
0.0
 40
0.1249999999999964
  0
CIRCLE
  5
149
330
1F
100
AcDbEntity
  8
0
  6
Continuous
 62
     7
370
    25
100
AcDbCircle
 10
18.3395362943
 20
-21.3632883958
 30
0.0
 40
0.159999999999993
  0
CIRCLE
  5
14A
330
1F
100
AcDbEntity
  8
0
  6
Continuous
 62
     7
370
    25
100
AcDbCircle
 10
17.965
 20
-20.927
 30
0.0
 40
0.1249999999999964
  0
SPLINE
  5
14C
330
1F
100
AcDbEntity
  8
0
  6
Continuous
 62
     7
370
    25
100
AcDbSpline
210
0.0
220
0.0
230
1.0
 70
     8
 71
     3
 72
    12
 73
     8
 74
     0
 42
0.00000001
 43
0.00000001
 40
0.0
 40
0.0
 40
0.0
 40
0.0
 40
0.0480982553183068
 40
0.2861811723736583
 40
0.5241410819781938
 40
0.762055003258926
 40
1.0
 40
1.0
 40
1.0
 40
1.0
 10
8.795708563614516
 20
-3.804149899307992
 30
0.0
 10
8.801379553187754
 20
-3.794021089137134
 30
0.0
 10
8.835121534759597
 20
-3.733755394461448
 30
0.0
 10
8.895625887623657
 20
-3.622653713281728
 30
0.0
 10
8.975318387100502
 20
-3.46987217555393
 30
0.0
 10
9.052417794185404
 20
-3.315793928776289
 30
0.0
 10
9.101458484000545
 20
-3.211940896472931
 30
0.0
 10
9.125980430183155
 20
-3.160010989315362
 30
0.0
  0
LINE
  5
14D
330
1F
100
AcDbEntity
  8
0
  6
Continuous
 62
     7
370
    25
100
AcDbLine
 10
19.1312169808
 20
-21.2108361389
 30
0.0
 11
18.8008068141
 21
-20.8259492167
 31
0.0
  0
LINE
  5
14E
330
1F
100
AcDbEntity
  8
0
  6
Continuous
 62
     7
370
    25
100
AcDbLine
 10
18.0689495824
 20
-22.1227505945
 30
0.0
 11
19.1312169808
 21
-21.2108361389
 31
0.0
  0
LINE
  5
14F
330
1F
100
AcDbEntity
  8
0
  6
Continuous
 62
     7
370
    25
100
AcDbLine
 10
17.6992110859
 20
-21.692051039
 30
0.0
 11
18.0689495824
 21
-22.1227505945
 31
0.0
  0
LINE
  5
150
330
1F
100
AcDbEntity
  8
0
  6
Continuous
 62
     7
370
    25
100
AcDbLine
 10
-2.1112414878
 20
-27.677821676
 30
0.0
 11
-2.0599276402
 21
-27.1732639203
 31
0.0
  0
LINE
  5
151
330
1F
100
AcDbEntity
  8
0
  6
Continuous
 62
     7
370
    25
100
AcDbLine
 10
-3.5040570572
 20
-27.5361714385
 30
0.0
 11
-2.1112414878
 21
-27.677821676
 31
0.0
  0
LINE
  5
152
330
1F
100
AcDbEntity
  8
0
  6
Continuous
 62
     7
370
    25
100
AcDbLine
 10
-3.4464558103
 20
-26.9697910715
 30
0.0
 11
-3.5040570572
 21
-27.5361714385
 31
0.0
  0
LINE
  5
153
330
1F
100
AcDbEntity
  8
0
  6
Continuous
 62
     7
370
    25
100
AcDbLine
 10
-20.8775417249
 20
-17.0453434995
 30
0.0
 11
-20.4768891799
 21
-16.7352206749
 31
0.0
  0
LINE
  5
154
330
1F
100
AcDbEntity
  8
0
  6
Continuous
 62
     7
370
    25
100
AcDbLine
 10
-21.7344808911
 20
-15.9382503393
 30
0.0
 11
-20.8775417249
 21
-17.0453434995
 31
0.0
  0
LINE
  5
155
330
1F
100
AcDbEntity
  8
0
  6
Continuous
 62
     7
370
    25
100
AcDbLine
 10
-21.2831861517
 20
-15.588928212
 30
0.0
 11
-21.7344808911
 21
-15.9382503393
 31
0.0
  0
LINE
  5
156
330
1F
100
AcDbEntity
  8
0
  6
Continuous
 62
     7
370
    25
100
AcDbLine
 10
-21.7025728326
 20
-14.6858233887
 30
0.0
 11
-21.205284868
 21
-14.3493156724
 31
0.0
  0
LINE
  5
157
330
1F
100
AcDbEntity
  8
0
  6
Continuous
 62
     7
370
    25
100
AcDbLine
 10
-19.994763068
 20
-14.5916316494
 30
0.0
 11
-20.5696788603
 21
-15.0366419498
 31
0.0
  0
LINE
  5
158
330
1F
100
AcDbEntity
  8
0
  6
Continuous
 62
     7
370
    25
100
AcDbLine
 10
-19.8417376615
 20
-14.789327574
 30
0.0
 11
-19.994763068
 21
-14.5916316494
 31
0.0
  0
LINE
  5
159
330
1F
100
AcDbEntity
  8
0
  6
Continuous
 62
     7
370
    25
100
AcDbLine
 10
-19.631306344
 20
-14.816130343
 30
0.0
 11
-16.1107520342
 21
-12.0910993474
 31
0.0
  0
LINE
  5
15A
330
1F
100
AcDbEntity
  8
0
  6
Continuous
 62
     7
370
    25
100
AcDbLine
 10
-16.5264304837
 20
-11.1832012362
 30
0.0
 11
-16.0288726941
 21
-10.8465109331
 31
0.0
  0
LINE
  5
15B
330
1F
100
AcDbEntity
  8
0
  6
Continuous
 62
     7
370
    25
100
AcDbLine
 10
-6.3851754213
 20
-18.012624737
 30
0.0
 11
-6.5986493741
 21
-18.6930115583
 31
0.0
  0
LINE
  5
15C
330
1F
100
AcDbEntity
  8
0
  6
Continuous
 62
     7
370
    25
100
AcDbLine
 10
-6.1466407284
 20
-18.0874659041
 30
0.0
 11
-6.3851754213
 21
-18.012624737
 31
0.0
  0
LINE
  5
15D
330
1F
100
AcDbEntity
  8
0
  6
Continuous
 62
     7
370
    25
100
AcDbLine
 10
-5.9586152124
 20
-17.9892497886
 30
0.0
 11
-4.6227727221
 21
-13.7316360911
 31
0.0
  0
LINE
  5
15E
330
1F
100
AcDbEntity
  8
0
  6
Continuous
 62
     7
370
    25
100
AcDbLine
 10
-6.5931576563
 20
-13.3202029205
 30
0.0
 11
-6.3551565333
 21
-12.8914332204
 31
0.0
  0
LINE
  5
15F
330
1F
100
AcDbEntity
  8
0
  6
Continuous
 62
     7
370
    25
100
AcDbLine
 10
-7.8172253237
 20
-12.6407484733
 30
0.0
 11
-6.5931576563
 21
-13.3202029205
 31
0.0
  0
LINE
  5
160
330
1F
100
AcDbEntity
  8
0
  6
Continuous
 62
     7
370
    25
100
AcDbLine
 10
-7.5217938698
 20
-12.1085154559
 30
0.0
 11
-7.8172253237
 21
-12.6407484733
 31
0.0
  0
LINE
  5
161
330
1F
100
AcDbEntity
  8
0
  6
Continuous
 62
     7
370
    25
100
AcDbLine
 10
-11.3505405268
 20
-7.6807498737
 30
0.0
 11
-10.8522526977
 21
-7.3435655633
 31
0.0
  0
LINE
  5
162
330
1F
100
AcDbEntity
  8
0
  6
Continuous
 62
     7
370
    25
100
AcDbLine
 10
-6.7495111924
 20
-10.7172135675
 30
0.0
 11
-7.0810752412
 21
-11.3145410756
 31
0.0
  0
LINE
  5
163
330
1F
100
AcDbEntity
  8
0
  6
Continuous
 62
     7
370
    25
100
AcDbLine
 10
-6.5309276804
 20
-10.8385447188
 30
0.0
 11
-6.7495111924
 21
-10.7172135675
 31
0.0
  0
LINE
  5
164
330
1F
100
AcDbEntity
  8
0
  6
Continuous
 62
     7
370
    25
100
AcDbLine
 10
-6.3269788824
 20
-10.7801933023
 30
0.0
 11
-4.1478349955
 21
-6.8543678322
 31
0.0
  0
LINE
  5
165
330
1F
100
AcDbEntity
  8
0
  6
Continuous
 62
     7
370
    25
100
AcDbLine
 10
-4.9370384411
 20
-6.8247428665
 30
0.0
 11
-4.6370968421
 21
-6.4754005821
 31
0.0
  0
LINE
  5
166
330
1F
100
AcDbEntity
  8
0
  6
Continuous
 62
     7
370
    25
100
AcDbLine
 10
-5.9992380701
 20
-5.9127494739
 30
0.0
 11
-4.9370384411
 21
-6.8247428665
 31
0.0
  0
LINE
  5
167
330
1F
100
AcDbEntity
  8
0
  6
Continuous
 62
     7
370
    25
100
AcDbLine
 10
-5.5583611728
 20
-5.3992597047
 30
0.0
 11
-5.9992380701
 21
-5.9127494739
 31
0.0
  0
LINE
  5
168
330
1F
100
AcDbEntity
  8
0
  6
Continuous
 62
     7
370
    25
100
AcDbLine
 10
-6.1758967448
 20
-4.1791417802
 30
0.0
 11
-5.6741770825
 21
-3.8396351968
 31
0.0
  0
LINE
  5
169
330
1F
100
AcDbEntity
  8
0
  6
Continuous
 62
     7
370
    25
100
AcDbLine
 10
-4.5661055959
 20
-4.2435786283
 30
0.0
 11
-4.9528825325
 21
-4.6940581184
 31
0.0
  0
LINE
  5
16A
330
1F
100
AcDbEntity
  8
0
  6
Continuous
 62
     7
370
    25
100
AcDbLine
 10
-3.503905967
 20
-5.155572021
 30
0.0
 11
-4.5661055959
 21
-4.2435786283
 31
0.0
  0
LINE
  5
16B
330
1F
100
AcDbEntity
  8
0
  6
Continuous
 62
     7
370
    25
100
AcDbLine
 10
-4.0507201181
 20
-5.7924470171
 30
0.0
 11
-3.503905967
 21
-5.155572021
 31
0.0
  0
LINE
  5
16C
330
1F
100
AcDbEntity
  8
0
  6
Continuous
 62
     7
370
    25
100
AcDbLine
 10
0.0116924118
 20
-7.0360799415
 30
0.0
 11
0.0737062165
 21
-7.6460811165
 31
0.0
  0
LINE
  5
16D
330
1F
100
AcDbEntity
  8
0
  6
Continuous
 62
     7
370
    25
100
AcDbLine
 10
1.4045134288
 20
-6.8944832789
 30
0.0
 11
0.0116924118
 21
-7.0360799415
 31
0.0
  0
LINE
  5
16E
330
1F
100
AcDbEntity
  8
0
  6
Continuous
 62
     7
370
    25
100
AcDbLine
 10
1.4887372441
 20
-7.7229540784
 30
0.0
 11
1.4045134288
 21
-6.8944832789
 31
0.0
  0
LINE
  5
16F
330
1F
100
AcDbEntity
  8
0
  6
Continuous
 62
     7
370
    25
100
AcDbLine
 10
5.7448372316
 20
-5.3326299451
 30
0.0
 11
6.2426981396
 21
-5.71805041
 31
0.0
  0
LINE
  5
170
330
1F
100
AcDbEntity
  8
0
  6
Continuous
 62
     7
370
    25
100
AcDbLine
 10
6.6018515649
 20
-4.2255949716
 30
0.0
 11
5.7448372316
 21
-5.3326299451
 31
0.0
  0
LINE
  5
171
330
1F
100
AcDbEntity
  8
0
  6
Continuous
 62
     7
370
    25
100
AcDbLine
 10
7.2567386713
 20
-4.7325777231
 30
0.0
 11
6.6018515649
 21
-4.2255949716
 31
0.0
  0
LINE
  5
172
330
1F
100
AcDbEntity
  8
0
  6
Continuous
 62
     7
370
    25
100
AcDbLine
 10
12.7986488728
 20
-5.9441017245
 30
0.0
 11
8.8604430054
 21
-4.0122532378
 31
0.0
  0
LINE
  5
173
330
1F
100
AcDbEntity
  8
0
  6
Continuous
 62
     7
370
    25
100
AcDbLine
 10
13.1094811901
 20
-5.6510432484
 30
0.0
 11
12.9993796073
 21
-5.8754928895
 31
0.0
  0
LINE
  5
174
330
1F
100
AcDbEntity
  8
0
  6
Continuous
 62
     7
370
    25
100
AcDbLine
 10
13.8335850361
 20
-6.0062453293
 30
0.0
 11
13.1094811901
 21
-5.6510432484
 31
0.0
  0
LINE
  5
175
330
1F
100
AcDbEntity
  8
0
  6
Continuous
 62
     7
370
    25
100
AcDbLine
 10
15.0309127787
 20
-5.2046784988
 30
0.0
 11
14.4627913831
 21
-5.0079579632
 31
0.0
  0
LINE
  5
176
330
1F
100
AcDbEntity
  8
0
  6
Continuous
 62
     7
370
    25
100
AcDbLine
 10
15.0846380329
 20
-6.6199371779
 30
0.0
 11
14.6416779005
 21
-6.4026474042
 31
0.0
  0
LINE
  5
177
330
1F
100
AcDbEntity
  8
0
  6
Continuous
 62
     7
370
    25
100
AcDbLine
 10
14.4680691687
 20
-7.8768551687
 30
0.0
 11
15.0846380329
 21
-6.6199371779
 31
0.0
  0
LINE
  5
178
330
1F
100
AcDbEntity
  8
0
  6
Continuous
 62
     7
370
    25
100
AcDbLine
 10
13.9296612265
 20
-7.6127444027
 30
0.0
 11
14.4680691687
 21
-7.8768551687
 31
0.0
  0
LINE
  5
179
330
1F
100
AcDbEntity
  8
0
  6
Continuous
 62
     7
370
    25
100
AcDbLine
 10
9.8490085726
 20
-17.1261843804
 30
0.0
 11
7.7129818235
 21
-13.2778365982
 31
0.0
  0
LINE
  5
17A
330
1F
100
AcDbEntity
  8
0
  6
Continuous
 62
     7
370
    25
100
AcDbLine
 10
10.2715422689
 20
-17.0632139536
 30
0.0
 11
10.0529560852
 21
-17.1845402894
 31
0.0
  0
LINE
  5
17B
330
1F
100
AcDbEntity
  8
0
  6
Continuous
 62
     7
370
    25
100
AcDbLine
 10
10.658788808
 20
-17.7608921827
 30
0.0
 11
10.2715422689
 21
-17.0632139536
 31
0.0
  0
LINE
  5
17C
330
1F
100
AcDbEntity
  8
0
  6
Continuous
 62
     7
370
    25
100
AcDbLine
 10
20.9366093929
 20
-7.2496143348
 30
0.0
 11
20.3690494315
 21
-7.0530882042
 31
0.0
  0
LINE
  5
17D
330
1F
100
AcDbEntity
  8
0
  6
Continuous
 62
     7
370
    25
100
AcDbLine
 10
17.2969983869
 20
-19.6882923645
 30
0.0
 11
14.4254624399
 21
-16.3433387754
 31
0.0
  0
LINE
  5
17E
330
1F
100
AcDbEntity
  8
0
  6
Continuous
 62
     7
370
    25
100
AcDbLine
 10
17.6982085505
 20
-19.5415587986
 30
0.0
 11
17.5085174361
 21
-19.7044011014
 31
0.0
  0
LINE
  5
17F
330
1F
100
AcDbEntity
  8
0
  6
Continuous
 62
     7
370
    25
100
AcDbLine
 10
18.2145680935
 20
-20.1430537141
 30
0.0
 11
17.6982085505
 21
-19.5415587986
 31
0.0
  0
LINE
  5
180
330
1F
100
AcDbEntity
  8
0
  6
Continuous
 62
     7
370
    25
100
AcDbLine
 10
26.8424541083
 20
-9.294601453
 30
0.0
 11
26.2751258315
 21
-9.0981555467
 31
0.0
  0
LINE
  5
181
330
1F
100
AcDbEntity
  8
0
  6
Continuous
 62
     7
370
    25
100
AcDbLine
 10
-5.918341645
 20
-12.1044916034
 30
0.0
 11
-5.5254435251
 21
-11.3966680147
 31
0.0
  0
LINE
  5
182
330
1F
100
AcDbEntity
  8
0
  6
Continuous
 62
     7
370
    25
100
AcDbLine
 10
3.3593691844
 20
-13.044748169
 30
0.0
 11
3.5656217721
 21
-13.7020902808
 31
0.0
  0
LINE
  5
183
330
1F
100
AcDbEntity
  8
0
  6
Continuous
 62
     7
370
    25
100
AcDbLine
 10
3.5979029444
 20
-12.9699040286
 30
0.0
 11
3.3593691844
 21
-13.044748169
 31
0.0
  0
LINE
  5
184
330
1F
100
AcDbEntity
  8
0
  6
Continuous
 62
     7
370
    25
100
AcDbLine
 10
3.6961167162
 20
-12.7818772884
 30
0.0
 11
2.3537236547
 21
-8.503572228
 31
0.0
  0
LINE
  5
185
330
1F
100
AcDbEntity
  8
0
  6
Continuous
 62
     7
370
    25
100
AcDbLine
 10
1.6270224699
 20
-9.0832020198
 30
0.0
 11
1.5797762103
 21
-8.6184623703
 31
0.0
  0
LINE
  5
186
330
1F
100
AcDbEntity
  8
0
  6
Continuous
 62
     7
370
    25
100
AcDbLine
 10
0.2342014529
 20
-9.2247986823
 30
0.0
 11
1.6270224699
 21
-9.0832020198
 31
0.0
  0
LINE
  5
187
330
1F
100
AcDbEntity
  8
0
  6
Continuous
 62
     7
370
    25
100
AcDbLine
 10
0.1671305611
 20
-8.5650532751
 30
0.0
 11
0.2342014529
 21
-9.2247986823
 31
0.0
  0
LINE
  5
188
330
1F
100
AcDbEntity
  8
0
  6
Continuous
 62
     7
370
    25
100
AcDbLine
 10
-5.8023784535
 20
-11.0713880654
 30
0.0
 11
-3.6771355865
 21
-7.2426677007
 31
0.0
  0
LINE
  5
189
330
1F
100
AcDbEntity
  8
0
  6
Continuous
 62
     7
370
    25
100
AcDbLine
 10
-5.5254435251
 20
-11.3966680147
 30
0.0
 11
-5.7440270371
 21
-11.2753368634
 31
0.0
  0
LINE
  5
18A
330
1F
100
AcDbEntity
  8
0
  6
Continuous
 62
     7
370
    25
100
AcDbLine
 10
4.9370891688
 20
-13.3966725814
 30
0.0
 11
4.6951582404
 21
-12.6256209831
 31
0.0
  0
LINE
  5
18B
330
1F
100
AcDbEntity
  8
0
  6
Continuous
 62
     7
370
    25
100
AcDbLine
 10
12.4929123259
 20
-6.9079612393
 30
0.0
 11
13.1157918475
 21
-7.2135087148
 31
0.0
  0
LINE
  5
18C
330
1F
100
AcDbEntity
  8
0
  6
Continuous
 62
     7
370
    25
100
AcDbLine
 10
12.6030139088
 20
-6.683511598
 30
0.0
 11
12.4929123259
 21
-6.9079612393
 31
0.0
  0
LINE
  5
18D
330
1F
100
AcDbEntity
  8
0
  6
Continuous
 62
     7
370
    25
100
AcDbLine
 10
12.5344050738
 20
-6.4827808636
 30
0.0
 11
8.5131136051
 21
-4.5101755453
 31
0.0
  0
LINE
  5
18E
330
1F
100
AcDbEntity
  8
0
  6
Continuous
 62
     7
370
    25
100
AcDbLine
 10
8.3414779518
 20
-5.5723317811
 30
0.0
 11
7.9684865047
 21
-5.2835793713
 31
0.0
  0
LINE
  5
18F
330
1F
100
AcDbEntity
  8
0
  6
Continuous
 62
     7
370
    25
100
AcDbLine
 10
7.4844636184
 20
-6.6793667546
 30
0.0
 11
8.3414779518
 21
-5.5723317811
 31
0.0
  0
LINE
  5
190
330
1F
100
AcDbEntity
  8
0
  6
Continuous
 62
     7
370
    25
100
AcDbLine
 10
6.9697835557
 20
-6.2809256923
 30
0.0
 11
7.4844636184
 21
-6.6793667546
 31
0.0
  0
LINE
  5
191
330
1F
100
AcDbEntity
  8
0
  6
Continuous
 62
     7
370
    25
100
AcDbLine
 10
4.2685977403
 20
-12.6022513516
 30
0.0
 11
2.9564262379
 21
-8.4202646143
 31
0.0
  0
LINE
  5
192
330
1F
100
AcDbEntity
  8
0
  6
Continuous
 62
     7
370
    25
100
AcDbLine
 10
4.6951582404
 20
-12.6256209831
 30
0.0
 11
4.4566244805
 21
-12.7004651234
 31
0.0
  0
LINE
  5
193
330
1F
100
AcDbEntity
  8
0
  6
Continuous
 62
     7
370
    25
100
AcDbLine
 10
-5.2883649459
 20
-19.1934274094
 30
0.0
 11
-5.0493811412
 21
-18.4317352727
 31
0.0
  0
LINE
  5
194
330
1F
100
AcDbEntity
  8
0
  6
Continuous
 62
     7
370
    25
100
AcDbLine
 10
9.047459635
 20
-17.7426414371
 30
0.0
 11
9.3949618022
 21
-18.3687146802
 31
0.0
  0
LINE
  5
195
330
1F
100
AcDbEntity
  8
0
  6
Continuous
 62
     7
370
    25
100
AcDbLine
 10
9.2660458196
 20
-17.6213151007
 30
0.0
 11
9.047459635
 21
-17.7426414371
 31
0.0
  0
LINE
  5
196
330
1F
100
AcDbEntity
  8
0
  6
Continuous
 62
     7
370
    25
100
AcDbLine
 10
9.3244017286
 20
-17.4173675881
 30
0.0
 11
7.1600195806
 21
-13.517933631
 31
0.0
  0
LINE
  5
197
330
1F
100
AcDbEntity
  8
0
  6
Continuous
 62
     7
370
    25
100
AcDbLine
 10
5.3537866753
 20
-14.7247180711
 30
0.0
 11
5.2065406279
 21
-14.2554341275
 31
0.0
  0
LINE
  5
198
330
1F
100
AcDbEntity
  8
0
  6
Continuous
 62
     7
370
    25
100
AcDbLine
 10
4.0179976193
 20
-15.1438452569
 30
0.0
 11
5.3537866753
 21
-14.7247180711
 31
0.0
  0
LINE
  5
199
330
1F
100
AcDbEntity
  8
0
  6
Continuous
 62
     7
370
    25
100
AcDbLine
 10
3.8372193376
 20
-14.5676916252
 30
0.0
 11
4.0179976193
 21
-15.1438452569
 31
0.0
  0
LINE
  5
19A
330
1F
100
AcDbEntity
  8
0
  6
Continuous
 62
     7
370
    25
100
AcDbLine
 10
-5.3861319509
 20
-18.1688685892
 30
0.0
 11
-4.0687547975
 21
-13.9701078418
 31
0.0
  0
LINE
  5
19B
330
1F
100
AcDbEntity
  8
0
  6
Continuous
 62
     7
370
    25
100
AcDbLine
 10
-5.0493811412
 20
-18.4317352727
 30
0.0
 11
-5.2879158354
 21
-18.3568941052
 31
0.0
  0
LINE
  5
19C
330
1F
100
AcDbEntity
  8
0
  6
Continuous
 62
     7
370
    25
100
AcDbLine
 10
-19.7651757884
 20
-16.1843229707
 30
0.0
 11
-19.1378239017
 21
-15.6987248096
 31
0.0
  0
LINE
  5
19D
330
1F
100
AcDbEntity
  8
0
  6
Continuous
 62
     7
370
    25
100
AcDbLine
 10
-3.2814638269
 20
-25.3474612581
 30
0.0
 11
-3.3551778517
 21
-26.0722750191
 31
0.0
  0
LINE
  5
19E
330
1F
100
AcDbEntity
  8
0
  6
Continuous
 62
     7
370
    25
100
AcDbLine
 10
-3.0327466241
 20
-25.3727559573
 30
0.0
 11
-3.2814638269
 21
-25.3474612581
 31
0.0
  0
LINE
  5
19F
330
1F
100
AcDbEntity
  8
0
  6
Continuous
 62
     7
370
    25
100
AcDbLine
 10
-2.8683395873
 20
-25.2387026657
 30
0.0
 11
-2.4179972172
 21
-20.810625714
 31
0.0
  0
LINE
  5
1A0
330
1F
100
AcDbEntity
  8
0
  6
Continuous
 62
     7
370
    25
100
AcDbLine
 10
-5.7079834116
 20
-20.5308405701
 30
0.0
 11
-5.5577997368
 21
-20.0521733052
 31
0.0
  0
LINE
  5
1A1
330
1F
100
AcDbEntity
  8
0
  6
Continuous
 62
     7
370
    25
100
AcDbLine
 10
-7.0437776917
 20
-20.1117300344
 30
0.0
 11
-5.7079834116
 21
-20.5308405701
 31
0.0
  0
LINE
  5
1A2
330
1F
100
AcDbEntity
  8
0
  6
Continuous
 62
     7
370
    25
100
AcDbLine
 10
-6.8691957302
 20
-19.5553002485
 30
0.0
 11
-7.0437776917
 21
-20.1117300344
 31
0.0
  0
LINE
  5
1A3
330
1F
100
AcDbEntity
  8
0
  6
Continuous
 62
     7
370
    25
100
AcDbLine
 10
-19.2640452664
 20
-15.2905977296
 30
0.0
 11
-15.7785929176
 21
-12.5927368677
 31
0.0
  0
LINE
  5
1A4
330
1F
100
AcDbEntity
  8
0
  6
Continuous
 62
     7
370
    25
100
AcDbLine
 10
-19.1378239017
 20
-15.6987248096
 30
0.0
 11
-19.2908481975
 21
-15.5010303199
 31
0.0
  0
LINE
  5
1A5
330
1F
100
AcDbEntity
  8
0
  6
Continuous
 62
     7
370
    25
100
AcDbLine
 10
-1.9688654971
 20
-26.2778699347
 30
0.0
 11
-1.8886482575
 21
-25.4891114956
 31
0.0
  0
LINE
  5
1A6
330
1F
100
AcDbEntity
  8
0
  6
Continuous
 62
     7
370
    25
100
AcDbLine
 10
16.6359411521
 20
-20.4534732543
 30
0.0
 11
17.1116643091
 21
-21.0076318128
 31
0.0
  0
LINE
  5
1A7
330
1F
100
AcDbEntity
  8
0
  6
Continuous
 62
     7
370
    25
100
AcDbLine
 10
16.8256312521
 20
-20.2906318223
 30
0.0
 11
16.6359411521
 21
-20.4534732543
 31
0.0
  0
LINE
  5
1A8
330
1F
100
AcDbEntity
  8
0
  6
Continuous
 62
     7
370
    25
100
AcDbLine
 10
16.8417400608
 20
-20.0791118311
 30
0.0
 11
13.9434167611
 21
-16.7029545751
 31
0.0
  0
LINE
  5
1A9
330
1F
100
AcDbEntity
  8
0
  6
Continuous
 62
     7
370
    25
100
AcDbLine
 10
11.3392140287
 20
-18.9867723783
 30
0.0
 11
11.0955736656
 21
-18.5478205481
 31
0.0
  0
LINE
  5
1AA
330
1F
100
AcDbEntity
  8
0
  6
Continuous
 62
     7
370
    25
100
AcDbLine
 10
10.1151313947
 20
-19.6661998618
 30
0.0
 11
11.3392140287
 21
-18.9867723783
 31
0.0
  0
LINE
  5
1AB
330
1F
100
AcDbEntity
  8
0
  6
Continuous
 62
     7
370
    25
100
AcDbLine
 10
9.8334120428
 20
-19.1586434635
 30
0.0
 11
10.1151313947
 21
-19.6661998618
 31
0.0
  0
LINE
  5
1AC
330
1F
100
AcDbEntity
  8
0
  6
Continuous
 62
     7
370
    25
100
AcDbLine
 10
-2.2714186012
 20
-25.2994096367
 30
0.0
 11
-1.8253961196
 21
-20.9138088099
 31
0.0
  0
LINE
  5
1AD
330
1F
100
AcDbEntity
  8
0
  6
Continuous
 62
     7
370
    25
100
AcDbLine
 10
-1.8886482575
 20
-25.4891114956
 30
0.0
 11
-2.1373651867
 21
-25.4638168242
 31
0.0
  0
LINE
  5
1AE
330
1F
100
AcDbEntity
  8
0
  6
Continuous
 62
     7
370
    25
100
AcDbLine
 10
9.1259819097
 20
-3.1600078136
 30
0.0
 11
8.5558028814
 21
-2.9625747919
 31
0.0
  0
ARC
  5
1AF
330
1F
100
AcDbEntity
  8
0
  6
Continuous
 62
     7
370
    25
100
AcDbCircle
 10
18.9146211782
 20
-20.7282440965
 30
0.0
 40
0.1499999999997074
100
AcDbArc
 50
130.3497067907
 51
220.6447826399
  0
ARC
  5
1B0
330
1F
100
AcDbEntity
  8
0
  6
Continuous
 62
     7
370
    25
100
AcDbCircle
 10
17.585396723
 20
-21.7897561606
 30
0.0
 40
0.1499999976725706
100
AcDbArc
 50
40.6447825852
 51
126.8711014872
  0
ARC
  5
1B1
330
1F
100
AcDbEntity
  8
0
  6
Continuous
 62
     7
370
    25
100
AcDbCircle
 10
-1.9106974015
 20
-27.1884407397
 30
0.0
 40
0.1500000000000033
100
AcDbArc
 50
83.889788998
 51
174.1929451845
  0
ARC
  5
1B2
330
1F
100
AcDbEntity
  8
0
  6
Continuous
 62
     7
370
    25
100
AcDbCircle
 10
-3.5956860499
 20
-26.9546142605
 30
0.0
 40
0.1500000000116647
100
AcDbArc
 50
354.1929483925
 51
80.3067246063
  0
ARC
  5
1B3
330
1F
100
AcDbEntity
  8
0
  6
Continuous
 62
     7
370
    25
100
AcDbCircle
 10
-20.3850742692
 20
-16.8538377993
 30
0.0
 40
0.1500000000000016
100
AcDbArc
 50
37.4304884754
 51
127.74145887
  0
ARC
  5
1B4
330
1F
100
AcDbEntity
  8
0
  6
Continuous
 62
     7
370
    25
100
AcDbCircle
 10
-21.3750010577
 20
-15.4703110938
 30
0.0
 40
0.1499999999999956
100
AcDbArc
 50
307.7414589104
 51
33.7357032561
  0
ARC
  5
1B5
330
1F
100
AcDbEntity
  8
0
  6
Continuous
 62
     7
370
    25
100
AcDbCircle
 10
-20.6614937667
 20
-14.9180248311
 30
0.0
 40
0.150000000000001
100
AcDbArc
 50
213.593917571
 51
307.74145887
  0
ARC
  5
1B6
330
1F
100
AcDbEntity
  8
0
  6
Continuous
 62
     7
370
    25
100
AcDbCircle
 10
-19.7231205372
 20
-14.6975126634
 30
0.0
 40
0.1499999999999964
100
AcDbArc
 50
217.74145887
 51
307.7411123205
  0
ARC
  5
1B7
330
1F
100
AcDbEntity
  8
0
  6
Continuous
 62
     7
370
    25
100
AcDbCircle
 10
-16.2025662274
 20
-11.9724816677
 30
0.0
 40
0.1499999999999705
100
AcDbArc
 50
307.7411123205
 51
33.6362412573
  0
ARC
  5
1B8
330
1F
100
AcDbEntity
  8
0
  6
Continuous
 62
     7
370
    25
100
AcDbCircle
 10
-6.7417701899
 20
-18.648106858
 30
0.0
 40
0.1499999999999939
100
AcDbArc
 50
247.2513407851
 51
342.58055236
  0
ARC
  5
1B9
330
1F
100
AcDbEntity
  8
0
  6
Continuous
 62
     7
370
    25
100
AcDbCircle
 10
-6.1017360282
 20
-17.9443450884
 30
0.0
 40
0.1500000000000021
100
AcDbArc
 50
252.58055236
 51
342.58055236
  0
ARC
  5
1BA
330
1F
100
AcDbEntity
  8
0
  6
Continuous
 62
     7
370
    25
100
AcDbCircle
 10
-4.7658935379
 20
-13.6867313909
 30
0.0
 40
0.1499999999999931
100
AcDbArc
 50
342.58055236
 51
66.8750179519
  0
ARC
  5
1BB
330
1F
100
AcDbEntity
  8
0
  6
Continuous
 62
     7
370
    25
100
AcDbCircle
 10
-6.2240063795
 20
-12.964231937
 30
0.0
 40
0.1500000000000002
100
AcDbArc
 50
60.3981874467
 51
150.96625816
  0
ARC
  5
1BC
330
1F
100
AcDbEntity
  8
0
  6
Continuous
 62
     7
370
    25
100
AcDbCircle
 10
-7.652943978
 20
-12.0357167646
 30
0.0
 40
0.1500000000000014
100
AcDbArc
 50
330.96625816
 51
53.5597047633
  0
ARC
  5
1BD
330
1F
100
AcDbEntity
  8
0
  6
Continuous
 62
     7
370
    25
100
AcDbCircle
 10
-7.2122253433
 20
-11.2417423876
 30
0.0
 40
0.1500000000000012
100
AcDbArc
 50
233.0565457637
 51
330.9662581845
  0
ARC
  5
1BE
330
1F
100
AcDbEntity
  8
0
  6
Continuous
 62
     7
370
    25
100
AcDbCircle
 10
-6.4581289896
 20
-10.7073946116
 30
0.0
 40
0.1500000000000009
100
AcDbArc
 50
240.96625816
 51
330.96625816
  0
ARC
  5
1BF
330
1F
100
AcDbEntity
  8
0
  6
Continuous
 62
     7
370
    25
100
AcDbCircle
 10
-4.2789851027
 20
-6.7815691414
 30
0.0
 40
0.1499999999999945
100
AcDbArc
 50
330.96625816
 51
50.6827871007
  0
ARC
  5
1C0
330
1F
100
AcDbEntity
  8
0
  6
Continuous
 62
     7
370
    25
100
AcDbCircle
 10
-4.5232897385
 20
-6.5731141593
 30
0.0
 40
0.1499999999997859
100
AcDbArc
 50
48.3696661393
 51
139.3509598795
  0
ARC
  5
1C1
330
1F
100
AcDbEntity
  8
0
  6
Continuous
 62
     7
370
    25
100
AcDbCircle
 10
-5.6721682792
 20
-5.3015461241
 30
0.0
 40
0.1499999999999982
100
AcDbArc
 50
319.35095958
 51
35.7738677111
  0
ARC
  5
1C2
330
1F
100
AcDbEntity
  8
0
  6
Continuous
 62
     7
370
    25
100
AcDbCircle
 10
-5.0666896426
 20
-4.5963445347
 30
0.0
 40
0.1499999999999977
100
AcDbArc
 50
213.934904969
 51
319.3509598795
  0
ARC
  5
1C3
330
1F
100
AcDbEntity
  8
0
  6
Continuous
 62
     7
370
    25
100
AcDbCircle
 10
-3.9369130185
 20
-5.8901605918
 30
0.0
 40
0.150000000000001
100
AcDbArc
 50
139.3509596147
 51
228.243841414
  0
ARC
  5
1C4
330
1F
100
AcDbEntity
  8
0
  6
Continuous
 62
     7
370
    25
100
AcDbCircle
 10
-0.0755246166
 20
-7.6612521885
 30
0.0
 40
0.150000000001103
100
AcDbArc
 50
262.0325142483
 51
5.804848386
  0
ARC
  5
1C5
330
1F
100
AcDbEntity
  8
0
  6
Continuous
 62
     7
370
    25
100
AcDbCircle
 10
1.6379680674
 20
-7.7077830074
 30
0.0
 40
0.1500000000000047
100
AcDbArc
 50
185.8048483862
 51
274.7993807508
  0
ARC
  5
1C6
330
1F
100
AcDbEntity
  8
0
  6
Continuous
 62
     7
370
    25
100
AcDbCircle
 10
6.1508751753
 20
-5.8366613
 30
0.0
 40
0.1500000000000011
100
AcDbArc
 50
309.8090407454
 51
52.25465088
  0
ARC
  5
1C7
330
1F
100
AcDbEntity
  8
0
  6
Continuous
 62
     7
370
    25
100
AcDbCircle
 10
7.3485616356
 20
-4.6139668331
 30
0.0
 40
0.1500000000000657
100
AcDbArc
 50
232.25465088
 51
321.3356863353
  0
ARC
  5
1C8
330
1F
100
AcDbEntity
  8
0
  6
Continuous
 62
     7
370
    25
100
AcDbCircle
 10
8.9265039552
 20
-3.877583453
 30
0.0
 40
0.1500000000000017
100
AcDbArc
 50
150.6884734514
 51
243.87019044
  0
ARC
  5
1C9
330
1F
100
AcDbEntity
  8
0
  6
Continuous
 62
     7
370
    25
100
AcDbCircle
 10
12.8647098225
 20
-5.8094319398
 30
0.0
 40
0.1500000000000073
100
AcDbArc
 50
243.87019044
 51
333.87019044
  0
ARC
  5
1CA
330
1F
100
AcDbEntity
  8
0
  6
Continuous
 62
     7
370
    25
100
AcDbCircle
 10
13.8996459863
 20
-5.8715755438
 30
0.0
 40
0.1500000000000006
100
AcDbArc
 50
243.8701903812
 51
333.3222725501
  0
ARC
  5
1CB
330
1F
100
AcDbEntity
  8
0
  6
Continuous
 62
     7
370
    25
100
AcDbCircle
 10
14.7077388502
 20
-6.2679776195
 30
0.0
 40
0.1499999999999703
100
AcDbArc
 50
153.3577331352
 51
243.87019044
  0
ARC
  5
1CC
330
1F
100
AcDbEntity
  8
0
  6
Continuous
 62
     7
370
    25
100
AcDbCircle
 10
13.8636002768
 20
-7.7474141874
 30
0.0
 40
0.1499999999999717
100
AcDbArc
 50
63.87019044
 51
147.2186276571
  0
ARC
  5
1CD
330
1F
100
AcDbEntity
  8
0
  6
Continuous
 62
     7
370
    25
100
AcDbCircle
 10
7.8441335343
 20
-13.2050407964
 30
0.0
 40
0.1500000000000093
100
AcDbArc
 50
117.005984991
 51
209.03247974
  0
ARC
  5
1CE
330
1F
100
AcDbEntity
  8
0
  6
Continuous
 62
     7
370
    25
100
AcDbCircle
 10
9.9801602834
 20
-17.0533885786
 30
0.0
 40
0.15
100
AcDbArc
 50
209.03247974
 51
299.03247974
  0
ARC
  5
1CF
330
1F
100
AcDbEntity
  8
0
  6
Continuous
 62
     7
370
    25
100
AcDbCircle
 10
10.7899405206
 20
-17.6880963798
 30
0.0
 40
0.1500000000000115
100
AcDbArc
 50
209.03247974
 51
298.6354206133
  0
ARC
  5
1D0
330
1F
100
AcDbEntity
  8
0
  6
Continuous
 62
     7
370
    25
100
AcDbCircle
 10
14.5392763688
 20
-16.2456331482
 30
0.0
 40
0.1500000000000044
100
AcDbArc
 50
129.2159588289
 51
220.645037827
  0
ARC
  5
1D1
330
1F
100
AcDbEntity
  8
0
  6
Continuous
 62
     7
370
    25
100
AcDbCircle
 10
17.4108123158
 20
-19.5905867373
 30
0.0
 40
0.1500000000000043
100
AcDbArc
 50
220.645037827
 51
310.64478264
  0
ARC
  5
1D2
330
1F
100
AcDbEntity
  8
0
  6
Continuous
 62
     7
370
    25
100
AcDbCircle
 10
18.3283824583
 20
-20.0453485933
 30
0.0
 40
0.1500000000001235
100
AcDbArc
 50
220.6447828809
 51
310.3399318266
  0
ARC
  5
1D3
330
1F
100
AcDbEntity
  8
0
  6
Continuous
 62
     7
370
    25
100
AcDbCircle
 10
-5.7871914896
 20
-12.1772903209
 30
0.0
 40
0.1500000000000009
100
AcDbArc
 50
150.9662580392
 51
240.3602136787
  0
ARC
  5
1D4
330
1F
100
AcDbEntity
  8
0
  6
Continuous
 62
     7
370
    25
100
AcDbCircle
 10
3.4225015828
 20
-13.7469967441
 30
0.0
 40
0.1499999999999994
100
AcDbArc
 50
279.9637869828
 51
17.4201615123
  0
ARC
  5
1D5
330
1F
100
AcDbEntity
  8
0
  6
Continuous
 62
     7
370
    25
100
AcDbCircle
 10
3.5529964602
 20
-12.8267837726
 30
0.0
 40
0.1500000000000025
100
AcDbArc
 50
287.42016181
 51
17.42016181
  0
ARC
  5
1D6
330
1F
100
AcDbEntity
  8
0
  6
Continuous
 62
     7
370
    25
100
AcDbCircle
 10
2.2106033987
 20
-8.5484787122
 30
0.0
 40
0.1499999999999898
100
AcDbArc
 50
17.42016181
 51
98.0780267685
  0
ARC
  5
1D7
330
1F
100
AcDbEntity
  8
0
  6
Continuous
 62
     7
370
    25
100
AcDbCircle
 10
1.7290070442
 20
-8.6032912966
 30
0.0
 40
0.150000000603718
100
AcDbArc
 50
94.9034766556
 51
185.8048483862
  0
ARC
  5
1D8
330
1F
100
AcDbEntity
  8
0
  6
Continuous
 62
     7
370
    25
100
AcDbCircle
 10
0.017899738
 20
-8.5802243478
 30
0.0
 40
0.1500000000000016
100
AcDbArc
 50
5.804848463
 51
83.5154429
  0
ARC
  5
1D9
330
1F
100
AcDbEntity
  8
0
  6
Continuous
 62
     7
370
    25
100
AcDbCircle
 10
-3.5459854793
 20
-7.3154663915
 30
0.0
 40
0.1500000000000015
100
AcDbArc
 50
57.1720010919
 51
150.96625816
  0
ARC
  5
1DA
330
1F
100
AcDbEntity
  8
0
  6
Continuous
 62
     7
370
    25
100
AcDbCircle
 10
-5.6712283463
 20
-11.1441867562
 30
0.0
 40
0.1500000000000018
100
AcDbArc
 50
150.96625816
 51
240.96625816
  0
ARC
  5
1DB
330
1F
100
AcDbEntity
  8
0
  6
Continuous
 62
     7
370
    25
100
AcDbCircle
 10
5.0802094376
 20
-13.3517660932
 30
0.0
 40
0.1500000000000039
100
AcDbArc
 50
197.4201615123
 51
286.8477649345
  0
ARC
  5
1DC
330
1F
100
AcDbEntity
  8
0
  6
Continuous
 62
     7
370
    25
100
AcDbCircle
 10
13.0497308977
 20
-7.3481784996
 30
0.0
 40
0.1499999999999122
100
AcDbArc
 50
326.8211771138
 51
63.87019044
  0
ARC
  5
1DD
330
1F
100
AcDbEntity
  8
0
  6
Continuous
 62
     7
370
    25
100
AcDbCircle
 10
12.4683441241
 20
-6.6174506483
 30
0.0
 40
0.1500000000000068
100
AcDbArc
 50
333.87019044
 51
63.87019044
  0
ARC
  5
1DE
330
1F
100
AcDbEntity
  8
0
  6
Continuous
 62
     7
370
    25
100
AcDbCircle
 10
8.4470526554
 20
-4.64484533
 30
0.0
 40
0.1499999999999909
100
AcDbArc
 50
63.87019044
 51
145.3056154257
  0
ARC
  5
1DF
330
1F
100
AcDbEntity
  8
0
  6
Continuous
 62
     7
370
    25
100
AcDbCircle
 10
8.060309469
 20
-5.1649684813
 30
0.0
 40
0.1500000000000343
100
AcDbArc
 50
141.4226984644
 51
232.25465088
  0
ARC
  5
1E0
330
1F
100
AcDbEntity
  8
0
  6
Continuous
 62
     7
370
    25
100
AcDbCircle
 10
6.8779605914
 20
-6.3995365823
 30
0.0
 40
0.1500000000005277
100
AcDbArc
 50
52.2546508802
 51
131.0260670067
  0
ARC
  5
1E1
330
1F
100
AcDbEntity
  8
0
  6
Continuous
 62
     7
370
    25
100
AcDbCircle
 10
3.0995464939
 20
-8.3753581301
 30
0.0
 40
0.1500000000000022
100
AcDbArc
 50
103.9536266917
 51
197.42016181
  0
ARC
  5
1E2
330
1F
100
AcDbEntity
  8
0
  6
Continuous
 62
     7
370
    25
100
AcDbCircle
 10
4.4117179963
 20
-12.5573448674
 30
0.0
 40
0.1499999999999987
100
AcDbArc
 50
197.42016181
 51
287.42016181
  0
ARC
  5
1E3
330
1F
100
AcDbEntity
  8
0
  6
Continuous
 62
     7
370
    25
100
AcDbCircle
 10
-5.1452441302
 20
-19.2383321096
 30
0.0
 40
0.1500000000000053
100
AcDbArc
 50
162.58055236
 51
252.1698461421
  0
ARC
  5
1E4
330
1F
100
AcDbEntity
  8
0
  6
Continuous
 62
     7
370
    25
100
AcDbCircle
 10
9.2638100914
 20
-18.441510482
 30
0.0
 40
0.1500000000000009
100
AcDbArc
 50
293.9126996061
 51
29.03247974
  0
ARC
  5
1E5
330
1F
100
AcDbEntity
  8
0
  6
Continuous
 62
     7
370
    25
100
AcDbCircle
 10
9.1932500178
 20
-17.4901633899
 30
0.0
 40
0.1499999999999959
100
AcDbArc
 50
299.03247974
 51
29.03247974
  0
ARC
  5
1E6
330
1F
100
AcDbEntity
  8
0
  6
Continuous
 62
     7
370
    25
100
AcDbCircle
 10
7.0288678699
 20
-13.5907294328
 30
0.0
 40
0.1499999999999958
100
AcDbArc
 50
29.03247974
 51
113.6285601403
  0
ARC
  5
1E7
330
1F
100
AcDbEntity
  8
0
  6
Continuous
 62
     7
370
    25
100
AcDbCircle
 10
5.3496608927
 20
-14.2105276414
 30
0.0
 40
0.1500000001108716
100
AcDbArc
 50
106.881764601
 51
197.4201615123
  0
ARC
  5
1E8
330
1F
100
AcDbEntity
  8
0
  6
Continuous
 62
     7
370
    25
100
AcDbCircle
 10
3.6940991435
 20
-14.6125980891
 30
0.0
 40
0.1500000000000077
100
AcDbArc
 50
17.4201615038
 51
100.4121561084
  0
ARC
  5
1E9
330
1F
100
AcDbEntity
  8
0
  6
Continuous
 62
     7
370
    25
100
AcDbCircle
 10
-3.9256339818
 20
-14.015012542
 30
0.0
 40
0.1500000000000022
100
AcDbArc
 50
70.4434102171
 51
162.58055236
  0
ARC
  5
1EA
330
1F
100
AcDbEntity
  8
0
  6
Continuous
 62
     7
370
    25
100
AcDbCircle
 10
-5.2430111352
 20
-18.2137732895
 30
0.0
 40
0.1500000000000029
100
AcDbArc
 50
162.58055236
 51
252.58055236
  0
ARC
  5
1EB
330
1F
100
AcDbEntity
  8
0
  6
Continuous
 62
     7
370
    25
100
AcDbCircle
 10
-19.6733608781
 20
-16.3029400945
 30
0.0
 40
0.1500000000000045
100
AcDbArc
 50
127.7414588722
 51
217.4195110338
  0
ARC
  5
1EC
330
1F
100
AcDbEntity
  8
0
  6
Continuous
 62
     7
370
    25
100
AcDbCircle
 10
-3.5044080919
 20
-26.0570982079
 30
0.0
 40
0.1500000000000093
100
AcDbArc
 50
260.1732185488
 51
354.1929483582
  0
ARC
  5
1ED
330
1F
100
AcDbEntity
  8
0
  6
Continuous
 62
     7
370
    25
100
AcDbCircle
 10
-3.017569813
 20
-25.2235257177
 30
0.0
 40
0.1500000000000078
100
AcDbArc
 50
264.19294834
 51
354.1928958113
  0
ARC
  5
1EE
330
1F
100
AcDbEntity
  8
0
  6
Continuous
 62
     7
370
    25
100
AcDbCircle
 10
-2.5672274429
 20
-20.795448766
 30
0.0
 40
0.1500000000000191
100
AcDbArc
 50
354.1928958113
 51
80.2425579404
  0
ARC
  5
1EF
330
1F
100
AcDbEntity
  8
0
  6
Continuous
 62
     7
370
    25
100
AcDbCircle
 10
-5.414678921
 20
-20.0970780055
 30
0.0
 40
0.1500000000000021
100
AcDbArc
 50
72.187677949
 51
162.58055236
  0
ARC
  5
1F0
330
1F
100
AcDbEntity
  8
0
  6
Continuous
 62
     7
370
    25
100
AcDbCircle
 10
-7.0123165459
 20
-19.5103955482
 30
0.0
 40
0.1499999999999941
100
AcDbArc
 50
342.58055236
 51
67.4833715468
  0
ARC
  5
1F1
330
1F
100
AcDbEntity
  8
0
  6
Continuous
 62
     7
370
    25
100
AcDbCircle
 10
-15.6867787244
 20
-12.7113545474
 30
0.0
 40
0.1499999999999976
100
AcDbArc
 50
36.1980076108
 51
127.7411123207
  0
ARC
  5
1F2
330
1F
100
AcDbEntity
  8
0
  6
Continuous
 62
     7
370
    25
100
AcDbCircle
 10
-19.1722310732
 20
-15.4092154092
 30
0.0
 40
0.1500000000000044
100
AcDbArc
 50
127.7411123207
 51
217.74145887
  0
ARC
  5
1F3
330
1F
100
AcDbEntity
  8
0
  6
Continuous
 62
     7
370
    25
100
AcDbCircle
 10
-1.8196352082
 20
-26.2930467509
 30
0.0
 40
0.1499999999999997
100
AcDbArc
 50
174.19294834
 51
263.8794362648
  0
ARC
  5
1F4
330
1F
100
AcDbEntity
  8
0
  6
Continuous
 62
     7
370
    25
100
AcDbCircle
 10
16.9978499421
 20
-21.1053369356
 30
0.0
 40
0.150000000000002
100
AcDbArc
 50
306.7455689367
 51
40.6447825852
  0
ARC
  5
1F5
330
1F
100
AcDbEntity
  8
0
  6
Continuous
 62
     7
370
    25
100
AcDbCircle
 10
16.7279261318
 20
-20.1768174582
 30
0.0
 40
0.1500000000000063
100
AcDbArc
 50
310.64478264
 51
40.645037827
  0
ARC
  5
1F6
330
1F
100
AcDbEntity
  8
0
  6
Continuous
 62
     7
370
    25
100
AcDbCircle
 10
13.8296028322
 20
-16.8006602022
 30
0.0
 40
0.1499999999999631
100
AcDbArc
 50
40.645037827
 51
126.8405319267
  0
ARC
  5
1F7
330
1F
100
AcDbEntity
  8
0
  6
Continuous
 62
     7
370
    25
100
AcDbCircle
 10
11.2267253783
 20
-18.4750247452
 30
0.0
 40
0.1499999999999959
100
AcDbArc
 50
118.6519893854
 51
209.0324797345
  0
ARC
  5
1F8
330
1F
100
AcDbEntity
  8
0
  6
Continuous
 62
     7
370
    25
100
AcDbCircle
 10
9.702260332
 20
-19.2314392653
 30
0.0
 40
0.1499999999999985
100
AcDbArc
 50
29.03247974
 51
114.1272136631
  0
ARC
  5
1F9
330
1F
100
AcDbEntity
  8
0
  6
Continuous
 62
     7
370
    25
100
AcDbCircle
 10
-1.676165894
 20
-20.9289857579
 30
0.0
 40
0.1499999999999976
100
AcDbArc
 50
82.709795533
 51
174.1928958113
  0
ARC
  5
1FA
330
1F
100
AcDbEntity
  8
0
  6
Continuous
 62
     7
370
    25
100
AcDbCircle
 10
-2.1221883755
 20
-25.3145865846
 30
0.0
 40
0.1500000000000017
100
AcDbArc
 50
174.1928958113
 51
264.19294834
  0
ENDSEC
  0
SECTION
  2
OBJECTS
  0
DICTIONARY
  5
C
330
0
100
AcDbDictionary
281
     1
  3
ACAD_GROUP
350
D
  3
ACAD_LAYOUT
350
1A
  3
ACAD_MLINESTYLE
350
17
  3
ACAD_PLOTSETTINGS
350
19
  3
ACAD_PLOTSTYLENAME
350
E
  3
ACAD_SCALELIST
350
47
  3
DWGPROPS
350
1FB
  0
DICTIONARY
  5
D
102
{ACAD_REACTORS
330
C
102
}
330
C
100
AcDbDictionary
281
     1
  0
DICTIONARY
  5
1A
102
{ACAD_REACTORS
330
C
102
}
330
C
100
AcDbDictionary
281
     1
  3
Layout1
350
1E
  3
Layout2
350
26
  3
Model
350
22
  0
DICTIONARY
  5
17
102
{ACAD_REACTORS
330
C
102
}
330
C
100
AcDbDictionary
281
     1
  3
Standard
350
18
  0
DICTIONARY
  5
19
102
{ACAD_REACTORS
330
C
102
}
330
C
100
AcDbDictionary
281
     1
  0
ACDBDICTIONARYWDFLT
  5
E
102
{ACAD_REACTORS
330
C
102
}
330
C
100
AcDbDictionary
281
     1
  3
Normal
350
F
100
AcDbDictionaryWithDefault
340
F
  0
DICTIONARY
  5
47
102
{ACAD_REACTORS
330
C
102
}
330
C
100
AcDbDictionary
281
     1
  3
A0
350
48
  3
A1
350
49
  3
A2
350
4A
  3
A3
350
4B
  3
A4
350
4C
  3
A5
350
4D
  3
A6
350
4E
  3
A7
350
4F
  3
A8
350
50
  3
A9
350
51
  3
B0
350
52
  3
B1
350
53
  3
B2
350
54
  3
B3
350
55
  3
B4
350
56
  3
B5
350
57
  3
B6
350
58
  0
XRECORD
  5
1FB
102
{ACAD_REACTORS
330
C
102
}
330
C
100
AcDbXrecord
280
     1
  1
DWGPROPS COOKIE
  2

  3

  4

  6

  7

  8
Admin
  9

300
=
301
=
302
=
303
=
304
=
305
=
306
=
307
=
308
=
309
=
 40
0.0
 41
2460253.964035625
 42
2460253.964149606
  1

 90
        0
  0
LAYOUT
  5
1E
102
{ACAD_REACTORS
330
1A
102
}
330
1A
100
AcDbPlotSettings
  1

  2
none_device
  4

  6

 40
0.0
 41
0.0
 42
0.0
 43
0.0
 44
0.0
 45
0.0
 46
0.0
 47
0.0
 48
0.0
 49
0.0
140
0.0
141
0.0
142
1.0
143
1.0
 70
   688
 72
     1
 73
     0
 74
     5
  7

 75
    16
147
1.0
148
0.0
149
0.0
100
AcDbLayout
  1
Layout1
 70
     1
 71
     1
 10
0.0
 20
0.0
 11
420.0
 21
297.0
 12
0.0
 22
0.0
 32
0.0
 14
1.0000000000E+20
 24
1.0000000000E+20
 34
1.0000000000E+20
 15
-1.0000000000E+20
 25
-1.0000000000E+20
 35
-1.0000000000E+20
146
0.0
 13
0.0
 23
0.0
 33
0.0
 16
1.0
 26
0.0
 36
0.0
 17
0.0
 27
1.0
 37
0.0
 76
     0
330
1B
  0
LAYOUT
  5
26
102
{ACAD_REACTORS
330
1A
102
}
330
1A
100
AcDbPlotSettings
  1

  2
none_device
  4

  6

 40
0.0
 41
0.0
 42
0.0
 43
0.0
 44
0.0
 45
0.0
 46
0.0
 47
0.0
 48
0.0
 49
0.0
140
0.0
141
0.0
142
1.0
143
1.0
 70
   688
 72
     1
 73
     0
 74
     5
  7

 75
    16
147
1.0
148
0.0
149
0.0
100
AcDbLayout
  1
Layout2
 70
     1
 71
     2
 10
0.0
 20
0.0
 11
0.0
 21
0.0
 12
0.0
 22
0.0
 32
0.0
 14
0.0
 24
0.0
 34
0.0
 15
0.0
 25
0.0
 35
0.0
146
0.0
 13
0.0
 23
0.0
 33
0.0
 16
1.0
 26
0.0
 36
0.0
 17
0.0
 27
1.0
 37
0.0
 76
     0
330
23
  0
LAYOUT
  5
22
102
{ACAD_REACTORS
330
1A
102
}
330
1A
100
AcDbPlotSettings
  1

  2
none_device
  4
ANSI_A_(11.00_x_8.50_Inches)
  6

 40
6.35
 41
19.05
 42
6.35000508
 43
19.05000254
 44
279.4
 45
215.9
 46
118.8071280948
 47
176.1360244846
 48
0.0
 49
0.0
140
0.0
141
0.0
142
0.2241804675
143
1.0
 70
  1696
 72
     0
 73
     0
 74
     0
  7

 75
     0
147
0.0179189148
148
-1300.4909072572
149
0.0
100
AcDbLayout
  1
Model
 70
     1
 71
     0
 10
0.0
 20
0.0
 11
420.0
 21
297.0
 12
0.0
 22
0.0
 32
0.0
 14
-21.7344808911
 24
-27.677821676
 34
0.0
 15
26.8424541083
 25
-2.9625747919
 35
0.0
146
0.0
 13
0.0
 23
0.0
 33
0.0
 16
1.0
 26
0.0
 36
0.0
 17
0.0
 27
1.0
 37
0.0
 76
     0
330
1F
331
29
  0
MLINESTYLE
  5
18
102
{ACAD_REACTORS
330
17
102
}
330
17
100
AcDbMlineStyle
  2
Standard
 70
     0
  3

 62
   256
 51
90.0
 52
90.0
 71
     2
 49
0.5
 62
   256
  6
BYLAYER
 49
-0.5
 62
   256
  6
BYLAYER
  0
ACDBPLACEHOLDER
  5
F
102
{ACAD_REACTORS
330
E
102
}
330
E
  0
SCALE
  5
48
102
{ACAD_REACTORS
330
47
102
}
330
47
100
AcDbScale
 70
     0
300
1:1
140
1.0
141
1.0
290
     1
  0
SCALE
  5
49
102
{ACAD_REACTORS
330
47
102
}
330
47
100
AcDbScale
 70
     0
300
1:2
140
1.0
141
2.0
290
     0
  0
SCALE
  5
4A
102
{ACAD_REACTORS
330
47
102
}
330
47
100
AcDbScale
 70
     0
300
1:4
140
1.0
141
4.0
290
     0
  0
SCALE
  5
4B
102
{ACAD_REACTORS
330
47
102
}
330
47
100
AcDbScale
 70
     0
300
1:5
140
1.0
141
5.0
290
     0
  0
SCALE
  5
4C
102
{ACAD_REACTORS
330
47
102
}
330
47
100
AcDbScale
 70
     0
300
1:8
140
1.0
141
8.0
290
     0
  0
SCALE
  5
4D
102
{ACAD_REACTORS
330
47
102
}
330
47
100
AcDbScale
 70
     0
300
1:10
140
1.0
141
10.0
290
     0
  0
SCALE
  5
4E
102
{ACAD_REACTORS
330
47
102
}
330
47
100
AcDbScale
 70
     0
300
1:16
140
1.0
141
16.0
290
     0
  0
SCALE
  5
4F
102
{ACAD_REACTORS
330
47
102
}
330
47
100
AcDbScale
 70
     0
300
1:20
140
1.0
141
20.0
290
     0
  0
SCALE
  5
50
102
{ACAD_REACTORS
330
47
102
}
330
47
100
AcDbScale
 70
     0
300
1:30
140
1.0
141
30.0
290
     0
  0
SCALE
  5
51
102
{ACAD_REACTORS
330
47
102
}
330
47
100
AcDbScale
 70
     0
300
1:40
140
1.0
141
40.0
290
     0
  0
SCALE
  5
52
102
{ACAD_REACTORS
330
47
102
}
330
47
100
AcDbScale
 70
     0
300
1:50
140
1.0
141
50.0
290
     0
  0
SCALE
  5
53
102
{ACAD_REACTORS
330
47
102
}
330
47
100
AcDbScale
 70
     0
300
1:100
140
1.0
141
100.0
290
     0
  0
SCALE
  5
54
102
{ACAD_REACTORS
330
47
102
}
330
47
100
AcDbScale
 70
     0
300
2:1
140
2.0
141
1.0
290
     0
  0
SCALE
  5
55
102
{ACAD_REACTORS
330
47
102
}
330
47
100
AcDbScale
 70
     0
300
4:1
140
4.0
141
1.0
290
     0
  0
SCALE
  5
56
102
{ACAD_REACTORS
330
47
102
}
330
47
100
AcDbScale
 70
     0
300
8:1
140
8.0
141
1.0
290
     0
  0
SCALE
  5
57
102
{ACAD_REACTORS
330
47
102
}
330
47
100
AcDbScale
 70
     0
300
10:1
140
10.0
141
1.0
290
     0
  0
SCALE
  5
58
102
{ACAD_REACTORS
330
47
102
}
330
47
100
AcDbScale
 70
     0
300
100:1
140
100.0
141
1.0
290
     0
  0
ENDSEC
  0
EOF
