  0
SECTION
  2
HEADER
  9
$ACADVER
  1
AC1015
  9
$ACADMAINTVER
 70
     6
  9
$DWGCODEPAGE
  3
ANSI_1252
  9
$INSBASE
 10
0.0
 20
0.0
 30
0.0
  9
$EXTMIN
 10
-25.9407539851
 20
-14.6858233887
 30
0.0
  9
$EXTMAX
 10
0.7
 20
24.070784415
 30
0.0
  9
$LIMMIN
 10
0.0
 20
0.0
  9
$LIMMAX
 10
420.0
 20
297.0
  9
$ORTHOMODE
 70
     0
  9
$REGENMODE
 70
     1
  9
$FILLMODE
 70
     1
  9
$QTEXTMODE
 70
     0
  9
$MIRRTEXT
 70
     1
  9
$LTSCALE
 40
1.0
  9
$ATTMODE
 70
     1
  9
$TEXTSIZE
 40
0.35
  9
$TRACEWID
 40
1.0
  9
$TEXTSTYLE
  7
Standard
  9
$CLAYER
  8
0
  9
$CELTYPE
  6
ByLayer
  9
$CECOLOR
 62
   256
  9
$CELTSCALE
 40
1.0
  9
$DISPSILH
 70
     0
  9
$DIMSCALE
 40
1.0
  9
$DIMASZ
 40
0.3302
  9
$DIMEXO
 40
0.0
  9
$DIMDLI
 40
3.75
  9
$DIMRND
 40
0.0
  9
$DIMDLE
 40
0.0
  9
$DIMEXE
 40
0.1
  9
$DIMTP
 40
0.0
  9
$DIMTM
 40
0.0
  9
$DIMTXT
 40
0.35
  9
$DIMCEN
 40
2.5
  9
$DIMTSZ
 40
0.0
  9
$DIMTOL
 70
     0
  9
$DIMLIM
 70
     0
  9
$DIMTIH
 70
     1
  9
$DIMTOH
 70
     1
  9
$DIMSE1
 70
     0
  9
$DIMSE2
 70
     0
  9
$DIMTAD
 70
     1
  9
$DIMZIN
 70
     1
  9
$DIMBLK
  1

  9
$DIMASO
 70
     1
  9
$DIMSHO
 70
     1
  9
$DIMPOST
  1

  9
$DIMAPOST
  1

  9
$DIMALT
 70
     0
  9
$DIMALTD
 70
     3
  9
$DIMALTF
 40
0.3937007874
  9
$DIMLFAC
 40
1.0
  9
$DIMTOFL
 70
     1
  9
$DIMTVP
 40
0.0
  9
$DIMTIX
 70
     0
  9
$DIMSOXD
 70
     0
  9
$DIMSAH
 70
     0
  9
$DIMBLK1
  1

  9
$DIMBLK2
  1

  9
$DIMSTYLE
  2
ISO-25
  9
$DIMCLRD
 70
     0
  9
$DIMCLRE
 70
     0
  9
$DIMCLRT
 70
     0
  9
$DIMTFAC
 40
1.0
  9
$DIMGAP
 40
0.1524
  9
$DIMJUST
 70
     0
  9
$DIMSD1
 70
     0
  9
$DIMSD2
 70
     0
  9
$DIMTOLJ
 70
     0
  9
$DIMTZIN
 70
     1
  9
$DIMALTZ
 70
     0
  9
$DIMALTTZ
 70
     0
  9
$DIMUPT
 70
     0
  9
$DIMDEC
 70
     2
  9
$DIMTDEC
 70
     2
  9
$DIMALTU
 70
     2
  9
$DIMALTTD
 70
     3
  9
$DIMTXSTY
  7
Standard
  9
$DIMAUNIT
 70
     0
  9
$DIMADEC
 70
     2
  9
$DIMALTRND
 40
0.0
  9
$DIMAZIN
 70
     0
  9
$DIMDSEP
 70
    44
  9
$DIMATFIT
 70
     3
  9
$DIMFRAC
 70
     0
  9
$DIMLDRBLK
  1

  9
$DIMLUNIT
 70
     2
  9
$DIMLWD
 70
    -2
  9
$DIMLWE
 70
    -2
  9
$DIMTMOVE
 70
     0
  9
$LUNITS
 70
     2
  9
$LUPREC
 70
     2
  9
$SKETCHINC
 40
1.0
  9
$FILLETRAD
 40
0.0
  9
$AUNITS
 70
     0
  9
$AUPREC
 70
     2
  9
$MENU
  1
.
  9
$ELEVATION
 40
0.0
  9
$PELEVATION
 40
0.0
  9
$THICKNESS
 40
0.0
  9
$LIMCHECK
 70
     0
  9
$CHAMFERA
 40
0.0
  9
$CHAMFERB
 40
0.0
  9
$CHAMFERC
 40
0.0
  9
$CHAMFERD
 40
0.0
  9
$SKPOLY
 70
     0
  9
$TDCREATE
 40
2460254.006087523
  9
$TDUCREATE
 40
2460253.964420856
  9
$TDUPDATE
 40
2460254.007034074
  9
$TDUUPDATE
 40
2460253.965367408
  9
$TDINDWG
 40
0.0000000116
  9
$TDUSRTIMER
 40
0.0000000116
  9
$USRTIMER
 70
     1
  9
$ANGBASE
 50
0.0
  9
$ANGDIR
 70
     0
  9
$PDMODE
 70
     0
  9
$PDSIZE
 40
-1.0
  9
$PLINEWID
 40
0.0
  9
$SPLFRAME
 70
     0
  9
$SPLINETYPE
 70
     6
  9
$SPLINESEGS
 70
     8
  9
$HANDSEED
  5
1EE
  9
$SURFTAB1
 70
     6
  9
$SURFTAB2
 70
     6
  9
$SURFTYPE
 70
     6
  9
$SURFU
 70
     6
  9
$SURFV
 70
     6
  9
$UCSBASE
  2

  9
$UCSNAME
  2

  9
$UCSORG
 10
0.0
 20
0.0
 30
0.0
  9
$UCSXDIR
 10
1.0
 20
0.0
 30
0.0
  9
$UCSYDIR
 10
0.0
 20
1.0
 30
0.0
  9
$UCSORTHOREF
  2

  9
$UCSORTHOVIEW
 70
     0
  9
$UCSORGTOP
 10
0.0
 20
0.0
 30
0.0
  9
$UCSORGBOTTOM
 10
0.0
 20
0.0
 30
0.0
  9
$UCSORGLEFT
 10
0.0
 20
0.0
 30
0.0
  9
$UCSORGRIGHT
 10
0.0
 20
0.0
 30
0.0
  9
$UCSORGFRONT
 10
0.0
 20
0.0
 30
0.0
  9
$UCSORGBACK
 10
0.0
 20
0.0
 30
0.0
  9
$PUCSBASE
  2

  9
$PUCSNAME
  2

  9
$PUCSORG
 10
0.0
 20
0.0
 30
0.0
  9
$PUCSXDIR
 10
1.0
 20
0.0
 30
0.0
  9
$PUCSYDIR
 10
0.0
 20
1.0
 30
0.0
  9
$PUCSORTHOREF
  2

  9
$PUCSORTHOVIEW
 70
     0
  9
$PUCSORGTOP
 10
0.0
 20
0.0
 30
0.0
  9
$PUCSORGBOTTOM
 10
0.0
 20
0.0
 30
0.0
  9
$PUCSORGLEFT
 10
0.0
 20
0.0
 30
0.0
  9
$PUCSORGRIGHT
 10
0.0
 20
0.0
 30
0.0
  9
$PUCSORGFRONT
 10
0.0
 20
0.0
 30
0.0
  9
$PUCSORGBACK
 10
0.0
 20
0.0
 30
0.0
  9
$USERI1
 70
     0
  9
$USERI2
 70
     0
  9
$USERI3
 70
     0
  9
$USERI4
 70
     0
  9
$USERI5
 70
     0
  9
$USERR1
 40
0.0
  9
$USERR2
 40
0.0
  9
$USERR3
 40
0.0
  9
$USERR4
 40
0.0
  9
$USERR5
 40
0.0
  9
$WORLDVIEW
 70
     1
  9
$SHADEDGE
 70
     3
  9
$SHADEDIF
 70
    70
  9
$TILEMODE
 70
     1
  9
$MAXACTVP
 70
    64
  9
$PINSBASE
 10
0.0
 20
0.0
 30
0.0
  9
$PLIMCHECK
 70
     0
  9
$PEXTMIN
 10
1.0000000000E+20
 20
1.0000000000E+20
 30
1.0000000000E+20
  9
$PEXTMAX
 10
-1.0000000000E+20
 20
-1.0000000000E+20
 30
-1.0000000000E+20
  9
$PLIMMIN
 10
0.0
 20
0.0
  9
$PLIMMAX
 10
420.0
 20
297.0
  9
$UNITMODE
 70
     0
  9
$VISRETAIN
 70
     1
  9
$PLINEGEN
 70
     0
  9
$PSLTSCALE
 70
     1
  9
$TREEDEPTH
 70
  3020
  9
$CMLSTYLE
  2
Standard
  9
$CMLJUST
 70
     0
  9
$CMLSCALE
 40
20.0
  9
$PROXYGRAPHICS
 70
     1
  9
$MEASUREMENT
 70
     1
  9
$CELWEIGHT
370
    -1
  9
$ENDCAPS
280
     0
  9
$JOINSTYLE
280
     0
  9
$LWDISPLAY
290
     1
  9
$INSUNITS
 70
     4
  9
$HYPERLINKBASE
  1

  9
$STYLESHEET
  1

  9
$XEDIT
290
     1
  9
$CEPSNTYPE
380
     0
  9
$PSTYLEMODE
290
     1
  9
$FINGERPRINTGUID
  2
{77ae5786-cf76-492c-91b9-5ccdf0aa334a}
  9
$VERSIONGUID
  2
{FAEB1C32-E019-11D5-929B-00C0DF256EC4}
  9
$EXTNAMES
290
     1
  9
$PSVPSCALE
 40
0.0
  9
$OLESTARTUP
290
     0
  0
ENDSEC
  0
SECTION
  2
CLASSES
  0
CLASS
  1
ACDBDICTIONARYWDFLT
  2
AcDbDictionaryWithDefault
  3
ObjectDBX Classes
 90
        0
280
     0
281
     0
  0
CLASS
  1
VISUALSTYLE
  2
AcDbVisualStyle
  3
ObjectDBX Classes
 90
     4095
280
     0
281
     0
  0
CLASS
  1
MATERIAL
  2
AcDbMaterial
  3
ObjectDBX Classes
 90
     1153
280
     0
281
     0
  0
CLASS
  1
SCALE
  2
AcDbScale
  3
ObjectDBX Classes
 90
     1153
280
     0
281
     0
  0
CLASS
  1
TABLESTYLE
  2
AcDbTableStyle
  3
ObjectDBX Classes
 90
     4095
280
     0
281
     0
  0
CLASS
  1
MLEADERSTYLE
  2
AcDbMLeaderStyle
  3
ACDB_MLEADERSTYLE_CLASS
 90
     4095
280
     0
281
     0
  0
CLASS
  1
SUN
  2
AcDbSun
  3
SCENEOE
 90
     1153
280
     0
281
     0
  0
CLASS
  1
ACDBPLACEHOLDER
  2
AcDbPlaceHolder
  3
ObjectDBX Classes
 90
        0
280
     0
281
     0
  0
CLASS
  1
LAYOUT
  2
AcDbLayout
  3
ObjectDBX Classes
 90
        0
280
     0
281
     0
  0
ENDSEC
  0
SECTION
  2
TABLES
  0
TABLE
  2
VPORT
  5
8
330
0
100
AcDbSymbolTable
 70
     1
  0
VPORT
  5
29
330
8
100
AcDbSymbolTableRecord
100
AcDbViewportTableRecord
  2
*Active
 70
     0
 10
0.0
 20
0.0
 11
1.0
 21
1.0
 12
-12.6203769925
 22
4.6924805131
 13
0.0
 23
0.0
 14
10.0
 24
10.0
 15
10.0
 25
10.0
 16
0.0
 26
0.0
 36
1.0
 17
0.0
 27
0.0
 37
0.0
 40
39.5317399597
 41
0.6873861128
 42
50.0
 43
0.0
 44
0.0
 50
0.0
 51
0.0
 71
     0
 72
   100
 73
     1
 74
     3
 75
     0
 76
     0
 77
     0
 78
     0
281
     0
 65
     1
110
0.0
120
0.0
130
0.0
111
1.0
121
0.0
131
0.0
112
0.0
122
1.0
132
0.0
 79
     0
146
0.0
  0
ENDTAB
  0
TABLE
  2
LTYPE
  5
5
330
0
100
AcDbSymbolTable
 70
     6
  0
LTYPE
  5
14
330
5
100
AcDbSymbolTableRecord
100
AcDbLinetypeTableRecord
  2
ByBlock
 70
     0
  3

 72
    65
 73
     0
 40
0.0
  0
LTYPE
  5
15
330
5
100
AcDbSymbolTableRecord
100
AcDbLinetypeTableRecord
  2
ByLayer
 70
     0
  3

 72
    65
 73
     0
 40
0.0
  0
LTYPE
  5
16
330
5
100
AcDbSymbolTableRecord
100
AcDbLinetypeTableRecord
  2
Continuous
 70
     0
  3
Solid line
 72
    65
 73
     0
 40
0.0
  0
LTYPE
  5
5E
330
5
100
AcDbSymbolTableRecord
100
AcDbLinetypeTableRecord
  2
HIDDEN
 70
     0
  3
Hidden __ __ __ __ __ __ __ __ __ __ __ __ __ __
 72
    65
 73
     2
 40
0.1905
 49
0.127
 74
     0
 49
-0.0635
 74
     0
  0
LTYPE
  5
5F
330
5
100
AcDbSymbolTableRecord
100
AcDbLinetypeTableRecord
  2
PHANTOM
 70
     0
  3
Phantom ______  __  __  ______  __  __  ______
 72
    65
 73
     6
 40
1.27
 49
0.635
 74
     0
 49
-0.127
 74
     0
 49
0.127
 74
     0
 49
-0.127
 74
     0
 49
0.127
 74
     0
 49
-0.127
 74
     0
  0
LTYPE
  5
60
330
5
100
AcDbSymbolTableRecord
100
AcDbLinetypeTableRecord
  2
CENTER
 70
     0
  3
Center ____ _ ____ _ ____ _ ____ _ ____ _ ____
 72
    65
 73
     4
 40
1.016
 49
0.635
 74
     0
 49
-0.127
 74
     0
 49
0.127
 74
     0
 49
-0.127
 74
     0
  0
LTYPE
  5
61
330
5
100
AcDbSymbolTableRecord
100
AcDbLinetypeTableRecord
  2
CENTERX2
 70
     0
  3
Center (2x) ________  __  ________  __  _____
 72
    65
 73
     4
 40
2.032
 49
1.27
 74
     0
 49
-0.254
 74
     0
 49
0.254
 74
     0
 49
-0.254
 74
     0
  0
LTYPE
  5
62
330
5
100
AcDbSymbolTableRecord
100
AcDbLinetypeTableRecord
  2
DOT2
 70
     0
  3
Dot (.5x) ........................................
 72
    65
 73
     2
 40
0.0635
 49
0.0
 74
     0
 49
-0.0635
 74
     0
  0
ENDTAB
  0
TABLE
  2
LAYER
  5
2
330
0
100
AcDbSymbolTable
 70
     1
  0
LAYER
  5
10
330
2
100
AcDbSymbolTableRecord
100
AcDbLayerTableRecord
  2
0
 70
     0
 62
     7
  6
Continuous
370
    -3
390
F
  0
ENDTAB
  0
TABLE
  2
STYLE
  5
3
330
0
100
AcDbSymbolTable
 70
     1
  0
STYLE
  5
11
330
3
100
AcDbSymbolTableRecord
100
AcDbTextStyleTableRecord
  2
Standard
 70
     0
 40
0.0
 41
1.0
 50
0.0
 71
     0
 42
0.35
  3
txt
  4

  0
ENDTAB
  0
TABLE
  2
VIEW
  5
6
330
0
100
AcDbSymbolTable
 70
     0
  0
ENDTAB
  0
TABLE
  2
UCS
  5
7
330
0
100
AcDbSymbolTable
 70
     0
  0
ENDTAB
  0
TABLE
  2
APPID
  5
9
330
0
100
AcDbSymbolTable
 70
     1
  0
APPID
  5
12
330
9
100
AcDbSymbolTableRecord
100
AcDbRegAppTableRecord
  2
ACAD
 70
     0
  0
ENDTAB
  0
TABLE
  2
DIMSTYLE
  5
A
330
0
100
AcDbSymbolTable
 70
     1
100
AcDbDimStyleTable
  0
DIMSTYLE
105
27
330
A
100
AcDbSymbolTableRecord
100
AcDbDimStyleTableRecord
  2
ISO-25
 70
     0
 41
2.5
 42
0.625
 43
3.75
 44
1.25
 73
     0
 74
     0
 77
     1
 78
     8
140
2.5
141
2.5
143
0.0393700787
147
0.625
171
     3
172
     1
178
     0
271
     2
272
     2
274
     3
278
    44
283
     0
284
     8
340
11
  0
ENDTAB
  0
TABLE
  2
BLOCK_RECORD
  5
1
330
0
100
AcDbSymbolTable
 70
     1
  0
BLOCK_RECORD
  5
1F
330
1
100
AcDbSymbolTableRecord
100
AcDbBlockTableRecord
  2
*Model_Space
340
22
  0
BLOCK_RECORD
  5
1B
330
1
100
AcDbSymbolTableRecord
100
AcDbBlockTableRecord
  2
*Paper_Space
340
1E
  0
BLOCK_RECORD
  5
23
330
1
100
AcDbSymbolTableRecord
100
AcDbBlockTableRecord
  2
*Paper_Space0
340
26
  0
ENDTAB
  0
ENDSEC
  0
SECTION
  2
BLOCKS
  0
BLOCK
  5
20
330
1F
100
AcDbEntity
  8
0
100
AcDbBlockBegin
  2
*Model_Space
 70
     0
 10
0.0
 20
0.0
 30
0.0
  3
*Model_Space
  1

  0
ENDBLK
  5
21
330
1F
100
AcDbEntity
  8
0
100
AcDbBlockEnd
  0
BLOCK
  5
1C
330
1B
100
AcDbEntity
 67
     1
  8
0
100
AcDbBlockBegin
  2
*Paper_Space
 70
     0
 10
0.0
 20
0.0
 30
0.0
  3
*Paper_Space
  1

  0
ENDBLK
  5
1D
330
1B
100
AcDbEntity
 67
     1
  8
0
100
AcDbBlockEnd
  0
BLOCK
  5
24
330
23
100
AcDbEntity
  8
0
100
AcDbBlockBegin
  2
*Paper_Space0
 70
     0
 10
0.0
 20
0.0
 30
0.0
  3
*Paper_Space0
  1

  0
ENDBLK
  5
25
330
23
100
AcDbEntity
  8
0
100
AcDbBlockEnd
  0
ENDSEC
  0
SECTION
  2
ENTITIES
  0
SPLINE
  5
68
330
1F
100
AcDbEntity
  8
0
  6
Continuous
 62
     7
370
    25
100
AcDbSpline
210
0.0
220
0.0
230
1.0
 70
     8
 71
     3
 72
    46
 73
    42
 74
     0
 42
0.00000001
 43
0.00000001
 40
0.0
 40
0.0
 40
0.0
 40
0.0
 40
0.0083385998627605
 40
0.0166752519128274
 40
0.0250102853401869
 40
0.0333440295266368
 40
0.0416768140068595
 40
0.0500089684294057
 40
0.0583408225176106
 40
0.066672706030466
 40
0.0750049487234691
 40
0.0833378803094767
 40
0.0916718304195824
 40
0.1000071285640428
 40
0.1083441040932754
 40
0.1166830861589514
 40
0.1250244036752062
 40
0.1562671427866227
 40
0.1875061275923329
 40
0.2187586052937451
 40
0.2500418007753725
 40
0.3125152988533714
 40
0.3750471550900825
 40
0.4375399078949736
 40
0.5000451088032966
 40
0.5625153534799033
 40
0.6250354942020377
 40
0.6874999809861814
 40
0.7500227480266154
 40
0.7812734784047004
 40
0.8125112727843637
 40
0.8437527441246208
 40
0.8750144995225133
 40
0.8906349234961575
 40
0.9062520169821896
 40
0.9218678402090671
 40
0.9374844539079858
 40
0.9531039184972723
 40
0.9687282932673946
 40
0.9843596355682033
 40
1.0
 40
1.0
 40
1.0
 40
1.0
 10
-14.79391406711832
 20
19.7662129947985
 30
0.0
 10
-14.83655511421578
 20
19.73678632960715
 30
0.0
 10
-14.92182724789287
 20
19.67793987299616
 30
0.0
 10
-15.04901600708571
 20
19.5886628765428
 30
0.0
 10
-15.17565649711129
 20
19.49866322682781
 30
0.0
 10
-15.30169841427819
 20
19.40786774838744
 30
0.0
 10
-15.42715523296792
 20
19.31629604368438
 30
0.0
 10
-15.55202334273012
 20
19.22394286187571
 30
0.0
 10
-15.6763037100535
 20
19.13080961023988
 30
0.0
 10
-15.79999607531669
 20
19.03689591224462
 30
0.0
 10
-15.92310050708097
 20
18.94220186946759
 30
0.0
 10
-16.045616987256
 20
18.84672745480292
 30
0.0
 10
-16.16754551625174
 20
18.7504726778665
 30
0.0
 10
-16.28888610720708
 20
18.65343753015643
 30
0.0
 10
-16.40963870389914
 20
18.55562203900678
 30
0.0
 10
-16.5298035149832
 20
18.45702610656678
 30
0.0
 10
-16.75879938146976
 20
18.26671493774977
 30
0.0
 10
-17.09303352706446
 20
17.98043153971326
 30
0.0
 10
-17.52635822474295
 20
17.59125157412237
 30
0.0
 10
-17.95060528262464
 20
17.19182043154371
 30
0.0
 10
-18.50350648726528
 20
16.6462435164875
 30
0.0
 10
-19.17060264522357
 20
15.94008238026405
 30
0.0
 10
-19.93028836170888
 20
15.0563629877554
 30
0.0
 10
-20.6481298557561
 20
14.13806577639577
 30
0.0
 10
-21.32210615782132
 20
13.18758030370491
 30
0.0
 10
-21.95128302611194
 20
12.20666601369738
 30
0.0
 10
-22.53408181164268
 20
11.19779673383471
 30
0.0
 10
-23.06972251203704
 20
10.16276615978216
 30
0.0
 10
-23.47559370074324
 20
9.280542003431162
 30
0.0
 10
-23.775668338529
 20
8.56407408024899
 30
0.0
 10
-23.9882159588822
 20
8.021830073355686
 30
0.0
 10
-24.18822105627905
 20
7.474767799121651
 30
0.0
 10
-24.34435314719451
 20
7.015120444578839
 30
0.0
 10
-24.46289420310523
 20
6.64533159483774
 30
0.0
 10
-24.54857133785139
 20
6.367111305647398
 30
0.0
 10
-24.6310409182557
 20
6.08794845352713
 30
0.0
 10
-24.71029766316163
 20
5.807841344219787
 30
0.0
 10
-24.78636267050032
 20
5.526794938405413
 30
0.0
 10
-24.85915677655737
 20
5.24479116896994
 30
0.0
 10
-24.92897569025604
 20
4.961897471746088
 30
0.0
 10
-24.97278726701696
 20
4.772603426789793
 30
0.0
 10
-24.99469937538801
 20
4.677929097908392
 30
0.0
  0
SPLINE
  5
6E
330
1F
100
AcDbEntity
  8
0
  6
Continuous
 62
     7
370
    25
100
AcDbSpline
210
0.0
220
0.0
230
1.0
 70
     8
 71
     3
 72
    36
 73
    32
 74
     0
 42
0.00000001
 43
0.00000001
 40
0.0
 40
0.0
 40
0.0
 40
0.0
 40
0.0124026182927681
 40
0.0248052636608403
 40
0.0372084944505509
 40
0.0496128689291808
 40
0.062018945209615
 40
0.074427281175103
 40
0.0868384344041746
 40
0.0992529620957613
 40
0.111671420994572
 40
0.1240943673167749
 40
0.1365223566760326
 40
0.2228415631134732
 40
0.3092311712788225
 40
0.3955687218188661
 40
0.4819292469398381
 40
0.5682273462716981
 40
0.6546156812389502
 40
0.6977808196678752
 40
0.7409361566706316
 40
0.7841045253941044
 40
0.827308738323643
 40
0.8488970705381963
 40
0.8704792001459977
 40
0.8920579529733643
 40
0.9136361561732558
 40
0.9352166371146445
 40
0.9568022222714593
 40
0.9783957361132855
 40
1.0
 40
1.0
 40
1.0
 40
1.0
 10
-0.9612491622447275
 20
24.07078441495166
 30
0.0
 10
-1.015064942702073
 20
24.07075303223964
 30
0.0
 10
-1.122696621098298
 20
24.07069026674709
 30
0.0
 10
-1.284141328542068
 20
24.06922257687348
 30
0.0
 10
-1.445580480015261
 20
24.06674937128664
 30
0.0
 10
-1.60701420826051
 20
24.06317203554326
 30
0.0
 10
-1.768442475759979
 20
24.05851699621528
 30
0.0
 10
-1.929865293962581
 20
24.05277716990954
 30
0.0
 10
-2.091282648739754
 20
24.04595446041217
 30
0.0
 10
-2.252694579338613
 20
24.03804833817224
 30
0.0
 10
-2.414100937033945
 20
24.02905901802978
 30
0.0
 10
-2.575502271977083
 20
24.01898617125586
 30
0.0
 10
-3.056726668638218
 20
23.98572483313818
 30
0.0
 10
-3.856710858366634
 20
23.90901337526295
 30
0.0
 10
-4.969767870456995
 20
23.74968583032792
 30
0.0
 10
-6.074456209879493
 20
23.53900032888463
 30
0.0
 10
-7.167807687667057
 20
23.27744943656636
 30
0.0
 10
-8.248121116128102
 20
22.96565542728391
 30
0.0
 10
-9.135375241272763
 20
22.66455654994324
 30
0.0
 10
-9.836352738450255
 20
22.39941594835252
 30
0.0
 10
-10.35721056805073
 20
22.18858157502769
 30
0.0
 10
-10.87323261159099
 20
21.96575761688981
 30
0.0
 10
-11.29895777081984
 20
21.77019771877373
 30
0.0
 10
-11.63679821351884
 20
21.60792659200013
 30
0.0
 10
-11.88864758634941
 20
21.48339359222281
 30
0.0
 10
-12.13901610612497
 20
21.35600712624129
 30
0.0
 10
-12.38790150137376
 20
21.22576246131751
 30
0.0
 10
-12.63531424889656
 20
21.09267760666562
 30
0.0
 10
-12.88121462533165
 20
20.95668528011695
 30
0.0
 10
-13.12575104201598
 20
20.81803676266247
 30
0.0
 10
-13.28744917475112
 20
20.72323573614078
 30
0.0
 10
-13.36831836092897
 20
20.67582342695726
 30
0.0
  0
SPLINE
  5
70
330
1F
100
AcDbEntity
  8
0
  6
Continuous
 62
     7
370
    25
100
AcDbSpline
210
0.0
220
0.0
230
1.0
 70
     8
 71
     3
 72
    37
 73
    33
 74
     0
 42
0.00000001
 43
0.00000001
 40
0.0
 40
0.0
 40
0.0
 40
0.0
 40
0.0123475521433445
 40
0.0246912069872635
 40
0.0370314868236695
 40
0.0493689143731057
 40
0.061704012718728
 40
0.0740373052400516
 40
0.0863693155465142
 40
0.0987005674108895
 40
0.1110315847025976
 40
0.1233628913209552
 40
0.135695011128404
 40
0.1480284678837667
 40
0.1603637851755643
 40
0.1727014863554449
 40
0.2158996180234818
 40
0.2590648421635775
 40
0.3022198153897468
 40
0.3453872104567317
 40
0.4317613864835277
 40
0.5180501783481792
 40
0.6043888112566635
 40
0.6907092290178928
 40
0.7770663310027089
 40
0.8633622529206373
 40
0.8861612184148274
 40
0.9089452208964213
 40
0.931717676892198
 40
0.9544820081277124
 40
0.977241639992995
 40
1.0
 40
1.0
 40
1.0
 40
1.0
 10
-13.00492319324632
 20
20.19351172100166
 30
0.0
 10
-12.95995875644131
 20
20.2197891463724
 30
0.0
 10
-12.87004407510776
 20
20.27233570308169
 30
0.0
 10
-12.73454536382371
 20
20.3500303856704
 30
0.0
 10
-12.59861770540706
 20
20.42688376543633
 30
0.0
 10
-12.46221435040463
 20
20.50281618942299
 30
0.0
 10
-12.32534782128597
 20
20.57784899165095
 30
0.0
 10
-12.18801476467643
 20
20.651976456965
 30
0.0
 10
-12.05021607968884
 20
20.72520011574919
 30
0.0
 10
-11.91195152672555
 20
20.79751955754575
 30
0.0
 10
-11.77322116961528
 20
20.86893489154482
 30
0.0
 10
-11.63402499705648
 20
20.93944608895829
 30
0.0
 10
-11.49436299493896
 20
21.00905315344069
 30
0.0
 10
-11.35423523558227
 20
21.07775609696655
 30
0.0
 10
-11.21364144838725
 20
21.14555486589601
 30
0.0
 10
-10.95498473523574
 20
21.26821851965109
 30
0.0
 10
-10.57622217879364
 20
21.44107865875595
 30
0.0
 10
-10.07414213639163
 20
21.65646411970316
 30
0.0
 10
-9.567372419096412
 20
21.86023787067269
 30
0.0
 10
-8.885460332334507
 20
22.11643859905595
 30
0.0
 10
-8.02247178893206
 20
22.40728092048247
 30
0.0
 10
-6.971943842331106
 20
22.70826651711594
 30
0.0
 10
-5.908891858447624
 20
22.96056341044278
 30
0.0
 10
-4.83504048644314
 20
23.16356500862906
 30
0.0
 10
-3.75316458278401
 20
23.31681680194954
 30
0.0
 10
-2.932113875975861
 20
23.39446687886881
 30
0.0
 10
-2.377042864811271
 20
23.43061192082327
 30
0.0
 10
-2.089126306040272
 20
23.4458213591359
 30
0.0
 10
-1.801192091084711
 20
23.45751359253785
 30
0.0
 10
-1.513238893795646
 20
23.46560309828974
 30
0.0
 10
-1.225266373392074
 20
23.47041149399296
 30
0.0
 10
-1.033277955819771
 20
23.47062914463349
 30
0.0
 10
-0.9372864292923055
 20
23.47073796691297
 30
0.0
  0
SPLINE
  5
77
330
1F
100
AcDbEntity
  8
0
  6
Continuous
 62
     7
370
    25
100
AcDbSpline
210
0.0
220
0.0
230
1.0
 70
     8
 71
     3
 72
    22
 73
    18
 74
     0
 42
0.00000001
 43
0.00000001
 40
0.0
 40
0.0
 40
0.0
 40
0.0
 40
0.0576955638755947
 40
0.1153743215467783
 40
0.173039653265149
 40
0.2306949416437423
 40
0.2883435710635134
 40
0.3459889270782684
 40
0.4036343958185599
 40
0.4612833633950775
 40
0.5189392153020532
 40
0.5766053358212136
 40
0.6342851074267924
 40
0.6919819101921421
 40
0.7946451742845743
 40
0.8973115502370298
 40
0.9999999999999999
 40
0.9999999999999999
 40
0.9999999999999999
 40
0.9999999999999999
 10
-7.971286581081586
 20
16.41716039154385
 30
0.0
 10
-8.01423589388919
 20
16.39901509942622
 30
0.0
 10
-8.100122008751717
 20
16.36272980075312
 30
0.0
 10
-8.228402130755311
 20
16.30706093347277
 30
0.0
 10
-8.356252593278597
 20
16.2504951683097
 30
0.0
 10
-8.483635717386704
 20
16.19294277144089
 30
0.0
 10
-8.610561593792543
 20
16.13442777921538
 30
0.0
 10
-8.737027519041561
 20
16.07494375591913
 30
0.0
 10
-8.863034210483828
 20
16.01449241676374
 30
0.0
 10
-8.988581493903183
 20
15.95307333932432
 30
0.0
 10
-9.113669341067396
 20
15.8906865020181
 30
0.0
 10
-9.238298031538848
 20
15.82733241782077
 30
0.0
 10
-9.362466467432675
 20
15.76300906008531
 30
0.0
 10
-9.518302259734584
 20
15.68077192259555
 30
0.0
 10
-9.705203072341549
 20
15.57952651797784
 30
0.0
 10
-9.922567511747475
 20
15.4582125695491
 30
0.0
 10
-10.06606417712174
 20
15.37485029327588
 30
0.0
 10
-10.13782022211413
 20
15.33316467478901
 30
0.0
  0
SPLINE
  5
7D
330
1F
100
AcDbEntity
  8
0
  6
Continuous
 62
     7
370
    25
100
AcDbSpline
210
0.0
220
0.0
230
1.0
 70
     8
 71
     3
 72
    24
 73
    20
 74
     0
 42
0.00000001
 43
0.00000001
 40
0.0
 40
0.0
 40
0.0
 40
0.0
 40
0.0241195576613126
 40
0.04824258690353
 40
0.0723705525811548
 40
0.0965049186498273
 40
0.1206471479008512
 40
0.1447987016967788
 40
0.1689610397082885
 40
0.3074301504945906
 40
0.4459950532474939
 40
0.5844178059984507
 40
0.7230014072900982
 40
0.7691809863507585
 40
0.8153419846507114
 40
0.8614943914407579
 40
0.9076482015501816
 40
0.9538134088968043
 40
0.9999999999999999
 40
0.9999999999999999
 40
0.9999999999999999
 40
0.9999999999999999
 10
-0.7118657631381448
 20
17.82593732129042
 30
0.0
 10
-0.7581575892457393
 20
17.8265633030332
 30
0.0
 10
-0.8507479043451255
 20
17.82781535661767
 30
0.0
 10
-0.989659397024327
 20
17.82832081212137
 30
0.0
 10
-1.128598277818922
 20
17.82782161089523
 30
0.0
 10
-1.267566137180623
 20
17.82621914123018
 30
0.0
 10
-1.406562418934126
 20
17.82353989836751
 30
0.0
 10
-1.545587747983709
 20
17.81977654423399
 30
0.0
 10
-1.903887880767599
 20
17.8072932896522
 30
0.0
 10
-2.481158291660066
 20
17.77203273397245
 30
0.0
 10
-3.274403625849839
 20
17.68788409548423
 30
0.0
 10
-4.063351768180302
 20
17.56859280699008
 30
0.0
 10
-4.672224482690327
 20
17.44872833318205
 30
0.0
 10
-5.104428530924393
 20
17.3503766495414
 30
0.0
 10
-5.362743126162925
 20
17.28758017484259
 30
0.0
 10
-5.620062709084555
 20
17.2210211056809
 30
0.0
 10
-5.876360209164059
 20
17.1506084116953
 30
0.0
 10
-6.131741737079579
 20
17.07668102131199
 30
0.0
 10
-6.301068835222737
 20
17.02422532655665
 30
0.0
 10
-6.385751987861917
 20
16.99799140620679
 30
0.0
  0
SPLINE
  5
7F
330
1F
100
AcDbEntity
  8
0
  6
Continuous
 62
     7
370
    25
100
AcDbSpline
210
0.0
220
0.0
230
1.0
 70
     8
 71
     3
 72
    27
 73
    23
 74
     0
 42
0.00000001
 43
0.00000001
 40
0.0
 40
0.0
 40
0.0
 40
0.0
 40
0.0231844037984477
 40
0.0463626832734382
 40
0.0695360737608872
 40
0.092705811378706
 40
0.1158731328295145
 40
0.1390392752028876
 40
0.1622054757772894
 40
0.18537297182186
 40
0.208543000398207
 40
0.2317167981623631
 40
0.2548956011670708
 40
0.2780806446645463
 40
0.417178210694506
 40
0.5561209197525889
 40
0.6951615489005906
 40
0.8341384170355407
 40
0.8756379941408333
 40
0.9171099399345951
 40
0.9585615173424679
 40
1.0
 40
1.0
 40
1.0
 40
1.0
 10
-6.11817152445096
 20
16.45291469356521
 30
0.0
 10
-6.077474002421311
 20
16.46538367982357
 30
0.0
 10
-5.996089708898925
 20
16.49031835856981
 30
0.0
 10
-5.873685303059431
 20
16.52658538653608
 30
0.0
 10
-5.751064543121395
 20
16.56201412349856
 30
0.0
 10
-5.628202434955626
 20
16.59652359692441
 30
0.0
 10
-5.505105674924887
 20
16.63013549659551
 30
0.0
 10
-5.381772471026872
 20
16.66284401152818
 30
0.0
 10
-5.258203302513126
 20
16.69465069830893
 30
0.0
 10
-5.13439805046742
 20
16.72555513909738
 30
0.0
 10
-5.010356717686415
 20
16.75555744719366
 30
0.0
 10
-4.886079418331832
 20
16.7846575858758
 30
0.0
 10
-4.761565699266251
 20
16.8128555875462
 30
0.0
 10
-4.42894307389613
 20
16.8856355871634
 30
0.0
 10
-3.885656544123112
 20
16.99004858687731
 30
0.0
 10
-3.127824361648217
 20
17.1013726515154
 30
0.0
 10
-2.366036904028439
 20
17.17916344494964
 30
0.0
 10
-1.780179487064201
 20
17.21279773419481
 30
0.0
 10
-1.372860700889046
 20
17.22448245925269
 30
0.0
 10
-1.14445076799965
 20
17.22795730951589
 30
0.0
 10
-0.9161235233231424
 20
17.22862356999415
 30
0.0
 10
-0.7639567054981269
 20
17.22651039550403
 30
0.0
 10
-0.687885316039387
 20
17.22545397517581
 30
0.0
  0
SPLINE
  5
86
330
1F
100
AcDbEntity
  8
0
  6
Continuous
 62
     7
370
    25
100
AcDbSpline
210
0.0
220
0.0
230
1.0
 70
     8
 71
     3
 72
    18
 73
    14
 74
     0
 42
0.00000001
 43
0.00000001
 40
0.0
 40
0.0
 40
0.0
 40
0.0
 40
0.0912230710059112
 40
0.1824436640199626
 40
0.2736686735485642
 40
0.3649049930968918
 40
0.4561595136069925
 40
0.5474391218987963
 40
0.6387506991157866
 40
0.7301011191770909
 40
0.8214972472377011
 40
0.912945938158564
 40
1.0
 40
1.0
 40
1.0
 40
1.0
 10
-3.208241957966842
 20
11.38084619056258
 30
0.0
 10
-3.241775039079027
 20
11.37428068430966
 30
0.0
 10
-3.308840290407709
 20
11.36114985014982
 30
0.0
 10
-3.409217401868524
 20
11.3403454147169
 30
0.0
 10
-3.509427266317286
 20
11.3187307920815
 30
0.0
 10
-3.609454503872599
 20
11.2962263655143
 30
0.0
 10
-3.70930320545307
 20
11.27285337458449
 30
0.0
 10
-3.808972378618292
 20
11.24860648821938
 30
0.0
 10
-3.908461891180479
 20
11.22348578945627
 30
0.0
 10
-4.007773255683651
 20
11.19749628559317
 30
0.0
 10
-4.106900540287389
 20
11.17061785411696
 30
0.0
 10
-4.204259294286004
 20
11.14337560879788
 30
0.0
 10
-4.268453218096085
 20
11.12467476145621
 30
0.0
 10
-4.299759972343447
 20
11.11555453952252
 30
0.0
  0
SPLINE
  5
8C
330
1F
100
AcDbEntity
  8
0
  6
Continuous
 62
     7
370
    25
100
AcDbSpline
210
0.0
220
0.0
230
1.0
 70
     8
 71
     3
 72
    17
 73
    13
 74
     0
 42
0.00000001
 43
0.00000001
 40
0.0
 40
0.0
 40
0.0
 40
0.0
 40
0.0997682414348895
 40
0.1995650477251471
 40
0.2993990417327868
 40
0.3992788366883086
 40
0.4992130339795965
 40
0.599210220956075
 40
0.6992789687508819
 40
0.7994278301237905
 40
0.8996653373275161
 40
1.0
 40
1.0
 40
1.0
 40
1.0
 10
-0.462502064237312
 20
11.58164864924311
 30
0.0
 10
-0.4981746349982066
 20
11.58318403600575
 30
0.0
 10
-0.569529990008874
 20
11.58625524913086
 30
0.0
 10
-0.6766298857716415
 20
11.58960030068967
 30
0.0
 10
-0.7837934072544989
 20
11.59202245250829
 30
0.0
 10
-0.8910246937135186
 20
11.59343088921341
 30
0.0
 10
-0.9983226524293481
 20
11.59385038744836
 30
0.0
 10
-1.105687498464457
 20
11.59327270644703
 30
0.0
 10
-1.213119451227856
 20
11.59170602523759
 30
0.0
 10
-1.320617402611558
 20
11.58912585072545
 30
0.0
 10
-1.428185556987908
 20
11.585622086248
 30
0.0
 10
-1.499897207092436
 20
11.5824484379694
 30
0.0
 10
-1.535770400404179
 20
11.58086084518586
 30
0.0
  0
SPLINE
  5
8E
330
1F
100
AcDbEntity
  8
0
  6
Continuous
 62
     7
370
    25
100
AcDbSpline
210
0.0
220
0.0
230
1.0
 70
     8
 71
     3
 72
    16
 73
    12
 74
     0
 42
0.00000001
 43
0.00000001
 40
0.0
 40
0.0
 40
0.0
 40
0.0
 40
0.1114532141907124
 40
0.2227982372419038
 40
0.3340447479974898
 40
0.4452024510346947
 40
0.5562810742072699
 40
0.667290366158507
 40
0.7782400938071483
 40
0.8891400398093576
 40
0.9999999999999999
 40
0.9999999999999999
 40
0.9999999999999999
 40
0.9999999999999999
 10
-1.364315601923019
 20
10.98731167423305
 30
0.0
 10
-1.329924666407953
 20
10.988385068171
 30
0.0
 10
-1.261176179740302
 20
10.99053081406965
 30
0.0
 10
-1.158068222843463
 20
10.99253106288933
 30
0.0
 10
-1.055039137856523
 20
10.99363666155635
 30
0.0
 10
-0.9520859512388167
 20
10.99376097046236
 30
0.0
 10
-0.8492095410104858
 20
10.99292560022891
 30
0.0
 10
-0.7464093792761944
 20
10.9911306341769
 30
0.0
 10
-0.6436867135926477
 20
10.98835416900792
 30
0.0
 10
-0.5410370985318282
 20
10.98468366857332
 30
0.0
 10
-0.472653434359567
 20
10.98142163416386
 30
0.0
 10
-0.4384677674462947
 20
10.97979091104992
 30
0.0
  0
SPLINE
  5
9A
330
1F
100
AcDbEntity
  8
0
  6
Continuous
 62
     7
370
    25
100
AcDbSpline
210
0.0
220
0.0
230
1.0
 70
     8
 71
     3
 72
    25
 73
    21
 74
     0
 42
0.00000001
 43
0.00000001
 40
0.0
 40
0.0
 40
0.0
 40
0.0
 40
0.0279381317205857
 40
0.0558392423857425
 40
0.0837080979378343
 40
0.1115494808837114
 40
0.1393681878992451
 40
0.1671690273976261
 40
0.1949568170674607
 40
0.2227363813868788
 40
0.2505125491200264
 40
0.3758023345354407
 40
0.500675011214786
 40
0.6258495543989556
 40
0.7504994322339112
 40
0.8006160892425972
 40
0.8505926116615877
 40
0.9004607646601536
 40
0.9502525208141966
 40
1.0
 40
1.0
 40
1.0
 40
1.0
 10
-3.214280015418467
 20
4.26163738528885
 30
0.0
 10
-3.193800874116258
 20
4.271730107943227
 30
0.0
 10
-3.152869728595767
 20
4.291902179299545
 30
0.0
 10
-3.091016703558779
 20
4.321123868258211
 30
0.0
 10
-3.028886307009699
 20
4.349558188152952
 30
0.0
 10
-2.966442504422084
 20
4.377132704485581
 30
0.0
 10
-2.903694953160407
 20
4.403866791351104
 30
0.0
 10
-2.840641032313
 20
4.429755253215744
 30
0.0
 10
-2.777281611719873
 20
4.454799503703534
 30
0.0
 10
-2.713615862576557
 20
4.478999060112069
 30
0.0
 10
-2.574792479981188
 20
4.529683614616686
 30
0.0
 10
-2.358592065757207
 20
4.599797323168882
 30
0.0
 10
-2.061459403579661
 20
4.676622386352195
 30
0.0
 10
-1.760711473396931
 20
4.735138854509053
 30
0.0
 10
-1.517503543606163
 20
4.766983027786869
 30
0.0
 10
-1.334519846722074
 20
4.782861446139227
 30
0.0
 10
-1.212190025329551
 20
4.790400253900471
 30
0.0
 10
-1.089977067644848
 20
4.794774618302478
 30
0.0
 10
-0.9678719592185581
 20
4.796268460898983
 30
0.0
 10
-0.8865414307688002
 20
4.794639771031394
 30
0.0
 10
-0.8458942552363485
 20
4.793825788333905
 30
0.0
  0
SPLINE
  5
A0
330
1F
100
AcDbEntity
  8
0
  6
Continuous
 62
     7
370
    25
100
AcDbSpline
210
0.0
220
0.0
230
1.0
 70
     8
 71
     3
 72
    27
 73
    23
 74
     0
 42
0.00000001
 43
0.00000001
 40
0.0
 40
0.0
 40
0.0
 40
0.0
 40
0.0251151603716709
 40
0.050203482951709
 40
0.0752690156053178
 40
0.1003158172470841
 40
0.1253479559031923
 40
0.150369506751592
 40
0.1753845501447836
 40
0.2003971696199852
 40
0.2254114499015165
 40
0.250431474900276
 40
0.3757856636849287
 40
0.5005413344056999
 40
0.6256702182942124
 40
0.7503940801646465
 40
0.7921540118144691
 40
0.8338219650276614
 40
0.8754191685020833
 40
0.9169669593837291
 40
0.9584867509985028
 40
0.9999999999999999
 40
0.9999999999999999
 40
0.9999999999999999
 40
0.9999999999999999
 10
-6.136415628611719
 20
0.5850526796291639
 30
0.0
 10
-6.129835876116182
 20
0.6098927493745867
 30
0.0
 10
-6.116683402178225
 20
0.6595463450326994
 30
0.0
 10
-6.095769107437457
 20
0.7336662517074655
 30
0.0
 10
-6.074001334111605
 20
0.8074654987639138
 30
0.0
 10
-6.05129433611128
 20
0.8809217023458709
 30
0.0
 10
-6.027671058552218
 20
0.9540408476322461
 30
0.0
 10
-6.003125368628632
 20
1.026821314462173
 30
0.0
 10
-5.977658882124339
 20
1.099263568145244
 30
0.0
 10
-5.951271272952208
 20
1.171367330734879
 30
0.0
 10
-5.923962241282821
 20
1.243133213739842
 30
0.0
 10
-5.85800496799944
 20
1.410020635991849
 30
0.0
 10
-5.744470258827006
 20
1.667852633124294
 30
0.0
 10
-5.567029398058295
 20
2.008609545336531
 30
0.0
 10
-5.367941478867469
 20
2.336445468574749
 30
0.0
 10
-5.196283165085861
 20
2.580783283242216
 30
0.0
 10
-5.066204376095093
 20
2.749425610886415
 30
0.0
 10
-4.985805021321194
 20
2.848934650746265
 30
0.0
 10
-4.903327236735536
 20
2.946443796098172
 30
0.0
 10
-4.818719743668554
 20
3.041904349958914
 30
0.0
 10
-4.732170220354742
 20
3.135501842197514
 30
0.0
 10
-4.672715538859157
 20
3.196190020482951
 30
0.0
 10
-4.642990540486072
 20
3.226531718654088
 30
0.0
  0
SPLINE
  5
A6
330
1F
100
AcDbEntity
  8
0
  6
Continuous
 62
     7
370
    25
100
AcDbSpline
210
0.0
220
0.0
230
1.0
 70
     8
 71
     3
 72
    28
 73
    24
 74
     0
 42
0.00000001
 43
0.00000001
 40
0.0
 40
0.0
 40
0.0
 40
0.0
 40
0.0297173171324591
 40
0.0593973596242626
 40
0.0890444914157601
 40
0.1186630909942792
 40
0.1482575495111353
 40
0.1778322688707895
 40
0.2073916597962075
 40
0.2369401398746172
 40
0.2664821315879345
 40
0.2960220603322344
 40
0.325564352430681
 40
0.4101208967631673
 40
0.4944654727279588
 40
0.5787047448863009
 40
0.6629457778020471
 40
0.7193944083123152
 40
0.7756902498649255
 40
0.831865875912644
 40
0.887954069355599
 40
0.9439877665532701
 40
1.0
 40
1.0
 40
1.0
 40
1.0
 10
-5.674177128979804
 20
-3.839635100677884
 30
0.0
 10
-5.686043995512363
 20
-3.814882627498996
 30
0.0
 10
-5.709762843883018
 20
-3.765408728343056
 30
0.0
 10
-5.744179053463871
 20
-3.690702031507223
 30
0.0
 10
-5.777712978220595
 20
-3.615696662442289
 30
0.0
 10
-5.810283347021628
 20
-3.540353313398412
 30
0.0
 10
-5.841911897989285
 20
-3.464682506184571
 30
0.0
 10
-5.872592809253346
 20
-3.38868142912605
 30
0.0
 10
-5.902327640254011
 20
-3.312350848151183
 30
0.0
 10
-5.931115952195079
 20
-3.23569053659864
 30
0.0
 10
-5.958957926922587
 20
-3.158700665053264
 30
0.0
 10
-5.985853261799447
 20
-3.081380807765552
 30
0.0
 10
-6.027908206852936
 20
-2.955541484218209
 30
0.0
 10
-6.081879726088745
 20
-2.780321334743231
 30
0.0
 10
-6.142744008316965
 20
-2.554507280426177
 30
0.0
 10
-6.195459114358131
 20
-2.32695097673232
 30
0.0
 10
-6.23510291716277
 20
-2.12295507575708
 30
0.0
 10
-6.264495864818848
 20
-1.943374035376734
 30
0.0
 10
-6.285994647259787
 20
-1.788816382618359
 30
0.0
 10
-6.303741333559383
 20
-1.634116795376013
 30
0.0
 10
-6.317644158272877
 20
-1.479272224661418
 30
0.0
 10
-6.328046638077963
 20
-1.324292997591169
 30
0.0
 10
-6.331793648564156
 20
-1.220859416570715
 30
0.0
 10
-6.333666794914699
 20
-1.169152533036176
 30
0.0
  0
SPLINE
  5
A8
330
1F
100
AcDbEntity
  8
0
  6
Continuous
 62
     7
370
    25
100
AcDbSpline
210
0.0
220
0.0
230
1.0
 70
     8
 71
     3
 72
    17
 73
    13
 74
     0
 42
0.00000001
 43
0.00000001
 40
0.0
 40
0.0
 40
0.0
 40
0.0
 40
0.0160965044548133
 40
0.1909424479192316
 40
0.3659253661130735
 40
0.5414826827829716
 40
0.6178227330343107
 40
0.6941481152505786
 40
0.7704937162724275
 40
0.8468943952429768
 40
0.9233849360031277
 40
1.0
 40
1.0
 40
1.0
 40
1.0
 10
-6.822157337644677
 20
-2.242829714223916
 30
0.0
 10
-6.820173400298484
 20
-2.253637547366792
 30
0.0
 10
-6.796639231469212
 20
-2.381843899422698
 30
0.0
 10
-6.744498345585688
 20
-2.626273614895058
 30
0.0
 10
-6.652375839930288
 20
-2.973041542998752
 30
0.0
 10
-6.563494282243655
 20
-3.250712400357274
 30
0.0
 10
-6.487693739891101
 20
-3.461579445824434
 30
0.0
 10
-6.431668038434029
 20
-3.607545898747872
 30
0.0
 10
-6.372533829260449
 20
-3.752325905383675
 30
0.0
 10
-6.310219174209715
 20
-3.895884964005719
 30
0.0
 10
-6.244993800011667
 20
-4.038357019209182
 30
0.0
 10
-6.198941581492024
 20
-4.132188088556757
 30
0.0
 10
-6.175896744729322
 20
-4.179141780385138
 30
0.0
  0
SPLINE
  5
AF
330
1F
100
AcDbEntity
  8
0
  6
Continuous
 62
     7
370
    25
100
AcDbSpline
210
0.0
220
0.0
230
1.0
 70
     8
 71
     3
 72
    21
 73
    17
 74
     0
 42
0.00000001
 43
0.00000001
 40
0.0
 40
0.0
 40
0.0
 40
0.0
 40
0.0299755285271116
 40
0.0599554053282065
 40
0.2167252054693002
 40
0.3733411210681359
 40
0.43624423225959
 40
0.4990439619601927
 40
0.5617592116797152
 40
0.6244089593911355
 40
0.6870122426375934
 40
0.7495881413700686
 40
0.8121557605922096
 40
0.8747342128907912
 40
0.9373426009314841
 40
1.0
 40
1.0
 40
1.0
 40
1.0
 10
-10.8522527888327
 20
-7.343565403795391
 30
0.0
 10
-10.86992835108802
 20
-7.312458859334072
 30
0.0
 10
-10.90528203962978
 20
-7.250241258071377
 30
0.0
 10
-11.03075486529157
 20
-7.024034441182335
 30
0.0
 10
-11.22059105965111
 20
-6.660671584317586
 30
0.0
 10
-11.41111099284305
 20
-6.2537956821392
 30
0.0
 10
-11.54474653257684
 20
-5.944451429575659
 30
0.0
 10
-11.6303476258624
 20
-5.73647993340799
 30
0.0
 10
-11.71221122175967
 20
-5.527334758678356
 30
0.0
 10
-11.7903379441008
 20
-5.317014974291072
 30
0.0
 10
-11.86472923633908
 20
-5.105521305156198
 30
0.0
 10
-11.93537852526916
 20
-4.892852108859377
 30
0.0
 10
-12.00231049310148
 20
-4.679013568094173
 30
0.0
 10
-12.06543283607029
 20
-4.463982941688832
 30
0.0
 10
-12.12509016895781
 20
-4.247845418441154
 30
0.0
 10
-12.16167535980134
 20
-4.102875234255603
 30
0.0
 10
-12.17997511231623
 20
-4.030361781914213
 30
0.0
  0
SPLINE
  5
B1
330
1F
100
AcDbEntity
  8
0
  6
Continuous
 62
     7
370
    25
100
AcDbSpline
210
0.0
220
0.0
230
1.0
 70
     8
 71
     3
 72
    12
 73
     8
 74
     0
 42
0.00000001
 43
0.00000001
 40
0.0
 40
0.0
 40
0.0
 40
0.0
 40
0.025182933146561
 40
0.4369419079904351
 40
0.8491851257119266
 40
0.9245976198404847
 40
1.0
 40
1.0
 40
1.0
 40
1.0
 10
-12.00274587687339
 20
-6.395478309598433
 30
0.0
 10
-11.99783887289001
 20
-6.406542389824407
 30
0.0
 10
-11.91269884291272
 20
-6.598512097878717
 30
0.0
 10
-11.73830022687463
 20
-6.967678368115937
 30
0.0
 10
-11.53672588564704
 20
-7.350243358554157
 30
0.0
 10
-11.40457641887339
 20
-7.586403028998516
 30
0.0
 10
-11.36855168550931
 20
-7.649302331473418
 30
0.0
 10
-11.35054052677522
 20
-7.680749873629781
 30
0.0
  0
SPLINE
  5
B8
330
1F
100
AcDbEntity
  8
0
  6
Continuous
 62
     7
370
    25
100
AcDbSpline
210
0.0
220
0.0
230
1.0
 70
     8
 71
     3
 72
    15
 73
    11
 74
     0
 42
0.00000001
 43
0.00000001
 40
0.0
 40
0.0
 40
0.0
 40
0.0
 40
0.0307191699869108
 40
0.1692876778155178
 40
0.3077830081337478
 40
0.4462290857924982
 40
0.5846498611813791
 40
0.7230692978239752
 40
0.8615113599390599
 40
1.0
 40
1.0
 40
1.0
 40
1.0
 10
-16.0288726928255
 20
-10.84651093523469
 30
0.0
 10
-16.03856042440752
 20
-10.83044391965548
 30
0.0
 10
-16.09194772567634
 20
-10.74190156131737
 30
0.0
 10
-16.18758899084005
 20
-10.58006523932014
 30
0.0
 10
-16.31390323398849
 20
-10.35995529296718
 30
0.0
 10
-16.4372433055168
 20
-10.1382675334677
 30
0.0
 10
-16.55765514456785
 20
-9.915027836949564
 30
0.0
 10
-16.67505847324983
 20
-9.69019659094502
 30
0.0
 10
-16.78972845368298
 20
-9.463906517281423
 30
0.0
 10
-16.86365561610816
 20
-9.311780696718166
 30
0.0
 10
-16.90062541435509
 20
-9.235704993148945
 30
0.0
  0
SPLINE
  5
BA
330
1F
100
AcDbEntity
  8
0
  6
Continuous
 62
     7
370
    25
100
AcDbSpline
210
0.0
220
0.0
230
1.0
 70
     8
 71
     3
 72
    21
 73
    17
 74
     0
 42
0.00000001
 43
0.00000001
 40
0.0
 40
0.0
 40
0.0
 40
0.0
 40
0.0740204485956079
 40
0.1480244475121454
 40
0.2220157447708587
 40
0.2959980903234299
 40
0.3699752354828442
 40
0.4439509323532232
 40
0.517928933259059
 40
0.5919129901742747
 40
0.6659068541515536
 40
0.7399142747523727
 40
0.8139389994781671
 40
0.8879847732030514
 40
0.9620553376085436
 40
1.0
 40
1.0
 40
1.0
 40
1.0
 10
-17.4383696317826
 20
-9.501925324861105
 30
0.0
 10
-17.41779422896386
 20
-9.544416459427325
 30
0.0
 10
-17.37664799583006
 20
-9.629389285689028
 30
0.0
 10
-17.31378679549427
 20
-9.756275731563802
 30
0.0
 10
-17.2500998799634
 20
-9.882721543671519
 30
0.0
 10
-17.18550468343391
 20
-10.00868694926207
 30
0.0
 10
-17.12002332611709
 20
-10.13418260249193
 30
0.0
 10
-17.05364987744399
 20
-10.25920564473447
 30
0.0
 10
-16.98638594573759
 20
-10.3837568520807
 30
0.0
 10
-16.91823103087944
 20
-10.50783597277829
 30
0.0
 10
-16.84918552833295
 20
-10.63144323209104
 30
0.0
 10
-16.77924835954984
 20
-10.75457797498302
 30
0.0
 10
-16.70842344801619
 20
-10.87724259157039
 30
0.0
 10
-16.63669617653177
 20
-10.99942816767255
 30
0.0
 10
-16.57592907411104
 20
-11.10136092312712
 30
0.0
 10
-16.53895522118545
 20
-11.16249300132904
 30
0.0
 10
-16.52643049212236
 20
-11.18320122230033
 30
0.0
  0
SPLINE
  5
C0
330
1F
100
AcDbEntity
  8
0
  6
Continuous
 62
     7
370
    25
100
AcDbSpline
210
0.0
220
0.0
230
1.0
 70
     8
 71
     3
 72
    25
 73
    21
 74
     0
 42
0.00000001
 43
0.00000001
 40
0.0
 40
0.0
 40
0.0
 40
0.0
 40
0.0034275682797675
 40
0.086422901702658
 40
0.1695501395102878
 40
0.2525895627676877
 40
0.3356691973348808
 40
0.418659871388205
 40
0.5017715069436173
 40
0.5847990233018006
 40
0.6678551991136901
 40
0.7508282477683593
 40
0.8339233906543184
 40
0.857650604244919
 40
0.8813707304089863
 40
0.9050876244177021
 40
0.9288051431184037
 40
0.9525271430537313
 40
0.9762574785815181
 40
1.0
 40
1.0
 40
1.0
 40
1.0
 10
-19.07690213126902
 20
2.462854967181773
 30
0.0
 10
-19.07906126783408
 20
2.450953120952966
 30
0.0
 10
-19.13350186008316
 20
2.150859292688769
 30
0.0
 10
-19.22595461439097
 20
1.559438464840851
 30
0.0
 10
-19.32213153586943
 20
0.6851151709949475
 30
0.0
 10
-19.37845714644607
 20
-0.192995404493785
 30
0.0
 10
-19.39481758600271
 20
-1.072269634893858
 30
0.0
 10
-19.37131554933518
 20
-1.951637477690229
 30
0.0
 10
-19.30800058283422
 20
-2.828851441435067
 30
0.0
 10
-19.20526675991494
 20
-3.702555693477061
 30
0.0
 10
-19.06336374508473
 20
-4.570267367362349
 30
0.0
 10
-18.88259152867219
 20
-5.430950827018316
 30
0.0
 10
-18.71554015518986
 20
-6.079847730665334
 30
0.0
 10
-18.58793798496016
 20
-6.522523975221506
 30
0.0
 10
-18.51530672242574
 20
-6.762943727078888
 30
0.0
 10
-18.43962196339905
 20
-7.002382476711236
 30
0.0
 10
-18.3609029760902
 20
-7.24084898496266
 30
0.0
 10
-18.27907706640717
 20
-7.478315189383977
 30
0.0
 10
-18.19441590034744
 20
-7.714884511385335
 30
0.0
 10
-18.13542688406314
 20
-7.871693428971427
 30
0.0
 10
-18.10592480492411
 20
-7.950118013542157
 30
0.0
  0
SPLINE
  5
C7
330
1F
100
AcDbEntity
  8
0
  6
Continuous
 62
     7
370
    25
100
AcDbSpline
210
0.0
220
0.0
230
1.0
 70
     8
 71
     3
 72
    39
 73
    35
 74
     0
 42
0.00000001
 43
0.00000001
 40
0.0
 40
0.0
 40
0.0
 40
0.0
 40
0.0087409766832178
 40
0.0174805898685426
 40
0.0262191710319181
 40
0.0349570517667389
 40
0.0436945637461446
 40
0.0524320386852685
 40
0.0611698083034622
 40
0.0699082042865188
 40
0.078647558248913
 40
0.0873882016960852
 40
0.1525850837010985
 40
0.2177737198046942
 40
0.2829868762431333
 40
0.348156441450514
 40
0.4133741578023412
 40
0.4785337472854366
 40
0.5437249689827726
 40
0.6089023760167538
 40
0.6741002871387275
 40
0.7392661130774268
 40
0.7718917268063581
 40
0.8044832338912686
 40
0.8370585782594453
 40
0.8696357305461011
 40
0.8859450513179093
 40
0.9022459150224954
 40
0.9185405783265363
 40
0.934831300473435
 40
0.9511203423464755
 40
0.9674099655285721
 40
0.9837024313605615
 40
1.0
 40
1.0
 40
1.0
 40
1.0
 10
-21.20528516345107
 20
-14.34931519695511
 30
0.0
 10
-21.23290716594279
 20
-14.30469588251404
 30
0.0
 10
-21.28814686219238
 20
-14.21546421376272
 30
0.0
 10
-21.36995412307766
 20
-14.08098183468817
 30
0.0
 10
-21.45098117958497
 20
-13.94605048234808
 30
0.0
 10
-21.53115313155777
 20
-13.81062360631931
 30
0.0
 10
-21.61049004519657
 20
-13.6747136759222
 30
0.0
 10
-21.6889865423439
 20
-13.53831736070588
 30
0.0
 10
-21.76664406930687
 20
-13.4014355178819
 30
0.0
 10
-21.84346221675673
 20
-13.26406805246788
 30
0.0
 10
-21.91944117378038
 20
-13.12621449070079
 30
0.0
 10
-22.1563502797949
 20
-12.69004592145386
 30
0.0
 10
-22.53589390397655
 20
-11.94562137989156
 30
0.0
 10
-23.02059686602853
 20
-10.87559562089267
 30
0.0
 10
-23.45545669889082
 20
-9.784512431476026
 30
0.0
 10
-23.83934439207978
 20
-8.67428970152929
 30
0.0
 10
-24.17140289599628
 20
-7.547811702297514
 30
0.0
 10
-24.45080054514503
 20
-6.406995655603991
 30
0.0
 10
-24.67685677318786
 20
-5.25466848811196
 30
0.0
 10
-24.848958610756
 20
-4.0928210970745
 30
0.0
 10
-24.96675319249946
 20
-2.924382025277762
 30
0.0
 10
-25.01919996875912
 20
-1.946879919553213
 30
0.0
 10
-25.03371610600741
 20
-1.164193423765641
 30
0.0
 10
-25.03084014932048
 20
-0.5770398227771805
 30
0.0
 10
-25.01418376478344
 20
0.0095885386718772
 30
0.0
 10
-24.98881835290994
 20
0.4980411791966948
 30
0.0
 10
-24.96164358859784
 20
0.8884605591363017
 30
0.0
 10
-24.93781320284725
 20
1.181102570696927
 30
0.0
 10
-24.91055117215172
 20
1.473332387324395
 30
0.0
 10
-24.87985165763555
 20
1.765149593985824
 30
0.0
 10
-24.84573689922011
 20
2.056557570549185
 30
0.0
 10
-24.80812378221867
 20
2.347543111301778
 30
0.0
 10
-24.76732259685277
 20
2.638155567645173
 30
0.0
 10
-24.73723020957162
 20
2.831486366672527
 30
0.0
 10
-24.72218166006275
 20
2.928166901638765
 30
0.0
  0
SPLINE
  5
C9
330
1F
100
AcDbEntity
  8
0
  6
Continuous
 62
     7
370
    25
100
AcDbSpline
210
0.0
220
0.0
230
1.0
 70
     8
 71
     3
 72
    41
 73
    37
 74
     0
 42
0.00000001
 43
0.00000001
 40
0.0
 40
0.0
 40
0.0
 40
0.0
 40
0.0087136154950114
 40
0.017425490062376
 40
0.0261359693173602
 40
0.0348453990413405
 40
0.0435541251407091
 40
0.0522624936057041
 40
0.0609708504691913
 40
0.069679541765419
 40
0.0783889134887738
 40
0.087099311552558
 40
0.0958110817478171
 40
0.1045245697022395
 40
0.1132401208391527
 40
0.1219580803366418
 40
0.130678793086813
 40
0.1633297416263347
 40
0.1959799135111647
 40
0.2286474327308796
 40
0.2613503944333765
 40
0.3266585251633989
 40
0.3920048971690815
 40
0.4573202616932507
 40
0.5226534694104538
 40
0.5879455412133585
 40
0.6532992960895426
 40
0.7185939747438378
 40
0.7839391795635189
 40
0.8492486151704557
 40
0.9145713905685088
 40
0.9316596836101652
 40
0.9487442061354903
 40
0.965827442911077
 40
0.9829118792645183
 40
1.0
 40
1.0
 40
1.0
 40
1.0
 10
-25.31554078392263
 20
3.01733441964403
 30
0.0
 10
-25.32385877986198
 20
2.964374057822437
 30
0.0
 10
-25.34049310985542
 20
2.858463915339062
 30
0.0
 10
-25.36417356101594
 20
2.699417272319678
 30
0.0
 10
-25.38691976075021
 20
2.540261144982223
 30
0.0
 10
-25.40864073480454
 20
2.380981076062925
 30
0.0
 10
-25.42936085409367
 20
2.221580939467696
 30
0.0
 10
-25.44907358934493
 20
2.062059698300306
 30
0.0
 10
-25.46778068976731
 20
1.902417631345898
 30
0.0
 10
-25.48548168654722
 20
1.742654664784889
 30
0.0
 10
-25.50217670531433
 20
1.582770819663605
 30
0.0
 10
-25.51786571199231
 20
1.422766090168329
 30
0.0
 10
-25.53254871698658
 20
1.262640483065103
 30
0.0
 10
-25.54622571260778
 20
1.10239398166062
 30
0.0
 10
-25.55889671918047
 20
0.9420266505422381
 30
0.0
 10
-25.57056166315206
 20
0.7815382525217518
 30
0.0
 10
-25.59096924694947
 20
0.4740436345575083
 30
0.0
 10
-25.61434858689891
 20
0.0191861345198822
 30
0.0
 10
-25.63109368805236
 20
-0.5833740210038914
 30
0.0
 10
-25.63364016929208
 20
-1.186487313187788
 30
0.0
 10
-25.61813269082777
 20
-1.99038150386658
 30
0.0
 10
-25.56340566541401
 20
-2.994330628858952
 30
0.0
 10
-25.44122864823717
 20
-4.194237417668647
 30
0.0
 10
-25.26311518416677
 20
-5.387291284902148
 30
0.0
 10
-25.02944688731069
 20
-6.570374641470314
 30
0.0
 10
-24.74085296155703
 20
-7.741513489189568
 30
0.0
 10
-24.3980688226956
 20
-8.8977040354243
 30
0.0
 10
-24.00192825534711
 20
-10.03705991115574
 30
0.0
 10
-23.55335901750881
 20
-11.15652286468356
 30
0.0
 10
-23.05349710562892
 20
-12.2542076491384
 30
0.0
 10
-22.63879970151005
 20
-13.06332489447249
 30
0.0
 10
-22.34385778410125
 20
-13.59972545877755
 30
0.0
 10
-22.18860955273919
 20
-13.87421998000736
 30
0.0
 10
-22.03001217845439
 20
-14.14676137376346
 30
0.0
 10
-21.86835866546056
 20
-14.41753408273708
 30
0.0
 10
-21.75783896848861
 20
-14.59638683950747
 30
0.0
 10
-21.70257316205244
 20
-14.68582285957507
 30
0.0
  0
SPLINE
  5
CC
330
1F
100
AcDbEntity
  8
0
  6
Continuous
 62
     7
370
    25
100
AcDbSpline
210
0.0
220
0.0
230
1.0
 70
     8
 71
     3
 72
    41
 73
    37
 74
     0
 42
0.00000001
 43
0.00000001
 40
0.0
 40
0.0
 40
0.0
 40
0.0
 40
0.0147688612639791
 40
0.0295241373296561
 40
0.0442671721108592
 40
0.0589993128714875
 40
0.0737219098661728
 40
0.088436315976874
 40
0.1031438863458752
 40
0.1178459780056824
 40
0.1325439495063133
 40
0.1472391605404954
 40
0.1619329715672737
 40
0.1766267434345638
 40
0.19132183700116
 40
0.206019612758731
 40
0.2207214304543227
 40
0.2354286487138972
 40
0.2501426246674205
 40
0.3126826529221087
 40
0.3751758925217172
 40
0.4377273491141955
 40
0.5001830413228887
 40
0.5626938535571502
 40
0.6251660387949077
 40
0.6876928439104909
 40
0.7501274590667524
 40
0.7780068610485531
 40
0.805834199521874
 40
0.8336193299960281
 40
0.8613721529467447
 40
0.889102603453597
 40
0.9168206406532831
 40
0.9445362370640488
 40
0.9722593678381296
 40
1.0
 40
1.0
 40
1.0
 40
1.0
 10
-9.595989723083814
 20
7.010241879784079
 30
0.0
 10
-9.571164176610164
 20
7.038708296092828
 30
0.0
 10
-9.521535919544773
 20
7.095614943759192
 30
0.0
 10
-9.446098755838447
 20
7.180034134279706
 30
0.0
 10
-9.369979848803792
 20
7.263710501747775
 30
0.0
 10
-9.293105203580057
 20
7.346579869576673
 30
0.0
 10
-9.215494625057662
 20
7.42865941004789
 30
0.0
 10
-9.137142814115498
 20
7.509944523668843
 30
0.0
 10
-9.058051191399976
 20
7.590436438711386
 30
0.0
 10
-8.978219378712126
 20
7.670134823373553
 30
0.0
 10
-8.897647479691058
 20
7.74903976366261
 30
0.0
 10
-8.816335468722
 20
7.827151233697327
 30
0.0
 10
-8.734283356172416
 20
7.904469238004016
 30
0.0
 10
-8.651491138177665
 20
7.980993771758527
 30
0.0
 10
-8.567958832312296
 20
8.056724837607728
 30
0.0
 10
-8.483686385068141
 20
8.13166241814855
 30
0.0
 10
-8.398674006347335
 20
8.205806569240872
 30
0.0
 10
-8.312920923457426
 20
8.279157074149873
 30
0.0
 10
-8.132739309420488
 20
8.430312372618504
 30
0.0
 10
-7.853109061614953
 20
8.653072078205733
 30
0.0
 10
-7.465753375537985
 20
8.936322527397015
 30
0.0
 10
-7.067216951204141
 20
9.203238612635447
 30
0.0
 10
-6.657900681918652
 20
9.453394889460611
 30
0.0
 10
-6.238703142402806
 20
9.686200272786058
 30
0.0
 10
-5.80997111713123
 20
9.901350078414579
 30
0.0
 10
-5.372798078006924
 20
10.09830269438854
 30
0.0
 10
-5.009839992704583
 20
10.24373589465096
 30
0.0
 10
-4.726072814300592
 20
10.34753176365197
 30
0.0
 10
-4.524186927293003
 20
10.41711167665803
 30
0.0
 10
-4.321333449418501
 20
10.48277139065097
 30
0.0
 10
-4.117512345769502
 20
10.54451503184934
 30
0.0
 10
-3.912722483585815
 20
10.60233502353426
 30
0.0
 10
-3.70696886770066
 20
10.65625731734255
 30
0.0
 10
-3.50023307623627
 20
10.70618552562611
 30
0.0
 10
-3.292584282498931
 20
10.75247919304556
 30
0.0
 10
-3.15343164496299
 20
10.78001135583869
 30
0.0
 10
-3.083833371641789
 20
10.79378178107196
 30
0.0
  0
SPLINE
  5
D9
330
1F
100
AcDbEntity
  8
0
  6
Continuous
 62
     7
370
    25
100
AcDbSpline
210
0.0
220
0.0
230
1.0
 70
     8
 71
     3
 72
    17
 73
    13
 74
     0
 42
0.00000001
 43
0.00000001
 40
0.0
 40
0.0
 40
0.0
 40
0.0
 40
0.0113429241834964
 40
0.1759422566615417
 40
0.3412906530980409
 40
0.5057233511322798
 40
0.6708178484122601
 40
0.7365199765392629
 40
0.8022460293542711
 40
0.8680393079110456
 40
0.933942980754378
 40
0.9999999999999999
 40
0.9999999999999999
 40
0.9999999999999999
 40
0.9999999999999999
 10
-1.575548460617962
 20
5.36256315631471
 30
0.0
 10
-1.584065351440213
 20
5.361610016477587
 30
0.0
 10
-1.716172466569062
 20
5.346825682989639
 30
0.0
 10
-1.97141136199499
 20
5.30854190870054
 30
0.0
 10
-2.336556296493192
 20
5.228622502958198
 30
0.0
 10
-2.695983824744239
 20
5.124636000538264
 30
0.0
 10
-2.976993528632063
 20
5.022932076599815
 30
0.0
 10
-3.184014857394535
 20
4.937246103109358
 30
0.0
 10
-3.320213401034037
 20
4.87675182506456
 30
0.0
 10
-3.454915776011363
 20
4.812655806328381
 30
0.0
 10
-3.588290724225751
 20
4.745257760519649
 30
0.0
 10
-3.675784648778058
 20
4.697440992926203
 30
0.0
 10
-3.71958244770238
 20
4.673504826123937
 30
0.0
  0
SPLINE
  5
E0
330
1F
100
AcDbEntity
  8
0
  6
Continuous
 62
     7
370
    25
100
AcDbSpline
210
0.0
220
0.0
230
1.0
 70
     8
 71
     3
 72
    36
 73
    32
 74
     0
 42
0.00000001
 43
0.00000001
 40
0.0
 40
0.0
 40
0.0
 40
0.0
 40
0.0139147261913231
 40
0.0278223441058778
 40
0.0417240211857069
 40
0.0556209263700749
 40
0.0695142298027232
 40
0.0834051025376103
 40
0.0972947162435012
 40
0.1111842429077825
 40
0.1250748545398724
 40
0.1876367659082723
 40
0.2501199521740954
 40
0.3126521915041826
 40
0.3751478202982454
 40
0.4376941810279494
 40
0.500157589092653
 40
0.5628144105380556
 40
0.6252835668347221
 40
0.6876780402077809
 40
0.7501112183336225
 40
0.7751955742112712
 40
0.8002389556415974
 40
0.8252487331919339
 40
0.8502323071707312
 40
0.8751971011890073
 40
0.900150555618807
 40
0.9251001209771341
 40
0.9500532512645948
 40
0.975017397288458
 40
1.0
 40
1.0
 40
1.0
 40
1.0
 10
-12.47945641469511
 20
-2.330894171615915
 30
0.0
 10
-12.48345912881616
 20
-2.292483003895475
 30
0.0
 10
-12.49146251228932
 20
-2.215680290630943
 30
0.0
 10
-12.50212721118639
 20
-2.10036922425896
 30
0.0
 10
-12.51180597729421
 20
-1.985022062564762
 30
0.0
 10
-12.52040299499195
 20
-1.869628564743288
 30
0.0
 10
-12.52794392182432
 20
-1.754191484409316
 30
0.0
 10
-12.53442188649522
 20
-1.638710056691213
 30
0.0
 10
-12.53983872614993
 20
-1.523184603336874
 30
0.0
 10
-12.54419395975397
 20
-1.40761461673891
 30
0.0
 10
-12.55133433427028
 20
-1.156980025669124
 30
0.0
 10
-12.55257481782731
 20
-0.7712539049895724
 30
0.0
 10
-12.53260263090063
 20
-0.2508910762951413
 30
0.0
 10
-12.49099639889142
 20
0.2680142733825983
 30
0.0
 10
-12.42769101605505
 20
0.7848961954643698
 30
0.0
 10
-12.3428517419373
 20
1.298491705652238
 30
0.0
 10
-12.23633426710839
 20
1.80849011534785
 30
0.0
 10
-12.10849914094608
 20
2.313346780246906
 30
0.0
 10
-11.95942098139207
 20
2.812147469552885
 30
0.0
 10
-11.78941666191196
 20
3.303547439970499
 30
0.0
 10
-11.63668701089292
 20
3.690716748701065
 30
0.0
 10
-11.51344574179222
 20
3.977793400564558
 30
0.0
 10
-11.42790730588054
 20
4.167991197247437
 30
0.0
 10
-11.33923293810243
 20
4.356437268620972
 30
0.0
 10
-11.24742203087152
 20
4.543132531548331
 30
0.0
 10
-11.15247607955507
 20
4.728077513996542
 30
0.0
 10
-11.05438981190718
 20
4.911268875114993
 30
0.0
 10
-10.95318293546232
 20
5.092719135707547
 30
0.0
 10
-10.84878202682548
 20
5.272381247341404
 30
0.0
 10
-10.7414613742477
 20
5.450430681230972
 30
0.0
 10
-10.66731952411346
 20
5.567563145736457
 30
0.0
 10
-10.63023490032715
 20
5.626151019811432
 30
0.0
  0
SPLINE
  5
E7
330
1F
100
AcDbEntity
  8
0
  6
Continuous
 62
     7
370
    25
100
AcDbSpline
210
0.0
220
0.0
230
1.0
 70
     8
 71
     3
 72
     9
 73
     5
 74
     0
 42
0.00000001
 43
0.00000001
 40
0.0
 40
0.0
 40
0.0
 40
0.0
 40
0.5000180425557965
 40
1.0
 40
1.0
 40
1.0
 40
1.0
 10
-6.932832513957626
 20
-1.205591031237468
 30
0.0
 10
-6.931942851931884
 20
-1.231239096391367
 30
0.0
 10
-6.930163592085192
 20
-1.28253337573937
 30
0.0
 10
-6.927537920362369
 20
-1.333791299017667
 30
0.0
 10
-6.926225131874787
 20
-1.359419335832875
 30
0.0
  0
SPLINE
  5
ED
330
1F
100
AcDbEntity
  8
0
  6
Continuous
 62
     7
370
    25
100
AcDbSpline
210
0.0
220
0.0
230
1.0
 70
     8
 71
     3
 72
    18
 73
    14
 74
     0
 42
0.00000001
 43
0.00000001
 40
0.0
 40
0.0
 40
0.0
 40
0.0
 40
0.0033598054151762
 40
0.1693327620221743
 40
0.3358957407334334
 40
0.5017073191749006
 40
0.668082869179534
 40
0.7233265904304529
 40
0.7785613527909383
 40
0.8338166542944243
 40
0.8891219601096421
 40
0.9445066555971149
 40
1.0
 40
1.0
 40
1.0
 40
1.0
 10
-5.648067648751934
 20
2.9756267142013
 30
0.0
 10
-5.649918786978778
 20
2.973134054186237
 30
0.0
 10
-5.743215365233188
 20
2.847505051022441
 30
0.0
 10
-5.919009166816977
 20
2.591283171347344
 30
0.0
 10
-6.151632924260067
 20
2.193382674583106
 30
0.0
 10
-6.355543513460159
 20
1.779617250351633
 30
0.0
 10
-6.490802260233343
 20
1.447761698572821
 30
0.0
 10
-6.576278463114233
 20
1.206602055199656
 30
0.0
 10
-6.62409687638309
 20
1.06108549058062
 30
0.0
 10
-6.668572658248545
 20
0.9144535158729274
 30
0.0
 10
-6.709624200079515
 20
0.7666863516101359
 30
0.0
 10
-6.747562265084389
 20
0.6178522168167346
 30
0.0
 10
-6.769976439988981
 20
0.5178649684700991
 30
0.0
 10
-6.781194509218172
 20
0.4678223557590205
 30
0.0
  0
SPLINE
  5
F4
330
1F
100
AcDbEntity
  8
0
  6
Continuous
 62
     7
370
    25
100
AcDbSpline
210
0.0
220
0.0
230
1.0
 70
     8
 71
     3
 72
    38
 73
    34
 74
     0
 42
0.00000001
 43
0.00000001
 40
0.0
 40
0.0
 40
0.0
 40
0.0
 40
0.0104404373250674
 40
0.0208754300546741
 40
0.0313055394764483
 40
0.0417313276667184
 40
0.0521533574009649
 40
0.0625721920637102
 40
0.0729883955579148
 40
0.0834025322139555
 40
0.0938151666982569
 40
0.1042268639216484
 40
0.1146381889475256
 40
0.1250497068998845
 40
0.1875709740815872
 40
0.2500724178504748
 40
0.3126221474614335
 40
0.3750768075241273
 40
0.4375782672598362
 40
0.5000732655476704
 40
0.5626136062391877
 40
0.625065589070336
 40
0.6875629111996266
 40
0.7500556029483377
 40
0.8125896204297856
 40
0.8750309216150124
 40
0.8928907754917143
 40
0.9107431842549715
 40
0.9285911879759122
 40
0.9464378289767851
 40
0.9642861502766822
 40
0.9821391940354846
 40
1.0
 40
1.0
 40
1.0
 40
1.0
 10
-16.89965438651789
 20
7.181576098451526
 30
0.0
 10
-16.8797991137938
 20
7.221850122735332
 30
0.0
 10
-16.84009892269424
 20
7.302377168756504
 30
0.0
 10
-16.77944301337261
 20
7.422581081809746
 30
0.0
 10
-16.71799881042425
 20
7.542312143529363
 30
0.0
 10
-16.6556857943767
 20
7.661530867779189
 30
0.0
 10
-16.59252552618002
 20
7.78024782642188
 30
0.0
 10
-16.52851223279516
 20
7.898460186436399
 30
0.0
 10
-16.4636474599146
 20
8.016168707288367
 30
0.0
 10
-16.39793079766642
 20
8.133373176181468
 30
0.0
 10
-16.33136234332533
 20
8.250073678622568
 30
0.0
 10
-16.26394212055745
 20
8.366270078896678
 30
0.0
 10
-16.19566994069418
 20
8.481962827995165
 30
0.0
 10
-16.01122919997458
 20
8.789315373093036
 30
0.0
 10
-15.69862173761018
 20
9.281057479457697
 30
0.0
 10
-15.23592889387998
 20
9.942198111196012
 30
0.0
 10
-14.74458511098408
 20
10.58199217114744
 30
0.0
 10
-14.22518891389312
 20
11.19922790050266
 30
0.0
 10
-13.67891825039683
 20
11.79249402739395
 30
0.0
 10
-13.10637578222635
 20
12.36096983879853
 30
0.0
 10
-12.50916174784656
 20
12.90315513639065
 30
0.0
 10
-11.88814799104702
 20
13.41792783395285
 30
0.0
 10
-11.24473698802589
 20
13.90407860688189
 30
0.0
 10
-10.57970340813197
 20
14.36083291503183
 30
0.0
 10
-9.894952371979361
 20
14.78698357123391
 30
0.0
 10
-9.35897716299394
 20
15.08764389220013
 30
0.0
 10
-8.984918477659507
 20
15.2833140111154
 30
0.0
 10
-8.779424008822879
 20
15.38741724277379
 30
0.0
 10
-8.572638484351927
 20
15.48879991681139
 30
0.0
 10
-8.364568262875826
 20
15.58748049642248
 30
0.0
 10
-8.155185401808804
 20
15.68339140645242
 30
0.0
 10
-7.944595454091694
 20
15.7767845109249
 30
0.0
 10
-7.803173267298225
 20
15.83672465909392
 30
0.0
 10
-7.732446805240384
 20
15.8667012470066
 30
0.0
  0
SPLINE
  5
FF
330
1F
100
AcDbEntity
  8
0
  6
Continuous
 62
     7
370
    25
100
AcDbSpline
210
0.0
220
0.0
230
1.0
 70
     8
 71
     3
 72
    26
 73
    22
 74
     0
 42
0.00000001
 43
0.00000001
 40
0.0
 40
0.0
 40
0.0
 40
0.0
 40
0.0057964332260252
 40
0.0886107645407029
 40
0.1715640117532075
 40
0.2544025835706031
 40
0.3373021555290958
 40
0.4200913972312553
 40
0.503013815926462
 40
0.5858132549592046
 40
0.6686993365515264
 40
0.7018248677119774
 40
0.7349270966317848
 40
0.7680151348834324
 40
0.8010981057644069
 40
0.8341851367639712
 40
0.8672853520126163
 40
0.9004078647453924
 40
0.933561769810181
 40
0.9667561362515348
 40
1.0
 40
1.0
 40
1.0
 40
1.0
 10
-5.145372280652281
 20
10.83221653810558
 30
0.0
 10
-5.156550990571389
 20
10.82798756153236
 30
0.0
 10
-5.327441259446272
 20
10.76333869338096
 30
0.0
 10
-5.655361285397895
 20
10.63028645781491
 30
0.0
 10
-6.121902969528589
 20
10.41754515092997
 30
0.0
 10
-6.579128894310088
 20
10.18504374338347
 30
0.0
 10
-7.025772099249648
 20
9.933506303876612
 30
0.0
 10
-7.461529532566741
 20
9.663222938263482
 30
0.0
 10
-7.885333551408771
 20
9.374924153064343
 30
0.0
 10
-8.296844321779858
 20
9.069010899888024
 30
0.0
 10
-8.615393574253599
 20
8.81077924042689
 30
0.0
 10
-8.848507021556477
 20
8.610283233369323
 30
0.0
 10
-9.001539802011592
 20
8.47418982208454
 30
0.0
 10
-9.152226225734998
 20
8.33563382293602
 30
0.0
 10
-9.300567815792952
 20
8.194615428953643
 30
0.0
 10
-9.446565234076036
 20
8.051135572245036
 30
0.0
 10
-9.590214105282884
 20
7.905190522274232
 30
0.0
 10
-9.731531092505927
 20
7.756794486433442
 30
0.0
 10
-9.870453666252587
 20
7.605894518119942
 30
0.0
 10
-10.00721549521935
 20
7.452688741613893
 30
0.0
 10
-10.0962924674677
 20
7.348607435585916
 30
0.0
 10
-10.14086413531751
 20
7.296528011638731
 30
0.0
  0
SPLINE
  5
106
330
1F
100
AcDbEntity
  8
0
  6
Continuous
 62
     7
370
    25
100
AcDbSpline
210
0.0
220
0.0
230
1.0
 70
     8
 71
     3
 72
    38
 73
    34
 74
     0
 42
0.00000001
 43
0.00000001
 40
0.0
 40
0.0
 40
0.0
 40
0.0
 40
0.0104290532268906
 40
0.0208545638577077
 40
0.031277100321807
 40
0.0416972315352762
 40
0.0521155268082364
 40
0.0625325557518218
 40
0.0729488881849114
 40
0.0833650940406927
 40
0.0937817432731296
 40
0.1041994057634141
 40
0.1146186512264772
 40
0.1250400491176379
 40
0.1875890094931901
 40
0.2500558239983234
 40
0.3125703586847899
 40
0.3750667530306665
 40
0.437612107560153
 40
0.5000747505992963
 40
0.5625884836939402
 40
0.6250759540394039
 40
0.6876134665758253
 40
0.7500595569349218
 40
0.8125550146069179
 40
0.8750283746555173
 40
0.8929101472485723
 40
0.9107772472236483
 40
0.9286327364675623
 40
0.946479682843069
 40
0.9643211586197937
 40
0.9821602388938218
 40
1.0
 40
1.0
 40
1.0
 40
1.0
 10
-17.57489531870616
 20
-7.658016496954953
 30
0.0
 10
-17.59136185035955
 20
-7.613860812970231
 30
0.0
 10
-17.62428932022759
 20
-7.525564444037543
 30
0.0
 10
-17.67243212796377
 20
-7.392682432466589
 30
0.0
 10
-17.71964884257042
 20
-7.259512329328828
 30
0.0
 10
-17.76585065679308
 20
-7.126020802238934
 30
0.0
 10
-17.81106135626444
 20
-6.992216780279635
 30
0.0
 10
-17.85527456904558
 20
-6.858097873845464
 30
0.0
 10
-17.89849200158791
 20
-6.723664722017879
 30
0.0
 10
-17.94071319592704
 20
-6.588917164662302
 30
0.0
 10
-17.98193827528123
 20
-6.453855210535106
 30
0.0
 10
-18.02216720247743
 20
-6.318478992023745
 30
0.0
 10
-18.06140000097858
 20
-6.182787978054649
 30
0.0
 10
-18.16338497008812
 20
-5.820037623321293
 30
0.0
 10
-18.31377325760849
 20
-5.226560096436078
 30
0.0
 10
-18.48506826051333
 20
-4.396381745961142
 30
0.0
 10
-18.61908480592917
 20
-3.559601420601514
 30
0.0
 10
-18.71553158540458
 20
-2.717310339693446
 30
0.0
 10
-18.77418584050999
 20
-1.871778104727093
 30
0.0
 10
-18.79467294396046
 20
-1.024381881146041
 30
0.0
 10
-18.77696996349802
 20
-0.1771833471217545
 30
0.0
 10
-18.72097005918262
 20
0.6686868231849386
 30
0.0
 10
-18.62685840046592
 20
1.510863065181336
 30
0.0
 10
-18.49449508840611
 20
2.347922128665472
 30
0.0
 10
-18.32423597814117
 20
3.177794455349948
 30
0.0
 10
-18.16570776657344
 20
3.803787693340814
 30
0.0
 10
-18.04418017839394
 20
4.230671025152753
 30
0.0
 10
-17.97481504467701
 20
4.462757516502702
 30
0.0
 10
-17.90245859685177
 20
4.693762594319158
 30
0.0
 10
-17.82712988083234
 20
4.923694913531234
 30
0.0
 10
-17.74875656480126
 20
5.15252662145195
 30
0.0
 10
-17.66760889217283
 20
5.380360323871605
 30
0.0
 10
-17.61099280748815
 20
5.531317436614544
 30
0.0
 10
-17.582684224965
 20
5.606797433285805
 30
0.0
  0
SPLINE
  5
10D
330
1F
100
AcDbEntity
  8
0
  6
Continuous
 62
     7
370
    25
100
AcDbSpline
210
0.0
220
0.0
230
1.0
 70
     8
 71
     3
 72
    19
 73
    15
 74
     0
 42
0.00000001
 43
0.00000001
 40
0.0
 40
0.0
 40
0.0
 40
0.0
 40
0.0820622189415432
 40
0.1641122274888678
 40
0.2461564538653296
 40
0.3282013276533869
 40
0.4102532782833014
 40
0.4923187335220285
 40
0.5744041179640518
 40
0.6565158515259485
 40
0.7386603479464324
 40
0.8208440132936264
 40
0.9104219845825923
 40
1.0
 40
1.0
 40
1.0
 40
1.0
 10
-12.76006904432206
 20
-4.183938342884373
 30
0.0
 10
-12.75044386765347
 20
-4.222357628037848
 30
0.0
 10
-12.73119494648816
 20
-4.299190481772379
 30
0.0
 10
-12.70103127827283
 20
-4.414104511941893
 30
0.0
 10
-12.66992683414748
 20
-4.5287576017361
 30
0.0
 10
-12.637788749901
 20
-4.643126734593235
 30
0.0
 10
-12.60464193941226
 20
-4.757218086425524
 30
0.0
 10
-12.57047960851615
 20
-4.871029955923182
 30
0.0
 10
-12.53530402338739
 20
-4.984562959796802
 30
0.0
 10
-12.49911291835186
 20
-5.097816320209786
 30
0.0
 10
-12.46191309805423
 20
-5.210792520892415
 30
0.0
 10
-12.4225400348958
 20
-5.326841152880747
 30
0.0
 10
-12.38099678927652
 20
-5.445939149462458
 30
0.0
 10
-12.35152405283467
 20
-5.527229433835067
 30
0.0
 10
-12.33678768098398
 20
-5.567874586032795
 30
0.0
  0
SPLINE
  5
113
330
1F
100
AcDbEntity
  8
0
  6
Continuous
 62
     7
370
    25
100
AcDbSpline
210
0.0
220
0.0
230
1.0
 70
     8
 71
     3
 72
    22
 73
    18
 74
     0
 42
0.00000001
 43
0.00000001
 40
0.0
 40
0.0
 40
0.0
 40
0.0
 40
0.0054349361728742
 40
0.0883107508995599
 40
0.1712628616789301
 40
0.3370293746973327
 40
0.4198547233131312
 40
0.5028081614697846
 40
0.5856537586253922
 40
0.6685596531210619
 40
0.7513685347222816
 40
0.8342854844944362
 40
0.8674053637077606
 40
0.9005274617807122
 40
0.9336610774211644
 40
0.9668154996461132
 40
1.0
 40
1.0
 40
1.0
 40
1.0
 10
-12.15037187118951
 20
4.013460433820901
 30
0.0
 10
-12.15503236495663
 20
4.002303223808783
 30
0.0
 10
-12.23075941878884
 20
3.821012852997829
 30
0.0
 10
-12.36924456595857
 20
3.465886952597345
 30
0.0
 10
-12.60759518898729
 20
2.76756259082642
 30
0.0
 10
-12.8004965842282
 20
2.054489239970015
 30
0.0
 10
-12.94712822742086
 20
1.331429545363937
 30
0.0
 10
-13.03384663342257
 20
0.7849554493329789
 30
0.0
 10
-13.09733835657324
 20
0.2351353290010412
 30
0.0
 10
-13.13743076089284
 20
-0.3165676284420139
 30
0.0
 10
-13.15421930307796
 20
-0.8696202855031192
 30
0.0
 10
-13.14901180731235
 20
-1.312121029949315
 30
0.0
 10
-13.13537310964971
 20
-1.643696063517153
 30
0.0
 10
-13.12260257495811
 20
-1.864427020164941
 30
0.0
 10
-13.10606044811365
 20
-2.084980257128566
 30
0.0
 10
-13.08607940824982
 20
-2.305395908378252
 30
0.0
 10
-13.06964506676697
 20
-2.452070499401082
 30
0.0
 10
-13.06142417035273
 20
-2.525441046110205
 30
0.0
  0
SPLINE
  5
11A
330
1F
100
AcDbEntity
  8
0
  6
Continuous
 62
     7
370
    25
100
AcDbSpline
210
0.0
220
0.0
230
1.0
 70
     8
 71
     3
 72
    45
 73
    41
 74
     0
 42
0.00000001
 43
0.00000001
 40
0.0
 40
0.0
 40
0.0
 40
0.0
 40
0.0089414106757633
 40
0.0178795981874004
 40
0.0268149431448544
 40
0.0357478265214123
 40
0.0446786296053825
 40
0.0536077339515695
 40
0.0625355213325791
 40
0.0714623736899844
 40
0.0803886730853828
 40
0.089314801651376
 40
0.0982411415425055
 40
0.1071680748861729
 40
0.1160959837335774
 40
0.1250252500107037
 40
0.1562922034401039
 40
0.1875402352648261
 40
0.2187858493939366
 40
0.2500455535658496
 40
0.3125733898066436
 40
0.3750497892741678
 40
0.437571049725099
 40
0.5000458893847554
 40
0.562546058809227
 40
0.6250388147500214
 40
0.6875595272957888
 40
0.7500276706204794
 40
0.7813020408558666
 40
0.8125468749694702
 40
0.8437792821534003
 40
0.8750163920192117
 40
0.890648832070547
 40
0.9062742468446284
 40
0.9218947917736956
 40
0.9375126243062654
 40
0.9531299030149654
 40
0.9687487867020438
 40
0.9843714335044008
 40
1.0
 40
1.0
 40
1.0
 40
1.0
 10
-24.39508063726588
 20
4.608344936051426
 30
0.0
 10
-24.38283044294686
 20
4.660982259230124
 30
0.0
 10
-24.35833447021009
 20
4.7662379310948
 30
0.0
 10
-24.32029219083283
 20
4.923787155020185
 30
0.0
 10
-24.28130846953449
 20
5.081052092979762
 30
0.0
 10
-24.24128964431166
 20
5.238011132174933
 30
0.0
 10
-24.20026080051223
 20
5.394670059984823
 30
0.0
 10
-24.15821521936405
 20
5.551027325164902
 30
0.0
 10
-24.11515470070286
 20
5.707083342187884
 30
0.0
 10
-24.07107876286085
 20
5.86283799868677
 30
0.0
 10
-24.02598753424293
 20
6.018291324543982
 30
0.0
 10
-23.97988098406147
 20
6.173443307388111
 30
0.0
 10
-23.93275910847039
 20
6.328293961672209
 30
0.0
 10
-23.88462195516945
 20
6.482843236834561
 30
0.0
 10
-23.83546933883962
 20
6.637091315619842
 30
0.0
 10
-23.74347245961861
 20
6.919397638735235
 30
0.0
 10
-23.60362897873609
 20
7.327996899065681
 30
0.0
 10
-23.40783449049685
 20
7.8598595176784
 30
0.0
 10
-23.19987702044127
 20
8.387043948270856
 30
0.0
 10
-22.9064632772309
 20
9.083544924633982
 30
0.0
 10
-22.50987197046088
 20
9.941142054758098
 30
0.0
 10
-21.98691376802372
 20
10.94717495966733
 30
0.0
 10
-21.41827201632143
 20
11.92775564251782
 30
0.0
 10
-20.80475276209308
 20
12.88106964906681
 30
0.0
 10
-20.14783895232392
 20
13.80480832572724
 30
0.0
 10
-19.44849238268982
 20
14.6972089829715
 30
0.0
 10
-18.70861495438678
 20
15.55603591759744
 30
0.0
 10
-18.05913731912626
 20
16.24229117205291
 30
0.0
 10
-17.52094248092483
 20
16.77251406006309
 30
0.0
 10
-17.10805243322272
 20
17.16069133565014
 30
0.0
 10
-16.68635526154528
 20
17.53893821739259
 30
0.0
 10
-16.32762018314908
 20
17.84585711212792
 30
0.0
 10
-16.03632590260336
 20
18.08634672686345
 30
0.0
 10
-15.8157169810779
 20
18.26416384498669
 30
0.0
 10
-15.59310452605696
 20
18.43932293717604
 30
0.0
 10
-15.36848468975023
 20
18.6118193317095
 30
0.0
 10
-15.14186993002315
 20
18.78167087483914
 30
0.0
 10
-14.91321433421331
 20
18.94881078565111
 30
0.0
 10
-14.68268922277705
 20
19.1134883554919
 30
0.0
 10
-14.52736963329438
 20
19.2209859492181
 30
0.0
 10
-14.44969512801499
 20
19.27474492733037
 30
0.0
  0
SPLINE
  5
121
330
1F
100
AcDbEntity
  8
0
  6
Continuous
 62
     7
370
    25
100
AcDbSpline
210
0.0
220
0.0
230
1.0
 70
     8
 71
     3
 72
    23
 73
    19
 74
     0
 42
0.00000001
 43
0.00000001
 40
0.0
 40
0.0
 40
0.0
 40
0.0
 40
0.0522562104592822
 40
0.1045093399045193
 40
0.1567620306548749
 40
0.2090169250960618
 40
0.2612766652795221
 40
0.3135438925218542
 40
0.3658212470048069
 40
0.4181113673761229
 40
0.4704168903515492
 40
0.5227404503183063
 40
0.5750846789403093
 40
0.6274522047654425
 40
0.6798456528351704
 40
0.7865902562285328
 40
0.8933009821596981
 40
1.0
 40
1.0
 40
1.0
 40
1.0
 10
-18.14617259070194
 20
5.813022733159423
 30
0.0
 10
-18.16205800801217
 20
5.770842473415244
 30
0.0
 10
-18.19382790603212
 20
5.686484440865216
 30
0.0
 10
-18.24033980161559
 20
5.559523402857161
 30
0.0
 10
-18.28601194084488
 20
5.432259973320059
 30
0.0
 10
-18.33076249592341
 20
5.304663144408481
 30
0.0
 10
-18.3746133926006
 20
5.176741226055285
 30
0.0
 10
-18.41755875426234
 20
5.048491992482922
 30
0.0
 10
-18.45960015822308
 20
4.919916042211689
 30
0.0
 10
-18.50073717114718
 20
4.791013213282888
 30
0.0
 10
-18.54096994736014
 20
4.661783560942329
 30
0.0
 10
-18.58029830174183
 20
4.532227032278848
 30
0.0
 10
-18.61872281968544
 20
4.40234378987192
 30
0.0
 10
-18.65624134259905
 20
4.272133242093249
 30
0.0
 10
-18.70551803890556
 20
4.096484334026169
 30
0.0
 10
-18.76502268186998
 20
3.875032025734935
 30
0.0
 10
-18.83311715574148
 20
3.607404112589367
 30
0.0
 10
-18.87523670511857
 20
3.428213640565028
 30
0.0
 10
-18.89629532442521
 20
3.338623319929006
 30
0.0
  0
SPLINE
  5
127
330
1F
100
AcDbEntity
  8
0
  6
Continuous
 62
     7
370
    25
100
AcDbSpline
210
0.0
220
0.0
230
1.0
 70
     8
 71
     3
 72
    25
 73
    21
 74
     0
 42
0.00000001
 43
0.00000001
 40
0.0
 40
0.0
 40
0.0
 40
0.0
 40
0.0036340831202513
 40
0.0866779264849662
 40
0.1697347896332286
 40
0.2527109390408671
 40
0.3358108506418077
 40
0.4188323837921538
 40
0.5018676447231318
 40
0.5848214435422723
 40
0.6679104871438606
 40
0.7509161634498702
 40
0.8339516263423976
 40
0.8576499663103241
 40
0.8813495555421565
 40
0.9050542192937965
 40
0.9287677803654188
 40
0.9524940572565662
 40
0.9762368623316144
 40
1.0
 40
1.0
 40
1.0
 40
1.0
 10
-10.89785260318596
 20
14.86243025343822
 30
0.0
 10
-10.90808813964241
 20
14.85573220910127
 30
0.0
 10
-11.15221989093961
 20
14.6959745548541
 30
0.0
 10
-11.62274868342889
 20
14.37149451929311
 30
0.0
 10
-12.29092835528349
 20
13.86464374754503
 30
0.0
 10
-12.93556780047467
 20
13.32784570983373
 30
0.0
 10
-13.55516591764548
 20
12.76251728037258
 30
0.0
 10
-14.14886279848536
 20
12.16976465419646
 30
0.0
 10
-14.71492340213249
 20
11.5512320823453
 30
0.0
 10
-15.25278014825434
 20
10.90773044231089
 30
0.0
 10
-15.7611586961672
 20
10.24081913151881
 30
0.0
 10
-16.23948095748185
 20
9.55171562642164
 30
0.0
 10
-16.58001619390042
 20
9.011128845486175
 30
0.0
 10
-16.80331611647221
 20
8.633109370953465
 30
0.0
 10
-16.92241663553297
 20
8.425507969090242
 30
0.0
 10
-17.03889120123142
 20
8.216364790399822
 30
0.0
 10
-17.15275798751425
 20
8.005687207566018
 30
0.0
 10
-17.26395056845933
 20
7.793443450639874
 30
0.0
 10
-17.37271665762334
 20
7.579753440406513
 30
0.0
 10
-17.44295890731631
 20
7.436099520364784
 30
0.0
 10
-17.47809506404108
 20
7.36424181832967
 30
0.0
  0
CIRCLE
  5
12C
330
1F
100
AcDbEntity
  8
0
  6
Continuous
 62
     7
370
    25
100
AcDbCircle
 10
0.0
 20
5.575
 30
0.0
 40
0.1599999999999993
  0
CIRCLE
  5
12D
330
1F
100
AcDbEntity
  8
0
  6
Continuous
 62
     7
370
    25
100
AcDbCircle
 10
0.0
 20
5.0
 30
0.0
 40
0.125
  0
CIRCLE
  5
12E
330
1F
100
AcDbEntity
  8
0
  6
Continuous
 62
     7
370
    25
100
AcDbCircle
 10
-4.5965517241
 20
4.4163793104
 30
0.0
 40
0.1599999999999993
  0
CIRCLE
  5
12F
330
1F
100
AcDbEntity
  8
0
  6
Continuous
 62
     7
370
    25
100
AcDbCircle
 10
-4.2
 20
4.0
 30
0.0
 40
0.125
  0
CIRCLE
  5
130
330
1F
100
AcDbEntity
  8
0
  6
Continuous
 62
     7
370
    25
100
AcDbCircle
 10
-7.1782616264
 20
-0.3641304732
 30
0.0
 40
0.1600000000000009
  0
CIRCLE
  5
131
330
1F
100
AcDbEntity
  8
0
  6
Continuous
 62
     7
370
    25
100
AcDbCircle
 10
-6.604
 20
-0.335
 30
0.0
 40
0.1249999999999989
  0
CIRCLE
  5
132
330
1F
100
AcDbEntity
  8
0
  6
Continuous
 62
     7
370
    25
100
AcDbCircle
 10
-2.4207393212
 20
11.7802312221
 30
0.0
 40
0.1599999999999984
  0
CIRCLE
  5
133
330
1F
100
AcDbEntity
  8
0
  6
Continuous
 62
     7
370
    25
100
AcDbCircle
 10
-2.305
 20
11.217
 30
0.0
 40
0.125
  0
CIRCLE
  5
134
330
1F
100
AcDbEntity
  8
0
  6
Continuous
 62
     7
370
    25
100
AcDbCircle
 10
-10.8909754907
 20
6.7881462156
 30
0.0
 40
0.1599999999999984
  0
CIRCLE
  5
135
330
1F
100
AcDbEntity
  8
0
  6
Continuous
 62
     7
370
    25
100
AcDbCircle
 10
-10.403
 20
6.484
 30
0.0
 40
0.1250000000000018
  0
CIRCLE
  5
136
330
1F
100
AcDbEntity
  8
0
  6
Continuous
 62
     7
370
    25
100
AcDbCircle
 10
-13.2036393787
 20
-3.4191443793
 30
0.0
 40
0.1599999999999993
  0
CIRCLE
  5
137
330
1F
100
AcDbEntity
  8
0
  6
Continuous
 62
     7
370
    25
100
AcDbCircle
 10
-12.647
 20
-3.275
 30
0.0
 40
0.1250000000000049
  0
CIRCLE
  5
138
330
1F
100
AcDbEntity
  8
0
  6
Continuous
 62
     7
370
    25
100
AcDbCircle
 10
-7.286751654
 20
16.9804020131
 30
0.0
 40
0.1600000000000001
  0
CIRCLE
  5
139
330
1F
100
AcDbEntity
  8
0
  6
Continuous
 62
     7
370
    25
100
AcDbCircle
 10
-7.06
 20
16.452
 30
0.0
 40
0.125
  0
CIRCLE
  5
13A
330
1F
100
AcDbEntity
  8
0
  6
Continuous
 62
     7
370
    25
100
AcDbCircle
 10
-18.0842070203
 20
6.6977017508
 30
0.0
 40
0.1599999999999939
  0
CIRCLE
  5
13B
330
1F
100
AcDbEntity
  8
0
  6
Continuous
 62
     7
370
    25
100
AcDbCircle
 10
-17.545
 20
6.498
 30
0.0
 40
0.1249999999999982
  0
CIRCLE
  5
13C
330
1F
100
AcDbEntity
  8
0
  6
Continuous
 62
     7
370
    25
100
AcDbCircle
 10
-18.0382370433
 20
-8.8482277929
 30
0.0
 40
0.1600000000000019
  0
CIRCLE
  5
13D
330
1F
100
AcDbEntity
  8
0
  6
Continuous
 62
     7
370
    25
100
AcDbCircle
 10
-17.522
 20
-8.595
 30
0.0
 40
0.1250000000000124
  0
CIRCLE
  5
13E
330
1F
100
AcDbEntity
  8
0
  6
Continuous
 62
     7
370
    25
100
AcDbCircle
 10
-14.2414720567
 20
20.461943967
 30
0.0
 40
0.1599999999999966
  0
CIRCLE
  5
13F
330
1F
100
AcDbEntity
  8
0
  6
Continuous
 62
     7
370
    25
100
AcDbCircle
 10
-13.913
 20
19.99
 30
0.0
 40
0.1249999999999929
  0
CIRCLE
  5
140
330
1F
100
AcDbEntity
  8
0
  6
Continuous
 62
     7
370
    25
100
AcDbCircle
 10
-25.4393696185
 20
3.8970688049
 30
0.0
 40
0.1599999999999935
  0
CIRCLE
  5
141
330
1F
100
AcDbEntity
  8
0
  6
Continuous
 62
     7
370
    25
100
AcDbCircle
 10
-24.871
 20
3.81
 30
0.0
 40
0.1249999999999925
  0
SPLINE
  5
143
330
1F
100
AcDbEntity
  8
0
  6
Continuous
 62
     7
370
    25
100
AcDbSpline
210
0.0
220
0.0
230
1.0
 70
     8
 71
     3
 72
    18
 73
    14
 74
     0
 42
0.00000001
 43
0.00000001
 40
0.0
 40
0.0
 40
0.0
 40
0.0
 40
0.0910135731052975
 40
0.1819829209748914
 40
0.2729158067586791
 40
0.3638200029480648
 40
0.4547032893952018
 40
0.5455734513228014
 40
0.636438277327078
 40
0.7273055573763285
 40
0.818183080807776
 40
0.9090786343252064
 40
1.0
 40
1.0
 40
1.0
 40
1.0
 10
-11.14131838222568
 20
5.940635233324976
 30
0.0
 10
-11.16222829678103
 20
5.907707722114094
 30
0.0
 10
-11.20403796536437
 20
5.841868699799726
 30
0.0
 10
-11.26557993138045
 20
5.742402792378394
 30
0.0
 10
-11.32624121975984
 20
5.642453625985603
 30
0.0
 10
-11.38593915112407
 20
5.541968385567165
 30
0.0
 10
-11.44469575245916
 20
5.440961160874473
 30
0.0
 10
-11.50250554236807
 20
5.339428392496734
 30
0.0
 10
-11.55936842015617
 20
5.237370247065879
 30
0.0
 10
-11.61529026024407
 20
5.134789629554287
 30
0.0
 10
-11.67024765533455
 20
5.031674765565803
 30
0.0
 10
-11.72432837472838
 20
4.928069872329868
 30
0.0
 10
-11.75957319784251
 20
4.858575010735473
 30
0.0
 10
-11.77719811121548
 20
4.823822646920186
 30
0.0
  0
LINE
  5
144
330
1F
100
AcDbEntity
  8
0
  6
Continuous
 62
     7
370
    25
100
AcDbLine
 10
-25.9407539851
 20
3.2657101771
 30
0.0
 11
-25.4409680757
 21
3.1891477423
 31
0.0
  0
LINE
  5
145
330
1F
100
AcDbEntity
  8
0
  6
Continuous
 62
     7
370
    25
100
AcDbLine
 10
-25.7287603732
 20
4.6495666395
 30
0.0
 11
-25.9407539851
 21
3.2657101771
 31
0.0
  0
LINE
  5
146
330
1F
100
AcDbEntity
  8
0
  6
Continuous
 62
     7
370
    25
100
AcDbLine
 10
-25.1636608804
 20
4.5629987867
 30
0.0
 11
-25.7287603732
 21
4.6495666395
 31
0.0
  0
LINE
  5
147
330
1F
100
AcDbEntity
  8
0
  6
Continuous
 62
     7
370
    25
100
AcDbLine
 10
-15.0445148385
 20
20.3903737881
 30
0.0
 11
-14.7557716616
 21
19.975511709
 31
0.0
  0
LINE
  5
148
330
1F
100
AcDbEntity
  8
0
  6
Continuous
 62
     7
370
    25
100
AcDbLine
 10
-13.8954338754
 20
21.1901318391
 30
0.0
 11
-15.0445148385
 21
20.3903737881
 31
0.0
  0
LINE
  5
149
330
1F
100
AcDbEntity
  8
0
  6
Continuous
 62
     7
370
    25
100
AcDbLine
 10
-13.5677253048
 20
20.719284838
 30
0.0
 11
-13.8954338754
 21
21.1901318391
 31
0.0
  0
LINE
  5
14A
330
1F
100
AcDbEntity
  8
0
  6
Continuous
 62
     7
370
    25
100
AcDbLine
 10
-0.9372867466
 20
23.4707379677
 30
0.0
 11
-0.9612491624
 21
24.070784415
 31
0.0
  0
LINE
  5
14B
330
1F
100
AcDbEntity
  8
0
  6
Continuous
 62
     7
370
    25
100
AcDbLine
 10
-12.6386712238
 20
19.3844331828
 30
0.0
 11
-13.0521120948
 21
19.9784591306
 31
0.0
  0
LINE
  5
14C
330
1F
100
AcDbEntity
  8
0
  6
Continuous
 62
     7
370
    25
100
AcDbLine
 10
-12.843864797
 20
19.2416188664
 30
0.0
 11
-12.6386712238
 21
19.3844331828
 31
0.0
  0
LINE
  5
14D
330
1F
100
AcDbEntity
  8
0
  6
Continuous
 62
     7
370
    25
100
AcDbLine
 10
-12.8812926306
 20
19.0328152304
 30
0.0
 11
-10.3367866613
 21
15.3768708789
 31
0.0
  0
LINE
  5
14E
330
1F
100
AcDbEntity
  8
0
  6
Continuous
 62
     7
370
    25
100
AcDbLine
 10
-8.0877639509
 20
17.0719405303
 30
0.0
 11
-7.8915136258
 21
16.6146161182
 31
0.0
  0
LINE
  5
14F
330
1F
100
AcDbEntity
  8
0
  6
Continuous
 62
     7
370
    25
100
AcDbLine
 10
-6.8012199191
 20
17.624031514
 30
0.0
 11
-8.0877639509
 21
17.0719405303
 31
0.0
  0
LINE
  5
150
330
1F
100
AcDbEntity
  8
0
  6
Continuous
 62
     7
370
    25
100
AcDbLine
 10
-6.5685900959
 20
17.0819315349
 30
0.0
 11
-6.8012199191
 21
17.624031514
 31
0.0
  0
LINE
  5
151
330
1F
100
AcDbEntity
  8
0
  6
Continuous
 62
     7
370
    25
100
AcDbLine
 10
-0.6878859006
 20
17.2254539855
 30
0.0
 11
-0.7118657632
 21
17.8259373213
 31
0.0
  0
LINE
  5
152
330
1F
100
AcDbEntity
  8
0
  6
Continuous
 62
     7
370
    25
100
AcDbLine
 10
-5.9336483734
 20
15.602319464
 30
0.0
 11
-6.2117725005
 21
16.2504353477
 31
0.0
  0
LINE
  5
153
330
1F
100
AcDbEntity
  8
0
  6
Continuous
 62
     7
370
    25
100
AcDbLine
 10
-6.1633883791
 20
15.5037317883
 30
0.0
 11
-5.9336483734
 21
15.602319464
 31
0.0
  0
LINE
  5
154
330
1F
100
AcDbEntity
  8
0
  6
Continuous
 62
     7
370
    25
100
AcDbLine
 10
-6.2420797771
 20
15.3067351795
 30
0.0
 11
-4.4799026369
 21
11.2003133217
 31
0.0
  0
LINE
  5
155
330
1F
100
AcDbEntity
  8
0
  6
Continuous
 62
     7
370
    25
100
AcDbLine
 10
-3.1869264238
 20
12.0311442029
 30
0.0
 11
-3.0897641562
 21
11.5583159357
 31
0.0
  0
LINE
  5
156
330
1F
100
AcDbEntity
  8
0
  6
Continuous
 62
     7
370
    25
100
AcDbLine
 10
-1.8155808396
 20
12.3129442894
 30
0.0
 11
-3.1869264238
 21
12.0311442029
 31
0.0
  0
LINE
  5
157
330
1F
100
AcDbEntity
  8
0
  6
Continuous
 62
     7
370
    25
100
AcDbLine
 10
-1.6897293004
 20
11.700503198
 30
0.0
 11
-1.8155808396
 21
12.3129442894
 31
0.0
  0
LINE
  5
158
330
1F
100
AcDbEntity
  8
0
  6
Continuous
 62
     7
370
    25
100
AcDbLine
 10
-0.4384699202
 20
10.9797910196
 30
0.0
 11
-0.462504669
 21
11.5816487684
 31
0.0
  0
LINE
  5
159
330
1F
100
AcDbEntity
  8
0
  6
Continuous
 62
     7
370
    25
100
AcDbLine
 10
-1.3727521322
 20
10.1579726571
 30
0.0
 11
-1.5061639476
 21
10.807204906
 31
0.0
  0
LINE
  5
15A
330
1F
100
AcDbEntity
  8
0
  6
Continuous
 62
     7
370
    25
100
AcDbLine
 10
-1.6176352704
 20
10.1076512135
 30
0.0
 11
-1.3727521322
 21
10.1579726571
 31
0.0
  0
LINE
  5
15B
330
1F
100
AcDbEntity
  8
0
  6
Continuous
 62
     7
370
    25
100
AcDbLine
 10
-1.734372288
 20
9.930528463
 30
0.0
 11
-0.9461635279
 21
6.0948071336
 31
0.0
  0
LINE
  5
15C
330
1F
100
AcDbEntity
  8
0
  6
Continuous
 62
     7
370
    25
100
AcDbLine
 10
0.7
 20
5.975
 30
0.0
 11
-0.799233644
 21
5.975
 31
0.0
  0
LINE
  5
15D
330
1F
100
AcDbEntity
  8
0
  6
Continuous
 62
     7
370
    25
100
AcDbLine
 10
0.7
 20
3.775
 30
0.0
 11
0.7
 21
5.975
 31
0.0
  0
LINE
  5
15E
330
1F
100
AcDbEntity
  8
0
  6
Continuous
 62
     7
370
    25
100
AcDbLine
 10
-0.7
 20
3.775
 30
0.0
 11
0.7
 21
3.775
 31
0.0
  0
LINE
  5
15F
330
1F
100
AcDbEntity
  8
0
  6
Continuous
 62
     7
370
    25
100
AcDbLine
 10
-0.7
 20
4.6438819893
 30
0.0
 11
-0.7
 21
3.775
 31
0.0
  0
LINE
  5
160
330
1F
100
AcDbEntity
  8
0
  6
Continuous
 62
     7
370
    25
100
AcDbLine
 10
-2.8482758621
 20
3.5956896551
 30
0.0
 11
-3.2560869023
 21
4.0238912473
 31
0.0
  0
LINE
  5
161
330
1F
100
AcDbEntity
  8
0
  6
Continuous
 62
     7
370
    25
100
AcDbLine
 10
-3.8620689656
 20
2.6301724138
 30
0.0
 11
-2.8482758621
 21
3.5956896551
 31
0.0
  0
LINE
  5
162
330
1F
100
AcDbEntity
  8
0
  6
Continuous
 62
     7
370
    25
100
AcDbLine
 10
-4.4279118367
 20
3.2243074285
 30
0.0
 11
-3.8620689656
 21
2.6301724138
 31
0.0
  0
LINE
  5
163
330
1F
100
AcDbEntity
  8
0
  6
Continuous
 62
     7
370
    25
100
AcDbLine
 10
-5.4160362416
 20
0.4261616837
 30
0.0
 11
-5.9836776887
 21
0.3973670312
 31
0.0
  0
LINE
  5
164
330
1F
100
AcDbEntity
  8
0
  6
Continuous
 62
     7
370
    25
100
AcDbLine
 10
-5.3451098721
 20
-0.9720405371
 30
0.0
 11
-5.4160362416
 21
0.4261616837
 31
0.0
  0
LINE
  5
165
330
1F
100
AcDbEntity
  8
0
  6
Continuous
 62
     7
370
    25
100
AcDbLine
 10
-6.1913299681
 20
-1.0149666019
 30
0.0
 11
-5.3451098721
 21
-0.9720405371
 31
0.0
  0
LINE
  5
166
330
1F
100
AcDbEntity
  8
0
  6
Continuous
 62
     7
370
    25
100
AcDbLine
 10
-6.1758967448
 20
-4.1791417802
 30
0.0
 11
-5.6741770825
 21
-3.8396351968
 31
0.0
  0
LINE
  5
167
330
1F
100
AcDbEntity
  8
0
  6
Continuous
 62
     7
370
    25
100
AcDbLine
 10
-11.2407000704
 20
-3.2207274644
 30
0.0
 11
-7.0073357182
 21
-2.1244778989
 31
0.0
  0
LINE
  5
168
330
1F
100
AcDbEntity
  8
0
  6
Continuous
 62
     7
370
    25
100
AcDbLine
 10
-11.2856359923
 20
-3.6455577398
 30
0.0
 11
-11.3483074616
 21
-3.4035406187
 31
0.0
  0
LINE
  5
169
330
1F
100
AcDbEntity
  8
0
  6
Continuous
 62
     7
370
    25
100
AcDbLine
 10
-12.0719553101
 20
-3.8491788173
 30
0.0
 11
-11.2856359923
 21
-3.6455577398
 31
0.0
  0
LINE
  5
16A
330
1F
100
AcDbEntity
  8
0
  6
Continuous
 62
     7
370
    25
100
AcDbLine
 10
-11.3505405268
 20
-7.6807498737
 30
0.0
 11
-10.8522526977
 21
-7.3435655633
 31
0.0
  0
LINE
  5
16B
330
1F
100
AcDbEntity
  8
0
  6
Continuous
 62
     7
370
    25
100
AcDbLine
 10
-16.1554012653
 20
-8.258796344
 30
0.0
 11
-12.2059780368
 21
-6.321500793
 31
0.0
  0
LINE
  5
16C
330
1F
100
AcDbEntity
  8
0
  6
Continuous
 62
     7
370
    25
100
AcDbLine
 10
-16.1139133337
 20
-8.6839771897
 30
0.0
 11
-16.2240123741
 21
-8.4595263013
 31
0.0
  0
LINE
  5
16D
330
1F
100
AcDbEntity
  8
0
  6
Continuous
 62
     7
370
    25
100
AcDbLine
 10
-16.8315240362
 20
-9.0359840374
 30
0.0
 11
-16.1139133337
 21
-8.6839771897
 31
0.0
  0
LINE
  5
16E
330
1F
100
AcDbEntity
  8
0
  6
Continuous
 62
     7
370
    25
100
AcDbLine
 10
-16.5264304837
 20
-11.1832012362
 30
0.0
 11
-16.0288726941
 21
-10.8465109331
 31
0.0
  0
LINE
  5
16F
330
1F
100
AcDbEntity
  8
0
  6
Continuous
 62
     7
370
    25
100
AcDbLine
 10
-18.0890811517
 20
-9.652848745
 30
0.0
 11
-17.6395679404
 21
-9.4323507396
 31
0.0
  0
LINE
  5
170
330
1F
100
AcDbEntity
  8
0
  6
Continuous
 62
     7
370
    25
100
AcDbLine
 10
-18.7056357779
 20
-8.39592377
 30
0.0
 11
-18.0890811517
 21
-9.652848745
 31
0.0
  0
LINE
  5
171
330
1F
100
AcDbEntity
  8
0
  6
Continuous
 62
     7
370
    25
100
AcDbLine
 10
-18.1800652552
 20
-8.138117661
 30
0.0
 11
-18.7056357779
 21
-8.39592377
 31
0.0
  0
LINE
  5
172
330
1F
100
AcDbEntity
  8
0
  6
Continuous
 62
     7
370
    25
100
AcDbLine
 10
-23.5572815038
 20
3.305250012
 30
0.0
 11
-19.2017617151
 21
2.637991877
 31
0.0
  0
LINE
  5
173
330
1F
100
AcDbEntity
  8
0
  6
Continuous
 62
     7
370
    25
100
AcDbLine
 10
-23.7661224013
 20
2.9325773584
 30
0.0
 11
-23.7282665727
 21
3.1796934515
 31
0.0
  0
LINE
  5
174
330
1F
100
AcDbEntity
  8
0
  6
Continuous
 62
     7
370
    25
100
AcDbLine
 10
-24.5513319798
 20
3.0528639771
 30
0.0
 11
-23.7661224013
 21
2.9325773584
 31
0.0
  0
LINE
  5
175
330
1F
100
AcDbEntity
  8
0
  6
Continuous
 62
     7
370
    25
100
AcDbLine
 10
-21.7025728326
 20
-14.6858233887
 30
0.0
 11
-21.205284868
 21
-14.3493156724
 31
0.0
  0
LINE
  5
176
330
1F
100
AcDbEntity
  8
0
  6
Continuous
 62
     7
370
    25
100
AcDbLine
 10
-2.9085933513
 20
10.6766704175
 30
0.0
 11
-2.7440977164
 21
9.8761725706
 31
0.0
  0
LINE
  5
177
330
1F
100
AcDbEntity
  8
0
  6
Continuous
 62
     7
370
    25
100
AcDbLine
 10
-8.9931350834
 20
6.4300934423
 30
0.0
 11
-9.56201319
 21
6.7846647816
 31
0.0
  0
LINE
  5
178
330
1F
100
AcDbEntity
  8
0
  6
Continuous
 62
     7
370
    25
100
AcDbLine
 10
-9.1253725685
 20
6.2179301854
 30
0.0
 11
-8.9931350834
 21
6.4300934423
 31
0.0
  0
LINE
  5
179
330
1F
100
AcDbEntity
  8
0
  6
Continuous
 62
     7
370
    25
100
AcDbLine
 10
-9.0774171054
 20
6.0112897403
 30
0.0
 11
-5.2540002495
 21
3.628223808
 31
0.0
  0
LINE
  5
17A
330
1F
100
AcDbEntity
  8
0
  6
Continuous
 62
     7
370
    25
100
AcDbLine
 10
-5.0513976952
 20
3.6667061683
 30
0.0
 11
-5.0682145891
 21
3.6498346527
 31
0.0
  0
LINE
  5
17B
330
1F
100
AcDbEntity
  8
0
  6
Continuous
 62
     7
370
    25
100
AcDbLine
 10
-5.3793103448
 20
4.2232758621
 30
0.0
 11
-5.0488114511
 21
3.8762520236
 31
0.0
  0
LINE
  5
17C
330
1F
100
AcDbEntity
  8
0
  6
Continuous
 62
     7
370
    25
100
AcDbLine
 10
-4.3655172413
 20
5.1887931035
 30
0.0
 11
-5.3793103448
 21
4.2232758621
 31
0.0
  0
LINE
  5
17D
330
1F
100
AcDbEntity
  8
0
  6
Continuous
 62
     7
370
    25
100
AcDbLine
 10
-3.9010982044
 20
4.7011531146
 30
0.0
 11
-4.3655172413
 21
5.1887931035
 31
0.0
  0
LINE
  5
17E
330
1F
100
AcDbEntity
  8
0
  6
Continuous
 62
     7
370
    25
100
AcDbLine
 10
-2.3220918259
 20
9.809756997
 30
0.0
 11
-1.4450726606
 21
5.5418507145
 31
0.0
  0
LINE
  5
17F
330
1F
100
AcDbEntity
  8
0
  6
Continuous
 62
     7
370
    25
100
AcDbLine
 10
-2.7440977164
 20
9.8761725706
 30
0.0
 11
-2.4992145764
 21
9.9264940146
 31
0.0
  0
LINE
  5
180
330
1F
100
AcDbEntity
  8
0
  6
Continuous
 62
     7
370
    25
100
AcDbLine
 10
-10.4245492504
 20
5.6725947458
 30
0.0
 11
-9.7336649997
 21
5.2419792041
 31
0.0
  0
LINE
  5
181
330
1F
100
AcDbEntity
  8
0
  6
Continuous
 62
     7
370
    25
100
AcDbLine
 10
-11.6365962202
 20
-2.2902618613
 30
0.0
 11
-12.2927029542
 21
-2.460163779
 31
0.0
  0
LINE
  5
182
330
1F
100
AcDbEntity
  8
0
  6
Continuous
 62
     7
370
    25
100
AcDbLine
 10
-11.573924751
 20
-2.5322789825
 30
0.0
 11
-11.6365962202
 21
-2.2902618613
 31
0.0
  0
LINE
  5
183
330
1F
100
AcDbEntity
  8
0
  6
Continuous
 62
     7
370
    25
100
AcDbLine
 10
-11.3911115967
 20
-2.6398863736
 30
0.0
 11
-7.038394193
 21
-1.5127297753
 31
0.0
  0
LINE
  5
184
330
1F
100
AcDbEntity
  8
0
  6
Continuous
 62
     7
370
    25
100
AcDbLine
 10
-7.5422847904
 20
-1.0834962605
 30
0.0
 11
-7.090355344
 21
-1.0605713113
 31
0.0
  0
LINE
  5
185
330
1F
100
AcDbEntity
  8
0
  6
Continuous
 62
     7
370
    25
100
AcDbLine
 10
-7.6132111599
 20
0.3147059602
 30
0.0
 11
-7.5422847904
 21
-1.0834962605
 31
0.0
  0
LINE
  5
186
330
1F
100
AcDbEntity
  8
0
  6
Continuous
 62
     7
370
    25
100
AcDbLine
 10
-6.9201756132
 20
0.3498614581
 30
0.0
 11
-7.6132111599
 21
0.3147059602
 31
0.0
  0
LINE
  5
187
330
1F
100
AcDbEntity
  8
0
  6
Continuous
 62
     7
370
    25
100
AcDbLine
 10
-9.3947870695
 20
5.502097924
 30
0.0
 11
-5.6891060699
 21
3.1924146017
 31
0.0
  0
LINE
  5
188
330
1F
100
AcDbEntity
  8
0
  6
Continuous
 62
     7
370
    25
100
AcDbLine
 10
-9.7336649997
 20
5.2419792041
 30
0.0
 11
-9.6014275147
 21
5.4541424609
 31
0.0
  0
LINE
  5
189
330
1F
100
AcDbEntity
  8
0
  6
Continuous
 62
     7
370
    25
100
AcDbLine
 10
-7.5365873882
 20
15.7875273843
 30
0.0
 11
-7.2201924052
 21
15.0502284803
 31
0.0
  0
LINE
  5
18A
330
1F
100
AcDbEntity
  8
0
  6
Continuous
 62
     7
370
    25
100
AcDbLine
 10
-16.1531394341
 20
6.7289743816
 30
0.0
 11
-16.8170722001
 21
6.9748698
 31
0.0
  0
LINE
  5
18B
330
1F
100
AcDbEntity
  8
0
  6
Continuous
 62
     7
370
    25
100
AcDbLine
 10
-16.239966281
 20
6.4945365501
 30
0.0
 11
-16.1531394341
 21
6.7289743816
 31
0.0
  0
LINE
  5
18C
330
1F
100
AcDbEntity
  8
0
  6
Continuous
 62
     7
370
    25
100
AcDbLine
 10
-16.151399689
 20
6.3017777403
 30
0.0
 11
-11.9631868583
 21
4.7506231677
 31
0.0
  0
LINE
  5
18D
330
1F
100
AcDbEntity
  8
0
  6
Continuous
 62
     7
370
    25
100
AcDbLine
 10
-11.6007016598
 20
6.4056690726
 30
0.0
 11
-11.1883871218
 21
6.1486809477
 31
0.0
  0
LINE
  5
18E
330
1F
100
AcDbEntity
  8
0
  6
Continuous
 62
     7
370
    25
100
AcDbLine
 10
-10.8601717435
 20
7.5937833108
 30
0.0
 11
-11.6007016598
 21
6.4056690726
 31
0.0
  0
LINE
  5
18F
330
1F
100
AcDbEntity
  8
0
  6
Continuous
 62
     7
370
    25
100
AcDbLine
 10
-10.3346291265
 20
7.2662221912
 30
0.0
 11
-10.8601717435
 21
7.5937833108
 31
0.0
  0
LINE
  5
190
330
1F
100
AcDbEntity
  8
0
  6
Continuous
 62
     7
370
    25
100
AcDbLine
 10
-6.7934557907
 20
15.070124758
 30
0.0
 11
-5.0604655438
 21
11.0317174567
 31
0.0
  0
LINE
  5
191
330
1F
100
AcDbEntity
  8
0
  6
Continuous
 62
     7
370
    25
100
AcDbLine
 10
-7.2201924052
 20
15.0502284803
 30
0.0
 11
-6.9904523995
 21
15.148816156
 31
0.0
  0
LINE
  5
192
330
1F
100
AcDbEntity
  8
0
  6
Continuous
 62
     7
370
    25
100
AcDbLine
 10
-17.3903415728
 20
5.6942538647
 30
0.0
 11
-16.6393697839
 21
5.4161225062
 31
0.0
  0
LINE
  5
193
330
1F
100
AcDbEntity
  8
0
  6
Continuous
 62
     7
370
    25
100
AcDbLine
 10
-16.7304679599
 20
-7.4270522146
 30
0.0
 11
-17.3684025298
 21
-7.7399758322
 31
0.0
  0
LINE
  5
194
330
1F
100
AcDbEntity
  8
0
  6
Continuous
 62
     7
370
    25
100
AcDbLine
 10
-16.6203689195
 20
-7.651503103
 30
0.0
 11
-16.7304679599
 21
-7.4270522146
 31
0.0
  0
LINE
  5
195
330
1F
100
AcDbEntity
  8
0
  6
Continuous
 62
     7
370
    25
100
AcDbLine
 10
-16.4196389622
 20
-7.7201142118
 30
0.0
 11
-12.4115983716
 21
-5.7540653092
 31
0.0
  0
LINE
  5
196
330
1F
100
AcDbEntity
  8
0
  6
Continuous
 62
     7
370
    25
100
AcDbLine
 10
-13.4153866586
 20
-4.1970666694
 30
0.0
 11
-12.9432677634
 21
-4.074809266
 31
0.0
  0
LINE
  5
197
330
1F
100
AcDbEntity
  8
0
  6
Continuous
 62
     7
370
    25
100
AcDbLine
 10
-13.7663468865
 20
-2.8417707909
 30
0.0
 11
-13.4153866586
 21
-4.1970666694
 31
0.0
  0
LINE
  5
198
330
1F
100
AcDbEntity
  8
0
  6
Continuous
 62
     7
370
    25
100
AcDbLine
 10
-13.1728064062
 20
-2.6880706981
 30
0.0
 11
-13.7663468865
 21
-2.8417707909
 31
0.0
  0
LINE
  5
199
330
1F
100
AcDbEntity
  8
0
  6
Continuous
 62
     7
370
    25
100
AcDbLine
 10
-16.3597841258
 20
5.7391269331
 30
0.0
 11
-12.2366314932
 21
4.2120681808
 31
0.0
  0
LINE
  5
19A
330
1F
100
AcDbEntity
  8
0
  6
Continuous
 62
     7
370
    25
100
AcDbLine
 10
-16.6393697839
 20
5.4161225062
 30
0.0
 11
-16.5525429357
 21
5.6505603411
 31
0.0
  0
LINE
  5
19B
330
1F
100
AcDbEntity
  8
0
  6
Continuous
 62
     7
370
    25
100
AcDbLine
 10
-14.2416328589
 20
19.236804409
 30
0.0
 11
-13.7877521869
 21
18.5846751317
 31
0.0
  0
LINE
  5
19C
330
1F
100
AcDbEntity
  8
0
  6
Continuous
 62
     7
370
    25
100
AcDbLine
 10
-23.5541287895
 20
4.3164338208
 30
0.0
 11
-24.2716348091
 21
4.4263489
 31
0.0
  0
LINE
  5
19D
330
1F
100
AcDbEntity
  8
0
  6
Continuous
 62
     7
370
    25
100
AcDbLine
 10
-23.591984965
 20
4.0693154631
 30
0.0
 11
-23.5541287895
 21
4.3164338208
 31
0.0
  0
LINE
  5
19E
330
1F
100
AcDbEntity
  8
0
  6
Continuous
 62
     7
370
    25
100
AcDbLine
 10
-23.4664293634
 20
3.8983317
 30
0.0
 11
-19.0651583297
 21
3.224064553
 31
0.0
  0
LINE
  5
19F
330
1F
100
AcDbEntity
  8
0
  6
Continuous
 62
     7
370
    25
100
AcDbLine
 10
-18.702422731
 20
6.1801987702
 30
0.0
 11
-18.2343427217
 21
6.0068397561
 31
0.0
  0
LINE
  5
1A0
330
1F
100
AcDbEntity
  8
0
  6
Continuous
 62
     7
370
    25
100
AcDbLine
 10
-18.2161923812
 20
7.4930506456
 30
0.0
 11
-18.702422731
 21
6.1801987702
 31
0.0
  0
LINE
  5
1A1
330
1F
100
AcDbEntity
  8
0
  6
Continuous
 62
     7
370
    25
100
AcDbLine
 10
-17.6651837082
 20
7.288978012
 30
0.0
 11
-18.2161923812
 21
7.4930506456
 31
0.0
  0
LINE
  5
1A2
330
1F
100
AcDbEntity
  8
0
  6
Continuous
 62
     7
370
    25
100
AcDbLine
 10
-13.3737551431
 20
18.6900606918
 30
0.0
 11
-10.8567893496
 21
15.073686045
 31
0.0
  0
LINE
  5
1A3
330
1F
100
AcDbEntity
  8
0
  6
Continuous
 62
     7
370
    25
100
AcDbLine
 10
-13.7877521869
 20
18.5846751317
 30
0.0
 11
-13.5825597019
 21
18.7274886907
 31
0.0
  0
ARC
  5
1A4
330
1F
100
AcDbEntity
  8
0
  6
Continuous
 62
     7
370
    25
100
AcDbCircle
 10
-25.4636816754
 20
3.0408774172
 30
0.0
 40
0.1500000000000076
100
AcDbArc
 50
350.9698994403
 51
81.2905410759
  0
ARC
  5
1A5
330
1F
100
AcDbEntity
  8
0
  6
Continuous
 62
     7
370
    25
100
AcDbCircle
 10
-25.1409472253
 20
4.7112692859
 30
0.0
 40
0.1499999999999998
100
AcDbArc
 50
261.2905301942
 51
347.1577266648
  0
ARC
  5
1A6
330
1F
100
AcDbEntity
  8
0
  6
Continuous
 62
     7
370
    25
100
AcDbCircle
 10
-14.8788874802
 20
19.889823346
 30
0.0
 40
0.1500000000000051
100
AcDbArc
 50
304.5057835188
 51
34.8378394617
  0
ARC
  5
1A7
330
1F
100
AcDbEntity
  8
0
  6
Continuous
 62
     7
370
    25
100
AcDbCircle
 10
-13.4446094873
 20
20.8049732006
 30
0.0
 40
0.150000000000016
100
AcDbArc
 50
214.837839578
 51
300.5711210661
  0
ARC
  5
1A8
330
1F
100
AcDbEntity
  8
0
  6
Continuous
 62
     7
370
    25
100
AcDbCircle
 10
-12.9289962773
 20
20.0641474932
 30
0.0
 40
0.150000000000021
100
AcDbArc
 50
120.409677518
 51
214.83783957
  0
ARC
  5
1A9
330
1F
100
AcDbEntity
  8
0
  6
Continuous
 62
     7
370
    25
100
AcDbCircle
 10
-12.7581764344
 20
19.1185030489
 30
0.0
 40
0.1499999999999995
100
AcDbArc
 50
124.83783957
 51
214.8375863569
  0
ARC
  5
1AA
330
1F
100
AcDbEntity
  8
0
  6
Continuous
 62
     7
370
    25
100
AcDbCircle
 10
-10.2136704651
 20
15.4625586974
 30
0.0
 40
0.1500000000000436
100
AcDbArc
 50
214.8375863569
 51
300.3786562318
  0
ARC
  5
1AB
330
1F
100
AcDbEntity
  8
0
  6
Continuous
 62
     7
370
    25
100
AcDbCircle
 10
-8.0293576292
 20
16.5554635129
 30
0.0
 40
0.1500000000000734
100
AcDbArc
 50
292.7766784427
 51
23.2254851595
  0
ARC
  5
1AC
330
1F
100
AcDbEntity
  8
0
  6
Continuous
 62
     7
370
    25
100
AcDbCircle
 10
-6.4307460925
 20
17.1410841403
 30
0.0
 40
0.1499999999999727
100
AcDbArc
 50
203.2254852
 51
287.4552425495
  0
ARC
  5
1AD
330
1F
100
AcDbEntity
  8
0
  6
Continuous
 62
     7
370
    25
100
AcDbCircle
 10
-6.0739284971
 20
16.3095879531
 30
0.0
 40
0.1499999999999984
100
AcDbArc
 50
107.1547500064
 51
203.2254852
  0
ARC
  5
1AE
330
1F
100
AcDbEntity
  8
0
  6
Continuous
 62
     7
370
    25
100
AcDbCircle
 10
-6.1042357737
 20
15.3658877849
 30
0.0
 40
0.1500000000000029
100
AcDbArc
 50
113.2254852
 51
203.2254852
  0
ARC
  5
1AF
330
1F
100
AcDbEntity
  8
0
  6
Continuous
 62
     7
370
    25
100
AcDbCircle
 10
-4.3420586335
 20
11.2594659271
 30
0.0
 40
0.150000000000003
100
AcDbArc
 50
203.2254852
 51
286.3791999004
  0
ARC
  5
1B0
330
1F
100
AcDbEntity
  8
0
  6
Continuous
 62
     7
370
    25
100
AcDbCircle
 10
-3.2366940402
 20
11.5281230693
 30
0.0
 40
0.149999999999998
100
AcDbArc
 50
280.9341419563
 51
11.61215779
  0
ARC
  5
1B1
330
1F
100
AcDbEntity
  8
0
  6
Continuous
 62
     7
370
    25
100
AcDbCircle
 10
-1.5427994164
 20
11.7306960645
 30
0.0
 40
0.1500000000000067
100
AcDbArc
 50
191.61215779
 51
272.6858699159
  0
ARC
  5
1B2
330
1F
100
AcDbEntity
  8
0
  6
Continuous
 62
     7
370
    25
100
AcDbCircle
 10
-1.3592340636
 20
10.8373977724
 30
0.0
 40
0.1500000000000684
100
AcDbArc
 50
91.9413761293
 51
191.61215779
  0
ARC
  5
1B3
330
1F
100
AcDbEntity
  8
0
  6
Continuous
 62
     7
370
    25
100
AcDbCircle
 10
-1.587442404
 20
9.9607213294
 30
0.0
 40
0.1500000000000003
100
AcDbArc
 50
101.61215779
 51
191.61215779
  0
ARC
  5
1B4
330
1F
100
AcDbEntity
  8
0
  6
Continuous
 62
     7
370
    25
100
AcDbCircle
 10
-0.799233644
 20
6.1249999999
 30
0.0
 40
0.1499999998908239
100
AcDbArc
 50
191.6121577527
 51
270.0000000178
  0
ARC
  5
1B5
330
1F
100
AcDbEntity
  8
0
  6
Continuous
 62
     7
370
    25
100
AcDbCircle
 10
-0.85
 20
4.6438819893
 30
0.0
 40
0.1499999999999907
100
AcDbArc
 50
0.0
 51
88.4315251285
  0
ARC
  5
1B6
330
1F
100
AcDbEntity
  8
0
  6
Continuous
 62
     7
370
    25
100
AcDbCircle
 10
-3.1474662126
 20
4.1273395232
 30
0.0
 40
0.1500000000000606
100
AcDbArc
 50
116.4505558688
 51
223.6028189889
  0
ARC
  5
1B7
330
1F
100
AcDbEntity
  8
0
  6
Continuous
 62
     7
370
    25
100
AcDbCircle
 10
-4.5365325261
 20
3.1208591528
 30
0.0
 40
0.1499999998511021
100
AcDbArc
 50
43.60281897
 51
135.2121461258
  0
ARC
  5
1B8
330
1F
100
AcDbEntity
  8
0
  6
Continuous
 62
     7
370
    25
100
AcDbCircle
 10
-5.9912769433
 20
0.5471744268
 30
0.0
 40
0.1500000053123525
100
AcDbArc
 50
165.3732171509
 51
272.9039445388
  0
ARC
  5
1B9
330
1F
100
AcDbEntity
  8
0
  6
Continuous
 62
     7
370
    25
100
AcDbCircle
 10
-6.1837307142
 20
-1.1647739827
 30
0.0
 40
0.1500000000001175
100
AcDbArc
 50
92.903945188
 51
181.6727206272
  0
ARC
  5
1BA
330
1F
100
AcDbEntity
  8
0
  6
Continuous
 62
     7
370
    25
100
AcDbCircle
 10
-6.9697328366
 20
-2.2696881716
 30
0.0
 40
0.1499999999999969
100
AcDbArc
 50
10.3148236928
 51
104.51810256
  0
ARC
  5
1BB
330
1F
100
AcDbEntity
  8
0
  6
Continuous
 62
     7
370
    25
100
AcDbCircle
 10
-11.2030971889
 20
-3.3659377371
 30
0.0
 40
0.1500000000000062
100
AcDbArc
 50
104.51810256
 51
194.51810256
  0
ARC
  5
1BC
330
1F
100
AcDbEntity
  8
0
  6
Continuous
 62
     7
370
    25
100
AcDbCircle
 10
-12.0343524246
 20
-3.9943891053
 30
0.0
 40
0.1500000000213218
100
AcDbArc
 50
104.51810256
 51
193.8757894065
  0
ARC
  5
1BD
330
1F
100
AcDbEntity
  8
0
  6
Continuous
 62
     7
370
    25
100
AcDbCircle
 10
-12.1399186126
 20
-6.456171326
 30
0.0
 40
0.1500000000000056
100
AcDbArc
 50
23.8673225124
 51
116.12916053
  0
ARC
  5
1BE
330
1F
100
AcDbEntity
  8
0
  6
Continuous
 62
     7
370
    25
100
AcDbCircle
 10
-16.0893418411
 20
-8.393466877
 30
0.0
 40
0.1499999999999984
100
AcDbArc
 50
116.12916053
 51
206.12916053
  0
ARC
  5
1BF
330
1F
100
AcDbEntity
  8
0
  6
Continuous
 62
     7
370
    25
100
AcDbCircle
 10
-16.7654646119
 20
-9.1706545705
 30
0.0
 40
0.1499999999999846
100
AcDbArc
 50
116.1291610465
 51
205.7006612892
  0
ARC
  5
1C0
330
1F
100
AcDbEntity
  8
0
  6
Continuous
 62
     7
370
    25
100
AcDbCircle
 10
-17.5735085147
 20
-9.5670212719
 30
0.0
 40
0.1499999999999908
100
AcDbArc
 50
25.7199610272
 51
116.1291611757
  0
ARC
  5
1C1
330
1F
100
AcDbEntity
  8
0
  6
Continuous
 62
     7
370
    25
100
AcDbCircle
 10
-18.2461246817
 20
-8.003447129
 30
0.0
 40
0.149999994905903
100
AcDbArc
 50
296.12916053
 51
20.8257732051
  0
ARC
  5
1C2
330
1F
100
AcDbEntity
  8
0
  6
Continuous
 62
     7
370
    25
100
AcDbCircle
 10
-19.2244764487
 20
2.4897217152
 30
0.0
 40
0.1499999999999907
100
AcDbArc
 50
349.6819798827
 51
81.2901034903
  0
ARC
  5
1C3
330
1F
100
AcDbEntity
  8
0
  6
Continuous
 62
     7
370
    25
100
AcDbCircle
 10
-23.5799962374
 20
3.1569798503
 30
0.0
 40
0.1500000000000061
100
AcDbArc
 50
81.2901034903
 51
171.29054105
  0
ARC
  5
1C4
330
1F
100
AcDbEntity
  8
0
  6
Continuous
 62
     7
370
    25
100
AcDbCircle
 10
-24.5740455795
 20
2.9045936524
 30
0.0
 40
0.1500000000000051
100
AcDbArc
 50
81.2905409625
 51
170.9581989363
  0
ARC
  5
1C5
330
1F
100
AcDbEntity
  8
0
  6
Continuous
 62
     7
370
    25
100
AcDbCircle
 10
-3.0555232353
 20
10.6464775511
 30
0.0
 40
0.1500000000000035
100
AcDbArc
 50
11.61215779
 51
100.8789252465
  0
ARC
  5
1C6
330
1F
100
AcDbEntity
  8
0
  6
Continuous
 62
     7
370
    25
100
AcDbCircle
 10
-9.4826706312
 20
6.9119628444
 30
0.0
 40
0.1500000354569092
100
AcDbArc
 50
139.0656548363
 51
238.06546606
  0
ARC
  5
1C7
330
1F
100
AcDbEntity
  8
0
  6
Continuous
 62
     7
370
    25
100
AcDbCircle
 10
-8.9980746144
 20
6.1385876944
 30
0.0
 40
0.1500000000000007
100
AcDbArc
 50
148.06546606
 51
238.0654660555
  0
ARC
  5
1C8
330
1F
100
AcDbEntity
  8
0
  6
Continuous
 62
     7
370
    25
100
AcDbCircle
 10
-5.1746577585
 20
3.755521762
 30
0.0
 40
0.1499999999999993
100
AcDbArc
 50
238.0654660555
 51
315.2042087539
  0
ARC
  5
1C9
330
1F
100
AcDbEntity
  8
0
  6
Continuous
 62
     7
370
    25
100
AcDbCircle
 10
-5.1574321407
 20
3.7728037478
 30
0.0
 40
0.1499999999999993
100
AcDbArc
 50
314.9829478291
 51
43.6028189726
  0
ARC
  5
1CA
330
1F
100
AcDbEntity
  8
0
  6
Continuous
 62
     7
370
    25
100
AcDbCircle
 10
-3.7924775148
 20
4.8046013905
 30
0.0
 40
0.1499999999999984
100
AcDbArc
 50
223.6028189889
 51
299.0758545175
  0
ARC
  5
1CB
330
1F
100
AcDbEntity
  8
0
  6
Continuous
 62
     7
370
    25
100
AcDbCircle
 10
-1.5920025446
 20
5.5116578481
 30
0.0
 40
0.1499999999999999
100
AcDbArc
 50
276.2976752125
 51
11.61215779
  0
ARC
  5
1CC
330
1F
100
AcDbEntity
  8
0
  6
Continuous
 62
     7
370
    25
100
AcDbCircle
 10
-2.4690217099
 20
9.7795641306
 30
0.0
 40
0.150000000000002
100
AcDbArc
 50
11.61215779
 51
101.61215779
  0
ARC
  5
1CD
330
1F
100
AcDbEntity
  8
0
  6
Continuous
 62
     7
370
    25
100
AcDbCircle
 10
-10.5038917414
 20
5.5452967918
 30
0.0
 40
0.1500000000000163
100
AcDbArc
 50
58.06546606
 51
147.3824921945
  0
ARC
  5
1CE
330
1F
100
AcDbEntity
  8
0
  6
Continuous
 62
     7
370
    25
100
AcDbCircle
 10
-12.3303058358
 20
-2.3149535063
 30
0.0
 40
0.1499999999997307
100
AcDbArc
 50
186.1004051092
 51
284.51810256
  0
ARC
  5
1CF
330
1F
100
AcDbEntity
  8
0
  6
Continuous
 62
     7
370
    25
100
AcDbCircle
 10
-11.4287144783
 20
-2.4946761009
 30
0.0
 40
0.149999999999999
100
AcDbArc
 50
194.51810256
 51
284.51810256
  0
ARC
  5
1D0
330
1F
100
AcDbEntity
  8
0
  6
Continuous
 62
     7
370
    25
100
AcDbCircle
 10
-7.0759970746
 20
-1.3675195026
 30
0.0
 40
0.1499999999999939
100
AcDbArc
 50
284.51810256
 51
3.0957307315
  0
ARC
  5
1D1
330
1F
100
AcDbEntity
  8
0
  6
Continuous
 62
     7
370
    25
100
AcDbCircle
 10
-7.0827560887
 20
-1.2103786961
 30
0.0
 40
0.1499999999999994
100
AcDbArc
 50
1.8290639255
 51
92.9039447366
  0
ARC
  5
1D2
330
1F
100
AcDbEntity
  8
0
  6
Continuous
 62
     7
370
    25
100
AcDbCircle
 10
-6.9277748678
 20
0.4996688389
 30
0.0
 40
0.149999999999275
100
AcDbArc
 50
272.9039445311
 51
347.7422480066
  0
ARC
  5
1D3
330
1F
100
AcDbEntity
  8
0
  6
Continuous
 62
     7
370
    25
100
AcDbCircle
 10
-5.768448561
 20
3.0651166476
 30
0.0
 40
0.1500000000000015
100
AcDbArc
 50
323.3732665392
 51
58.0654660555
  0
ARC
  5
1D4
330
1F
100
AcDbEntity
  8
0
  6
Continuous
 62
     7
370
    25
100
AcDbCircle
 10
-9.4741295606
 20
5.3747999699
 30
0.0
 40
0.1499999999999991
100
AcDbArc
 50
58.0654660555
 51
148.06546606
  0
ARC
  5
1D5
330
1F
100
AcDbEntity
  8
0
  6
Continuous
 62
     7
370
    25
100
AcDbCircle
 10
-7.6744313922
 20
15.7283747786
 30
0.0
 40
0.1499999999999963
100
AcDbArc
 50
23.2254852947
 51
112.7536320333
  0
ARC
  5
1D6
330
1F
100
AcDbEntity
  8
0
  6
Continuous
 62
     7
370
    25
100
AcDbCircle
 10
-16.7649760912
 20
7.1155325009
 30
0.0
 40
0.1499999999999747
100
AcDbArc
 50
153.8775727607
 51
249.6772887216
  0
ARC
  5
1D7
330
1F
100
AcDbEntity
  8
0
  6
Continuous
 62
     7
370
    25
100
AcDbCircle
 10
-16.09930358
 20
6.4424404412
 30
0.0
 40
0.1499999999999939
100
AcDbArc
 50
159.67728861
 51
249.67728861
  0
ARC
  5
1D8
330
1F
100
AcDbEntity
  8
0
  6
Continuous
 62
     7
370
    25
100
AcDbCircle
 10
-11.2677296128
 20
6.0213829936
 30
0.0
 40
0.1499999999999971
100
AcDbArc
 50
327.4307616373
 51
58.06546606
  0
ARC
  5
1D9
330
1F
100
AcDbEntity
  8
0
  6
Continuous
 62
     7
370
    25
100
AcDbCircle
 10
-10.2552866053
 20
7.3935201938
 30
0.0
 40
0.1500000000000028
100
AcDbArc
 50
238.06546606
 51
319.7131469135
  0
ARC
  5
1DA
330
1F
100
AcDbEntity
  8
0
  6
Continuous
 62
     7
370
    25
100
AcDbCircle
 10
-5.1983095473
 20
10.9725648513
 30
0.0
 40
0.1500000000000069
100
AcDbArc
 50
290.665718774
 51
23.2254852
  0
ARC
  5
1DB
330
1F
100
AcDbEntity
  8
0
  6
Continuous
 62
     7
370
    25
100
AcDbCircle
 10
-6.9312997941
 20
15.0109721526
 30
0.0
 40
0.15
100
AcDbArc
 50
23.2254852
 51
113.2254852
  0
ARC
  5
1DC
330
1F
100
AcDbEntity
  8
0
  6
Continuous
 62
     7
370
    25
100
AcDbCircle
 10
-17.4424376818
 20
5.5535911638
 30
0.0
 40
0.1499999991236368
100
AcDbArc
 50
69.67728861
 51
159.2244221512
  0
ARC
  5
1DD
330
1F
100
AcDbEntity
  8
0
  6
Continuous
 62
     7
370
    25
100
AcDbCircle
 10
-17.4344619585
 20
-7.60530529
 30
0.0
 40
0.1500000000000045
100
AcDbArc
 50
200.5734617296
 51
296.1291606057
  0
ARC
  5
1DE
330
1F
100
AcDbEntity
  8
0
  6
Continuous
 62
     7
370
    25
100
AcDbCircle
 10
-16.4856983865
 20
-7.5854436788
 30
0.0
 40
0.1499999999999944
100
AcDbArc
 50
206.12916053
 51
296.12916053
  0
ARC
  5
1DF
330
1F
100
AcDbEntity
  8
0
  6
Continuous
 62
     7
370
    25
100
AcDbCircle
 10
-12.4776577958
 20
-5.6193947761
 30
0.0
 40
0.1500000000000057
100
AcDbArc
 50
296.12916053
 51
20.0888971612
  0
ARC
  5
1E0
330
1F
100
AcDbEntity
  8
0
  6
Continuous
 62
     7
370
    25
100
AcDbCircle
 10
-12.9056648779
 20
-4.220019554
 30
0.0
 40
0.1499999999999956
100
AcDbArc
 50
13.9184966934
 51
104.51810256
  0
ARC
  5
1E1
330
1F
100
AcDbEntity
  8
0
  6
Continuous
 62
     7
370
    25
100
AcDbCircle
 10
-13.2104092878
 20
-2.5428604254
 30
0.0
 40
0.1499999999999241
100
AcDbArc
 50
284.51810256
 51
6.6687595924
  0
ARC
  5
1E2
330
1F
100
AcDbEntity
  8
0
  6
Continuous
 62
     7
370
    25
100
AcDbCircle
 10
-12.2887276021
 20
4.0714054799
 30
0.0
 40
0.1500000000000038
100
AcDbArc
 50
337.2754775572
 51
69.67728861
  0
ARC
  5
1E3
330
1F
100
AcDbEntity
  8
0
  6
Continuous
 62
     7
370
    25
100
AcDbCircle
 10
-16.4118802348
 20
5.5984642322
 30
0.0
 40
0.1500000000000101
100
AcDbArc
 50
69.67728861
 51
159.67728861
  0
ARC
  5
1E4
330
1F
100
AcDbEntity
  8
0
  6
Continuous
 62
     7
370
    25
100
AcDbCircle
 10
-14.3647486788
 20
19.1511160447
 30
0.0
 40
0.1500000000000043
100
AcDbArc
 50
34.8378397486
 51
124.4932861812
  0
ARC
  5
1E5
330
1F
100
AcDbEntity
  8
0
  6
Continuous
 62
     7
370
    25
100
AcDbCircle
 10
-24.248921208
 20
4.5746192345
 30
0.0
 40
0.1499999999999972
100
AcDbArc
 50
167.0066477323
 51
261.2905410585
  0
ARC
  5
1E6
330
1F
100
AcDbEntity
  8
0
  6
Continuous
 62
     7
370
    25
100
AcDbCircle
 10
-23.4437146298
 20
4.0466018618
 30
0.0
 40
0.1500000000000018
100
AcDbArc
 50
171.29054105
 51
261.2901034903
  0
ARC
  5
1E7
330
1F
100
AcDbEntity
  8
0
  6
Continuous
 62
     7
370
    25
100
AcDbCircle
 10
-19.0424435961
 20
3.3723347148
 30
0.0
 40
0.1499999999999759
100
AcDbArc
 50
261.2901034903
 51
347.0110147216
  0
ARC
  5
1E8
330
1F
100
AcDbEntity
  8
0
  6
Continuous
 62
     7
370
    25
100
AcDbCircle
 10
-18.2864388312
 20
5.8661770536
 30
0.0
 40
0.1499999999999951
100
AcDbArc
 50
339.2456437575
 51
69.6772886098
  0
ARC
  5
1E9
330
1F
100
AcDbEntity
  8
0
  6
Continuous
 62
     7
370
    25
100
AcDbCircle
 10
-17.6130875993
 20
7.4296407129
 30
0.0
 40
0.1499999999999893
100
AcDbArc
 50
249.67728861
 51
334.1515266559
  0
ARC
  5
1EA
330
1F
100
AcDbEntity
  8
0
  6
Continuous
 62
     7
370
    25
100
AcDbCircle
 10
-10.9799055458
 20
14.9879982265
 30
0.0
 40
0.1500000000000032
100
AcDbArc
 50
303.1627845
 51
34.8375863569
  0
ARC
  5
1EB
330
1F
100
AcDbEntity
  8
0
  6
Continuous
 62
     7
370
    25
100
AcDbCircle
 10
-13.4968713393
 20
18.6043728733
 30
0.0
 40
0.1499999999999949
100
AcDbArc
 50
34.8375863569
 51
124.83783957
  0
ARC
  5
1EC
330
1F
100
AcDbEntity
  8
0
  6
Continuous
 62
     7
370
    25
100
AcDbCircle
 10
-11.9110907494
 20
4.8912858686
 30
0.0
 40
0.1500000000000143
100
AcDbArc
 50
249.67728861
 51
333.2582676478
  0
ENDSEC
  0
SECTION
  2
OBJECTS
  0
DICTIONARY
  5
C
330
0
100
AcDbDictionary
281
     1
  3
ACAD_GROUP
350
D
  3
ACAD_LAYOUT
350
1A
  3
ACAD_MLINESTYLE
350
17
  3
ACAD_PLOTSETTINGS
350
19
  3
ACAD_PLOTSTYLENAME
350
E
  3
ACAD_SCALELIST
350
47
  3
DWGPROPS
350
1ED
  0
DICTIONARY
  5
D
102
{ACAD_REACTORS
330
C
102
}
330
C
100
AcDbDictionary
281
     1
  0
DICTIONARY
  5
1A
102
{ACAD_REACTORS
330
C
102
}
330
C
100
AcDbDictionary
281
     1
  3
Layout1
350
1E
  3
Layout2
350
26
  3
Model
350
22
  0
DICTIONARY
  5
17
102
{ACAD_REACTORS
330
C
102
}
330
C
100
AcDbDictionary
281
     1
  3
Standard
350
18
  0
DICTIONARY
  5
19
102
{ACAD_REACTORS
330
C
102
}
330
C
100
AcDbDictionary
281
     1
  0
ACDBDICTIONARYWDFLT
  5
E
102
{ACAD_REACTORS
330
C
102
}
330
C
100
AcDbDictionary
281
     1
  3
Normal
350
F
100
AcDbDictionaryWithDefault
340
F
  0
DICTIONARY
  5
47
102
{ACAD_REACTORS
330
C
102
}
330
C
100
AcDbDictionary
281
     1
  3
A0
350
48
  3
A1
350
49
  3
A2
350
4A
  3
A3
350
4B
  3
A4
350
4C
  3
A5
350
4D
  3
A6
350
4E
  3
A7
350
4F
  3
A8
350
50
  3
A9
350
51
  3
B0
350
52
  3
B1
350
53
  3
B2
350
54
  3
B3
350
55
  3
B4
350
56
  3
B5
350
57
  3
B6
350
58
  0
XRECORD
  5
1ED
102
{ACAD_REACTORS
330
C
102
}
330
C
100
AcDbXrecord
280
     1
  1
DWGPROPS COOKIE
  2

  3

  4

  6

  7

  8
Admin
  9

300
=
301
=
302
=
303
=
304
=
305
=
306
=
307
=
308
=
309
=
 40
0.0
 41
2460253.964420856
 42
2460253.965367408
  1

 90
        0
  0
LAYOUT
  5
1E
102
{ACAD_REACTORS
330
1A
102
}
330
1A
100
AcDbPlotSettings
  1

  2
none_device
  4

  6

 40
0.0
 41
0.0
 42
0.0
 43
0.0
 44
0.0
 45
0.0
 46
0.0
 47
0.0
 48
0.0
 49
0.0
140
0.0
141
0.0
142
1.0
143
1.0
 70
   688
 72
     1
 73
     0
 74
     5
  7

 75
    16
147
1.0
148
0.0
149
0.0
100
AcDbLayout
  1
Layout1
 70
     1
 71
     1
 10
0.0
 20
0.0
 11
420.0
 21
297.0
 12
0.0
 22
0.0
 32
0.0
 14
1.0000000000E+20
 24
1.0000000000E+20
 34
1.0000000000E+20
 15
-1.0000000000E+20
 25
-1.0000000000E+20
 35
-1.0000000000E+20
146
0.0
 13
0.0
 23
0.0
 33
0.0
 16
1.0
 26
0.0
 36
0.0
 17
0.0
 27
1.0
 37
0.0
 76
     0
330
1B
  0
LAYOUT
  5
26
102
{ACAD_REACTORS
330
1A
102
}
330
1A
100
AcDbPlotSettings
  1

  2
none_device
  4

  6

 40
0.0
 41
0.0
 42
0.0
 43
0.0
 44
0.0
 45
0.0
 46
0.0
 47
0.0
 48
0.0
 49
0.0
140
0.0
141
0.0
142
1.0
143
1.0
 70
   688
 72
     1
 73
     0
 74
     5
  7

 75
    16
147
1.0
148
0.0
149
0.0
100
AcDbLayout
  1
Layout2
 70
     1
 71
     2
 10
0.0
 20
0.0
 11
0.0
 21
0.0
 12
0.0
 22
0.0
 32
0.0
 14
0.0
 24
0.0
 34
0.0
 15
0.0
 25
0.0
 35
0.0
146
0.0
 13
0.0
 23
0.0
 33
0.0
 16
1.0
 26
0.0
 36
0.0
 17
0.0
 27
1.0
 37
0.0
 76
     0
330
23
  0
LAYOUT
  5
22
102
{ACAD_REACTORS
330
1A
102
}
330
1A
100
AcDbPlotSettings
  1

  2
none_device
  4
ANSI_A_(11.00_x_8.50_Inches)
  6

 40
6.35
 41
19.05
 42
6.35000508
 43
19.05000254
 44
279.4
 45
215.9
 46
202.9508255932
 47
63.0211735644
 48
0.0
 49
0.0
140
0.0
141
0.0
142
0.2171242654
143
1.0
 70
  1696
 72
     0
 73
     0
 74
     0
  7

 75
     0
147
0.0179189148
148
-1300.4909072572
149
0.0
100
AcDbLayout
  1
Model
 70
     1
 71
     0
 10
0.0
 20
0.0
 11
420.0
 21
297.0
 12
0.0
 22
0.0
 32
0.0
 14
-25.9407539851
 24
-14.6858233887
 34
0.0
 15
0.7
 25
24.070784415
 35
0.0
146
0.0
 13
0.0
 23
0.0
 33
0.0
 16
1.0
 26
0.0
 36
0.0
 17
0.0
 27
1.0
 37
0.0
 76
     0
330
1F
331
29
  0
MLINESTYLE
  5
18
102
{ACAD_REACTORS
330
17
102
}
330
17
100
AcDbMlineStyle
  2
Standard
 70
     0
  3

 62
   256
 51
90.0
 52
90.0
 71
     2
 49
0.5
 62
   256
  6
BYLAYER
 49
-0.5
 62
   256
  6
BYLAYER
  0
ACDBPLACEHOLDER
  5
F
102
{ACAD_REACTORS
330
E
102
}
330
E
  0
SCALE
  5
48
102
{ACAD_REACTORS
330
47
102
}
330
47
100
AcDbScale
 70
     0
300
1:1
140
1.0
141
1.0
290
     1
  0
SCALE
  5
49
102
{ACAD_REACTORS
330
47
102
}
330
47
100
AcDbScale
 70
     0
300
1:2
140
1.0
141
2.0
290
     0
  0
SCALE
  5
4A
102
{ACAD_REACTORS
330
47
102
}
330
47
100
AcDbScale
 70
     0
300
1:4
140
1.0
141
4.0
290
     0
  0
SCALE
  5
4B
102
{ACAD_REACTORS
330
47
102
}
330
47
100
AcDbScale
 70
     0
300
1:5
140
1.0
141
5.0
290
     0
  0
SCALE
  5
4C
102
{ACAD_REACTORS
330
47
102
}
330
47
100
AcDbScale
 70
     0
300
1:8
140
1.0
141
8.0
290
     0
  0
SCALE
  5
4D
102
{ACAD_REACTORS
330
47
102
}
330
47
100
AcDbScale
 70
     0
300
1:10
140
1.0
141
10.0
290
     0
  0
SCALE
  5
4E
102
{ACAD_REACTORS
330
47
102
}
330
47
100
AcDbScale
 70
     0
300
1:16
140
1.0
141
16.0
290
     0
  0
SCALE
  5
4F
102
{ACAD_REACTORS
330
47
102
}
330
47
100
AcDbScale
 70
     0
300
1:20
140
1.0
141
20.0
290
     0
  0
SCALE
  5
50
102
{ACAD_REACTORS
330
47
102
}
330
47
100
AcDbScale
 70
     0
300
1:30
140
1.0
141
30.0
290
     0
  0
SCALE
  5
51
102
{ACAD_REACTORS
330
47
102
}
330
47
100
AcDbScale
 70
     0
300
1:40
140
1.0
141
40.0
290
     0
  0
SCALE
  5
52
102
{ACAD_REACTORS
330
47
102
}
330
47
100
AcDbScale
 70
     0
300
1:50
140
1.0
141
50.0
290
     0
  0
SCALE
  5
53
102
{ACAD_REACTORS
330
47
102
}
330
47
100
AcDbScale
 70
     0
300
1:100
140
1.0
141
100.0
290
     0
  0
SCALE
  5
54
102
{ACAD_REACTORS
330
47
102
}
330
47
100
AcDbScale
 70
     0
300
2:1
140
2.0
141
1.0
290
     0
  0
SCALE
  5
55
102
{ACAD_REACTORS
330
47
102
}
330
47
100
AcDbScale
 70
     0
300
4:1
140
4.0
141
1.0
290
     0
  0
SCALE
  5
56
102
{ACAD_REACTORS
330
47
102
}
330
47
100
AcDbScale
 70
     0
300
8:1
140
8.0
141
1.0
290
     0
  0
SCALE
  5
57
102
{ACAD_REACTORS
330
47
102
}
330
47
100
AcDbScale
 70
     0
300
10:1
140
10.0
141
1.0
290
     0
  0
SCALE
  5
58
102
{ACAD_REACTORS
330
47
102
}
330
47
100
AcDbScale
 70
     0
300
100:1
140
100.0
141
1.0
290
     0
  0
ENDSEC
  0
EOF
