  0
SECTION
  2
HEADER
  9
$ACADVER
  1
AC1015
  9
$ACADMAINTVER
 70
     6
  9
$DWGCODEPAGE
  3
ANSI_1252
  9
$INSBASE
 10
0.0
 20
0.0
 30
0.0
  9
$EXTMIN
 10
-25.6282909356
 20
-20.6517937299
 30
0.0
  9
$EXTMAX
 10
28.5655400296
 20
24.0649096327
 30
0.0
  9
$LIMMIN
 10
0.0
 20
0.0
  9
$LIMMAX
 10
420.0
 20
297.0
  9
$ORTHOMODE
 70
     0
  9
$REGENMODE
 70
     1
  9
$FILLMODE
 70
     1
  9
$QTEXTMODE
 70
     0
  9
$MIRRTEXT
 70
     1
  9
$LTSCALE
 40
1.0
  9
$ATTMODE
 70
     1
  9
$TEXTSIZE
 40
0.35
  9
$TRACEWID
 40
1.0
  9
$TEXTSTYLE
  7
Standard
  9
$CLAYER
  8
0
  9
$CELTYPE
  6
ByLayer
  9
$CECOLOR
 62
   256
  9
$CELTSCALE
 40
1.0
  9
$DISPSILH
 70
     0
  9
$DIMSCALE
 40
1.0
  9
$DIMASZ
 40
0.3302
  9
$DIMEXO
 40
0.0
  9
$DIMDLI
 40
3.75
  9
$DIMRND
 40
0.0
  9
$DIMDLE
 40
0.0
  9
$DIMEXE
 40
0.1
  9
$DIMTP
 40
0.0
  9
$DIMTM
 40
0.0
  9
$DIMTXT
 40
0.35
  9
$DIMCEN
 40
2.5
  9
$DIMTSZ
 40
0.0
  9
$DIMTOL
 70
     0
  9
$DIMLIM
 70
     0
  9
$DIMTIH
 70
     1
  9
$DIMTOH
 70
     1
  9
$DIMSE1
 70
     0
  9
$DIMSE2
 70
     0
  9
$DIMTAD
 70
     1
  9
$DIMZIN
 70
     1
  9
$DIMBLK
  1

  9
$DIMASO
 70
     1
  9
$DIMSHO
 70
     1
  9
$DIMPOST
  1

  9
$DIMAPOST
  1

  9
$DIMALT
 70
     0
  9
$DIMALTD
 70
     3
  9
$DIMALTF
 40
0.3937007874
  9
$DIMLFAC
 40
1.0
  9
$DIMTOFL
 70
     1
  9
$DIMTVP
 40
0.0
  9
$DIMTIX
 70
     0
  9
$DIMSOXD
 70
     0
  9
$DIMSAH
 70
     0
  9
$DIMBLK1
  1

  9
$DIMBLK2
  1

  9
$DIMSTYLE
  2
ISO-25
  9
$DIMCLRD
 70
     0
  9
$DIMCLRE
 70
     0
  9
$DIMCLRT
 70
     0
  9
$DIMTFAC
 40
1.0
  9
$DIMGAP
 40
0.1524
  9
$DIMJUST
 70
     0
  9
$DIMSD1
 70
     0
  9
$DIMSD2
 70
     0
  9
$DIMTOLJ
 70
     0
  9
$DIMTZIN
 70
     1
  9
$DIMALTZ
 70
     0
  9
$DIMALTTZ
 70
     0
  9
$DIMUPT
 70
     0
  9
$DIMDEC
 70
     2
  9
$DIMTDEC
 70
     2
  9
$DIMALTU
 70
     2
  9
$DIMALTTD
 70
     3
  9
$DIMTXSTY
  7
Standard
  9
$DIMAUNIT
 70
     0
  9
$DIMADEC
 70
     2
  9
$DIMALTRND
 40
0.0
  9
$DIMAZIN
 70
     0
  9
$DIMDSEP
 70
    44
  9
$DIMATFIT
 70
     3
  9
$DIMFRAC
 70
     0
  9
$DIMLDRBLK
  1

  9
$DIMLUNIT
 70
     2
  9
$DIMLWD
 70
    -2
  9
$DIMLWE
 70
    -2
  9
$DIMTMOVE
 70
     0
  9
$LUNITS
 70
     2
  9
$LUPREC
 70
     2
  9
$SKETCHINC
 40
1.0
  9
$FILLETRAD
 40
0.0
  9
$AUNITS
 70
     0
  9
$AUPREC
 70
     2
  9
$MENU
  1
.
  9
$ELEVATION
 40
0.0
  9
$PELEVATION
 40
0.0
  9
$THICKNESS
 40
0.0
  9
$LIMCHECK
 70
     0
  9
$CHAMFERA
 40
0.0
  9
$CHAMFERB
 40
0.0
  9
$CHAMFERC
 40
0.0
  9
$CHAMFERD
 40
0.0
  9
$SKPOLY
 70
     0
  9
$TDCREATE
 40
2460254.007685602
  9
$TDUCREATE
 40
2460253.966018935
  9
$TDUPDATE
 40
2460254.00771735
  9
$TDUUPDATE
 40
2460253.966050683
  9
$TDINDWG
 40
0.0000000116
  9
$TDUSRTIMER
 40
0.0000000116
  9
$USRTIMER
 70
     1
  9
$ANGBASE
 50
0.0
  9
$ANGDIR
 70
     0
  9
$PDMODE
 70
     0
  9
$PDSIZE
 40
-1.0
  9
$PLINEWID
 40
0.0
  9
$SPLFRAME
 70
     0
  9
$SPLINETYPE
 70
     6
  9
$SPLINESEGS
 70
     8
  9
$HANDSEED
  5
E2
  9
$SURFTAB1
 70
     6
  9
$SURFTAB2
 70
     6
  9
$SURFTYPE
 70
     6
  9
$SURFU
 70
     6
  9
$SURFV
 70
     6
  9
$UCSBASE
  2

  9
$UCSNAME
  2

  9
$UCSORG
 10
0.0
 20
0.0
 30
0.0
  9
$UCSXDIR
 10
1.0
 20
0.0
 30
0.0
  9
$UCSYDIR
 10
0.0
 20
1.0
 30
0.0
  9
$UCSORTHOREF
  2

  9
$UCSORTHOVIEW
 70
     0
  9
$UCSORGTOP
 10
0.0
 20
0.0
 30
0.0
  9
$UCSORGBOTTOM
 10
0.0
 20
0.0
 30
0.0
  9
$UCSORGLEFT
 10
0.0
 20
0.0
 30
0.0
  9
$UCSORGRIGHT
 10
0.0
 20
0.0
 30
0.0
  9
$UCSORGFRONT
 10
0.0
 20
0.0
 30
0.0
  9
$UCSORGBACK
 10
0.0
 20
0.0
 30
0.0
  9
$PUCSBASE
  2

  9
$PUCSNAME
  2

  9
$PUCSORG
 10
0.0
 20
0.0
 30
0.0
  9
$PUCSXDIR
 10
1.0
 20
0.0
 30
0.0
  9
$PUCSYDIR
 10
0.0
 20
1.0
 30
0.0
  9
$PUCSORTHOREF
  2

  9
$PUCSORTHOVIEW
 70
     0
  9
$PUCSORGTOP
 10
0.0
 20
0.0
 30
0.0
  9
$PUCSORGBOTTOM
 10
0.0
 20
0.0
 30
0.0
  9
$PUCSORGLEFT
 10
0.0
 20
0.0
 30
0.0
  9
$PUCSORGRIGHT
 10
0.0
 20
0.0
 30
0.0
  9
$PUCSORGFRONT
 10
0.0
 20
0.0
 30
0.0
  9
$PUCSORGBACK
 10
0.0
 20
0.0
 30
0.0
  9
$USERI1
 70
     0
  9
$USERI2
 70
     0
  9
$USERI3
 70
     0
  9
$USERI4
 70
     0
  9
$USERI5
 70
     0
  9
$USERR1
 40
0.0
  9
$USERR2
 40
0.0
  9
$USERR3
 40
0.0
  9
$USERR4
 40
0.0
  9
$USERR5
 40
0.0
  9
$WORLDVIEW
 70
     1
  9
$SHADEDGE
 70
     3
  9
$SHADEDIF
 70
    70
  9
$TILEMODE
 70
     1
  9
$MAXACTVP
 70
    64
  9
$PINSBASE
 10
0.0
 20
0.0
 30
0.0
  9
$PLIMCHECK
 70
     0
  9
$PEXTMIN
 10
1.0000000000E+20
 20
1.0000000000E+20
 30
1.0000000000E+20
  9
$PEXTMAX
 10
-1.0000000000E+20
 20
-1.0000000000E+20
 30
-1.0000000000E+20
  9
$PLIMMIN
 10
0.0
 20
0.0
  9
$PLIMMAX
 10
420.0
 20
297.0
  9
$UNITMODE
 70
     0
  9
$VISRETAIN
 70
     1
  9
$PLINEGEN
 70
     0
  9
$PSLTSCALE
 70
     1
  9
$TREEDEPTH
 70
  3020
  9
$CMLSTYLE
  2
Standard
  9
$CMLJUST
 70
     0
  9
$CMLSCALE
 40
20.0
  9
$PROXYGRAPHICS
 70
     1
  9
$MEASUREMENT
 70
     1
  9
$CELWEIGHT
370
    -1
  9
$ENDCAPS
280
     0
  9
$JOINSTYLE
280
     0
  9
$LWDISPLAY
290
     1
  9
$INSUNITS
 70
     4
  9
$HYPERLINKBASE
  1

  9
$STYLESHEET
  1

  9
$XEDIT
290
     1
  9
$CEPSNTYPE
380
     0
  9
$PSTYLEMODE
290
     1
  9
$FINGERPRINTGUID
  2
{1a7c0ba1-76d6-42a6-94a1-04182dcb70c8}
  9
$VERSIONGUID
  2
{FAEB1C32-E019-11D5-929B-00C0DF256EC4}
  9
$EXTNAMES
290
     1
  9
$PSVPSCALE
 40
0.0
  9
$OLESTARTUP
290
     0
  0
ENDSEC
  0
SECTION
  2
CLASSES
  0
CLASS
  1
ACDBDICTIONARYWDFLT
  2
AcDbDictionaryWithDefault
  3
ObjectDBX Classes
 90
        0
280
     0
281
     0
  0
CLASS
  1
VISUALSTYLE
  2
AcDbVisualStyle
  3
ObjectDBX Classes
 90
     4095
280
     0
281
     0
  0
CLASS
  1
MATERIAL
  2
AcDbMaterial
  3
ObjectDBX Classes
 90
     1153
280
     0
281
     0
  0
CLASS
  1
SCALE
  2
AcDbScale
  3
ObjectDBX Classes
 90
     1153
280
     0
281
     0
  0
CLASS
  1
TABLESTYLE
  2
AcDbTableStyle
  3
ObjectDBX Classes
 90
     4095
280
     0
281
     0
  0
CLASS
  1
MLEADERSTYLE
  2
AcDbMLeaderStyle
  3
ACDB_MLEADERSTYLE_CLASS
 90
     4095
280
     0
281
     0
  0
CLASS
  1
SUN
  2
AcDbSun
  3
SCENEOE
 90
     1153
280
     0
281
     0
  0
CLASS
  1
ACDBPLACEHOLDER
  2
AcDbPlaceHolder
  3
ObjectDBX Classes
 90
        0
280
     0
281
     0
  0
CLASS
  1
LAYOUT
  2
AcDbLayout
  3
ObjectDBX Classes
 90
        0
280
     0
281
     0
  0
ENDSEC
  0
SECTION
  2
TABLES
  0
TABLE
  2
VPORT
  5
8
330
0
100
AcDbSymbolTable
 70
     1
  0
VPORT
  5
29
330
8
100
AcDbSymbolTableRecord
100
AcDbViewportTableRecord
  2
*Active
 70
     0
 10
0.0
 20
0.0
 11
1.0
 21
1.0
 12
1.468624547
 22
1.7065579514
 13
0.0
 23
0.0
 14
10.0
 24
10.0
 15
10.0
 25
10.0
 16
0.0
 26
0.0
 36
1.0
 17
0.0
 27
0.0
 37
0.0
 40
45.6110374298
 41
1.2119370814
 42
50.0
 43
0.0
 44
0.0
 50
0.0
 51
0.0
 71
     0
 72
   100
 73
     1
 74
     3
 75
     0
 76
     0
 77
     0
 78
     0
281
     0
 65
     1
110
0.0
120
0.0
130
0.0
111
1.0
121
0.0
131
0.0
112
0.0
122
1.0
132
0.0
 79
     0
146
0.0
  0
ENDTAB
  0
TABLE
  2
LTYPE
  5
5
330
0
100
AcDbSymbolTable
 70
     6
  0
LTYPE
  5
14
330
5
100
AcDbSymbolTableRecord
100
AcDbLinetypeTableRecord
  2
ByBlock
 70
     0
  3

 72
    65
 73
     0
 40
0.0
  0
LTYPE
  5
15
330
5
100
AcDbSymbolTableRecord
100
AcDbLinetypeTableRecord
  2
ByLayer
 70
     0
  3

 72
    65
 73
     0
 40
0.0
  0
LTYPE
  5
16
330
5
100
AcDbSymbolTableRecord
100
AcDbLinetypeTableRecord
  2
Continuous
 70
     0
  3
Solid line
 72
    65
 73
     0
 40
0.0
  0
LTYPE
  5
5E
330
5
100
AcDbSymbolTableRecord
100
AcDbLinetypeTableRecord
  2
HIDDEN
 70
     0
  3
Hidden __ __ __ __ __ __ __ __ __ __ __ __ __ __
 72
    65
 73
     2
 40
0.1905
 49
0.127
 74
     0
 49
-0.0635
 74
     0
  0
LTYPE
  5
5F
330
5
100
AcDbSymbolTableRecord
100
AcDbLinetypeTableRecord
  2
PHANTOM
 70
     0
  3
Phantom ______  __  __  ______  __  __  ______
 72
    65
 73
     6
 40
1.27
 49
0.635
 74
     0
 49
-0.127
 74
     0
 49
0.127
 74
     0
 49
-0.127
 74
     0
 49
0.127
 74
     0
 49
-0.127
 74
     0
  0
LTYPE
  5
60
330
5
100
AcDbSymbolTableRecord
100
AcDbLinetypeTableRecord
  2
CENTER
 70
     0
  3
Center ____ _ ____ _ ____ _ ____ _ ____ _ ____
 72
    65
 73
     4
 40
1.016
 49
0.635
 74
     0
 49
-0.127
 74
     0
 49
0.127
 74
     0
 49
-0.127
 74
     0
  0
LTYPE
  5
61
330
5
100
AcDbSymbolTableRecord
100
AcDbLinetypeTableRecord
  2
CENTERX2
 70
     0
  3
Center (2x) ________  __  ________  __  _____
 72
    65
 73
     4
 40
2.032
 49
1.27
 74
     0
 49
-0.254
 74
     0
 49
0.254
 74
     0
 49
-0.254
 74
     0
  0
LTYPE
  5
62
330
5
100
AcDbSymbolTableRecord
100
AcDbLinetypeTableRecord
  2
DOT2
 70
     0
  3
Dot (.5x) ........................................
 72
    65
 73
     2
 40
0.0635
 49
0.0
 74
     0
 49
-0.0635
 74
     0
  0
ENDTAB
  0
TABLE
  2
LAYER
  5
2
330
0
100
AcDbSymbolTable
 70
     1
  0
LAYER
  5
10
330
2
100
AcDbSymbolTableRecord
100
AcDbLayerTableRecord
  2
0
 70
     0
 62
     7
  6
Continuous
370
    -3
390
F
  0
ENDTAB
  0
TABLE
  2
STYLE
  5
3
330
0
100
AcDbSymbolTable
 70
     1
  0
STYLE
  5
11
330
3
100
AcDbSymbolTableRecord
100
AcDbTextStyleTableRecord
  2
Standard
 70
     0
 40
0.0
 41
1.0
 50
0.0
 71
     0
 42
0.35
  3
txt
  4

  0
ENDTAB
  0
TABLE
  2
VIEW
  5
6
330
0
100
AcDbSymbolTable
 70
     0
  0
ENDTAB
  0
TABLE
  2
UCS
  5
7
330
0
100
AcDbSymbolTable
 70
     0
  0
ENDTAB
  0
TABLE
  2
APPID
  5
9
330
0
100
AcDbSymbolTable
 70
     1
  0
APPID
  5
12
330
9
100
AcDbSymbolTableRecord
100
AcDbRegAppTableRecord
  2
ACAD
 70
     0
  0
ENDTAB
  0
TABLE
  2
DIMSTYLE
  5
A
330
0
100
AcDbSymbolTable
 70
     1
100
AcDbDimStyleTable
  0
DIMSTYLE
105
27
330
A
100
AcDbSymbolTableRecord
100
AcDbDimStyleTableRecord
  2
ISO-25
 70
     0
 41
2.5
 42
0.625
 43
3.75
 44
1.25
 73
     0
 74
     0
 77
     1
 78
     8
140
2.5
141
2.5
143
0.0393700787
147
0.625
171
     3
172
     1
178
     0
271
     2
272
     2
274
     3
278
    44
283
     0
284
     8
340
11
  0
ENDTAB
  0
TABLE
  2
BLOCK_RECORD
  5
1
330
0
100
AcDbSymbolTable
 70
     1
  0
BLOCK_RECORD
  5
1F
330
1
100
AcDbSymbolTableRecord
100
AcDbBlockTableRecord
  2
*Model_Space
340
22
  0
BLOCK_RECORD
  5
1B
330
1
100
AcDbSymbolTableRecord
100
AcDbBlockTableRecord
  2
*Paper_Space
340
1E
  0
BLOCK_RECORD
  5
23
330
1
100
AcDbSymbolTableRecord
100
AcDbBlockTableRecord
  2
*Paper_Space0
340
26
  0
ENDTAB
  0
ENDSEC
  0
SECTION
  2
BLOCKS
  0
BLOCK
  5
20
330
1F
100
AcDbEntity
  8
0
100
AcDbBlockBegin
  2
*Model_Space
 70
     0
 10
0.0
 20
0.0
 30
0.0
  3
*Model_Space
  1

  0
ENDBLK
  5
21
330
1F
100
AcDbEntity
  8
0
100
AcDbBlockEnd
  0
BLOCK
  5
1C
330
1B
100
AcDbEntity
 67
     1
  8
0
100
AcDbBlockBegin
  2
*Paper_Space
 70
     0
 10
0.0
 20
0.0
 30
0.0
  3
*Paper_Space
  1

  0
ENDBLK
  5
1D
330
1B
100
AcDbEntity
 67
     1
  8
0
100
AcDbBlockEnd
  0
BLOCK
  5
24
330
23
100
AcDbEntity
  8
0
100
AcDbBlockBegin
  2
*Paper_Space0
 70
     0
 10
0.0
 20
0.0
 30
0.0
  3
*Paper_Space0
  1

  0
ENDBLK
  5
25
330
23
100
AcDbEntity
  8
0
100
AcDbBlockEnd
  0
ENDSEC
  0
SECTION
  2
ENTITIES
  0
SPLINE
  5
66
330
1F
100
AcDbEntity
  8
0
  6
Continuous
 62
     7
370
    25
100
AcDbSpline
210
0.0
220
0.0
230
1.0
 70
     8
 71
     3
 72
    19
 73
    15
 74
     0
 42
0.00000001
 43
0.00000001
 40
0.0
 40
0.0
 40
0.0
 40
0.0
 40
0.0832908056250697
 40
0.1666362578970607
 40
0.2499718272701248
 40
0.333287642699545
 40
0.4166267798635399
 40
0.4999628590445613
 40
0.5832681430836023
 40
0.6666224177046581
 40
0.7499722466585234
 40
0.8332991956557273
 40
0.9166538434966373
 40
1.0
 40
1.0
 40
1.0
 40
1.0
 10
18.42447373018338
 20
-20.16053627873492
 30
0.0
 10
18.85722773276687
 20
-19.7791932157403
 30
0.0
 10
19.72301966549349
 20
-19.01625689263072
 30
0.0
 10
20.92672551013339
 20
-17.77052906814598
 30
0.0
 10
22.054884752272
 20
-16.45691134208257
 30
0.0
 10
23.09674116599363
 20
-15.07345812203316
 30
0.0
 10
24.04998231707104
 20
-13.62767433759349
 30
0.0
 10
24.91062477202727
 20
-12.12497122857964
 30
0.0
 10
25.6757524779873
 20
-10.57134900051852
 30
0.0
 10
26.34238469712415
 20
-8.972926374443734
 30
0.0
 10
26.90874180645187
 20
-7.336002459704262
 30
0.0
 10
27.37039839569139
 20
-5.666884008949423
 30
0.0
 10
27.73527885081131
 20
-3.973162541286445
 30
0.0
 10
27.88927923781385
 20
-2.829072625578578
 30
0.0
 10
27.96627550911069
 20
-2.257056806317279
 30
0.0
  0
SPLINE
  5
69
330
1F
100
AcDbEntity
  8
0
  6
Continuous
 62
     7
370
    25
100
AcDbSpline
210
0.0
220
0.0
230
1.0
 70
     8
 71
     3
 72
    19
 73
    15
 74
     0
 42
0.00000001
 43
0.00000001
 40
0.0
 40
0.0
 40
0.0
 40
0.0
 40
0.0833110733138536
 40
0.1666733617655866
 40
0.2500259341262271
 40
0.3333484975414895
 40
0.4166937142535442
 40
0.5000344985492651
 40
0.5833347072013851
 40
0.6666826214258397
 40
0.750025598878364
 40
0.8333354535631582
 40
0.9166739568030019
 40
1.0
 40
1.0
 40
1.0
 40
1.0
 10
18.81410241571361
 20
-20.61681699534397
 30
0.0
 10
19.25670436880716
 20
-20.22673655444617
 30
0.0
 10
20.14218036271503
 20
-19.44633587231225
 30
0.0
 10
21.37315184298459
 20
-18.17203701839533
 30
0.0
 10
22.52670699094073
 20
-16.82832066413782
 30
0.0
 10
23.59185937385537
 20
-15.41320011901519
 30
0.0
 10
24.56624699526525
 20
-13.93438055531078
 30
0.0
 10
25.44579136360474
 20
-12.39740275677937
 30
0.0
 10
26.22751961322908
 20
-10.80842749554206
 30
0.0
 10
26.90840025616346
 20
-9.173724738630936
 30
0.0
 10
27.48660880020347
 20
-7.499748765338568
 30
0.0
 10
27.95763798676192
 20
-5.792953108881344
 30
0.0
 10
28.32961187228365
 20
-4.061133149457646
 30
0.0
 10
28.48625047523797
 20
-2.891361033637749
 30
0.0
 10
28.56456392146954
 20
-2.306518702516114
 30
0.0
  0
SPLINE
  5
6E
330
1F
100
AcDbEntity
  8
0
  6
Continuous
 62
     7
370
    25
100
AcDbSpline
210
0.0
220
0.0
230
1.0
 70
     8
 71
     3
 72
    15
 73
    11
 74
     0
 42
0.00000001
 43
0.00000001
 40
0.0
 40
0.0
 40
0.0
 40
0.0
 40
0.1248055076784905
 40
0.2498855089080529
 40
0.3748596819706462
 40
0.4998517156112156
 40
0.6248600573750739
 40
0.749888278493034
 40
0.8748160191804198
 40
1.0
 40
1.0
 40
1.0
 40
1.0
 10
-12.17987513075843
 20
-4.03076649367315
 30
0.0
 10
-12.08062521537046
 20
-4.392905520342532
 30
0.0
 10
-11.88190709725907
 20
-5.117980051571267
 30
0.0
 10
-11.46422683682203
 20
-6.167168460448617
 30
0.0
 10
-10.96372479489248
 20
-7.178875577435136
 30
0.0
 10
-10.3759773818407
 20
-8.142716851244652
 30
0.0
 10
-9.708433139709694
 20
-9.053278396098468
 30
0.0
 10
-8.964636994896408
 20
-9.901930774117737
 30
0.0
 10
-8.155436505181429
 20
-10.69059443891237
 30
0.0
 10
-7.563607511211011
 20
-11.15527303528475
 30
0.0
 10
-7.267389849026791
 20
-11.38785036570759
 30
0.0
  0
SPLINE
  5
71
330
1F
100
AcDbEntity
  8
0
  6
Continuous
 62
     7
370
    25
100
AcDbSpline
210
0.0
220
0.0
230
1.0
 70
     8
 71
     3
 72
    15
 73
    11
 74
     0
 42
0.00000001
 43
0.00000001
 40
0.0
 40
0.0
 40
0.0
 40
0.0
 40
0.1250591596298136
 40
0.2501014716665289
 40
0.3751275753925132
 40
0.5001351300054941
 40
0.6251245694887427
 40
0.7500991438750353
 40
0.874923532914235
 40
1.0
 40
1.0
 40
1.0
 40
1.0
 10
-12.76153139754235
 20
-4.178031673039334
 30
0.0
 10
-12.65692426682948
 20
-4.558980018826138
 30
0.0
 10
-12.44772409776112
 20
-5.320825390186651
 30
0.0
 10
-12.00809190167692
 20
-6.422905259534385
 30
0.0
 10
-11.48130643114629
 20
-7.484626244752193
 30
0.0
 10
-10.8626343506945
 20
-8.495839592004039
 30
0.0
 10
-10.16011352729427
 20
-9.450470459315055
 30
0.0
 10
-9.377608683224814
 20
-10.33941040791409
 30
0.0
 10
-8.526553348220904
 20
-11.16480754599426
 30
0.0
 10
-7.904284204262043
 20
-11.65049486457687
 30
0.0
 10
-7.592835787038786
 20
-11.89358348323408
 30
0.0
  0
SPLINE
  5
76
330
1F
100
AcDbEntity
  8
0
  6
Continuous
 62
     7
370
    25
100
AcDbSpline
210
0.0
220
0.0
230
1.0
 70
     8
 71
     3
 72
    17
 73
    13
 74
     0
 42
0.00000001
 43
0.00000001
 40
0.0
 40
0.0
 40
0.0
 40
0.0
 40
0.0999643226380295
 40
0.1999151745092552
 40
0.2999422757101789
 40
0.3999100359644899
 40
0.4999274549652025
 40
0.5999260043104174
 40
0.699907938206269
 40
0.7999667723304382
 40
0.8999643110935356
 40
1.0
 40
1.0
 40
1.0
 40
1.0
 10
-16.90092106827888
 20
-9.235090659991881
 30
0.0
 10
-16.68601895724313
 20
-9.658320379192224
 30
0.0
 10
-16.25624369446578
 20
-10.50472278495665
 30
0.0
 10
-15.49494824575573
 20
-11.70995613483859
 30
0.0
 10
-14.65381498877784
 20
-12.85970704079578
 30
0.0
 10
-13.72892770845649
 20
-13.9441558921894
 30
0.0
 10
-12.72790616222731
 20
-14.95835909530521
 30
0.0
 10
-11.65582222129698
 20
-15.89721782746172
 30
0.0
 10
-10.51861974959368
 20
-16.75656753368092
 30
0.0
 10
-9.321773659490532
 20
-17.52997764241352
 30
0.0
 10
-8.074943330974188
 20
-18.22229464081606
 30
0.0
 10
-7.206184147594231
 20
-18.60619088786276
 30
0.0
 10
-6.771721711449399
 20
-18.79817561954624
 30
0.0
  0
SPLINE
  5
79
330
1F
100
AcDbEntity
  8
0
  6
Continuous
 62
     7
370
    25
100
AcDbSpline
210
0.0
220
0.0
230
1.0
 70
     8
 71
     3
 72
    17
 73
    13
 74
     0
 42
0.00000001
 43
0.00000001
 40
0.0
 40
0.0
 40
0.0
 40
0.0
 40
0.100011215367483
 40
0.1999974699981828
 40
0.300052642375178
 40
0.4000386859151143
 40
0.5000647815807853
 40
0.6000537954294043
 40
0.7000169344261941
 40
0.8000472904546002
 40
0.9000103868861479
 40
1.0
 40
1.0
 40
1.0
 40
1.0
 10
-17.44056852939061
 20
-9.497358933600848
 30
0.0
 10
-17.21852342664945
 20
-9.93448917274189
 30
0.0
 10
-16.77448863904545
 20
-10.8086405523314
 30
0.0
 10
-15.98781409488501
 20
-12.05318700714653
 30
0.0
 10
-15.11864424192041
 20
-13.24018598033132
 30
0.0
 10
-14.1629450693062
 20
-14.35948358122462
 30
0.0
 10
-13.12866468006693
 20
-15.40593557664575
 30
0.0
 10
-12.02108156479076
 20
-16.37428475168408
 30
0.0
 10
-10.84637494970368
 20
-17.26024188264648
 30
0.0
 10
-9.610190994986677
 20
-18.05721216342128
 30
0.0
 10
-8.322532970950016
 20
-18.77020935217853
 30
0.0
 10
-7.425423062046479
 20
-19.1652005168377
 30
0.0
 10
-6.976808622583228
 20
-19.36272228999822
 30
0.0
  0
SPLINE
  5
7E
330
1F
100
AcDbEntity
  8
0
  6
Continuous
 62
     7
370
    25
100
AcDbSpline
210
0.0
220
0.0
230
1.0
 70
     8
 71
     3
 72
    19
 73
    15
 74
     0
 42
0.00000001
 43
0.00000001
 40
0.0
 40
0.0
 40
0.0
 40
0.0
 40
0.0833021025560689
 40
0.1666226437504224
 40
0.2499687609320891
 40
0.3332755524796089
 40
0.4166261381742339
 40
0.4999557821521126
 40
0.5832607195895
 40
0.6666176729272123
 40
0.7499696100977327
 40
0.8333010097184513
 40
0.916641265129293
 40
1.0
 40
1.0
 40
1.0
 40
1.0
 10
-24.72199641174181
 20
2.929330838507302
 30
0.0
 10
-24.79474179310704
 20
2.411970746783522
 30
0.0
 10
-24.9402486577813
 20
1.377136047431784
 30
0.0
 10
-25.03429751027606
 20
-0.1888330674809011
 30
0.0
 10
-25.03701286724141
 20
-1.756873819539989
 30
0.0
 10
-24.939934024091
 20
-3.322413588607588
 30
0.0
 10
-24.74586240037925
 20
-4.878684445804534
 30
0.0
 10
-24.45525745958029
 20
-6.419868195375692
 30
0.0
 10
-24.06960408089535
 20
-7.940090270619764
 30
0.0
 10
-23.59048775732939
 20
-9.43360130422916
 30
0.0
 10
-23.02032046344522
 20
-10.89506819677252
 30
0.0
 10
-22.3598360382197
 20
-12.31754290859775
 30
0.0
 10
-21.61876172536671
 20
-13.70061999543573
 30
0.0
 10
-21.05492480344298
 20
-14.58102184193111
 30
0.0
 10
-20.77297509033689
 20
-15.02127156376648
 30
0.0
  0
SPLINE
  5
81
330
1F
100
AcDbEntity
  8
0
  6
Continuous
 62
     7
370
    25
100
AcDbSpline
210
0.0
220
0.0
230
1.0
 70
     8
 71
     3
 72
    19
 73
    15
 74
     0
 42
0.00000001
 43
0.00000001
 40
0.0
 40
0.0
 40
0.0
 40
0.0
 40
0.0833265535507016
 40
0.1666672848052194
 40
0.2500329664392083
 40
0.3333479719327579
 40
0.4167059138374317
 40
0.5000410147596875
 40
0.5833403344693522
 40
0.666689427226865
 40
0.7500327241259425
 40
0.8333443275401164
 40
0.9166651503790615
 40
1.0
 40
1.0
 40
1.0
 40
1.0
 10
-25.31481870247937
 20
3.021875368549797
 30
0.0
 10
-25.38934493300243
 20
2.491501643067642
 30
0.0
 10
-25.53841007441009
 20
1.430663950982449
 30
0.0
 10
-25.634551296815
 20
-0.1746344360422813
 30
0.0
 10
-25.63696069339328
 20
-1.781935313751973
 30
0.0
 10
-25.53697661276197
 20
-3.386559943134836
 30
0.0
 10
-25.33749495741757
 20
-4.98155241080285
 30
0.0
 10
-25.03898696614869
 20
-6.560938479478738
 30
0.0
 10
-24.64300108705303
 20
-8.11867950918221
 30
0.0
 10
-24.15118362985039
 20
-9.648884329280781
 30
0.0
 10
-23.566011618877
 20
-11.14607648040605
 30
0.0
 10
-22.88825582900217
 20
-12.60314466441475
 30
0.0
 10
-22.12791968005169
 20
-14.01966167865927
 30
0.0
 10
-21.54948659838215
 20
-14.92122363884321
 30
0.0
 10
-21.26024571527743
 20
-15.37204255947714
 30
0.0
  0
SPLINE
  5
85
330
1F
100
AcDbEntity
  8
0
  6
Continuous
 62
     7
370
    25
100
AcDbSpline
210
0.0
220
0.0
230
1.0
 70
     8
 71
     3
 72
    17
 73
    13
 74
     0
 42
0.00000001
 43
0.00000001
 40
0.0
 40
0.0
 40
0.0
 40
0.0
 40
0.0999457205088699
 40
0.1999584246405549
 40
0.2999324495350238
 40
0.3999400788696025
 40
0.4999380117624211
 40
0.5999230378903241
 40
0.6999158348921644
 40
0.799966496090209
 40
0.8999664198439773
 40
1.0
 40
1.0
 40
1.0
 40
1.0
 10
10.86108489540898
 20
-17.82015388697497
 30
0.0
 10
11.31035332158493
 20
-17.56213897410388
 30
0.0
 10
12.20919127364024
 20
-17.04593622676469
 30
0.0
 10
13.47985074973313
 20
-16.14748714819441
 30
0.0
 10
14.68514256654078
 20
-15.16427353162921
 30
0.0
 10
15.81346201382198
 20
-14.09309182694162
 30
0.0
 10
16.860353285703
 20
-12.94232948402115
 30
0.0
 10
17.81989690776674
 20
-11.71789465355068
 30
0.0
 10
18.68827756883567
 20
-10.42672027690191
 30
0.0
 10
19.45838675398419
 20
-9.075029091804147
 30
0.0
 10
20.13627300650176
 20
-7.673471789392011
 30
0.0
 10
20.5003940722866
 20
-6.702623535095044
 30
0.0
 10
20.68248523756015
 20
-6.217117733480196
 30
0.0
  0
SPLINE
  5
89
330
1F
100
AcDbEntity
  8
0
  6
Continuous
 62
     7
370
    25
100
AcDbSpline
210
0.0
220
0.0
230
1.0
 70
     8
 71
     3
 72
    17
 73
    13
 74
     0
 42
0.00000001
 43
0.00000001
 40
0.0
 40
0.0
 40
0.0
 40
0.0
 40
0.0999867189246042
 40
0.2000294469503032
 40
0.3000271969664671
 40
0.4000500957702814
 40
0.5000561906525673
 40
0.6000335788415727
 40
0.7000095285772668
 40
0.8000368800788709
 40
0.9000062787904647
 40
1.0
 40
1.0
 40
1.0
 40
1.0
 10
11.15048816959486
 20
-18.34574899101975
 30
0.0
 10
11.61331398587971
 20
-18.0798672404531
 30
0.0
 10
12.53922487746113
 20
-17.54795480156078
 30
0.0
 10
13.84796026318799
 20
-16.62205922109124
 30
0.0
 10
15.08911988737998
 20
-15.60882149223007
 30
0.0
 10
16.2507536012146
 20
-14.50495117600991
 30
0.0
 10
17.32823021261023
 20
-13.31915581927286
 30
0.0
 10
18.31546512876025
 20
-12.05757109615206
 30
0.0
 10
19.20853962182097
 20
-10.72736928223638
 30
0.0
 10
20.0001692534037
 20
-9.334960580099176
 30
0.0
 10
20.69660098520846
 20
-7.89133333954725
 30
0.0
 10
21.07030561531539
 20
-6.891445392168036
 30
0.0
 10
21.2571806581351
 20
-6.391440607833568
 30
0.0
  0
SPLINE
  5
8D
330
1F
100
AcDbEntity
  8
0
  6
Continuous
 62
     7
370
    25
100
AcDbSpline
210
0.0
220
0.0
230
1.0
 70
     8
 71
     3
 72
    15
 73
    11
 74
     0
 42
0.00000001
 43
0.00000001
 40
0.0
 40
0.0
 40
0.0
 40
0.0
 40
0.1249506065491861
 40
0.2499154904885199
 40
0.3747949041033756
 40
0.4998893031684981
 40
0.6248975952071196
 40
0.7499187871412226
 40
0.8749518271465967
 40
1.0
 40
1.0
 40
1.0
 40
1.0
 10
14.03364774629205
 20
-5.93898127628446
 30
0.0
 10
14.22830975293425
 20
-5.524985064693405
 30
0.0
 10
14.61765600913123
 20
-4.696945336535388
 30
0.0
 10
15.05707114210028
 20
-3.395029868961799
 30
0.0
 10
15.38773602331079
 20
-2.062205077136606
 30
0.0
 10
15.59601946448426
 20
-0.7041999125567109
 30
0.0
 10
15.685510868634
 20
0.6672324123859423
 30
0.0
 10
15.6520042608767
 20
2.040487486544902
 30
0.0
 10
15.5071428317217
 20
3.407863878615317
 30
0.0
 10
15.31157823201628
 20
4.30229788991008
 30
0.0
 10
15.21379001518698
 20
4.749541957434301
 30
0.0
  0
SPLINE
  5
8F
330
1F
100
AcDbEntity
  8
0
  6
Continuous
 62
     7
370
    25
100
AcDbSpline
210
0.0
220
0.0
230
1.0
 70
     8
 71
     3
 72
    15
 73
    11
 74
     0
 42
0.00000001
 43
0.00000001
 40
0.0
 40
0.0
 40
0.0
 40
0.0
 40
0.125043200946457
 40
0.2500737531267069
 40
0.3749763881523054
 40
0.5000981841385211
 40
0.6250925999265257
 40
0.7500736817856841
 40
0.8750416869227052
 40
1.0
 40
1.0
 40
1.0
 40
1.0
 10
14.57114498447704
 20
-6.205736296232928
 30
0.0
 10
14.77391436597324
 20
-5.774164988113498
 30
0.0
 10
15.17943261779445
 20
-4.911066027543537
 30
0.0
 10
15.63656156754056
 20
-3.554152165354601
 30
0.0
 10
15.97994959731473
 20
-2.165256551789582
 30
0.0
 10
16.19540959906054
 20
-0.7504727216439654
 30
0.0
 10
16.2867554992743
 20
0.6779473702354106
 30
0.0
 10
16.24963893192823
 20
2.107734040224074
 30
0.0
 10
16.09631996093855
 20
3.530905542148796
 30
0.0
 10
15.89082190820357
 20
4.461487752444992
 30
0.0
 10
15.78807686640925
 20
4.926760813758358
 30
0.0
  0
SPLINE
  5
99
330
1F
100
AcDbEntity
  8
0
  6
Continuous
 62
     7
370
    25
100
AcDbSpline
210
0.0
220
0.0
230
1.0
 70
     8
 71
     3
 72
    13
 73
     9
 74
     0
 42
0.00000001
 43
0.00000001
 40
0.0
 40
0.0
 40
0.0
 40
0.0
 40
0.1663586362926437
 40
0.3330537338144334
 40
0.499786313195422
 40
0.6662954948800036
 40
0.8331154798797992
 40
1.0
 40
1.0
 40
1.0
 40
1.0
 10
5.238660072081577
 20
9.013103584532532
 30
0.0
 10
4.912497908190129
 20
9.231001348920422
 30
0.0
 10
4.259513915691232
 20
9.667237577086798
 30
0.0
 10
3.194340035606317
 20
10.17696990196246
 30
0.0
 10
2.083728954295671
 20
10.57433003978626
 30
0.0
 10
0.9348595675570679
 20
10.84298122057743
 30
0.0
 10
-0.2369567785611003
 20
10.99469714420914
 30
0.0
 10
-1.02368975566943
 20
10.9884959534652
 30
0.0
 10
-1.417132317376078
 20
10.98539475846904
 30
0.0
  0
SPLINE
  5
9A
330
1F
100
AcDbEntity
  8
0
  6
Continuous
 62
     7
370
    25
100
AcDbSpline
210
0.0
220
0.0
230
1.0
 70
     8
 71
     3
 72
    14
 73
    10
 74
     0
 42
0.00000001
 43
0.00000001
 40
0.0
 40
0.0
 40
0.0
 40
0.0
 40
0.1249184136073105
 40
0.2501775903986588
 40
0.3750519629443076
 40
0.5002490923308406
 40
0.6666692667313567
 40
0.8333398194595765
 40
1.0
 40
1.0
 40
1.0
 40
1.0
 10
5.584656594155861
 20
9.503309521023983
 30
0.0
 10
5.325830170070768
 20
9.679129181545601
 30
0.0
 10
4.807471272937601
 20
10.03124811856862
 30
0.0
 10
3.97694749867179
 20
10.47275168055705
 30
0.0
 10
3.114767902504395
 20
10.848191777074
 30
0.0
 10
2.125627687893954
 20
11.18211163682109
 30
0.0
 10
1.006153088711226
 20
11.44121679877757
 30
0.0
 10
-0.2387766245069273
 20
11.59797178705105
 30
0.0
 10
-1.073950214475106
 20
11.58789194112145
 30
0.0
 10
-1.491524015491863
 20
11.58285217498295
 30
0.0
  0
SPLINE
  5
A0
330
1F
100
AcDbEntity
  8
0
  6
Continuous
 62
     7
370
    25
100
AcDbSpline
210
0.0
220
0.0
230
1.0
 70
     8
 71
     3
 72
    16
 73
    12
 74
     0
 42
0.00000001
 43
0.00000001
 40
0.0
 40
0.0
 40
0.0
 40
0.0
 40
0.0999589476534341
 40
0.1999046481970627
 40
0.2999298882976696
 40
0.3999248295049034
 40
0.4999371888691309
 40
0.6249352611000373
 40
0.7499468384281793
 40
0.8749691661223323
 40
1.0
 40
1.0
 40
1.0
 40
1.0
 10
5.855310040906164
 20
15.79599745905487
 30
0.0
 10
5.4771430719719
 20
15.95273197596469
 30
0.0
 10
4.720859250871104
 20
16.26618023846366
 30
0.0
 10
3.546613172279496
 20
16.63028694763753
 30
0.0
 10
2.351204679816072
 20
16.91444975237052
 30
0.0
 10
1.137570653924983
 20
17.11040890110104
 30
0.0
 10
-0.1886512118079792
 20
17.22793076263041
 30
0.0
 10
-1.623549188936508
 20
17.23983501420167
 30
0.0
 10
-3.155085625263924
 20
17.11355516462762
 30
0.0
 10
-4.672624339122872
 20
16.86142892961283
 30
0.0
 10
-5.658109651043153
 20
16.5823370474208
 30
0.0
 10
-6.150869068876776
 20
16.44278635932069
 30
0.0
  0
SPLINE
  5
A1
330
1F
100
AcDbEntity
  8
0
  6
Continuous
 62
     7
370
    25
100
AcDbSpline
210
0.0
220
0.0
230
1.0
 70
     8
 71
     3
 72
    17
 73
    13
 74
     0
 42
0.00000001
 43
0.00000001
 40
0.0
 40
0.0
 40
0.0
 40
0.0
 40
0.1000145228392651
 40
0.1999996037001996
 40
0.3000540512455746
 40
0.4000648794273606
 40
0.5000827697332139
 40
0.6000524145563461
 40
0.7000462272394553
 40
0.8000224595636863
 40
0.9000370338224652
 40
1.0
 40
1.0
 40
1.0
 40
1.0
 10
6.094215244082025
 20
16.34638646514063
 30
0.0
 10
5.701652252267123
 20
16.50899581733338
 30
0.0
 10
4.916641830165488
 20
16.83416665326051
 30
0.0
 10
3.697811886190634
 20
17.21155152659137
 30
0.0
 10
2.457167245286368
 20
17.50574131769534
 30
0.0
 10
1.197797696193834
 20
17.70811042720405
 30
0.0
 10
-0.0723620443597847
 20
17.8196412915255
 30
0.0
 10
-1.347162613860472
 20
17.83970299088506
 30
0.0
 10
-2.620108874725071
 20
17.76939930199698
 30
0.0
 10
-3.884461097694889
 20
17.6069594288388
 30
0.0
 10
-5.136046060112218
 20
17.36173365801536
 30
0.0
 10
-5.951873506269998
 20
17.12466899895931
 30
0.0
 10
-6.359681959304487
 20
17.00616725899689
 30
0.0
  0
SPLINE
  5
A8
330
1F
100
AcDbEntity
  8
0
  6
Continuous
 62
     7
370
    25
100
AcDbSpline
210
0.0
220
0.0
230
1.0
 70
     8
 71
     3
 72
    17
 73
    13
 74
     0
 42
0.00000001
 43
0.00000001
 40
0.0
 40
0.0
 40
0.0
 40
0.0
 40
0.0999559134687181
 40
0.1999596364647354
 40
0.2999332985706737
 40
0.3999440306813373
 40
0.499949309828411
 40
0.599939848148043
 40
0.6999236829420675
 40
0.7999557087035568
 40
0.899980460742916
 40
1.0
 40
1.0
 40
1.0
 40
1.0
 10
3.853159515646482
 20
22.96330466490476
 30
0.0
 10
3.279949650518557
 20
23.07189356798123
 30
0.0
 10
2.133255750463801
 20
23.28912331287341
 30
0.0
 10
0.3884231282613216
 20
23.45034910577047
 30
0.0
 10
-1.362478170027072
 20
23.49007628643593
 30
0.0
 10
-3.111850343180587
 20
23.39682302171211
 30
0.0
 10
-4.849474897445289
 20
23.17461260361601
 30
0.0
 10
-6.565686987968812
 20
22.82424268990808
 30
0.0
 10
-8.251833953540194
 20
22.34872575448405
 30
0.0
 10
-9.89735827694972
 20
21.74834621818195
 30
0.0
 10
-11.49933596664459
 20
21.03657136219307
 30
0.0
 10
-12.51787872438984
 20
20.46582413840454
 30
0.0
 10
-13.02713683259726
 20
20.18045796281598
 30
0.0
  0
SPLINE
  5
AA
330
1F
100
AcDbEntity
  8
0
  6
Continuous
 62
     7
370
    25
100
AcDbSpline
210
0.0
220
0.0
230
1.0
 70
     8
 71
     3
 72
    17
 73
    13
 74
     0
 42
0.00000001
 43
0.00000001
 40
0.0
 40
0.0
 40
0.0
 40
0.0
 40
0.0999891169817539
 40
0.200017930164511
 40
0.3000112333170932
 40
0.4000344647782356
 40
0.5000458033218037
 40
0.6000295291390216
 40
0.7000005266604226
 40
0.8000127448107864
 40
0.9000137289460652
 40
0.9999999999999999
 40
0.9999999999999999
 40
0.9999999999999999
 40
0.9999999999999999
 10
3.975735284270622
 20
23.55065333953103
 30
0.0
 10
3.387057947069116
 20
23.66210755030345
 30
0.0
 10
2.209469564692589
 20
23.88506021975131
 30
0.0
 10
0.4176806230556687
 20
24.05023593227232
 30
0.0
 10
-1.38018980486729
 20
24.09049162670856
 30
0.0
 10
-3.176327941770464
 20
23.99404651901852
 30
0.0
 10
-4.96017429894281
 20
23.76505640027915
 30
0.0
 10
-6.721793892784529
 20
23.40437817865756
 30
0.0
 10
-8.452286061891025
 20
22.91513854557611
 30
0.0
 10
-10.14084641716757
 20
22.29764621701225
 30
0.0
 10
-11.78445670471072
 20
21.56576306112122
 30
0.0
 10
-12.82927235211614
 20
20.97901713143604
 30
0.0
 10
-13.35164174222568
 20
20.68566575007032
 30
0.0
  0
LINE
  5
AB
330
1F
100
AcDbEntity
  8
0
  6
Continuous
 62
     7
370
    25
100
AcDbLine
 10
18.408076271
 20
-20.3684667745
 30
0.0
 11
18.6072787181
 21
-20.6005129537
 31
0.0
  0
LINE
  5
AC
330
1F
100
AcDbEntity
  8
0
  6
Continuous
 62
     7
370
    25
100
AcDbLine
 10
28.119829755
 20
-2.127174591
 30
0.0
 11
28.4258999138
 21
-2.1426988719
 31
0.0
  0
LINE
  5
AD
330
1F
100
AcDbEntity
  8
0
  6
Continuous
 62
     7
370
    25
100
AcDbLine
 10
-12.6556165969
 20
-4.0003206465
 30
0.0
 11
-12.3595464326
 21
-3.9236518867
 31
0.0
  0
LINE
  5
AE
330
1F
100
AcDbEntity
  8
0
  6
Continuous
 62
     7
370
    25
100
AcDbLine
 10
-7.2268068448
 20
-11.5770830979
 30
0.0
 11
-7.3765561996
 21
-11.8468632754
 31
0.0
  0
LINE
  5
AF
330
1F
100
AcDbEntity
  8
0
  6
Continuous
 62
     7
370
    25
100
AcDbLine
 10
-17.3728123767
 20
-9.3015001478
 30
0.0
 11
-17.0982414852
 21
-9.166815933
 31
0.0
  0
LINE
  5
B0
330
1F
100
AcDbEntity
  8
0
  6
Continuous
 62
     7
370
    25
100
AcDbLine
 10
-6.6880483075
 20
-18.9779449436
 30
0.0
 11
-6.7799775956
 21
-19.270943107
 31
0.0
  0
LINE
  5
B1
330
1F
100
AcDbEntity
  8
0
  6
Continuous
 62
     7
370
    25
100
AcDbLine
 10
-25.1472815692
 20
3.1441577709
 30
0.0
 11
-24.8449856224
 21
3.0978489134
 31
0.0
  0
LINE
  5
B2
330
1F
100
AcDbEntity
  8
0
  6
Continuous
 62
     7
370
    25
100
AcDbLine
 10
-21.0478330005
 20
-15.4067544451
 30
0.0
 11
-20.8053873581
 21
-15.2190907702
 31
0.0
  0
LINE
  5
B3
330
1F
100
AcDbEntity
  8
0
  6
Continuous
 62
     7
370
    25
100
AcDbLine
 10
10.8029624249
 20
-18.0206409036
 30
0.0
 11
10.9513808938
 21
-18.2880373156
 31
0.0
  0
LINE
  5
B4
330
1F
100
AcDbEntity
  8
0
  6
Continuous
 62
     7
370
    25
100
AcDbLine
 10
20.8581200288
 20
-6.1235030651
 30
0.0
 11
21.1552245541
 21
-6.2004270434
 31
0.0
  0
LINE
  5
B5
330
1F
100
AcDbEntity
  8
0
  6
Continuous
 62
     7
370
    25
100
AcDbLine
 10
14.1003003077
 20
-6.137079904
 30
0.0
 11
14.3749149355
 21
-6.2717894329
 31
0.0
  0
LINE
  5
B6
330
1F
100
AcDbEntity
  8
0
  6
Continuous
 62
     7
370
    25
100
AcDbLine
 10
15.3055670335
 20
4.9224790514
 30
0.0
 11
15.5941983299
 21
5.0293837303
 31
0.0
  0
LINE
  5
B7
330
1F
100
AcDbEntity
  8
0
  6
Continuous
 62
     7
370
    25
100
AcDbLine
 10
-1.6292709487
 20
11.4062900392
 30
0.0
 11
-1.5668998258
 21
11.1027686137
 31
0.0
  0
LINE
  5
B8
330
1F
100
AcDbEntity
  8
0
  6
Continuous
 62
     7
370
    25
100
AcDbLine
 10
5.6197674364
 20
9.2996764732
 30
0.0
 11
5.445051027
 21
9.0486491308
 31
0.0
  0
LINE
  5
B9
330
1F
100
AcDbEntity
  8
0
  6
Continuous
 62
     7
370
    25
100
AcDbLine
 10
-6.4509431275
 20
16.807777438
 30
0.0
 11
-6.3296999447
 21
16.5252430408
 31
0.0
  0
LINE
  5
BA
330
1F
100
AcDbEntity
  8
0
  6
Continuous
 62
     7
370
    25
100
AcDbLine
 10
6.1702451213
 20
16.1537031219
 30
0.0
 11
6.0496426195
 21
15.8726610119
 31
0.0
  0
LINE
  5
BB
330
1F
100
AcDbEntity
  8
0
  6
Continuous
 62
     7
370
    25
100
AcDbLine
 10
-13.3976582085
 20
20.4749348592
 30
0.0
 11
-13.2224559794
 21
20.2232067948
 31
0.0
  0
LINE
  5
BC
330
1F
100
AcDbEntity
  8
0
  6
Continuous
 62
     7
370
    25
100
AcDbLine
 10
4.0893133954
 20
23.3771513938
 30
0.0
 11
4.0277539074
 21
23.0775878707
 31
0.0
  0
ARC
  5
BD
330
1F
100
AcDbEntity
  8
0
  6
Continuous
 62
     7
370
    25
100
AcDbCircle
 10
18.5196835442
 20
-20.2726563543
 30
0.0
 40
0.1470911962861942
100
AcDbArc
 50
130.3371571679
 51
220.6447826375
  0
ARC
  5
BE
330
1F
100
AcDbEntity
  8
0
  6
Continuous
 62
     7
370
    25
100
AcDbCircle
 10
28.1123786745
 20
-2.2740769444
 30
0.0
 40
0.1470911962925098
100
AcDbArc
 50
87.096371041
 51
173.3553370205
  0
ARC
  5
BF
330
1F
100
AcDbEntity
  8
0
  6
Continuous
 62
     7
370
    25
100
AcDbCircle
 10
28.4184488333
 20
-2.2896012252
 30
0.0
 40
0.1470911962877288
100
AcDbArc
 50
353.3955947257
 51
87.096371045
  0
ARC
  5
C0
330
1F
100
AcDbEntity
  8
0
  6
Continuous
 62
     7
370
    25
100
AcDbCircle
 10
18.7188859913
 20
-20.5047025336
 30
0.0
 40
0.1470911962925132
100
AcDbArc
 50
220.6447826375
 51
310.340535351
  0
ARC
  5
C1
330
1F
100
AcDbEntity
  8
0
  6
Continuous
 62
     7
370
    25
100
AcDbCircle
 10
-12.3226727464
 20
-4.066046238
 30
0.0
 40
0.1470911962925155
100
AcDbArc
 50
13.877655888
 51
104.5181028025
  0
ARC
  5
C2
330
1F
100
AcDbEntity
  8
0
  6
Continuous
 62
     7
370
    25
100
AcDbCircle
 10
-7.3554136856
 20
-11.5056961206
 30
0.0
 40
0.1470911962925076
100
AcDbArc
 50
330.9662578982
 51
53.2424352353
  0
ARC
  5
C3
330
1F
100
AcDbEntity
  8
0
  6
Continuous
 62
     7
370
    25
100
AcDbCircle
 10
-7.5051630403
 20
-11.7754762981
 30
0.0
 40
0.1470911962925122
100
AcDbArc
 50
233.4129433734
 51
330.9662578982
  0
ARC
  5
C4
330
1F
100
AcDbEntity
  8
0
  6
Continuous
 62
     7
370
    25
100
AcDbCircle
 10
-12.6187429107
 20
-4.1427149978
 30
0.0
 40
0.1470911962925134
100
AcDbArc
 50
104.5181028025
 51
193.8924743811
  0
ARC
  5
C5
330
1F
100
AcDbEntity
  8
0
  6
Continuous
 62
     7
370
    25
100
AcDbCircle
 10
-17.0334630869
 20
-9.2988749317
 30
0.0
 40
0.1470911962924883
100
AcDbArc
 50
25.6986331938
 51
116.12916053
  0
ARC
  5
C6
330
1F
100
AcDbEntity
  8
0
  6
Continuous
 62
     7
370
    25
100
AcDbCircle
 10
-6.8283937208
 20
-18.9339110364
 30
0.0
 40
0.1470911962922112
100
AcDbArc
 50
342.5805523601
 51
67.3385748345
  0
ARC
  5
C7
330
1F
100
AcDbEntity
  8
0
  6
Continuous
 62
     7
370
    25
100
AcDbCircle
 10
-6.9203230089
 20
-19.2269091998
 30
0.0
 40
0.1470911962925177
100
AcDbArc
 50
247.4172324726
 51
342.5805523601
  0
ARC
  5
C8
330
1F
100
AcDbEntity
  8
0
  6
Continuous
 62
     7
370
    25
100
AcDbCircle
 10
-17.3080339784
 20
-9.4335591465
 30
0.0
 40
0.1470911962924946
100
AcDbArc
 50
116.12916053
 51
205.7053404095
  0
ARC
  5
C9
330
1F
100
AcDbEntity
  8
0
  6
Continuous
 62
     7
370
    25
100
AcDbCircle
 10
-24.8672587616
 20
2.9524538403
 30
0.0
 40
0.1470911962925123
100
AcDbArc
 50
350.9554845373
 51
81.2905407739
  0
ARC
  5
CA
330
1F
100
AcDbEntity
  8
0
  6
Continuous
 62
     7
370
    25
100
AcDbCircle
 10
-20.8954217929
 20
-15.102773873
 30
0.0
 40
0.1470911962925047
100
AcDbArc
 50
307.7414594402
 51
33.648314436
  0
ARC
  5
CB
330
1F
100
AcDbEntity
  8
0
  6
Continuous
 62
     7
370
    25
100
AcDbCircle
 10
-21.1378674353
 20
-15.2904375479
 30
0.0
 40
0.1470911962925191
100
AcDbArc
 50
213.6963848532
 51
307.7414594402
  0
ARC
  5
CC
330
1F
100
AcDbEntity
  8
0
  6
Continuous
 62
     7
370
    25
100
AcDbCircle
 10
-25.1695547085
 20
2.9987626977
 30
0.0
 40
0.1470911962925098
100
AcDbArc
 50
81.2905407739
 51
170.9595593433
  0
ARC
  5
CD
330
1F
100
AcDbEntity
  8
0
  6
Continuous
 62
     7
370
    25
100
AcDbCircle
 10
10.9315708386
 20
-17.94925676
 30
0.0
 40
0.1470911962925115
100
AcDbArc
 50
118.6330956487
 51
209.0324796078
  0
ARC
  5
CE
330
1F
100
AcDbEntity
  8
0
  6
Continuous
 62
     7
370
    25
100
AcDbCircle
 10
20.8212520174
 20
-6.2658988859
 30
0.0
 40
0.1470911962924989
100
AcDbArc
 50
75.48418056
 51
160.6317239199
  0
ARC
  5
CF
330
1F
100
AcDbEntity
  8
0
  6
Continuous
 62
     7
370
    25
100
AcDbCircle
 10
21.1183565427
 20
-6.3428228642
 30
0.0
 40
0.1470911962925179
100
AcDbArc
 50
340.6991802359
 51
75.48418056
  0
ARC
  5
D0
330
1F
100
AcDbEntity
  8
0
  6
Continuous
 62
     7
370
    25
100
AcDbCircle
 10
11.0799893075
 20
-18.2166531721
 30
0.0
 40
0.1470911962766036
100
AcDbArc
 50
209.0324796079
 51
298.6388291868
  0
ARC
  5
D1
330
1F
100
AcDbEntity
  8
0
  6
Continuous
 62
     7
370
    25
100
AcDbCircle
 10
14.1650802023
 20
-6.0050216393
 30
0.0
 40
0.1470911962925111
100
AcDbArc
 50
153.3220193891
 51
243.8701902635
  0
ARC
  5
D2
330
1F
100
AcDbEntity
  8
0
  6
Continuous
 62
     7
370
    25
100
AcDbCircle
 10
14.43969483
 20
-6.1397311682
 30
0.0
 40
0.1470911962924801
100
AcDbArc
 50
243.8701902635
 51
333.3373784437
  0
ARC
  5
D3
330
1F
100
AcDbEntity
  8
0
  6
Continuous
 62
     7
370
    25
100
AcDbCircle
 10
15.3566556821
 20
4.7845451179
 30
0.0
 40
0.1470911962925041
100
AcDbArc
 50
110.32386977
 51
193.7667062863
  0
ARC
  5
D4
330
1F
100
AcDbEntity
  8
0
  6
Continuous
 62
     7
370
    25
100
AcDbCircle
 10
15.6452869784
 20
4.8914497968
 30
0.0
 40
0.1470911962925122
100
AcDbArc
 50
13.8902037891
 51
110.32386977
  0
ARC
  5
D5
330
1F
100
AcDbEntity
  8
0
  6
Continuous
 62
     7
370
    25
100
AcDbCircle
 10
-1.4228192097
 20
11.1323759793
 30
0.0
 40
0.1470911962925042
100
AcDbArc
 50
191.6121577898
 51
272.2157421336
  0
ARC
  5
D6
330
1F
100
AcDbEntity
  8
0
  6
Continuous
 62
     7
370
    25
100
AcDbCircle
 10
-1.4851903326
 20
11.4358974048
 30
0.0
 40
0.1470911962925058
100
AcDbArc
 50
92.4678943478
 51
191.6121577898
  0
ARC
  5
D7
330
1F
100
AcDbEntity
  8
0
  6
Continuous
 62
     7
370
    25
100
AcDbCircle
 10
5.4990395081
 20
9.3837037745
 30
0.0
 40
0.1470911962925093
100
AcDbArc
 50
325.16187114
 51
54.4038697884
  0
ARC
  5
D8
330
1F
100
AcDbEntity
  8
0
  6
Continuous
 62
     7
370
    25
100
AcDbCircle
 10
5.3243230988
 20
9.1326764322
 30
0.0
 40
0.1470911962925173
100
AcDbArc
 50
234.3818594159
 51
325.16187114
  0
ARC
  5
D9
330
1F
100
AcDbEntity
  8
0
  6
Continuous
 62
     7
370
    25
100
AcDbCircle
 10
-6.1945290156
 20
16.5832485574
 30
0.0
 40
0.1470911962924927
100
AcDbArc
 50
203.2254852
 51
287.2668424892
  0
ARC
  5
DA
330
1F
100
AcDbEntity
  8
0
  6
Continuous
 62
     7
370
    25
100
AcDbCircle
 10
-6.3157721984
 20
16.8657829546
 30
0.0
 40
0.147091196292472
100
AcDbArc
 50
107.3687721313
 51
203.2254852
  0
ARC
  5
DB
330
1F
100
AcDbEntity
  8
0
  6
Continuous
 62
     7
370
    25
100
AcDbCircle
 10
6.0350741399
 20
16.2117085166
 30
0.0
 40
0.1470911962925074
100
AcDbArc
 50
336.7745664599
 51
66.2922893896
  0
ARC
  5
DC
330
1F
100
AcDbEntity
  8
0
  6
Continuous
 62
     7
370
    25
100
AcDbCircle
 10
5.9144716381
 20
15.9306664066
 30
0.0
 40
0.1470911962924179
100
AcDbArc
 50
246.2835708127
 51
336.7745664599
  0
ARC
  5
DD
330
1F
100
AcDbEntity
  8
0
  6
Continuous
 62
     7
370
    25
100
AcDbCircle
 10
-13.1017276269
 20
20.3072334866
 30
0.0
 40
0.1470911962925135
100
AcDbArc
 50
214.8378395705
 51
300.4712380772
  0
ARC
  5
DE
330
1F
100
AcDbEntity
  8
0
  6
Continuous
 62
     7
370
    25
100
AcDbCircle
 10
-13.276929856
 20
20.5589615509
 30
0.0
 40
0.1470911962925217
100
AcDbArc
 50
120.5259805895
 51
214.8378395705
  0
ARC
  5
DF
330
1F
100
AcDbEntity
  8
0
  6
Continuous
 62
     7
370
    25
100
AcDbCircle
 10
3.9452329387
 20
23.4067595351
 30
0.0
 40
0.1470911962925409
100
AcDbArc
 50
348.3875337146
 51
78.0317105298
  0
ARC
  5
E0
330
1F
100
AcDbEntity
  8
0
  6
Continuous
 62
     7
370
    25
100
AcDbCircle
 10
3.8836734508
 20
23.1071960121
 30
0.0
 40
0.1470911962925126
100
AcDbArc
 50
258.02709573
 51
348.3875337146
  0
ENDSEC
  0
SECTION
  2
OBJECTS
  0
DICTIONARY
  5
C
330
0
100
AcDbDictionary
281
     1
  3
ACAD_GROUP
350
D
  3
ACAD_LAYOUT
350
1A
  3
ACAD_MLINESTYLE
350
17
  3
ACAD_PLOTSETTINGS
350
19
  3
ACAD_PLOTSTYLENAME
350
E
  3
ACAD_SCALELIST
350
47
  3
DWGPROPS
350
E1
  0
DICTIONARY
  5
D
102
{ACAD_REACTORS
330
C
102
}
330
C
100
AcDbDictionary
281
     1
  0
DICTIONARY
  5
1A
102
{ACAD_REACTORS
330
C
102
}
330
C
100
AcDbDictionary
281
     1
  3
Layout1
350
1E
  3
Layout2
350
26
  3
Model
350
22
  0
DICTIONARY
  5
17
102
{ACAD_REACTORS
330
C
102
}
330
C
100
AcDbDictionary
281
     1
  3
Standard
350
18
  0
DICTIONARY
  5
19
102
{ACAD_REACTORS
330
C
102
}
330
C
100
AcDbDictionary
281
     1
  0
ACDBDICTIONARYWDFLT
  5
E
102
{ACAD_REACTORS
330
C
102
}
330
C
100
AcDbDictionary
281
     1
  3
Normal
350
F
100
AcDbDictionaryWithDefault
340
F
  0
DICTIONARY
  5
47
102
{ACAD_REACTORS
330
C
102
}
330
C
100
AcDbDictionary
281
     1
  3
A0
350
48
  3
A1
350
49
  3
A2
350
4A
  3
A3
350
4B
  3
A4
350
4C
  3
A5
350
4D
  3
A6
350
4E
  3
A7
350
4F
  3
A8
350
50
  3
A9
350
51
  3
B0
350
52
  3
B1
350
53
  3
B2
350
54
  3
B3
350
55
  3
B4
350
56
  3
B5
350
57
  3
B6
350
58
  0
XRECORD
  5
E1
102
{ACAD_REACTORS
330
C
102
}
330
C
100
AcDbXrecord
280
     1
  1
DWGPROPS COOKIE
  2

  3

  4

  6

  7

  8
Admin
  9

300
=
301
=
302
=
303
=
304
=
305
=
306
=
307
=
308
=
309
=
 40
0.0
 41
2460253.966018935
 42
2460253.966050683
  1

 90
        0
  0
LAYOUT
  5
1E
102
{ACAD_REACTORS
330
1A
102
}
330
1A
100
AcDbPlotSettings
  1

  2
none_device
  4

  6

 40
0.0
 41
0.0
 42
0.0
 43
0.0
 44
0.0
 45
0.0
 46
0.0
 47
0.0
 48
0.0
 49
0.0
140
0.0
141
0.0
142
1.0
143
1.0
 70
   688
 72
     1
 73
     0
 74
     5
  7

 75
    16
147
1.0
148
0.0
149
0.0
100
AcDbLayout
  1
Layout1
 70
     1
 71
     1
 10
0.0
 20
0.0
 11
420.0
 21
297.0
 12
0.0
 22
0.0
 32
0.0
 14
1.0000000000E+20
 24
1.0000000000E+20
 34
1.0000000000E+20
 15
-1.0000000000E+20
 25
-1.0000000000E+20
 35
-1.0000000000E+20
146
0.0
 13
0.0
 23
0.0
 33
0.0
 16
1.0
 26
0.0
 36
0.0
 17
0.0
 27
1.0
 37
0.0
 76
     0
330
1B
  0
LAYOUT
  5
26
102
{ACAD_REACTORS
330
1A
102
}
330
1A
100
AcDbPlotSettings
  1

  2
none_device
  4

  6

 40
0.0
 41
0.0
 42
0.0
 43
0.0
 44
0.0
 45
0.0
 46
0.0
 47
0.0
 48
0.0
 49
0.0
140
0.0
141
0.0
142
1.0
143
1.0
 70
   688
 72
     1
 73
     0
 74
     5
  7

 75
    16
147
1.0
148
0.0
149
0.0
100
AcDbLayout
  1
Layout2
 70
     1
 71
     2
 10
0.0
 20
0.0
 11
0.0
 21
0.0
 12
0.0
 22
0.0
 32
0.0
 14
0.0
 24
0.0
 34
0.0
 15
0.0
 25
0.0
 35
0.0
146
0.0
 13
0.0
 23
0.0
 33
0.0
 16
1.0
 26
0.0
 36
0.0
 17
0.0
 27
1.0
 37
0.0
 76
     0
330
23
  0
LAYOUT
  5
22
102
{ACAD_REACTORS
330
1A
102
}
330
1A
100
AcDbPlotSettings
  1

  2
none_device
  4
ANSI_A_(11.00_x_8.50_Inches)
  6

 40
6.35
 41
19.05
 42
6.35000508
 43
19.05000254
 44
279.4
 45
215.9
 46
126.3301311529
 47
80.7428365139
 48
0.0
 49
0.0
140
0.0
141
0.0
142
0.1881847133
143
1.0
 70
  1696
 72
     0
 73
     0
 74
     0
  7

 75
     0
147
0.0179189148
148
-1300.4909072572
149
0.0
100
AcDbLayout
  1
Model
 70
     1
 71
     0
 10
0.0
 20
0.0
 11
420.0
 21
297.0
 12
0.0
 22
0.0
 32
0.0
 14
-25.6282909356
 24
-20.6517937299
 34
0.0
 15
28.5655400296
 25
24.0649096327
 35
0.0
146
0.0
 13
0.0
 23
0.0
 33
0.0
 16
1.0
 26
0.0
 36
0.0
 17
0.0
 27
1.0
 37
0.0
 76
     0
330
1F
331
29
  0
MLINESTYLE
  5
18
102
{ACAD_REACTORS
330
17
102
}
330
17
100
AcDbMlineStyle
  2
Standard
 70
     0
  3

 62
   256
 51
90.0
 52
90.0
 71
     2
 49
0.5
 62
   256
  6
BYLAYER
 49
-0.5
 62
   256
  6
BYLAYER
  0
ACDBPLACEHOLDER
  5
F
102
{ACAD_REACTORS
330
E
102
}
330
E
  0
SCALE
  5
48
102
{ACAD_REACTORS
330
47
102
}
330
47
100
AcDbScale
 70
     0
300
1:1
140
1.0
141
1.0
290
     1
  0
SCALE
  5
49
102
{ACAD_REACTORS
330
47
102
}
330
47
100
AcDbScale
 70
     0
300
1:2
140
1.0
141
2.0
290
     0
  0
SCALE
  5
4A
102
{ACAD_REACTORS
330
47
102
}
330
47
100
AcDbScale
 70
     0
300
1:4
140
1.0
141
4.0
290
     0
  0
SCALE
  5
4B
102
{ACAD_REACTORS
330
47
102
}
330
47
100
AcDbScale
 70
     0
300
1:5
140
1.0
141
5.0
290
     0
  0
SCALE
  5
4C
102
{ACAD_REACTORS
330
47
102
}
330
47
100
AcDbScale
 70
     0
300
1:8
140
1.0
141
8.0
290
     0
  0
SCALE
  5
4D
102
{ACAD_REACTORS
330
47
102
}
330
47
100
AcDbScale
 70
     0
300
1:10
140
1.0
141
10.0
290
     0
  0
SCALE
  5
4E
102
{ACAD_REACTORS
330
47
102
}
330
47
100
AcDbScale
 70
     0
300
1:16
140
1.0
141
16.0
290
     0
  0
SCALE
  5
4F
102
{ACAD_REACTORS
330
47
102
}
330
47
100
AcDbScale
 70
     0
300
1:20
140
1.0
141
20.0
290
     0
  0
SCALE
  5
50
102
{ACAD_REACTORS
330
47
102
}
330
47
100
AcDbScale
 70
     0
300
1:30
140
1.0
141
30.0
290
     0
  0
SCALE
  5
51
102
{ACAD_REACTORS
330
47
102
}
330
47
100
AcDbScale
 70
     0
300
1:40
140
1.0
141
40.0
290
     0
  0
SCALE
  5
52
102
{ACAD_REACTORS
330
47
102
}
330
47
100
AcDbScale
 70
     0
300
1:50
140
1.0
141
50.0
290
     0
  0
SCALE
  5
53
102
{ACAD_REACTORS
330
47
102
}
330
47
100
AcDbScale
 70
     0
300
1:100
140
1.0
141
100.0
290
     0
  0
SCALE
  5
54
102
{ACAD_REACTORS
330
47
102
}
330
47
100
AcDbScale
 70
     0
300
2:1
140
2.0
141
1.0
290
     0
  0
SCALE
  5
55
102
{ACAD_REACTORS
330
47
102
}
330
47
100
AcDbScale
 70
     0
300
4:1
140
4.0
141
1.0
290
     0
  0
SCALE
  5
56
102
{ACAD_REACTORS
330
47
102
}
330
47
100
AcDbScale
 70
     0
300
8:1
140
8.0
141
1.0
290
     0
  0
SCALE
  5
57
102
{ACAD_REACTORS
330
47
102
}
330
47
100
AcDbScale
 70
     0
300
10:1
140
10.0
141
1.0
290
     0
  0
SCALE
  5
58
102
{ACAD_REACTORS
330
47
102
}
330
47
100
AcDbScale
 70
     0
300
100:1
140
100.0
141
1.0
290
     0
  0
ENDSEC
  0
EOF
